<svg xmlns="http://www.w3.org/2000/svg" xmlns:xlink="http://www.w3.org/1999/xlink" width="144" height="40" viewBox="0 0 144 40">
    <defs>
        <path id="8f3k1vpura" d="M0 0L15.196 0 15.196 18.267 0 18.267z"/>
    </defs>
    <g fill="none" fill-rule="evenodd">
        <g>
            <g>
                <g fill-rule="nonzero">
                    <path fill="#E75A2B" d="M0 19.836c0 15.87 3.959 19.837 19.795 19.837 15.836 0 19.795-3.968 19.795-19.837S35.63 0 19.795 0C3.959 0 0 3.967 0 19.836z" transform="translate(-210 -30) translate(210 30)"/>
                    <path fill="#FFC55A" d="M30.439 19.081c.018.122.005.246-.04.361l-.904 2.173c-.089.235-.295.406-.541.45l-2.57.458c-.389.069-.759-.19-.828-.578-.015-.085-.015-.173.001-.258l.41-2.179c.056-.299.294-.529.594-.574l3.066-.452c.39-.06.753.21.812.6zm-1.854.761l-1.305.194c-.1.015-.18.091-.2.191l-.124.664c-.024.13.06.254.19.278.028.005.057.005.085 0l1.16-.206c.08-.015.147-.069.178-.144l.27-.65c.05-.121-.008-.26-.129-.311-.04-.017-.083-.022-.125-.016zm3.691-5.3c.015.116 0 .234-.04.343l-.872 2.19c-.093.244-.31.417-.566.454l-3.535.51c-.39.056-.751-.216-.807-.606-.01-.078-.009-.156.006-.233l.413-2.202c.058-.306.305-.539.613-.577l3.992-.5c.391-.048.748.23.796.621zm-2.234.71l-2.286.286c-.103.013-.185.09-.205.192l-.133.71c-.024.129.06.253.19.277.025.005.052.006.078.002l2.137-.31c.083-.012.153-.067.185-.144l.283-.686c.05-.121-.007-.26-.128-.31-.038-.017-.08-.022-.12-.017zM34.6 8.893c.01.14-.01.282-.06.413l-1.224 3.075c-.125.328-.42.56-.768.605l-6.415.823c-.52.067-.997-.302-1.064-.824-.012-.095-.01-.191.007-.286l.7-3.363c.075-.428.43-.751.863-.785l6.94-.534c.523-.04.98.352 1.02.876zm-2.74.927l-4.902.405-.366 1.886 4.83-.668c.165-.022.306-.13.372-.284l.384-.898c.069-.16-.006-.347-.167-.416-.047-.02-.099-.03-.15-.025z" transform="translate(-210 -30) translate(210 30)"/>
                    <path fill="#E75A2B" d="M17.338 10.236H13.31c-1.014 0-1.88.728-2.058 1.728L8.544 27.296c-.201 1.138.557 2.225 1.693 2.426.12.022.243.032.365.032h4.057c1-.014 1.853-.738 2.028-1.728l.728-4.111h1.359l-.599 3.38c-.201 1.138.557 2.225 1.693 2.427.12.022.242.032.365.032h4.028c1.013 0 1.88-.728 2.057-1.728l2.709-15.332c.2-1.138-.557-2.225-1.694-2.426-.12-.022-.242-.032-.364-.032h-4.058c-1 .014-1.85.737-2.027 1.726l-.705 3.965H18.82l.575-3.23c.203-1.138-.554-2.226-1.69-2.429-.121-.022-.244-.032-.367-.032zm0 1.031c.063 0 .125.006.186.017.571.101.953.643.86 1.215l-.002.017-.702 3.943c-.004.025-.006.05-.006.075 0 .23.183.419.412.425h2.6c.201 0 .375-.142.415-.34l.002-.01.795-4.466c.09-.502.52-.869 1.028-.876H26.969c.062 0 .124.005.185.016.57.102.953.643.862 1.214l-.003.018-2.708 15.33c-.089.503-.521.87-1.029.878H20.233c-.062 0-.124-.005-.185-.016-.571-.102-.954-.643-.862-1.215l.003-.017.725-4.093c.004-.024.006-.049.006-.074 0-.23-.184-.419-.413-.425h-2.6c-.201 0-.375.143-.415.34l-.002.01-.817 4.613c-.089.502-.52.87-1.028.877h-4.043c-.062 0-.124-.005-.185-.016-.57-.102-.954-.643-.862-1.214l.003-.018 2.708-15.33c.089-.503.52-.87 1.028-.878h4.044z" transform="translate(-210 -30) translate(210 30)"/>
                    <path fill="#FFF" d="M17.338 11.267H13.31c-.514 0-.954.37-1.044.877L9.558 27.475c-.102.578.282 1.13.859 1.232.06.01.123.016.185.016h4.027c.514 0 .954-.37 1.044-.877l.817-4.612c.036-.203.212-.35.417-.35h2.589c.234 0 .424.19.424.424 0 .025-.002.05-.006.074l-.725 4.093c-.102.578.282 1.13.859 1.232.06.01.123.016.185.016h4.028c.514 0 .954-.37 1.044-.877l2.708-15.331c.102-.578-.282-1.13-.859-1.232-.06-.01-.123-.016-.185-.016h-4.027c-.514 0-.954.37-1.044.876l-.795 4.465c-.036.203-.212.35-.417.35h-2.588c-.235 0-.424-.19-.424-.424 0-.025.002-.05.006-.075l.702-3.943c.103-.578-.281-1.13-.858-1.232-.061-.011-.123-.017-.186-.017z" transform="translate(-210 -30) translate(210 30)"/>
                </g>
                <g>
                    <g transform="translate(-210 -30) translate(210 30) translate(50.82 11.204)">
                        <mask id="i2htn6ahzb" fill="#fff">
                            <use xlink:href="#8f3k1vpura"/>
                        </mask>
                        <path fill="#2B2B2B" fill-rule="nonzero" d="M3.832 17.733v-6.447c0-.295.245-.534.546-.534h6.44c.301 0 .546.24.546.534v6.447c0 .295.244.534.546.534h2.74c.302 0 .546-.239.546-.534V.535c0-.296-.244-.535-.546-.535h-2.74c-.302 0-.546.24-.546.535V6.72c0 .295-.245.535-.546.535h-6.44c-.301 0-.546-.24-.546-.535V.535C3.832.239 3.588 0 3.286 0H.546C.244 0 0 .24 0 .535v17.198c0 .295.244.534.546.534h2.74c.302 0 .546-.239.546-.534" mask="url(#i2htn6ahzb)"/>
                    </g>
                    <path fill="#2B2B2B" fill-rule="nonzero" d="M30.003 15.06s0 .003-.003.004h.005c.006-.01.011-.02.014-.03l-.016.025z" transform="translate(-210 -30) translate(210 30) translate(50.82 11.204)"/>
                    <path fill="#2B2B2B" fill-rule="nonzero" d="M21.158 9.891c-.119 0-.207-.11-.176-.223.363-1.34 1.488-2.361 3.239-2.361 1.963 0 2.888 1.426 3.053 2.375.019.11-.067.21-.18.21h-5.936zm3.06-5.523c-3.751-.078-6.916 2.978-6.836 6.95 0 4.101 3.138 6.95 6.862 6.95 2.868 0 4.775-1.245 5.76-3.209h-.005c.002 0 .003-.002.003-.004.006-.008.012-.016.015-.025l.01-.016c.006-.01.01-.021.015-.032.003-.004.004-.008.006-.013.026-.062.04-.129.04-.2 0-.252-.18-.465-.423-.52v-.002l-2.065-.602-.029-.008c-.047-.013-.095-.02-.145-.02-.209 0-.39.116-.482.284h-.002c-.456.715-1.366 1.336-2.698 1.336-1.695 0-2.981-1.182-3.263-2.557-.022-.11.065-.213.18-.213h8.867c.302 0 .546-.24.546-.534v-.72c0-4.024-2.447-6.845-6.357-6.845z" transform="translate(-210 -30) translate(210 30) translate(50.82 11.204)"/>
                    <path fill="#FDF5EC" fill-rule="nonzero" d="M29.666 14.25L29.667 14.253 29.666 14.253zM30.005 15.063h-.004l.002-.004.002.004z" transform="translate(-210 -30) translate(210 30) translate(50.82 11.204)"/>
                    <path fill="#2B2B2B" fill-rule="nonzero" d="M78.592 15.064h.004c.007-.01.01-.019.013-.028l-.017.028" transform="translate(-210 -30) translate(210 30) translate(50.82 11.204)"/>
                    <path fill="#FDF5EC" fill-rule="nonzero" d="M78.61 15.036c-.004.01-.007.018-.014.028h-.004l.017-.028" transform="translate(-210 -30) translate(210 30) translate(50.82 11.204)"/>
                    <path fill="#2B2B2B" fill-rule="nonzero" d="M69.75 9.891c-.12 0-.208-.11-.177-.223.363-1.34 1.488-2.361 3.24-2.361 1.962 0 2.887 1.426 3.052 2.375.019.11-.066.21-.18.21H69.75zm3.058-5.523c-3.75-.078-6.915 2.978-6.835 6.95 0 4.101 3.138 6.95 6.862 6.95 2.868 0 4.775-1.245 5.76-3.209h-.005c.007-.008.012-.017.018-.026v-.003l.01-.016c.008-.014.015-.03.021-.045.026-.062.04-.129.04-.2 0-.253-.182-.465-.424-.52v-.002l-2.064-.602-.028-.008-.01-.002c-.043-.011-.089-.017-.136-.017-.208 0-.39.115-.482.283h-.002c-.456.715-1.366 1.336-2.698 1.336-1.695 0-2.981-1.182-3.263-2.557-.022-.11.065-.213.18-.213h8.867c.302 0 .546-.24.546-.534v-.72c0-4.024-2.446-6.845-6.357-6.845zM40.999 7.756H41l-.004.008.003-.008M41.634 4.725c-.01-.005-.02-.008-.03-.011v-.002l.03.013" transform="translate(-210 -30) translate(210 30) translate(50.82 11.204)"/>
                    <path fill="#FDF5EC" fill-rule="nonzero" d="M41 7.756l-.004.008.003-.008H41zM41.634 4.725c-.01-.005-.02-.008-.03-.011v-.002l.03.013" transform="translate(-210 -30) translate(210 30) translate(50.82 11.204)"/>
                    <path fill="#2B2B2B" fill-rule="nonzero" d="M41.983 5.22c0 .07-.014.136-.038.198h-.001c0 .003-.003.008-.005.012L41 7.753h-.001l-.003.008-.006.015-.009.022c-.084.188-.277.32-.5.32-.06 0-.116-.01-.17-.027v.002c-.3-.117-.663-.171-1.082-.171-.765 0-1.412.274-1.87.792-.458.518-.724 1.28-.724 2.255v6.71c0 .296-.244.535-.546.535h-2.784c-.301 0-.546-.24-.546-.535V5.275c0-.295.245-.534.546-.534h2.245c.226 0 .43.137.51.344l.311.8c.052.131.234.155.317.04.652-.9 1.704-1.559 3.114-1.559.668 0 1.276.118 1.802.343v.001l.03.011c.002 0 .003 0 .005.002l.032.014.036.018.006.003c.162.093.271.265.271.462M47.645 17.68v-7.085c0-1.791.846-2.7 2.184-2.7 1.31 0 2.02.802 2.02 2.433v7.351c0 .296.244.535.546.535h2.784c.302 0 .546-.24.546-.535v-7.084c0-1.791.846-2.7 2.184-2.7s1.993.802 1.993 2.433v7.351c0 .296.244.535.546.535h2.784c.302 0 .546-.24.546-.535V9.392c0-3.422-1.638-5.026-4.395-5.026-1.772 0-3.158.734-4.043 1.711-.08.089-.224.076-.289-.024-.722-1.117-1.88-1.687-3.475-1.687-1.684 0-3.09.725-3.899 1.611-.09.1-.258.067-.305-.059l-.306-.825c-.079-.212-.284-.352-.513-.352h-2.239c-.301 0-.546.239-.546.534V17.68c0 .296.245.535.546.535H47.1c.301 0 .546-.24.546-.535M92.45 17.661v-2.13c0-.295-.244-.534-.545-.534h-5.701c-.065 0-.128-.03-.161-.085-.042-.068-.033-.149.013-.205l6.134-7.48c.078-.095.12-.213.12-.334V4.83c0-.296-.244-.535-.546-.535H81.728c-.302 0-.546.24-.546.535v2.13c0 .295.244.535.546.535h5.363c.064 0 .127.03.16.084.042.069.033.15-.013.206l-6.112 7.426c-.091.111-.14.25-.14.392v2.058c0 .296.244.535.545.535h10.374c.301 0 .546-.24.546-.535" transform="translate(-210 -30) translate(210 30) translate(50.82 11.204)"/>
                </g>
            </g>
        </g>
    </g>
</svg>
