<?xml version="1.0" encoding="UTF-8"?>
<svg width="140px" height="40px" viewBox="0 0 140 40" version="1.1"
    xmlns="http://www.w3.org/2000/svg"
    xmlns:xlink="http://www.w3.org/1999/xlink">
    <defs>
        <polygon id="path-1" points="0 0 15.2721134 0 15.2721134 18.4181304 0 18.4181304"></polygon>
    </defs>
    <g id="Page-1" stroke="none" stroke-width="1" fill="none" fill-rule="evenodd">
        <g id="Group-45-Copy-2">
            <g id="Group-32" transform="translate(47.086856, 11.296154)">
                <g id="Fill-1-Clipped">
                    <mask id="mask-2" fill="white">
                        <use xlink:href="#path-1"></use>
                    </mask>
                    <g id="path-1"></g>
                    <path d="M3.85147845,17.8790632 L3.85147845,11.3794397 C3.85147845,11.0817848 4.09711299,10.8403725 4.40017813,10.8403725 L10.8719993,10.8403725 C11.1750644,10.8403725 11.4206989,11.0817848 11.4206989,11.3794397 L11.4206989,17.8790632 C11.4206989,18.1767181 11.6663335,18.4181304 11.9693986,18.4181304 L14.7234137,18.4181304 C15.0264788,18.4181304 15.2721134,18.1767181 15.2721134,17.8790632 L15.2721134,0.539067232 C15.2721134,0.241412274 15.0264788,0 14.7234137,0 L11.9693986,0 C11.6663335,0 11.4206989,0.241412274 11.4206989,0.539067232 L11.4206989,6.77553602 C11.4206989,7.07328084 11.1750644,7.31460326 10.8719993,7.31460326 L4.40017813,7.31460326 C4.09711299,7.31460326 3.85147845,7.07328084 3.85147845,6.77553602 L3.85147845,0.539067232 C3.85147845,0.241412274 3.60575244,0 3.30277878,0 L0.548672234,0 C0.245698567,0 -2.74349834e-05,0.241412274 -2.74349834e-05,0.539067232 L-2.74349834e-05,17.8790632 C-2.74349834e-05,18.1767181 0.245698567,18.4181304 0.548672234,18.4181304 L3.30277878,18.4181304 C3.60575244,18.4181304 3.85147845,18.1767181 3.85147845,17.8790632" id="Fill-1" fill="#FFFFFF" fill-rule="nonzero" mask="url(#mask-2)"></path>
                </g>
                <path d="M30.1532985,15.1833559 C30.1532985,15.1852141 30.1523726,15.1870722 30.1505204,15.1880013 L30.1551507,15.1880013 C30.1616334,15.1776886 30.1662637,15.1675617 30.1690419,15.1573419 C30.1653376,15.1665397 30.1597811,15.1749943 30.1532985,15.1833559 L30.1532985,15.1833559 Z" id="Fill-4" fill="#2B2B2B" fill-rule="nonzero"></path>
                <path d="M21.2642979,9.97274378 C21.1445899,9.97274378 21.0559749,9.86133654 21.0867021,9.74777305 C21.4518617,8.3974995 22.5822745,7.36725215 24.3421372,7.36725215 C26.314804,7.36725215 27.2442098,8.80503432 27.4101,9.76142942 C27.4293044,9.87184837 27.343616,9.97274378 27.2295779,9.97274378 L21.2642979,9.97274378 Z M24.3384792,4.40417929 C20.5689125,4.32511608 17.3882834,7.40678377 17.4687593,11.4111548 C17.4687593,15.546699 20.622868,18.4181304 24.3649997,18.4181304 C27.247502,18.4181304 29.1642929,17.1630022 30.1537812,15.183727 L30.1492087,15.183727 C30.1510378,15.1828286 30.1519523,15.1810317 30.1519523,15.1792348 C30.1583536,15.1711488 30.1638406,15.1630628 30.1674988,15.1540783 C30.1711567,15.1486877 30.1739001,15.143297 30.1766437,15.1379063 C30.1830453,15.127125 30.1876178,15.1163436 30.1921902,15.1055623 C30.1949336,15.1019685 30.1967627,15.0974763 30.1985918,15.0920856 C30.2241978,15.0300928 30.2379152,14.9627094 30.2379152,14.8917323 C30.2379152,14.6365738 30.0568443,14.4218453 29.8135874,14.3670402 L29.8126729,14.3670402 L29.8126729,14.3643448 L27.7376737,13.7578942 L27.7093241,13.7498082 L27.7084098,13.7498082 C27.6617703,13.7363315 27.6133017,13.7300424 27.5630043,13.7300424 C27.3535838,13.7300424 27.1706841,13.8459418 27.0783197,14.015748 L27.0764906,14.015748 C26.6183264,14.7363012 25.703827,15.3625176 24.3649997,15.3625176 C22.6617445,15.3625176 21.3689166,14.1708197 21.0863363,12.784788 C21.0636567,12.6737401 21.1513572,12.5701494 21.2664927,12.5701494 L30.1784728,12.5701494 C30.4815378,12.5701494 30.7271723,12.328827 30.7271723,12.0310822 L30.7271723,11.3060367 C30.7271723,7.24865737 28.2680833,4.40417929 24.3384792,4.40417929 L24.3384792,4.40417929 Z" id="Fill-6" fill="#FFFFFF" fill-rule="nonzero"></path>
                <polygon id="Fill-8" fill="#FDF5EC" fill-rule="nonzero" points="29.8140946 14.3680408 29.8150207 14.3708281 29.8140946 14.3708281"></polygon>
                <path d="M30.1552376,15.1875545 L30.1506072,15.1875545 C30.1524595,15.1866254 30.1533854,15.1847673 30.1533854,15.1829092 L30.1552376,15.1875545 Z" id="Fill-10" fill="#FDF5EC" fill-rule="nonzero"></path>
                <path d="M78.9847694,15.1879374 L78.9894924,15.1879374 C78.9958824,15.1786466 78.9995867,15.1693559 79.0023648,15.1600652 C78.9969011,15.1693559 78.9912518,15.1786466 78.9847694,15.1879374" id="Fill-12" fill="#2B2B2B" fill-rule="nonzero"></path>
                <path d="M79.0024016,15.1600831 C78.9996232,15.1693739 78.9959189,15.1786646 78.9894363,15.1879553 L78.9848059,15.1879553 C78.9912886,15.1786646 78.9968451,15.1693739 79.0024016,15.1600831" id="Fill-14" fill="#FDF5EC" fill-rule="nonzero"></path>
                <path d="M70.0985227,9.97274378 C69.9789062,9.97274378 69.8901998,9.86133654 69.920927,9.74777305 C70.2861782,8.3974995 71.4164994,7.36725215 73.1763621,7.36725215 C75.1491203,7.36725215 76.0785261,8.80503432 76.2444163,9.76142942 C76.2635293,9.87184837 76.1779322,9.97274378 76.0638028,9.97274378 L70.0985227,9.97274378 Z M73.1727041,4.40417929 C69.4031375,4.32511608 66.2225082,7.40678377 66.3029843,11.4111548 C66.3029843,15.546699 69.4570928,18.4181304 73.1992246,18.4181304 C76.0818183,18.4181304 77.9986091,17.1630022 78.9880977,15.183727 L78.9834336,15.183727 C78.9899265,15.1747426 78.9954135,15.1657581 79.0009005,15.1567737 C79.0017237,15.1558752 79.0017237,15.1549768 79.0017237,15.1540783 C79.0053816,15.1486877 79.0082166,15.143297 79.01096,15.1379063 C79.0191907,15.1235312 79.0265065,15.1082576 79.0328167,15.0920856 C79.058514,15.0300928 79.0722315,14.9627094 79.0722315,14.8917323 C79.0722315,14.6356753 78.8902462,14.4218453 78.6469894,14.3670402 L78.6469894,14.3643448 L76.5718986,13.7578942 C76.5619305,13.7551988 76.5526942,13.7516051 76.5436406,13.7498082 C76.5408056,13.7489097 76.5371477,13.7480113 76.5344957,13.7471128 C76.4905082,13.7363315 76.4447832,13.7300424 76.3973206,13.7300424 C76.1879003,13.7300424 76.0050004,13.8459418 75.9125446,14.015748 L75.9108069,14.015748 C75.4526427,14.7363012 74.5381433,15.3625176 73.1992246,15.3625176 C71.4959694,15.3625176 70.2032329,14.1708197 69.9205612,12.784788 C69.897973,12.6737401 69.9855822,12.5701494 70.100809,12.5701494 L79.0127891,12.5701494 C79.3157627,12.5701494 79.5614888,12.328827 79.5614888,12.0310822 L79.5614888,11.3060367 C79.5614888,7.24865737 77.1023998,4.40417929 73.1727041,4.40417929 L73.1727041,4.40417929 Z" id="Fill-16" fill="#FFFFFF" fill-rule="nonzero"></path>
                <path d="M41.2041844,7.82008795 L41.2051105,7.82008795 L41.201406,7.82844962 C41.2023322,7.82566241 41.2032583,7.82287518 41.2041844,7.82008795" id="Fill-18" fill="#2B2B2B" fill-rule="nonzero"></path>
                <path d="M41.8427301,4.763929 C41.8325432,4.75928361 41.8223564,4.75556731 41.8121695,4.75278011 L41.8121695,4.75092195 C41.8223564,4.75463824 41.8325432,4.75928361 41.8427301,4.763929" id="Fill-20" fill="#2B2B2B" fill-rule="nonzero"></path>
                <path d="M41.2051378,7.82008795 L41.2014336,7.82844962 C41.2023597,7.82566241 41.2032856,7.82287518 41.2042117,7.82008795 L41.2051378,7.82008795 Z" id="Fill-22" fill="#FDF5EC" fill-rule="nonzero"></path>
                <path d="M41.8427301,4.763929 C41.8325432,4.75928361 41.8223564,4.75556731 41.8121695,4.75278011 L41.8121695,4.75092195 C41.8223564,4.75463824 41.8325432,4.75928361 41.8427301,4.763929" id="Fill-24" fill="#FDF5EC" fill-rule="nonzero"></path>
                <path d="M42.1931665,5.26310204 C42.1931665,5.33318078 42.1794489,5.4005642 42.1547574,5.46255692 L42.1538429,5.46255692 C42.1529286,5.4661507 42.1510995,5.47064295 42.1492704,5.47513517 L41.203678,7.81648385 L41.2027637,7.81648385 C41.2018491,7.81917917 41.2009346,7.82187451 41.2000201,7.82456985 C41.198191,7.82996052 41.1963621,7.83445274 41.1936185,7.83984343 C41.1917897,7.84703097 41.1881315,7.85421854 41.1853881,7.86230455 C41.1003396,8.05187653 40.9064658,8.18484645 40.6824133,8.18484645 C40.622971,8.18484645 40.566272,8.175862 40.5123164,8.15789309 L40.5123164,8.15968997 C40.2105318,8.04199362 39.8456463,7.98718846 39.4240622,7.98718846 C38.6558827,7.98718846 38.0047591,8.26390964 37.5447659,8.78590642 C37.0847726,9.30790318 36.8177386,10.076074 36.8177386,11.0598717 L36.8177386,17.8251654 C36.8177386,18.1229102 36.5721041,18.3642327 36.2690391,18.3642327 L33.4706707,18.3642327 C33.1676971,18.3642327 32.921971,18.1229102 32.921971,17.8251654 L32.921971,5.31880567 C32.921971,5.02106086 33.1676971,4.77973844 33.4706707,4.77973844 L35.726741,4.77973844 C35.9544511,4.77973844 36.1583846,4.91809902 36.2388605,5.12653836 L36.5523509,5.93262355 C36.6042944,6.06595286 36.7867373,6.09003118 36.870871,5.97359267 C37.5262014,5.06652221 38.5829055,4.40239137 40.0001967,4.40239137 C40.6714393,4.40239137 41.282325,4.52098617 41.8109057,4.74739441 L41.8109057,4.74919129 C41.8209652,4.75188663 41.8310247,4.75548042 41.8410842,4.75997264 C41.8429133,4.75997264 41.8447421,4.76087108 41.8465712,4.76176952 C41.8575452,4.76716021 41.8676047,4.77165243 41.8785787,4.77614466 C41.8904671,4.78153532 41.9023556,4.78782445 41.9142442,4.79411357 C41.916073,4.79501201 41.9188167,4.79591045 41.9206457,4.79770733 C42.0834265,4.89114566 42.1931665,5.06454563 42.1931665,5.26310204" id="Fill-26" fill="#FFFFFF" fill-rule="nonzero"></path>
                <path d="M47.8831546,17.8251924 L47.8831546,10.6825516 C47.8831546,8.87658651 48.7337307,7.96026205 50.0779533,7.96026205 C51.3948325,7.96026205 52.1081421,8.7688629 52.1081421,10.413018 L52.1081421,17.8251924 C52.1081421,18.1228473 52.3538682,18.3642596 52.6568418,18.3642596 L55.4553016,18.3642596 C55.7582752,18.3642596 56.0040011,18.1228473 56.0040011,17.8251924 L56.0040011,10.6825516 C56.0040011,8.87658651 56.8544858,7.96026205 58.1987998,7.96026205 C59.5430226,7.96026205 60.2014621,8.7688629 60.2014621,10.413018 L60.2014621,17.8251924 C60.2014621,18.1228473 60.4471882,18.3642596 60.7501618,18.3642596 L63.5486217,18.3642596 C63.8515953,18.3642596 64.0973214,18.1228473 64.0973214,17.8251924 L64.0973214,9.4696503 C64.0973214,6.01962002 62.4512222,4.40241832 59.6801974,4.40241832 C57.8992099,4.40241832 56.5067929,5.14201857 55.6170765,6.12734363 C55.5363263,6.21691863 55.3920181,6.20407085 55.3268144,6.10299576 C54.6009761,4.97679445 53.4367268,4.40241832 51.8337922,4.40241832 C50.1420597,4.40241832 48.7292496,5.13294427 47.9159851,6.02680759 C47.8243522,6.12752331 47.6564502,6.09428084 47.6094449,5.9673305 L47.3012587,5.13456148 C47.2223373,4.92154006 47.0163006,4.7797654 46.7855724,4.7797654 L44.5360867,4.7797654 C44.2331131,4.7797654 43.987387,5.02108781 43.987387,5.31883263 L43.987387,17.8251924 C43.987387,18.1228473 44.2331131,18.3642596 44.5360867,18.3642596 L47.3344549,18.3642596 C47.6375201,18.3642596 47.8831546,18.1228473 47.8831546,17.8251924" id="Fill-28" fill="#FFFFFF" fill-rule="nonzero"></path>
                <path d="M92.9131442,17.8072055 L92.9131442,15.6594718 C92.9131442,15.361727 92.6674181,15.1204046 92.3644444,15.1204046 L86.6352884,15.1204046 C86.5703588,15.1204046 86.5067097,15.0902168 86.4735133,15.0353218 C86.4316293,14.9663212 86.4405915,14.8850119 86.4868649,14.8282302 L92.6510486,7.2871288 C92.7292383,7.19135453 92.7719454,7.07231051 92.7719454,6.94958287 L92.7719454,4.86959196 C92.7719454,4.57184716 92.5263109,4.33052472 92.2232457,4.33052472 L82.1368654,4.33052472 C81.8338004,4.33052472 81.5881659,4.57184716 81.5881659,4.86959196 L81.5881659,7.01732564 C81.5881659,7.31498061 81.8338004,7.55639288 82.1368654,7.55639288 L87.5263765,7.55639288 C87.5913061,7.55639288 87.6548637,7.5866705 87.68806,7.64147567 C87.7298526,7.71065595 87.720982,7.79205511 87.6744339,7.84883685 L81.5321985,15.3370198 C81.4404742,15.4487864 81.390451,15.5880454 81.390451,15.7315271 L81.390451,17.8072055 C81.390451,18.1048605 81.6361771,18.3462727 81.9391507,18.3462727 L92.3644444,18.3462727 C92.6674181,18.3462727 92.9131442,18.1048605 92.9131442,17.8072055" id="Fill-30" fill="#FFFFFF" fill-rule="nonzero"></path>
            </g>
            <g id="hermez" fill="#7950DD">
                <path d="M15.3264901,39.2981074 C16.1219609,39.7586109 17.0239546,40.0007495 17.9420083,40 C18.860062,40.0007495 19.7620557,39.7586109 20.5574011,39.2981074 L33.2686239,31.9247681 C34.0627146,31.4623778 34.7223029,30.7986036 35.181267,29.9999866 C35.6401057,29.2013696 35.882511,28.2957085 35.8840166,27.3734436 L35.8840166,12.626765 C35.882511,11.7045001 35.6401057,10.798839 35.181267,10.000222 C34.7223029,9.20160496 34.0627146,8.53783083 33.2686239,8.07544052 L30.8381718,6.6657161 L30.8689116,6.61231984 C30.0902536,6.16062136 29.2269042,5.87572804 28.3333169,5.77556444 C27.4397296,5.67540084 26.5352265,5.76213047 25.6765195,6.03030678 C24.817938,6.29847052 24.0238472,6.7422822 23.3443094,7.3338047 C22.664646,7.92537751 22.1143408,8.65179319 21.7277721,9.46739134 L12.235195,29.4960868 C11.9909076,30.0116847 11.6431087,30.4708046 11.2136297,30.8447672 C10.7841507,31.218604 10.2822764,31.4991073 9.73962473,31.6686672 C9.19697308,31.8381013 8.62521272,31.8929441 8.0604786,31.8296736 C7.49561901,31.7664032 6.95008158,31.5862772 6.4578683,31.3008682 L6.2142083,31.1593586 L6.1834685,31.2129436 L3.81425767,29.8386028 C3.3841137,29.5881624 3.02690463,29.2286652 2.77831371,28.7960863 C2.52973534,28.3635073 2.3984701,27.8729409 2.39765456,27.3734436 L2.39765456,12.626765 C2.3984701,12.1272677 2.52973534,11.6367013 2.77831371,11.2041223 C3.02690463,10.7715433 3.3841137,10.4120462 3.81425767,10.1616057 L16.5253425,2.78820352 C16.9560761,2.53873162 17.4446508,2.40759944 17.9418828,2.4079768 C18.4391149,2.40757428 18.9276895,2.53871904 19.3585487,2.78820352 L22.9119446,4.8494379 C23.563503,4.43366398 24.2683855,4.10514799 25.0091521,3.87382705 C25.2386341,3.80214145 25.4706256,3.74009109 25.7043735,3.68773884 L20.5574011,0.702101199 C19.7618047,0.242100826 18.8599365,0 17.9418828,0 C17.0239546,0 16.1220864,0.242100826 15.3264901,0.702101199 L2.61544294,8.07544052 C1.82125186,8.53783083 1.16172622,9.20147917 0.702762117,10.000222 C0.243798016,10.798839 0.00148052936,11.7045001 0,12.626765 L0,27.3734436 C0.00148052936,28.2957085 0.243798016,29.2013696 0.702762117,29.9999866 C1.16172622,30.7987294 1.82125186,31.4623778 2.61544294,31.9247681 L4.98398878,33.2986057 L5.79037541,31.8964662 L5.01479132,33.2453981 L5.25875245,33.3869076 C6.2509706,33.9612477 7.37617291,34.2632605 8.52132473,34.2626316 C9.75204612,34.2628832 10.9575483,33.9124426 11.9980593,33.2520647 C13.0385704,32.5918126 13.8714309,31.6485414 14.3999046,30.531811 L23.8924816,10.5031154 C24.136769,9.98751754 24.4845679,9.52839768 24.9140469,9.15443511 C25.3436513,8.78059833 25.8455257,8.50009495 26.3881774,8.33053507 C26.9309545,8.16097518 27.5025894,8.10613237 28.067449,8.16952865 C28.6323085,8.23279914 29.1779714,8.41292507 29.6700592,8.69845989 L29.6393194,8.75179327 L32.0697715,10.1616057 C32.4998778,10.4120462 32.8570869,10.7715433 33.1056402,11.2041223 C33.3541934,11.6367013 33.4855591,12.1272677 33.4863119,12.626765 L33.4863119,27.3734436 C33.4855591,27.8729409 33.3541934,28.3635073 33.1056402,28.7960863 C32.8570869,29.2286652 32.4998778,29.5881624 32.0697715,29.8386028 L19.3585487,37.2119422 C18.9275641,37.4611248 18.4391149,37.5921941 17.9418828,37.5921941 C17.4447763,37.5921941 16.9562016,37.4611248 16.5253425,37.2119422 L13.0987953,35.2243934 C12.2167511,35.7675385 11.2496392,36.1470356 10.2433811,36.3495515 L15.3264901,39.2981074 Z M14.7169637,7.38404373 L19.0864073,9.78726581 L18.0539263,11.9656324 L14.2068084,9.84978158 L12.9355606,12.8598469 L16.6573354,14.912553 L15.6246035,17.0912969 L11.1943076,14.6477729 C10.8170235,14.4409803 10.5362248,14.0928039 10.4130147,13.6790929 C10.2980854,13.293558 10.3214226,12.8795954 10.4788857,12.5095322 L12.2686951,8.27179288 C12.3616673,8.05405686 12.4959187,7.8566982 12.6639212,7.6904465 C12.8340566,7.52272309 13.0356846,7.39067267 13.2570112,7.30200593 C13.4843603,7.21009391 13.7283967,7.16760331 13.9733114,7.177314 C14.2339096,7.18657187 14.4887363,7.25738954 14.7169637,7.38404373 Z M24.1101696,15.2965785 L25.1426507,13.1180861 L28.9669333,15.2214841 C29.3439664,15.4276477 29.6248906,15.7748178 29.7488535,16.1877742 C29.8642846,16.5746927 29.8409475,16.9899132 29.6829825,17.36136 L27.893675,21.5977157 C27.7572906,21.9214895 27.5293142,22.1979677 27.2378506,22.3928106 C26.9465126,22.5876536 26.6046107,22.692182 26.2546788,22.6936914 C26.2327218,22.6936914 26.2108902,22.693314 26.1890587,22.6924335 C25.9287114,22.6817417 25.6742611,22.6110498 25.4454064,22.4857667 L21.7127158,20.431048 L21.7115866,20.4321801 L21.7099555,20.4335638 L21.7098301,20.4335638 C21.7083244,20.4349474 21.7066933,20.4364568 21.7050622,20.4379663 C21.7044349,20.4384694 21.703933,20.4390984 21.7034312,20.4396015 C21.6938955,20.4487839 21.685991,20.4596015 21.6799685,20.4714254 L21.6613992,20.4635009 L22.7158372,18.2384676 C22.7420601,18.2515494 22.7679067,18.2650085 22.7935023,18.2790966 L25.9555617,20.0197269 L27.2265585,17.0105421 L24.1101696,15.2965785 Z M20.4501254,23.0191005 L20.4474906,23.0246351 C20.4823708,23.0553269 20.5087192,23.0952011 20.5231481,23.1402326 L20.3704529,23.1871509 L19.4176444,25.1975928 L22.9479541,27.1409906 L21.6769573,30.150427 L18.0228101,28.1407398 L16.9903291,30.3191064 L21.1642926,32.6147057 C21.3936492,32.7412467 21.6491033,32.8125675 21.9104543,32.8232594 C21.9322859,32.8241399 21.9541174,32.8243914 21.9759489,32.8243914 C22.1991576,32.8240141 22.4203587,32.781121 22.6277583,32.6979762 C22.8477047,32.6095485 23.0482035,32.4784792 23.2177116,32.312064 C23.3870942,32.1457745 23.5222238,31.9474096 23.6150706,31.7284157 L25.40488,27.490928 C25.5622176,27.1197327 25.5854293,26.7050154 25.4702491,26.3184742 C25.3461607,25.9056437 25.0652365,25.5584736 24.6882034,25.3521841 L20.4501254,23.0191005 Z M10.437481,17.5139388 L14.3788258,19.7198525 L13.3459684,21.8992253 L9.92619653,19.9852615 L8.65720721,22.989918 L11.9664413,24.8099195 L10.9339602,26.9882861 L6.91695787,24.7791019 C6.54005023,24.5725608 6.25912606,24.225265 6.13491216,23.8124344 C6.01973199,23.4258932 6.04294368,23.0111759 6.20028129,22.6399806 L7.98958885,18.4037508 C8.08193373,18.1865179 8.21543231,17.9895366 8.38268194,17.8234988 C8.55344469,17.6556999 8.75519818,17.5229954 8.97677571,17.4330582 C9.20600682,17.3401021 9.45242713,17.2974606 9.69947478,17.3080266 C9.95806555,17.3180895 10.2107593,17.3885298 10.437481,17.5139388 Z" id="Shape"></path>
            </g>
        </g>
    </g>
</svg>