<svg xmlns="http://www.w3.org/2000/svg" xmlns:xlink="http://www.w3.org/1999/xlink" width="90" height="25" viewBox="0 0 90 25">
    <defs>
        <path id="qo1hzby1va" d="M0 0L9.468 0 9.468 11.382 0 11.382z"/>
    </defs>
    <g fill="none" fill-rule="evenodd">
        <g>
            <g>
                <g fill-rule="nonzero">
                    <path fill="#E75A2B" d="M0 12.36c0 9.887 2.467 12.36 12.334 12.36 9.867 0 12.334-2.473 12.334-12.36C24.668 2.472 22.2 0 12.334 0 2.467 0 0 2.472 0 12.36z" transform="translate(-208 -36) translate(208 36)"/>
                    <path fill="#FFC55A" d="M18.966 11.89c.011.075.003.152-.024.224l-.564 1.354c-.056.146-.184.253-.338.28l-1.601.285c-.242.044-.473-.118-.516-.36-.01-.053-.009-.107.001-.16l.255-1.358c.035-.186.184-.33.37-.358l1.91-.281c.243-.037.47.13.507.373zm-1.156.473l-.813.12c-.062.01-.112.058-.123.12l-.078.414c-.015.08.037.158.118.173.017.003.035.003.053 0l.723-.129c.05-.009.092-.042.11-.089l.169-.405c.031-.076-.005-.163-.08-.194-.025-.01-.052-.014-.079-.01zm2.3-3.302c.01.072 0 .145-.025.213l-.543 1.366c-.057.15-.193.259-.353.282l-2.202.318c-.243.035-.468-.135-.503-.378-.007-.048-.005-.097.004-.145l.257-1.372c.036-.19.19-.336.382-.36l2.488-.31c.243-.031.465.142.496.386zm-1.391.442l-1.425.178c-.064.008-.115.057-.127.12l-.083.442c-.016.08.037.158.118.173.016.003.032.004.048.001l1.332-.193c.051-.007.095-.041.115-.09l.177-.427c.031-.076-.005-.162-.08-.194-.024-.01-.05-.013-.075-.01zm2.839-3.962c.006.088-.006.175-.038.257l-.762 1.916c-.078.205-.262.35-.479.377l-3.997.513c-.324.042-.621-.188-.663-.513-.007-.06-.006-.12.004-.178l.437-2.096c.046-.267.268-.468.538-.489l4.323-.333c.327-.025.612.22.637.546zm-1.707.578l-3.055.252-.228 1.175 3.01-.416c.103-.014.19-.081.232-.177l.239-.56c.043-.1-.004-.216-.104-.26-.03-.012-.062-.017-.094-.014z" transform="translate(-208 -36) translate(208 36)"/>
                    <path fill="#E75A2B" d="M10.803 6.378h-2.51c-.631 0-1.172.454-1.282 1.077l-1.687 9.552c-.126.71.347 1.387 1.055 1.512.075.014.15.02.227.02H9.134c.623-.009 1.154-.46 1.263-1.076l.454-2.562h.847l-.373 2.106c-.126.71.346 1.386 1.054 1.512.075.014.151.02.228.02h2.51c.63 0 1.171-.454 1.281-1.077l1.688-9.552c.125-.71-.347-1.387-1.055-1.512-.075-.014-.151-.02-.227-.02h-2.529c-.622.009-1.153.459-1.262 1.075l-.44 2.47h-.846l.358-2.012c.126-.71-.346-1.387-1.053-1.513-.076-.014-.152-.02-.229-.02zm0 .642c.039 0 .078.004.116.01.356.064.594.402.536.758l-.002.01-.437 2.457c-.003.016-.004.031-.004.047 0 .144.115.26.257.264H12.89c.125 0 .233-.088.259-.21v-.008l.496-2.782c.056-.313.325-.541.64-.546H16.805c.038 0 .077.004.115.01.356.063.594.4.537.757l-.002.01-1.687 9.553c-.055.313-.325.542-.64.547H12.606c-.04 0-.078-.004-.116-.01-.355-.064-.594-.401-.537-.757l.002-.01.452-2.551c.002-.015.004-.03.004-.046 0-.144-.115-.261-.257-.265H10.535c-.126 0-.234.089-.26.212v.006l-.51 2.874c-.055.313-.324.542-.64.547H6.605c-.038 0-.076-.004-.115-.01-.355-.064-.594-.4-.537-.757l.002-.01 1.688-9.553c.055-.313.324-.542.64-.547H10.803z" transform="translate(-208 -36) translate(208 36)"/>
                    <path fill="#FFF" d="M10.803 7.02h-2.51c-.32 0-.595.23-.65.547l-1.688 9.552c-.063.36.176.704.535.767.038.007.077.01.116.01h2.51c.32 0 .594-.23.65-.546l.508-2.874c.023-.126.132-.218.26-.218h1.614c.145 0 .264.119.264.265 0 .015-.002.03-.004.046l-.452 2.55c-.064.36.176.704.535.767.038.007.077.01.116.01h2.51c.32 0 .594-.23.65-.546l1.687-9.552c.064-.36-.176-.704-.535-.768-.038-.006-.076-.01-.115-.01h-2.51c-.32 0-.594.23-.65.546l-.495 2.782c-.023.127-.132.219-.26.219h-1.613c-.146 0-.264-.119-.264-.265 0-.016.001-.031.004-.047l.437-2.457c.064-.36-.175-.703-.534-.767-.038-.007-.077-.01-.116-.01z" transform="translate(-208 -36) translate(208 36)"/>
                </g>
                <g>
                    <g transform="translate(-208 -36) translate(208 36) translate(31.665 6.98)">
                        <mask id="7orrgkpxvb" fill="#fff">
                            <use xlink:href="#qo1hzby1va"/>
                        </mask>
                        <path fill="#2B2B2B" fill-rule="nonzero" d="M2.388 11.049V7.032c0-.184.152-.333.34-.333H6.74c.188 0 .34.15.34.333v4.017c0 .184.153.333.34.333h1.708c.188 0 .34-.15.34-.333V.333C9.468.15 9.316 0 9.128 0H7.421c-.188 0-.34.15-.34.333v3.854c0 .184-.153.333-.34.333H2.727c-.188 0-.34-.149-.34-.333V.333C2.388.15 2.235 0 2.048 0H.34C.152 0 0 .15 0 .333V11.05c0 .184.152.333.34.333h1.708c.187 0 .34-.15.34-.333" mask="url(#7orrgkpxvb)"/>
                    </g>
                    <path fill="#2B2B2B" fill-rule="nonzero" d="M18.694 9.383l-.001.003h.002c.004-.007.007-.013.009-.02-.002.007-.006.012-.01.017z" transform="translate(-208 -36) translate(208 36) translate(31.665 6.98)"/>
                    <path fill="#2B2B2B" fill-rule="nonzero" d="M13.183 6.163c-.074 0-.129-.069-.11-.14.227-.834.927-1.47 2.019-1.47 1.223 0 1.799.888 1.902 1.48.011.068-.042.13-.112.13h-3.699zm1.906-3.441c-2.337-.05-4.309 1.855-4.259 4.33 0 2.556 1.956 4.33 4.276 4.33 1.787 0 2.975-.776 3.589-1.999h-.003l.001-.003c.004-.005.008-.01.01-.015l.006-.01.01-.02.003-.008c.016-.039.025-.08.025-.124 0-.158-.113-.29-.263-.324v-.002l-1.287-.375-.018-.005c-.03-.008-.06-.012-.09-.012-.13 0-.244.071-.301.176h-.001c-.284.446-.851.833-1.681.833-1.056 0-1.858-.737-2.033-1.593-.014-.069.04-.133.112-.133h5.525c.188 0 .34-.15.34-.333v-.448c0-2.507-1.524-4.265-3.96-4.265z" transform="translate(-208 -36) translate(208 36) translate(31.665 6.98)"/>
                    <path fill="#FDF5EC" fill-rule="nonzero" d="M18.484 8.879L18.485 8.881 18.484 8.881zM18.695 9.386h-.002l.001-.003.001.003z" transform="translate(-208 -36) translate(208 36) translate(31.665 6.98)"/>
                    <path fill="#2B2B2B" fill-rule="nonzero" d="M48.969 9.386h.003l.007-.017-.01.017" transform="translate(-208 -36) translate(208 36) translate(31.665 6.98)"/>
                    <path fill="#FDF5EC" fill-rule="nonzero" d="M48.98 9.369l-.009.017h-.002l.01-.017" transform="translate(-208 -36) translate(208 36) translate(31.665 6.98)"/>
                    <path fill="#2B2B2B" fill-rule="nonzero" d="M43.46 6.163c-.075 0-.13-.069-.11-.14.226-.834.926-1.47 2.018-1.47 1.223 0 1.799.888 1.902 1.48.011.068-.042.13-.112.13h-3.699zm1.905-3.441c-2.337-.05-4.309 1.855-4.259 4.33 0 2.556 1.956 4.33 4.276 4.33 1.787 0 2.975-.776 3.589-1.999h-.003l.01-.016.001-.002.006-.01c.005-.009.01-.018.013-.028.016-.039.025-.08.025-.124 0-.158-.113-.29-.264-.324v-.002l-1.286-.375-.018-.005-.006-.002c-.027-.006-.055-.01-.085-.01-.13 0-.243.071-.3.176h-.001c-.284.446-.851.833-1.681.833-1.056 0-1.858-.737-2.033-1.593-.014-.069.04-.133.112-.133h5.525c.188 0 .34-.15.34-.333v-.448c0-2.507-1.524-4.265-3.96-4.265zM25.546 4.833l-.002.005.002-.005M25.941 2.944l-.019-.007v-.001l.02.008" transform="translate(-208 -36) translate(208 36) translate(31.665 6.98)"/>
                    <path fill="#FDF5EC" fill-rule="nonzero" d="M25.546 4.833l-.002.005.002-.005zM25.941 2.944l-.019-.007v-.001l.02.008" transform="translate(-208 -36) translate(208 36) translate(31.665 6.98)"/>
                    <path fill="#2B2B2B" fill-rule="nonzero" d="M26.159 3.252c0 .044-.009.085-.024.124l-.004.008-.586 1.446-.002.005-.004.01-.005.014c-.053.117-.173.2-.312.2-.037 0-.072-.007-.105-.018v.002c-.187-.073-.414-.107-.675-.107-.476 0-.88.17-1.165.493-.285.323-.45.798-.45 1.406v4.18c0 .185-.153.334-.341.334H20.75c-.188 0-.34-.15-.34-.333v-7.73c0-.183.152-.332.34-.332h1.399c.14 0 .267.085.317.214l.195.498c.032.083.145.098.197.026.406-.561 1.061-.971 1.94-.971.416 0 .795.073 1.123.213l.018.008h.004l.02.01.022.01.004.003c.1.058.169.165.169.287M29.686 11.016V6.602c0-1.116.528-1.683 1.361-1.683.817 0 1.259.5 1.259 1.516v4.58c0 .185.152.334.34.334h1.735c.188 0 .34-.15.34-.333V6.602c0-1.116.527-1.683 1.36-1.683.834 0 1.242.5 1.242 1.516v4.58c0 .185.153.334.34.334H39.4c.187 0 .34-.15.34-.333V5.852c0-2.132-1.02-3.131-2.739-3.131-1.104 0-1.967.457-2.519 1.066-.05.055-.14.047-.18-.015-.45-.696-1.172-1.051-2.165-1.051-1.05 0-1.925.451-2.43 1.003-.056.063-.16.042-.19-.036l-.19-.515c-.05-.132-.177-.22-.32-.22H27.61c-.188 0-.34.15-.34.334v7.729c0 .184.152.333.34.333h1.735c.188 0 .34-.15.34-.333M57.604 11.004V9.677c0-.184-.153-.333-.34-.333h-3.552c-.04 0-.08-.019-.1-.053-.027-.042-.021-.092.008-.127l3.821-4.66c.049-.06.075-.133.075-.21V3.01c0-.184-.152-.333-.34-.333h-6.253c-.188 0-.34.15-.34.333v1.328c0 .183.152.333.34.333h3.341c.04 0 .08.018.1.052.026.043.02.093-.008.128l-3.808 4.628c-.057.069-.088.155-.088.244v1.282c0 .184.152.334.34.334h6.464c.187 0 .34-.15.34-.334" transform="translate(-208 -36) translate(208 36) translate(31.665 6.98)"/>
                </g>
            </g>
        </g>
    </g>
</svg>
