<svg xmlns="http://www.w3.org/2000/svg" xmlns:xlink="http://www.w3.org/1999/xlink" width="115" height="32" viewBox="0 0 115 32">
    <defs>
        <path id="6a3x4bpd6a" d="M0 0L12.157 0 12.157 14.614 0 14.614z"/>
    </defs>
    <g fill="none" fill-rule="evenodd">
        <g>
            <g>
                <g fill-rule="nonzero">
                    <path fill="#E75A2B" d="M0 15.87c0 12.694 3.167 15.868 15.836 15.868s15.836-3.174 15.836-15.869S28.505 0 15.836 0 0 3.174 0 15.87z" transform="translate(-16 -15) translate(16 15)"/>
                    <path fill="#FFC55A" d="M24.35 15.265c.016.097.005.197-.03.289l-.724 1.738c-.071.188-.236.325-.433.36l-2.056.366c-.31.056-.607-.151-.662-.462-.012-.068-.012-.138 0-.206l.329-1.744c.044-.238.235-.423.475-.459l2.452-.362c.312-.047.603.168.65.48zm-1.482.609l-1.044.155c-.08.011-.144.073-.16.153l-.1.53c-.019.104.05.204.152.223.023.004.046.005.069 0l.928-.165c.064-.011.118-.054.142-.114l.216-.52c.04-.098-.006-.21-.103-.25-.032-.013-.066-.017-.1-.012zm2.953-4.24c.012.092 0 .187-.033.274l-.697 1.753c-.074.194-.247.333-.453.362l-2.827.408c-.312.045-.601-.172-.646-.485-.009-.062-.007-.125.004-.186l.331-1.762c.046-.244.244-.43.49-.461l3.194-.4c.313-.039.598.184.637.497zm-1.787.568l-1.83.228c-.082.01-.148.073-.163.154l-.106.568c-.02.103.048.202.151.222.02.004.042.004.062.001l1.71-.248c.066-.01.123-.053.148-.115l.227-.549c.04-.097-.006-.208-.103-.248-.03-.013-.063-.018-.096-.013zm3.645-5.087c.009.112-.008.225-.048.33l-.98 2.46c-.1.262-.335.448-.613.484l-5.132.658c-.417.054-.798-.241-.852-.659-.01-.076-.007-.153.006-.228l.56-2.691c.06-.343.344-.601.69-.628l5.552-.428c.419-.032.785.282.817.702zm-2.191.741l-3.922.324-.293 1.509 3.864-.534c.132-.019.245-.105.297-.228l.307-.718c.056-.129-.004-.278-.133-.333-.038-.017-.08-.023-.12-.02z" transform="translate(-16 -15) translate(16 15)"/>
                    <path fill="#E75A2B" d="M13.87 8.188h-3.222c-.81 0-1.505.583-1.646 1.384L6.835 21.837c-.16.91.446 1.78 1.355 1.94.096.018.194.027.291.027h3.247c.8-.012 1.481-.591 1.621-1.383l.583-3.29h1.087l-.479 2.705c-.16.91.445 1.78 1.354 1.942.097.017.194.026.292.026h3.223c.81 0 1.504-.583 1.646-1.384l2.166-12.264c.161-.911-.445-1.78-1.354-1.942-.096-.017-.194-.026-.292-.026H18.33c-.8.012-1.48.59-1.621 1.381l-.565 3.173h-1.087l.46-2.584c.162-.911-.443-1.781-1.352-1.944-.097-.017-.195-.026-.293-.026zm0 .826c.05 0 .1.004.15.013.456.081.762.515.688.972l-.002.014-.562 3.154c-.003.02-.005.04-.005.06 0 .185.147.335.33.34H16.55c.16 0 .3-.114.332-.271l.002-.01.635-3.572c.072-.401.417-.694.823-.7h3.234c.05 0 .1.004.148.013.457.08.763.514.69.97l-.003.015-2.166 12.265c-.071.401-.417.695-.823.701h-3.235c-.05 0-.099-.004-.148-.013-.456-.08-.762-.514-.69-.971l.003-.014.58-3.274c.003-.02.005-.04.005-.06 0-.184-.147-.335-.33-.34H13.526c-.161 0-.3.114-.332.272l-.002.01-.653 3.689c-.071.402-.417.695-.823.701H8.481c-.05 0-.099-.004-.148-.013-.456-.08-.762-.514-.69-.97l.003-.015L9.813 9.715c.07-.401.416-.695.822-.701H13.871z" transform="translate(-16 -15) translate(16 15)"/>
                    <path fill="#FFF" d="M13.87 9.014h-3.222c-.411 0-.764.295-.835.701L7.646 21.98c-.082.463.226.904.687.985.05.009.099.013.148.013h3.223c.41 0 .763-.295.835-.701l.653-3.69c.029-.162.17-.28.334-.28h2.07c.188 0 .34.152.34.34 0 .02-.002.04-.005.059l-.58 3.274c-.082.462.226.903.687.985.049.009.099.013.148.013h3.223c.411 0 .763-.295.835-.701l2.167-12.265c.081-.463-.227-.904-.688-.985-.049-.009-.098-.013-.148-.013h-3.222c-.41 0-.763.295-.835.7l-.635 3.573c-.03.162-.17.28-.334.28h-2.07c-.188 0-.34-.152-.34-.34 0-.02.002-.04.005-.06l.562-3.154c.082-.462-.225-.904-.687-.986-.049-.009-.098-.013-.148-.013z" transform="translate(-16 -15) translate(16 15)"/>
                </g>
                <g>
                    <g transform="translate(-16 -15) translate(16 15) translate(40.656 8.963)">
                        <mask id="jxdfv2kssb" fill="#fff">
                            <use xlink:href="#6a3x4bpd6a"/>
                        </mask>
                        <path fill="#2B2B2B" fill-rule="nonzero" d="M3.066 14.186V9.03c0-.236.195-.428.437-.428h5.151c.242 0 .437.192.437.428v5.157c0 .236.196.428.437.428h2.192c.241 0 .437-.192.437-.428V.428c0-.236-.196-.428-.437-.428H9.528c-.241 0-.437.192-.437.428v4.948c0 .236-.195.428-.437.428H3.503c-.242 0-.437-.192-.437-.428V.428C3.066.192 2.87 0 2.629 0H.437C.196 0 0 .192 0 .428v13.758c0 .236.196.428.437.428h2.192c.241 0 .437-.192.437-.428" mask="url(#jxdfv2kssb)"/>
                    </g>
                    <path fill="#2B2B2B" fill-rule="nonzero" d="M24.003 12.047c0 .002-.001.003-.003.004h.004c.005-.008.009-.016.011-.024-.003.007-.007.014-.012.02z" transform="translate(-16 -15) translate(16 15) translate(40.656 8.963)"/>
                    <path fill="#2B2B2B" fill-rule="nonzero" d="M16.927 7.913c-.096 0-.166-.088-.142-.179.291-1.071 1.19-1.888 2.592-1.888 1.57 0 2.31 1.14 2.442 1.9.015.087-.053.167-.144.167h-4.748zm2.447-4.418c-3-.063-5.533 2.382-5.469 5.56 0 3.28 2.511 5.559 5.49 5.559 2.294 0 3.82-.996 4.608-2.566h-.004c.002-.001.002-.003.002-.004.006-.006.01-.013.013-.02l.007-.013.013-.025.005-.011c.02-.05.03-.103.03-.16 0-.202-.143-.372-.337-.415v-.003l-1.652-.48-.023-.007c-.038-.01-.076-.016-.116-.016-.167 0-.313.092-.386.227h-.002c-.364.572-1.092 1.068-2.158 1.068-1.356 0-2.385-.945-2.61-2.045-.018-.088.052-.17.143-.17h7.095c.24 0 .436-.192.436-.428v-.575c0-3.22-1.957-5.476-5.085-5.476z" transform="translate(-16 -15) translate(16 15) translate(40.656 8.963)"/>
                    <path fill="#FDF5EC" fill-rule="nonzero" d="M23.733 11.4L23.733 11.403 23.733 11.403zM24.004 12.05H24c.002 0 .003-.002.003-.003l.001.004z" transform="translate(-16 -15) translate(16 15) translate(40.656 8.963)"/>
                    <path fill="#2B2B2B" fill-rule="nonzero" d="M62.873 12.05h.004c.005-.006.008-.014.01-.021l-.014.022" transform="translate(-16 -15) translate(16 15) translate(40.656 8.963)"/>
                    <path fill="#FDF5EC" fill-rule="nonzero" d="M62.887 12.029c-.002.007-.005.015-.01.022h-.004l.014-.022" transform="translate(-16 -15) translate(16 15) translate(40.656 8.963)"/>
                    <path fill="#2B2B2B" fill-rule="nonzero" d="M55.8 7.913c-.096 0-.166-.088-.142-.179.291-1.071 1.19-1.888 2.592-1.888 1.57 0 2.31 1.14 2.442 1.9.015.087-.053.167-.144.167H55.8zm2.447-4.418c-3-.063-5.533 2.382-5.469 5.56 0 3.28 2.511 5.559 5.49 5.559 2.294 0 3.82-.996 4.608-2.566h-.004l.014-.022v-.002c.004-.004.006-.009.008-.013.007-.011.012-.023.017-.036.02-.05.032-.103.032-.16 0-.202-.145-.372-.339-.415v-.003l-1.651-.48c-.008-.003-.016-.006-.023-.007l-.007-.002c-.035-.009-.072-.014-.11-.014-.166 0-.312.092-.385.227h-.002c-.364.572-1.092 1.068-2.158 1.068-1.356 0-2.385-.945-2.61-2.045-.018-.088.052-.17.143-.17h7.095c.24 0 .436-.192.436-.428v-.575c0-3.22-1.957-5.476-5.085-5.476zM32.8 6.205l-.003.007.002-.007M33.308 3.78l-.025-.009V3.77l.025.01" transform="translate(-16 -15) translate(16 15) translate(40.656 8.963)"/>
                    <path fill="#FDF5EC" fill-rule="nonzero" d="M32.8 6.205l-.003.007.002-.007h.001zM33.308 3.78l-.025-.009V3.77l.025.01" transform="translate(-16 -15) translate(16 15) translate(40.656 8.963)"/>
                    <path fill="#2B2B2B" fill-rule="nonzero" d="M33.586 4.176c0 .056-.01.11-.03.158l-.004.01-.753 1.858-.003.006-.005.013-.007.017c-.067.15-.222.256-.4.256-.047 0-.093-.007-.135-.021v.001c-.24-.093-.531-.137-.867-.137-.611 0-1.13.22-1.496.634-.366.414-.578 1.024-.578 1.804v5.368c0 .237-.196.428-.437.428h-2.228c-.24 0-.437-.191-.437-.428V4.22c0-.236.196-.428.437-.428h1.796c.181 0 .344.11.408.276l.25.64c.04.105.186.124.253.032.522-.72 1.363-1.247 2.49-1.247.535 0 1.021.094 1.442.274v.001l.024.009.005.001c.008.005.016.008.025.012l.028.014.006.003c.13.074.216.211.216.369M38.116 14.143V8.476c0-1.433.677-2.16 1.747-2.16 1.048 0 1.616.642 1.616 1.946v5.881c0 .237.196.428.437.428h2.227c.242 0 .437-.191.437-.428V8.476c0-1.433.677-2.16 1.747-2.16s1.594.642 1.594 1.946v5.881c0 .237.196.428.437.428h2.228c.241 0 .437-.191.437-.428v-6.63c0-2.737-1.31-4.02-3.517-4.02-1.417 0-2.526.587-3.234 1.369-.064.07-.179.06-.23-.02-.579-.893-1.505-1.349-2.781-1.349-1.347 0-2.472.58-3.12 1.289-.072.08-.206.054-.243-.047l-.245-.661c-.063-.169-.227-.281-.41-.281H35.45c-.24 0-.436.191-.436.427v9.923c0 .237.195.428.436.428h2.228c.241 0 .437-.191.437-.428M73.96 14.13v-1.705c0-.236-.195-.428-.436-.428h-4.56c-.053 0-.103-.024-.13-.067-.033-.055-.026-.12.011-.165l4.907-5.983c.062-.076.096-.17.096-.268v-1.65c0-.236-.195-.428-.437-.428h-8.029c-.24 0-.436.192-.436.428v1.704c0 .236.195.428.436.428h4.29c.052 0 .103.024.13.067.032.055.025.12-.012.165l-4.889 5.941c-.073.089-.113.2-.113.313v1.647c0 .236.196.428.437.428h8.299c.24 0 .436-.192.436-.428" transform="translate(-16 -15) translate(16 15) translate(40.656 8.963)"/>
                </g>
            </g>
        </g>
    </g>
</svg>
