<svg width="145" height="40" xmlns="http://www.w3.org/2000/svg" xmlns:xlink="http://www.w3.org/1999/xlink">
    <defs>
        <path id="a" d="M0 0h15.321v18.418H0z"/>
    </defs>
    <g fill="none" fill-rule="evenodd">
        <g fill-rule="nonzero">
            <path d="M0 20c0 16 3.992 20 19.958 20 15.967 0 19.959-4 19.959-20S35.925 0 19.958 0C3.992 0 0 4 0 20z" fill="#8248E5"/>
            <path d="m27.11 19.041-.65 3.679a.72.72 0 0 1-.692-.854l.413-2.197a.72.72 0 0 1 .6-.579l.328-.049zm3.58.198a.721.721 0 0 1-.04.364l-.911 2.19a.72.72 0 0 1-.547.454l-1.647.293.221-1.251.86-.153a.24.24 0 0 0 .18-.145l.27-.656a.24.24 0 0 0-.256-.329l-.85.126.221-1.25 1.68-.248a.72.72 0 0 1 .819.605zm-2.78-4.724-.649 3.67a.72.72 0 0 1-.581-.843l.417-2.22a.72.72 0 0 1 .618-.582l.194-.025zm4.633.147a.721.721 0 0 1-.042.346l-.878 2.209a.72.72 0 0 1-.571.457l-2.717.391.23-1.303 1.504-.217a.24.24 0 0 0 .187-.146l.285-.691a.24.24 0 0 0-.25-.33l-1.515.188.21-1.186 2.754-.343a.72.72 0 0 1 .803.625zm-5.568-3.302-.164.851 1.369-.189c.073.177.1.376.067.578l-.003.018-.192 1.085-1.704.22a.96.96 0 0 1-1.066-1.119l.3-1.444h1.393zm7.91-2.393a.962.962 0 0 1-.06.416l-1.235 3.1a.96.96 0 0 1-.774.61l-3.686.472.136-.766c.056-.317.038-.63-.041-.922l2.456-.34a.48.48 0 0 0 .374-.286l.387-.905a.32.32 0 0 0-.32-.445l-4.942.409-.003.01h-1.379l.19-.907a.96.96 0 0 1 .87-.791l6.997-.54a.96.96 0 0 1 1.03.885z" fill="#FFC55A"/>
            <path d="M17.481 11.36H13.42a1.07 1.07 0 0 0-1.053.884l-2.73 15.458a1.07 1.07 0 0 0 1.052 1.258h4.061a1.07 1.07 0 0 0 1.053-.884l.823-4.65a.428.428 0 0 1 .42-.354h2.61a.428.428 0 0 1 .422.503l-.73 4.127A1.07 1.07 0 0 0 20.4 28.96h4.061a1.07 1.07 0 0 0 1.053-.884l2.73-15.458a1.07 1.07 0 0 0-1.052-1.258H23.13a1.07 1.07 0 0 0-1.052.883l-.802 4.502a.428.428 0 0 1-.42.354h-2.61a.428.428 0 0 1-.42-.504l.707-3.976a1.07 1.07 0 0 0-1.053-1.259z" fill="#FFF"/>
        </g>
        <g transform="translate(51.239 11.296)">
            <mask id="b" fill="#fff">
                <use xlink:href="#a"/>
            </mask>
            <path d="M3.864 17.88v-6.5c0-.298.246-.54.55-.54h6.493c.304 0 .55.242.55.54v6.5c0 .297.247.538.551.538h2.763c.304 0 .55-.241.55-.539V.54a.545.545 0 0 0-.55-.539h-2.763a.545.545 0 0 0-.55.54v6.236c0 .297-.247.539-.55.539H4.413a.545.545 0 0 1-.55-.54V.54A.545.545 0 0 0 3.314 0H.55A.545.545 0 0 0 0 .54v17.34c0 .297.246.538.55.538h2.763c.304 0 .55-.241.55-.539" fill="#FFF" fill-rule="nonzero" mask="url(#b)"/>
        </g>
        <path d="m81.49 26.48-.003.004h.005a.114.114 0 0 0 .014-.03.11.11 0 0 1-.016.026z" fill="#2B2B2B" fill-rule="nonzero"/>
        <path d="M72.572 21.269a.18.18 0 0 1-.178-.225c.366-1.35 1.5-2.38 3.266-2.38 1.979 0 2.911 1.437 3.078 2.394a.181.181 0 0 1-.181.21h-5.985zm3.084-5.569c-3.782-.079-6.972 3.003-6.892 7.007 0 4.136 3.165 7.007 6.919 7.007 2.892 0 4.815-1.255 5.807-3.234h-.004a.005.005 0 0 0 .002-.005.104.104 0 0 0 .016-.025l.01-.016a.26.26 0 0 0 .015-.032.52.52 0 0 0 .046-.214.541.541 0 0 0-.426-.525v-.003l-2.083-.606-.028-.008h-.001a.553.553 0 0 0-.632.266h-.002c-.46.72-1.377 1.347-2.72 1.347-1.709 0-3.006-1.192-3.29-2.578a.181.181 0 0 1 .181-.215h8.941c.304 0 .55-.241.55-.539v-.725c0-4.057-2.467-6.902-6.409-6.902z" fill="#FFF" fill-rule="nonzero"/>
        <path fill="#FDF5EC" fill-rule="nonzero" d="M81.15 25.664v.003zM81.492 26.484h-.005a.005.005 0 0 0 .003-.005l.002.005z"/>
        <path d="M130.48 26.484h.004a.096.096 0 0 0 .013-.028.42.42 0 0 1-.018.028" fill="#2B2B2B" fill-rule="nonzero"/>
        <path d="M130.497 26.456a.094.094 0 0 1-.013.028h-.005a.462.462 0 0 0 .018-.028" fill="#FDF5EC" fill-rule="nonzero"/>
        <path d="M121.564 21.269a.18.18 0 0 1-.178-.225c.366-1.35 1.5-2.38 3.266-2.38 1.98 0 2.911 1.437 3.078 2.394a.181.181 0 0 1-.181.21h-5.985zm3.084-5.569c-3.781-.079-6.972 3.003-6.892 7.007 0 4.136 3.165 7.007 6.919 7.007 2.892 0 4.815-1.255 5.807-3.234h-.004a.407.407 0 0 0 .017-.027l.001-.003a.52.52 0 0 0 .07-.262.541.541 0 0 0-.426-.525v-.003l-2.082-.606-.028-.008-.01-.003a.554.554 0 0 0-.624.269c-.46.72-1.378 1.347-2.721 1.347-1.709 0-3.006-1.192-3.29-2.578a.181.181 0 0 1 .181-.215h8.941c.304 0 .55-.241.55-.539v-.725c0-4.057-2.466-6.902-6.409-6.902z" fill="#FFF" fill-rule="nonzero"/>
        <path d="M92.576 19.116h.001l-.003.009.002-.009M93.217 16.06a.203.203 0 0 0-.03-.011v-.002l.03.013" fill="#2B2B2B" fill-rule="nonzero"/>
        <path d="m92.577 19.116-.003.009.002-.009h.001zM93.217 16.06a.203.203 0 0 0-.03-.011v-.002l.03.013" fill="#FDF5EC" fill-rule="nonzero"/>
        <path d="M93.569 16.56c0 .07-.014.137-.039.199a.107.107 0 0 1-.005.012l-.95 2.342-.003.008a.108.108 0 0 1-.006.015l-.008.022a.553.553 0 0 1-.676.296v.002c-.302-.118-.669-.173-1.091-.173-.771 0-1.424.277-1.886.8-.461.521-.73 1.29-.73 2.273v6.765c0 .298-.246.54-.55.54h-2.807a.545.545 0 0 1-.55-.54V16.615c0-.298.246-.54.55-.54h2.263a.55.55 0 0 1 .514.348l.315.806a.185.185 0 0 0 .32.04c.657-.906 1.717-1.57 3.139-1.57.673 0 1.286.118 1.816.345v.001l.03.011.006.002.032.014.036.018.006.004a.537.537 0 0 1 .274.465M99.277 29.121V21.98c0-1.806.853-2.723 2.202-2.723 1.321 0 2.037.809 2.037 2.453v7.412c0 .298.246.54.55.54h2.808c.304 0 .55-.242.55-.54V21.98c0-1.806.853-2.723 2.202-2.723s2.01.809 2.01 2.453v7.412c0 .298.246.54.55.54h2.807c.304 0 .55-.242.55-.54v-8.355c0-3.45-1.65-5.067-4.43-5.067-1.788 0-3.185.74-4.077 1.724a.185.185 0 0 1-.291-.024c-.728-1.126-1.897-1.7-3.505-1.7-1.697 0-3.114.73-3.93 1.624a.184.184 0 0 1-.308-.06l-.309-.832a.55.55 0 0 0-.517-.355h-2.257a.545.545 0 0 0-.55.539v12.506c0 .298.246.54.55.54h2.807c.305 0 .551-.242.551-.54M144.453 29.103v-2.147a.545.545 0 0 0-.551-.54h-5.748a.188.188 0 0 1-.162-.085.178.178 0 0 1 .013-.207l6.185-7.54a.533.533 0 0 0 .12-.338v-2.08a.545.545 0 0 0-.55-.54h-10.119a.545.545 0 0 0-.55.54v2.147c0 .298.246.54.55.54h5.407c.065 0 .13.03.163.085.041.069.033.15-.014.207l-6.162 7.488a.62.62 0 0 0-.142.395v2.075c0 .298.246.54.55.54h10.459c.304 0 .55-.242.55-.54" fill="#FFF" fill-rule="nonzero"/>
    </g>
</svg>
