<svg xmlns="http://www.w3.org/2000/svg" width="22" height="19" viewBox="0 0 22 19">
    <g fill="none" fill-rule="evenodd">
        <g fill="#FFF" fill-rule="nonzero">
            <g>
                <g>
                    <path d="M14.317 9.324l-.523 2.961c-.27-.006-.507-.201-.557-.478-.012-.069-.012-.14.001-.209l.333-1.768c.045-.242.239-.43.482-.466l.264-.04zm2.882.16c.015.098.004.2-.031.292l-.734 1.764c-.073.19-.24.329-.44.364l-1.326.237.178-1.008.692-.123c.065-.011.12-.055.145-.116l.218-.528c.04-.098-.006-.211-.104-.252-.032-.014-.068-.018-.102-.013l-.685.1.178-1.005 1.353-.199c.316-.048.61.17.658.487zM14.96 5.68l-.52 2.954c-.24-.043-.436-.235-.472-.49-.009-.062-.008-.126.004-.188l.336-1.787c.047-.248.247-.437.497-.468l.155-.021zm3.73.12c.012.093.001.189-.033.277l-.707 1.778c-.075.197-.25.338-.46.368l-2.186.316.185-1.05 1.21-.175c.068-.01.125-.054.151-.117l.23-.556c.04-.099-.006-.212-.105-.253-.03-.012-.064-.017-.097-.013l-1.219.152.17-.955 2.216-.276c.317-.04.606.186.646.503zm-4.48-2.66l-.132.687 1.101-.153c.06.143.08.303.055.466l-.003.014-.155.874-1.371.176c-.423.055-.81-.245-.864-.668-.01-.077-.008-.155.006-.232l.241-1.163h1.122zm6.365-1.925c.009.114-.008.229-.048.335l-.994 2.495c-.101.266-.34.455-.623.491l-2.966.38.11-.616c.045-.256.03-.508-.034-.743l1.977-.272c.134-.019.248-.106.301-.23l.312-.73c.056-.13-.005-.282-.135-.338-.039-.016-.08-.023-.123-.02l-3.978.33-.002.007h-1.11l.153-.73c.06-.347.35-.609.7-.636l5.632-.434c.424-.033.795.286.828.711z" transform="translate(-208 -6447) translate(208 6447) translate(.384 .384)"/>
                    <path d="M6.57 3.143H3.3c-.417 0-.774.3-.847.711L.256 16.294c-.083.47.229.917.697 1 .05.009.1.013.15.013H4.37c.417 0 .774-.3.847-.711l.663-3.743c.029-.165.172-.284.339-.284h2.1c.19 0 .344.154.344.344 0 .02-.002.04-.005.06l-.588 3.322c-.083.468.229.916.697.999.05.009.1.013.15.013h3.269c.417 0 .774-.3.847-.712l2.197-12.44c.083-.469-.229-.916-.697-1-.05-.008-.1-.012-.15-.012h-3.268c-.417 0-.774.3-.847.71l-.645 3.624c-.03.164-.172.284-.339.284h-2.1c-.19 0-.344-.154-.344-.345 0-.02.002-.04.006-.06l.569-3.2c.083-.469-.228-.916-.696-1-.05-.009-.1-.013-.15-.013z" transform="translate(-208 -6447) translate(208 6447) translate(.384 .384)"/>
                </g>
            </g>
        </g>
    </g>
</svg>
