<svg width="40" height="40" viewBox="0 0 400 400" fill="none"
    xmlns="http://www.w3.org/2000/svg">
    <g clip-path="url(#clip0_70_96)">
        <path fill-rule="evenodd" clip-rule="evenodd" d="M179.154 350.43C185.494 354.091 192.683 356.016 200 356.01C207.317 356.016 214.506 354.091 220.845 350.43L322.155 291.812C328.484 288.136 333.741 282.859 337.399 276.51C341.056 270.161 342.988 262.961 343 255.629V138.393C342.988 131.061 341.056 123.861 337.399 117.512C333.741 111.163 328.484 105.886 322.155 102.21L302.784 91.0027L303.029 90.5782C296.823 86.9872 289.942 84.7223 282.82 83.926C275.698 83.1297 268.489 83.8192 261.645 85.9512C254.802 88.0831 248.473 91.6114 243.057 96.314C237.64 101.017 233.254 106.792 230.173 113.276L154.516 272.504C152.569 276.603 149.797 280.253 146.374 283.226C142.951 286.198 138.951 288.428 134.626 289.776C130.301 291.123 125.744 291.559 121.243 291.056C116.741 290.553 112.393 289.121 108.47 286.852L106.528 285.727L106.283 286.153L87.4001 275.227C83.9718 273.236 81.1248 270.378 79.1435 266.939C77.1623 263.5 76.1161 259.6 76.1096 255.629V138.393C76.1161 134.422 77.1623 130.522 79.1435 127.083C81.1248 123.644 83.9718 120.786 87.4001 118.795L188.709 60.1765C192.142 58.1932 196.036 57.1507 199.999 57.1537C203.962 57.1505 207.856 58.1931 211.29 60.1765L239.611 76.5633C244.804 73.2579 250.422 70.6462 256.326 68.8072C258.155 68.2373 260.004 67.744 261.867 67.3278L220.845 43.592C214.504 39.935 207.316 38.0103 199.999 38.0103C192.683 38.0103 185.495 39.935 179.154 43.592L77.8454 102.21C71.5156 105.886 66.2591 111.162 62.6011 117.512C58.9431 123.861 57.0118 131.061 57 138.393V255.629C57.0118 262.961 58.9431 270.161 62.6011 276.51C66.2591 282.86 71.5156 288.136 77.8454 291.812L96.723 302.734L103.15 291.587L96.9685 302.311L98.9129 303.436C106.821 308.002 115.789 310.403 124.916 310.398C134.725 310.4 144.333 307.614 152.626 302.364C160.919 297.115 167.557 289.616 171.769 280.738L247.426 121.51C249.373 117.411 252.145 113.761 255.568 110.788C258.992 107.816 262.992 105.586 267.317 104.238C271.643 102.89 276.199 102.454 280.701 102.958C285.203 103.461 289.552 104.893 293.474 107.163L293.229 107.587L312.6 118.795C316.028 120.786 318.875 123.644 320.856 127.083C322.837 130.522 323.884 134.422 323.89 138.393V255.629C323.884 259.6 322.837 263.5 320.856 266.939C318.875 270.378 316.028 273.236 312.6 275.227L211.29 333.845C207.855 335.826 203.962 336.868 199.999 336.868C196.037 336.868 192.143 335.826 188.709 333.845L161.399 318.044C154.369 322.362 146.661 325.379 138.641 326.989L179.154 350.43ZM174.296 96.7134L209.121 115.819L200.892 133.137L170.23 116.316L160.098 140.246L189.761 156.565L181.53 173.886L146.22 154.46C143.213 152.816 140.975 150.048 139.993 146.759C139.077 143.694 139.263 140.403 140.518 137.461L154.783 103.771C155.524 102.04 156.594 100.471 157.933 99.1493C159.289 97.8159 160.896 96.7661 162.66 96.0612C164.472 95.3305 166.417 94.9927 168.369 95.0699C170.446 95.1435 172.477 95.7065 174.296 96.7134ZM249.161 159.618L257.39 142.299L287.87 159.021C290.875 160.66 293.114 163.42 294.102 166.703C295.022 169.779 294.836 173.08 293.577 176.033L279.316 209.712C278.229 212.286 276.412 214.484 274.089 216.033C271.767 217.582 269.042 218.413 266.253 218.425C266.078 218.425 265.904 218.422 265.73 218.415C263.655 218.33 261.627 217.768 259.803 216.772L230.053 200.437L230.044 200.446L230.031 200.457L230.03 200.457C230.018 200.468 230.005 200.48 229.992 200.492C229.987 200.496 229.983 200.501 229.979 200.505C229.903 200.578 229.84 200.664 229.792 200.758L229.644 200.695L238.048 183.006C238.257 183.11 238.463 183.217 238.667 183.329L263.869 197.167L273.999 173.244L249.161 159.618ZM219.99 221.012L219.969 221.056C220.247 221.3 220.457 221.617 220.572 221.975L219.355 222.348L211.761 238.331L239.898 253.781L229.768 277.706L200.644 261.729L192.415 279.047L225.682 297.297C227.51 298.303 229.546 298.87 231.629 298.955C231.803 298.962 231.977 298.964 232.151 298.964C233.93 298.961 235.693 298.62 237.346 297.959C239.099 297.256 240.697 296.214 242.048 294.891C243.398 293.569 244.475 291.992 245.215 290.251L259.48 256.563C260.734 253.612 260.919 250.315 260.001 247.242C259.012 243.96 256.773 241.2 253.768 239.56L219.99 221.012ZM140.188 177.246L171.601 194.783L163.369 212.109L136.113 196.893L125.999 220.78L152.374 235.249L144.145 252.567L112.129 235.004C109.125 233.362 106.886 230.601 105.896 227.319C104.978 224.246 105.163 220.949 106.417 217.998L120.678 184.32C121.414 182.593 122.478 181.027 123.811 179.707C125.172 178.373 126.78 177.318 128.546 176.603C130.373 175.864 132.337 175.525 134.306 175.609C136.367 175.689 138.381 176.249 140.188 177.246Z" fill="#7950DD"/>
    </g>
    <defs>
        <clipPath id="clip0_70_96">
            <rect width="286" height="318" fill="white" transform="translate(57 38)"/>
        </clipPath>
    </defs>
</svg>
