<svg xmlns="http://www.w3.org/2000/svg" width="29" height="29" viewBox="0 0 29 29">
    <g fill="none" fill-rule="evenodd">
        <g fill-rule="nonzero">
            <g>
                <path fill="#E75A2B" d="M0 14.482c0 11.585 2.89 14.482 14.452 14.482 11.561 0 14.451-2.897 14.451-14.482C28.903 2.896 26.013 0 14.452 0 2.89 0 0 2.896 0 14.482z" transform="translate(-16 -16) translate(16 16)"/>
                <path fill="#FFC55A" d="M22.222 13.93c.014.09.004.18-.028.264l-.66 1.587c-.066.171-.216.296-.396.328l-1.876.334c-.284.05-.554-.138-.604-.422-.011-.062-.011-.126 0-.188l.3-1.59c.04-.219.215-.387.434-.42l2.238-.33c.284-.043.55.153.592.438zm-1.353.556l-.953.141c-.073.011-.131.067-.145.14l-.091.485c-.018.094.044.185.138.203.02.004.042.004.063 0l.847-.15c.058-.011.107-.05.13-.105l.196-.475c.037-.089-.005-.19-.093-.227-.03-.012-.061-.016-.092-.012zm2.695-3.87c.01.085 0 .171-.03.25l-.636 1.6c-.068.178-.226.305-.413.331l-2.581.373c-.285.04-.548-.158-.589-.443-.008-.056-.007-.114.004-.17l.302-1.608c.042-.222.223-.393.447-.42l2.915-.365c.285-.036.545.167.581.453zm-1.63.519l-1.67.209c-.075.009-.136.066-.15.14l-.097.518c-.018.094.044.185.139.203.018.003.038.004.056.001l1.56-.226c.061-.009.113-.049.136-.106l.207-.5c.036-.089-.006-.19-.094-.227-.028-.012-.058-.016-.088-.012zm3.326-4.642c.007.102-.008.205-.044.301l-.894 2.245c-.091.24-.306.409-.56.442l-4.684.6c-.38.05-.728-.22-.777-.6-.008-.07-.007-.14.005-.21l.511-2.455c.055-.313.315-.549.63-.573l5.067-.39c.382-.03.716.257.746.64zm-2 .676l-3.58.296-.266 1.377 3.526-.488c.12-.016.223-.095.271-.207l.28-.656c.05-.117-.004-.253-.121-.304-.035-.015-.073-.02-.11-.018z" transform="translate(-16 -16) translate(16 16)"/>
                <path fill="#E75A2B" d="M12.658 7.473h-2.94c-.74 0-1.374.532-1.503 1.262L6.238 19.928c-.147.831.406 1.624 1.236 1.771.088.016.177.024.266.024h2.963c.73-.01 1.352-.54 1.48-1.262l.531-3.002h.992l-.437 2.468c-.147.831.406 1.625 1.236 1.772.088.016.177.024.266.024h2.941c.74 0 1.373-.532 1.502-1.262l1.977-11.193c.147-.832-.406-1.625-1.236-1.772-.088-.016-.176-.023-.266-.023H16.727c-.73.01-1.351.538-1.48 1.26l-.515 2.895h-.992l.42-2.358c.148-.831-.405-1.625-1.234-1.774-.088-.015-.178-.023-.268-.023zm0 .753c.046 0 .091.004.136.012.417.074.696.47.628.887l-.002.012-.512 2.88c-.003.017-.005.036-.005.054 0 .168.134.306.301.31h1.898c.147 0 .274-.104.303-.248l.002-.008.58-3.26c.065-.366.38-.634.75-.64h2.952c.046 0 .09.005.135.013.417.074.696.469.63.886l-.003.013-1.977 11.192c-.065.367-.38.635-.75.64h-2.952c-.046 0-.091-.003-.136-.011-.417-.074-.696-.47-.629-.887l.002-.012.53-2.988c.002-.018.004-.036.004-.054 0-.169-.134-.306-.301-.31H12.343c-.147 0-.273.103-.303.247l-.001.008-.596 3.368c-.065.366-.38.634-.751.64H7.74c-.045 0-.09-.004-.135-.012-.417-.074-.696-.47-.63-.886l.003-.013L8.955 8.866c.065-.367.38-.635.75-.64h2.953z" transform="translate(-16 -16) translate(16 16)"/>
                <path fill="#FFF" d="M12.658 8.226h-2.94c-.376 0-.698.27-.763.64L6.978 20.06c-.075.422.206.824.627.899.044.008.09.012.135.012h2.94c.376 0 .697-.27.763-.64l.596-3.368c.026-.148.154-.256.305-.256h1.89c.17 0 .309.14.309.31 0 .019-.002.037-.005.055l-.529 2.988c-.074.421.206.824.627.899.045.008.09.012.135.012h2.941c.376 0 .697-.27.762-.64l1.978-11.193c.074-.422-.207-.825-.628-.9-.044-.007-.09-.011-.135-.011h-2.94c-.375 0-.696.27-.762.64l-.58 3.26c-.026.147-.155.255-.305.255h-1.89c-.17 0-.309-.139-.309-.31 0-.018.002-.037.005-.055l.512-2.879c.075-.421-.205-.824-.626-.9-.045-.007-.09-.011-.136-.011z" transform="translate(-16 -16) translate(16 16)"/>
            </g>
        </g>
    </g>
</svg>
