<svg xmlns="http://www.w3.org/2000/svg" xmlns:xlink="http://www.w3.org/1999/xlink" width="33" height="33" viewBox="0 0 33 33">
    <defs>
        <path id="xw7tjjzqfa" d="M0 0L12.624 0 12.624 15.176 0 15.176z"/>
    </defs>
    <g fill="none" fill-rule="evenodd">
        <g>
            <g>
                <g fill-rule="nonzero">
                    <path fill="#E75A2B" d="M0 16.48c0 13.183 3.289 16.479 16.445 16.479s16.445-3.296 16.445-16.48C32.89 3.296 29.601 0 16.445 0S0 3.296 0 16.48z" transform="translate(-280 -51) translate(280 51)"/>
                    <path fill="#FFC55A" d="M25.287 15.852c.016.101.005.204-.032.3l-.751 1.805c-.074.195-.245.337-.45.374l-2.136.38c-.322.058-.63-.157-.687-.48-.012-.07-.012-.143.001-.214l.34-1.81c.047-.248.245-.44.494-.477l2.547-.376c.324-.049.626.174.674.498zm-1.54.632l-1.084.161c-.083.012-.15.076-.165.16l-.104.55c-.02.108.05.211.158.232.023.004.047.004.07 0l.965-.172c.066-.012.122-.057.148-.119l.223-.54c.042-.101-.006-.217-.106-.259-.033-.013-.07-.018-.105-.013zm3.067-4.403c.012.097 0 .194-.034.285l-.724 1.82c-.077.202-.257.346-.47.377l-2.937.423c-.324.047-.624-.179-.67-.503-.009-.065-.008-.13.004-.194l.344-1.83c.048-.253.254-.447.51-.479l3.316-.414c.325-.04.62.19.661.515zm-1.856.59l-1.9.237c-.085.01-.153.075-.17.16l-.11.59c-.02.107.05.21.158.23.02.004.043.005.064.002l1.776-.258c.069-.01.127-.055.154-.12l.235-.57c.042-.1-.006-.216-.107-.258-.031-.013-.066-.017-.1-.013zm3.786-5.283c.009.117-.008.234-.05.343l-1.017 2.555c-.104.272-.349.465-.638.502l-5.33.684c-.432.056-.828-.25-.883-.684-.01-.08-.008-.16.005-.238l.582-2.794c.062-.356.357-.624.717-.652l5.765-.444c.435-.033.815.293.849.728zm-2.276.77l-4.073.337-.304 1.567 4.013-.555c.137-.02.254-.109.309-.236l.319-.746c.057-.134-.005-.29-.139-.346-.04-.017-.082-.024-.125-.02z" transform="translate(-280 -51) translate(280 51)"/>
                    <path fill="#E75A2B" d="M14.404 8.503h-3.347c-.841 0-1.562.606-1.709 1.437l-2.25 12.736c-.167.946.463 1.849 1.407 2.016.1.018.201.027.303.027h3.371c.83-.012 1.538-.613 1.684-1.436l.605-3.415h1.129l-.497 2.808c-.168.946.462 1.849 1.406 2.016.1.018.201.027.303.027h3.346c.842 0 1.563-.605 1.71-1.436l2.25-12.737c.167-.946-.463-1.849-1.407-2.016-.1-.018-.201-.027-.303-.027h-3.371c-.83.012-1.538.613-1.684 1.435l-.586 3.294h-1.129l.478-2.684c.168-.946-.46-1.849-1.404-2.018-.1-.018-.203-.027-.305-.027zm0 .857c.052 0 .104.005.155.014.474.085.791.535.715 1.01l-.003.014-.583 3.276c-.003.02-.005.041-.005.062 0 .192.152.348.343.353h2.159c.168 0 .312-.118.345-.282l.002-.01.66-3.71c.074-.416.433-.72.854-.727h3.359c.052 0 .103.005.154.014.474.084.792.534.716 1.008l-.003.015-2.25 12.736c-.073.418-.432.723-.854.73H16.81c-.052 0-.103-.005-.154-.014-.474-.085-.792-.535-.716-1.01l.003-.014.602-3.4c.003-.02.005-.04.005-.061 0-.192-.153-.348-.343-.353H14.046c-.167 0-.311.118-.345.282l-.002.009-.678 3.832c-.074.417-.433.722-.854.728H8.808c-.052 0-.103-.004-.154-.013-.474-.084-.792-.534-.716-1.009l.002-.014 2.25-12.737c.074-.417.433-.722.855-.729h3.359z" transform="translate(-280 -51) translate(280 51)"/>
                    <path fill="#FFF" d="M14.404 9.36h-3.347c-.427 0-.792.308-.867.729L7.94 22.826c-.085.48.235.938.714 1.023.05.009.102.013.153.013h3.347c.427 0 .792-.307.867-.728l.678-3.832c.03-.169.176-.291.347-.291h2.15c.195 0 .353.158.353.353 0 .02-.002.041-.005.061l-.602 3.4c-.085.48.234.938.713 1.024.05.009.102.013.154.013h3.346c.427 0 .793-.307.868-.729l2.25-12.736c.084-.48-.235-.938-.714-1.023-.05-.01-.102-.014-.154-.014H19.06c-.427 0-.792.307-.867.728l-.66 3.71c-.03.168-.176.29-.347.29h-2.15c-.195 0-.352-.157-.352-.352 0-.021.002-.042.005-.062l.583-3.276c.086-.48-.233-.938-.712-1.024-.051-.01-.103-.014-.155-.014z" transform="translate(-280 -51) translate(280 51)"/>
                </g>
                <g>
                    <g transform="translate(-280 -51) translate(280 51) translate(42.22 9.308)">
                        <mask id="15iade74wb" fill="#fff">
                            <use xlink:href="#xw7tjjzqfa"/>
                        </mask>
                        <path fill="#2B2B2B" fill-rule="nonzero" d="M3.184 14.732V9.376c0-.245.203-.444.453-.444h5.35c.25 0 .454.2.454.444v5.356c0 .245.203.444.453.444h2.277c.25 0 .453-.199.453-.444V.444c0-.245-.203-.444-.453-.444H9.894c-.25 0-.453.199-.453.444v5.139c0 .245-.203.444-.454.444h-5.35c-.25 0-.453-.199-.453-.444V.444C3.184.2 2.98 0 2.73 0H.454C.204 0 0 .199 0 .444v14.288c0 .245.203.444.454.444H2.73c.25 0 .454-.199.454-.444" mask="url(#15iade74wb)"/>
                    </g>
                    <path fill="#2B2B2B" fill-rule="nonzero" d="M24.925 12.507c0 .002-.001.003-.003.004h.004c.005-.008.01-.016.011-.024-.003.007-.007.014-.012.02z" transform="translate(-280 -51) translate(280 51) translate(42.22 9.308)"/>
                    <path fill="#2B2B2B" fill-rule="nonzero" d="M17.578 8.217c-.1 0-.172-.092-.147-.185.302-1.113 1.236-1.962 2.691-1.962 1.63 0 2.399 1.185 2.536 1.973.016.091-.055.174-.15.174h-4.93zm2.541-4.588c-3.116-.065-5.745 2.474-5.679 5.773 0 3.408 2.608 5.774 5.7 5.774 2.384 0 3.968-1.034 4.786-2.665h-.004c.002 0 .003-.002.003-.004.005-.006.01-.013.012-.02l.008-.014.013-.026.005-.012c.021-.05.033-.106.033-.165 0-.21-.15-.387-.351-.432v-.002l-1.716-.5-.024-.007c-.039-.01-.079-.016-.12-.016-.174 0-.325.096-.401.236h-.002c-.378.593-1.134 1.11-2.241 1.11-1.408 0-2.477-.983-2.71-2.125-.02-.091.053-.177.149-.177h7.367c.25 0 .453-.198.453-.444v-.597c0-3.343-2.033-5.687-5.281-5.687z" transform="translate(-280 -51) translate(280 51) translate(42.22 9.308)"/>
                    <path fill="#FDF5EC" fill-rule="nonzero" d="M24.644 11.836L24.645 11.838 24.644 11.838zM24.926 12.51h-.004c.002 0 .003-.001.003-.003l.001.004z" transform="translate(-280 -51) translate(280 51) translate(42.22 9.308)"/>
                    <path fill="#2B2B2B" fill-rule="nonzero" d="M65.29 12.51h.004c.005-.006.008-.014.01-.021-.004.007-.008.015-.014.022" transform="translate(-280 -51) translate(280 51) translate(42.22 9.308)"/>
                    <path fill="#FDF5EC" fill-rule="nonzero" d="M65.305 12.489l-.01.022h-.005c.006-.007.01-.015.015-.022" transform="translate(-280 -51) translate(280 51) translate(42.22 9.308)"/>
                    <path fill="#2B2B2B" fill-rule="nonzero" d="M57.946 8.217c-.1 0-.172-.092-.147-.185.302-1.113 1.236-1.962 2.691-1.962 1.63 0 2.399 1.185 2.536 1.973.016.091-.055.174-.15.174h-4.93zm2.541-4.588c-3.116-.065-5.745 2.474-5.679 5.773 0 3.408 2.608 5.774 5.7 5.774 2.384 0 3.968-1.034 4.786-2.665h-.004c.006-.007.01-.015.015-.022v-.002l.008-.014c.007-.012.013-.024.018-.038.021-.05.033-.106.033-.165 0-.21-.15-.387-.352-.432v-.002l-1.715-.5-.023-.007-.008-.002c-.036-.009-.074-.014-.113-.014-.174 0-.325.096-.401.236h-.002c-.378.593-1.134 1.11-2.241 1.11-1.408 0-2.477-.983-2.71-2.125-.019-.091.053-.177.149-.177h7.367c.25 0 .453-.198.453-.444v-.597c0-3.343-2.033-5.687-5.281-5.687zM34.06 6.44l-.003.007.003-.006M34.587 3.922c-.008-.004-.016-.007-.025-.009v-.001l.025.01" transform="translate(-280 -51) translate(280 51) translate(42.22 9.308)"/>
                    <path fill="#FDF5EC" fill-rule="nonzero" d="M34.06 6.44l-.003.007.003-.006zM34.587 3.922c-.008-.004-.016-.007-.025-.009v-.001l.025.01" transform="translate(-280 -51) translate(280 51) translate(42.22 9.308)"/>
                    <path fill="#2B2B2B" fill-rule="nonzero" d="M34.878 4.337c0 .057-.011.113-.031.164h-.001l-.004.01-.782 1.93-.003.006-.005.013c-.001.006-.005.012-.007.018-.07.157-.23.266-.416.266-.049 0-.096-.007-.14-.022v.001c-.25-.097-.551-.142-.9-.142-.635 0-1.173.228-1.553.658-.38.43-.601 1.063-.601 1.874v5.574c0 .246-.203.445-.454.445h-2.313c-.25 0-.454-.2-.454-.445V4.383c0-.246.204-.445.454-.445h1.865c.188 0 .357.114.423.286l.26.664c.042.11.193.13.263.034.541-.747 1.415-1.295 2.586-1.295.555 0 1.06.098 1.497.285v.001c.009.002.017.005.025.01h.005c.009.005.017.009.026.012l.03.015.005.003c.135.077.225.22.225.384M39.582 14.687V8.802c0-1.488.703-2.243 1.814-2.243 1.089 0 1.678.666 1.678 2.021v6.107c0 .246.203.445.454.445h2.313c.25 0 .454-.2.454-.445V8.802c0-1.488.703-2.243 1.814-2.243 1.111 0 1.656.666 1.656 2.021v6.107c0 .246.203.445.453.445h2.313c.25 0 .454-.2.454-.445V7.803c0-2.843-1.36-4.176-3.651-4.176-1.473 0-2.624.61-3.36 1.422-.066.074-.185.063-.239-.02-.6-.928-1.562-1.402-2.887-1.402-1.399 0-2.567.602-3.24 1.339-.075.083-.214.056-.252-.05l-.255-.685c-.065-.176-.236-.293-.426-.293h-1.86c-.25 0-.454.2-.454.445v10.304c0 .246.204.445.454.445h2.313c.25 0 .454-.2.454-.445M76.805 14.673v-1.77c0-.245-.203-.444-.453-.444h-4.736c-.054 0-.107-.025-.134-.07-.035-.057-.027-.124.01-.171l5.096-6.214c.065-.079.1-.177.1-.278V4.012c0-.245-.203-.444-.453-.444h-8.338c-.25 0-.454.2-.454.444v1.77c0 .245.204.444.454.444h4.455c.054 0 .106.025.134.07.034.057.027.124-.011.171l-5.078 6.17c-.076.092-.117.207-.117.325v1.71c0 .246.203.445.454.445h8.618c.25 0 .453-.2.453-.444" transform="translate(-280 -51) translate(280 51) translate(42.22 9.308)"/>
                </g>
            </g>
        </g>
    </g>
</svg>
