<svg width="100%" height="100%" xmlns="http://www.w3.org/2000/svg">
    <g fill="none" fill-rule="evenodd">
        <g transform="translate(648)">
            <text font-family="ModernEra-Medium, Modern Era" font-size="17" font-weight="400" fill="#2B2B2B">
                        <tspan x="33" y="67.136">Founders </tspan>
                        <tspan x="112.237" y="67.289" font-family="ModernEra-Regular, Modern Era" font-weight="normal">—</tspan>
                        <tspan x="129.696" y="67.136"> </tspan>
                        <tspan x="133.249" y="67" font-family="ModernEra-Bold, Modern Era" font-weight="bold">20.00%</tspan>
                    </text>
            <text font-family="ModernEra-Bold, Modern Era" font-size="20.955" font-weight="bold" fill="#2B2B2B">
                        <tspan x=".477" y="20">Tier 1</tspan>
                    </text>
            <text font-family="ModernEra-Bold, Modern Era" font-size="20.955" font-weight="bold" fill="#2B2B2B">
                        <tspan x="0" y="186">Tier 2</tspan>
                    </text>
            <g transform="translate(1 290)">
                <text font-family="ModernEra-Medium, Modern Era" font-size="17" font-weight="400" fill="#2B2B2B">
                            <tspan x="32" y="16.136">Promotion  </tspan>
                            <tspan x="124.004" y="16.289" font-family="ModernEra-Regular, Modern Era" font-weight="normal">—</tspan>
                            <tspan x="141.463" y="16.136"> </tspan>
                            <tspan x="145.016" y="16" font-family="ModernEra-Bold, Modern Era" font-weight="bold">19.00%</tspan>
                        </text>
                <rect stroke="#0C0830" stroke-width="1.5" fill="#8248E5" width="16" height="16" rx="5"/>
            </g>
            <g transform="translate(1 217)">
                <text font-family="ModernEra-Medium, Modern Era" font-size="17" font-weight="400" fill="#2B2B2B">
                            <tspan x="32" y="16.136">Promotion Vested 2 years </tspan>
                            <tspan x="241.151" y="16.289" font-family="ModernEra-Regular, Modern Era" font-weight="normal">—</tspan>
                            <tspan x="258.61" y="16.136"> </tspan>
                            <tspan x="262.163" y="16" font-family="ModernEra-Bold, Modern Era" font-weight="bold">17.50%</tspan>
                        </text>
                <rect stroke="#0C0830" stroke-width="1.5" fill="#A977FF" width="16" height="16" rx="5"/>
            </g>
            <g transform="translate(1 92)">
                <text font-family="ModernEra-Medium, Modern Era" font-size="17" font-weight="400" fill="#2B2B2B">
                            <tspan x="32" y="16.136">Developers </tspan>
                            <tspan x="126.571" y="16.289" font-family="ModernEra-Regular, Modern Era" font-weight="normal">—</tspan>
                            <tspan x="144.03" y="16.136"> </tspan>
                            <tspan x="147.583" y="16" font-family="ModernEra-Bold, Modern Era" font-weight="bold">10.00%</tspan>
                        </text>
                <rect stroke="#0C0830" stroke-width="1.5" fill="#C9A9FF" width="16" height="16" rx="5"/>
            </g>
            <g transform="translate(2 331)">
                <text font-family="ModernEra-Medium, Modern Era" font-size="17" font-weight="400" fill="#2B2B2B">
                            <tspan x="32" y="16.136">Legal </tspan>
                            <tspan x="79.26" y="16.289" font-family="ModernEra-Regular, Modern Era" font-weight="normal">—</tspan>
                            <tspan x="96.719" y="16.136"> </tspan>
                            <tspan x="100.272" y="16" font-family="ModernEra-Bold, Modern Era" font-weight="bold">7.50%</tspan>
                        </text>
                <rect stroke="#0C0830" stroke-width="1.5" fill="#E7D3FF" width="16" height="16" rx="5"/>
            </g>
            <g transform="translate(1 133)">
                <text font-family="ModernEra-Medium, Modern Era" font-size="17" font-weight="400" fill="#2B2B2B">
                            <tspan x="32" y="16.136">Promotion Vested 3 years </tspan>
                            <tspan x="241.491" y="16.289" font-family="ModernEra-Regular, Modern Era" font-weight="normal">—</tspan>
                            <tspan x="258.95" y="16.136"> </tspan>
                            <tspan x="262.503" y="16" font-family="ModernEra-Bold, Modern Era" font-weight="bold">6.20%</tspan>
                        </text>
                <rect stroke="#0C0830" stroke-width="1.5" fill="#E7EAFF" width="16" height="16" rx="5"/>
            </g>
            <text font-family="ModernEra-Medium, Modern Era" font-size="17" font-weight="400" fill="#2B2B2B">
                        <tspan x="34" y="388.136">Security- Audits and Bug Bounties </tspan>
                        <tspan x="306.374" y="388.289" font-family="ModernEra-Regular, Modern Era" font-weight="normal">—</tspan>
                        <tspan x="323.833" y="388.136"> </tspan>
                        <tspan x="327.386" y="388" font-family="ModernEra-Bold, Modern Era" font-weight="bold">5.00%</tspan>
                    </text>
            <text font-family="ModernEra-Medium, Modern Era" font-size="17" font-weight="400" fill="#2B2B2B">
                        <tspan x="34" y="470.136">Operational buffer </tspan>
                        <tspan x="184.501" y="470.289" font-family="ModernEra-Regular, Modern Era" font-weight="normal">—</tspan>
                        <tspan x="201.96" y="470.136"> </tspan>
                        <tspan x="205.513" y="470" font-family="ModernEra-Bold, Modern Era" font-weight="bold">3.00%</tspan>
                    </text>
            <text font-family="ModernEra-Medium, Modern Era" font-size="17" font-weight="400" fill="#2B2B2B">
                        <tspan x="34" y="429.136">Market </tspan>
                        <tspan x="94.622" y="429.289" font-family="ModernEra-Regular, Modern Era" font-weight="normal">—</tspan>
                        <tspan x="112.081" y="429.136"> </tspan>
                        <tspan x="115.634" y="429" font-family="ModernEra-Bold, Modern Era" font-weight="bold">9.00%</tspan>
                    </text>
            <text font-family="ModernEra-Medium, Modern Era" font-size="17" font-weight="400" fill="#2B2B2B">
                        <tspan x="34" y="511.136">Ecosystem </tspan>
                        <tspan x="125.528" y="511.289" font-family="ModernEra-Regular, Modern Era" font-weight="normal">—</tspan>
                        <tspan x="142.987" y="511.136"> </tspan>
                        <tspan x="146.54" y="511" font-family="ModernEra-Bold, Modern Era" font-weight="bold">2.80%</tspan>
                    </text>
            <rect stroke="#2B2B2B" stroke-width="1.5" fill="#7D12FF" y="51" width="16" height="16" rx="5"/>
            <rect stroke="#0C0830" stroke-width="1.5" fill="#AEB8FF" x="2" y="372" width="16" height="16" rx="5"/>
            <rect stroke="#0C0830" stroke-width="1.5" fill="#4B61FF" x="2" y="454" width="16" height="16" rx="5"/>
            <rect stroke="#0C0830" stroke-width="1.5" fill="#7687FF" x="2" y="413" width="16" height="16" rx="5"/>
            <rect stroke="#0C0830" stroke-width="1.5" fill="#3034FF" x="2" y="495" width="16" height="16" rx="5"/>
            <path stroke="#2B2B2B" stroke-linecap="square" d="m1 262 375.5-1.5"/>
        </g>
        <text font-family="ModernEra-Bold, Modern Era" font-size="20.955" font-weight="bold" fill="#2B2B2B" transform="translate(.36 32)">
                        <tspan x="486.258" y="339.134">20%</tspan>
                    </text>
        <text font-family="ModernEra-Bold, Modern Era" font-size="20.955" font-weight="bold" fill="#2B2B2B" transform="translate(.36 32)">
                        <tspan x="527.051" y="263.078">2.8%</tspan>
                    </text>
        <text font-family="ModernEra-Bold, Modern Era" font-size="20.955" font-weight="bold" fill="#2B2B2B" transform="translate(.36 32)">
                        <tspan x="410.479" y="67.498">9%</tspan>
                    </text>
        <text font-family="ModernEra-Bold, Modern Era" font-size="20.955" font-weight="bold" fill="#2B2B2B" transform="translate(.36 32)">
                        <tspan x="464.01" y="99.041">3%</tspan>
                    </text>
        <path d="M449.892 248.434v26.244c0 89.737-78.526 149.524-174.906 149.524-96.381 0-174.094-59.86-174.094-149.524v-26.244c0 4.386.192 8.77.572 13.131 7.181 83.51 80.19 112.476 171.813 112.476 91.623 0 168.862-28.965 176.043-112.476.38-4.362.572-8.745.572-13.13z" fill="#0C0830"/>
        <path d="M279.018 259.012 151.933 181.66c16.987-16.4 39.284-29.42 64.905-37.551l62.18 114.903z" fill="#FFF"/>
        <path d="m279.018 259.012-128.092-76.728c16.987-16.4 40.29-30.044 65.912-38.175l62.18 114.903z" fill="#E7D3FF"/>
        <path d="M279.018 134.68v124.332l-62.18-114.903c19.11-6.077 40.065-9.43 62.054-9.43h.126zM330.358 141.064l-51.34 117.949V134.68c17.951.014 35.204 2.249 51.34 6.384" fill="#FFF"/>
        <path d="m330.358 141.064-51.34 117.949V134.68c17.951.014 35.204 2.249 51.34 6.384z" fill="#AEB8FF"/>
        <path d="M279.018 124.9v134.112l-67.056-123.94c20.61-6.555 43.208-10.172 66.92-10.172h.136z" fill="#E7EAFF"/>
        <text font-family="ModernEra-Medium, Modern Era" font-size="17" font-weight="400" fill="#2B2B2B" transform="translate(98.2 124.9)">
                                <tspan x="151.8" y="59.1">T1</tspan>
                            </text>
        <path d="m405.404 181.228-126.386 77.785 51.34-117.949c29.84 7.642 55.797 21.751 75.046 40.164" fill="#FFF"/>
        <path d="m405.404 181.228-126.386 77.785 51.34-117.949c29.84 7.642 55.797 21.751 75.046 40.164z" fill="#7687FF"/>
        <path d="m428.273 210.649-149.255 48.364 126.386-77.785c9.304 8.885 17.03 18.775 22.87 29.42" fill="#FFF"/>
        <path d="m428.618 210.453-149.6 48.56 126.678-78.1c9.326 8.92 17.069 18.852 22.922 29.54z" fill="#4B61FF"/>
        <path d="M428.274 210.649c4.303 7.837 7.584 16.093 9.695 24.657l-158.95 23.707 149.255-48.364z" fill="#3034FF"/>
        <path d="M372.784 365.613C359.699 372.888 325.94 391 278.636 391c-47.305 0-81.387-17.15-93.288-23.867l94.204-111.73 93.232 110.21z" fill="#8248E5"/>
        <path stroke="#979797" stroke-width="1.397" stroke-linecap="square" d="M117.091 263.204h-.125"/>
        <path d="M451.718 259.022c0 3.745-.187 7.474-.548 11.187-4.383 45.296-30.246 85.215-71.433 108.672L279.7 259.012l169.077-25.907a115.326 115.326 0 0 1 2.941 25.917z" fill="#7D12FF"/>
        <text font-family="ModernEra-Medium, Modern Era" font-size="17" font-weight="400" fill="#0C0830" transform="translate(98.2 124.9)">
                                <tspan x="271.8" y="176.1">T1</tspan>
                            </text>
        <path d="m279.44 259.012-101.176 119.87c-48.096-22.56-74.623-63.721-79.37-109.2-.203-1.989-.36-3.98-.453-5.97l181-4.7z" fill="#A977FF"/>
        <text font-family="ModernEra-Medium, Modern Era" font-size="17" font-weight="400" fill="#0C0830" transform="translate(98.2 124.9)">
                                <tspan x="75.8" y="184.1">T2</tspan>
                            </text>
        <path d="M137.363 173.9 279.7 259.464 98.34 264.1a95.847 95.847 0 0 1-.14-5.192c0-32.112 14.645-61.658 39.163-85.008z" fill="#C9A9FF"/>
        <text font-family="ModernEra-Medium, Modern Era" font-size="17" font-weight="400" fill="#0C0830" transform="translate(98.2 124.9)">
                                <tspan x="60.8" y="116.1">T1</tspan>
                            </text>
        <g transform="translate(70.945 310.003)" fill="#2B2B2B">
            <path d="M.699 30.882c.273 0 .5.2.542.461l.007.09v1.032h4.2l-4.75 10-4.75-10h4.2v-1.033a.55.55 0 0 1 .55-.55zm0-6.985c.273 0 .5.2.542.461l.007.09v1.396a.55.55 0 0 1-1.092.09l-.008-.09v-1.397a.55.55 0 0 1 .55-.55zm0-6.985c.273 0 .5.2.542.461l.007.09v1.396a.55.55 0 0 1-1.092.09l-.008-.09v-1.397a.55.55 0 0 1 .55-.55zm0-6.985c.273 0 .5.2.542.461l.007.09v1.396a.55.55 0 0 1-1.092.09l-.008-.09v-1.397a.55.55 0 0 1 .55-.55zM71.944 4.34a.55.55 0 0 1 .09 1.092l-.09.007H70.55a.55.55 0 0 1-.09-1.092l.09-.008h1.396zm-6.984 0a.55.55 0 0 1 .089 1.092l-.09.007h-1.396a.55.55 0 0 1-.09-1.092l.09-.008h1.397zm-6.985 0a.55.55 0 0 1 .089 1.092l-.09.007H56.58a.55.55 0 0 1-.09-1.092l.09-.008h1.397zm-6.985 0a.55.55 0 0 1 .089 1.092l-.09.007h-1.396a.55.55 0 0 1-.09-1.092l.09-.008h1.397zm-6.985 0a.55.55 0 0 1 .089 1.092l-.09.007H42.61a.55.55 0 0 1-.09-1.092l.09-.008h1.397zm-6.985 0a.55.55 0 0 1 .089 1.092l-.09.007h-1.396a.55.55 0 0 1-.09-1.092l.09-.008h1.397zm-6.985 0a.55.55 0 0 1 .089 1.092l-.09.007H28.64a.55.55 0 0 1-.09-1.092l.09-.008h1.397zm-6.985 0a.55.55 0 0 1 .089 1.092l-.09.007h-1.396a.55.55 0 0 1-.09-1.092l.09-.008h1.397zm-6.985 0a.55.55 0 0 1 .089 1.092l-.09.007H14.67a.55.55 0 0 1-.09-1.092l.09-.008h1.397zm-6.985 0a.55.55 0 0 1 .089 1.092l-.09.007H7.685a.55.55 0 0 1-.09-1.092l.09-.008H9.08zm-6.985 0a.55.55 0 0 1 .089 1.092l-.09.007H.7a.55.55 0 0 1-.09-1.092l.09-.008h1.397z" fill-rule="nonzero"/>
            <circle cx="71.945" cy="4.889" r="4.889"/>
        </g>
        <g transform="translate(18.86 218.992)" fill="#2B2B2B">
            <path d="m5.449 32.466-4.75 10-4.75-10h9.5zm-4.75-4.378c.273 0 .5.2.542.461l.007.09v1.396a.55.55 0 0 1-1.092.09l-.008-.09v-1.397a.55.55 0 0 1 .55-.55zm0-6.985c.273 0 .5.2.542.461l.007.09v1.396a.55.55 0 0 1-1.092.09l-.008-.09v-1.397a.55.55 0 0 1 .55-.55zm0-6.985c.273 0 .5.2.542.461l.007.09v1.396a.55.55 0 0 1-1.092.09l-.008-.09v-1.397a.55.55 0 0 1 .55-.55zm0-6.985c.273 0 .5.2.542.461l.007.09V9.08a.55.55 0 0 1-1.092.09l-.008-.09V7.683a.55.55 0 0 1 .55-.55zm101.98-2.793a.55.55 0 0 1 .09 1.092l-.09.007h-1.397a.55.55 0 0 1-.089-1.092l.09-.008h1.397zm-6.984 0a.55.55 0 0 1 .089 1.092l-.09.007h-1.396a.55.55 0 0 1-.09-1.092l.09-.008h1.397zm-6.985 0a.55.55 0 0 1 .089 1.092l-.09.007h-1.396a.55.55 0 0 1-.09-1.092l.09-.008h1.397zm-6.985 0a.55.55 0 0 1 .089 1.092l-.09.007h-1.396a.55.55 0 0 1-.09-1.092l.09-.008h1.397zm-6.985 0a.55.55 0 0 1 .089 1.092l-.09.007h-1.396a.55.55 0 0 1-.09-1.092l.09-.008h1.397zm-6.985 0a.55.55 0 0 1 .089 1.092l-.09.007h-1.396a.55.55 0 0 1-.09-1.092l.09-.008h1.397zm-6.985 0a.55.55 0 0 1 .089 1.092l-.09.007h-1.396a.55.55 0 0 1-.09-1.092l.09-.008h1.397zm-6.985 0a.55.55 0 0 1 .089 1.092l-.09.007h-1.396a.55.55 0 0 1-.09-1.092l.09-.008h1.397zm-6.985 0a.55.55 0 0 1 .089 1.092l-.09.007h-1.396a.55.55 0 0 1-.09-1.092l.09-.008H46.8zm-6.985 0a.55.55 0 0 1 .089 1.092l-.09.007h-1.396a.55.55 0 0 1-.09-1.092l.09-.008h1.397zm-6.985 0a.55.55 0 0 1 .089 1.092l-.09.007h-1.396a.55.55 0 0 1-.09-1.092l.09-.008h1.397zm-6.985 0a.55.55 0 0 1 .089 1.092l-.09.007h-1.396a.55.55 0 0 1-.09-1.092l.09-.008h1.397zm-6.985 0a.55.55 0 0 1 .089 1.092l-.09.007h-1.396a.55.55 0 0 1-.09-1.092l.09-.008h1.397zm-6.985 0a.55.55 0 0 1 .089 1.092l-.09.007h-1.396a.55.55 0 0 1-.09-1.092l.09-.008h1.397zm-6.985 0a.55.55 0 0 1 .089 1.092l-.09.007H3.494a.55.55 0 0 1-.09-1.092l.09-.008H4.89z" fill-rule="nonzero"/>
            <circle cx="102.68" cy="4.889" r="4.889"/>
        </g>
        <g transform="matrix(1 0 0 -1 91.915 168.7)" fill="#2B2B2B">
            <path d="m5.449 32.466-4.75 10-4.75-10h9.5zm-4.75-4.378c.273 0 .5.2.542.461l.007.09v1.396a.55.55 0 0 1-1.092.09l-.008-.09v-1.397a.55.55 0 0 1 .55-.55zm0-6.985c.273 0 .5.2.542.461l.007.09v1.396a.55.55 0 0 1-1.092.09l-.008-.09v-1.397a.55.55 0 0 1 .55-.55zm0-6.985c.273 0 .5.2.542.461l.007.09v1.396a.55.55 0 0 1-1.092.09l-.008-.09v-1.397a.55.55 0 0 1 .55-.55zm0-6.985c.273 0 .5.2.542.461l.007.09V9.08a.55.55 0 0 1-1.092.09l-.008-.09V7.683a.55.55 0 0 1 .55-.55zm101.98-2.793a.55.55 0 0 1 .09 1.092l-.09.007h-1.397a.55.55 0 0 1-.089-1.092l.09-.008h1.397zm-6.984 0a.55.55 0 0 1 .089 1.092l-.09.007h-1.396a.55.55 0 0 1-.09-1.092l.09-.008h1.397zm-6.985 0a.55.55 0 0 1 .089 1.092l-.09.007h-1.396a.55.55 0 0 1-.09-1.092l.09-.008h1.397zm-6.985 0a.55.55 0 0 1 .089 1.092l-.09.007h-1.396a.55.55 0 0 1-.09-1.092l.09-.008h1.397zm-6.985 0a.55.55 0 0 1 .089 1.092l-.09.007h-1.396a.55.55 0 0 1-.09-1.092l.09-.008h1.397zm-6.985 0a.55.55 0 0 1 .089 1.092l-.09.007h-1.396a.55.55 0 0 1-.09-1.092l.09-.008h1.397zm-6.985 0a.55.55 0 0 1 .089 1.092l-.09.007h-1.396a.55.55 0 0 1-.09-1.092l.09-.008h1.397zm-6.985 0a.55.55 0 0 1 .089 1.092l-.09.007h-1.396a.55.55 0 0 1-.09-1.092l.09-.008h1.397zm-6.985 0a.55.55 0 0 1 .089 1.092l-.09.007h-1.396a.55.55 0 0 1-.09-1.092l.09-.008H46.8zm-6.985 0a.55.55 0 0 1 .089 1.092l-.09.007h-1.396a.55.55 0 0 1-.09-1.092l.09-.008h1.397zm-6.985 0a.55.55 0 0 1 .089 1.092l-.09.007h-1.396a.55.55 0 0 1-.09-1.092l.09-.008h1.397zm-6.985 0a.55.55 0 0 1 .089 1.092l-.09.007h-1.396a.55.55 0 0 1-.09-1.092l.09-.008h1.397zm-6.985 0a.55.55 0 0 1 .089 1.092l-.09.007h-1.396a.55.55 0 0 1-.09-1.092l.09-.008h1.397zm-6.985 0a.55.55 0 0 1 .089 1.092l-.09.007h-1.396a.55.55 0 0 1-.09-1.092l.09-.008h1.397zm-6.985 0a.55.55 0 0 1 .089 1.092l-.09.007H3.494a.55.55 0 0 1-.09-1.092l.09-.008H4.89z" fill-rule="nonzero"/>
            <circle cx="102.68" cy="4.889" r="4.889"/>
        </g>
        <g transform="matrix(1 0 0 -1 215.454 143.76)" fill="#2B2B2B">
            <path d="m9.358 89.34.21 9.497L-.534 94.31l9.892-4.97zm4.484 4.101a.55.55 0 0 1 .113 1.09l-.089.01-1.397.03a.55.55 0 0 1-.113-1.09l.09-.01 1.396-.03zm6.983-.155a.55.55 0 0 1 .113 1.09l-.089.01-1.396.03a.55.55 0 0 1-.114-1.09l.09-.009 1.396-.03zm6.983-.155a.55.55 0 0 1 .114 1.09l-.09.01-1.396.031a.55.55 0 0 1-.113-1.09l.089-.01 1.396-.03zm6.984-.154a.55.55 0 0 1 .113 1.09l-.089.01-1.397.03a.55.55 0 0 1-.113-1.09l.089-.01 1.397-.03zm2.228-4.818c.274 0 .5.2.543.461l.008.09v1.396a.55.55 0 0 1-1.093.09l-.008-.09V88.71a.55.55 0 0 1 .55-.55zm0-6.985c.274 0 .5.2.543.461l.008.09v1.396a.55.55 0 0 1-1.093.09l-.008-.09v-1.397a.55.55 0 0 1 .55-.55zm0-6.985c.274 0 .5.2.543.461l.008.09v1.396a.55.55 0 0 1-1.093.09l-.008-.09V74.74a.55.55 0 0 1 .55-.55zm0-6.985c.274 0 .5.2.543.461l.008.09v1.396a.55.55 0 0 1-1.093.09l-.008-.09v-1.397a.55.55 0 0 1 .55-.55zm0-6.985c.274 0 .5.2.543.461l.008.09v1.396a.55.55 0 0 1-1.093.09l-.008-.09V60.77a.55.55 0 0 1 .55-.55zm0-6.985c.274 0 .5.2.543.461l.008.09v1.396a.55.55 0 0 1-1.093.09l-.008-.09v-1.397a.55.55 0 0 1 .55-.55zm0-6.985c.274 0 .5.2.543.461l.008.09v1.396a.55.55 0 0 1-1.093.09l-.008-.09V46.8a.55.55 0 0 1 .55-.55zm0-6.985c.274 0 .5.2.543.461l.008.09v1.396a.55.55 0 0 1-1.093.09l-.008-.09v-1.397a.55.55 0 0 1 .55-.55zm0-6.985c.274 0 .5.2.543.461l.008.09v1.396a.55.55 0 0 1-1.093.09l-.008-.09V32.83a.55.55 0 0 1 .55-.55zm0-6.985c.274 0 .5.2.543.461l.008.09v1.396a.55.55 0 0 1-1.093.09l-.008-.09v-1.397a.55.55 0 0 1 .55-.55zm0-6.985c.274 0 .5.2.543.461l.008.09v1.396a.55.55 0 0 1-1.093.09l-.008-.09V18.86a.55.55 0 0 1 .55-.55zm0-6.985c.274 0 .5.2.543.461l.008.09v1.396a.55.55 0 0 1-1.093.09l-.008-.09v-1.397a.55.55 0 0 1 .55-.55zm0-6.984c.274 0 .5.199.543.46l.008.09v1.396a.55.55 0 0 1-1.093.09l-.008-.09V4.89a.55.55 0 0 1 .55-.55z" fill-rule="nonzero"/>
            <circle cx="37.02" cy="4.889" r="4.889"/>
        </g>
        <g transform="matrix(1 0 0 -1 296.48 154.936)" fill="#2B2B2B">
            <path d="m32.466 82.563 10 4.75-10 4.75v-9.5zm-24.783 4.2a.55.55 0 0 1 .09 1.092l-.09.007H6.286a.55.55 0 0 1-.089-1.092l.09-.007h1.396zm6.985 0a.55.55 0 0 1 .09 1.092l-.09.007h-1.397a.55.55 0 0 1-.089-1.092l.09-.007h1.396zm6.985 0a.55.55 0 0 1 .09 1.092l-.09.007h-1.397a.55.55 0 0 1-.089-1.092l.09-.007h1.396zm6.985 0a.55.55 0 0 1 .09 1.092l-.09.007h-1.397a.55.55 0 0 1-.089-1.092l.09-.007h1.396zM4.89 81.174c.273 0 .5.2.542.461l.007.09v1.396a.55.55 0 0 1-1.092.09l-.008-.09v-1.397a.55.55 0 0 1 .55-.55zm0-6.985c.273 0 .5.2.542.461l.007.09v1.396a.55.55 0 0 1-1.092.09l-.008-.09V74.74a.55.55 0 0 1 .55-.55zm0-6.985c.273 0 .5.2.542.461l.007.09v1.396a.55.55 0 0 1-1.092.09l-.008-.09v-1.397a.55.55 0 0 1 .55-.55zm0-6.985c.273 0 .5.2.542.461l.007.09v1.396a.55.55 0 0 1-1.092.09l-.008-.09V60.77a.55.55 0 0 1 .55-.55zm0-6.985c.273 0 .5.2.542.461l.007.09v1.396a.55.55 0 0 1-1.092.09l-.008-.09v-1.397a.55.55 0 0 1 .55-.55zm0-6.985c.273 0 .5.2.542.461l.007.09v1.396a.55.55 0 0 1-1.092.09l-.008-.09V46.8a.55.55 0 0 1 .55-.55zm0-6.985c.273 0 .5.2.542.461l.007.09v1.396a.55.55 0 0 1-1.092.09l-.008-.09v-1.397a.55.55 0 0 1 .55-.55zm0-6.985c.273 0 .5.2.542.461l.007.09v1.396a.55.55 0 0 1-1.092.09l-.008-.09V32.83a.55.55 0 0 1 .55-.55zm0-6.985c.273 0 .5.2.542.461l.007.09v1.396a.55.55 0 0 1-1.092.09l-.008-.09v-1.397a.55.55 0 0 1 .55-.55zm0-6.985c.273 0 .5.2.542.461l.007.09v1.396a.55.55 0 0 1-1.092.09l-.008-.09V18.86a.55.55 0 0 1 .55-.55zm0-6.985c.273 0 .5.2.542.461l.007.09v1.396a.55.55 0 0 1-1.092.09l-.008-.09v-1.397a.55.55 0 0 1 .55-.55zm0-6.984c.273 0 .5.199.542.46l.007.09v1.396a.55.55 0 0 1-1.092.09l-.008-.09V4.89a.55.55 0 0 1 .55-.55z" fill-rule="nonzero"/>
            <circle cx="4.889" cy="4.889" r="4.889"/>
        </g>
        <g transform="matrix(-1 0 0 1 501.251 298.048)" fill="#2B2B2B">
            <path d="m5.449 32.466-4.75 10-4.75-10h9.5zm-4.75-2.98c.273 0 .5.199.542.46l.007.09v1.396a.55.55 0 0 1-1.092.09l-.008-.09v-1.397a.55.55 0 0 1 .55-.55zm0-6.986c.273 0 .5.2.542.461l.007.09v1.396a.55.55 0 0 1-1.092.09l-.008-.09V23.05a.55.55 0 0 1 .55-.55zm0-6.985c.273 0 .5.2.542.461l.007.09v1.396a.55.55 0 0 1-1.092.09l-.008-.09v-1.397a.55.55 0 0 1 .55-.55zm0-6.985c.273 0 .5.2.542.461l.007.09v1.396a.55.55 0 0 1-1.092.09l-.008-.09V9.08a.55.55 0 0 1 .55-.55zm79.629-4.19a.55.55 0 0 1 .089 1.092l-.09.007H78.93a.55.55 0 0 1-.089-1.092l.09-.008h1.397zm-6.985 0a.55.55 0 0 1 .089 1.092l-.09.007h-1.396a.55.55 0 0 1-.09-1.092l.09-.008h1.397zm-6.985 0a.55.55 0 0 1 .089 1.092l-.09.007h-1.396a.55.55 0 0 1-.09-1.092l.09-.008h1.397zm-6.985 0a.55.55 0 0 1 .089 1.092l-.09.007h-1.396a.55.55 0 0 1-.09-1.092l.09-.008h1.397zm-6.985 0a.55.55 0 0 1 .089 1.092l-.09.007h-1.396a.55.55 0 0 1-.09-1.092l.09-.008h1.397zm-6.985 0a.55.55 0 0 1 .089 1.092l-.09.007h-1.396a.55.55 0 0 1-.09-1.092l.09-.008h1.397zm-6.985 0a.55.55 0 0 1 .089 1.092l-.09.007h-1.396a.55.55 0 0 1-.09-1.092l.09-.008h1.397zm-6.985 0a.55.55 0 0 1 .089 1.092l-.09.007h-1.396a.55.55 0 0 1-.09-1.092l.09-.008h1.397zm-6.985 0a.55.55 0 0 1 .089 1.092l-.09.007h-1.396a.55.55 0 0 1-.09-1.092l.09-.008h1.397zm-6.985 0a.55.55 0 0 1 .089 1.092l-.09.007h-1.396a.55.55 0 0 1-.09-1.092l.09-.008h1.397zm-6.985 0a.55.55 0 0 1 .089 1.092l-.09.007H9.082a.55.55 0 0 1-.09-1.092l.09-.008h1.397zm-6.985 0a.55.55 0 0 1 .089 1.092l-.09.007H2.097a.55.55 0 0 1-.09-1.092l.09-.008h1.397z" fill-rule="nonzero"/>
            <circle cx="80.328" cy="4.889" r="4.889"/>
        </g>
        <g transform="matrix(-1 0 0 1 545.529 221.992)" fill="#2B2B2B">
            <path d="M.699 30.5c.273 0 .5.2.542.461l.007.09v1.396l-.001.018h4.202l-4.75 10-4.75-10h4.2V31.05a.55.55 0 0 1 .55-.55zm0-6.985c.273 0 .5.2.542.461l.007.09v1.396a.55.55 0 0 1-1.092.09l-.008-.09v-1.397a.55.55 0 0 1 .55-.55zm0-6.985c.273 0 .5.2.542.461l.007.09v1.396a.55.55 0 0 1-1.092.09l-.008-.09V17.08a.55.55 0 0 1 .55-.55zm0-6.985c.273 0 .5.2.542.461l.007.09v1.396a.55.55 0 0 1-1.092.09l-.008-.09v-1.397a.55.55 0 0 1 .55-.55zM128.208 4.34a.55.55 0 0 1 .089 1.092l-.09.007h-1.396a.55.55 0 0 1-.09-1.092l.09-.008h1.397zm-6.986 0a.55.55 0 0 1 .09 1.092l-.09.007h-1.396a.55.55 0 0 1-.09-1.092l.09-.008h1.397zm-6.984 0a.55.55 0 0 1 .089 1.092l-.09.007h-1.396a.55.55 0 0 1-.09-1.092l.09-.008h1.397zm-6.985 0a.55.55 0 0 1 .089 1.092l-.09.007h-1.396a.55.55 0 0 1-.09-1.092l.09-.008h1.397zm-6.985 0a.55.55 0 0 1 .089 1.092l-.09.007h-1.396a.55.55 0 0 1-.09-1.092l.09-.008h1.397zm-6.985 0a.55.55 0 0 1 .089 1.092l-.09.007h-1.396a.55.55 0 0 1-.09-1.092l.09-.008h1.397zm-6.985 0a.55.55 0 0 1 .089 1.092l-.09.007h-1.396a.55.55 0 0 1-.09-1.092l.09-.008h1.397zm-6.985 0a.55.55 0 0 1 .089 1.092l-.09.007h-1.396a.55.55 0 0 1-.09-1.092l.09-.008h1.397zm-6.985 0a.55.55 0 0 1 .089 1.092l-.09.007h-1.396a.55.55 0 0 1-.09-1.092l.09-.008h1.397zm-6.985 0a.55.55 0 0 1 .089 1.092l-.09.007h-1.396a.55.55 0 0 1-.09-1.092l.09-.008h1.397zm-6.985 0a.55.55 0 0 1 .089 1.092l-.09.007h-1.396a.55.55 0 0 1-.09-1.092l.09-.008h1.397zm-6.985 0a.55.55 0 0 1 .089 1.092l-.09.007h-1.396a.55.55 0 0 1-.09-1.092l.09-.008h1.397zm-6.985 0a.55.55 0 0 1 .089 1.092l-.09.007h-1.396a.55.55 0 0 1-.09-1.092l.09-.008h1.397zm-6.985 0a.55.55 0 0 1 .089 1.092l-.09.007h-1.396a.55.55 0 0 1-.09-1.092l.09-.008h1.397zm-6.985 0a.55.55 0 0 1 .089 1.092l-.09.007h-1.396a.55.55 0 0 1-.09-1.092l.09-.008h1.397zm-6.985 0a.55.55 0 0 1 .089 1.092l-.09.007h-1.396a.55.55 0 0 1-.09-1.092l.09-.008h1.397zm-6.985 0a.55.55 0 0 1 .089 1.092l-.09.007h-1.396a.55.55 0 0 1-.09-1.092l.09-.008h1.397zm-6.985 0a.55.55 0 0 1 .089 1.092l-.09.007H8.067a.55.55 0 0 1-.09-1.092l.09-.008h1.397zm-6.985 0a.55.55 0 0 1 .089 1.092l-.09.007H1.082a.55.55 0 0 1-.09-1.092l.09-.008h1.397z" fill-rule="nonzero"/>
            <circle cx="128.208" cy="4.889" r="4.889"/>
        </g>
        <g transform="rotate(180 239.236 100.923)" fill="#2B2B2B">
            <path d="m5.449 32.466-4.75 10-4.75-10h9.5zM.699 26.69c.273 0 .5.2.542.461l.007.09v1.396a.55.55 0 0 1-1.092.09l-.008-.09v-1.397a.55.55 0 0 1 .55-.55zm0-6.985c.273 0 .5.2.542.461l.007.09v1.396a.55.55 0 0 1-1.092.09l-.008-.09v-1.397a.55.55 0 0 1 .55-.55zm0-6.985c.273 0 .5.2.542.461l.007.09v1.396a.55.55 0 0 1-1.092.09l-.008-.09v-1.397a.55.55 0 0 1 .55-.55zm0-6.985c.273 0 .5.2.542.461l.007.09v1.396a.55.55 0 0 1-1.092.09l-.008-.09V6.286a.55.55 0 0 1 .55-.55zM69.151 4.34a.55.55 0 0 1 .089 1.092l-.09.007h-1.397a.55.55 0 0 1-.089-1.092l.09-.008h1.397zm-6.985 0a.55.55 0 0 1 .089 1.092l-.09.007H60.77a.55.55 0 0 1-.09-1.092l.09-.008h1.397zm-6.985 0a.55.55 0 0 1 .089 1.092l-.09.007h-1.396a.55.55 0 0 1-.09-1.092l.09-.008h1.397zm-6.985 0a.55.55 0 0 1 .089 1.092l-.09.007H46.8a.55.55 0 0 1-.09-1.092l.09-.008h1.397zm-6.985 0a.55.55 0 0 1 .089 1.092l-.09.007h-1.396a.55.55 0 0 1-.09-1.092l.09-.008h1.397zm-6.985 0a.55.55 0 0 1 .089 1.092l-.09.007H32.83a.55.55 0 0 1-.09-1.092l.09-.008h1.397zm-6.985 0a.55.55 0 0 1 .089 1.092l-.09.007h-1.396a.55.55 0 0 1-.09-1.092l.09-.008h1.397zm-6.985 0a.55.55 0 0 1 .089 1.092l-.09.007H18.86a.55.55 0 0 1-.09-1.092l.09-.008h1.397zm-6.985 0a.55.55 0 0 1 .089 1.092l-.09.007h-1.396a.55.55 0 0 1-.09-1.092l.09-.008h1.397zm-6.985 0a.55.55 0 0 1 .089 1.092l-.09.007H4.89a.55.55 0 0 1-.09-1.092l.09-.008h1.397z" fill-rule="nonzero"/>
            <circle cx="69.151" cy="4.889" r="4.889"/>
        </g>
        <g transform="rotate(180 213.002 85.151)" fill="#2B2B2B">
            <path d="m5.449 32.466-4.75 10-4.75-10h9.5zM.699 29.69c.273 0 .5.2.542.461l.007.09v1.396a.55.55 0 0 1-1.092.09l-.008-.09v-1.397a.55.55 0 0 1 .55-.55zm0-6.985c.273 0 .5.2.542.461l.007.09v1.396a.55.55 0 0 1-1.092.09l-.008-.09v-1.397a.55.55 0 0 1 .55-.55zm0-6.985c.273 0 .5.2.542.461l.007.09v1.396a.55.55 0 0 1-1.092.09l-.008-.09v-1.397a.55.55 0 0 1 .55-.55zm0-6.985c.273 0 .5.2.542.461l.007.09v1.396a.55.55 0 0 1-1.092.09l-.008-.09V9.286a.55.55 0 0 1 .55-.55zM66.151 4.34a.55.55 0 0 1 .089 1.093l-.09.007h-1.397a.55.55 0 0 1-.089-1.092l.09-.008h1.397zm-6.985 0a.55.55 0 0 1 .089 1.093l-.09.007H57.77a.55.55 0 0 1-.09-1.092l.09-.008h1.397zm-6.985 0a.55.55 0 0 1 .089 1.093l-.09.007h-1.396a.55.55 0 0 1-.09-1.092l.09-.008h1.397zm-6.985 0a.55.55 0 0 1 .089 1.093l-.09.007H43.8a.55.55 0 0 1-.09-1.092l.09-.008h1.397zm-6.985 0a.55.55 0 0 1 .089 1.093l-.09.007h-1.396a.55.55 0 0 1-.09-1.092l.09-.008h1.397zm-6.985 0a.55.55 0 0 1 .089 1.093l-.09.007H29.83a.55.55 0 0 1-.09-1.092l.09-.008h1.397zm-6.985 0a.55.55 0 0 1 .089 1.093l-.09.007h-1.396a.55.55 0 0 1-.09-1.092l.09-.008h1.397zm-6.985 0a.55.55 0 0 1 .089 1.093l-.09.007H15.86a.55.55 0 0 1-.09-1.092l.09-.008h1.397zm-6.985 0a.55.55 0 0 1 .089 1.093l-.09.007H8.876a.55.55 0 0 1-.09-1.092l.09-.008h1.397zm-6.985 0a.55.55 0 0 1 .089 1.093l-.09.007H1.89a.55.55 0 0 1-.09-1.092l.09-.008h1.397z" fill-rule="nonzero"/>
            <circle cx="66.151" cy="4.889" r="4.889"/>
        </g>
        <g transform="matrix(-1 0 0 1 321.245 361.274)" fill="#2B2B2B">
            <path d="m10.162 94.298-.051 4.2 1.325.016a.55.55 0 0 1 .076 1.094l-.09.006-1.325-.016-.05 4.2-9.941-4.87 10.056-4.63zm27.815 4.534 1.397.017a.55.55 0 0 1 .076 1.094l-.09.006-1.396-.017a.55.55 0 0 1 .013-1.1zm-6.985-.083 1.397.016a.55.55 0 0 1 .076 1.094l-.089.006-1.397-.017a.55.55 0 0 1 .013-1.1zm-6.984-.084 1.397.017a.55.55 0 0 1 .076 1.093l-.09.006-1.396-.016a.55.55 0 0 1 .013-1.1zm-6.985-.084 1.397.017a.55.55 0 0 1 .076 1.094l-.089.006-1.397-.017a.55.55 0 0 1 .013-1.1zm25.585-3.437c.274 0 .5.2.543.461l.007.09v1.396a.55.55 0 0 1-1.092.09l-.008-.09v-1.397a.55.55 0 0 1 .55-.55zm0-6.985c.274 0 .5.2.543.461l.007.09v1.396a.55.55 0 0 1-1.092.09l-.008-.09V88.71a.55.55 0 0 1 .55-.55zm0-6.985c.274 0 .5.2.543.461l.007.09v1.396a.55.55 0 0 1-1.092.09l-.008-.09v-1.397a.55.55 0 0 1 .55-.55zm0-6.985c.274 0 .5.2.543.461l.007.09v1.396a.55.55 0 0 1-1.092.09l-.008-.09V74.74a.55.55 0 0 1 .55-.55zm0-6.985c.274 0 .5.2.543.461l.007.09v1.396a.55.55 0 0 1-1.092.09l-.008-.09v-1.397a.55.55 0 0 1 .55-.55zm0-6.985c.274 0 .5.2.543.461l.007.09v1.396a.55.55 0 0 1-1.092.09l-.008-.09V60.77a.55.55 0 0 1 .55-.55zm0-6.985c.274 0 .5.2.543.461l.007.09v1.396a.55.55 0 0 1-1.092.09l-.008-.09v-1.397a.55.55 0 0 1 .55-.55zm0-6.985c.274 0 .5.2.543.461l.007.09v1.396a.55.55 0 0 1-1.092.09l-.008-.09V46.8a.55.55 0 0 1 .55-.55zm0-6.985c.274 0 .5.2.543.461l.007.09v1.396a.55.55 0 0 1-1.092.09l-.008-.09v-1.397a.55.55 0 0 1 .55-.55zm0-6.985c.274 0 .5.2.543.461l.007.09v1.396a.55.55 0 0 1-1.092.09l-.008-.09V32.83a.55.55 0 0 1 .55-.55zm0-6.985c.274 0 .5.2.543.461l.007.09v1.396a.55.55 0 0 1-1.092.09l-.008-.09v-1.397a.55.55 0 0 1 .55-.55zm0-6.985c.274 0 .5.2.543.461l.007.09v1.396a.55.55 0 0 1-1.092.09l-.008-.09V18.86a.55.55 0 0 1 .55-.55zm0-6.985c.274 0 .5.2.543.461l.007.09v1.396a.55.55 0 0 1-1.092.09l-.008-.09v-1.397a.55.55 0 0 1 .55-.55zm0-6.984c.274 0 .5.199.543.46l.007.09v1.396a.55.55 0 0 1-1.092.09l-.008-.09V4.89a.55.55 0 0 1 .55-.55z" fill-rule="nonzero"/>
            <circle cx="42.608" cy="4.889" r="4.889"/>
        </g>
        <text font-family="ModernEra-Bold, Modern Era" font-size="20.955" font-weight="bold" fill="#2B2B2B" transform="translate(.36 32)">
                        <tspan x="340.551" y="426.757">19%</tspan>
                    </text>
        <text font-family="ModernEra-Bold, Modern Era" font-size="20.955" font-weight="bold" fill="#2B2B2B" transform="translate(.36 32)">
                        <tspan x="45.052" y="351.089">17.5%</tspan>
                    </text>
        <text font-family="ModernEra-Bold, Modern Era" font-size="20.955" font-weight="bold" fill="#2B2B2B" transform="translate(.36 32)">
                        <tspan x=".28" y="260.078">10%</tspan>
                    </text>
        <text font-family="ModernEra-Bold, Modern Era" font-size="20.955" font-weight="bold" fill="#2B2B2B" transform="translate(.36 32)">
                        <tspan x="69.909" y="65.895">7.5%</tspan>
                    </text>
        <text font-family="ModernEra-Bold, Modern Era" font-size="20.955" font-weight="bold" fill="#2B2B2B" transform="translate(.36 32)">
                        <tspan x="150.243" y="20">6.2%</tspan>
                    </text>
        <text font-family="ModernEra-Bold, Modern Era" font-size="20.955" font-weight="bold" fill="#2B2B2B" transform="translate(.36 32)">
                        <tspan x="354.795" y="38.161">5%</tspan>
                    </text>
    </g>
</svg>
