<svg xmlns="http://www.w3.org/2000/svg" width="100%" height="100%" viewBox="0 0 289 226">
    <g fill="none" fill-rule="evenodd">
        <g>
            <g>
                <text fill="#2B2B2B" font-family="ModernEra-Bold, Modern Era" font-size="10.532" font-weight="bold" transform="translate(-15 -2191) translate(15 2191)">
                    <tspan x="245.583" y="170.402">20%</tspan>
                </text>
                <text fill="#2B2B2B" font-family="ModernEra-Bold, Modern Era" font-size="10.532" font-weight="bold" transform="translate(-15 -2191) translate(15 2191)">
                    <tspan x="266.086" y="132.175">2.8%</tspan>
                </text>
                <text fill="#2B2B2B" font-family="ModernEra-Bold, Modern Era" font-size="10.532" font-weight="bold" transform="translate(-15 -2191) translate(15 2191)">
                    <tspan x="207.495" y="33.873">9%</tspan>
                </text>
                <text fill="#2B2B2B" font-family="ModernEra-Bold, Modern Era" font-size="10.532" font-weight="bold" transform="translate(-15 -2191) translate(15 2191)">
                    <tspan x="234.401" y="49.727">3%</tspan>
                </text>
                <g>
                    <path fill="#2B2B2B" d="M176.875 62.441v13.19c0 45.104-39.469 75.154-87.912 75.154-48.442 0-87.502-30.086-87.502-75.153v-13.19c0 2.204.096 4.407.288 6.6 3.609 41.973 40.304 56.532 86.356 56.532 46.051 0 84.873-14.559 88.482-56.533.191-2.192.288-4.395.288-6.6z" transform="translate(-15 -2191) translate(15 2191) translate(50.25 46.342)"/>
                    <g>
                        <path fill="#FFF" d="M90.99 67.758L27.115 28.88c8.538-8.244 19.745-14.788 32.622-18.874L90.99 67.758z" transform="translate(-15 -2191) translate(15 2191) translate(50.25 46.342)"/>
                        <path fill="#FFE7BC" d="M90.99 67.758L26.61 29.193c8.538-8.243 20.25-15.1 33.128-19.187L90.99 67.758z" transform="translate(-15 -2191) translate(15 2191) translate(50.25 46.342)"/>
                        <path fill="#FFF" d="M90.99 5.266v62.492L59.737 10.006c9.606-3.055 20.138-4.74 31.19-4.74h.063z" transform="translate(-15 -2191) translate(15 2191) translate(50.25 46.342)"/>
                        <path fill="#FFF" d="M116.794 8.475L90.99 67.758V5.266c9.023.007 17.695 1.13 25.804 3.21" transform="translate(-15 -2191) translate(15 2191) translate(50.25 46.342)"/>
                        <path fill="#FFBC41" d="M116.794 8.475L90.99 67.758V5.266c9.023.007 17.695 1.13 25.804 3.21z" transform="translate(-15 -2191) translate(15 2191) translate(50.25 46.342)"/>
                        <path fill="#FFD07B" d="M90.99.35v67.408L57.287 5.463C67.645 2.17 79.003.351 90.922.351h.068z" transform="translate(-15 -2191) translate(15 2191) translate(50.25 46.342)"/>
                        <text fill="#2B2B2B" font-family="ModernEra-Medium, Modern Era" font-size="8.545" font-weight="400" transform="translate(-15 -2191) translate(15 2191) translate(50.25 46.342)">
                            <tspan x="76.405" y="31.014">T1</tspan>
                        </text>
                        <path fill="#FFF" d="M154.514 28.662L90.99 67.758l25.804-59.283c14.999 3.841 28.045 10.933 37.72 20.187" transform="translate(-15 -2191) translate(15 2191) translate(50.25 46.342)"/>
                        <path fill="#FFAA0E" d="M154.514 28.662L90.99 67.758l25.804-59.283c14.999 3.841 28.045 10.933 37.72 20.187z" transform="translate(-15 -2191) translate(15 2191) translate(50.25 46.342)"/>
                        <path fill="#FFF" d="M166.008 43.45L90.99 67.758l63.524-39.096c4.677 4.466 8.56 9.437 11.494 14.788" transform="translate(-15 -2191) translate(15 2191) translate(50.25 46.342)"/>
                        <path fill="#FF931D" d="M166.182 43.351L90.99 67.758l63.67-39.254c4.688 4.484 8.58 9.475 11.522 14.847z" transform="translate(-15 -2191) translate(15 2191) translate(50.25 46.342)"/>
                        <path fill="#F46A28" d="M166.009 43.45c2.162 3.939 3.812 8.088 4.873 12.393L90.99 67.758 166.01 43.45z" transform="translate(-15 -2191) translate(15 2191) translate(50.25 46.342)"/>
                        <path fill="#EE5F30" d="M138.119 121.337c-6.577 3.657-23.545 12.76-47.32 12.76-23.777 0-40.908-8.62-46.889-11.996l47.348-56.157 46.86 55.393z" transform="translate(-15 -2191) translate(15 2191) translate(50.25 46.342)"/>
                        <path stroke="#979797" stroke-linecap="square" stroke-width=".702" d="M9.603 69.865L9.54 69.865" transform="translate(-15 -2191) translate(15 2191) translate(50.25 46.342)"/>
                        <path fill="#E24510" d="M177.792 67.763c0 1.882-.094 3.756-.275 5.623-2.203 22.766-15.202 42.83-35.904 54.62l-50.28-60.248 84.981-13.021c.971 4.219 1.478 8.571 1.478 13.026z" transform="translate(-15 -2191) translate(15 2191) translate(50.25 46.342)"/>
                        <text fill="#2B2B2B" font-family="ModernEra-Medium, Modern Era" font-size="8.545" font-weight="400" transform="translate(-15 -2191) translate(15 2191) translate(50.25 46.342)">
                            <tspan x="136.719" y="89.82">T1</tspan>
                        </text>
                        <path fill="#F49778" d="M91.203 67.758l-50.854 60.248C16.175 116.667 2.842 95.98.456 73.12c-.102-.999-.18-2-.227-3l90.974-2.362z" transform="translate(-15 -2191) translate(15 2191) translate(50.25 46.342)"/>
                        <text fill="#2B2B2B" font-family="ModernEra-Medium, Modern Era" font-size="8.545" font-weight="400" transform="translate(-15 -2191) translate(15 2191) translate(50.25 46.342)">
                            <tspan x="38.206" y="93.841">T2</tspan>
                        </text>
                        <path fill="#FABEAA" d="M19.792 24.98l71.54 43.005L.18 70.315c-.048-.87-.071-1.74-.071-2.61 0-16.14 7.36-30.99 19.684-42.726z" transform="translate(-15 -2191) translate(15 2191) translate(50.25 46.342)"/>
                        <text fill="#2B2B2B" font-family="ModernEra-Medium, Modern Era" font-size="8.545" font-weight="400" transform="translate(-15 -2191) translate(15 2191) translate(50.25 46.342)">
                            <tspan x="30.667" y="59.663">T1</tspan>
                        </text>
                    </g>
                </g>
                <g fill="#2B2B2B" transform="translate(-15 -2191) translate(15 2191) translate(36.658 139.73)">
                    <path fill-rule="nonzero" d="M3.733 14.454l-3.382 7-3.382-7h6.764zm-3.382-2.38c.13 0 .24.092.27.214l.007.063v1c0 .153-.124.277-.277.277-.13 0-.24-.091-.27-.214l-.006-.063v-1c0-.153.123-.276.276-.276zm0-3.808c.13 0 .24.09.27.213l.007.063v1c0 .153-.124.277-.277.277-.13 0-.24-.091-.27-.213l-.006-.064v-1c0-.152.123-.276.276-.276zm0-3.809c.13 0 .24.091.27.213l.007.064v1c0 .152-.124.276-.277.276-.13 0-.24-.09-.27-.213l-.006-.063v-1c0-.153.123-.277.276-.277zm35.81-2.276c.153 0 .277.124.277.277 0 .13-.091.24-.214.269l-.063.007h-1c-.153 0-.276-.124-.276-.276 0-.131.09-.24.213-.27l.063-.007h1zm-3.809 0c.153 0 .277.124.277.277 0 .13-.091.24-.213.269l-.064.007h-1c-.152 0-.276-.124-.276-.276 0-.131.091-.24.213-.27l.063-.007h1zm-3.808 0c.153 0 .276.124.276.277 0 .13-.09.24-.213.269l-.063.007h-1c-.153 0-.277-.124-.277-.276 0-.131.091-.24.213-.27l.064-.007h1zm-3.809 0c.153 0 .277.124.277.277 0 .13-.091.24-.213.269l-.064.007h-1c-.152 0-.276-.124-.276-.276 0-.131.09-.24.213-.27l.063-.007h1zm-3.808 0c.152 0 .276.124.276.277 0 .13-.09.24-.213.269l-.063.007h-1c-.153 0-.277-.124-.277-.276 0-.131.091-.24.213-.27l.064-.007h1zm-3.81 0c.154 0 .277.124.277.277 0 .13-.09.24-.213.269l-.063.007h-1c-.153 0-.276-.124-.276-.276 0-.131.09-.24.213-.27l.063-.007h1zm-3.808 0c.153 0 .277.124.277.277 0 .13-.091.24-.213.269l-.064.007h-1c-.152 0-.276-.124-.276-.276 0-.131.09-.24.213-.27l.063-.007h1zm-3.808 0c.152 0 .276.124.276.277 0 .13-.09.24-.213.269l-.063.007h-1c-.153 0-.277-.124-.277-.276 0-.131.091-.24.213-.27l.064-.007h1zm-3.809 0c.153 0 .277.124.277.277 0 .13-.091.24-.214.269l-.063.007h-1c-.153 0-.276-.124-.276-.276 0-.131.09-.24.213-.27l.063-.007h1zm-3.809 0c.153 0 .277.124.277.277 0 .13-.091.24-.213.269l-.064.007h-1c-.152 0-.276-.124-.276-.276 0-.131.09-.24.213-.27l.063-.007h1z"/>
                    <circle cx="36.161" cy="2.458" r="2.458"/>
                </g>
                <g fill="#2B2B2B" transform="translate(-15 -2191) translate(15 2191) translate(10.48 93.986)">
                    <path fill-rule="nonzero" d="M3.733 14.454l-3.382 7-3.382-7h6.764zM.351 11.862c.13 0 .24.09.27.213l.007.063v1c0 .153-.124.277-.277.277-.13 0-.24-.091-.27-.213l-.006-.064v-1c0-.153.123-.276.276-.276zm0-3.809c.13 0 .24.091.27.213l.007.064v1c0 .152-.124.276-.277.276-.13 0-.24-.091-.27-.213L.076 9.33v-1c0-.153.123-.277.276-.277zm0-3.809c.13 0 .24.091.27.213l.007.064v1c0 .153-.124.276-.277.276-.13 0-.24-.09-.27-.213l-.006-.063v-1c0-.153.123-.277.276-.277zM51.61 2.181c.152 0 .276.124.276.277 0 .13-.09.24-.213.269l-.063.007h-1c-.153 0-.277-.124-.277-.276 0-.131.091-.24.213-.27l.064-.007h1zm-3.81 0c.154 0 .277.124.277.277 0 .13-.09.24-.213.269l-.063.007h-1c-.153 0-.277-.124-.277-.276 0-.131.091-.24.214-.27l.063-.007h1zm-3.808 0c.153 0 .277.124.277.277 0 .13-.091.24-.213.269l-.064.007h-1c-.152 0-.276-.124-.276-.276 0-.131.09-.24.213-.27l.063-.007h1zm-3.808 0c.152 0 .276.124.276.277 0 .13-.09.24-.213.269l-.063.007h-1c-.153 0-.277-.124-.277-.276 0-.131.091-.24.213-.27l.064-.007h1zm-3.809 0c.153 0 .276.124.276.277 0 .13-.09.24-.213.269l-.063.007h-1c-.153 0-.276-.124-.276-.276 0-.131.09-.24.213-.27l.063-.007h1zm-3.809 0c.153 0 .277.124.277.277 0 .13-.091.24-.213.269l-.064.007h-1c-.152 0-.276-.124-.276-.276 0-.131.09-.24.213-.27l.063-.007h1zm-3.808 0c.152 0 .276.124.276.277 0 .13-.09.24-.213.269l-.063.007h-1c-.153 0-.277-.124-.277-.276 0-.131.091-.24.213-.27l.064-.007h1zm-3.809 0c.153 0 .277.124.277.277 0 .13-.091.24-.213.269l-.064.007h-1c-.153 0-.276-.124-.276-.276 0-.131.09-.24.213-.27l.063-.007h1zm-3.808 0c.152 0 .276.124.276.277 0 .13-.091.24-.213.269l-.063.007h-1c-.153 0-.277-.124-.277-.276 0-.131.091-.24.213-.27l.064-.007h1zm-3.81 0c.154 0 .277.124.277.277 0 .13-.09.24-.213.269l-.063.007h-1c-.153 0-.277-.124-.277-.276 0-.131.091-.24.214-.27l.063-.007h1zm-3.808 0c.153 0 .277.124.277.277 0 .13-.091.24-.213.269l-.064.007h-1c-.152 0-.276-.124-.276-.276 0-.131.09-.24.213-.27l.063-.007h1zm-3.808 0c.152 0 .276.124.276.277 0 .13-.09.24-.213.269l-.063.007h-1c-.153 0-.277-.124-.277-.276 0-.131.091-.24.213-.27l.064-.007h1zm-3.809 0c.153 0 .276.124.276.277 0 .13-.09.24-.213.269l-.063.007h-1c-.153 0-.276-.124-.276-.276 0-.131.09-.24.213-.27l.063-.007h1zm-3.809 0c.153 0 .277.124.277.277 0 .13-.091.24-.213.269l-.064.007h-1c-.152 0-.276-.124-.276-.276 0-.131.09-.24.213-.27l.063-.007h1z"/>
                    <circle cx="51.609" cy="2.458" r="2.458"/>
                </g>
                <g fill="#2B2B2B" transform="translate(-15 -2191) translate(15 2191) matrix(1 0 0 -1 47.198 68.708)">
                    <path fill-rule="nonzero" d="M3.733 14.454l-3.382 7-3.382-7h6.764zM.351 11.862c.13 0 .24.09.27.213l.007.063v1c0 .153-.124.277-.277.277-.13 0-.24-.091-.27-.213l-.006-.064v-1c0-.153.123-.276.276-.276zm0-3.809c.13 0 .24.091.27.213l.007.064v1c0 .152-.124.276-.277.276-.13 0-.24-.091-.27-.213L.076 9.33v-1c0-.153.123-.277.276-.277zm0-3.809c.13 0 .24.091.27.213l.007.064v1c0 .153-.124.276-.277.276-.13 0-.24-.09-.27-.213l-.006-.063v-1c0-.153.123-.277.276-.277zM51.61 2.181c.152 0 .276.124.276.277 0 .13-.09.24-.213.269l-.063.007h-1c-.153 0-.277-.124-.277-.276 0-.131.091-.24.213-.27l.064-.007h1zm-3.81 0c.154 0 .277.124.277.277 0 .13-.09.24-.213.269l-.063.007h-1c-.153 0-.277-.124-.277-.276 0-.131.091-.24.214-.27l.063-.007h1zm-3.808 0c.153 0 .277.124.277.277 0 .13-.091.24-.213.269l-.064.007h-1c-.152 0-.276-.124-.276-.276 0-.131.09-.24.213-.27l.063-.007h1zm-3.808 0c.152 0 .276.124.276.277 0 .13-.09.24-.213.269l-.063.007h-1c-.153 0-.277-.124-.277-.276 0-.131.091-.24.213-.27l.064-.007h1zm-3.809 0c.153 0 .276.124.276.277 0 .13-.09.24-.213.269l-.063.007h-1c-.153 0-.276-.124-.276-.276 0-.131.09-.24.213-.27l.063-.007h1zm-3.809 0c.153 0 .277.124.277.277 0 .13-.091.24-.213.269l-.064.007h-1c-.152 0-.276-.124-.276-.276 0-.131.09-.24.213-.27l.063-.007h1zm-3.808 0c.152 0 .276.124.276.277 0 .13-.09.24-.213.269l-.063.007h-1c-.153 0-.277-.124-.277-.276 0-.131.091-.24.213-.27l.064-.007h1zm-3.809 0c.153 0 .277.124.277.277 0 .13-.091.24-.213.269l-.064.007h-1c-.153 0-.276-.124-.276-.276 0-.131.09-.24.213-.27l.063-.007h1zm-3.808 0c.152 0 .276.124.276.277 0 .13-.091.24-.213.269l-.063.007h-1c-.153 0-.277-.124-.277-.276 0-.131.091-.24.213-.27l.064-.007h1zm-3.81 0c.154 0 .277.124.277.277 0 .13-.09.24-.213.269l-.063.007h-1c-.153 0-.277-.124-.277-.276 0-.131.091-.24.214-.27l.063-.007h1zm-3.808 0c.153 0 .277.124.277.277 0 .13-.091.24-.213.269l-.064.007h-1c-.152 0-.276-.124-.276-.276 0-.131.09-.24.213-.27l.063-.007h1zm-3.808 0c.152 0 .276.124.276.277 0 .13-.09.24-.213.269l-.063.007h-1c-.153 0-.277-.124-.277-.276 0-.131.091-.24.213-.27l.064-.007h1zm-3.809 0c.153 0 .276.124.276.277 0 .13-.09.24-.213.269l-.063.007h-1c-.153 0-.276-.124-.276-.276 0-.131.09-.24.213-.27l.063-.007h1zm-3.809 0c.153 0 .277.124.277.277 0 .13-.091.24-.213.269l-.064.007h-1c-.152 0-.276-.124-.276-.276 0-.131.09-.24.213-.27l.063-.007h1z"/>
                    <circle cx="51.609" cy="2.458" r="2.458"/>
                </g>
                <g fill="#2B2B2B" transform="translate(-15 -2191) translate(15 2191) matrix(1 0 0 -1 109.291 56.173)">
                    <path fill-rule="nonzero" d="M6.545 43.868l.15 6.762-7.073-3.226 6.923-3.536zm3.263 3.034c.153-.003.28.117.283.27.003.131-.086.243-.207.274l-.064.009-1 .022c-.152.003-.278-.118-.282-.27-.003-.131.086-.243.207-.274l.063-.009 1-.022zm3.808-.085c.153-.003.279.118.282.27.003.132-.085.243-.207.275l-.063.008-1 .022c-.152.004-.279-.117-.282-.27-.003-.13.085-.242.207-.274l.063-.008 1-.023zm3.808-.084c.152-.003.279.118.282.27.003.131-.086.243-.207.274l-.063.009-1 .022c-.153.003-.28-.118-.282-.27-.003-.131.085-.243.207-.274l.063-.009 1-.022zm1.183-2.657c.131 0 .24.09.27.213l.007.063v1c0 .153-.124.277-.277.277-.13 0-.24-.091-.269-.213l-.007-.064v-1c0-.152.123-.276.276-.276zm0-3.809c.131 0 .24.091.27.213l.007.064v1c0 .153-.124.276-.277.276-.13 0-.24-.09-.269-.213l-.007-.063v-1c0-.153.123-.277.276-.277zm0-3.808c.131 0 .24.09.27.213l.007.063v1c0 .153-.124.277-.277.277-.13 0-.24-.091-.269-.213l-.007-.064v-1c0-.152.123-.276.276-.276zm0-3.809c.131 0 .24.091.27.213l.007.064v1c0 .152-.124.276-.277.276-.13 0-.24-.09-.269-.213l-.007-.063v-1c0-.153.123-.277.276-.277zm0-3.808c.131 0 .24.09.27.213l.007.063v1c0 .153-.124.276-.277.276-.13 0-.24-.09-.269-.213l-.007-.063v-1c0-.153.123-.276.276-.276zm0-3.81c.131 0 .24.092.27.214l.007.063v1c0 .153-.124.277-.277.277-.13 0-.24-.091-.269-.213l-.007-.064v-1c0-.152.123-.276.276-.276zm0-3.808c.131 0 .24.091.27.213l.007.064v1c0 .152-.124.276-.277.276-.13 0-.24-.09-.269-.213l-.007-.063v-1c0-.153.123-.277.276-.277zm0-3.808c.131 0 .24.09.27.213l.007.063v1c0 .153-.124.277-.277.277-.13 0-.24-.091-.269-.214l-.007-.063v-1c0-.153.123-.276.276-.276zm0-3.809c.131 0 .24.09.27.213l.007.063v1c0 .153-.124.277-.277.277-.13 0-.24-.091-.269-.213l-.007-.064v-1c0-.152.123-.276.276-.276zm0-3.809c.131 0 .24.091.27.213l.007.064v1c0 .152-.124.276-.277.276-.13 0-.24-.09-.269-.213l-.007-.063v-1c0-.153.123-.277.276-.277zm0-3.808c.131 0 .24.09.27.213l.007.063v1c0 .153-.124.277-.277.277-.13 0-.24-.091-.269-.213l-.007-.064v-1c0-.152.123-.276.276-.276zm0-3.809c.131 0 .24.091.27.213l.007.064v1c0 .152-.124.276-.277.276-.13 0-.24-.09-.269-.213l-.007-.063v-1c0-.153.123-.277.276-.277z"/>
                    <circle cx="18.607" cy="2.458" r="2.458"/>
                </g>
                <g fill="#2B2B2B" transform="translate(-15 -2191) translate(15 2191) matrix(1 0 0 -1 150.016 61.79)">
                    <path fill-rule="nonzero" d="M14.454 40.503l7 3.382-7 3.382-.001-3.106h-.102c-.153 0-.276-.124-.276-.276 0-.131.09-.24.213-.27l.063-.007h.102v-3.105zM3.925 43.608c.153 0 .277.124.277.277 0 .13-.091.24-.213.269l-.064.007h-1c-.152 0-.276-.124-.276-.276 0-.131.09-.24.213-.27l.063-.007h1zm3.809 0c.152 0 .276.124.276.277 0 .13-.09.24-.213.269l-.063.007h-1c-.153 0-.277-.124-.277-.276 0-.131.091-.24.213-.27l.064-.007h1zm3.808 0c.153 0 .277.124.277.277 0 .13-.091.24-.213.269l-.064.007h-1c-.152 0-.276-.124-.276-.276 0-.131.09-.24.213-.27l.063-.007h1zm-9.084-3.34c.13 0 .24.09.269.212l.007.064v1c0 .153-.124.276-.276.276-.131 0-.24-.09-.27-.213l-.007-.063v-1c0-.153.124-.277.277-.277zm0-3.81c.13 0 .24.092.269.214l.007.063v1c0 .153-.124.277-.276.277-.131 0-.24-.091-.27-.213l-.007-.064v-1c0-.152.124-.276.277-.276zm0-3.808c.13 0 .24.091.269.213l.007.064v1c0 .152-.124.276-.276.276-.131 0-.24-.09-.27-.213l-.007-.063v-1c0-.153.124-.277.277-.277zm0-3.808c.13 0 .24.09.269.213l.007.063v1c0 .153-.124.276-.276.276-.131 0-.24-.09-.27-.213l-.007-.063v-1c0-.153.124-.276.277-.276zm0-3.81c.13 0 .24.092.269.214l.007.063v1c0 .153-.124.277-.276.277-.131 0-.24-.091-.27-.213l-.007-.064v-1c0-.152.124-.276.277-.276zm0-3.808c.13 0 .24.091.269.213l.007.064v1c0 .152-.124.276-.276.276-.131 0-.24-.09-.27-.213l-.007-.063v-1c0-.153.124-.277.277-.277zm0-3.808c.13 0 .24.09.269.213l.007.063v1c0 .153-.124.277-.276.277-.131 0-.24-.091-.27-.214l-.007-.063v-1c0-.153.124-.276.277-.276zm0-3.809c.13 0 .24.09.269.213l.007.063v1c0 .153-.124.277-.276.277-.131 0-.24-.091-.27-.213l-.007-.064v-1c0-.152.124-.276.277-.276zm0-3.809c.13 0 .24.091.269.213l.007.064v1c0 .152-.124.276-.276.276-.131 0-.24-.09-.27-.213l-.007-.063v-1c0-.153.124-.277.277-.277zm0-3.808c.13 0 .24.09.269.213l.007.063v1c0 .153-.124.277-.276.277-.131 0-.24-.091-.27-.213l-.007-.064v-1c0-.152.124-.276.277-.276zm0-3.809c.13 0 .24.091.269.213l.007.064v1c0 .152-.124.276-.276.276-.131 0-.24-.09-.27-.213l-.007-.063v-1c0-.153.124-.277.277-.277z"/>
                    <circle cx="2.458" cy="2.458" r="2.458"/>
                </g>
                <g fill="#2B2B2B" transform="translate(-15 -2191) translate(15 2191) matrix(-1 0 0 1 252.938 133.72)">
                    <path fill-rule="nonzero" d="M3.733 14.454l-3.382 7-3.382-7h6.764zM.351 11.67c.13 0 .24.091.27.213l.007.064v1c0 .152-.124.276-.277.276-.13 0-.24-.09-.27-.213l-.006-.063v-1c0-.153.123-.277.276-.277zm0-3.808c.13 0 .24.09.27.213l.007.063v1c0 .153-.124.277-.277.277-.13 0-.24-.091-.27-.213l-.006-.064v-1c0-.153.123-.276.276-.276zm0-3.809c.13 0 .24.091.27.213l.007.064v1c0 .152-.124.276-.277.276-.13 0-.24-.091-.27-.213L.076 5.33v-1c0-.153.123-.277.276-.277zm40.023-1.872c.153 0 .276.124.276.277 0 .13-.09.24-.213.269l-.063.007h-1c-.153 0-.276-.124-.276-.276 0-.131.09-.24.213-.27l.063-.007h1zm-3.809 0c.153 0 .277.124.277.277 0 .13-.091.24-.213.269l-.064.007h-1c-.152 0-.276-.124-.276-.276 0-.131.09-.24.213-.27l.063-.007h1zm-3.808 0c.152 0 .276.124.276.277 0 .13-.09.24-.213.269l-.063.007h-1c-.153 0-.277-.124-.277-.276 0-.131.091-.24.213-.27l.064-.007h1zm-3.809 0c.153 0 .277.124.277.277 0 .13-.091.24-.213.269l-.064.007h-1c-.153 0-.276-.124-.276-.276 0-.131.09-.24.213-.27l.063-.007h1zm-3.808 0c.152 0 .276.124.276.277 0 .13-.091.24-.213.269l-.063.007h-1c-.153 0-.277-.124-.277-.276 0-.131.091-.24.213-.27l.064-.007h1zm-3.81 0c.154 0 .277.124.277.277 0 .13-.09.24-.213.269l-.063.007h-1c-.153 0-.277-.124-.277-.276 0-.131.091-.24.214-.27l.063-.007h1zm-3.808 0c.153 0 .277.124.277.277 0 .13-.091.24-.213.269l-.064.007h-1c-.152 0-.276-.124-.276-.276 0-.131.09-.24.213-.27l.063-.007h1zm-3.808 0c.152 0 .276.124.276.277 0 .13-.09.24-.213.269l-.063.007h-1c-.153 0-.277-.124-.277-.276 0-.131.091-.24.213-.27l.064-.007h1zm-3.809 0c.153 0 .276.124.276.277 0 .13-.09.24-.213.269l-.063.007h-1c-.153 0-.276-.124-.276-.276 0-.131.09-.24.213-.27l.063-.007h1zm-3.809 0c.153 0 .277.124.277.277 0 .13-.091.24-.213.269l-.064.007h-1c-.152 0-.276-.124-.276-.276 0-.131.09-.24.213-.27l.063-.007h1zm-3.808 0c.152 0 .276.124.276.277 0 .13-.09.24-.213.269l-.063.007h-1c-.153 0-.277-.124-.277-.276 0-.131.091-.24.213-.27l.064-.007h1z"/>
                    <circle cx="40.374" cy="2.458" r="2.458"/>
                </g>
                <g fill="#2B2B2B" transform="translate(-15 -2191) translate(15 2191) matrix(-1 0 0 1 275.192 95.493)">
                    <path fill-rule="nonzero" d="M.351 14.265c.122 0 .225.079.262.188h3.12l-3.382 7-3.382-7h3.12c.037-.11.14-.188.262-.188zm0-3.808c.13 0 .24.09.27.213l.007.063v1c0 .153-.124.277-.277.277-.13 0-.24-.091-.27-.213l-.006-.064v-1c0-.152.123-.276.276-.276zm0-3.809c.13 0 .24.091.27.213l.007.064v1c0 .152-.124.276-.277.276-.13 0-.24-.09-.27-.213l-.006-.063v-1c0-.153.123-.277.276-.277zm0-3.809c.13 0 .24.091.27.214l.007.063v1c0 .153-.124.276-.277.276-.13 0-.24-.09-.27-.213l-.006-.063v-1c0-.153.123-.277.276-.277zm64.088-.658c.153 0 .277.124.277.277 0 .13-.091.24-.213.269l-.064.007h-1c-.152 0-.276-.124-.276-.276 0-.131.09-.24.213-.27l.063-.007h1zm-3.808 0c.152 0 .276.124.276.277 0 .13-.09.24-.213.269l-.063.007h-1c-.153 0-.277-.124-.277-.276 0-.131.091-.24.213-.27l.064-.007h1zm-3.809 0c.153 0 .277.124.277.277 0 .13-.091.24-.213.269l-.064.007h-1c-.153 0-.276-.124-.276-.276 0-.131.09-.24.213-.27l.063-.007h1zm-3.809 0c.153 0 .277.124.277.277 0 .13-.091.24-.213.269l-.064.007h-1c-.152 0-.276-.124-.276-.276 0-.131.091-.24.213-.27l.063-.007h1zm-3.808 0c.153 0 .276.124.276.277 0 .13-.09.24-.213.269l-.063.007h-1c-.153 0-.277-.124-.277-.276 0-.131.091-.24.213-.27l.064-.007h1zm-3.809 0c.153 0 .277.124.277.277 0 .13-.091.24-.213.269l-.064.007h-1c-.152 0-.276-.124-.276-.276 0-.131.09-.24.213-.27l.063-.007h1zm-3.808 0c.152 0 .276.124.276.277 0 .13-.09.24-.213.269l-.063.007h-1c-.153 0-.277-.124-.277-.276 0-.131.091-.24.213-.27l.064-.007h1zm-3.809 0c.153 0 .276.124.276.277 0 .13-.09.24-.213.269l-.063.007h-1c-.153 0-.276-.124-.276-.276 0-.131.09-.24.213-.27l.063-.007h1zm-3.809 0c.153 0 .277.124.277.277 0 .13-.091.24-.213.269l-.064.007h-1c-.152 0-.276-.124-.276-.276 0-.131.09-.24.213-.27l.063-.007h1zm-3.808 0c.152 0 .276.124.276.277 0 .13-.09.24-.213.269l-.063.007h-1c-.153 0-.277-.124-.277-.276 0-.131.091-.24.213-.27l.064-.007h1zm-3.809 0c.153 0 .277.124.277.277 0 .13-.091.24-.214.269l-.063.007h-1c-.153 0-.276-.124-.276-.276 0-.131.09-.24.213-.27l.063-.007h1zm-3.809 0c.153 0 .277.124.277.277 0 .13-.091.24-.213.269l-.064.007h-1c-.152 0-.276-.124-.276-.276 0-.131.091-.24.213-.27l.063-.007h1zm-3.808 0c.153 0 .276.124.276.277 0 .13-.09.24-.213.269l-.063.007h-1c-.153 0-.277-.124-.277-.276 0-.131.091-.24.213-.27l.064-.007h1zm-3.809 0c.153 0 .277.124.277.277 0 .13-.091.24-.213.269l-.064.007h-1c-.152 0-.276-.124-.276-.276 0-.131.09-.24.213-.27l.063-.007h1zm-3.808 0c.152 0 .276.124.276.277 0 .13-.09.24-.213.269l-.063.007h-1c-.153 0-.277-.124-.277-.276 0-.131.091-.24.213-.27l.064-.007h1zm-3.809 0c.153 0 .276.124.276.277 0 .13-.09.24-.213.269l-.063.007h-1c-.153 0-.276-.124-.276-.276 0-.131.09-.24.213-.27l.063-.007h1zm-3.809 0c.153 0 .277.124.277.277 0 .13-.091.24-.213.269l-.064.007h-1c-.152 0-.276-.124-.276-.276 0-.131.09-.24.213-.27l.063-.007h1z"/>
                    <circle cx="64.439" cy="2.458" r="2.458"/>
                </g>
                <g fill="#2B2B2B" transform="translate(-15 -2191) translate(15 2191) rotate(180 120.744 42.684)">
                    <path fill-rule="nonzero" d="M.351 13.479c.13 0 .24.09.27.213l.007.063-.001.698h3.106l-3.382 7-3.382-7H.074v-.698c0-.152.124-.276.277-.276zm0-3.809c.13 0 .24.091.27.213l.007.064v1c0 .152-.124.276-.277.276-.13 0-.24-.09-.27-.213l-.006-.063v-1c0-.153.123-.277.276-.277zm0-3.808c.13 0 .24.09.27.213l.007.063v1c0 .153-.124.277-.277.277-.13 0-.24-.091-.27-.213l-.006-.064v-1c0-.153.123-.276.276-.276zm.128-3.68c.153 0 .277.123.277.276 0 .087-.04.165-.104.215l-.025.015v.642c0 .13-.09.24-.213.269l-.063.007c-.13 0-.24-.091-.27-.213L.076 3.33V2.18h.404zm34.278 0c.152 0 .276.123.276.276 0 .13-.09.24-.213.269l-.063.007h-1c-.153 0-.277-.124-.277-.276 0-.131.091-.24.213-.27l.064-.007h1zm-3.809 0c.153 0 .277.123.277.276 0 .13-.091.24-.213.269l-.064.007h-1c-.153 0-.276-.124-.276-.276 0-.131.09-.24.213-.27l.063-.007h1zm-3.808 0c.152 0 .276.123.276.276 0 .13-.091.24-.213.269l-.063.007h-1c-.153 0-.277-.124-.277-.276 0-.131.091-.24.213-.27l.064-.007h1zm-3.81 0c.154 0 .277.123.277.276 0 .13-.09.24-.213.269l-.063.007h-1c-.153 0-.277-.124-.277-.276 0-.131.091-.24.214-.27l.063-.007h1zm-3.808 0c.153 0 .277.123.277.276 0 .13-.091.24-.213.269l-.064.007h-1c-.152 0-.276-.124-.276-.276 0-.131.09-.24.213-.27l.063-.007h1zm-3.808 0c.152 0 .276.123.276.276 0 .13-.09.24-.213.269l-.063.007h-1c-.153 0-.277-.124-.277-.276 0-.131.091-.24.213-.27l.064-.007h1zm-3.809 0c.153 0 .276.123.276.276 0 .13-.09.24-.213.269l-.063.007h-1c-.153 0-.276-.124-.276-.276 0-.131.09-.24.213-.27l.063-.007h1zm-3.809 0c.153 0 .277.123.277.276 0 .13-.091.24-.213.269l-.064.007h-1c-.152 0-.276-.124-.276-.276 0-.131.09-.24.213-.27l.063-.007h1zm-3.808 0c.152 0 .276.123.276.276 0 .13-.09.24-.213.269l-.063.007h-1c-.153 0-.277-.124-.277-.276 0-.131.091-.24.213-.27l.064-.007h1z"/>
                    <circle cx="34.757" cy="2.458" r="2.458"/>
                </g>
                <g fill="#2B2B2B" transform="translate(-15 -2191) translate(15 2191) rotate(180 107.559 34.757)">
                    <path fill-rule="nonzero" d="M3.733 14.454l-3.382 7-3.382-7h6.764zM.351 11.178c.13 0 .24.091.27.213l.007.064v1c0 .152-.124.276-.277.276-.13 0-.24-.09-.27-.213l-.006-.063v-1c0-.153.123-.277.276-.277zm0-3.808c.13 0 .24.09.27.213l.007.063v1c0 .153-.124.276-.277.276-.13 0-.24-.09-.27-.213l-.006-.063v-1c0-.153.123-.276.276-.276zm0-3.81c.13 0 .24.092.27.214l.007.063v1c0 .153-.124.277-.277.277-.13 0-.24-.091-.27-.213l-.006-.064v-1c0-.152.123-.276.276-.276zM33.25 2.182c.153 0 .276.124.276.277 0 .13-.09.24-.213.269l-.063.007h-1c-.153 0-.277-.124-.277-.276 0-.131.091-.24.214-.27l.063-.007h1zm-3.809 0c.153 0 .277.124.277.277 0 .13-.091.24-.213.269l-.064.007h-1c-.152 0-.276-.124-.276-.276 0-.131.09-.24.213-.27l.063-.007h1zm-3.808 0c.152 0 .276.124.276.277 0 .13-.09.24-.213.269l-.063.007h-1c-.153 0-.277-.124-.277-.276 0-.131.091-.24.213-.27l.064-.007h1zm-3.809 0c.153 0 .276.124.276.277 0 .13-.09.24-.213.269l-.063.007h-1c-.153 0-.276-.124-.276-.276 0-.131.09-.24.213-.27l.063-.007h1zm-3.809 0c.153 0 .277.124.277.277 0 .13-.091.24-.213.269l-.064.007h-1c-.152 0-.276-.124-.276-.276 0-.131.09-.24.213-.27l.063-.007h1zm-3.808 0c.152 0 .276.124.276.277 0 .13-.09.24-.213.269l-.063.007h-1c-.153 0-.277-.124-.277-.276 0-.131.091-.24.213-.27l.064-.007h1zm-3.809 0c.153 0 .277.124.277.277 0 .13-.091.24-.213.269l-.064.007h-1c-.153 0-.276-.124-.276-.276 0-.131.09-.24.213-.27l.063-.007h1zm-3.808 0c.152 0 .276.124.276.277 0 .13-.091.24-.213.269l-.063.007h-1c-.153 0-.277-.124-.277-.276 0-.131.091-.24.213-.27l.064-.007h1zm-3.81 0c.154 0 .277.124.277.277 0 .13-.09.24-.213.269l-.063.007h-1c-.153 0-.277-.124-.277-.276 0-.131.091-.24.214-.27l.063-.007h1z"/>
                    <circle cx="33.249" cy="2.458" r="2.458"/>
                </g>
                <g fill="#2B2B2B" transform="translate(-15 -2191) translate(15 2191) matrix(-1 0 0 1 162.463 165.499)">
                    <path fill-rule="nonzero" d="M6.983 46.424l-.037 3.111c.019-.003.038-.005.058-.005l1 .012c.152.002.275.127.273.28-.002.13-.094.239-.216.266l-.064.007-1-.012-.058-.008-.037 3.113-6.959-3.466 7.04-3.298zm11.446 3.243l1 .012c.153.002.275.127.273.28-.002.13-.094.24-.216.266l-.064.007-1-.012c-.152-.002-.275-.127-.273-.28.002-.153.127-.275.28-.273zm-3.808-.046l1 .012c.152.002.274.127.273.28-.002.13-.094.24-.217.267l-.063.006-1-.012c-.153-.002-.275-.127-.273-.28.002-.152.127-.275.28-.273zm-3.809-.045l1 .012c.153.001.275.127.273.28-.001.13-.094.239-.216.266l-.063.006-1-.012c-.153-.001-.275-.127-.274-.28.002-.152.128-.274.28-.272zm10.604-1.691c.13 0 .24.09.269.213l.007.063v1c0 .153-.124.277-.276.277-.131 0-.24-.091-.27-.214l-.007-.063v-1c0-.153.124-.276.277-.276zm0-3.809c.13 0 .24.09.269.213l.007.063v1c0 .153-.124.277-.276.277-.131 0-.24-.091-.27-.213l-.007-.064v-1c0-.152.124-.276.277-.276zm0-3.809c.13 0 .24.091.269.213l.007.064v1c0 .153-.124.276-.276.276-.131 0-.24-.09-.27-.213l-.007-.063v-1c0-.153.124-.277.277-.277zm0-3.808c.13 0 .24.09.269.213l.007.063v1c0 .153-.124.277-.276.277-.131 0-.24-.091-.27-.213l-.007-.064v-1c0-.152.124-.276.277-.276zm0-3.809c.13 0 .24.091.269.213l.007.064v1c0 .152-.124.276-.276.276-.131 0-.24-.09-.27-.213l-.007-.063v-1c0-.153.124-.277.277-.277zm0-3.808c.13 0 .24.09.269.213l.007.063v1c0 .153-.124.276-.276.276-.131 0-.24-.09-.27-.213l-.007-.063v-1c0-.153.124-.276.277-.276zm0-3.81c.13 0 .24.092.269.214l.007.063v1c0 .153-.124.277-.276.277-.131 0-.24-.091-.27-.213l-.007-.064v-1c0-.152.124-.276.277-.276zm0-3.808c.13 0 .24.091.269.213l.007.064v1c0 .152-.124.276-.276.276-.131 0-.24-.09-.27-.213l-.007-.063v-1c0-.153.124-.277.277-.277zm0-3.808c.13 0 .24.09.269.213l.007.063v1c0 .153-.124.277-.276.277-.131 0-.24-.091-.27-.214l-.007-.063v-1c0-.153.124-.276.277-.276zm0-3.809c.13 0 .24.09.269.213l.007.063v1c0 .153-.124.277-.276.277-.131 0-.24-.091-.27-.213l-.007-.064v-1c0-.152.124-.276.277-.276zm0-3.809c.13 0 .24.091.269.213l.007.064v1c0 .152-.124.276-.276.276-.131 0-.24-.09-.27-.213l-.007-.063v-1c0-.153.124-.277.277-.277zm0-3.808c.13 0 .24.09.269.213l.007.063v1c0 .153-.124.277-.276.277-.131 0-.24-.091-.27-.213l-.007-.064v-1c0-.152.124-.276.277-.276zm0-3.809c.13 0 .24.091.269.213l.007.064v1c0 .152-.124.276-.276.276-.131 0-.24-.09-.27-.213l-.007-.063v-1c0-.153.124-.277.277-.277z"/>
                    <circle cx="21.416" cy="2.458" r="2.458"/>
                </g>
                <text fill="#2B2B2B" font-family="ModernEra-Bold, Modern Era" font-size="10.532" font-weight="bold" transform="translate(-15 -2191) translate(15 2191)">
                    <tspan x="172.348" y="214.443">19%</tspan>
                </text>
                <text fill="#2B2B2B" font-family="ModernEra-Bold, Modern Era" font-size="10.532" font-weight="bold" transform="translate(-15 -2191) translate(15 2191)">
                    <tspan x="23.825" y="176.411">17.5%</tspan>
                </text>
                <text fill="#2B2B2B" font-family="ModernEra-Bold, Modern Era" font-size="10.532" font-weight="bold" transform="translate(-15 -2191) translate(15 2191)">
                    <tspan x="1.321" y="130.667">10%</tspan>
                </text>
                <text fill="#2B2B2B" font-family="ModernEra-Bold, Modern Era" font-size="10.532" font-weight="bold" transform="translate(-15 -2191) translate(15 2191)">
                    <tspan x="35.821" y="33.068">7.5%</tspan>
                </text>
                <text fill="#2B2B2B" font-family="ModernEra-Bold, Modern Era" font-size="10.532" font-weight="bold" transform="translate(-15 -2191) translate(15 2191)">
                    <tspan x="76.198" y="10">6.2%</tspan>
                </text>
                <text fill="#2B2B2B" font-family="ModernEra-Bold, Modern Era" font-size="10.532" font-weight="bold" transform="translate(-15 -2191) translate(15 2191)">
                    <tspan x="179.01" y="19.128">5%</tspan>
                </text>
            </g>
        </g>
    </g>
</svg>
