<svg xmlns="http://www.w3.org/2000/svg" width="1025" height="512" viewBox="0 0 1025 512">
    <g fill="none" fill-rule="evenodd">
        <g>
            <g>
                <g transform="translate(-208 -2371) translate(208 2371) translate(648)">
                    <text fill="#2B2B2B" font-family="ModernEra-Medium, Modern Era" font-size="17" font-weight="400">
                        <tspan x="33" y="67.136">Founders </tspan> <tspan x="112.237" y="67.289" font-family="ModernEra-Regular, Modern Era" font-weight="normal">—</tspan> <tspan x="129.696" y="67.136"> </tspan> <tspan x="133.249" y="67" font-family="ModernEra-Bold, Modern Era" font-weight="bold">20.00%</tspan>
                    </text>
                    <text fill="#2B2B2B" font-family="ModernEra-Bold, Modern Era" font-size="20.955" font-weight="bold">
                        <tspan x=".477" y="20">Tier 1</tspan>
                    </text>
                    <text fill="#2B2B2B" font-family="ModernEra-Bold, Modern Era" font-size="20.955" font-weight="bold">
                        <tspan x="0" y="186">Tier 2</tspan>
                    </text>
                    <g transform="translate(1 290)">
                        <text fill="#2B2B2B" font-family="ModernEra-Medium, Modern Era" font-size="17" font-weight="400">
                            <tspan x="32" y="16.136">Promotion </tspan> <tspan x="124.004" y="16.289" font-family="ModernEra-Regular, Modern Era" font-weight="normal">—</tspan> <tspan x="141.463" y="16.136"> </tspan> <tspan x="145.016" y="16" font-family="ModernEra-Bold, Modern Era" font-weight="bold">19.00%</tspan>
                        </text>
                        <rect width="16" height="16" fill="#EE5F30" stroke="#231F20" stroke-width="1.5" rx="5"/>
                    </g>
                    <g transform="translate(1 217)">
                        <text fill="#2B2B2B" font-family="ModernEra-Medium, Modern Era" font-size="17" font-weight="400">
                            <tspan x="32" y="16.136">Promotion Vested 2 years </tspan> <tspan x="241.151" y="16.289" font-family="ModernEra-Regular, Modern Era" font-weight="normal">—</tspan> <tspan x="258.61" y="16.136"> </tspan> <tspan x="262.163" y="16" font-family="ModernEra-Bold, Modern Era" font-weight="bold">17.50%</tspan>
                        </text>
                        <rect width="16" height="16" fill="#F49778" stroke="#2B2B2B" stroke-width="1.5" rx="5"/>
                    </g>
                    <g transform="translate(1 92)">
                        <text fill="#2B2B2B" font-family="ModernEra-Medium, Modern Era" font-size="17" font-weight="400">
                            <tspan x="32" y="16.136">Developers </tspan> <tspan x="126.571" y="16.289" font-family="ModernEra-Regular, Modern Era" font-weight="normal">—</tspan> <tspan x="144.03" y="16.136"> </tspan> <tspan x="147.583" y="16" font-family="ModernEra-Bold, Modern Era" font-weight="bold">10.00%</tspan>
                        </text>
                        <rect width="16" height="16" fill="#FABEAA" stroke="#2B2B2B" stroke-width="1.5" rx="5"/>
                    </g>
                    <g transform="translate(2 331)">
                        <text fill="#2B2B2B" font-family="ModernEra-Medium, Modern Era" font-size="17" font-weight="400">
                            <tspan x="32" y="16.136">Legal </tspan> <tspan x="79.26" y="16.289" font-family="ModernEra-Regular, Modern Era" font-weight="normal">—</tspan> <tspan x="96.719" y="16.136"> </tspan> <tspan x="100.272" y="16" font-family="ModernEra-Bold, Modern Era" font-weight="bold">7.50%</tspan>
                        </text>
                        <rect width="16" height="16" fill="#FFE7BC" stroke="#231F20" stroke-width="1.5" rx="5"/>
                    </g>
                    <g transform="translate(1 133)">
                        <text fill="#2B2B2B" font-family="ModernEra-Medium, Modern Era" font-size="17" font-weight="400">
                            <tspan x="32" y="16.136">Promotion Vested 3 years </tspan> <tspan x="241.491" y="16.289" font-family="ModernEra-Regular, Modern Era" font-weight="normal">—</tspan> <tspan x="258.95" y="16.136"> </tspan> <tspan x="262.503" y="16" font-family="ModernEra-Bold, Modern Era" font-weight="bold">6.20%</tspan>
                        </text>
                        <rect width="16" height="16" fill="#FFD07B" stroke="#231F20" stroke-width="1.5" rx="5"/>
                    </g>
                    <text fill="#2B2B2B" font-family="ModernEra-Medium, Modern Era" font-size="17" font-weight="400">
                        <tspan x="34" y="388.136">Security- Audits and Bug Bounties </tspan> <tspan x="306.374" y="388.289" font-family="ModernEra-Regular, Modern Era" font-weight="normal">—</tspan> <tspan x="323.833" y="388.136"> </tspan> <tspan x="327.386" y="388" font-family="ModernEra-Bold, Modern Era" font-weight="bold">5.00%</tspan>
                    </text>
                    <text fill="#2B2B2B" font-family="ModernEra-Medium, Modern Era" font-size="17" font-weight="400">
                        <tspan x="34" y="470.136">Operational buffer </tspan> <tspan x="184.501" y="470.289" font-family="ModernEra-Regular, Modern Era" font-weight="normal">—</tspan> <tspan x="201.96" y="470.136"> </tspan> <tspan x="205.513" y="470" font-family="ModernEra-Bold, Modern Era" font-weight="bold">3.00%</tspan>
                    </text>
                    <text fill="#2B2B2B" font-family="ModernEra-Medium, Modern Era" font-size="17" font-weight="400">
                        <tspan x="34" y="429.136">Market </tspan> <tspan x="94.622" y="429.289" font-family="ModernEra-Regular, Modern Era" font-weight="normal">—</tspan> <tspan x="112.081" y="429.136"> </tspan> <tspan x="115.634" y="429" font-family="ModernEra-Bold, Modern Era" font-weight="bold">9.00%</tspan>
                    </text>
                    <text fill="#2B2B2B" font-family="ModernEra-Medium, Modern Era" font-size="17" font-weight="400">
                        <tspan x="34" y="511.136">Ecosystem </tspan> <tspan x="125.528" y="511.289" font-family="ModernEra-Regular, Modern Era" font-weight="normal">—</tspan> <tspan x="142.987" y="511.136"> </tspan> <tspan x="146.54" y="511" font-family="ModernEra-Bold, Modern Era" font-weight="bold">2.80%</tspan>
                    </text>
                    <rect width="16" height="16" y="51" fill="#E24510" stroke="#2B2B2B" stroke-width="1.5" rx="5"/>
                    <rect width="16" height="16" x="2" y="372" fill="#FFBC41" stroke="#231F20" stroke-width="1.5" rx="5"/>
                    <rect width="16" height="16" x="2" y="454" fill="#FF931D" stroke="#231F20" stroke-width="1.5" rx="5"/>
                    <rect width="16" height="16" x="2" y="413" fill="#FFAA0E" stroke="#231F20" stroke-width="1.5" rx="5"/>
                    <rect width="16" height="16" x="2" y="495" fill="#F46A28" stroke="#231F20" stroke-width="1.5" rx="5"/>
                    <path stroke="#2B2B2B" stroke-linecap="square" d="M1 262L376.5 260.5"/>
                </g>
                <g>
                    <text fill="#2B2B2B" font-family="ModernEra-Bold, Modern Era" font-size="20.955" font-weight="bold" transform="translate(-208 -2371) translate(208 2371) translate(0 32)">
                        <tspan x="486.618" y="339.134">20%</tspan>
                    </text>
                    <text fill="#2B2B2B" font-family="ModernEra-Bold, Modern Era" font-size="20.955" font-weight="bold" transform="translate(-208 -2371) translate(208 2371) translate(0 32)">
                        <tspan x="527.41" y="263.078">2.8%</tspan>
                    </text>
                    <text fill="#2B2B2B" font-family="ModernEra-Bold, Modern Era" font-size="20.955" font-weight="bold" transform="translate(-208 -2371) translate(208 2371) translate(0 32)">
                        <tspan x="410.839" y="67.498">9%</tspan>
                    </text>
                    <text fill="#2B2B2B" font-family="ModernEra-Bold, Modern Era" font-size="20.955" font-weight="bold" transform="translate(-208 -2371) translate(208 2371) translate(0 32)">
                        <tspan x="464.37" y="99.041">3%</tspan>
                    </text>
                    <g>
                        <path fill="#2B2B2B" d="M351.907 124.232v26.244C351.907 240.213 273.38 300 177 300 80.62 300 2.907 240.14 2.907 150.476v-26.244c0 4.386.192 8.77.572 13.131C10.66 220.873 83.668 249.84 175.29 249.84c91.624 0 168.863-28.965 176.044-112.476.38-4.362.572-8.745.572-13.13z" transform="translate(-208 -2371) translate(208 2371) translate(0 32) translate(97.986 92.202)"/>
                        <g>
                            <path fill="#FFF" d="M181.032 134.81L53.948 57.458c16.988-16.4 39.284-29.42 64.905-37.551l62.18 114.903z" transform="translate(-208 -2371) translate(208 2371) translate(0 32) translate(97.986 92.202)"/>
                            <path fill="#FFE7BC" d="M181.032 134.81L52.94 58.082c16.988-16.4 40.291-30.044 65.912-38.175l62.18 114.903z" transform="translate(-208 -2371) translate(208 2371) translate(0 32) translate(97.986 92.202)"/>
                            <path fill="#FFF" d="M181.032 10.477V134.81l-62.18-114.903c19.111-6.077 40.066-9.43 62.055-9.43h.125zM232.372 16.862l-51.34 117.949V10.478c17.952.014 35.205 2.249 51.34 6.384" transform="translate(-208 -2371) translate(208 2371) translate(0 32) translate(97.986 92.202)"/>
                            <path fill="#FFBC41" d="M232.372 16.862l-51.34 117.949V10.478c17.952.014 35.205 2.249 51.34 6.384z" transform="translate(-208 -2371) translate(208 2371) translate(0 32) translate(97.986 92.202)"/>
                            <path fill="#FFD07B" d="M181.032.698V134.81L113.977 10.87C134.587 4.315 157.185.698 180.897.698h.137z" transform="translate(-208 -2371) translate(208 2371) translate(0 32) translate(97.986 92.202)"/>
                            <text fill="#2B2B2B" font-family="ModernEra-Medium, Modern Era" font-size="17" font-weight="400" transform="translate(-208 -2371) translate(208 2371) translate(0 32) translate(97.986 92.202)">
                                <tspan x="152.014" y="59.798">T1</tspan>
                            </text>
                            <path fill="#FFF" d="M307.419 57.026L181.032 134.81l51.34-117.949c29.841 7.642 55.797 21.751 75.047 40.164" transform="translate(-208 -2371) translate(208 2371) translate(0 32) translate(97.986 92.202)"/>
                            <path fill="#FFAA0E" d="M307.419 57.026L181.032 134.81l51.34-117.949c29.841 7.642 55.797 21.751 75.047 40.164z" transform="translate(-208 -2371) translate(208 2371) translate(0 32) translate(97.986 92.202)"/>
                            <path fill="#FFF" d="M330.288 86.447L181.032 134.81 307.42 57.026c9.304 8.885 17.03 18.775 22.869 29.42" transform="translate(-208 -2371) translate(208 2371) translate(0 32) translate(97.986 92.202)"/>
                            <path fill="#FF931D" d="M330.632 86.25l-149.6 48.56 126.679-78.1c9.325 8.922 17.068 18.853 22.921 29.54z" transform="translate(-208 -2371) translate(208 2371) translate(0 32) translate(97.986 92.202)"/>
                            <path fill="#F46A28" d="M330.288 86.446c4.303 7.838 7.585 16.094 9.696 24.658L181.033 134.81l149.255-48.365z" transform="translate(-208 -2371) translate(208 2371) translate(0 32) translate(97.986 92.202)"/>
                            <path fill="#EE5F30" d="M274.798 241.41c-13.084 7.276-46.843 25.388-94.148 25.388-47.304 0-81.387-17.15-93.287-23.867l94.203-111.73 93.232 110.21z" transform="translate(-208 -2371) translate(208 2371) translate(0 32) translate(97.986 92.202)"/>
                            <path stroke="#979797" stroke-linecap="square" stroke-width="1.397" d="M19.106 139.002L18.98 139.002" transform="translate(-208 -2371) translate(208 2371) translate(0 32) translate(97.986 92.202)"/>
                            <path fill="#E24510" d="M353.733 134.82c0 3.745-.188 7.474-.548 11.187-4.383 45.296-30.247 85.215-71.433 108.672L181.714 134.81l169.077-25.907c1.933 8.395 2.942 17.054 2.942 25.917z" transform="translate(-208 -2371) translate(208 2371) translate(0 32) translate(97.986 92.202)"/>
                            <text fill="#2B2B2B" font-family="ModernEra-Medium, Modern Era" font-size="17" font-weight="400" transform="translate(-208 -2371) translate(208 2371) translate(0 32) translate(97.986 92.202)">
                                <tspan x="272.014" y="176.798">T1</tspan>
                            </text>
                            <path fill="#F49778" d="M181.455 134.81L80.278 254.68C32.182 232.12 5.655 190.958.908 145.48c-.203-1.989-.36-3.98-.453-5.97l181-4.7z" transform="translate(-208 -2371) translate(208 2371) translate(0 32) translate(97.986 92.202)"/>
                            <text fill="#2B2B2B" font-family="ModernEra-Medium, Modern Era" font-size="17" font-weight="400" transform="translate(-208 -2371) translate(208 2371) translate(0 32) translate(97.986 92.202)">
                                <tspan x="76.014" y="184.798">T2</tspan>
                            </text>
                            <path fill="#FABEAA" d="M39.378 49.698l142.337 85.564-181.36 4.636c-.094-1.73-.14-3.462-.14-5.192 0-32.112 14.645-61.658 39.163-85.008z" transform="translate(-208 -2371) translate(208 2371) translate(0 32) translate(97.986 92.202)"/>
                            <text fill="#2B2B2B" font-family="ModernEra-Medium, Modern Era" font-size="17" font-weight="400" transform="translate(-208 -2371) translate(208 2371) translate(0 32) translate(97.986 92.202)">
                                <tspan x="61.014" y="116.798">T1</tspan>
                            </text>
                        </g>
                    </g>
                    <g fill="#2B2B2B" transform="translate(-208 -2371) translate(208 2371) translate(0 32) translate(70.945 278.003)">
                        <path fill-rule="nonzero" d="M.699 30.882c.273 0 .5.2.542.461l.007.09v1.032h4.2l-4.75 10-4.75-10h4.2v-1.033c0-.303.247-.55.55-.55zm0-6.985c.273 0 .5.2.542.461l.007.09v1.396c0 .304-.246.55-.55.55-.273 0-.5-.199-.542-.46l-.008-.09v-1.397c0-.303.247-.55.55-.55zm0-6.985c.273 0 .5.2.542.461l.007.09v1.396c0 .304-.246.55-.55.55-.273 0-.5-.199-.542-.46l-.008-.09v-1.397c0-.303.247-.55.55-.55zm0-6.985c.273 0 .5.2.542.461l.007.09v1.396c0 .304-.246.55-.55.55-.273 0-.5-.199-.542-.46l-.008-.09v-1.397c0-.303.247-.55.55-.55zM71.944 4.34c.304 0 .55.246.55.55 0 .273-.199.5-.46.542l-.09.007H70.55c-.304 0-.55-.246-.55-.55 0-.273.199-.5.46-.542l.09-.008h1.396zm-6.984 0c.303 0 .55.246.55.55 0 .273-.2.5-.461.542l-.09.007h-1.396c-.304 0-.55-.246-.55-.55 0-.273.199-.5.46-.542l.09-.008h1.397zm-6.985 0c.303 0 .55.246.55.55 0 .273-.2.5-.461.542l-.09.007H56.58c-.304 0-.55-.246-.55-.55 0-.273.199-.5.46-.542l.09-.008h1.397zm-6.985 0c.303 0 .55.246.55.55 0 .273-.2.5-.461.542l-.09.007h-1.396c-.304 0-.55-.246-.55-.55 0-.273.199-.5.46-.542l.09-.008h1.397zm-6.985 0c.303 0 .55.246.55.55 0 .273-.2.5-.461.542l-.09.007H42.61c-.304 0-.55-.246-.55-.55 0-.273.199-.5.46-.542l.09-.008h1.397zm-6.985 0c.303 0 .55.246.55.55 0 .273-.2.5-.461.542l-.09.007h-1.396c-.304 0-.55-.246-.55-.55 0-.273.199-.5.46-.542l.09-.008h1.397zm-6.985 0c.303 0 .55.246.55.55 0 .273-.2.5-.461.542l-.09.007H28.64c-.304 0-.55-.246-.55-.55 0-.273.199-.5.46-.542l.09-.008h1.397zm-6.985 0c.303 0 .55.246.55.55 0 .273-.2.5-.461.542l-.09.007h-1.396c-.304 0-.55-.246-.55-.55 0-.273.199-.5.46-.542l.09-.008h1.397zm-6.985 0c.303 0 .55.246.55.55 0 .273-.2.5-.461.542l-.09.007H14.67c-.304 0-.55-.246-.55-.55 0-.273.199-.5.46-.542l.09-.008h1.397zm-6.985 0c.303 0 .55.246.55.55 0 .273-.2.5-.461.542l-.09.007H7.685c-.304 0-.55-.246-.55-.55 0-.273.199-.5.46-.542l.09-.008H9.08zm-6.985 0c.303 0 .55.246.55.55 0 .273-.2.5-.461.542l-.09.007H.7c-.304 0-.55-.246-.55-.55 0-.273.199-.5.46-.542l.09-.008h1.397z"/>
                        <circle cx="71.945" cy="4.889" r="4.889"/>
                    </g>
                    <g fill="#2B2B2B" transform="translate(-208 -2371) translate(208 2371) translate(0 32) translate(18.86 186.992)">
                        <path fill-rule="nonzero" d="M5.449 32.466l-4.75 10-4.75-10h9.5zm-4.75-4.378c.273 0 .5.2.542.461l.007.09v1.396c0 .304-.246.55-.55.55-.273 0-.5-.199-.542-.46l-.008-.09v-1.397c0-.303.247-.55.55-.55zm0-6.985c.273 0 .5.2.542.461l.007.09v1.396c0 .304-.246.55-.55.55-.273 0-.5-.199-.542-.46l-.008-.09v-1.397c0-.303.247-.55.55-.55zm0-6.985c.273 0 .5.2.542.461l.007.09v1.396c0 .304-.246.55-.55.55-.273 0-.5-.199-.542-.46l-.008-.09v-1.397c0-.303.247-.55.55-.55zm0-6.985c.273 0 .5.2.542.461l.007.09V9.08c0 .304-.246.55-.55.55-.273 0-.5-.199-.542-.46l-.008-.09V7.683c0-.303.247-.55.55-.55zm101.98-2.793c.304 0 .55.246.55.55 0 .273-.199.5-.46.542l-.09.007h-1.397c-.303 0-.55-.246-.55-.55 0-.273.2-.5.461-.542l.09-.008h1.397zm-6.984 0c.303 0 .55.246.55.55 0 .273-.2.5-.461.542l-.09.007h-1.396c-.304 0-.55-.246-.55-.55 0-.273.199-.5.46-.542l.09-.008h1.397zm-6.985 0c.303 0 .55.246.55.55 0 .273-.2.5-.461.542l-.09.007h-1.396c-.304 0-.55-.246-.55-.55 0-.273.199-.5.46-.542l.09-.008h1.397zm-6.985 0c.303 0 .55.246.55.55 0 .273-.2.5-.461.542l-.09.007h-1.396c-.304 0-.55-.246-.55-.55 0-.273.199-.5.46-.542l.09-.008h1.397zm-6.985 0c.303 0 .55.246.55.55 0 .273-.2.5-.461.542l-.09.007h-1.396c-.304 0-.55-.246-.55-.55 0-.273.199-.5.46-.542l.09-.008h1.397zm-6.985 0c.303 0 .55.246.55.55 0 .273-.2.5-.461.542l-.09.007h-1.396c-.304 0-.55-.246-.55-.55 0-.273.199-.5.46-.542l.09-.008h1.397zm-6.985 0c.303 0 .55.246.55.55 0 .273-.2.5-.461.542l-.09.007h-1.396c-.304 0-.55-.246-.55-.55 0-.273.199-.5.46-.542l.09-.008h1.397zm-6.985 0c.303 0 .55.246.55.55 0 .273-.2.5-.461.542l-.09.007h-1.396c-.304 0-.55-.246-.55-.55 0-.273.199-.5.46-.542l.09-.008h1.397zm-6.985 0c.303 0 .55.246.55.55 0 .273-.2.5-.461.542l-.09.007h-1.396c-.304 0-.55-.246-.55-.55 0-.273.199-.5.46-.542l.09-.008H46.8zm-6.985 0c.303 0 .55.246.55.55 0 .273-.2.5-.461.542l-.09.007h-1.396c-.304 0-.55-.246-.55-.55 0-.273.199-.5.46-.542l.09-.008h1.397zm-6.985 0c.303 0 .55.246.55.55 0 .273-.2.5-.461.542l-.09.007h-1.396c-.304 0-.55-.246-.55-.55 0-.273.199-.5.46-.542l.09-.008h1.397zm-6.985 0c.303 0 .55.246.55.55 0 .273-.2.5-.461.542l-.09.007h-1.396c-.304 0-.55-.246-.55-.55 0-.273.199-.5.46-.542l.09-.008h1.397zm-6.985 0c.303 0 .55.246.55.55 0 .273-.2.5-.461.542l-.09.007h-1.396c-.304 0-.55-.246-.55-.55 0-.273.199-.5.46-.542l.09-.008h1.397zm-6.985 0c.303 0 .55.246.55.55 0 .273-.2.5-.461.542l-.09.007h-1.396c-.304 0-.55-.246-.55-.55 0-.273.199-.5.46-.542l.09-.008h1.397zm-6.985 0c.303 0 .55.246.55.55 0 .273-.2.5-.461.542l-.09.007H3.494c-.304 0-.55-.246-.55-.55 0-.273.199-.5.46-.542l.09-.008H4.89z"/>
                        <circle cx="102.68" cy="4.889" r="4.889"/>
                    </g>
                    <g fill="#2B2B2B" transform="translate(-208 -2371) translate(208 2371) translate(0 32) matrix(1 0 0 -1 91.915 136.7)">
                        <path fill-rule="nonzero" d="M5.449 32.466l-4.75 10-4.75-10h9.5zm-4.75-4.378c.273 0 .5.2.542.461l.007.09v1.396c0 .304-.246.55-.55.55-.273 0-.5-.199-.542-.46l-.008-.09v-1.397c0-.303.247-.55.55-.55zm0-6.985c.273 0 .5.2.542.461l.007.09v1.396c0 .304-.246.55-.55.55-.273 0-.5-.199-.542-.46l-.008-.09v-1.397c0-.303.247-.55.55-.55zm0-6.985c.273 0 .5.2.542.461l.007.09v1.396c0 .304-.246.55-.55.55-.273 0-.5-.199-.542-.46l-.008-.09v-1.397c0-.303.247-.55.55-.55zm0-6.985c.273 0 .5.2.542.461l.007.09V9.08c0 .304-.246.55-.55.55-.273 0-.5-.199-.542-.46l-.008-.09V7.683c0-.303.247-.55.55-.55zm101.98-2.793c.304 0 .55.246.55.55 0 .273-.199.5-.46.542l-.09.007h-1.397c-.303 0-.55-.246-.55-.55 0-.273.2-.5.461-.542l.09-.008h1.397zm-6.984 0c.303 0 .55.246.55.55 0 .273-.2.5-.461.542l-.09.007h-1.396c-.304 0-.55-.246-.55-.55 0-.273.199-.5.46-.542l.09-.008h1.397zm-6.985 0c.303 0 .55.246.55.55 0 .273-.2.5-.461.542l-.09.007h-1.396c-.304 0-.55-.246-.55-.55 0-.273.199-.5.46-.542l.09-.008h1.397zm-6.985 0c.303 0 .55.246.55.55 0 .273-.2.5-.461.542l-.09.007h-1.396c-.304 0-.55-.246-.55-.55 0-.273.199-.5.46-.542l.09-.008h1.397zm-6.985 0c.303 0 .55.246.55.55 0 .273-.2.5-.461.542l-.09.007h-1.396c-.304 0-.55-.246-.55-.55 0-.273.199-.5.46-.542l.09-.008h1.397zm-6.985 0c.303 0 .55.246.55.55 0 .273-.2.5-.461.542l-.09.007h-1.396c-.304 0-.55-.246-.55-.55 0-.273.199-.5.46-.542l.09-.008h1.397zm-6.985 0c.303 0 .55.246.55.55 0 .273-.2.5-.461.542l-.09.007h-1.396c-.304 0-.55-.246-.55-.55 0-.273.199-.5.46-.542l.09-.008h1.397zm-6.985 0c.303 0 .55.246.55.55 0 .273-.2.5-.461.542l-.09.007h-1.396c-.304 0-.55-.246-.55-.55 0-.273.199-.5.46-.542l.09-.008h1.397zm-6.985 0c.303 0 .55.246.55.55 0 .273-.2.5-.461.542l-.09.007h-1.396c-.304 0-.55-.246-.55-.55 0-.273.199-.5.46-.542l.09-.008H46.8zm-6.985 0c.303 0 .55.246.55.55 0 .273-.2.5-.461.542l-.09.007h-1.396c-.304 0-.55-.246-.55-.55 0-.273.199-.5.46-.542l.09-.008h1.397zm-6.985 0c.303 0 .55.246.55.55 0 .273-.2.5-.461.542l-.09.007h-1.396c-.304 0-.55-.246-.55-.55 0-.273.199-.5.46-.542l.09-.008h1.397zm-6.985 0c.303 0 .55.246.55.55 0 .273-.2.5-.461.542l-.09.007h-1.396c-.304 0-.55-.246-.55-.55 0-.273.199-.5.46-.542l.09-.008h1.397zm-6.985 0c.303 0 .55.246.55.55 0 .273-.2.5-.461.542l-.09.007h-1.396c-.304 0-.55-.246-.55-.55 0-.273.199-.5.46-.542l.09-.008h1.397zm-6.985 0c.303 0 .55.246.55.55 0 .273-.2.5-.461.542l-.09.007h-1.396c-.304 0-.55-.246-.55-.55 0-.273.199-.5.46-.542l.09-.008h1.397zm-6.985 0c.303 0 .55.246.55.55 0 .273-.2.5-.461.542l-.09.007H3.494c-.304 0-.55-.246-.55-.55 0-.273.199-.5.46-.542l.09-.008H4.89z"/>
                        <circle cx="102.68" cy="4.889" r="4.889"/>
                    </g>
                    <g fill="#2B2B2B" transform="translate(-208 -2371) translate(208 2371) translate(0 32) matrix(1 0 0 -1 215.454 111.76)">
                        <path fill-rule="nonzero" d="M9.358 89.34l.21 9.497L-.534 94.31l9.892-4.97zm4.484 4.101c.303-.007.555.234.562.538.006.273-.189.504-.449.553l-.089.009-1.397.03c-.303.007-.555-.233-.562-.537-.006-.273.189-.504.45-.553l.088-.01 1.397-.03zm6.983-.155c.304-.007.555.234.562.538.006.273-.188.504-.449.553l-.089.009-1.396.03c-.304.008-.556-.233-.562-.537-.006-.273.188-.504.448-.553l.09-.009 1.396-.03zm6.983-.155c.304-.006.556.234.562.538.006.273-.188.504-.448.553l-.09.01-1.396.03c-.304.007-.555-.234-.562-.538-.006-.273.188-.504.449-.553l.089-.009 1.396-.03zm6.984-.154c.303-.007.555.234.562.537.006.274-.189.505-.449.553l-.089.01-1.397.03c-.303.007-.555-.234-.562-.537-.006-.274.189-.505.449-.553l.089-.01 1.397-.03zm2.228-4.818c.274 0 .5.2.543.461l.008.09v1.396c0 .304-.247.55-.55.55-.274 0-.5-.199-.543-.46l-.008-.09V88.71c0-.303.247-.55.55-.55zm0-6.985c.274 0 .5.2.543.461l.008.09v1.396c0 .304-.247.55-.55.55-.274 0-.5-.199-.543-.46l-.008-.09v-1.397c0-.303.247-.55.55-.55zm0-6.985c.274 0 .5.2.543.461l.008.09v1.396c0 .304-.247.55-.55.55-.274 0-.5-.199-.543-.46l-.008-.09V74.74c0-.303.247-.55.55-.55zm0-6.985c.274 0 .5.2.543.461l.008.09v1.396c0 .304-.247.55-.55.55-.274 0-.5-.199-.543-.46l-.008-.09v-1.397c0-.303.247-.55.55-.55zm0-6.985c.274 0 .5.2.543.461l.008.09v1.396c0 .304-.247.55-.55.55-.274 0-.5-.199-.543-.46l-.008-.09V60.77c0-.303.247-.55.55-.55zm0-6.985c.274 0 .5.2.543.461l.008.09v1.396c0 .304-.247.55-.55.55-.274 0-.5-.199-.543-.46l-.008-.09v-1.397c0-.303.247-.55.55-.55zm0-6.985c.274 0 .5.2.543.461l.008.09v1.396c0 .304-.247.55-.55.55-.274 0-.5-.199-.543-.46l-.008-.09V46.8c0-.303.247-.55.55-.55zm0-6.985c.274 0 .5.2.543.461l.008.09v1.396c0 .304-.247.55-.55.55-.274 0-.5-.199-.543-.46l-.008-.09v-1.397c0-.303.247-.55.55-.55zm0-6.985c.274 0 .5.2.543.461l.008.09v1.396c0 .304-.247.55-.55.55-.274 0-.5-.199-.543-.46l-.008-.09V32.83c0-.303.247-.55.55-.55zm0-6.985c.274 0 .5.2.543.461l.008.09v1.396c0 .304-.247.55-.55.55-.274 0-.5-.199-.543-.46l-.008-.09v-1.397c0-.303.247-.55.55-.55zm0-6.985c.274 0 .5.2.543.461l.008.09v1.396c0 .304-.247.55-.55.55-.274 0-.5-.199-.543-.46l-.008-.09V18.86c0-.303.247-.55.55-.55zm0-6.985c.274 0 .5.2.543.461l.008.09v1.396c0 .304-.247.55-.55.55-.274 0-.5-.199-.543-.46l-.008-.09v-1.397c0-.303.247-.55.55-.55zm0-6.984c.274 0 .5.199.543.46l.008.09v1.396c0 .304-.247.55-.55.55-.274 0-.5-.199-.543-.46l-.008-.09V4.89c0-.304.247-.55.55-.55z"/>
                        <circle cx="37.02" cy="4.889" r="4.889"/>
                    </g>
                    <g fill="#2B2B2B" transform="translate(-208 -2371) translate(208 2371) translate(0 32) matrix(1 0 0 -1 296.48 122.936)">
                        <path fill-rule="nonzero" d="M32.466 82.563l10 4.75-10 4.75v-9.5zm-24.783 4.2c.304 0 .55.246.55.55 0 .273-.199.5-.46.542l-.09.007H6.286c-.303 0-.55-.246-.55-.55 0-.273.2-.5.461-.542l.09-.007h1.396zm6.985 0c.304 0 .55.246.55.55 0 .273-.199.5-.46.542l-.09.007h-1.397c-.303 0-.55-.246-.55-.55 0-.273.2-.5.461-.542l.09-.007h1.396zm6.985 0c.304 0 .55.246.55.55 0 .273-.199.5-.46.542l-.09.007h-1.397c-.303 0-.55-.246-.55-.55 0-.273.2-.5.461-.542l.09-.007h1.396zm6.985 0c.304 0 .55.246.55.55 0 .273-.199.5-.46.542l-.09.007h-1.397c-.303 0-.55-.246-.55-.55 0-.273.2-.5.461-.542l.09-.007h1.396zM4.89 81.174c.273 0 .5.2.542.461l.007.09v1.396c0 .304-.246.55-.55.55-.273 0-.5-.199-.542-.46l-.008-.09v-1.397c0-.303.247-.55.55-.55zm0-6.985c.273 0 .5.2.542.461l.007.09v1.396c0 .304-.246.55-.55.55-.273 0-.5-.199-.542-.46l-.008-.09V74.74c0-.303.247-.55.55-.55zm0-6.985c.273 0 .5.2.542.461l.007.09v1.396c0 .304-.246.55-.55.55-.273 0-.5-.199-.542-.46l-.008-.09v-1.397c0-.303.247-.55.55-.55zm0-6.985c.273 0 .5.2.542.461l.007.09v1.396c0 .304-.246.55-.55.55-.273 0-.5-.199-.542-.46l-.008-.09V60.77c0-.303.247-.55.55-.55zm0-6.985c.273 0 .5.2.542.461l.007.09v1.396c0 .304-.246.55-.55.55-.273 0-.5-.199-.542-.46l-.008-.09v-1.397c0-.303.247-.55.55-.55zm0-6.985c.273 0 .5.2.542.461l.007.09v1.396c0 .304-.246.55-.55.55-.273 0-.5-.199-.542-.46l-.008-.09V46.8c0-.303.247-.55.55-.55zm0-6.985c.273 0 .5.2.542.461l.007.09v1.396c0 .304-.246.55-.55.55-.273 0-.5-.199-.542-.46l-.008-.09v-1.397c0-.303.247-.55.55-.55zm0-6.985c.273 0 .5.2.542.461l.007.09v1.396c0 .304-.246.55-.55.55-.273 0-.5-.199-.542-.46l-.008-.09V32.83c0-.303.247-.55.55-.55zm0-6.985c.273 0 .5.2.542.461l.007.09v1.396c0 .304-.246.55-.55.55-.273 0-.5-.199-.542-.46l-.008-.09v-1.397c0-.303.247-.55.55-.55zm0-6.985c.273 0 .5.2.542.461l.007.09v1.396c0 .304-.246.55-.55.55-.273 0-.5-.199-.542-.46l-.008-.09V18.86c0-.303.247-.55.55-.55zm0-6.985c.273 0 .5.2.542.461l.007.09v1.396c0 .304-.246.55-.55.55-.273 0-.5-.199-.542-.46l-.008-.09v-1.397c0-.303.247-.55.55-.55zm0-6.984c.273 0 .5.199.542.46l.007.09v1.396c0 .304-.246.55-.55.55-.273 0-.5-.199-.542-.46l-.008-.09V4.89c0-.304.247-.55.55-.55z"/>
                        <circle cx="4.889" cy="4.889" r="4.889"/>
                    </g>
                    <g fill="#2B2B2B" transform="translate(-208 -2371) translate(208 2371) translate(0 32) matrix(-1 0 0 1 501.252 266.048)">
                        <path fill-rule="nonzero" d="M5.449 32.466l-4.75 10-4.75-10h9.5zm-4.75-2.98c.273 0 .5.199.542.46l.007.09v1.396c0 .304-.246.55-.55.55-.273 0-.5-.199-.542-.46l-.008-.09v-1.397c0-.303.247-.55.55-.55zm0-6.986c.273 0 .5.2.542.461l.007.09v1.396c0 .304-.246.55-.55.55-.273 0-.5-.199-.542-.46l-.008-.09V23.05c0-.303.247-.55.55-.55zm0-6.985c.273 0 .5.2.542.461l.007.09v1.396c0 .304-.246.55-.55.55-.273 0-.5-.199-.542-.46l-.008-.09v-1.397c0-.303.247-.55.55-.55zm0-6.985c.273 0 .5.2.542.461l.007.09v1.396c0 .304-.246.55-.55.55-.273 0-.5-.199-.542-.46l-.008-.09V9.08c0-.303.247-.55.55-.55zm79.629-4.19c.303 0 .55.246.55.55 0 .273-.2.5-.461.542l-.09.007H78.93c-.303 0-.55-.246-.55-.55 0-.273.2-.5.461-.542l.09-.008h1.397zm-6.985 0c.303 0 .55.246.55.55 0 .273-.2.5-.461.542l-.09.007h-1.396c-.304 0-.55-.246-.55-.55 0-.273.199-.5.46-.542l.09-.008h1.397zm-6.985 0c.303 0 .55.246.55.55 0 .273-.2.5-.461.542l-.09.007h-1.396c-.304 0-.55-.246-.55-.55 0-.273.199-.5.46-.542l.09-.008h1.397zm-6.985 0c.303 0 .55.246.55.55 0 .273-.2.5-.461.542l-.09.007h-1.396c-.304 0-.55-.246-.55-.55 0-.273.199-.5.46-.542l.09-.008h1.397zm-6.985 0c.303 0 .55.246.55.55 0 .273-.2.5-.461.542l-.09.007h-1.396c-.304 0-.55-.246-.55-.55 0-.273.199-.5.46-.542l.09-.008h1.397zm-6.985 0c.303 0 .55.246.55.55 0 .273-.2.5-.461.542l-.09.007h-1.396c-.304 0-.55-.246-.55-.55 0-.273.199-.5.46-.542l.09-.008h1.397zm-6.985 0c.303 0 .55.246.55.55 0 .273-.2.5-.461.542l-.09.007h-1.396c-.304 0-.55-.246-.55-.55 0-.273.199-.5.46-.542l.09-.008h1.397zm-6.985 0c.303 0 .55.246.55.55 0 .273-.2.5-.461.542l-.09.007h-1.396c-.304 0-.55-.246-.55-.55 0-.273.199-.5.46-.542l.09-.008h1.397zm-6.985 0c.303 0 .55.246.55.55 0 .273-.2.5-.461.542l-.09.007h-1.396c-.304 0-.55-.246-.55-.55 0-.273.199-.5.46-.542l.09-.008h1.397zm-6.985 0c.303 0 .55.246.55.55 0 .273-.2.5-.461.542l-.09.007h-1.396c-.304 0-.55-.246-.55-.55 0-.273.199-.5.46-.542l.09-.008h1.397zm-6.985 0c.303 0 .55.246.55.55 0 .273-.2.5-.461.542l-.09.007H9.082c-.304 0-.55-.246-.55-.55 0-.273.199-.5.46-.542l.09-.008h1.397zm-6.985 0c.303 0 .55.246.55.55 0 .273-.2.5-.461.542l-.09.007H2.097c-.304 0-.55-.246-.55-.55 0-.273.199-.5.46-.542l.09-.008h1.397z"/>
                        <circle cx="80.328" cy="4.889" r="4.889"/>
                    </g>
                    <g fill="#2B2B2B" transform="translate(-208 -2371) translate(208 2371) translate(0 32) matrix(-1 0 0 1 545.529 189.992)">
                        <path fill-rule="nonzero" d="M.699 30.5c.273 0 .5.2.542.461l.007.09v1.396l-.001.018h4.202l-4.75 10-4.75-10h4.2V31.05c0-.303.246-.55.55-.55zm0-6.985c.273 0 .5.2.542.461l.007.09v1.396c0 .304-.246.55-.55.55-.273 0-.5-.199-.542-.46l-.008-.09v-1.397c0-.303.247-.55.55-.55zm0-6.985c.273 0 .5.2.542.461l.007.09v1.396c0 .304-.246.55-.55.55-.273 0-.5-.199-.542-.46l-.008-.09V17.08c0-.303.247-.55.55-.55zm0-6.985c.273 0 .5.2.542.461l.007.09v1.396c0 .304-.246.55-.55.55-.273 0-.5-.199-.542-.46l-.008-.09v-1.397c0-.303.247-.55.55-.55zM128.208 4.34c.303 0 .55.246.55.55 0 .273-.2.5-.461.542l-.09.007h-1.396c-.304 0-.55-.246-.55-.55 0-.273.199-.5.46-.542l.09-.008h1.397zm-6.986 0c.304 0 .55.246.55.55 0 .273-.199.5-.46.542l-.09.007h-1.396c-.304 0-.55-.246-.55-.55 0-.273.199-.5.46-.542l.09-.008h1.397zm-6.984 0c.303 0 .55.246.55.55 0 .273-.2.5-.461.542l-.09.007h-1.396c-.304 0-.55-.246-.55-.55 0-.273.199-.5.46-.542l.09-.008h1.397zm-6.985 0c.303 0 .55.246.55.55 0 .273-.2.5-.461.542l-.09.007h-1.396c-.304 0-.55-.246-.55-.55 0-.273.199-.5.46-.542l.09-.008h1.397zm-6.985 0c.303 0 .55.246.55.55 0 .273-.2.5-.461.542l-.09.007h-1.396c-.304 0-.55-.246-.55-.55 0-.273.199-.5.46-.542l.09-.008h1.397zm-6.985 0c.303 0 .55.246.55.55 0 .273-.2.5-.461.542l-.09.007h-1.396c-.304 0-.55-.246-.55-.55 0-.273.199-.5.46-.542l.09-.008h1.397zm-6.985 0c.303 0 .55.246.55.55 0 .273-.2.5-.461.542l-.09.007h-1.396c-.304 0-.55-.246-.55-.55 0-.273.199-.5.46-.542l.09-.008h1.397zm-6.985 0c.303 0 .55.246.55.55 0 .273-.2.5-.461.542l-.09.007h-1.396c-.304 0-.55-.246-.55-.55 0-.273.199-.5.46-.542l.09-.008h1.397zm-6.985 0c.303 0 .55.246.55.55 0 .273-.2.5-.461.542l-.09.007h-1.396c-.304 0-.55-.246-.55-.55 0-.273.199-.5.46-.542l.09-.008h1.397zm-6.985 0c.303 0 .55.246.55.55 0 .273-.2.5-.461.542l-.09.007h-1.396c-.304 0-.55-.246-.55-.55 0-.273.199-.5.46-.542l.09-.008h1.397zm-6.985 0c.303 0 .55.246.55.55 0 .273-.2.5-.461.542l-.09.007h-1.396c-.304 0-.55-.246-.55-.55 0-.273.199-.5.46-.542l.09-.008h1.397zm-6.985 0c.303 0 .55.246.55.55 0 .273-.2.5-.461.542l-.09.007h-1.396c-.304 0-.55-.246-.55-.55 0-.273.199-.5.46-.542l.09-.008h1.397zm-6.985 0c.303 0 .55.246.55.55 0 .273-.2.5-.461.542l-.09.007h-1.396c-.304 0-.55-.246-.55-.55 0-.273.199-.5.46-.542l.09-.008h1.397zm-6.985 0c.303 0 .55.246.55.55 0 .273-.2.5-.461.542l-.09.007h-1.396c-.304 0-.55-.246-.55-.55 0-.273.199-.5.46-.542l.09-.008h1.397zm-6.985 0c.303 0 .55.246.55.55 0 .273-.2.5-.461.542l-.09.007h-1.396c-.304 0-.55-.246-.55-.55 0-.273.199-.5.46-.542l.09-.008h1.397zm-6.985 0c.303 0 .55.246.55.55 0 .273-.2.5-.461.542l-.09.007h-1.396c-.304 0-.55-.246-.55-.55 0-.273.199-.5.46-.542l.09-.008h1.397zm-6.985 0c.303 0 .55.246.55.55 0 .273-.2.5-.461.542l-.09.007h-1.396c-.304 0-.55-.246-.55-.55 0-.273.199-.5.46-.542l.09-.008h1.397zm-6.985 0c.303 0 .55.246.55.55 0 .273-.2.5-.461.542l-.09.007H8.067c-.304 0-.55-.246-.55-.55 0-.273.199-.5.46-.542l.09-.008h1.397zm-6.985 0c.303 0 .55.246.55.55 0 .273-.2.5-.461.542l-.09.007H1.082c-.304 0-.55-.246-.55-.55 0-.273.199-.5.46-.542l.09-.008h1.397z"/>
                        <circle cx="128.208" cy="4.889" r="4.889"/>
                    </g>
                    <g fill="#2B2B2B" transform="translate(-208 -2371) translate(208 2371) translate(0 32) rotate(180 239.236 84.923)">
                        <path fill-rule="nonzero" d="M5.449 32.466l-4.75 10-4.75-10h9.5zM.699 26.69c.273 0 .5.2.542.461l.007.09v1.396c0 .304-.246.55-.55.55-.273 0-.5-.199-.542-.46l-.008-.09v-1.397c0-.303.247-.55.55-.55zm0-6.985c.273 0 .5.2.542.461l.007.09v1.396c0 .304-.246.55-.55.55-.273 0-.5-.199-.542-.46l-.008-.09v-1.397c0-.303.247-.55.55-.55zm0-6.985c.273 0 .5.2.542.461l.007.09v1.396c0 .304-.246.55-.55.55-.273 0-.5-.199-.542-.46l-.008-.09v-1.397c0-.303.247-.55.55-.55zm0-6.985c.273 0 .5.2.542.461l.007.09v1.396c0 .304-.246.55-.55.55-.273 0-.5-.199-.542-.46l-.008-.09V6.286c0-.303.247-.55.55-.55zM69.151 4.34c.303 0 .55.246.55.55 0 .273-.2.5-.461.542l-.09.007h-1.397c-.303 0-.55-.246-.55-.55 0-.273.2-.5.461-.542l.09-.008h1.397zm-6.985 0c.303 0 .55.246.55.55 0 .273-.2.5-.461.542l-.09.007H60.77c-.304 0-.55-.246-.55-.55 0-.273.199-.5.46-.542l.09-.008h1.397zm-6.985 0c.303 0 .55.246.55.55 0 .273-.2.5-.461.542l-.09.007h-1.396c-.304 0-.55-.246-.55-.55 0-.273.199-.5.46-.542l.09-.008h1.397zm-6.985 0c.303 0 .55.246.55.55 0 .273-.2.5-.461.542l-.09.007H46.8c-.304 0-.55-.246-.55-.55 0-.273.199-.5.46-.542l.09-.008h1.397zm-6.985 0c.303 0 .55.246.55.55 0 .273-.2.5-.461.542l-.09.007h-1.396c-.304 0-.55-.246-.55-.55 0-.273.199-.5.46-.542l.09-.008h1.397zm-6.985 0c.303 0 .55.246.55.55 0 .273-.2.5-.461.542l-.09.007H32.83c-.304 0-.55-.246-.55-.55 0-.273.199-.5.46-.542l.09-.008h1.397zm-6.985 0c.303 0 .55.246.55.55 0 .273-.2.5-.461.542l-.09.007h-1.396c-.304 0-.55-.246-.55-.55 0-.273.199-.5.46-.542l.09-.008h1.397zm-6.985 0c.303 0 .55.246.55.55 0 .273-.2.5-.461.542l-.09.007H18.86c-.304 0-.55-.246-.55-.55 0-.273.199-.5.46-.542l.09-.008h1.397zm-6.985 0c.303 0 .55.246.55.55 0 .273-.2.5-.461.542l-.09.007h-1.396c-.304 0-.55-.246-.55-.55 0-.273.199-.5.46-.542l.09-.008h1.397zm-6.985 0c.303 0 .55.246.55.55 0 .273-.2.5-.461.542l-.09.007H4.89c-.304 0-.55-.246-.55-.55 0-.273.199-.5.46-.542l.09-.008h1.397z"/>
                        <circle cx="69.151" cy="4.889" r="4.889"/>
                    </g>
                    <g fill="#2B2B2B" transform="translate(-208 -2371) translate(208 2371) translate(0 32) rotate(180 213.002 69.151)">
                        <path fill-rule="nonzero" d="M5.449 32.466l-4.75 10-4.75-10h9.5zM.699 29.69c.273 0 .5.2.542.461l.007.09v1.396c0 .304-.246.55-.55.55-.273 0-.5-.199-.542-.46l-.008-.09v-1.397c0-.303.247-.55.55-.55zm0-6.985c.273 0 .5.2.542.461l.007.09v1.396c0 .304-.246.55-.55.55-.273 0-.5-.199-.542-.46l-.008-.09v-1.397c0-.303.247-.55.55-.55zm0-6.985c.273 0 .5.2.542.461l.007.09v1.396c0 .304-.246.55-.55.55-.273 0-.5-.199-.542-.46l-.008-.09v-1.397c0-.303.247-.55.55-.55zm0-6.985c.273 0 .5.2.542.461l.007.09v1.396c0 .304-.246.55-.55.55-.273 0-.5-.199-.542-.46l-.008-.09V9.286c0-.303.247-.55.55-.55zM66.151 4.34c.303 0 .55.247.55.55 0 .274-.2.5-.461.543l-.09.007h-1.397c-.303 0-.55-.246-.55-.55 0-.273.2-.5.461-.542l.09-.008h1.397zm-6.985 0c.303 0 .55.247.55.55 0 .274-.2.5-.461.543l-.09.007H57.77c-.304 0-.55-.246-.55-.55 0-.273.199-.5.46-.542l.09-.008h1.397zm-6.985 0c.303 0 .55.247.55.55 0 .274-.2.5-.461.543l-.09.007h-1.396c-.304 0-.55-.246-.55-.55 0-.273.199-.5.46-.542l.09-.008h1.397zm-6.985 0c.303 0 .55.247.55.55 0 .274-.2.5-.461.543l-.09.007H43.8c-.304 0-.55-.246-.55-.55 0-.273.199-.5.46-.542l.09-.008h1.397zm-6.985 0c.303 0 .55.247.55.55 0 .274-.2.5-.461.543l-.09.007h-1.396c-.304 0-.55-.246-.55-.55 0-.273.199-.5.46-.542l.09-.008h1.397zm-6.985 0c.303 0 .55.247.55.55 0 .274-.2.5-.461.543l-.09.007H29.83c-.304 0-.55-.246-.55-.55 0-.273.199-.5.46-.542l.09-.008h1.397zm-6.985 0c.303 0 .55.247.55.55 0 .274-.2.5-.461.543l-.09.007h-1.396c-.304 0-.55-.246-.55-.55 0-.273.199-.5.46-.542l.09-.008h1.397zm-6.985 0c.303 0 .55.247.55.55 0 .274-.2.5-.461.543l-.09.007H15.86c-.304 0-.55-.246-.55-.55 0-.273.199-.5.46-.542l.09-.008h1.397zm-6.985 0c.303 0 .55.247.55.55 0 .274-.2.5-.461.543l-.09.007H8.876c-.304 0-.55-.246-.55-.55 0-.273.199-.5.46-.542l.09-.008h1.397zm-6.985 0c.303 0 .55.247.55.55 0 .274-.2.5-.461.543l-.09.007H1.89c-.304 0-.55-.246-.55-.55 0-.273.199-.5.46-.542l.09-.008h1.397z"/>
                        <circle cx="66.151" cy="4.889" r="4.889"/>
                    </g>
                    <g fill="#2B2B2B" transform="translate(-208 -2371) translate(208 2371) translate(0 32) matrix(-1 0 0 1 321.245 329.274)">
                        <path fill-rule="nonzero" d="M10.162 94.298l-.051 4.2 1.325.016c.304.004.547.253.543.556-.003.274-.205.498-.467.538l-.09.006-1.325-.016-.05 4.2-9.941-4.87 10.056-4.63zm27.815 4.534l1.397.017c.304.004.547.253.543.557-.003.273-.205.497-.467.537l-.09.006-1.396-.017c-.304-.003-.547-.253-.544-.556.004-.304.253-.547.557-.544zm-6.985-.083l1.397.016c.304.004.547.253.544.557-.004.273-.206.498-.468.537l-.089.006-1.397-.017c-.303-.003-.547-.252-.543-.556.004-.304.253-.547.556-.543zm-6.984-.084l1.397.017c.304.003.547.252.543.556-.003.273-.205.498-.467.537l-.09.006-1.396-.016c-.304-.004-.547-.253-.544-.557.004-.304.253-.547.557-.543zm-6.985-.084l1.397.017c.304.003.547.253.544.556-.004.274-.206.498-.468.538l-.089.006-1.397-.017c-.303-.004-.547-.253-.543-.557.004-.303.253-.547.556-.543zm25.585-3.437c.274 0 .5.2.543.461l.007.09v1.396c0 .304-.246.55-.55.55-.273 0-.5-.199-.542-.46l-.008-.09v-1.397c0-.303.247-.55.55-.55zm0-6.985c.274 0 .5.2.543.461l.007.09v1.396c0 .304-.246.55-.55.55-.273 0-.5-.199-.542-.46l-.008-.09V88.71c0-.303.247-.55.55-.55zm0-6.985c.274 0 .5.2.543.461l.007.09v1.396c0 .304-.246.55-.55.55-.273 0-.5-.199-.542-.46l-.008-.09v-1.397c0-.303.247-.55.55-.55zm0-6.985c.274 0 .5.2.543.461l.007.09v1.396c0 .304-.246.55-.55.55-.273 0-.5-.199-.542-.46l-.008-.09V74.74c0-.303.247-.55.55-.55zm0-6.985c.274 0 .5.2.543.461l.007.09v1.396c0 .304-.246.55-.55.55-.273 0-.5-.199-.542-.46l-.008-.09v-1.397c0-.303.247-.55.55-.55zm0-6.985c.274 0 .5.2.543.461l.007.09v1.396c0 .304-.246.55-.55.55-.273 0-.5-.199-.542-.46l-.008-.09V60.77c0-.303.247-.55.55-.55zm0-6.985c.274 0 .5.2.543.461l.007.09v1.396c0 .304-.246.55-.55.55-.273 0-.5-.199-.542-.46l-.008-.09v-1.397c0-.303.247-.55.55-.55zm0-6.985c.274 0 .5.2.543.461l.007.09v1.396c0 .304-.246.55-.55.55-.273 0-.5-.199-.542-.46l-.008-.09V46.8c0-.303.247-.55.55-.55zm0-6.985c.274 0 .5.2.543.461l.007.09v1.396c0 .304-.246.55-.55.55-.273 0-.5-.199-.542-.46l-.008-.09v-1.397c0-.303.247-.55.55-.55zm0-6.985c.274 0 .5.2.543.461l.007.09v1.396c0 .304-.246.55-.55.55-.273 0-.5-.199-.542-.46l-.008-.09V32.83c0-.303.247-.55.55-.55zm0-6.985c.274 0 .5.2.543.461l.007.09v1.396c0 .304-.246.55-.55.55-.273 0-.5-.199-.542-.46l-.008-.09v-1.397c0-.303.247-.55.55-.55zm0-6.985c.274 0 .5.2.543.461l.007.09v1.396c0 .304-.246.55-.55.55-.273 0-.5-.199-.542-.46l-.008-.09V18.86c0-.303.247-.55.55-.55zm0-6.985c.274 0 .5.2.543.461l.007.09v1.396c0 .304-.246.55-.55.55-.273 0-.5-.199-.542-.46l-.008-.09v-1.397c0-.303.247-.55.55-.55zm0-6.984c.274 0 .5.199.543.46l.007.09v1.396c0 .304-.246.55-.55.55-.273 0-.5-.199-.542-.46l-.008-.09V4.89c0-.304.247-.55.55-.55z"/>
                        <circle cx="42.608" cy="4.889" r="4.889"/>
                    </g>
                    <text fill="#2B2B2B" font-family="ModernEra-Bold, Modern Era" font-size="20.955" font-weight="bold" transform="translate(-208 -2371) translate(208 2371) translate(0 32)">
                        <tspan x="340.911" y="426.757">19%</tspan>
                    </text>
                    <text fill="#2B2B2B" font-family="ModernEra-Bold, Modern Era" font-size="20.955" font-weight="bold" transform="translate(-208 -2371) translate(208 2371) translate(0 32)">
                        <tspan x="45.412" y="351.089">17.5%</tspan>
                    </text>
                    <text fill="#2B2B2B" font-family="ModernEra-Bold, Modern Era" font-size="20.955" font-weight="bold" transform="translate(-208 -2371) translate(208 2371) translate(0 32)">
                        <tspan x=".639" y="260.078">10%</tspan>
                    </text>
                    <text fill="#2B2B2B" font-family="ModernEra-Bold, Modern Era" font-size="20.955" font-weight="bold" transform="translate(-208 -2371) translate(208 2371) translate(0 32)">
                        <tspan x="70.269" y="65.895">7.5%</tspan>
                    </text>
                    <text fill="#2B2B2B" font-family="ModernEra-Bold, Modern Era" font-size="20.955" font-weight="bold" transform="translate(-208 -2371) translate(208 2371) translate(0 32)">
                        <tspan x="150.602" y="20">6.2%</tspan>
                    </text>
                    <text fill="#2B2B2B" font-family="ModernEra-Bold, Modern Era" font-size="20.955" font-weight="bold" transform="translate(-208 -2371) translate(208 2371) translate(0 32)">
                        <tspan x="355.154" y="38.161">5%</tspan>
                    </text>
                </g>
            </g>
        </g>
    </g>
</svg>
