<?xml version="1.0" encoding="UTF-8"?>
<svg width="100%" height="100%" viewBox="0 0 290 226" version="1.1" xmlns="http://www.w3.org/2000/svg" xmlns:xlink="http://www.w3.org/1999/xlink">
    <title>Group 5 Copy</title>
    <g id="Page-1" stroke="none" stroke-width="1" fill="none" fill-rule="evenodd">
        <g id="Tokenomics---Mobile--" transform="translate(-15.000000, -2191.000000)">
            <g id="Group-5-Copy" transform="translate(15.000000, 2191.000000)">
                <text id="20%-copy" font-family="ModernEra-Bold, Modern Era" font-size="10.5798963" font-weight="bold" line-spacing="20.4544661" fill="#2B2B2B">
                    <tspan x="249.455283" y="171.471459">20</tspan>
                    <tspan x="251.581842" y="191.925926">%</tspan>
                </text>
                <text id="2.8%-copy" font-family="ModernEra-Bold, Modern Era" font-size="10.5798963" font-weight="bold" line-spacing="20.4544661" fill="#2B2B2B">
                    <tspan x="266.338886" y="132.857148">2.8%</tspan>
                </text>
                <text id="9%-copy" font-family="ModernEra-Bold, Modern Era" font-size="10.5798963" font-weight="bold" line-spacing="20.4544661" fill="#2B2B2B">
                    <tspan x="207.483472" y="34.0592723">9%</tspan>
                </text>
                <text id="3%-copy" font-family="ModernEra-Bold, Modern Era" font-size="10.5798963" font-weight="bold" line-spacing="20.4544661" fill="#2B2B2B">
                    <tspan x="234.510482" y="49.9933218">3%</tspan>
                </text>
                <g id="Group-3-Copy" transform="translate(49.636307, 46.988948)">
                    <path d="M177.564673,62.4035554 L177.564673,75.6606004 C177.564673,120.991738 137.917935,151.193272 89.2566094,151.193272 C40.5952834,151.193272 1.35929073,120.954733 1.35929073,75.6606004 L1.35929073,62.4035554 C1.35929073,64.6192455 1.45616571,66.8333661 1.6481271,69.0367035 C5.27378353,111.222416 42.13449,125.854499 88.3939137,125.854499 C134.653337,125.854499 173.650181,111.222416 177.275837,69.0367035 C177.467799,66.8333661 177.564673,64.6192455 177.564673,62.4035554 Z" id="Path" fill="#0C0830"></path>
                    <g id="Group-39">
                        <path d="M91.2925642,67.7471149 L27.12902,28.672555 C35.7057892,20.3876474 46.9627988,13.8105317 59.8984853,9.70336281 L91.2925642,67.7471149 Z" id="Fill-9" fill="#FFFFFF"></path>
                        <path d="M91.2925642,67.7471149 L26.620428,28.9875861 C35.1971973,20.7026785 46.9627988,13.8105317 59.8984853,9.70336281 L91.2925642,67.7471149 Z" id="Stroke-11" fill="#E7D3FF"></path>
                        <path d="M91.2925642,4.9398938 L91.2925642,67.7471149 L59.8984853,9.70336281 C69.5473507,6.63357167 80.127247,4.9398938 91.2290848,4.9398938 L91.2925642,4.9398938 Z" id="Fill-13" fill="#FFFFFF"></path>
                        <path d="M117.21331,8.16522103 L91.2925642,67.7473972 L91.2925642,4.94017608 C100.356009,4.94723307 109.06679,6.07635165 117.21331,8.16522103" id="Fill-17" fill="#FFFFFF"></path>
                        <path d="M117.21331,8.16522103 L91.2925642,67.7473972 L91.2925642,4.94017608 C100.356009,4.94723307 109.06679,6.07635165 117.21331,8.16522103 Z" id="Stroke-19" fill="#AEB8FF"></path>
                        <path d="M91.2925642,0 L91.2925642,67.7471149 L57.4368961,5.13812388 C67.8423228,1.82688849 79.2517818,0 91.2241074,0 L91.2925642,0 Z" id="Stroke-15" fill="#E7EAFF"></path>
                        <text id="T1-Copy-5" font-family="ModernEra-Medium, Modern Era" font-size="8.58307022" font-weight="400" line-spacing="8.58307022" fill="#2B2B2B">
                            <tspan x="76.6417682" y="30.774262">T1</tspan>
                        </text>
                        <path d="M155.103234,28.4540705 L91.2923526,67.7473972 L117.213098,8.16522103 C132.279576,12.0253952 145.384541,19.1529562 155.103234,28.4540705" id="Fill-21" fill="#FFFFFF"></path>
                        <path d="M155.103234,28.4540705 L91.2923526,67.7473972 L117.213098,8.16522103 C132.279576,12.0253952 145.384541,19.1529562 155.103234,28.4540705 Z" id="Stroke-23" fill="#7687FF"></path>
                        <path d="M166.649498,43.3160939 L91.2924231,67.7473972 L155.103304,28.4540705 C159.800778,32.9423169 163.701233,37.9386666 166.649498,43.3160939" id="Fill-25" fill="#FFFFFF"></path>
                        <path d="M166.823441,43.2171437 L91.2924231,67.7473972 L155.250596,28.2949271 C159.958913,32.8013514 163.868371,37.8179371 166.823441,43.2171437 Z" id="Stroke-27" fill="#4B61FF"></path>
                        <path d="M166.64985,43.3160233 C168.822256,47.2749953 170.479067,51.4456771 171.544816,55.7716127 L91.2927758,67.7473266 L166.64985,43.3160233 Z" id="Combined-Shape" fill="#3034FF"></path>
                        <path d="M138.633656,121.596693 C132.027453,125.27171 114.983221,134.421173 91.0996975,134.421173 C67.2161737,134.421173 50.0083228,125.758 43.9999803,122.364579 L91.5621001,65.924027 L138.633656,121.596693 Z" id="Stroke-35" fill="#8248E5"></path>
                        <line x1="9.53803806" y1="69.8645651" x2="9.47455868" y2="69.8645651" id="Stroke-37" stroke="#979797" stroke-width="0.705326418" stroke-linecap="square"></line>
                        <path d="M178.486671,67.7520436 C178.486671,69.6437 178.392033,71.5274745 178.210034,73.4033671 C175.996939,96.2845276 162.938986,116.449861 142.144392,128.299273 L91.6368968,67.7471149 L177.001568,54.6602049 C177.977077,58.900668 178.486671,63.2751234 178.486671,67.7520436 Z" id="Stroke-33" fill="#7D12FF"></path>
                        <text id="T1-Copy-3" font-family="ModernEra-Medium, Modern Era" font-size="8.58307022" font-weight="400" line-spacing="8.58307022" fill="#0C0830">
                            <tspan x="137.228146" y="89.8771942">T1</tspan>
                        </text>
                        <path d="M91.5059948,67.7471149 L40.4231733,128.299273 C16.1401851,116.903144 2.74694233,96.1108136 0.350179849,73.1365342 C0.247686717,72.1322504 0.168845846,71.1263837 0.121541323,70.1213084 L91.5059948,67.7471149 Z" id="Fill-1" fill="#A977FF"></path>
                        <text id="T2-Copy" font-family="ModernEra-Medium, Modern Era" font-size="8.58307022" font-weight="400" line-spacing="8.58307022" fill="#0C0830">
                            <tspan x="38.2703955" y="93.9184204">T2</tspan>
                        </text>
                        <path d="M19.7730304,24.7523986 L91.6368968,67.9753615 L0.0710975923,70.3172233 C0.0236991974,69.4429282 0,68.5686331 0,67.6943381 C0,51.4730419 7.3941496,36.547576 19.7730304,24.7523986 Z" id="Combined-Shape" fill="#C9A9FF"></path>
                        <text id="T1-Copy-4" font-family="ModernEra-Medium, Modern Era" font-size="8.58307022" font-weight="400" line-spacing="8.58307022" fill="#0C0830">
                            <tspan x="30.6970982" y="59.5679982">T1</tspan>
                        </text>
                    </g>
                </g>
                <g id="Group-43-Copy-12" transform="translate(36.228542, 140.494222)" fill="#2B2B2B">
                    <path id="Line-6-Copy" d="M3.59639354,14.5598623 L2.38125767e-17,21.5598623 L-3.59639354,14.5598623 L3.59639354,14.5598623 Z M0,12.0346871 C0.151142366,12.0346871 0.277755645,12.1397086 0.310846329,12.2807581 L0.319278707,12.3539658 L0.319278707,13.3539658 C0.319278707,13.5302985 0.176332761,13.6732445 0,13.6732445 C-0.151142366,13.6732445 -0.277755645,13.568223 -0.310846329,13.4271734 L-0.319278707,13.3539658 L-0.319278707,12.3539658 C-0.319278707,12.177633 -0.176332761,12.0346871 0,12.0346871 Z M0,8.21338155 C0.151142366,8.21338155 0.277755645,8.31840306 0.310846329,8.45945257 L0.319278707,8.53266025 L0.319278707,9.53266025 C0.319278707,9.70899301 0.176332761,9.85193896 0,9.85193896 C-0.151142366,9.85193896 -0.277755645,9.74691745 -0.310846329,9.60586793 L-0.319278707,9.53266025 L-0.319278707,8.53266025 C-0.319278707,8.35632749 -0.176332761,8.21338155 0,8.21338155 Z M0,4.39207603 C0.151142366,4.39207603 0.277755645,4.49709754 0.310846329,4.63814706 L0.319278707,4.71135474 L0.319278707,5.71135474 C0.319278707,5.8876875 0.176332761,6.03063345 0,6.03063345 C-0.151142366,6.03063345 -0.277755645,5.92561193 -0.310846329,5.78456242 L-0.319278707,5.71135474 L-0.319278707,4.71135474 C-0.319278707,4.53502198 -0.176332761,4.39207603 0,4.39207603 Z M35.9716473,2.15066819 C36.1479801,2.15066819 36.290926,2.29361414 36.290926,2.4699469 C36.290926,2.62108926 36.1859045,2.74770254 36.044855,2.78079323 L35.9716473,2.7892256 L34.9716473,2.7892256 C34.7953145,2.7892256 34.6523686,2.64627966 34.6523686,2.4699469 C34.6523686,2.31880453 34.7573901,2.19219125 34.8984396,2.15910057 L34.9716473,2.15066819 L35.9716473,2.15066819 Z M32.1503418,2.15066819 C32.3266745,2.15066819 32.4696205,2.29361414 32.4696205,2.4699469 C32.4696205,2.62108926 32.364599,2.74770254 32.2235495,2.78079323 L32.1503418,2.7892256 L31.1503418,2.7892256 C30.974009,2.7892256 30.8310631,2.64627966 30.8310631,2.4699469 C30.8310631,2.31880453 30.9360846,2.19219125 31.0771341,2.15910057 L31.1503418,2.15066819 L32.1503418,2.15066819 Z M28.3290363,2.15066819 C28.505369,2.15066819 28.648315,2.29361414 28.648315,2.4699469 C28.648315,2.62108926 28.5432935,2.74770254 28.4022439,2.78079323 L28.3290363,2.7892256 L27.3290363,2.7892256 C27.1527035,2.7892256 27.0097576,2.64627966 27.0097576,2.4699469 C27.0097576,2.31880453 27.1147791,2.19219125 27.2558286,2.15910057 L27.3290363,2.15066819 L28.3290363,2.15066819 Z M24.5077308,2.15066819 C24.6840635,2.15066819 24.8270095,2.29361414 24.8270095,2.4699469 C24.8270095,2.62108926 24.7219879,2.74770254 24.5809384,2.78079323 L24.5077308,2.7892256 L23.5077308,2.7892256 C23.331398,2.7892256 23.188452,2.64627966 23.188452,2.4699469 C23.188452,2.31880453 23.2934736,2.19219125 23.4345231,2.15910057 L23.5077308,2.15066819 L24.5077308,2.15066819 Z M20.6864252,2.15066819 C20.862758,2.15066819 21.0057039,2.29361414 21.0057039,2.4699469 C21.0057039,2.62108926 20.9006824,2.74770254 20.7596329,2.78079323 L20.6864252,2.7892256 L19.6864252,2.7892256 C19.5100925,2.7892256 19.3671465,2.64627966 19.3671465,2.4699469 C19.3671465,2.31880453 19.472168,2.19219125 19.6132176,2.15910057 L19.6864252,2.15066819 L20.6864252,2.15066819 Z M16.8651197,2.15066819 C17.0414525,2.15066819 17.1843984,2.29361414 17.1843984,2.4699469 C17.1843984,2.62108926 17.0793769,2.74770254 16.9383274,2.78079323 L16.8651197,2.7892256 L15.8651197,2.7892256 C15.688787,2.7892256 15.545841,2.64627966 15.545841,2.4699469 C15.545841,2.31880453 15.6508625,2.19219125 15.791912,2.15910057 L15.8651197,2.15066819 L16.8651197,2.15066819 Z M13.0438142,2.15066819 C13.220147,2.15066819 13.3630929,2.29361414 13.3630929,2.4699469 C13.3630929,2.62108926 13.2580714,2.74770254 13.1170219,2.78079323 L13.0438142,2.7892256 L12.0438142,2.7892256 C11.8674815,2.7892256 11.7245355,2.64627966 11.7245355,2.4699469 C11.7245355,2.31880453 11.829557,2.19219125 11.9706065,2.15910057 L12.0438142,2.15066819 L13.0438142,2.15066819 Z M9.2225087,2.15066819 C9.39884146,2.15066819 9.54178741,2.29361414 9.54178741,2.4699469 C9.54178741,2.62108926 9.43676589,2.74770254 9.29571638,2.78079323 L9.2225087,2.7892256 L8.2225087,2.7892256 C8.04617594,2.7892256 7.90322999,2.64627966 7.90322999,2.4699469 C7.90322999,2.31880453 8.0082515,2.19219125 8.14930102,2.15910057 L8.2225087,2.15066819 L9.2225087,2.15066819 Z M5.40120319,2.15066819 C5.57753595,2.15066819 5.72048189,2.29361414 5.72048189,2.4699469 C5.72048189,2.62108926 5.61546038,2.74770254 5.47441086,2.78079323 L5.40120319,2.7892256 L4.40120319,2.7892256 C4.22487043,2.7892256 4.08192448,2.64627966 4.08192448,2.4699469 C4.08192448,2.31880453 4.18694599,2.19219125 4.32799551,2.15910057 L4.40120319,2.15066819 L5.40120319,2.15066819 Z M1.57989767,2.15066819 C1.75623043,2.15066819 1.89917638,2.29361414 1.89917638,2.4699469 C1.89917638,2.62108926 1.79415487,2.74770254 1.65310535,2.78079323 L1.57989767,2.7892256 L0.579897673,2.7892256 C0.403564912,2.7892256 0.260618966,2.64627966 0.260618966,2.4699469 C0.260618966,2.31880453 0.365640477,2.19219125 0.506689994,2.15910057 L0.579897673,2.15066819 L1.57989767,2.15066819 Z" fill-rule="nonzero"></path>
                    <ellipse id="Oval" cx="35.9716473" cy="2.4699469" rx="2.46864246" ry="2.4699469"></ellipse>
                </g>
                <g id="Group-43-Copy-13" transform="translate(9.931024, 94.519718)" fill="#2B2B2B">
                    <path id="Line-6-Copy" d="M3.59639354,14.5598623 L2.38125767e-17,21.5598623 L-3.59639354,14.5598623 L3.59639354,14.5598623 Z M0,11.8027279 C0.151142366,11.8027279 0.277755645,11.9077494 0.310846329,12.048799 L0.319278707,12.1220066 L0.319278707,13.1220066 C0.319278707,13.2983394 0.176332761,13.4412853 0,13.4412853 C-0.151142366,13.4412853 -0.277755645,13.3362638 -0.310846329,13.1952143 L-0.319278707,13.1220066 L-0.319278707,12.1220066 C-0.319278707,11.9456739 -0.176332761,11.8027279 0,11.8027279 Z M0,7.98142241 C0.151142366,7.98142241 0.277755645,8.08644392 0.310846329,8.22749344 L0.319278707,8.30070112 L0.319278707,9.30070112 C0.319278707,9.47703388 0.176332761,9.61997983 0,9.61997983 C-0.151142366,9.61997983 -0.277755645,9.51495832 -0.310846329,9.3739088 L-0.319278707,9.30070112 L-0.319278707,8.30070112 C-0.319278707,8.12436836 -0.176332761,7.98142241 0,7.98142241 Z M0,4.1601169 C0.151142366,4.1601169 0.277755645,4.26513841 0.310846329,4.40618793 L0.319278707,4.47939561 L0.319278707,5.47939561 C0.319278707,5.65572837 0.176332761,5.79867431 0,5.79867431 C-0.151142366,5.79867431 -0.277755645,5.6936528 -0.310846329,5.55260329 L-0.319278707,5.47939561 L-0.319278707,4.47939561 C-0.319278707,4.30306285 -0.176332761,4.1601169 0,4.1601169 Z M51.4888285,2.15066819 C51.6651612,2.15066819 51.8081072,2.29361414 51.8081072,2.4699469 C51.8081072,2.62108926 51.7030857,2.74770254 51.5620362,2.78079323 L51.4888285,2.7892256 L50.4888285,2.7892256 C50.3124957,2.7892256 50.1695498,2.64627966 50.1695498,2.4699469 C50.1695498,2.31880453 50.2745713,2.19219125 50.4156208,2.15910057 L50.4888285,2.15066819 L51.4888285,2.15066819 Z M47.667523,2.15066819 C47.8438557,2.15066819 47.9868017,2.29361414 47.9868017,2.4699469 C47.9868017,2.62108926 47.8817802,2.74770254 47.7407306,2.78079323 L47.667523,2.7892256 L46.667523,2.7892256 C46.4911902,2.7892256 46.3482443,2.64627966 46.3482443,2.4699469 C46.3482443,2.31880453 46.4532658,2.19219125 46.5943153,2.15910057 L46.667523,2.15066819 L47.667523,2.15066819 Z M43.8462175,2.15066819 C44.0225502,2.15066819 44.1654962,2.29361414 44.1654962,2.4699469 C44.1654962,2.62108926 44.0604746,2.74770254 43.9194251,2.78079323 L43.8462175,2.7892256 L42.8462175,2.7892256 C42.6698847,2.7892256 42.5269387,2.64627966 42.5269387,2.4699469 C42.5269387,2.31880453 42.6319603,2.19219125 42.7730098,2.15910057 L42.8462175,2.15066819 L43.8462175,2.15066819 Z M40.0249119,2.15066819 C40.2012447,2.15066819 40.3441906,2.29361414 40.3441906,2.4699469 C40.3441906,2.62108926 40.2391691,2.74770254 40.0981196,2.78079323 L40.0249119,2.7892256 L39.0249119,2.7892256 C38.8485792,2.7892256 38.7056332,2.64627966 38.7056332,2.4699469 C38.7056332,2.31880453 38.8106547,2.19219125 38.9517043,2.15910057 L39.0249119,2.15066819 L40.0249119,2.15066819 Z M36.2036064,2.15066819 C36.3799392,2.15066819 36.5228851,2.29361414 36.5228851,2.4699469 C36.5228851,2.62108926 36.4178636,2.74770254 36.2768141,2.78079323 L36.2036064,2.7892256 L35.2036064,2.7892256 C35.0272737,2.7892256 34.8843277,2.64627966 34.8843277,2.4699469 C34.8843277,2.31880453 34.9893492,2.19219125 35.1303987,2.15910057 L35.2036064,2.15066819 L36.2036064,2.15066819 Z M32.3823009,2.15066819 C32.5586337,2.15066819 32.7015796,2.29361414 32.7015796,2.4699469 C32.7015796,2.62108926 32.5965581,2.74770254 32.4555086,2.78079323 L32.3823009,2.7892256 L31.3823009,2.7892256 C31.2059682,2.7892256 31.0630222,2.64627966 31.0630222,2.4699469 C31.0630222,2.31880453 31.1680437,2.19219125 31.3090932,2.15910057 L31.3823009,2.15066819 L32.3823009,2.15066819 Z M28.5609954,2.15066819 C28.7373282,2.15066819 28.8802741,2.29361414 28.8802741,2.4699469 C28.8802741,2.62108926 28.7752526,2.74770254 28.6342031,2.78079323 L28.5609954,2.7892256 L27.5609954,2.7892256 C27.3846626,2.7892256 27.2417167,2.64627966 27.2417167,2.4699469 C27.2417167,2.31880453 27.3467382,2.19219125 27.4877877,2.15910057 L27.5609954,2.15066819 L28.5609954,2.15066819 Z M24.7396899,2.15066819 C24.9160226,2.15066819 25.0589686,2.29361414 25.0589686,2.4699469 C25.0589686,2.62108926 24.9539471,2.74770254 24.8128976,2.78079323 L24.7396899,2.7892256 L23.7396899,2.7892256 C23.5633571,2.7892256 23.4204112,2.64627966 23.4204112,2.4699469 C23.4204112,2.31880453 23.5254327,2.19219125 23.6664822,2.15910057 L23.7396899,2.15066819 L24.7396899,2.15066819 Z M20.9183844,2.15066819 C21.0947171,2.15066819 21.2376631,2.29361414 21.2376631,2.4699469 C21.2376631,2.62108926 21.1326416,2.74770254 20.991592,2.78079323 L20.9183844,2.7892256 L19.9183844,2.7892256 C19.7420516,2.7892256 19.5991057,2.64627966 19.5991057,2.4699469 C19.5991057,2.31880453 19.7041272,2.19219125 19.8451767,2.15910057 L19.9183844,2.15066819 L20.9183844,2.15066819 Z M17.0970789,2.15066819 C17.2734116,2.15066819 17.4163576,2.29361414 17.4163576,2.4699469 C17.4163576,2.62108926 17.3113361,2.74770254 17.1702865,2.78079323 L17.0970789,2.7892256 L16.0970789,2.7892256 C15.9207461,2.7892256 15.7778002,2.64627966 15.7778002,2.4699469 C15.7778002,2.31880453 15.8828217,2.19219125 16.0238712,2.15910057 L16.0970789,2.15066819 L17.0970789,2.15066819 Z M13.2757733,2.15066819 C13.4521061,2.15066819 13.5950521,2.29361414 13.5950521,2.4699469 C13.5950521,2.62108926 13.4900305,2.74770254 13.348981,2.78079323 L13.2757733,2.7892256 L12.2757733,2.7892256 C12.0994406,2.7892256 11.9564946,2.64627966 11.9564946,2.4699469 C11.9564946,2.31880453 12.0615161,2.19219125 12.2025657,2.15910057 L12.2757733,2.15066819 L13.2757733,2.15066819 Z M9.45446783,2.15066819 C9.63080059,2.15066819 9.77374654,2.29361414 9.77374654,2.4699469 C9.77374654,2.62108926 9.66872503,2.74770254 9.52767551,2.78079323 L9.45446783,2.7892256 L8.45446783,2.7892256 C8.27813507,2.7892256 8.13518912,2.64627966 8.13518912,2.4699469 C8.13518912,2.31880453 8.24021064,2.19219125 8.38126015,2.15910057 L8.45446783,2.15066819 L9.45446783,2.15066819 Z M5.63316232,2.15066819 C5.80949508,2.15066819 5.95244102,2.29361414 5.95244102,2.4699469 C5.95244102,2.62108926 5.84741951,2.74770254 5.70637,2.78079323 L5.63316232,2.7892256 L4.63316232,2.7892256 C4.45682956,2.7892256 4.31388361,2.64627966 4.31388361,2.4699469 C4.31388361,2.31880453 4.41890512,2.19219125 4.55995464,2.15910057 L4.63316232,2.15066819 L5.63316232,2.15066819 Z M1.8118568,2.15066819 C1.98818957,2.15066819 2.13113551,2.29361414 2.13113551,2.4699469 C2.13113551,2.62108926 2.026114,2.74770254 1.88506448,2.78079323 L1.8118568,2.7892256 L0.811856804,2.7892256 C0.635524043,2.7892256 0.492578097,2.64627966 0.492578097,2.4699469 C0.492578097,2.31880453 0.597599609,2.19219125 0.738649126,2.15910057 L0.811856804,2.15066819 L1.8118568,2.15066819 Z" fill-rule="nonzero"></path>
                    <ellipse id="Oval" cx="51.4888285" cy="2.4699469" rx="2.46864246" ry="2.4699469"></ellipse>
                </g>
                <g id="Group-43-Copy-14" transform="translate(73.794747, 58.529063) scale(1, -1) translate(-73.794747, -58.529063) translate(46.816011, 47.943577)" fill="#2B2B2B">
                    <path id="Line-6-Copy" d="M3.59639354,14.5598623 L2.38125767e-17,21.5598623 L-3.59639354,14.5598623 L3.59639354,14.5598623 Z M0,11.8027279 C0.151142366,11.8027279 0.277755645,11.9077494 0.310846329,12.048799 L0.319278707,12.1220066 L0.319278707,13.1220066 C0.319278707,13.2983394 0.176332761,13.4412853 0,13.4412853 C-0.151142366,13.4412853 -0.277755645,13.3362638 -0.310846329,13.1952143 L-0.319278707,13.1220066 L-0.319278707,12.1220066 C-0.319278707,11.9456739 -0.176332761,11.8027279 0,11.8027279 Z M0,7.98142241 C0.151142366,7.98142241 0.277755645,8.08644392 0.310846329,8.22749344 L0.319278707,8.30070112 L0.319278707,9.30070112 C0.319278707,9.47703388 0.176332761,9.61997983 0,9.61997983 C-0.151142366,9.61997983 -0.277755645,9.51495832 -0.310846329,9.3739088 L-0.319278707,9.30070112 L-0.319278707,8.30070112 C-0.319278707,8.12436836 -0.176332761,7.98142241 0,7.98142241 Z M0,4.1601169 C0.151142366,4.1601169 0.277755645,4.26513841 0.310846329,4.40618793 L0.319278707,4.47939561 L0.319278707,5.47939561 C0.319278707,5.65572837 0.176332761,5.79867431 0,5.79867431 C-0.151142366,5.79867431 -0.277755645,5.6936528 -0.310846329,5.55260329 L-0.319278707,5.47939561 L-0.319278707,4.47939561 C-0.319278707,4.30306285 -0.176332761,4.1601169 0,4.1601169 Z M51.4888285,2.15066819 C51.6651612,2.15066819 51.8081072,2.29361414 51.8081072,2.4699469 C51.8081072,2.62108926 51.7030857,2.74770254 51.5620362,2.78079323 L51.4888285,2.7892256 L50.4888285,2.7892256 C50.3124957,2.7892256 50.1695498,2.64627966 50.1695498,2.4699469 C50.1695498,2.31880453 50.2745713,2.19219125 50.4156208,2.15910057 L50.4888285,2.15066819 L51.4888285,2.15066819 Z M47.667523,2.15066819 C47.8438557,2.15066819 47.9868017,2.29361414 47.9868017,2.4699469 C47.9868017,2.62108926 47.8817802,2.74770254 47.7407306,2.78079323 L47.667523,2.7892256 L46.667523,2.7892256 C46.4911902,2.7892256 46.3482443,2.64627966 46.3482443,2.4699469 C46.3482443,2.31880453 46.4532658,2.19219125 46.5943153,2.15910057 L46.667523,2.15066819 L47.667523,2.15066819 Z M43.8462175,2.15066819 C44.0225502,2.15066819 44.1654962,2.29361414 44.1654962,2.4699469 C44.1654962,2.62108926 44.0604746,2.74770254 43.9194251,2.78079323 L43.8462175,2.7892256 L42.8462175,2.7892256 C42.6698847,2.7892256 42.5269387,2.64627966 42.5269387,2.4699469 C42.5269387,2.31880453 42.6319603,2.19219125 42.7730098,2.15910057 L42.8462175,2.15066819 L43.8462175,2.15066819 Z M40.0249119,2.15066819 C40.2012447,2.15066819 40.3441906,2.29361414 40.3441906,2.4699469 C40.3441906,2.62108926 40.2391691,2.74770254 40.0981196,2.78079323 L40.0249119,2.7892256 L39.0249119,2.7892256 C38.8485792,2.7892256 38.7056332,2.64627966 38.7056332,2.4699469 C38.7056332,2.31880453 38.8106547,2.19219125 38.9517043,2.15910057 L39.0249119,2.15066819 L40.0249119,2.15066819 Z M36.2036064,2.15066819 C36.3799392,2.15066819 36.5228851,2.29361414 36.5228851,2.4699469 C36.5228851,2.62108926 36.4178636,2.74770254 36.2768141,2.78079323 L36.2036064,2.7892256 L35.2036064,2.7892256 C35.0272737,2.7892256 34.8843277,2.64627966 34.8843277,2.4699469 C34.8843277,2.31880453 34.9893492,2.19219125 35.1303987,2.15910057 L35.2036064,2.15066819 L36.2036064,2.15066819 Z M32.3823009,2.15066819 C32.5586337,2.15066819 32.7015796,2.29361414 32.7015796,2.4699469 C32.7015796,2.62108926 32.5965581,2.74770254 32.4555086,2.78079323 L32.3823009,2.7892256 L31.3823009,2.7892256 C31.2059682,2.7892256 31.0630222,2.64627966 31.0630222,2.4699469 C31.0630222,2.31880453 31.1680437,2.19219125 31.3090932,2.15910057 L31.3823009,2.15066819 L32.3823009,2.15066819 Z M28.5609954,2.15066819 C28.7373282,2.15066819 28.8802741,2.29361414 28.8802741,2.4699469 C28.8802741,2.62108926 28.7752526,2.74770254 28.6342031,2.78079323 L28.5609954,2.7892256 L27.5609954,2.7892256 C27.3846626,2.7892256 27.2417167,2.64627966 27.2417167,2.4699469 C27.2417167,2.31880453 27.3467382,2.19219125 27.4877877,2.15910057 L27.5609954,2.15066819 L28.5609954,2.15066819 Z M24.7396899,2.15066819 C24.9160226,2.15066819 25.0589686,2.29361414 25.0589686,2.4699469 C25.0589686,2.62108926 24.9539471,2.74770254 24.8128976,2.78079323 L24.7396899,2.7892256 L23.7396899,2.7892256 C23.5633571,2.7892256 23.4204112,2.64627966 23.4204112,2.4699469 C23.4204112,2.31880453 23.5254327,2.19219125 23.6664822,2.15910057 L23.7396899,2.15066819 L24.7396899,2.15066819 Z M20.9183844,2.15066819 C21.0947171,2.15066819 21.2376631,2.29361414 21.2376631,2.4699469 C21.2376631,2.62108926 21.1326416,2.74770254 20.991592,2.78079323 L20.9183844,2.7892256 L19.9183844,2.7892256 C19.7420516,2.7892256 19.5991057,2.64627966 19.5991057,2.4699469 C19.5991057,2.31880453 19.7041272,2.19219125 19.8451767,2.15910057 L19.9183844,2.15066819 L20.9183844,2.15066819 Z M17.0970789,2.15066819 C17.2734116,2.15066819 17.4163576,2.29361414 17.4163576,2.4699469 C17.4163576,2.62108926 17.3113361,2.74770254 17.1702865,2.78079323 L17.0970789,2.7892256 L16.0970789,2.7892256 C15.9207461,2.7892256 15.7778002,2.64627966 15.7778002,2.4699469 C15.7778002,2.31880453 15.8828217,2.19219125 16.0238712,2.15910057 L16.0970789,2.15066819 L17.0970789,2.15066819 Z M13.2757733,2.15066819 C13.4521061,2.15066819 13.5950521,2.29361414 13.5950521,2.4699469 C13.5950521,2.62108926 13.4900305,2.74770254 13.348981,2.78079323 L13.2757733,2.7892256 L12.2757733,2.7892256 C12.0994406,2.7892256 11.9564946,2.64627966 11.9564946,2.4699469 C11.9564946,2.31880453 12.0615161,2.19219125 12.2025657,2.15910057 L12.2757733,2.15066819 L13.2757733,2.15066819 Z M9.45446783,2.15066819 C9.63080059,2.15066819 9.77374654,2.29361414 9.77374654,2.4699469 C9.77374654,2.62108926 9.66872503,2.74770254 9.52767551,2.78079323 L9.45446783,2.7892256 L8.45446783,2.7892256 C8.27813507,2.7892256 8.13518912,2.64627966 8.13518912,2.4699469 C8.13518912,2.31880453 8.24021064,2.19219125 8.38126015,2.15910057 L8.45446783,2.15066819 L9.45446783,2.15066819 Z M5.63316232,2.15066819 C5.80949508,2.15066819 5.95244102,2.29361414 5.95244102,2.4699469 C5.95244102,2.62108926 5.84741951,2.74770254 5.70637,2.78079323 L5.63316232,2.7892256 L4.63316232,2.7892256 C4.45682956,2.7892256 4.31388361,2.64627966 4.31388361,2.4699469 C4.31388361,2.31880453 4.41890512,2.19219125 4.55995464,2.15910057 L4.63316232,2.15066819 L5.63316232,2.15066819 Z M1.8118568,2.15066819 C1.98818957,2.15066819 2.13113551,2.29361414 2.13113551,2.4699469 C2.13113551,2.62108926 2.026114,2.74770254 1.88506448,2.78079323 L1.8118568,2.7892256 L0.811856804,2.7892256 C0.635524043,2.7892256 0.492578097,2.64627966 0.492578097,2.4699469 C0.492578097,2.31880453 0.597599609,2.19219125 0.738649126,2.15910057 L0.811856804,2.15066819 L1.8118568,2.15066819 Z" fill-rule="nonzero"></path>
                    <ellipse id="Oval" cx="51.4888285" cy="2.4699469" rx="2.46864246" ry="2.4699469"></ellipse>
                </g>
                <g id="Group-43-Copy-15" transform="translate(119.421706, 32.698682) scale(1, -1) translate(-119.421706, -32.698682) translate(108.847099, 8.881337)" fill="#2B2B2B">
                    <path id="Line-6-Copy" d="M6.52973306,43.8925754 L6.68923769,51.0835937 L-0.388793257,47.643314 L6.52973306,43.8925754 Z M9.9277518,47.0951246 C10.1040412,47.0912143 10.2501219,47.2309551 10.2540322,47.4072445 C10.2573839,47.5583497 10.1551959,47.6872608 10.0149149,47.7234712 L9.94191221,47.7335249 L8.94215812,47.7557006 C8.76586872,47.7596109 8.61978801,47.61987 8.61587772,47.4435806 C8.61252604,47.2924754 8.714714,47.1635643 8.85499502,47.1273539 L8.92799771,47.1173002 L9.9277518,47.0951246 Z M13.7481176,47.0103847 C13.924407,47.0064744 14.0704877,47.1462153 14.074398,47.3225047 C14.0777497,47.4736099 13.9755617,47.6025209 13.8352807,47.6387313 L13.762278,47.6487851 L12.7625239,47.6709607 C12.5862345,47.674871 12.4401538,47.5351301 12.4362435,47.3588407 C12.4328919,47.2077355 12.5350798,47.0788245 12.6753608,47.042614 L12.7483635,47.0325603 L13.7481176,47.0103847 Z M17.5684834,46.9256448 C17.7447728,46.9217345 17.8908535,47.0614754 17.8947638,47.2377648 C17.8981155,47.38887 17.7959276,47.517781 17.6556465,47.5539914 L17.5826438,47.5640452 L16.5828898,47.5862208 C16.4066004,47.5901311 16.2605196,47.4503902 16.2566094,47.2741008 C16.2532577,47.1229956 16.3554456,46.9940846 16.4957267,46.9578742 L16.5687293,46.9478204 L17.5684834,46.9256448 Z M18.6805702,44.1850288 C18.8317125,44.1850288 18.9583258,44.2900503 18.9914165,44.4310999 L18.9998489,44.5043075 L18.9998489,45.5043075 C18.9998489,45.6806403 18.8569029,45.8235863 18.6805702,45.8235863 C18.5294278,45.8235863 18.4028145,45.7185647 18.3697238,45.5775152 L18.3612915,45.5043075 L18.3612915,44.5043075 C18.3612915,44.3279748 18.5042374,44.1850288 18.6805702,44.1850288 Z M18.6805702,40.3637233 C18.8317125,40.3637233 18.9583258,40.4687448 18.9914165,40.6097944 L18.9998489,40.683002 L18.9998489,41.683002 C18.9998489,41.8593348 18.8569029,42.0022807 18.6805702,42.0022807 C18.5294278,42.0022807 18.4028145,41.8972592 18.3697238,41.7562097 L18.3612915,41.683002 L18.3612915,40.683002 C18.3612915,40.5066693 18.5042374,40.3637233 18.6805702,40.3637233 Z M18.6805702,36.5424178 C18.8317125,36.5424178 18.9583258,36.6474393 18.9914165,36.7884888 L18.9998489,36.8616965 L18.9998489,37.8616965 C18.9998489,38.0380293 18.8569029,38.1809752 18.6805702,38.1809752 C18.5294278,38.1809752 18.4028145,38.0759537 18.3697238,37.9349042 L18.3612915,37.8616965 L18.3612915,36.8616965 C18.3612915,36.6853638 18.5042374,36.5424178 18.6805702,36.5424178 Z M18.6805702,32.7211123 C18.8317125,32.7211123 18.9583258,32.8261338 18.9914165,32.9671833 L18.9998489,33.040391 L18.9998489,34.040391 C18.9998489,34.2167238 18.8569029,34.3596697 18.6805702,34.3596697 C18.5294278,34.3596697 18.4028145,34.2546482 18.3697238,34.1135987 L18.3612915,34.040391 L18.3612915,33.040391 C18.3612915,32.8640582 18.5042374,32.7211123 18.6805702,32.7211123 Z M18.6805702,28.8998068 C18.8317125,28.8998068 18.9583258,29.0048283 18.9914165,29.1458778 L18.9998489,29.2190855 L18.9998489,30.2190855 C18.9998489,30.3954183 18.8569029,30.5383642 18.6805702,30.5383642 C18.5294278,30.5383642 18.4028145,30.4333427 18.3697238,30.2922932 L18.3612915,30.2190855 L18.3612915,29.2190855 C18.3612915,29.0427527 18.5042374,28.8998068 18.6805702,28.8998068 Z M18.6805702,25.0785013 C18.8317125,25.0785013 18.9583258,25.1835228 18.9914165,25.3245723 L18.9998489,25.39778 L18.9998489,26.39778 C18.9998489,26.5741127 18.8569029,26.7170587 18.6805702,26.7170587 C18.5294278,26.7170587 18.4028145,26.6120372 18.3697238,26.4709877 L18.3612915,26.39778 L18.3612915,25.39778 C18.3612915,25.2214472 18.5042374,25.0785013 18.6805702,25.0785013 Z M18.6805702,21.2571958 C18.8317125,21.2571958 18.9583258,21.3622173 18.9914165,21.5032668 L18.9998489,21.5764745 L18.9998489,22.5764745 C18.9998489,22.7528072 18.8569029,22.8957532 18.6805702,22.8957532 C18.5294278,22.8957532 18.4028145,22.7907317 18.3697238,22.6496821 L18.3612915,22.5764745 L18.3612915,21.5764745 C18.3612915,21.4001417 18.5042374,21.2571958 18.6805702,21.2571958 Z M18.6805702,17.4358902 C18.8317125,17.4358902 18.9583258,17.5409118 18.9914165,17.6819613 L18.9998489,17.755169 L18.9998489,18.755169 C18.9998489,18.9315017 18.8569029,19.0744477 18.6805702,19.0744477 C18.5294278,19.0744477 18.4028145,18.9694261 18.3697238,18.8283766 L18.3612915,18.755169 L18.3612915,17.755169 C18.3612915,17.5788362 18.5042374,17.4358902 18.6805702,17.4358902 Z M18.6805702,13.6145847 C18.8317125,13.6145847 18.9583258,13.7196062 18.9914165,13.8606558 L18.9998489,13.9338634 L18.9998489,14.9338634 C18.9998489,15.1101962 18.8569029,15.2531421 18.6805702,15.2531421 C18.5294278,15.2531421 18.4028145,15.1481206 18.3697238,15.0070711 L18.3612915,14.9338634 L18.3612915,13.9338634 C18.3612915,13.7575307 18.5042374,13.6145847 18.6805702,13.6145847 Z M18.6805702,9.79327922 C18.8317125,9.79327922 18.9583258,9.89830073 18.9914165,10.0393502 L18.9998489,10.1125579 L18.9998489,11.1125579 C18.9998489,11.2888907 18.8569029,11.4318366 18.6805702,11.4318366 C18.5294278,11.4318366 18.4028145,11.3268151 18.3697238,11.1857656 L18.3612915,11.1125579 L18.3612915,10.1125579 C18.3612915,9.93622516 18.5042374,9.79327922 18.6805702,9.79327922 Z M18.6805702,5.9719737 C18.8317125,5.9719737 18.9583258,6.07699522 18.9914165,6.21804473 L18.9998489,6.29125241 L18.9998489,7.29125241 C18.9998489,7.46758517 18.8569029,7.61053112 18.6805702,7.61053112 C18.5294278,7.61053112 18.4028145,7.50550961 18.3697238,7.36446009 L18.3612915,7.29125241 L18.3612915,6.29125241 C18.3612915,6.11491965 18.5042374,5.9719737 18.6805702,5.9719737 Z M18.6805702,2.15066819 C18.8317125,2.15066819 18.9583258,2.2556897 18.9914165,2.39673922 L18.9998489,2.4699469 L18.9998489,3.4699469 C18.9998489,3.64627966 18.8569029,3.7892256 18.6805702,3.7892256 C18.5294278,3.7892256 18.4028145,3.68420409 18.3697238,3.54315458 L18.3612915,3.4699469 L18.3612915,2.4699469 C18.3612915,2.29361414 18.5042374,2.15066819 18.6805702,2.15066819 Z" fill-rule="nonzero"></path>
                    <ellipse id="Oval" cx="18.6805702" cy="2.4699469" rx="2.46864246" ry="2.4699469"></ellipse>
                </g>
                <g id="Group-43-Copy-16" transform="translate(160.325348, 40.108523) scale(1, -1) translate(-160.325348, -40.108523) translate(149.745452, 18.055426)" fill="#2B2B2B">
                    <path id="Line-6-Copy" d="M14.5486814,40.5098011 L21.5486814,44.1061946 L14.5486814,47.7025881 L14.548,44.425 L14.3306719,44.4254733 C14.1543392,44.4254733 14.0113932,44.2825274 14.0113932,44.1061946 C14.0113932,43.9550522 14.1164147,43.828439 14.2574643,43.7953483 L14.3306719,43.7869159 L14.548,43.786 L14.5486814,40.5098011 Z M3.8667554,43.7869159 C4.04308816,43.7869159 4.18603411,43.9298618 4.18603411,44.1061946 C4.18603411,44.257337 4.0810126,44.3839503 3.93996308,44.4170409 L3.8667554,44.4254733 L2.8667554,44.4254733 C2.69042264,44.4254733 2.54747669,44.2825274 2.54747669,44.1061946 C2.54747669,43.9550522 2.65249821,43.828439 2.79354772,43.7953483 L2.8667554,43.7869159 L3.8667554,43.7869159 Z M7.68806091,43.7869159 C7.86439367,43.7869159 8.00733962,43.9298618 8.00733962,44.1061946 C8.00733962,44.257337 7.90231811,44.3839503 7.76126859,44.4170409 L7.68806091,44.4254733 L6.68806091,44.4254733 C6.51172815,44.4254733 6.36878221,44.2825274 6.36878221,44.1061946 C6.36878221,43.9550522 6.47380372,43.828439 6.61485324,43.7953483 L6.68806091,43.7869159 L7.68806091,43.7869159 Z M11.5093664,43.7869159 C11.6856992,43.7869159 11.8286451,43.9298618 11.8286451,44.1061946 C11.8286451,44.257337 11.7236236,44.3839503 11.5825741,44.4170409 L11.5093664,44.4254733 L10.5093664,44.4254733 C10.3330337,44.4254733 10.1900877,44.2825274 10.1900877,44.1061946 C10.1900877,43.9550522 10.2951092,43.828439 10.4361587,43.7953483 L10.5093664,43.7869159 L11.5093664,43.7869159 Z M2.46864246,40.3637233 C2.61978483,40.3637233 2.74639811,40.4687448 2.77948879,40.6097944 L2.78792117,40.683002 L2.78792117,41.683002 C2.78792117,41.8593348 2.64497522,42.0022807 2.46864246,42.0022807 C2.31750009,42.0022807 2.19088682,41.8972592 2.15779613,41.7562097 L2.14936375,41.683002 L2.14936375,40.683002 C2.14936375,40.5066693 2.2923097,40.3637233 2.46864246,40.3637233 Z M2.46864246,36.5424178 C2.61978483,36.5424178 2.74639811,36.6474393 2.77948879,36.7884888 L2.78792117,36.8616965 L2.78792117,37.8616965 C2.78792117,38.0380293 2.64497522,38.1809752 2.46864246,38.1809752 C2.31750009,38.1809752 2.19088682,38.0759537 2.15779613,37.9349042 L2.14936375,37.8616965 L2.14936375,36.8616965 C2.14936375,36.6853638 2.2923097,36.5424178 2.46864246,36.5424178 Z M2.46864246,32.7211123 C2.61978483,32.7211123 2.74639811,32.8261338 2.77948879,32.9671833 L2.78792117,33.040391 L2.78792117,34.040391 C2.78792117,34.2167238 2.64497522,34.3596697 2.46864246,34.3596697 C2.31750009,34.3596697 2.19088682,34.2546482 2.15779613,34.1135987 L2.14936375,34.040391 L2.14936375,33.040391 C2.14936375,32.8640582 2.2923097,32.7211123 2.46864246,32.7211123 Z M2.46864246,28.8998068 C2.61978483,28.8998068 2.74639811,29.0048283 2.77948879,29.1458778 L2.78792117,29.2190855 L2.78792117,30.2190855 C2.78792117,30.3954183 2.64497522,30.5383642 2.46864246,30.5383642 C2.31750009,30.5383642 2.19088682,30.4333427 2.15779613,30.2922932 L2.14936375,30.2190855 L2.14936375,29.2190855 C2.14936375,29.0427527 2.2923097,28.8998068 2.46864246,28.8998068 Z M2.46864246,25.0785013 C2.61978483,25.0785013 2.74639811,25.1835228 2.77948879,25.3245723 L2.78792117,25.39778 L2.78792117,26.39778 C2.78792117,26.5741127 2.64497522,26.7170587 2.46864246,26.7170587 C2.31750009,26.7170587 2.19088682,26.6120372 2.15779613,26.4709877 L2.14936375,26.39778 L2.14936375,25.39778 C2.14936375,25.2214472 2.2923097,25.0785013 2.46864246,25.0785013 Z M2.46864246,21.2571958 C2.61978483,21.2571958 2.74639811,21.3622173 2.77948879,21.5032668 L2.78792117,21.5764745 L2.78792117,22.5764745 C2.78792117,22.7528072 2.64497522,22.8957532 2.46864246,22.8957532 C2.31750009,22.8957532 2.19088682,22.7907317 2.15779613,22.6496821 L2.14936375,22.5764745 L2.14936375,21.5764745 C2.14936375,21.4001417 2.2923097,21.2571958 2.46864246,21.2571958 Z M2.46864246,17.4358902 C2.61978483,17.4358902 2.74639811,17.5409118 2.77948879,17.6819613 L2.78792117,17.755169 L2.78792117,18.755169 C2.78792117,18.9315017 2.64497522,19.0744477 2.46864246,19.0744477 C2.31750009,19.0744477 2.19088682,18.9694261 2.15779613,18.8283766 L2.14936375,18.755169 L2.14936375,17.755169 C2.14936375,17.5788362 2.2923097,17.4358902 2.46864246,17.4358902 Z M2.46864246,13.6145847 C2.61978483,13.6145847 2.74639811,13.7196062 2.77948879,13.8606558 L2.78792117,13.9338634 L2.78792117,14.9338634 C2.78792117,15.1101962 2.64497522,15.2531421 2.46864246,15.2531421 C2.31750009,15.2531421 2.19088682,15.1481206 2.15779613,15.0070711 L2.14936375,14.9338634 L2.14936375,13.9338634 C2.14936375,13.7575307 2.2923097,13.6145847 2.46864246,13.6145847 Z M2.46864246,9.79327922 C2.61978483,9.79327922 2.74639811,9.89830073 2.77948879,10.0393502 L2.78792117,10.1125579 L2.78792117,11.1125579 C2.78792117,11.2888907 2.64497522,11.4318366 2.46864246,11.4318366 C2.31750009,11.4318366 2.19088682,11.3268151 2.15779613,11.1857656 L2.14936375,11.1125579 L2.14936375,10.1125579 C2.14936375,9.93622516 2.2923097,9.79327922 2.46864246,9.79327922 Z M2.46864246,5.9719737 C2.61978483,5.9719737 2.74639811,6.07699522 2.77948879,6.21804473 L2.78792117,6.29125241 L2.78792117,7.29125241 C2.78792117,7.46758517 2.64497522,7.61053112 2.46864246,7.61053112 C2.31750009,7.61053112 2.19088682,7.50550961 2.15779613,7.36446009 L2.14936375,7.29125241 L2.14936375,6.29125241 C2.14936375,6.11491965 2.2923097,5.9719737 2.46864246,5.9719737 Z M2.46864246,2.15066819 C2.61978483,2.15066819 2.74639811,2.2556897 2.77948879,2.39673922 L2.78792117,2.4699469 L2.78792117,3.4699469 C2.78792117,3.64627966 2.64497522,3.7892256 2.46864246,3.7892256 C2.31750009,3.7892256 2.19088682,3.68420409 2.15779613,3.54315458 L2.14936375,3.4699469 L2.14936375,2.4699469 C2.14936375,2.29361414 2.2923097,2.15066819 2.46864246,2.15066819 Z" fill-rule="nonzero"></path>
                    <ellipse id="Oval" cx="2.46864246" cy="2.4699469" rx="2.46864246" ry="2.4699469"></ellipse>
                </g>
                <g id="Group-43-Copy-17" transform="translate(231.442774, 145.040601) scale(-1, 1) translate(-231.442774, -145.040601) translate(210.106650, 134.455115)" fill="#2B2B2B">
                    <path id="Line-6-Copy" d="M3.59639354,14.5598623 L2.38125767e-17,21.5598623 L-3.59639354,14.5598623 L3.59639354,14.5598623 Z M0,11.6240341 C0.151142366,11.6240341 0.277755645,11.7290556 0.310846329,11.8701051 L0.319278707,11.9433128 L0.319278707,12.9433128 C0.319278707,13.1196455 0.176332761,13.2625915 0,13.2625915 C-0.151142366,13.2625915 -0.277755645,13.15757 -0.310846329,13.0165205 L-0.319278707,12.9433128 L-0.319278707,11.9433128 C-0.319278707,11.76698 -0.176332761,11.6240341 0,11.6240341 Z M0,7.80272855 C0.151142366,7.80272855 0.277755645,7.90775006 0.310846329,8.04879958 L0.319278707,8.12200726 L0.319278707,9.12200726 C0.319278707,9.29834002 0.176332761,9.44128597 0,9.44128597 C-0.151142366,9.44128597 -0.277755645,9.33626446 -0.310846329,9.19521494 L-0.319278707,9.12200726 L-0.319278707,8.12200726 C-0.319278707,7.9456745 -0.176332761,7.80272855 0,7.80272855 Z M0,3.98142304 C0.151142366,3.98142304 0.277755645,4.08644455 0.310846329,4.22749407 L0.319278707,4.30070175 L0.319278707,5.30070175 C0.319278707,5.47703451 0.176332761,5.61998045 0,5.61998045 C-0.151142366,5.61998045 -0.277755645,5.51495894 -0.310846329,5.37390943 L-0.319278707,5.30070175 L-0.319278707,4.30070175 C-0.319278707,4.12436899 -0.176332761,3.98142304 0,3.98142304 Z M40.2036058,2.15066819 C40.3799386,2.15066819 40.5228845,2.29361414 40.5228845,2.4699469 C40.5228845,2.62108926 40.417863,2.74770254 40.2768135,2.78079323 L40.2036058,2.7892256 L39.2036058,2.7892256 C39.027273,2.7892256 38.8843271,2.64627966 38.8843271,2.4699469 C38.8843271,2.31880453 38.9893486,2.19219125 39.1303981,2.15910057 L39.2036058,2.15066819 L40.2036058,2.15066819 Z M36.3823003,2.15066819 C36.558633,2.15066819 36.701579,2.29361414 36.701579,2.4699469 C36.701579,2.62108926 36.5965575,2.74770254 36.455508,2.78079323 L36.3823003,2.7892256 L35.3823003,2.7892256 C35.2059675,2.7892256 35.0630216,2.64627966 35.0630216,2.4699469 C35.0630216,2.31880453 35.1680431,2.19219125 35.3090926,2.15910057 L35.3823003,2.15066819 L36.3823003,2.15066819 Z M32.5609948,2.15066819 C32.7373275,2.15066819 32.8802735,2.29361414 32.8802735,2.4699469 C32.8802735,2.62108926 32.775252,2.74770254 32.6342024,2.78079323 L32.5609948,2.7892256 L31.5609948,2.7892256 C31.384662,2.7892256 31.2417161,2.64627966 31.2417161,2.4699469 C31.2417161,2.31880453 31.3467376,2.19219125 31.4877871,2.15910057 L31.5609948,2.15066819 L32.5609948,2.15066819 Z M28.7396893,2.15066819 C28.916022,2.15066819 29.058968,2.29361414 29.058968,2.4699469 C29.058968,2.62108926 28.9539465,2.74770254 28.8128969,2.78079323 L28.7396893,2.7892256 L27.7396893,2.7892256 C27.5633565,2.7892256 27.4204106,2.64627966 27.4204106,2.4699469 C27.4204106,2.31880453 27.5254321,2.19219125 27.6664816,2.15910057 L27.7396893,2.15066819 L28.7396893,2.15066819 Z M24.9183837,2.15066819 C25.0947165,2.15066819 25.2376625,2.29361414 25.2376625,2.4699469 C25.2376625,2.62108926 25.1326409,2.74770254 24.9915914,2.78079323 L24.9183837,2.7892256 L23.9183837,2.7892256 C23.742051,2.7892256 23.599105,2.64627966 23.599105,2.4699469 C23.599105,2.31880453 23.7041265,2.19219125 23.8451761,2.15910057 L23.9183837,2.15066819 L24.9183837,2.15066819 Z M21.0970782,2.15066819 C21.273411,2.15066819 21.4163569,2.29361414 21.4163569,2.4699469 C21.4163569,2.62108926 21.3113354,2.74770254 21.1702859,2.78079323 L21.0970782,2.7892256 L20.0970782,2.7892256 C19.9207455,2.7892256 19.7777995,2.64627966 19.7777995,2.4699469 C19.7777995,2.31880453 19.882821,2.19219125 20.0238706,2.15910057 L20.0970782,2.15066819 L21.0970782,2.15066819 Z M17.2757727,2.15066819 C17.4521055,2.15066819 17.5950514,2.29361414 17.5950514,2.4699469 C17.5950514,2.62108926 17.4900299,2.74770254 17.3489804,2.78079323 L17.2757727,2.7892256 L16.2757727,2.7892256 C16.09944,2.7892256 15.956494,2.64627966 15.956494,2.4699469 C15.956494,2.31880453 16.0615155,2.19219125 16.202565,2.15910057 L16.2757727,2.15066819 L17.2757727,2.15066819 Z M13.4544672,2.15066819 C13.6308,2.15066819 13.7737459,2.29361414 13.7737459,2.4699469 C13.7737459,2.62108926 13.6687244,2.74770254 13.5276749,2.78079323 L13.4544672,2.7892256 L12.4544672,2.7892256 C12.2781344,2.7892256 12.1351885,2.64627966 12.1351885,2.4699469 C12.1351885,2.31880453 12.24021,2.19219125 12.3812595,2.15910057 L12.4544672,2.15066819 L13.4544672,2.15066819 Z M9.63316169,2.15066819 C9.80949445,2.15066819 9.9524404,2.29361414 9.9524404,2.4699469 C9.9524404,2.62108926 9.84741889,2.74770254 9.70636937,2.78079323 L9.63316169,2.7892256 L8.63316169,2.7892256 C8.45682893,2.7892256 8.31388298,2.64627966 8.31388298,2.4699469 C8.31388298,2.31880453 8.4189045,2.19219125 8.55995401,2.15910057 L8.63316169,2.15066819 L9.63316169,2.15066819 Z M5.81185618,2.15066819 C5.98818894,2.15066819 6.13113488,2.29361414 6.13113488,2.4699469 C6.13113488,2.62108926 6.02611337,2.74770254 5.88506386,2.78079323 L5.81185618,2.7892256 L4.81185618,2.7892256 C4.63552342,2.7892256 4.49257747,2.64627966 4.49257747,2.4699469 C4.49257747,2.31880453 4.59759898,2.19219125 4.7386485,2.15910057 L4.81185618,2.15066819 L5.81185618,2.15066819 Z M1.99055066,2.15066819 C2.16688343,2.15066819 2.30982937,2.29361414 2.30982937,2.4699469 C2.30982937,2.62108926 2.20480786,2.74770254 2.06375834,2.78079323 L1.99055066,2.7892256 L0.990550664,2.7892256 C0.814217903,2.7892256 0.671271957,2.64627966 0.671271957,2.4699469 C0.671271957,2.31880453 0.776293469,2.19219125 0.917342986,2.15910057 L0.990550664,2.15066819 L1.99055066,2.15066819 Z" fill-rule="nonzero"></path>
                    <ellipse id="Oval" cx="40.2036058" cy="2.4699469" rx="2.46864246" ry="2.4699469"></ellipse>
                </g>
                <g id="Group-43-Copy-18" transform="translate(241.710651, 106.620665) scale(-1, 1) translate(-241.710651, -106.620665) translate(208.287544, 96.035178)" fill="#2B2B2B">
                    <path id="Line-6-Copy" d="M0,14.1992078 C0.151142366,14.1992078 0.277755645,14.3042293 0.310846329,14.4452789 L0.319278707,14.5184865 L0.319,14.559 L3.59639354,14.5598623 L2.38125767e-17,21.5598623 L-3.59639354,14.5598623 L-0.319,14.559 L-0.319278707,14.5184865 C-0.319278707,14.3421538 -0.176332761,14.1992078 0,14.1992078 Z M0,10.3779023 C0.151142366,10.3779023 0.277755645,10.4829238 0.310846329,10.6239733 L0.319278707,10.697181 L0.319278707,11.697181 C0.319278707,11.8735138 0.176332761,12.0164597 0,12.0164597 C-0.151142366,12.0164597 -0.277755645,11.9114382 -0.310846329,11.7703887 L-0.319278707,11.697181 L-0.319278707,10.697181 C-0.319278707,10.5208483 -0.176332761,10.3779023 0,10.3779023 Z M0,6.5565968 C0.151142366,6.5565968 0.277755645,6.66161831 0.310846329,6.80266783 L0.319278707,6.87587551 L0.319278707,7.87587551 C0.319278707,8.05220827 0.176332761,8.19515422 0,8.19515422 C-0.151142366,8.19515422 -0.277755645,8.0901327 -0.310846329,7.94908319 L-0.319278707,7.87587551 L-0.319278707,6.87587551 C-0.319278707,6.69954275 -0.176332761,6.5565968 0,6.5565968 Z M0,2.73529129 C0.151142366,2.73529129 0.277755645,2.8403128 0.310846329,2.98136232 L0.319278707,3.05457 L0.319278707,4.05457 C0.319278707,4.23090276 0.176332761,4.3738487 0,4.3738487 C-0.151142366,4.3738487 -0.277755645,4.26882719 -0.310846329,4.12777767 L-0.319278707,4.05457 L-0.319278707,3.05457 C-0.319278707,2.87823723 -0.176332761,2.73529129 0,2.73529129 Z M64.3775706,2.15066819 C64.5539034,2.15066819 64.6968493,2.29361414 64.6968493,2.4699469 C64.6968493,2.62108926 64.5918278,2.74770254 64.4507783,2.78079323 L64.3775706,2.7892256 L63.3775706,2.7892256 C63.2012379,2.7892256 63.0582919,2.64627966 63.0582919,2.4699469 C63.0582919,2.31880453 63.1633134,2.19219125 63.304363,2.15910057 L63.3775706,2.15066819 L64.3775706,2.15066819 Z M60.5562651,2.15066819 C60.7325979,2.15066819 60.8755438,2.29361414 60.8755438,2.4699469 C60.8755438,2.62108926 60.7705223,2.74770254 60.6294728,2.78079323 L60.5562651,2.7892256 L59.5562651,2.7892256 C59.3799324,2.7892256 59.2369864,2.64627966 59.2369864,2.4699469 C59.2369864,2.31880453 59.3420079,2.19219125 59.4830574,2.15910057 L59.5562651,2.15066819 L60.5562651,2.15066819 Z M56.7349596,2.15066819 C56.9112924,2.15066819 57.0542383,2.29361414 57.0542383,2.4699469 C57.0542383,2.62108926 56.9492168,2.74770254 56.8081673,2.78079323 L56.7349596,2.7892256 L55.7349596,2.7892256 C55.5586268,2.7892256 55.4156809,2.64627966 55.4156809,2.4699469 C55.4156809,2.31880453 55.5207024,2.19219125 55.6617519,2.15910057 L55.7349596,2.15066819 L56.7349596,2.15066819 Z M52.9136541,2.15066819 C53.0899869,2.15066819 53.2329328,2.29361414 53.2329328,2.4699469 C53.2329328,2.62108926 53.1279113,2.74770254 52.9868618,2.78079323 L52.9136541,2.7892256 L51.9136541,2.7892256 C51.7373213,2.7892256 51.5943754,2.64627966 51.5943754,2.4699469 C51.5943754,2.31880453 51.6993969,2.19219125 51.8404464,2.15910057 L51.9136541,2.15066819 L52.9136541,2.15066819 Z M49.0923486,2.15066819 C49.2686813,2.15066819 49.4116273,2.29361414 49.4116273,2.4699469 C49.4116273,2.62108926 49.3066058,2.74770254 49.1655563,2.78079323 L49.0923486,2.7892256 L48.0923486,2.7892256 C47.9160158,2.7892256 47.7730699,2.64627966 47.7730699,2.4699469 C47.7730699,2.31880453 47.8780914,2.19219125 48.0191409,2.15910057 L48.0923486,2.15066819 L49.0923486,2.15066819 Z M45.2710431,2.15066819 C45.4473758,2.15066819 45.5903218,2.29361414 45.5903218,2.4699469 C45.5903218,2.62108926 45.4853003,2.74770254 45.3442507,2.78079323 L45.2710431,2.7892256 L44.2710431,2.7892256 C44.0947103,2.7892256 43.9517644,2.64627966 43.9517644,2.4699469 C43.9517644,2.31880453 44.0567859,2.19219125 44.1978354,2.15910057 L44.2710431,2.15066819 L45.2710431,2.15066819 Z M41.4497375,2.15066819 C41.6260703,2.15066819 41.7690163,2.29361414 41.7690163,2.4699469 C41.7690163,2.62108926 41.6639947,2.74770254 41.5229452,2.78079323 L41.4497375,2.7892256 L40.4497375,2.7892256 C40.2734048,2.7892256 40.1304588,2.64627966 40.1304588,2.4699469 C40.1304588,2.31880453 40.2354804,2.19219125 40.3765299,2.15910057 L40.4497375,2.15066819 L41.4497375,2.15066819 Z M37.628432,2.15066819 C37.8047648,2.15066819 37.9477107,2.29361414 37.9477107,2.4699469 C37.9477107,2.62108926 37.8426892,2.74770254 37.7016397,2.78079323 L37.628432,2.7892256 L36.628432,2.7892256 C36.4520993,2.7892256 36.3091533,2.64627966 36.3091533,2.4699469 C36.3091533,2.31880453 36.4141748,2.19219125 36.5552244,2.15910057 L36.628432,2.15066819 L37.628432,2.15066819 Z M33.8071265,2.15066819 C33.9834593,2.15066819 34.1264052,2.29361414 34.1264052,2.4699469 C34.1264052,2.62108926 34.0213837,2.74770254 33.8803342,2.78079323 L33.8071265,2.7892256 L32.8071265,2.7892256 C32.6307938,2.7892256 32.4878478,2.64627966 32.4878478,2.4699469 C32.4878478,2.31880453 32.5928693,2.19219125 32.7339188,2.15910057 L32.8071265,2.15066819 L33.8071265,2.15066819 Z M29.985821,2.15066819 C30.1621538,2.15066819 30.3050997,2.29361414 30.3050997,2.4699469 C30.3050997,2.62108926 30.2000782,2.74770254 30.0590287,2.78079323 L29.985821,2.7892256 L28.985821,2.7892256 C28.8094882,2.7892256 28.6665423,2.64627966 28.6665423,2.4699469 C28.6665423,2.31880453 28.7715638,2.19219125 28.9126133,2.15910057 L28.985821,2.15066819 L29.985821,2.15066819 Z M26.1645155,2.15066819 C26.3408483,2.15066819 26.4837942,2.29361414 26.4837942,2.4699469 C26.4837942,2.62108926 26.3787727,2.74770254 26.2377232,2.78079323 L26.1645155,2.7892256 L25.1645155,2.7892256 C24.9881827,2.7892256 24.8452368,2.64627966 24.8452368,2.4699469 C24.8452368,2.31880453 24.9502583,2.19219125 25.0913078,2.15910057 L25.1645155,2.15066819 L26.1645155,2.15066819 Z M22.34321,2.15066819 C22.5195427,2.15066819 22.6624887,2.29361414 22.6624887,2.4699469 C22.6624887,2.62108926 22.5574672,2.74770254 22.4164177,2.78079323 L22.34321,2.7892256 L21.34321,2.7892256 C21.1668772,2.7892256 21.0239313,2.64627966 21.0239313,2.4699469 C21.0239313,2.31880453 21.1289528,2.19219125 21.2700023,2.15910057 L21.34321,2.15066819 L22.34321,2.15066819 Z M18.5219045,2.15066819 C18.6982372,2.15066819 18.8411832,2.29361414 18.8411832,2.4699469 C18.8411832,2.62108926 18.7361617,2.74770254 18.5951121,2.78079323 L18.5219045,2.7892256 L17.5219045,2.7892256 C17.3455717,2.7892256 17.2026258,2.64627966 17.2026258,2.4699469 C17.2026258,2.31880453 17.3076473,2.19219125 17.4486968,2.15910057 L17.5219045,2.15066819 L18.5219045,2.15066819 Z M14.700599,2.15066819 C14.8769317,2.15066819 15.0198777,2.29361414 15.0198777,2.4699469 C15.0198777,2.62108926 14.9148562,2.74770254 14.7738066,2.78079323 L14.700599,2.7892256 L13.700599,2.7892256 C13.5242662,2.7892256 13.3813202,2.64627966 13.3813202,2.4699469 C13.3813202,2.31880453 13.4863418,2.19219125 13.6273913,2.15910057 L13.700599,2.15066819 L14.700599,2.15066819 Z M10.8792934,2.15066819 C11.0556262,2.15066819 11.1985721,2.29361414 11.1985721,2.4699469 C11.1985721,2.62108926 11.0935506,2.74770254 10.9525011,2.78079323 L10.8792934,2.7892256 L9.87929344,2.7892256 C9.70296068,2.7892256 9.56001474,2.64627966 9.56001474,2.4699469 C9.56001474,2.31880453 9.66503625,2.19219125 9.80608576,2.15910057 L9.87929344,2.15066819 L10.8792934,2.15066819 Z M7.05798793,2.15066819 C7.23432069,2.15066819 7.37726664,2.29361414 7.37726664,2.4699469 C7.37726664,2.62108926 7.27224512,2.74770254 7.13119561,2.78079323 L7.05798793,2.7892256 L6.05798793,2.7892256 C5.88165517,2.7892256 5.73870922,2.64627966 5.73870922,2.4699469 C5.73870922,2.31880453 5.84373073,2.19219125 5.98478025,2.15910057 L6.05798793,2.15066819 L7.05798793,2.15066819 Z M3.23668242,2.15066819 C3.41301518,2.15066819 3.55596112,2.29361414 3.55596112,2.4699469 C3.55596112,2.62108926 3.45093961,2.74770254 3.30989009,2.78079323 L3.23668242,2.7892256 L2.23668242,2.7892256 C2.06034966,2.7892256 1.91740371,2.64627966 1.91740371,2.4699469 C1.91740371,2.31880453 2.02242522,2.19219125 2.16347474,2.15910057 L2.23668242,2.15066819 L3.23668242,2.15066819 Z" fill-rule="nonzero"></path>
                    <ellipse id="Oval" cx="64.3775706" cy="2.4699469" rx="2.46864246" ry="2.4699469"></ellipse>
                </g>
                <g id="Group-43-Copy-19" transform="translate(222.763271, 75.272873) scale(-1, -1) translate(-222.763271, -75.272873) translate(204.248452, 64.687387)" fill="#2B2B2B">
                    <path id="Line-6-Copy" d="M0,13.4453399 C0.151142366,13.4453399 0.277755645,13.5503614 0.310846329,13.6914109 L0.319278707,13.7646186 L0.319,14.559 L3.59639354,14.5598623 L2.38125767e-17,21.5598623 L-3.59639354,14.5598623 L-0.319,14.559 L-0.319278707,13.7646186 C-0.319278707,13.5882858 -0.176332761,13.4453399 0,13.4453399 Z M0,9.62403438 C0.151142366,9.62403438 0.277755645,9.72905589 0.310846329,9.87010541 L0.319278707,9.94331309 L0.319278707,10.9433131 C0.319278707,11.1196458 0.176332761,11.2625918 0,11.2625918 C-0.151142366,11.2625918 -0.277755645,11.1575703 -0.310846329,11.0165208 L-0.319278707,10.9433131 L-0.319278707,9.94331309 C-0.319278707,9.76698033 -0.176332761,9.62403438 0,9.62403438 Z M0,5.80272887 C0.151142366,5.80272887 0.277755645,5.90775038 0.310846329,6.0487999 L0.319278707,6.12200757 L0.319278707,7.12200757 C0.319278707,7.29834033 0.176332761,7.44128628 0,7.44128628 C-0.151142366,7.44128628 -0.277755645,7.33626477 -0.310846329,7.19521525 L-0.319278707,7.12200757 L-0.319278707,6.12200757 C-0.319278707,5.94567481 -0.176332761,5.80272887 0,5.80272887 Z M0.169244838,2.15066819 C0.345577598,2.15066819 0.488523545,2.29361414 0.488523545,2.4699469 C0.488523545,2.57070848 0.441847317,2.66056824 0.368937383,2.71908366 L0.319,2.75 L0.319278707,3.30070206 C0.319278707,3.45184443 0.214257196,3.5784577 0.0732076781,3.61154839 L0,3.61998077 C-0.151142366,3.61998077 -0.277755645,3.51495926 -0.310846329,3.37390974 L-0.319278707,3.30070206 L-0.319278707,2.15066819 L0.169244838,2.15066819 Z M34.5609945,2.15066819 C34.7373272,2.15066819 34.8802732,2.29361414 34.8802732,2.4699469 C34.8802732,2.62108926 34.7752517,2.74770254 34.6342021,2.78079323 L34.5609945,2.7892256 L33.5609945,2.7892256 C33.3846617,2.7892256 33.2417158,2.64627966 33.2417158,2.4699469 C33.2417158,2.31880453 33.3467373,2.19219125 33.4877868,2.15910057 L33.5609945,2.15066819 L34.5609945,2.15066819 Z M30.7396889,2.15066819 C30.9160217,2.15066819 31.0589677,2.29361414 31.0589677,2.4699469 C31.0589677,2.62108926 30.9539461,2.74770254 30.8128966,2.78079323 L30.7396889,2.7892256 L29.7396889,2.7892256 C29.5633562,2.7892256 29.4204102,2.64627966 29.4204102,2.4699469 C29.4204102,2.31880453 29.5254317,2.19219125 29.6664813,2.15910057 L29.7396889,2.15066819 L30.7396889,2.15066819 Z M26.9183834,2.15066819 C27.0947162,2.15066819 27.2376621,2.29361414 27.2376621,2.4699469 C27.2376621,2.62108926 27.1326406,2.74770254 26.9915911,2.78079323 L26.9183834,2.7892256 L25.9183834,2.7892256 C25.7420507,2.7892256 25.5991047,2.64627966 25.5991047,2.4699469 C25.5991047,2.31880453 25.7041262,2.19219125 25.8451758,2.15910057 L25.9183834,2.15066819 L26.9183834,2.15066819 Z M23.0970779,2.15066819 C23.2734107,2.15066819 23.4163566,2.29361414 23.4163566,2.4699469 C23.4163566,2.62108926 23.3113351,2.74770254 23.1702856,2.78079323 L23.0970779,2.7892256 L22.0970779,2.7892256 C21.9207452,2.7892256 21.7777992,2.64627966 21.7777992,2.4699469 C21.7777992,2.31880453 21.8828207,2.19219125 22.0238702,2.15910057 L22.0970779,2.15066819 L23.0970779,2.15066819 Z M19.2757724,2.15066819 C19.4521052,2.15066819 19.5950511,2.29361414 19.5950511,2.4699469 C19.5950511,2.62108926 19.4900296,2.74770254 19.3489801,2.78079323 L19.2757724,2.7892256 L18.2757724,2.7892256 C18.0994396,2.7892256 17.9564937,2.64627966 17.9564937,2.4699469 C17.9564937,2.31880453 18.0615152,2.19219125 18.2025647,2.15910057 L18.2757724,2.15066819 L19.2757724,2.15066819 Z M15.4544669,2.15066819 C15.6307997,2.15066819 15.7737456,2.29361414 15.7737456,2.4699469 C15.7737456,2.62108926 15.6687241,2.74770254 15.5276746,2.78079323 L15.4544669,2.7892256 L14.4544669,2.7892256 C14.2781341,2.7892256 14.1351882,2.64627966 14.1351882,2.4699469 C14.1351882,2.31880453 14.2402097,2.19219125 14.3812592,2.15910057 L14.4544669,2.15066819 L15.4544669,2.15066819 Z M11.6331614,2.15066819 C11.8094941,2.15066819 11.9524401,2.29361414 11.9524401,2.4699469 C11.9524401,2.62108926 11.8474186,2.74770254 11.7063691,2.78079323 L11.6331614,2.7892256 L10.6331614,2.7892256 C10.4568286,2.7892256 10.3138827,2.64627966 10.3138827,2.4699469 C10.3138827,2.31880453 10.4189042,2.19219125 10.5599537,2.15910057 L10.6331614,2.15066819 L11.6331614,2.15066819 Z M7.81185586,2.15066819 C7.98818863,2.15066819 8.13113457,2.29361414 8.13113457,2.4699469 C8.13113457,2.62108926 8.02611306,2.74770254 7.88506354,2.78079323 L7.81185586,2.7892256 L6.81185586,2.7892256 C6.6355231,2.7892256 6.49257716,2.64627966 6.49257716,2.4699469 C6.49257716,2.31880453 6.59759867,2.19219125 6.73864819,2.15910057 L6.81185586,2.15066819 L7.81185586,2.15066819 Z M3.99055035,2.15066819 C4.16688311,2.15066819 4.30982906,2.29361414 4.30982906,2.4699469 C4.30982906,2.62108926 4.20480755,2.74770254 4.06375803,2.78079323 L3.99055035,2.7892256 L2.99055035,2.7892256 C2.81421759,2.7892256 2.67127164,2.64627966 2.67127164,2.4699469 C2.67127164,2.31880453 2.77629316,2.19219125 2.91734267,2.15910057 L2.99055035,2.15066819 L3.99055035,2.15066819 Z" fill-rule="nonzero"></path>
                    <ellipse id="Oval" cx="34.5609945" cy="2.4699469" rx="2.46864246" ry="2.4699469"></ellipse>
                </g>
                <g id="Group-43-Copy-20" transform="translate(197.030217, 59.338824) scale(-1, -1) translate(-197.030217, -59.338824) translate(179.272728, 48.753337)" fill="#2B2B2B">
                    <path id="Line-6-Copy" d="M3.59639354,14.5598623 L2.38125767e-17,21.5598623 L-3.59639354,14.5598623 L3.59639354,14.5598623 Z M0,11.1386938 C0.151142366,11.1386938 0.277755645,11.2437153 0.310846329,11.3847649 L0.319278707,11.4579725 L0.319278707,12.4579725 C0.319278707,12.6343053 0.176332761,12.7772512 0,12.7772512 C-0.151142366,12.7772512 -0.277755645,12.6722297 -0.310846329,12.5311802 L-0.319278707,12.4579725 L-0.319278707,11.4579725 C-0.319278707,11.2816398 -0.176332761,11.1386938 0,11.1386938 Z M0,7.31738832 C0.151142366,7.31738832 0.277755645,7.42240983 0.310846329,7.56345935 L0.319278707,7.63666702 L0.319278707,8.63666702 C0.319278707,8.81299979 0.176332761,8.95594573 0,8.95594573 C-0.151142366,8.95594573 -0.277755645,8.85092422 -0.310846329,8.7098747 L-0.319278707,8.63666702 L-0.319278707,7.63666702 C-0.319278707,7.46033426 -0.176332761,7.31738832 0,7.31738832 Z M0,3.4960828 C0.151142366,3.4960828 0.277755645,3.60110432 0.310846329,3.74215383 L0.319278707,3.81536151 L0.319278707,4.81536151 C0.319278707,4.99169427 0.176332761,5.13464022 0,5.13464022 C-0.151142366,5.13464022 -0.277755645,5.02961871 -0.310846329,4.88856919 L-0.319278707,4.81536151 L-0.319278707,3.81536151 C-0.319278707,3.63902875 -0.176332761,3.4960828 0,3.4960828 Z M33.046335,2.15066819 C33.2226678,2.15066819 33.3656137,2.29361414 33.3656137,2.4699469 C33.3656137,2.62108926 33.2605922,2.74770254 33.1195427,2.78079323 L33.046335,2.7892256 L32.046335,2.7892256 C31.8700022,2.7892256 31.7270563,2.64627966 31.7270563,2.4699469 C31.7270563,2.31880453 31.8320778,2.19219125 31.9731273,2.15910057 L32.046335,2.15066819 L33.046335,2.15066819 Z M29.2250295,2.15066819 C29.4013623,2.15066819 29.5443082,2.29361414 29.5443082,2.4699469 C29.5443082,2.62108926 29.4392867,2.74770254 29.2982372,2.78079323 L29.2250295,2.7892256 L28.2250295,2.7892256 C28.0486967,2.7892256 27.9057508,2.64627966 27.9057508,2.4699469 C27.9057508,2.31880453 28.0107723,2.19219125 28.1518218,2.15910057 L28.2250295,2.15066819 L29.2250295,2.15066819 Z M25.403724,2.15066819 C25.5800567,2.15066819 25.7230027,2.29361414 25.7230027,2.4699469 C25.7230027,2.62108926 25.6179812,2.74770254 25.4769317,2.78079323 L25.403724,2.7892256 L24.403724,2.7892256 C24.2273912,2.7892256 24.0844453,2.64627966 24.0844453,2.4699469 C24.0844453,2.31880453 24.1894668,2.19219125 24.3305163,2.15910057 L24.403724,2.15066819 L25.403724,2.15066819 Z M21.5824185,2.15066819 C21.7587512,2.15066819 21.9016972,2.29361414 21.9016972,2.4699469 C21.9016972,2.62108926 21.7966757,2.74770254 21.6556261,2.78079323 L21.5824185,2.7892256 L20.5824185,2.7892256 C20.4060857,2.7892256 20.2631398,2.64627966 20.2631398,2.4699469 C20.2631398,2.31880453 20.3681613,2.19219125 20.5092108,2.15910057 L20.5824185,2.15066819 L21.5824185,2.15066819 Z M17.761113,2.15066819 C17.9374457,2.15066819 18.0803917,2.29361414 18.0803917,2.4699469 C18.0803917,2.62108926 17.9753701,2.74770254 17.8343206,2.78079323 L17.761113,2.7892256 L16.761113,2.7892256 C16.5847802,2.7892256 16.4418342,2.64627966 16.4418342,2.4699469 C16.4418342,2.31880453 16.5468558,2.19219125 16.6879053,2.15910057 L16.761113,2.15066819 L17.761113,2.15066819 Z M13.9398074,2.15066819 C14.1161402,2.15066819 14.2590861,2.29361414 14.2590861,2.4699469 C14.2590861,2.62108926 14.1540646,2.74770254 14.0130151,2.78079323 L13.9398074,2.7892256 L12.9398074,2.7892256 C12.7634747,2.7892256 12.6205287,2.64627966 12.6205287,2.4699469 C12.6205287,2.31880453 12.7255502,2.19219125 12.8665998,2.15910057 L12.9398074,2.15066819 L13.9398074,2.15066819 Z M10.1185019,2.15066819 C10.2948347,2.15066819 10.4377806,2.29361414 10.4377806,2.4699469 C10.4377806,2.62108926 10.3327591,2.74770254 10.1917096,2.78079323 L10.1185019,2.7892256 L9.11850193,2.7892256 C8.94216917,2.7892256 8.79922322,2.64627966 8.79922322,2.4699469 C8.79922322,2.31880453 8.90424473,2.19219125 9.04529425,2.15910057 L9.11850193,2.15066819 L10.1185019,2.15066819 Z M6.29719641,2.15066819 C6.47352917,2.15066819 6.61647512,2.29361414 6.61647512,2.4699469 C6.61647512,2.62108926 6.51145361,2.74770254 6.37040409,2.78079323 L6.29719641,2.7892256 L5.29719641,2.7892256 C5.12086365,2.7892256 4.97791771,2.64627966 4.97791771,2.4699469 C4.97791771,2.31880453 5.08293922,2.19219125 5.22398874,2.15910057 L5.29719641,2.15066819 L6.29719641,2.15066819 Z M2.4758909,2.15066819 C2.65222366,2.15066819 2.79516961,2.29361414 2.79516961,2.4699469 C2.79516961,2.62108926 2.6901481,2.74770254 2.54909858,2.78079323 L2.4758909,2.7892256 L1.4758909,2.7892256 C1.29955814,2.7892256 1.15661219,2.64627966 1.15661219,2.4699469 C1.15661219,2.31880453 1.2616337,2.19219125 1.40268322,2.15910057 L1.4758909,2.15066819 L2.4758909,2.15066819 Z" fill-rule="nonzero"></path>
                    <ellipse id="Oval" cx="33.046335" cy="2.4699469" rx="2.46864246" ry="2.4699469"></ellipse>
                </g>
                <g id="Group-43-Copy-21" transform="translate(150.091031, 191.509650) scale(-1, 1) translate(-150.091031, -191.509650) translate(138.267362, 166.393935)" fill="#2B2B2B">
                    <path id="Line-6-Copy" d="M6.65380854,46.4603975 L6.61297405,49.8002551 C6.6666132,49.7613231 6.73279254,49.7386968 6.80416018,49.7395536 L7.80408812,49.7515584 C7.98040817,49.7536752 8.12162779,49.8983269 8.11951096,50.0746469 C8.11769653,50.2257784 8.01116262,50.3511218 7.86972603,50.3825168 L7.79642239,50.3900698 L6.79649445,50.378065 C6.72519797,50.377209 6.6596406,50.3530478 6.60697837,50.3129113 L6.56746089,53.6526663 L-0.388860866,49.9724986 L6.65380854,46.4603975 Z M18.2672506,49.8771751 L19.2671786,49.8891799 C19.4434986,49.8912967 19.5847182,50.0359484 19.5826014,50.2122684 C19.580787,50.3633999 19.4742531,50.4887433 19.3328165,50.5201383 L19.2595128,50.5276913 L18.2595849,50.5156865 C18.0832649,50.5135697 17.9420452,50.368918 17.9441621,50.192598 C17.9462789,50.0162779 18.0909306,49.8750583 18.2672506,49.8771751 Z M14.4462205,49.8313013 L15.4461484,49.843306 C15.6224685,49.8454229 15.7636881,49.9900745 15.7615713,50.1663946 C15.7597568,50.3175261 15.6532229,50.4428695 15.5117863,50.4742645 L15.4384827,50.4818174 L14.4385548,50.4698127 C14.2622347,50.4676958 14.1210151,50.3230442 14.1231319,50.1467241 C14.1252488,49.9704041 14.2699004,49.8291844 14.4462205,49.8313013 Z M10.6251903,49.7854274 L11.6251183,49.7974322 C11.8014383,49.799549 11.9426579,49.9442007 11.9405411,50.1205208 C11.9387267,50.2716522 11.8321928,50.3969956 11.6907562,50.4283907 L11.6174525,50.4359436 L10.6175246,50.4239388 C10.4412046,50.421822 10.2999849,50.2771703 10.3021018,50.1008503 C10.3042186,49.9245302 10.4488703,49.7833106 10.6251903,49.7854274 Z M21.1786957,48.0063344 C21.3298381,48.0063344 21.4564514,48.1113559 21.489542,48.2524054 L21.4979744,48.3256131 L21.4979744,49.3256131 C21.4979744,49.5019458 21.3550285,49.6448918 21.1786957,49.6448918 C21.0275533,49.6448918 20.9009401,49.5398703 20.8678494,49.3988207 L20.859417,49.3256131 L20.859417,48.3256131 C20.859417,48.1492803 21.0023629,48.0063344 21.1786957,48.0063344 Z M21.1786957,44.1850288 C21.3298381,44.1850288 21.4564514,44.2900503 21.489542,44.4310999 L21.4979744,44.5043075 L21.4979744,45.5043075 C21.4979744,45.6806403 21.3550285,45.8235863 21.1786957,45.8235863 C21.0275533,45.8235863 20.9009401,45.7185647 20.8678494,45.5775152 L20.859417,45.5043075 L20.859417,44.5043075 C20.859417,44.3279748 21.0023629,44.1850288 21.1786957,44.1850288 Z M21.1786957,40.3637233 C21.3298381,40.3637233 21.4564514,40.4687448 21.489542,40.6097944 L21.4979744,40.683002 L21.4979744,41.683002 C21.4979744,41.8593348 21.3550285,42.0022807 21.1786957,42.0022807 C21.0275533,42.0022807 20.9009401,41.8972592 20.8678494,41.7562097 L20.859417,41.683002 L20.859417,40.683002 C20.859417,40.5066693 21.0023629,40.3637233 21.1786957,40.3637233 Z M21.1786957,36.5424178 C21.3298381,36.5424178 21.4564514,36.6474393 21.489542,36.7884888 L21.4979744,36.8616965 L21.4979744,37.8616965 C21.4979744,38.0380293 21.3550285,38.1809752 21.1786957,38.1809752 C21.0275533,38.1809752 20.9009401,38.0759537 20.8678494,37.9349042 L20.859417,37.8616965 L20.859417,36.8616965 C20.859417,36.6853638 21.0023629,36.5424178 21.1786957,36.5424178 Z M21.1786957,32.7211123 C21.3298381,32.7211123 21.4564514,32.8261338 21.489542,32.9671833 L21.4979744,33.040391 L21.4979744,34.040391 C21.4979744,34.2167238 21.3550285,34.3596697 21.1786957,34.3596697 C21.0275533,34.3596697 20.9009401,34.2546482 20.8678494,34.1135987 L20.859417,34.040391 L20.859417,33.040391 C20.859417,32.8640582 21.0023629,32.7211123 21.1786957,32.7211123 Z M21.1786957,28.8998068 C21.3298381,28.8998068 21.4564514,29.0048283 21.489542,29.1458778 L21.4979744,29.2190855 L21.4979744,30.2190855 C21.4979744,30.3954183 21.3550285,30.5383642 21.1786957,30.5383642 C21.0275533,30.5383642 20.9009401,30.4333427 20.8678494,30.2922932 L20.859417,30.2190855 L20.859417,29.2190855 C20.859417,29.0427527 21.0023629,28.8998068 21.1786957,28.8998068 Z M21.1786957,25.0785013 C21.3298381,25.0785013 21.4564514,25.1835228 21.489542,25.3245723 L21.4979744,25.39778 L21.4979744,26.39778 C21.4979744,26.5741127 21.3550285,26.7170587 21.1786957,26.7170587 C21.0275533,26.7170587 20.9009401,26.6120372 20.8678494,26.4709877 L20.859417,26.39778 L20.859417,25.39778 C20.859417,25.2214472 21.0023629,25.0785013 21.1786957,25.0785013 Z M21.1786957,21.2571958 C21.3298381,21.2571958 21.4564514,21.3622173 21.489542,21.5032668 L21.4979744,21.5764745 L21.4979744,22.5764745 C21.4979744,22.7528072 21.3550285,22.8957532 21.1786957,22.8957532 C21.0275533,22.8957532 20.9009401,22.7907317 20.8678494,22.6496821 L20.859417,22.5764745 L20.859417,21.5764745 C20.859417,21.4001417 21.0023629,21.2571958 21.1786957,21.2571958 Z M21.1786957,17.4358902 C21.3298381,17.4358902 21.4564514,17.5409118 21.489542,17.6819613 L21.4979744,17.755169 L21.4979744,18.755169 C21.4979744,18.9315017 21.3550285,19.0744477 21.1786957,19.0744477 C21.0275533,19.0744477 20.9009401,18.9694261 20.8678494,18.8283766 L20.859417,18.755169 L20.859417,17.755169 C20.859417,17.5788362 21.0023629,17.4358902 21.1786957,17.4358902 Z M21.1786957,13.6145847 C21.3298381,13.6145847 21.4564514,13.7196062 21.489542,13.8606558 L21.4979744,13.9338634 L21.4979744,14.9338634 C21.4979744,15.1101962 21.3550285,15.2531421 21.1786957,15.2531421 C21.0275533,15.2531421 20.9009401,15.1481206 20.8678494,15.0070711 L20.859417,14.9338634 L20.859417,13.9338634 C20.859417,13.7575307 21.0023629,13.6145847 21.1786957,13.6145847 Z M21.1786957,9.79327922 C21.3298381,9.79327922 21.4564514,9.89830073 21.489542,10.0393502 L21.4979744,10.1125579 L21.4979744,11.1125579 C21.4979744,11.2888907 21.3550285,11.4318366 21.1786957,11.4318366 C21.0275533,11.4318366 20.9009401,11.3268151 20.8678494,11.1857656 L20.859417,11.1125579 L20.859417,10.1125579 C20.859417,9.93622516 21.0023629,9.79327922 21.1786957,9.79327922 Z M21.1786957,5.9719737 C21.3298381,5.9719737 21.4564514,6.07699522 21.489542,6.21804473 L21.4979744,6.29125241 L21.4979744,7.29125241 C21.4979744,7.46758517 21.3550285,7.61053112 21.1786957,7.61053112 C21.0275533,7.61053112 20.9009401,7.50550961 20.8678494,7.36446009 L20.859417,7.29125241 L20.859417,6.29125241 C20.859417,6.11491965 21.0023629,5.9719737 21.1786957,5.9719737 Z M21.1786957,2.15066819 C21.3298381,2.15066819 21.4564514,2.2556897 21.489542,2.39673922 L21.4979744,2.4699469 L21.4979744,3.4699469 C21.4979744,3.64627966 21.3550285,3.7892256 21.1786957,3.7892256 C21.0275533,3.7892256 20.9009401,3.68420409 20.8678494,3.54315458 L20.859417,3.4699469 L20.859417,2.4699469 C20.859417,2.29361414 21.0023629,2.15066819 21.1786957,2.15066819 Z" fill-rule="nonzero"></path>
                    <ellipse id="Oval" cx="21.1786957" cy="2.4699469" rx="2.46864246" ry="2.4699469"></ellipse>
                </g>
                <text id="19%-copy" font-family="ModernEra-Bold, Modern Era" font-size="10.5798963" font-weight="bold" line-spacing="20.4544661" fill="#2B2B2B">
                    <tspan x="172.177693" y="215.54013">19%</tspan>
                </text>
                <text id="17.5%-copy" font-family="ModernEra-Bold, Modern Era" font-size="10.5798963" font-weight="bold" line-spacing="20.4544661" fill="#2B2B2B">
                    <tspan x="22.984275" y="176.330645">17.5%</tspan>
                </text>
                <text id="10%-copy" font-family="ModernEra-Bold, Modern Era" font-size="10.5798963" font-weight="bold" line-spacing="20.4544661" fill="#2B2B2B">
                    <tspan x="0.379141411" y="130.610532">10%</tspan>
                </text>
                <text id="7.5%-copy" font-family="ModernEra-Bold, Modern Era" font-size="10.5798963" font-weight="bold" line-spacing="20.4544661" fill="#2B2B2B">
                    <tspan x="35.3904281" y="33.0611291">7.5%</tspan>
                </text>
                <text id="6.2%-copy" font-family="ModernEra-Bold, Modern Era" font-size="10.5798963" font-weight="bold" line-spacing="20.4544661" fill="#2B2B2B">
                    <tspan x="75.9496167" y="10.0054041">6.2%</tspan>
                </text>
                <text id="5%-copy" font-family="ModernEra-Bold, Modern Era" font-size="10.5798963" font-weight="bold" line-spacing="20.4544661" fill="#2B2B2B">
                    <tspan x="179.225274" y="19.1337127">5%</tspan>
                </text>
            </g>
        </g>
    </g>
</svg>