<svg xmlns="http://www.w3.org/2000/svg" xmlns:xlink="http://www.w3.org/1999/xlink" width="1024" height="234" viewBox="0 0 1024 234">
    <defs>
        <linearGradient id="2iw4wqhkhb" x1="157.289%" x2="-4.679%" y1="45.466%" y2="52.338%">
            <stop offset="0%" stop-color="#FAF4EA"/>
            <stop offset="100%" stop-color="#FFA600"/>
        </linearGradient>
        <linearGradient id="56g6ec9yyc" x1="-47.089%" x2="100%" y1="-48.136%" y2="99.959%">
            <stop offset="0%" stop-color="#FAF4EA"/>
            <stop offset="100%" stop-color="#FFA600"/>
        </linearGradient>
        <linearGradient id="85fw4mtple" x1="-46.971%" x2="99.939%" y1="-48.216%" y2="100%">
            <stop offset="0%" stop-color="#FAF4EA"/>
            <stop offset="100%" stop-color="#FFA600"/>
        </linearGradient>
        <linearGradient id="1h8re3qiuf" x1="157.289%" x2="-4.679%" y1="-36.772%" y2="94.747%">
            <stop offset="0%" stop-color="#FAF4EA"/>
            <stop offset="100%" stop-color="#FFA600"/>
        </linearGradient>
        <rect id="h5aiv59r3a" width="1024" height="234" x="0" y="0" rx="30"/>
    </defs>
    <g fill="none" fill-rule="evenodd">
        <g>
            <g transform="translate(-208.000000, -8791.000000) translate(208.000000, 8791.000000)">
                <mask id="vndethdzud" fill="#fff">
                    <use xlink:href="#h5aiv59r3a"/>
                </mask>
                <use fill="url(#2iw4wqhkhb)" fill-rule="nonzero" opacity=".278" xlink:href="#h5aiv59r3a"/>
                <ellipse cx="19.613" cy="269.862" fill="url(#56g6ec9yyc)" fill-rule="nonzero" mask="url(#vndethdzud)" rx="214.588" ry="214.5"/>
                <ellipse cx="903.315" cy="406.927" fill="url(#85fw4mtple)" fill-rule="nonzero" mask="url(#vndethdzud)" opacity=".599" rx="332.047" ry="332.25"/>
                <ellipse cx="1118.154" cy="-39.073" fill="url(#85fw4mtple)" fill-rule="nonzero" mask="url(#vndethdzud)" opacity=".599" rx="332.047" ry="332.25"/>
                <path fill="url(#1h8re3qiuf)" fill-rule="nonzero" d="M-121.705-103.143c-15.473 147.17 91.325 279.015 238.54 294.483 147.216 15.468 279.1-91.297 294.574-238.468 15.473-147.17-91.325-279.014-238.54-294.483-147.216-15.468-279.101 91.298-294.574 238.468z" mask="url(#vndethdzud)" opacity=".455"/>
                <path fill="url(#1h8re3qiuf)" fill-rule="nonzero" d="M937.683 343.357c-15.473 147.17 91.325 279.015 238.54 294.483 147.216 15.468 279.101-91.297 294.574-238.468 15.473-147.17-91.325-279.014-238.54-294.483-147.216-15.468-279.101 91.298-294.574 238.468z" mask="url(#vndethdzud)" opacity=".21"/>
            </g>
        </g>
    </g>
</svg>
