<svg xmlns="http://www.w3.org/2000/svg" width="100%" height="548" viewBox="0 0 663 548">
    <defs>
        <linearGradient id="ofgryv65qa" x1="-46.465%" x2="99.679%" y1="-48.216%" y2="100%">
            <stop offset="0%" stop-color="#FAF4EA"/>
            <stop offset="100%" stop-color="#FFA600"/>
        </linearGradient>
        <linearGradient id="fmnm5wi54b" x1="67.286%" x2="32.956%" y1="33.022%" y2="63.149%">
            <stop offset="0%" stop-color="#FF9D54"/>
            <stop offset="100%" stop-color="#FD5F22"/>
        </linearGradient>
        <linearGradient id="5dk3iaolwc" x1="70.638%" x2="50%" y1="66.585%" y2="28.333%">
            <stop offset="0%" stop-color="#FFAA0D"/>
            <stop offset="100%" stop-color="#FFD56E"/>
        </linearGradient>
        <linearGradient id="9m5b6mh4ud" x1="75.125%" x2="40.071%" y1="49.287%" y2="50.713%">
            <stop offset="0%" stop-color="#442918"/>
            <stop offset="100%" stop-color="#1A0902"/>
        </linearGradient>
        <linearGradient id="iyradvkche" x1="67.85%" x2="11.176%" y1="50%" y2="50%">
            <stop offset="0%" stop-color="#8D3E14"/>
            <stop offset="100%" stop-color="#341702"/>
        </linearGradient>
        <linearGradient id="csa55f861g" x1="51.658%" x2="41.666%" y1="46.33%" y2="50%">
            <stop offset="0%" stop-color="#642C0F"/>
            <stop offset="100%"/>
        </linearGradient>
        <linearGradient id="ml5ix8q47h" x1="50%" x2="50%" y1="0%" y2="100%">
            <stop offset="0%" stop-color="#FDD23A"/>
            <stop offset="100%" stop-color="#FAA61B"/>
        </linearGradient>
        <linearGradient id="jiivzkuxoi" x1="50%" x2="50%" y1="0%" y2="100%">
            <stop offset="0%" stop-color="#E7AA2F"/>
            <stop offset="100%" stop-color="#C47D2A"/>
        </linearGradient>
        <linearGradient id="r7u6n3yjij" x1="50%" x2="50%" y1="0%" y2="100%">
            <stop offset="0%" stop-color="#E2572F"/>
            <stop offset="100%" stop-color="#A93824"/>
        </linearGradient>
        <linearGradient id="yfor8iehak" x1="50%" x2="50%" y1="0%" y2="100%">
            <stop offset="0%" stop-color="#FF6F32"/>
            <stop offset="100%" stop-color="#E55C27"/>
        </linearGradient>
        <linearGradient id="afe3tj6g6l" x1="71.539%" x2="35.066%" y1="50%" y2="50%">
            <stop offset="0%" stop-color="#B23E0B"/>
            <stop offset="100%" stop-color="#89331B"/>
        </linearGradient>
        <linearGradient id="6m9d6oj9um" x1="50%" x2="50%" y1="0%" y2="100%">
            <stop offset="0%" stop-color="#E2572F"/>
            <stop offset="100%" stop-color="#A93824"/>
        </linearGradient>
        <linearGradient id="vzezrgxt4n" x1="50%" x2="50%" y1="0%" y2="100%">
            <stop offset="0%" stop-color="#FB8242"/>
            <stop offset="100%" stop-color="#E55C27"/>
        </linearGradient>
        <linearGradient id="kgmd0hd7fo" x1="71.539%" x2="35.066%" y1="50%" y2="50%">
            <stop offset="0%" stop-color="#B23E0B"/>
            <stop offset="100%" stop-color="#89331B"/>
        </linearGradient>
        <radialGradient id="f5sbxa9s4f" cx="62.085%" cy="50%" r="62.576%" fx="62.085%" fy="50%">
            <stop offset="0%" stop-color="#FDD23A"/>
            <stop offset="100%" stop-color="#FAA61B"/>
        </radialGradient>
    </defs>
    <g fill="none" fill-rule="evenodd">
        <g>
            <g transform="translate(-569 -184) translate(569 184)">
                <path fill="url(#ofgryv65qa)" fill-rule="nonzero" d="M582.843 272.864c.632 97.904-51.235 188.642-135.918 237.777-84.683 49.135-189.199 49.135-273.882 0-84.682-49.135-136.55-139.873-135.918-237.777C37.125 122.16 159.285 0 309.978 0c150.694 0 272.865 122.16 272.865 272.864z" opacity=".558"/>
                <g>
                    <path stroke="#010101" stroke-linecap="round" stroke-linejoin="round" stroke-width=".778" d="M127.22 142.407c28.671-9.987 34.885-24.757 36.048-27.844 9.372-24.836-17.453-62.322-73.446-80.124" transform="rotate(1 -9192.421 244.65)"/>
                    <path stroke="#E45D26" stroke-linecap="round" stroke-linejoin="round" stroke-width=".778" d="M118.533 146.516c72.043-27.713 34.27-82.918-37.555-107.969" transform="rotate(1 -9192.421 244.65)"/>
                    <path fill="url(#fmnm5wi54b)" fill-rule="nonzero" d="M75.714 8.534C63.305 4.76 32.1-3.189 2.85 2.04c-1.15.204-2.053.947-2.315 1.904-.263.958.162 1.956 1.09 2.558 9.351 6.034 29.428 19.758 39.003 32.27.57.748 1.57 1.188 2.629 1.16 1.06-.03 2.022-.523 2.533-1.3 2.235-3.423 6.424-8.597 14.026-14.638 5.141-4.051 10.685-7.73 16.57-10.997.946-.53 1.453-1.46 1.31-2.405-.142-.944-.91-1.74-1.983-2.058z" transform="rotate(1 -9192.421 244.65)"/>
                    <path fill="#010101" fill-rule="nonzero" d="M42.85 15.001c.372.107.733.221 1.094.344l.254.09h.079l.673.253c.538.204 1.075.416 1.602.637 2.74 1.113 5.27 2.555 7.511 4.28 1.407 1.091 2.6 2.36 3.536 3.759.762 1.152 2.872.122 2.11-1.03-3.077-4.689-8.918-7.818-14.651-9.803-.508-.172-.977-.343-1.524-.49-1.494-.425-2.13 1.544-.654 1.969L42.85 15z" transform="rotate(1 -9192.421 244.65)"/>
                    <path fill="#E04D23" fill-rule="nonzero" d="M67.577 16.787c.897 21.188.763 8.811-15.553 12.877 5.424-5.246 8.387-8.147 15.553-12.877z" transform="rotate(1 -9192.421 244.65)"/>
                    <path fill="#010101" fill-rule="nonzero" d="M66.883 16.804C60.69 20.51 56.317 24.63 51.034 29.681c11.568-1.523 3.775-1.764 15.849-12.877z" transform="rotate(1 -9192.421 244.65)"/>
                </g>
                <g>
                    <g stroke-linecap="round" stroke-linejoin="round" stroke-width=".778">
                        <path stroke="#010101" d="M26.609 87.159C5.72 77.476 1.717 64.99.975 62.376-4.969 41.417 16.504 11.856 58.8 0" transform="rotate(18 -472.89 1814.129) rotate(-1 1741.264 -18.557)"/>
                        <path stroke="#E45D26" d="M33.446 90.714C12.575 81.036 8.565 68.536 7.828 65.917c-5.944-20.945 15.556-50.52 57.82-62.362" transform="rotate(18 -472.89 1814.129) rotate(-1 1741.264 -18.557)"/>
                    </g>
                    <g fill-rule="nonzero">
                        <path fill="url(#5dk3iaolwc)" d="M1.446 6.838c9.18-3.147 32.25-9.733 54.094-5.413 1.876.37 2.467 2.623.967 3.708-6.874 5.038-21.623 16.495-28.579 26.933-.39.616-1.15.99-1.963.966-.813-.025-1.541-.444-1.88-1.082-1.704-2.86-4.886-7.193-10.589-12.218-3.846-3.359-8.018-6.429-12.47-9.177-1.542-.954-1.3-3.128.42-3.717z" transform="rotate(18 -472.89 1814.129) rotate(3 25.794 1381.994)"/>
                        <path fill="#010101" d="M24.182 11.181c-3.27 1.06-6.224 2.736-8.648 4.904-1.067.96-1.96 2.054-2.65 3.244-.382.668.779 1.256 1.16.584 1.925-3.379 5.73-5.747 9.617-7.286l.419-.157h.048l.135-.051.274-.093c.806-.26.457-1.39-.355-1.117v-.028z" transform="rotate(18 -472.89 1814.129) rotate(3 25.794 1381.994)"/>
                        <path fill="#E06E26" d="M6.525 14.143c-.42 17.677-.473 7.35 12.212 10.743-4.273-4.375-6.606-6.794-12.212-10.743z" transform="rotate(18 -472.89 1814.129) rotate(3 25.794 1381.994)"/>
                        <path fill="#010101" d="M6.805 14.407c4.649 3.017 7.938 6.368 11.932 10.48-8.605-1.266-2.827-1.433-11.932-10.48z" transform="rotate(18 -472.89 1814.129) rotate(3 25.794 1381.994)"/>
                    </g>
                </g>
                <path fill="#A93824" fill-rule="nonzero" d="M350.212 411.985l-95.743-32.283c-12.644-4.264-21.163-16.114-21.176-29.457l-.25-257.133c-.01-7.172 3.164-13.978 8.663-18.581 5.499-4.604 12.756-6.53 19.814-5.261l1.026.205c.375.091.763.182 1.139.296-.743 1.74-1.378 3.525-1.903 5.342-.228.81-.444 1.64-.638 2.484l-2.517-.866-2.643-.911c-5.28-1.763-11.084-.878-15.599 2.377-4.514 3.255-7.187 8.483-7.183 14.049l.524 257.44c.023 13.342 8.545 25.185 21.187 29.447l95.3 32.852zM382.928 129.677l-.274 264.378c-.005 6.672-3.22 12.933-8.637 16.827-5.417 3.894-12.376 4.944-18.702 2.823l-4.249-1.435c5.26 1.707 11.018.792 15.49-2.46 4.47-3.252 7.114-8.449 7.11-13.978v-257.35c.002-13.376-8.548-25.256-21.233-29.503l-1.537-.524-3.02-1.048c.195-.831.365-1.674.502-2.528.376-2.14.608-4.3.695-6.47l3.998 1.344 1.55.524 9.466 3.178c11.262 3.784 18.847 14.34 18.84 26.222z"/>
                <path fill="#E55C27" fill-rule="nonzero" d="M373.655 138.483v257.35c.004 5.528-2.64 10.725-7.111 13.977-4.472 3.252-10.23 4.167-15.489 2.46l-.194-.057-.649-.228-95.401-32.886c-12.623-4.255-21.14-16.07-21.188-29.39L233.1 92.27c-.004-5.566 2.67-10.794 7.184-14.05 4.515-3.254 10.32-4.139 15.599-2.376l2.642.91 2.518.867c-.583 2.56-.964 5.16-1.14 7.78l-2.995-.98-5.206-1.697c-3.16-1.034-6.623-.49-9.313 1.463-2.69 1.953-4.28 5.077-4.277 8.402l.479 257.896c.02 10.448 6.738 19.706 16.665 22.965l97.429 31.895c3.159 1.038 6.624.497 9.317-1.454 2.692-1.95 4.286-5.074 4.284-8.4V137.663c.004-10.473-6.731-19.76-16.688-23.01l-1.14-.353-2.414-.786c.748-1.991 1.361-4.031 1.834-6.106l3.041 1.048 1.538.524c12.671 4.259 21.205 16.136 21.2 29.504z"/>
                <path fill="#F9EAD9" fill-rule="nonzero" d="M366.24 137.662v257.84c.001 3.325-1.592 6.449-4.285 8.4-2.693 1.95-6.158 2.491-9.317 1.453L255.21 373.46c-9.949-3.254-16.68-12.532-16.688-22.999l-.479-257.896c-.004-3.324 1.586-6.449 4.277-8.402 2.69-1.953 6.153-2.497 9.313-1.463l5.206 1.697 2.995.98c-.539 7.528.513 15.084 3.087 22.179 9.193 25.618 35.21 39.71 58.095 31.496 11.938-4.283 20.675-13.795 24.993-25.539l2.415.786 1.139.353c9.952 3.254 16.682 12.54 16.676 23.01z"/>
                <path fill="#F9AD42" fill-rule="nonzero" d="M334.823 109.731L334.823 109.845 267.307 87.803 267.307 87.575z"/>
                <path stroke="#231F20" stroke-width=".66" d="M413.786 339.548v.274c-.005-.023-.005-.046 0-.069-.005-.018-.005-.038 0-.056-.009-.05-.009-.1 0-.149h0z"/>
                <path fill="url(#9m5b6mh4ud)" fill-rule="nonzero" d="M467.963 339.697c0 1.788-12.132 3.235-27.1 3.235-14.615 0-26.541-1.379-27.077-3.11v-.274c.627-1.72 12.53-3.087 27.077-3.087 14.547 0 26.44 1.367 27.066 3.087.02.047.032.097.034.149z"/>
                <path fill="url(#iyradvkche)" fill-rule="nonzero" d="M467.963 339.697v107.02c-.022-.163-.144-.323-.36-.478.187.145.294.293.314.444.022.012.038.033.046.057 0 1.788-12.132 3.246-27.1 3.246-14.968 0-27.11-1.458-27.11-3.246-.006-.02-.006-.039 0-.057-.006-.023-.006-.046 0-.069.01-.034.024-.069.043-.103l.002-106.69c.535 1.732 12.462 3.11 27.077 3.11 14.956 0 27.088-1.446 27.088-3.234z"/>
                <path fill="#2B2B2A" fill-rule="nonzero" d="M467.963 339.548v.149c.009-.05.009-.1 0-.149z"/>
                <path fill="#464645" fill-rule="nonzero" d="M121.113 328.066l-.092.182.092-.182zM189.722 298.506c-.946-.25-2.176-.604-3.213-.82-.125 0 0 0-.239-.069l-3.839-.763h.08c-.24 0-.535 0-.786-.09 0 0 .08 0 0 0s-.456-.058-.558 0c-.103.056-.091-.058-.217-.08h-.148c-.41 0-.968-.114-1.526-.126 0 0 .08 0 0 0l-2.973-.17s.068 0 0-.07c-.203.04-.412.04-.615 0h-.763c-.228.058-.342 0-.524 0l-.149-.056c-.102.08-.33 0-.524 0h-1.036c.011 0 .376 0 .16-.114-1.276.103-2.586.091-3.874.205h-.273c-.2.017-.398.051-.592.103h-.16c-.24 0-.25.102-.501.08.091 0 .125 0 .091-.08-.251.064-.506.114-.763.148 0 0 .102 0 .091-.057-.247.06-.498.103-.752.125l.08-.057c-.399 0-.103.114-.456.125.091 0 .057 0 .069-.057-.375.099-.756.175-1.14.228-.365.03-.727.091-1.082.183-.136 0 0-.114-.33 0 0 .09-.615.148-.387.216-.341.037-.68.094-1.014.17.137-.068-.171-.09.091-.147h-.216s.205 0 .136-.057c-.068-.057-.501.136-.615.136-.26.143-.53.265-.809.365.171-.091-.125-.091 0-.137l-.49.32c-.125 0 0-.07-.227 0 0 0-.057.068-.114.102-.057.034-.524.148-.604.068-.08-.08.205-.068 0-.068s-.24.09-.478.148c-.171 0-.456.16-.274.17.182.012 0 0 .114-.056-.187.106-.391.179-.604.216.08 0 .069-.057.092-.09-.297.147-.627.272-.957.41 0 0 .102-.126.16-.115-.468.08-.89.376-1.288.399.057 0 0 0 0 0-.216.068-.228 0-.365.057-.136.057-.17.068-.307.125-.137.057 0 0 .08 0-.469.205-.952.372-1.447.501-.102.102-.221.183-.353.24v-.069c-.114 0-.353.137-.388.091-.193.16.832-.387.559-.216-.103 0-.388.25-.353.148-.19.11-.393.194-.604.25.057 0 .136-.147 0-.08-.137.07-.069.058-.308.172l-.136.08c0 .068-.274.09-.137.125-.057 0-.422.193-.422.08v-.092c-.125.057-.182.16-.273.24-.091.08-.057 0-.057 0s-.308.102-.421.25c-.273.103-.55.19-.832.262-.178.145-.378.26-.592.342 0 0 .102-.068.102-.091-.114.019-.221.07-.307.148 0 0-.32.068-.502.102-.182.035-.08.16-.08.205-.239 0-.535.33-.808.33.057 0 .262-.181.08-.136-.183.046-.33.25-.65.33l.114.069c-.16 0-.398.25-.421.148-.08.08-.353.148-.274.216-.512.183-1.139.661-1.492.661-.057 0-.228.125-.17.148.056.023.136-.114.193-.102.057.011-.057.068-.057.08 0 .01-.273.113-.182 0-.353.125-.25.33-.684.523h-.16l-.193.183c-.273.136-.194 0-.24 0-.045 0-.295.193-.33.284h-.216c.16 0-.091.103-.148.16v-.057c-.096.042-.185.1-.262.17 0 0 .205-.068.308-.113.102-.046-.171.137-.251.228-.08.09-.25.09-.365.16-.113.068-.102.136-.148.159-.045.022-.205.125-.136 0 .068-.126.125 0 .17-.103.046-.102-.113 0-.261.114-.149.114.102.091-.16.205.03-.043.058-.089.08-.137l-.24.114v.057s-.341.24-.353.33c-.01.092-.262.114-.375.183-.16.063-.297.17-.4.307-.115.071-.218.16-.307.262-.205.092-.193-.148-.353.057-.16.205-.216.297-.125.274-.327.246-.67.47-1.025.672 0 .057 0 0-.08.125-.501.308-.957.786-1.401.991.125-.125 0 0 0-.068 0-.069-.16.068-.148.16.011.09 0 .056.193 0-.263.247-.553.465-.865.649.09 0 0 0 0 .08s-.24.068-.376.216V310h-.137c0 .057 0 .125-.182.216h-.08c-.135.196-.3.368-.49.513l-.182.068c-.068.068-.16.194 0 .103-.19.158-.396.296-.615.41-.511.592-1.06 1.15-1.64 1.674-.16.126 0 .114-.149.194-.148.08-.159.068-.068-.068-.228.17-.228.296-.353.432-.125.137.091-.125.102-.057.012.069-.318.251-.307.33.011.08 0 0 0-.079l-.103.137c-.205.102.262-.433 0-.342l-.114.125c-.148.069.262-.353 0-.08-.102.149-.148.32 0 .217-.25.273 0 .228-.307.501-.103 0 .228-.228.137-.216-.091.011-.251.285-.376.398.136-.125.08 0 0 .126-.08.125 0-.137-.148.068 0 .057-.171.273 0 .125 0 .126-.217.194-.285.354-.068.159.114-.297-.114-.092.068 0-.216.33 0 .262-.091.08-.125.057-.091 0-.137.103-.228.365-.342.342v.08l-.194.125c-.102.114-.296.41-.341.353-.046-.057-.274.296-.137.228.137-.068.137-.205.273-.25-.125.085-.223.203-.284.341 0 .057-.16.183-.16.24 0 .056 0 0 0 0v.09c-.182.24-.102 0-.285.24l.023-.433c-.076.064-.148.133-.216.205.007.076.007.152 0 .228-.103.148-.08 0-.16.182l.103-.194s-.137.08-.285.251c-.148.17-.194.319 0 .16-.068.08-.194.193-.148.102-.16.205 0 0-.08.182l-.421.353.102-.216-.102.125c.09-.182-.091 0-.057-.068-.069.08-.137.194-.194.273.25-.193-.125.342 0 .308-.25.342-.285.102-.478.512.057 0 0 .149.114-.068-.171.194 0 .171-.274.399.125-.194-.205.148 0-.125 0 0 .125-.137.148-.183.023-.045 0-.057-.205.16-.205.216-.228.307-.182.296.046-.011.148-.194.114-.091-.034.102-.274.273-.308.41.126-.16.183-.182.205-.16l-.136.194c-.262.285 0 .103-.274.399l-.136.114c0-.091.33-.422.25-.41-.148.193-.17.273-.319.455l.091-.148c-.143.105-.26.241-.341.399-.092.148 0 0 0 .057l-.433.626c0-.057-.262.353-.126.114.182-.209.338-.438.467-.683-.125.09.194-.24.194-.33-.182.25-.216.204-.273.227-.057.023-.08.148-.114.194-.034.045.068 0 .102 0-.18.227-.343.467-.49.718-.08.09-.08 0 0-.069l-.717 1.025c.182-.182-.228.365-.114.24.114-.126.262-.297.205-.194-.057.102 0 0 0 0s-.182.205-.25.353c.204-.319 0-.08 0-.16-.137.24 0 0-.16.206l-.467.774c-.228.308-.513.809-.695 1.14-.182.33 0 0-.16.204-.159.205.103-.136-.08.148-.124.203-.238.412-.34.627v-.103l-.195-.045s0 .057 0 0c-.113.17-.216.364-.33.57l.08-.126-.49.889-.103.193c-.048.073-.09.149-.125.228l.262-.512c.08-.137-.08.159 0 .08.08-.08.205-.377.228-.434l-.114.217.114-.228-.091.16.228-.445c-.069.137 0-.068 0 0 .07-.153.15-.301.239-.444.114-.17.25-.467.41-.74 0 .113-.125.273-.216.444.125-.205.102-.171.216-.376s0-.16.182-.387c.126-.205.103-.217.262-.479.285-.433.547-.9.775-1.241.091-.206.387-.627.535-.889.239-.395.501-.776.786-1.14.494-.751 1.026-1.477 1.595-2.175l-.068.16c.08-.16.09-.08.182-.205-.137.125.102-.217.148-.32.281-.338.544-.692.786-1.059.241-.356.516-.687.82-.99.083-.043.154-.105.205-.183.12-.22.257-.429.41-.627.183-.205.49-.524.695-.706.645-.797 1.333-1.557 2.062-2.278h.091c.71-.79 1.47-1.532 2.278-2.221v.125c.217-.16.445-.433.342-.433.228-.16.478-.501.66-.558.183-.057.24-.25.41-.41.358-.245.697-.515 1.015-.809l-.103.08s0 .091.103 0c.102-.091.58-.433.353-.41.472-.417.975-.797 1.503-1.14 0 0 0-.09.08-.136.395-.252.775-.526 1.14-.82.068 0-.07.125.102 0 .17-.126 0 0 .08-.137.639-.462 1.309-.88 2.004-1.253.536-.376 1.14-.74 1.652-1.139l1.697-.923c.32-.296.912-.376 1.14-.672.102 0 .341-.17.307-.09.262-.206.866-.331 1.264-.616l-.102.068c.467-.148.82-.41 1.31-.57 0 0-.125.08-.125.115.205 0 .376-.308.535-.228.16.08 0-.091 0-.069l3.224-1.344c.808-.216.114.194.706-.136.057 0 0-.057 0 0 .228-.137.421 0 .57-.114-.103-.057.102-.08.09-.126.342-.027.676-.107.992-.239v.057c.421-.262.957-.364 1.298-.615 1.242-.41 2.506-.66 3.725-1.002 1.22-.342 2.483-.502 3.737-.73 2.49-.351 5.002-.526 7.518-.523.434.057.875.057 1.31 0 0 0-.069 0 0 0 .068 0 .455 0 .524-.08l2.78.125c-.16 0-.24 0 0 0h.329c2.397.185 4.778.524 7.131 1.014l1.948.421c1.766.456 3.338.9 5.092 1.481l-1.002-.182zM121.272 327.736s.125-.25.057-.091c-.068.16-.057.114-.057.09z"/>
                <path fill="#464645" fill-rule="nonzero" d="M124.211 322.929l.068-.069c0 .057-.068.114-.102.16.016-.029.027-.06.034-.091zM125.031 321.744c-.073.156-.16.305-.262.444l.262-.444zM125.885 320.719c.08-.091.069-.057 0 .068-.068.125-.01-.045 0-.068zM125.908 320.616c.069-.09.114-.125.148-.17.035-.046-.148.216-.148.17zM127.754 318.372c.044-.088.106-.165.182-.228 0 0-.194.285-.182.228zM128.597 317.324l.08-.09c.056-.058 0 0 0 .079l-.08.011zM147.757 302.299L147.631 302.368 147.643 302.322zM157.792 298.45c.137-.058.114 0 .137 0h-.137zM163.419 297.059L163.385 297.071 163.385 296.991zM205.043 306.184l-.103.182.103-.182zM265.655 320.616c-.182-1.036-.273-2.415-.558-3.531v-.273c-.296-1.071-.58-2.814-.968-4.113v.08c-.068-.25-.205-.547-.273-.809 0 0 0 .08 0 0s-.16-.467-.217-.57c.005-.079.005-.159 0-.238l-.057-.183c-.194-.387-.319-1.002-.592-1.537 0 0 0 .068 0 0-.422-.855-.798-1.994-1.287-2.94h.068c-.147-.171-.27-.363-.365-.569 0-.137-.262-.421-.376-.729-.159-.194-.136-.342-.284-.49v-.16c-.114-.056-.114-.341-.25-.5-.103-.16-.103-.274-.217-.422-.228-.342-.32-.57-.365-.535 0-.148.228.341.171.102-.775-1.139-1.447-2.403-2.278-3.497-.052-.085-.09-.177-.114-.273-.132-.171-.272-.335-.422-.49 0 0 0-.103-.068-.16-.068-.057-.228-.17-.364-.421.09.08.125.091.125 0s-.365-.41-.57-.604c0 0 .08.069.103 0-.262-.182-.365-.433-.57-.604h.103c-.24-.364-.16 0-.376-.33.068.057 0 0 .08 0-.285-.216-.638-.66-.889-.9-.249-.311-.531-.594-.843-.843-.091-.114.125 0-.182-.307-.057.08-.513-.445-.422-.194-.247-.276-.51-.538-.786-.786.137.08 0-.205.171 0l-.114-.194s.148.16.137.08c-.011-.08-.433-.364-.524-.455-.301-.11-.588-.255-.854-.433.182.09 0-.16.102-.091l-.592-.217c-.114-.08 0-.08-.148-.182-.148-.103-.091 0-.148 0-.057 0-.479-.353-.467-.467.011-.114.193.125.09 0-.102-.126-.238-.137-.443-.296-.126-.114-.445-.24-.32-.092.126.149 0-.08.126 0-.22-.071-.426-.175-.615-.307h.136c-.35-.138-.693-.298-1.025-.479h.205c-.387-.33-.911-.478-1.219-.786.069 0 0 .08 0 .057-.216-.102-.17-.159-.318-.216-.149-.057-.183-.068-.342-.137-.16-.068 0 0 .102 0-.52-.185-1.02-.421-1.492-.706 0 0-.33 0-.433-.102h.069c-.08-.092-.365-.171-.365-.228-.25 0 .923.364.581.273-.057-.091-.467-.125-.365-.17-.227-.058-.449-.138-.66-.24 0 0 .216 0 0-.08-.217-.08-.103 0-.376-.08h-.171s-.285-.113-.194 0c0-.068-.467-.148-.398-.227l.068-.069c-.124-.023-.252-.023-.376 0 0 0-.33-.136-.524-.102-.273-.171-.752-.205-.877-.33-.244-.01-.485-.053-.718-.126h.148c-.11-.053-.23-.08-.353-.08-.158-.088-.322-.168-.49-.239-.239 0-.17.057-.205.091-.182-.17-.66-.08-.91-.216.079 0 .352 0 .159-.068-.194-.069-.445 0-.786-.069l.068.114c-.137-.08-.513 0-.467-.114.045-.114-.399-.08-.376 0-.558-.17-1.378-.136-1.72-.285h-.25H235.285c-.182 0-.319 0-.148-.113-.398-.069-.41.17-.911.125h-.16l-.284.068c-.32 0-.182-.102-.194-.17-.155-.023-.312-.023-.467 0l-.216-.069c.16 0-.137 0-.217.091h.08c-.114-.014-.228-.014-.342 0h.353c-.09 0-.227.057-.341.103-.114.045-.285 0-.422 0s-.17.08-.216.08h-.148.216c-.102 0-.102-.08-.308 0-.205.08 0 .125-.261.125.052-.025.101-.056.148-.091h-.297s-.432.068-.49.148c-.056.08-.318 0-.455 0-.184-.003-.365.045-.524.136-.147.023-.29.07-.422.137-.239 0-.113-.205-.353-.068-.239.136-.353.182-.239.205-.433 0-.888.25-1.298.262-.057 0 0 0-.137.08-.566.229-1.149.416-1.743.558.16-.08 0 0 0-.08s-.194 0-.216.114c-.023.114 0 .068.205 0-.369.158-.75.283-1.14.376.103 0 0 0 0 .08s-.262 0-.444.136v.057h-.182c-.068 0 0 .125-.25.171-.027-.008-.054-.008-.08 0-.198.164-.422.294-.661.387h-.205c-.091 0-.228.148-.057.091-.247.108-.502.196-.763.262-.656.525-1.362.983-2.108 1.367-.205.091-.068.103-.216.171 0-.068-.17 0 0-.09-.273.147-.296.272-.456.398-.16.125.114-.114.114 0s-.376.216-.376.296c0 .08-.057-.057 0-.091l-.136.125c-.24.08.353-.41.102-.342l-.137.114c-.17 0 .342-.33 0-.09-.136.136-.216.295-.068.227-.319.24-.068.216-.421.456-.114 0 .273-.194.182-.194-.168.102-.328.216-.479.342.183-.091.08 0 0 .125s.08-.125-.17 0c0 .057-.24.24 0 .125-.057.114-.285.16-.376.32-.091.159.17-.297-.103-.115.068 0-.285.32-.102.274-.114.068-.148 0-.092 0-.17.102-.307.364-.41.319v.08l-.227.113c-.126.103-.376.388-.41.32-.035-.069-.342.273-.194.216.148-.057.193-.194.342-.228-.143.079-.268.188-.365.319-.057.068-.205.17-.228.228-.023.057 0 0 0 0v.09c-.228.24-.102 0-.342.229l.171-.194s-.148.091-.25.194c-.103.102-.08.182-.091.239-.012.057-.091 0-.205.17l.148-.193s-.16.068-.342.228c-.182.16-.25.307 0 .16-.091.08-.228.182-.17.102-.206.194 0 0-.115.17l-.501.331.148-.205-.125.103c.136-.171-.103 0 0-.069-.09.082-.173.17-.25.262.295-.17-.195.33-.07.32-.318.33-.318.079-.58.489.068 0-.057.148.137-.068-.206.193-.092.182-.354.398.16-.193-.227.148 0-.136 0 0 .148-.126.183-.171.034-.046 0-.057-.24.148-.239.205-.284.296-.239.296.046 0 .194-.194.137-.091-.24.262-.319.262-.376.41.148-.16.216-.17.228-.16l-.171.194c-.308.274-.068.103-.342.387l-.16.114c0-.102.41-.41.32-.41-.194.183-.217.274-.399.445l.114-.137c-.163.094-.3.227-.399.387-.114.148 0 0 0 .069l-.524.615c0-.069-.319.353-.148.102.217-.203.412-.428.581-.672-.137.08.228-.24.25-.33-.227.239-.25.193-.318.216-.052.06-.098.125-.137.194h.103c-.22.227-.422.47-.604.729-.103.08-.091 0 0-.08-.296.33-.592.706-.877 1.025.216-.182-.285.376-.148.25.136-.124.307-.307.239-.193-.068.114 0 0-.057 0s-.205.194-.296.353c.25-.319 0-.09 0-.17-.171.239 0 0-.194.205s-.399.535-.58.786c-.183.25-.639.82-.855 1.139-.217.319-.069 0-.182.205-.114.205.113-.137-.103.148 0 .091-.399.524-.433.626v-.102l-.102.16s-.057.056 0 0c-.137.17-.262.387-.4.592l.092-.126-.604.9-.125.205-.148.24.319-.524c.091-.149-.103.159 0 .068.102-.091.262-.387.285-.433l-.137.216s.08-.148.137-.239l-.103.16.285-.445c-.091.137 0-.08 0 0 .087-.162.186-.318.296-.467.137-.17.32-.467.513-.751l-.274.455.274-.376c.067-.14.143-.278.228-.41.148-.216.136-.228.33-.49l.957-1.253c.125-.216.49-.638.683-.9.298-.396.618-.777.957-1.139.586-.737 1.214-1.44 1.88-2.107l-.092.148c.103-.148.103-.068.228-.194-.17.114.137-.216.205-.319.32-.307.707-.74.98-1.025.31-.343.65-.659 1.014-.945.089-.043.17-.1.239-.171.17-.212.356-.41.558-.592.228-.194.604-.479.843-.65.835-.746 1.714-1.442 2.632-2.084h.102c.929-.664 1.89-1.28 2.882-1.846v.126c.273-.103.592-.308.49-.342.274-.149.56-.275.854-.376.192-.093.375-.203.547-.33.558-.24.763-.33 1.299-.536h-.137s0 .08.102 0c.103-.08.752-.239.513-.285.63-.244 1.272-.453 1.925-.626 0 0 .091-.068.148-.103.508-.088 1.01-.206 1.504-.353.09 0-.126.091.09 0 .217-.09 0 0 .149-.102.836-.206 1.691-.32 2.552-.342 1.406-.207 2.83-.268 4.249-.182.467-.08 1.048.239 1.423.114.103 0 .41.068.32.114.375 0 1.002.182 1.526.193h-.125c.5.194.968.228 1.503.41h-.182c.194.103.524 0 .604.16.08.16.102 0 0-.057l.9.25.9.308 1.81.615c.798.456 0 .228.65.456.262.09.319.33.524.353 0-.114.137 0 .16 0 .289.23.612.414.956.547.524.102.98.512 1.424.626l1.789 1.14 1.651 1.275.82.638.752.706 1.504 1.424c1.86 1.997 3.487 4.199 4.853 6.562.172.44.398.856.672 1.241 0 0 0-.057 0 0s.25.433.341.456l1.31 2.722c-.068-.148-.148-.205-.068 0l.125.171c.069.114.16.24.114.103.547 1.196.946 2.449 1.39 3.668.444 1.219.695 2.506 1.037 3.736.125.615.296 1.458.421 2.107.41 1.925.513 3.702.775 5.696l-.388-.98zM205.236 305.842c0-.057.16-.25.069-.091l-.069.09z"/>
                <path fill="#464645" fill-rule="nonzero" d="M208.904 300.955l.069-.08c-.04.056-.081.109-.126.16l.057-.08zM209.85 299.77c-.1.152-.21.297-.33.433l.33-.433zM210.875 298.745c.103-.08.08 0 0 .069-.08.068-.011-.035 0-.069zM210.92 298.643c.05-.06.108-.114.172-.16 0 0-.183.205-.171.16zM213.153 296.456c.069-.08.15-.15.24-.205-.08.034-.251.262-.24.205zM214.213 295.453c.035-.02.067-.047.09-.08.07 0 0 0 0 .08h-.09zM238.214 287.058L238.054 287.058 238.089 287.024zM248.842 291.318c.148 0 .068.091.091.103.023.011.068-.012-.091-.103zM253.797 295.111L253.763 295.077 253.831 295.032zM279.268 332.805l-.171.24.17-.24zM348.276 379.133c-.228-1.401-.49-3.258-.786-4.784.01-.118.01-.236 0-.354-.308-1.48-.74-3.804-1.06-5.615v.102c-.057-.342-.193-.752-.273-1.14 0 0 0 .103 0 0 0-.102-.148-.648-.205-.796-.057-.149 0-.137 0-.33l-.08-.194c-.216-.559-.319-1.402-.547-2.165 0 0 0 .103 0 0l-1.139-4.203c0 .057.08.102.068 0-.135-.272-.238-.559-.307-.854 0-.183-.228-.616-.319-1.06-.148-.296-.103-.478-.25-.729v-.216c-.126-.114-.103-.467-.217-.73-.103-.239-.103-.375-.182-.603-.183-.535-.228-.866-.285-.832 0-.205.182.524.16.205-.604-1.765-1.14-3.6-1.812-5.376-.033-.131-.056-.264-.068-.399-.096-.275-.207-.545-.33-.809v-.216c-.092-.33-.217-.32-.308-.684.068.126.114.171.114.114-.17-.337-.321-.683-.456-1.036 0 0 .069.136.091.114-.216-.365-.25-.707-.421-1.037l.091.114c-.16-.57-.148-.125-.296-.615.057.114.057.068.08.08-.251-.41-.513-1.14-.718-1.55-.205-.467-.376-.968-.638-1.47-.057-.204.137 0-.091-.478-.08 0-.41-.82-.387-.49-.173-.469-.371-.929-.593-1.378.126.171 0-.25.182.091l-.056-.284s.102.273.113.17c.012-.102-.353-.672-.41-.831-.273-.328-.514-.683-.717-1.06.148.228 0-.182.125 0l-.524-.649c-.091-.17.057-.068-.091-.307 0 0-.091-.08-.148-.137-.057-.057-.387-.695-.342-.82.046-.125.17.262.103.068-.069-.193-.205-.319-.376-.626-.103-.217-.365-.593-.296-.342.068.25 0-.08.113.148-.192-.245-.36-.508-.5-.786.068.091.09.068.136.103-.285-.388-.558-.82-.866-1.253 0 0 .182.125.194.205-.285-.627-.786-1.14-.991-1.71.057.08 0 .08 0 .07-.16-.286-.091-.308-.228-.48-.137-.17-.16-.216-.285-.398-.125-.182 0-.057.091.103-.456-.59-.871-1.21-1.241-1.857-.157-.132-.298-.28-.422-.444h.114c-.057-.137-.319-.433-.296-.49-.262-.24.831 1.048.513.706 0-.137-.467-.478-.33-.444-.218-.233-.408-.49-.57-.763 0 .08.227.16.068 0-.16-.16-.103-.08-.342-.376l-.16-.171c-.056 0-.238-.342-.193-.16 0-.08-.421-.535-.319-.558h.114c-.125-.113-.263-.213-.41-.296v-.08s-.296-.376-.524-.5c-.262-.333-.505-.679-.729-1.038-.252-.213-.488-.446-.706-.694.068 0 .136.114.17.114-.093-.14-.213-.26-.353-.354 0 0-.262-.387-.398-.615-.137-.228-.228-.08-.274-.068-.102-.308-.672-.615-.865-.934.09.057.376.273.205.068-.171-.205-.49-.342-.798-.706v.16c-.102-.194-.546-.433-.433-.479-.148-.08-.387-.41-.41-.296-.524-.581-1.492-1.14-1.754-1.595-.091-.057-.307-.24-.285-.16.023.08.217.126.25.206.035.08-.113-.057-.124-.057-.012 0-.32-.285-.091-.217-.4-.364-.559-.17-1.14-.592 0 0 0-.057-.16-.16l-.352-.148c-.353-.262-.16-.216-.126-.284-.173-.12-.36-.22-.558-.297l-.216-.216c.16.16-.182-.057-.296-.091h.114c-.129-.087-.266-.16-.41-.217 0 .057.25.205.375.285-.113 0-.284-.125-.432-.17.068 0-.32-.217-.479-.32-.16-.102-.24-.057-.296-.09-.057-.035-.308-.172-.137-.137.076.061.16.111.25.148-.113-.092-.067-.137-.352-.24-.285-.102 0 .148-.353-.09.072.003.144.003.216 0-.11-.08-.224-.152-.342-.217v.057s-.57-.205-.672-.171c-.102.034-.376-.205-.547-.273-.214-.117-.444-.201-.683-.251-.174-.09-.363-.149-.558-.17-.296-.126 0-.24-.399-.263-.399-.023-.512 0-.399 0-.558-.182-1.196-.319-1.708-.49-.072.009-.145.009-.217 0-.831-.136-1.765-.262-2.437-.41.25 0 0 0 0-.08-.217 0-.251-.068-.33 0-.08.069 0 .08.239.114-.522.002-1.044-.032-1.561-.102h-.08c-.08 0-.342-.103-.626-.091v.057h-.183c-.114 0-.125.102-.41.08h-.08c-.331.082-.671.124-1.013.125l-.274-.057c-.136 0-.353.08-.114.08h-1.082c-.888.33-2.278.455-3.292.785-.285 0-.125.092-.33.126.08 0-.24 0 0-.103-.27.056-.527.156-.763.296 0 0 .205-.102.17 0-.034.103-.558.16-.603.24-.046.08 0-.057 0-.092l-.228.114c-.319 0 .627-.364.296-.341l-.228.09c-.227 0 .57-.284 0-.09-.227.114-.41.273-.182.216-.501.205-.182.217-.729.41-.16 0 .433-.16.308-.17-.253.067-.495.17-.718.307.25-.091.068.057-.091.137-.16.08.16-.126-.228 0 0 0-.387.239-.08.125-.102.125-.398.148-.58.296-.183.148.341-.285-.092-.125.091 0-.478.307-.228.273-.16.068-.193 0-.09 0-.24.091-.513.365-.627.32l-.057.09-.308.103c-.205.102-.615.398-.626.33-.012-.068-.502.308-.296.25.205-.056.284-.227.478-.261-.2.086-.382.21-.535.364-.123.077-.24.16-.354.25.069-.056 0 0 0 0l-.08.103c-.364.25-.125 0-.49.228l.263-.194c-.13.062-.255.13-.376.206l-.182.273c-.194.148-.114 0-.296.194l.239-.217c-.175.055-.338.144-.479.262-.16.125-.398.353-.114.182-.136.092-.341.205-.25.114-.296.217.068 0-.182.205-.251.205-.467.274-.684.399l.228-.25-.182.136c.205-.216-.137.068 0-.068-.13.093-.251.196-.365.307.399-.205-.33.399-.194.365-.467.387-.398.114-.82.604.091-.057-.114.182.171-.08-.296.24-.148.216-.512.478.239-.228-.308.183 0-.16 0 0 .216-.159.273-.204-.137.08 0-.08-.319.182s-.421.376-.364.365c.056-.012.273-.24.182-.114-.353.319-.456.33-.547.512.216-.216.296-.228.308-.205l-.251.24v-.069c-.422.376-.091.148-.49.513l-.216.136c.068-.114.58-.524.467-.5-.25.238-.32.34-.57.557l.171-.182c-.217.134-.413.299-.58.49-.172.194 0 .057 0 .08-.4.398-.502.535-.753.797 0-.08-.455.456-.205.137.3-.266.578-.556.832-.866-.182.102.33-.296.387-.422-.33.32-.353.262-.433.297-.08.034-.16.182-.216.239-.057.057.102-.057.136 0-.364.353-.694.718-.877.934-.182.216-.102 0 0-.091l-1.253 1.321c.285-.25-.421.479-.227.308.193-.171.41-.388.307-.25-.102.136 0 0-.068 0-.069 0-.285.25-.422.455.365-.41 0-.114.08-.205-.25.307 0 0-.262.262s-.57.695-.843 1.025c-.273.33-.888 1.082-1.207 1.458-.171.194-.08 0-.251.262-.17.262.16-.17-.148.205-.091.125-.558.706-.627.832l.069-.126-.148.194s-.069.08 0 0c-.194.228-.388.501-.57.763l.125-.16c-.353.468-.558.741-.877 1.14l-.182.262-.228.319.479-.684c.136-.193-.148.205-.057.091l.421-.57-.205.286c.06-.108.129-.21.205-.308l-.16.205.434-.58c-.137.181.068-.103 0 0 .135-.215.283-.42.444-.616.182-.216.455-.615.74-.98l-.41.593.387-.49c.104-.184.222-.359.354-.524.216-.273.193-.285.478-.638.478-.592.991-1.196 1.367-1.64.182-.274.695-.832.98-1.14.5-.546 1.082-1.207 1.366-1.446.865-.94 1.781-1.83 2.746-2.666l-.148.194c.17-.194.136-.091.319-.25-.228.148.216-.251.319-.388.514-.388 1.009-.802 1.48-1.242.479-.413.985-.794 1.515-1.139.128-.048.25-.11.365-.182.285-.25.444-.342.877-.672.446-.25.907-.474 1.378-.672 1.316-.765 2.7-1.406 4.135-1.914h.126c1.468-.475 2.973-.83 4.5-1.06l-.103.115c.398 0 .9-.103.797-.171.42-.048.842-.07 1.265-.068.282-.023.564-.06.842-.114.82 0 1.14.068 1.914.068h-.193c-.092 0-.092.057.102.08s1.06.068.786-.069c.82.148 1.937.228 2.723.445h.227c.707.193 1.436.467 2.017.57.102 0-.194 0 .09.09.286.091 0 0 .229 0 .568.183 1.124.404 1.663.661.522.217 1.032.464 1.526.74.886.397 1.736.87 2.54 1.413l1.208.797c.387.262.74.581 1.139.855.535.307 1.14.957 1.515 1.139.091.125.399.387.285.353.41.285.957.98 1.515 1.412-.04-.044-.08-.086-.126-.125.433.57.923.968 1.39 1.56-.057 0-.16-.147-.193-.136.159.24.558.421.558.627 0 .205.136 0 .057 0 .512.649 1.048 1.31 1.594 1.959.547.65 1.06 1.355 1.572 2.039.65 1.036-.125.182.502.923 0 .08.068 0 .057 0 .227.296.182.57.387.751 0-.136.125.114.17.091.208.453.46.884.753 1.288.467.524.797 1.253 1.207 1.686 1.876 3.217 3.54 6.554 4.978 9.99 1.391 3.378 2.604 6.826 3.634 10.331.12.62.288 1.229.501 1.823 0 0 0-.091 0 0s.194.638.273.706c.388 1.322.718 2.54 1.083 3.907-.069-.216-.149-.307-.069-.056l.103.262c0 .17.125.353.102.17.912 3.418 1.55 6.835 2.199 10.252l.512 2.848c.399 2.62.764 4.978 1.082 7.655l-.375-1.435zM279.53 332.372c0-.08.228-.33.09-.125l-.09.125z"/>
                <path fill="#464645" fill-rule="nonzero" d="M284.713 325.959l.102-.091c-.068.068-.114.148-.182.205.034-.032.061-.071.08-.114zM286.148 324.432s-.308.365-.49.559l.49-.559zM287.583 323.1c.126-.103.103-.069-.068.09-.17.16-.011-.056.068-.09zM287.652 322.974c.075-.077.16-.146.25-.205 0 0-.273.262-.25.205zM290.921 320.252c.1-.097.21-.181.33-.25-.125.09-.41.318-.33.25zM292.447 319.056l.126-.091c.102-.057 0 0-.069.09h-.057zM324.855 321.755L324.696 321.619 324.741 321.619zM334.207 334.297c.114.182 0 .148 0 .182-.102-.16.069.046 0-.182zM338.046 341.838L338.024 341.781 338.103 341.77zM365.567 372.492v.341-.341zM439.542 314.659c-.337-1.877-.844-3.718-1.515-5.502-.069-.205.057 0-.126-.41-.851-2.085-1.892-4.087-3.11-5.98l.092.102c-.228-.342-.558-.73-.809-1.14 0 0 .091.115 0 0-.091-.113-.501-.603-.638-.74-.137-.136-.068-.148-.205-.33l-.182-.16c-.49-.5-1.14-1.241-1.834-1.902 0 0 .102.091.057 0l-1.925-1.595c-.7-.526-1.427-1.016-2.176-1.47h.057c-.332-.123-.652-.275-.957-.455-.16-.16-.706-.353-1.14-.638-.364-.148-.489-.319-.82-.364l-.216-.137c-.193 0-.512-.262-.82-.353-.296-.103-.421-.194-.695-.296-.615-.25-.968-.41-.98-.33-.204-.126.616.182.297 0-1.071-.262-2.142-.581-3.235-.81l-1.652-.25c-.548-.108-1.105-.165-1.663-.17-.155-.008-.308-.035-.456-.08h-1.036c.068 0-.148 0-.262-.057-.294 0-.587.023-.877.068.17 0 .227-.068.17-.091-.376.09-.877.125-1.321.182.068 0 .17 0 .16-.057-.49.114-.889.057-1.31.137l.148-.057c-.695 0-.194.102-.786.17.148 0 .09-.056.114-.08-.536.195-1.413.331-1.96.468-.62.109-1.23.273-1.822.49-.24.057 0-.125-.57.068 0 .091-1.025.342-.626.342-.572.15-1.129.353-1.664.604.217-.126-.296 0 .126-.194l-.342.08s.33-.126.216-.126c-.113 0-.82.365-1.013.433-.194.069-.672.456-1.276.786.273-.17-.205 0 0-.125l-.752.604c-.205.102-.091 0-.365.125 0 0-.09.091-.17.16-.308.16-.624.304-.946.432-.102 0 .308-.216.068-.114-.239.103-.353.262-.706.479-.25.137-.672.467-.387.353.285-.114-.091 0 .16-.137-.274.246-.572.464-.89.65.115-.092.08-.103.115-.16l-1.39 1.14s.137-.206.228-.24c-.684.421-1.287 1.048-1.868 1.378.068-.08.08 0 .068 0-.296.251-.33.183-.501.365 0 0-.24.216-.422.399-.182.182-.068 0 .103-.126-.24.285-1.344 1.208-1.948 1.777-.118.208-.264.4-.433.57v-.103c-.16.091-.455.456-.524.433-.228.353 1.082-1.139.73-.717-.137 0-.48.615-.456.467-.24.287-.502.554-.786.797.08-.068.16-.273-.069 0-.376.399-.09.125-.364.478l-.171.228c0 .057-.33.353-.137.25-.091 0-.501.616-.547.513v-.113c-.114.16-.21.331-.284.512 0 0-.08.057-.08 0s-.387.422-.49.695c-.342.364-.763.991-.968 1.14-.196.334-.417.654-.66.956 0-.08.113-.17.102-.205-.138.141-.253.302-.342.478l-.558.65c-.205.239 0 .262 0 .319-.285.216-.513.945-.843 1.241.057-.114.25-.501 0-.25-.25.25-.308.638-.66 1.07l.159-.057c-.194.171-.4.718-.456.616-.068.182-.399.535-.273.535-.46.817-.967 1.608-1.516 2.37 0 .125-.227.398-.148.364.08-.034.114-.285.194-.342.08-.057 0 .148 0 .16-.16.239-.273.432-.216.16-.365.523-.183.648-.615 1.332 0-.057-.069 0-.171.205-.103.205-.103.285-.16.433-.24.455-.205.216-.273.193-.117.222-.213.455-.285.695l-.24.274c.172-.194 0 .216-.102.341v-.125c-.104.152-.189.316-.25.49.122-.142.225-.299.307-.467 0 .148-.136.342-.193.524 0-.08-.251.387-.354.58-.058.11-.097.23-.113.354 0 0-.194.364-.149.17.068-.094.121-.197.16-.307-.127.116-.218.267-.262.433-.091.24.148 0-.114.422.028-.086.047-.173.057-.262l-.24.41c0 .057 0 0-.056 0-.057 0-.296.649-.262.774.034.126-.24.445-.342.65-.142.255-.253.527-.33.808-.101.21-.185.427-.25.65-.195.33-.252 0-.354.444-.103.444-.148.592-.057.467-.319.615-.558 1.378-.854 1.936.009.084.009.168 0 .251-.399.934-.73 2.016-1.14 2.734.092-.285 0 0-.08 0 0 .25-.147.262-.102.364.046.103.069 0 .194-.227-.205.57-.513 1.435-.66 1.742.079-.148 0 0 0 .103-.058-.068-.217.353-.297.683v.069l-.114.182c0 .137 0 .17-.114.478-.032.015-.06.04-.08.069-.074.39-.189.772-.341 1.139l-.16.273c0 .148-.102.422 0 .16-.262.592-.364 1.002-.49 1.139-.285 1.316-.638 2.616-1.059 3.896-.125.33 0 .182-.08.421 0-.125-.136.24-.102 0-.09.313-.152.633-.182.957 0 .057 0-.262.068-.182-.077.245-.134.497-.17.752-.058.114-.07 0-.08-.069l-.058.308c-.16.342.103-.855-.08-.501l-.068.273c-.125.24.126-.74-.08-.068 0 .307 0 .58.069.33-.16.615.057.319-.125.98-.092.17.136-.536 0-.41-.137.125-.137.626-.228.9.102-.308.09 0 0 .17-.091.171 0-.227-.137.25 0 .08-.08.525 0 .16 0 .183-.148.49-.148.764 0 .273 0-.524-.16 0 .069-.069-.09.66 0 .398-.068.205-.113.217-.102.069-.103.284-.091.729-.205.808v.114l-.148.365c-.068.262-.137.854-.205.809-.069-.046-.16.683 0 .455.16-.228.068-.433.182-.615-.088.242-.141.495-.16.752 0 .137-.09.421-.09.513 0-.103 0-.057 0 0v.136c-.092.524-.103.114-.194.615v-.387c0 .091-.08.25-.125.49-.046.24 0 .296 0 .376 0 .296-.069.125-.092.41v-.376c-.098.193-.164.4-.193.615 0 .25-.069.638 0 .25 0 .194-.126.456-.114.308-.08.433 0-.057 0 .32l-.285.9v-.4l-.057.262c0-.353-.068.16-.068 0-.045.184-.08.37-.103.559.183-.502 0 .603.08.467-.114.717-.24.421-.273 1.139 0-.126 0 .239.08-.217-.092.445 0 .32-.115.832 0-.387-.148.41-.08-.16.047-.128.077-.262.092-.398-.057.182-.057 0-.148.41 0 .273-.114.65-.069.604.046-.046.08-.422.08-.24-.08.286-.13.58-.148.877 0-.353.114-.432.137-.421l-.069.41v-.08c-.148.638 0 .194-.125.82l-.102.297c0-.16.193-.923.113-.82l-.159.934v-.285c-.094.284-.156.578-.182.877v.091c-.091.65-.126.866-.183 1.287 0-.09-.125.752-.09.274.102-.466.174-.938.216-1.413-.091.24.09-.512.068-.66-.091.523-.137.49-.182.569-.046.08 0 .296 0 .387 0 .091.057-.125.091-.136-.114.592-.182 1.139-.216 1.492-.035.353-.057.125 0-.103-.114.707-.228 1.458-.33 2.13.102-.432-.103.74 0 .456.102-.285.125-.66.113-.467-.011.194 0 0 0 .091 0 .285-.102.433-.102.718.08-.65 0-.125 0-.25 0 .466 0 0-.08.432-.08.433-.125 1.048-.194 1.55-.068.5-.205 1.651-.273 2.22 0 .308 0 .103-.091.433s.057-.284 0 .285v-.057c0 .171-.137 1.048-.126 1.22v-.183.296s0 .125 0 0c-.057.353-.08.74-.114 1.14v-.251c-.068.694-.113 1.139-.182 1.742V371.421l.069-.98v.126l.08-.832V369.712v.308c0-.274 0-.479.08-.854 0 .262 0-.137 0 0 0 .136 0-.4.079-.878.08-.478.09-.91.136-1.446 0 .296 0 .57-.056.843 0-.365 0-.353.09-.73-.015-.246-.015-.493 0-.74 0-.421 0-.421.092-.945.102-.889.205-1.811.307-2.495 0-.376.148-1.264.205-1.777.126-.866.251-1.88.354-2.278.205-1.527.41-2.87.706-4.443v.274c0-.297 0-.183.09-.456-.09.308 0-.399 0-.592.149-.707.297-1.607.388-2.279.069-.637.274-1.378.444-2.153.062-.146.108-.299.137-.455.034-.43.099-.856.194-1.276.102-.456.285-1.14.41-1.64.285-1.72.809-3.418 1.219-5.195l.08-.114c.318-1.731 1.139-3.759 1.446-5.217v.171c.148-.444.296-1.025.194-.934.143-.472.31-.936.501-1.39.11-.312.198-.632.262-.957.353-.9.456-1.241.74-2.107l-.08.205c0 .103 0 .125.103-.08.103-.205.479-1.139.24-.888.42-.877.763-2.142 1.196-2.985-.057.069 0-.16 0-.262.307-.797.751-1.583.968-2.278.068-.114 0 .228.114-.091s0 0 0-.262c.516-1.254 1.102-2.479 1.754-3.668.467-1.014.968-2.039 1.47-3.053l1.64-2.893c.273-.672.911-1.413 1.139-1.97.114-.126.364-.536.342-.41.25-.514.934-1.3 1.31-2.04-.044.055-.078.117-.103.182.513-.66.809-1.344 1.39-2.016-.047.081-.088.165-.126.25.251-.239.4-.717.616-.785.216-.069 0-.148 0-.057.603-.752 1.139-1.572 1.856-2.278.718-.707 1.288-1.572 2.017-2.279 1.139-.957.227.103.968-.763.08-.057 0-.091 0-.08.285-.33.58-.376.774-.626-.148 0 .126-.16.103-.205.489-.322.95-.684 1.378-1.082.524-.638 1.344-1.14 1.823-1.64 3.547-2.675 7.571-4.647 11.858-5.81 4.255-1.128 8.73-1.128 12.986 0 .7.278 1.42.502 2.153.672 0 0-.114 0 0 0s.74.307.866.285l2.198.956 2.108 1.208c-.228-.125-.376-.148-.092 0l.297.125c.182.103.41.194.227.069 3.512 2.3 6.403 5.43 8.419 9.113.561.996 1.067 2.023 1.515 3.075 1.167 2.822 1.916 5.8 2.22 8.84.074-.59.112-1.183.115-1.777zM365.624 371.808v-.182c-.003.06-.003.122 0 .182z"/>
                <path fill="#464645" fill-rule="nonzero" d="M366.798 362.171c-.003-.053-.003-.106 0-.16v.32c.01-.053.01-.107 0-.16zM367.174 359.722s-.069.57-.114.877l.114-.877zM367.63 357.455v.126c-.012.022 0-.069 0-.126zM367.618 357.285c.016-.124.043-.246.08-.365 0 0-.069.433-.08.365zM368.597 352.375c.02-.167.058-.332.114-.49-.045.103-.102.581-.114.49zM369.053 350.085c.008-.064.008-.129 0-.193v.193zM384.215 310.763L384.089 310.991 384.078 310.934zM396.859 297.47c.205-.149.17-.058.205-.069-.205.114.034-.091-.205.068zM405.744 293.027L405.676 293.038 405.676 292.959zM449.612 322.131l-.194.171.194-.17zM518.676 371.444c-.114-1.276-.262-2.962-.467-4.363v-.33c-.216-1.47-.512-3.418-.763-5.126v.102c0-.319-.16-.695-.216-1.025 0 0 0 .102 0 0 0-.103-.126-.592-.171-.73-.046-.136 0-.124 0-.295l-.08-.183c-.194-.5-.24-1.275-.456-1.97 0 0 0 .102 0 0-.307-1.196-.66-2.563-.99-3.816 0 0 .068.08.068 0-.13-.246-.23-.506-.296-.775 0-.16-.206-.558-.285-.968-.137-.274-.091-.444-.228-.66v-.194c-.125-.114-.091-.433-.205-.661-.091-.228-.08-.353-.16-.558-.16-.49-.216-.786-.273-.752 0-.194.17.467.16.17-.581-1.594-1.14-3.246-1.755-4.83-.039-.117-.062-.24-.068-.364-.08-.148-.25-.592-.342-.717v-.205c-.091-.297-.205-.285-.296-.604.068.114.103.148.114.091-.174-.294-.33-.598-.467-.911 0 0 .068.114.091.102-.216-.319-.262-.638-.433-.922l.091.09c-.16-.5-.148-.102-.307-.535.057.091.068.057.09.057-.25-.353-.535-.98-.74-1.355-.205-.41-.387-.866-.649-1.31-.068-.171.125 0-.114-.422-.08 0-.421-.717-.387-.41-.184-.416-.39-.823-.615-1.219.125.148 0-.239.182.069l-.08-.262c.057 0 .126.25.126.148-.16-.232-.309-.471-.445-.718-.277-.274-.525-.575-.74-.9.16.194 0-.17.125 0l-.535-.535c-.103-.137 0-.069-.114-.274 0 0-.091-.057-.148-.102-.057-.046-.41-.604-.365-.718.046-.114.171.228.091 0-.08-.228-.216-.262-.387-.535-.102-.182-.376-.501-.296-.274.08.228 0-.08.114.114-.205-.196-.388-.414-.547-.649.08.08.091 0 .148.068-.323-.327-.628-.673-.911-1.036 0 0 .17.102.194.17-.297-.546-.82-.979-1.071-1.435.068.069 0 .08 0 .069-.182-.24-.126-.274-.262-.41-.137-.137-.16-.183-.296-.33-.137-.149 0 0 .09.08-.193-.195-.933-1.015-1.332-1.527 0 0-.342-.217-.433-.33h.091c-.068-.126-.341-.365-.307-.422-.274-.182.854.854.524.58 0-.113-.479-.375-.342-.364-.22-.19-.42-.404-.592-.638 0 .069.227.114 0-.057-.228-.17-.103-.057-.365-.284l-.17-.137c-.058 0-.263-.273-.194-.114 0-.068-.456-.399-.354-.444h.103c-.122-.092-.256-.165-.399-.217v-.08c0-.01-.296-.307-.524-.387-.25-.284-.729-.638-.809-.82-.258-.15-.495-.334-.706-.547.057 0 .126.103.16.091-.095-.12-.216-.217-.353-.284 0 0-.274-.33-.433-.501-.16-.171-.228 0-.274 0-.136-.251-.695-.433-.9-.718.092 0 .376.205.205 0-.17-.205-.478-.25-.797-.558v.148c-.125-.16-.558-.296-.467-.365-.137 0-.399-.307-.421-.193-.547-.456-1.447-.912-1.743-1.253-.103 0-.308-.171-.296-.103.01.068.227.08.262.148.034.068-.114 0-.126 0-.182-.125-.33-.216-.102-.182-.399-.296-.524-.103-1.048-.433 0 0 0-.057-.148-.148l-.33-.103c-.354-.205-.172-.182-.149-.25-.118-.04-.24-.068-.364-.08l-.194-.194c.137.137-.182 0-.285-.08h.103c-.115-.08-.242-.142-.376-.182l.353.251c-.114 0-.262-.102-.41-.137.08 0-.296-.193-.444-.273-.148-.08-.228 0-.274-.068-.045-.069-.284-.148-.125-.126.16.023.114.103.228.114-.103-.068-.069-.125-.33-.193-.263-.069 0 .136-.33-.057.067.005.136.005.204 0l-.399-.194s-.5-.205-.603-.182c-.103.022-.342-.183-.49-.25-.194-.113-.406-.19-.627-.229-.164-.069-.336-.119-.512-.148-.262-.148 0-.25-.342-.296-.342-.046-.467-.057-.376 0-.478-.216-1.082-.308-1.515-.558-.063.016-.13.016-.194 0-.74-.25-1.583-.41-2.164-.66.228 0 0 0 0-.08-.193 0-.205-.103-.296 0-.091.102 0 .068.194.147-.47-.09-.933-.203-1.39-.341h-.08c-.08 0-.285-.148-.535-.182l-.16-.08c-.102 0-.125.08-.376 0h-.057c-.314.015-.628-.016-.934-.091l-.227-.103c-.126 0-.342 0-.126.057-.324-.047-.644-.12-.957-.216h-3.395c.08 0-.204-.069 0-.103-.245-.033-.494-.033-.74 0h.16-.592c-.057 0 0-.068 0-.091h-.24c-.284-.057.65-.16.353-.228h-.216c-.216-.057.57-.114 0-.102-.24 0-.433.148-.228.16-.478 0-.216.159-.74.181-.137 0 .421 0 .319-.08-.24-.011-.479-.011-.718 0 .25 0 0 .08-.114.103-.114.023.171-.068-.205 0-.057 0-.399.103-.102.091-.126.091-.388 0-.593.103-.205.102.376-.16 0-.148.069 0-.501.125-.273.182-.171 0-.194 0-.08-.08-.228 0-.547.148-.638.057l-.068.057h-.296c-.205 0-.638.171-.638.103 0-.069-.524.09-.342.114.182.022.33-.092.501-.057-.2.004-.397.046-.58.125-.132.02-.262.05-.388.091.08 0 0 0 0 0l-.091.068c-.399.103-.114 0-.501 0l.296-.102c-.13.015-.26.038-.387.068l-.251.171c-.205.057-.103 0-.308.057l.274-.102c-.165-.04-.337-.04-.501 0-.183.056-.456.17-.16.125-.148 0-.353.068-.24 0-.33.102 0 0-.227.125l-.718.091.285-.125h-.193c.239-.114-.149 0 0-.08-.145.034-.286.08-.422.137.41 0-.41.216-.273.262-.524.182-.376 0-.9.228.102 0-.148.114.182 0-.33.102-.205.136-.604.228.285-.114-.33 0 .08-.126 0 0 .228-.057.296-.09-.148 0 0-.07-.33 0-.33.067-.479.181-.433.193.046.011.308-.114.194 0-.4.16-.49.136-.627.262.25-.103.33-.091.33-.069l-.296.126h.057c-.478.16-.125.09-.592.25h-.228c.091-.08.672-.239.57-.262l-.672.274.205-.103c-.23.033-.45.11-.65.228-.205.114 0 0 0 .068l-.9.422c0-.057-.524.25-.216.057.34-.13.67-.283.991-.456-.194 0 .376-.148.456-.239-.376.16-.388.102-.456.102-.091.033-.18.075-.262.126h.125c-.36.14-.706.312-1.036.512-.148.057-.114 0 0-.068-.49.228-1.014.49-1.481.73.319-.126-.501.272-.285.204.216-.068.478-.216.353-.125-.125.09 0 0-.08 0s-.319.125-.49.25c.433-.239.058-.08.126-.148-.308.183 0 0-.308.148l-1.025.627c-.444.24-1.082.66-1.458.923-.194.114-.08 0-.285.148-.205.148.194-.103-.182.136-.263.17-.518.352-.763.547l.102-.09-.182.136s-.091 0 0 0c-.24.148-.456.353-.695.524l.16-.103-1.06.82-.227.183-.274.227.581-.49c.16-.136-.182.149-.068.069.114-.08.444-.353.49-.41l-.24.205s.16-.137.25-.228l-.181.16c.136-.114.273-.24.512-.422-.16.137.091 0 0 0-.09 0 .228-.194.524-.421.296-.228.558-.422.9-.661-.129.114-.3.25-.512.41l.467-.33c.102-.08.17-.148.455-.353.262-.183.25-.205.581-.422.593-.376 1.196-.752 1.652-1.014.365-.254.746-.486 1.14-.695.591-.319 1.298-.683 1.617-.808 1.037-.512 2.101-.964 3.19-1.356l-.183.114c.205-.103.148 0 .353-.103-.25 0 .273-.136.41-.216.524-.148 1.196-.376 1.652-.547.535-.191 1.089-.328 1.652-.41.12.016.243.016.364 0 .31-.117.63-.209.957-.273.425-.084.855-.145 1.287-.182 1.355-.242 2.725-.39 4.1-.445h.103c1.398-.077 2.8-.042 4.192.103l-.125.09c.365.07.832.058.752 0 .384.038.765.103 1.14.195.253.026.509.026.762 0 .56.15 1.126.272 1.698.364h-.171c-.08 0-.103 0 .068.091.17.091.934.25.706.069.718.239 1.72.41 2.392.706h.205c.627.193 1.265.49 1.777.626.092.057-.182 0 .069.091.25.092 0 0 .216 0 .977.366 1.932.788 2.86 1.265 1.587.692 3.132 1.48 4.624 2.358.524.216 1.037.797 1.493.911.102.091.421.285.307.274.433.159.957.786 1.527 1.139l-.137-.091c.467.455 1.002.694 1.47 1.207-.058 0-.16-.114-.194-.102.16.205.546.318.57.512.022.194.124 0 0 0 1.138.991 2.277 2.062 3.417 3.178.683.877-.114.194.535.786 0 .069.08 0 .068 0 .25.228.228.49.445.615 0-.125.136.091.182.069.218.408.482.79.786 1.139h.068c.479.421.9 1.025 1.299 1.378 2.029 2.716 3.802 5.614 5.297 8.657 1.445 2.995 2.67 6.09 3.668 9.261.1.566.26 1.12.478 1.652 0 0 0-.08 0 0s.17.593.262.65c.342 1.196.66 2.278.98 3.542 0-.193-.137-.273-.069 0l.103.228c0 .16.125.33.102.16.81 3.12 1.31 6.253 1.8 9.363.103.752.24 1.8.353 2.609.24 2.392.467 4.556.558 6.994-.022.08-.022-.205-.09-1.253zM449.965 321.812c.068-.057.284-.239.114-.09l-.114.09z"/>
                <path fill="#464645" fill-rule="nonzero" d="M456.093 317.609l.114-.057-.216.137c.042-.015.078-.043.102-.08zM457.813 316.755l-.592.319.592-.32zM459.51 316.094c.149 0 .114 0-.08.057l.08-.057zM459.51 316.003l.274-.091s-.273.136-.273.09zM463.19 314.784c.118-.041.24-.072.364-.091-.09 0-.421.137-.364.091zM464.899 314.294H464.967h-.068zM495.586 321.026L495.427 320.935 495.472 320.912zM505.406 331.21c.136.137 0 .125.068.16.068.034.068.022-.068-.16zM509.529 337.703L509.495 337.646 509.575 337.635z"/>
                <path fill="#685D50" fill-rule="nonzero" d="M501.59 434.745L466.767 447.708 466.767 436.966 501.59 424.003zM196.91 434.984L162.087 446.318 162.087 434.915 196.91 424.458zM574.049 430.78L539.215 443.744 539.215 433.002 574.049 430.78zM341.6 420.608c-6.626 5.527-13.547 10.691-20.732 15.47-6.162 4.1-12.12 7.654-17.758 10.718l-3.623-13.863 42.113-12.325zM257.499 427.955L214.554 445.965 214.554 443.197 257.499 425.187z" opacity=".56"/>
                <path fill="#E55C27" fill-rule="nonzero" d="M346.054 113.513c-4.317 11.744-13.054 21.256-24.992 25.54-22.908 8.212-48.925-5.879-58.095-31.497-2.574-7.075-3.634-14.612-3.11-22.122l7.45 2.426v5.16c-.001 4.504 2.91 8.493 7.2 9.865l55.816 17.987c1.06.375 2.236.205 3.146-.455.91-.66 1.437-1.725 1.41-2.849v-7.666l11.175 3.611z"/>
                <ellipse cx="369.931" cy="437.859" fill="#685D50" fill-rule="nonzero" opacity=".56" rx="26.952" ry="9.01" transform="rotate(-14.87 369.931 437.859)"/>
                <g fill="#000" fill-rule="nonzero">
                    <path d="M.011 28.842L.775 28.592 5.73 27.92 4.967 28.17zM13.704 42.011L14.467 41.76 14.547 45.884 13.783 46.134z" transform="translate(293.2 197.068)"/>
                    <g>
                        <path d="M.399.832L1.173.58c0 .148.057.296.091.433l-.763.25L.4.832M.501 1.264l.763-.25c.092.376.183.717.274 1.06l-.763.25C.672 1.982.58 1.64.5 1.264" transform="translate(293.2 197.068) translate(4.556 27.339)"/>
                        <path d="M.775 2.278l.763-.25c.099.38.212.732.342 1.059l-.74.33c-.13-.326-.244-.68-.343-1.059" transform="translate(293.2 197.068) translate(4.556 27.339)"/>
                        <path d="M1.14 3.417l.762-.25c.243.687.556 1.347.934 1.97l-.774.251c-.37-.626-.679-1.286-.923-1.97" transform="translate(293.2 197.068) translate(4.556 27.339)"/>
                        <path d="M2.039 5.354l.775-.25c.1.179.214.35.341.512l-.763.25c-.127-.164-.245-.335-.353-.512" transform="translate(293.2 197.068) translate(4.556 27.339)"/>
                        <path d="M2.392 5.866L3.155 5.616 3.417 5.958 2.654 6.208 2.392 5.866" transform="translate(293.2 197.068) translate(4.556 27.339)"/>
                        <path d="M2.654 6.208L3.417 5.958 3.657 6.22 2.882 6.47 2.654 6.208" transform="translate(293.2 197.068) translate(4.556 27.339)"/>
                        <path d="M2.882 6.47L3.657 6.22 3.873 6.436 3.11 6.687 2.882 6.47" transform="translate(293.2 197.068) translate(4.556 27.339)"/>
                        <path d="M3.11 6.687l.763-.251.205.194-.763.25c-.076-.056-.145-.12-.205-.193" transform="translate(293.2 197.068) translate(4.556 27.339)"/>
                        <path d="M3.315 6.835L4.078 6.584 4.283 6.755 3.52 7.006 3.315 6.835M3.52 7.051L4.283 6.801 4.488 6.96 3.725 7.211 3.52 7.051" transform="translate(293.2 197.068) translate(4.556 27.339)"/>
                        <path d="M3.725 7.211L4.488 6.96 4.705 7.108 3.941 7.359 3.725 7.211M3.941 7.359l.764-.25.227.147-.763.25c-.08-.042-.156-.091-.228-.147M4.169 7.507L4.932 7.256 5.172 7.393 4.408 7.643 4.169 7.507" transform="translate(293.2 197.068) translate(4.556 27.339)"/>
                        <path d="M4.408 7.643L5.172 7.393 5.434 7.53 4.67 7.78 4.408 7.643" transform="translate(293.2 197.068) translate(4.556 27.339)"/>
                        <path d="M4.67 7.78L5.434 7.53 5.707 7.655 4.944 7.905 4.67 7.78" transform="translate(293.2 197.068) translate(4.556 27.339)"/>
                        <path d="M4.944 7.905L5.707 7.655 6.026 7.78 5.263 8.031 4.944 7.905" transform="translate(293.2 197.068) translate(4.556 27.339)"/>
                        <path d="M5.263 8.031L6.026 7.78 6.402 7.905 5.627 8.156 5.263 8.031" transform="translate(293.2 197.068) translate(4.556 27.339)"/>
                        <path d="M5.627 8.156L6.402 7.905 6.812 8.031 6.049 8.281 5.627 8.156" transform="translate(293.2 197.068) translate(4.556 27.339)"/>
                        <path d="M6.049 8.281L6.812 8.031 6.983 8.031 7.256 8.099 6.493 8.35 6.208 8.281 6.049 8.281M6.493 8.384l.763-.25c.148 0 .296.056.444.068l-.774.25-.433-.068" transform="translate(293.2 197.068) translate(4.556 27.339)"/>
                        <path d="M6.926 8.452L7.7 8.202 8.111 8.202 7.347 8.452 6.926 8.452M7.347 8.498L8.111 8.247 8.521 8.247 7.746 8.498 7.347 8.498M7.746 8.509L8.521 8.259 8.919 8.259 8.145 8.509 7.746 8.509" transform="translate(293.2 197.068) translate(4.556 27.339)"/>
                        <path d="M8.145 8.498L8.919 8.247 9.318 8.19 8.555 8.441 8.145 8.498" transform="translate(293.2 197.068) translate(4.556 27.339)"/>
                        <path d="M8.555 8.44l.763-.25.444-.102L9 8.327c-.145.049-.294.087-.444.114" transform="translate(293.2 197.068) translate(4.556 27.339)"/>
                        <path d="M8.999 8.327L9.762 8.088 9.762 8.088 8.988 8.338 8.988 8.338" transform="translate(293.2 197.068) translate(4.556 27.339)"/>
                    </g>
                    <g>
                        <path d="M.786 1.139L1.549.889 1.549.889.786 1.139.786 1.139M.832 1.14l.763-.251c.288-.09.58-.162.877-.217l-.763.25c-.297.054-.59.126-.877.217M1.709.923l.763-.25c.25 0 .501-.08.763-.103l-.763.25c-.262 0-.513.057-.763.103" transform="translate(293.2 197.068) translate(4.556 3.417)"/>
                        <path d="M2.472.82l.763-.25h.706l-.763.25c-.235-.012-.47-.012-.706 0" transform="translate(293.2 197.068) translate(4.556 3.417)"/>
                        <path d="M3.178 0.786L3.941 0.535 3.941 0.535 3.167 0.786 3.167 0.786" transform="translate(293.2 197.068) translate(4.556 3.417)"/>
                    </g>
                    <g>
                        <path d="M2.165 1.298l.774-.25c-.443.144-.837.408-1.139.763l-.763.25c.303-.354.697-.618 1.14-.763" transform="translate(293.2 197.068) translate(5.547 9.262)"/>
                        <path d="M1.003 2.061l.763-.25-.17.228-.764.25c.047-.083.105-.16.17-.228" transform="translate(293.2 197.068) translate(5.547 9.262)"/>
                        <path d="M.832 2.29l.763-.251c0 .056-.08.125-.125.193l-.763.25c.035-.068.077-.133.125-.193M.707 2.483l.763-.25-.091.181-.763.24c.026-.06.056-.117.09-.171" transform="translate(293.2 197.068) translate(5.547 9.262)"/>
                        <path d="M0.616 2.654L1.379 2.414 1.31 2.574 0.536 2.825 0.616 2.654" transform="translate(293.2 197.068) translate(5.547 9.262)"/>
                        <path d="M.536 2.825l.774-.251-.068.16-.763.25c-.007-.053-.007-.107 0-.16" transform="translate(293.2 197.068) translate(5.547 9.262)"/>
                        <path d="M.479 2.984l.763-.25v.17l-.763.24c.016-.055.035-.108.057-.16" transform="translate(293.2 197.068) translate(5.547 9.262)"/>
                        <path d="M.422 3.143l.763-.239v.16l-.763.25c-.005-.056-.005-.114 0-.17" transform="translate(293.2 197.068) translate(5.547 9.262)"/>
                        <path d="M.376 3.269l.764-.25v.17l-.764.25c-.005-.056-.005-.113 0-.17M.331 3.485L1.094 3.235 1.094 3.405.331 3.656.331 3.485" transform="translate(293.2 197.068) translate(5.547 9.262)"/>
                        <path d="M.297 3.656l.763-.25v.182l-.775.25v-.182" transform="translate(293.2 197.068) translate(5.547 9.262)"/>
                        <path d="M.262 3.838l.775-.25c-.005.064-.005.129 0 .193l-.775.251c.006-.064.006-.13 0-.194" transform="translate(293.2 197.068) translate(5.547 9.262)"/>
                        <path d="M.24 4.032l.774-.25v.204l-.763.251v-.205" transform="translate(293.2 197.068) translate(5.547 9.262)"/>
                        <path d="M.228 4.237l.764-.25v.216l-.764.25c-.005-.072-.005-.144 0-.216" transform="translate(293.2 197.068) translate(5.547 9.262)"/>
                        <path d="M.217 4.408l.763-.25v.25l-.774.25v-.25M.206 4.704l.774-.25v.227l-.763.25v-.079-.148M.217 4.932l.763-.25c-.006.06-.006.12 0 .182l-.763.25c-.006-.06-.006-.121 0-.182M.228 5.114l.764-.25v.17l-.764.251c-.005-.057-.005-.114 0-.17M.24 5.285l.763-.25v.17l-.763.25c-.006-.056-.006-.113 0-.17M.262 5.456l.764-.25v.17l-.775.25v-.17M.285 5.627l.775-.25c-.01.056-.01.114 0 .17l-.775.25v-.17" transform="translate(293.2 197.068) translate(5.547 9.262)"/>
                        <path d="M.32 5.798l.774-.251v.194l-.763.25-.057-.193M.376 5.991l.764-.25c.023.09.054.177.09.262l-.762.25C.43 6.168.4 6.081.376 5.991" transform="translate(293.2 197.068) translate(5.547 9.262)"/>
                        <path d="M.468 6.253l.763-.25c.084.239.195.468.33.683l-.763.25c-.135-.214-.246-.443-.33-.683" transform="translate(293.2 197.068) translate(5.547 9.262)"/>
                        <path d="M.798 6.937L1.561 6.686 1.755 6.982.992 7.233.798 6.937M.992 7.233l.763-.25c.068.068.125.147.193.227l-.774.25-.182-.227M1.174 7.461L1.948 7.21 2.142 7.427 1.367 7.677 1.174 7.461" transform="translate(293.2 197.068) translate(5.547 9.262)"/>
                        <path d="M1.367 7.677L2.142 7.427 2.347 7.643 1.584 7.894 1.367 7.677" transform="translate(293.2 197.068) translate(5.547 9.262)"/>
                        <path d="M1.584 7.894L2.347 7.643 2.586 7.871 1.823 8.121 1.584 7.894" transform="translate(293.2 197.068) translate(5.547 9.262)"/>
                        <path d="M1.823 8.121L2.586 7.871 2.882 8.11 2.108 8.361 1.823 8.121" transform="translate(293.2 197.068) translate(5.547 9.262)"/>
                        <path d="M2.108 8.36l.774-.25c.103.091.228.17.342.262l-.763.25-.353-.261" transform="translate(293.2 197.068) translate(5.547 9.262)"/>
                        <path d="M2.427 8.623L3.19 8.372 3.646 8.691 2.882 8.942 2.427 8.623M2.917 8.964L3.68 8.714 4.306 9.101 3.532 9.352 2.917 8.964" transform="translate(293.2 197.068) translate(5.547 9.262)"/>
                        <path d="M3.566 9.329l.775-.25c.284.182.592.352.922.535l-.763.25c-.33-.182-.638-.353-.934-.535" transform="translate(293.2 197.068) translate(5.547 9.262)"/>
                        <path d="M4.466 9.864l.763-.25c.41.227.854.455 1.333.695l.934.478-.763.25-.934-.478c-.479-.24-.923-.467-1.333-.695" transform="translate(293.2 197.068) translate(5.547 9.262)"/>
                        <path d="M6.733 11.038l.763-.251 1.139.638-.763.25c-.353-.216-.718-.432-1.14-.637" transform="translate(293.2 197.068) translate(5.547 9.262)"/>
                        <path d="M7.826 11.675l.763-.25c.32.182.627.376.923.58l-.763.251c-.296-.205-.604-.398-.923-.58M8.749 12.256L9.512 12.006 10.287 12.541 9.524 12.792 8.749 12.256" transform="translate(293.2 197.068) translate(5.547 9.262)"/>
                        <path d="M9.524 12.792L10.287 12.541 10.97 13.065 10.207 13.316 9.524 12.792" transform="translate(293.2 197.068) translate(5.547 9.262)"/>
                        <path d="M10.207 13.316L10.97 13.065 11.585 13.578 10.811 13.828 10.207 13.316" transform="translate(293.2 197.068) translate(5.547 9.262)"/>
                        <path d="M10.811 13.828L11.585 13.578 12.132 14.09 11.369 14.341 10.811 13.828" transform="translate(293.2 197.068) translate(5.547 9.262)"/>
                        <path d="M11.369 14.341l.763-.25c.182.17.353.341.513.523l-.763.251c-.16-.182-.33-.353-.513-.524M11.882 14.865l.797-.205c.182.182.342.364.501.558l-.763.25c-.16-.193-.33-.375-.501-.557" transform="translate(293.2 197.068) translate(5.547 9.262)"/>
                        <path d="M12.383 15.423l.763-.25.513.637-.775.251c-.16-.216-.33-.433-.501-.638" transform="translate(293.2 197.068) translate(5.547 9.262)"/>
                        <path d="M12.884 16.061l.775-.25c.193.273.387.558.57.842l-.776.251c-.175-.29-.365-.572-.57-.843M13.453 16.938l.775-.25c.438.72.8 1.483 1.082 2.278l-.763.25c-.295-.799-.677-1.563-1.14-2.278" transform="translate(293.2 197.068) translate(5.547 9.262)"/>
                        <path d="M14.547 19.137l.763-.25c.103.284.194.557.274.842l-.764.25c-.08-.284-.17-.558-.273-.842M14.82 19.98l.764-.251c.068.228.125.444.17.672l-.763.25-.17-.671" transform="translate(293.2 197.068) translate(5.547 9.262)"/>
                        <path d="M14.957 20.652l.763-.25c0 .204.091.41.126.614l-.764.25c0-.204-.08-.41-.125-.614M15.117 21.267l.763-.25c.045.19.08.385.102.58l-.763.25-.102-.58M15.22 21.848l.762-.25c0 .204.057.398.08.603l-.775.25c0-.205 0-.398-.068-.603M15.287 22.452l.775-.251v.615l-.763.25v-.614M15.344 23.067l.764-.251c.011.216.011.433 0 .65l-.764.25v-.65M15.379 23.773l.763-.25c.005.087.005.174 0 .261v.285l-.763.25v-.284-.262" transform="translate(293.2 197.068) translate(5.547 9.262)"/>
                        <path d="M15.39 24.263l.763-.25v.478l-.763.25v-.478" transform="translate(293.2 197.068) translate(5.547 9.262)"/>
                        <path d="M15.379 24.741l.763-.25v.444l-.763.25v-.444" transform="translate(293.2 197.068) translate(5.547 9.262)"/>
                        <path d="M15.356 25.185L16.096 24.912 16.096 25.334 15.333 25.584 15.333 25.163M15.322 25.607l.763-.25v.41l-.775.25c.026-.136.045-.273.057-.41M15.265 26.051l.774-.25-.068.41-.763.25v-.41" transform="translate(293.2 197.068) translate(5.547 9.262)"/>
                        <path d="M15.208 26.427l.763-.25c0 .125-.057.261-.08.387l-.763.25c0-.125.057-.262.08-.387" transform="translate(293.2 197.068) translate(5.547 9.262)"/>
                        <path d="M15.128 26.814l.763-.25c0 .136-.057.262-.09.387l-.776.25.103-.387" transform="translate(293.2 197.068) translate(5.547 9.262)"/>
                        <path d="M15.025 27.19l.775-.25c0 .136-.08.262-.114.387l-.763.25.102-.387M14.957 27.589l.763-.25c0 .136-.08.261-.136.398l-.764.25.137-.398" transform="translate(293.2 197.068) translate(5.547 9.262)"/>
                        <path d="M14.786 27.988l.763-.251c0 .137-.09.262-.148.399l-.774.25c.057-.136.114-.262.16-.398M14.627 28.386l.774-.25-.182.41-.774.25c.068-.136.125-.273.182-.41M14.445 28.796l.774-.25-.24.433-.762.25c.08-.136.16-.284.228-.433M14.217 29.23l.763-.251c-.092.17-.195.333-.308.49l-.763.25.308-.49M13.91 29.72l.762-.251c-.136.205-.284.398-.433.58l-.774.251c.16-.184.309-.378.444-.58M13.465 30.3l.774-.25c-.819.958-1.887 1.672-3.087 2.061l-.774.25c1.201-.384 2.271-1.098 3.087-2.06" transform="translate(293.2 197.068) translate(5.547 9.262)"/>
                    </g>
                    <path d="M7.678 0.296L8.441 0.046 13.681 1.299 12.918 1.549z" transform="translate(293.2 197.068)"/>
                    <path d="M12.918 1.549L13.681 1.299 13.761 5.365 12.997 5.604z" transform="translate(293.2 197.068)"/>
                    <g>
                        <path d="M.467 1.048L1.23.797 1.333.854.558 1.105.467 1.048M.558 1.139L1.333.889 1.766 1.139 1.002 1.39.558 1.139" transform="translate(293.2 197.068) translate(12.53 4.556)"/>
                        <path d="M1.002 1.356L1.766 1.105 2.187 1.378 1.424 1.629 1.002 1.356" transform="translate(293.2 197.068) translate(12.53 4.556)"/>
                        <path d="M1.424 1.629L2.187 1.378 2.597 1.663 1.834 1.914 1.424 1.629" transform="translate(293.2 197.068) translate(12.53 4.556)"/>
                        <path d="M1.834 1.914L2.597 1.663 3.007 1.971 2.278 2.278 1.868 1.971M2.278 2.278L3.041 2.028 3.452 2.369 2.677 2.62 2.278 2.278" transform="translate(293.2 197.068) translate(12.53 4.556)"/>
                        <path d="M2.643 2.563l.774-.285.41.388-.774.25c-.128-.138-.265-.267-.41-.387M3.053 2.95L3.827 2.7 4.249 3.133 3.486 3.383 3.053 2.95M3.486 3.417l.763-.25c.16.163.313.334.456.512l-.764.251c-.143-.179-.295-.35-.455-.513" transform="translate(293.2 197.068) translate(12.53 4.556)"/>
                        <path d="M3.941 3.896l.764-.25c.182.204.353.432.512.648l-.763.251c-.16-.228-.342-.444-.513-.65M4.454 4.556l.763-.25c.237.315.458.642.66.98l-.762.25c-.217-.342-.433-.672-.661-.98" transform="translate(293.2 197.068) translate(12.53 4.556)"/>
                        <path d="M5.115 5.525l.763-.25c.633 1.024 1.156 2.112 1.56 3.246l-.774.25c-.4-1.133-.92-2.222-1.55-3.246" transform="translate(293.2 197.068) translate(12.53 4.556)"/>
                        <path d="M6.664 8.771l.774-.25c.16.467.32.934.456 1.435l-.763.25c-.137-.5-.296-.968-.467-1.435M7.13 10.252l.764-.25c.114.387.217.785.319 1.139l-.775.25c-.09-.41-.193-.79-.307-1.139" transform="translate(293.2 197.068) translate(12.53 4.556)"/>
                        <path d="M7.438 11.391l.775-.25c.057.262.114.524.16.786l-.764.25c-.057-.262-.102-.524-.17-.786" transform="translate(293.2 197.068) translate(12.53 4.556)"/>
                    </g>
                    <path d="M12.918 1.55l.08 4.054c3.588 1.914 6.06 5.696 7.142 11.141l-4.956.592c-.888-4.203-2.278-6.14-4.92-6.766-2.917-.695-4.557.638-4.5 3.543 0 2.278 1.48 3.668 5.582 5.695 6.436 3.247 9.466 7.234 9.591 13.42.103 5.307-2.745 8.565-7.233 8.77l.08 4.124-5.252-1.242-.08-4.066C4.181 38.912 1.287 34.732.012 28.83l4.943-.672c.991 4.613 2.7 6.744 5.81 7.484 3.11.74 4.989-.535 4.92-3.657 0-2.278-1.059-4.02-5.16-5.889C4.01 23 .638 18.875.524 12.85.41 7.45 3.338 4.192 7.746 4.192L7.678.285l5.24 1.264z" transform="translate(293.2 197.068)"/>
                </g>
                <circle cx="356.511" cy="422.385" r="26.929" fill="url(#f5sbxa9s4f)" fill-rule="nonzero"/>
                <path fill="url(#csa55f861g)" fill-rule="nonzero" d="M276.933 338.318L250.47 446.683c16.771 7.853 36.164 7.853 52.935 0-8.832-36.11-17.657-72.232-26.473-108.365z"/>
                <path fill="url(#ml5ix8q47h)" fill-rule="nonzero" d="M214.714 313.098L214.714 445.931 204.507 448.049 204.507 314.545z"/>
                <path fill="url(#jiivzkuxoi)" fill-rule="nonzero" d="M204.507 314.545L204.507 448.049 196.91 446.796 196.91 313.098z"/>
                <path fill="#8A6026" fill-rule="nonzero" d="M214.714 313.098L204.507 314.545 196.91 313.098 206.216 311.651z"/>
                <path fill="url(#r7u6n3yjij)" fill-rule="nonzero" d="M511.466 397.735L511.466 452.059 498.286 446.227 498.286 393.224z"/>
                <path fill="url(#yfor8iehak)" fill-rule="nonzero" d="M539.215 393.224L539.215 443.721 511.466 452.059 511.466 397.735z"/>
                <path fill="url(#afe3tj6g6l)" fill-rule="nonzero" d="M539.215 393.224L511.466 397.735 498.286 393.224z"/>
                <path fill="url(#6m9d6oj9um)" fill-rule="nonzero" d="M121.75 362.809L121.75 454.28 85.754 449.2 85.754 358.333z"/>
                <path fill="url(#vzezrgxt4n)" fill-rule="nonzero" d="M162.087 358.333L162.087 446.318 121.75 454.28 121.75 362.809z"/>
                <path fill="url(#kgmd0hd7fo)" fill-rule="nonzero" d="M162.087 358.333L121.75 362.809 85.754 358.333 122.901 353.73z"/>
                <path fill="#2B2B2A" fill-rule="nonzero" d="M334.845 117.511c.027 1.124-.5 2.19-1.41 2.85-.91.659-2.086.829-3.146.454l-55.817-17.987c-4.29-1.372-7.2-5.36-7.2-9.865v-5.16l67.516 22.042.057 7.666z"/>
                <path fill="#E55C27" fill-rule="nonzero" d="M334.823 109.845v7.666c.027 1.124-.5 2.19-1.41 2.85-.91.659-2.087.829-3.147.454l-55.817-17.987c-4.29-1.372-7.2-5.36-7.199-9.865v-5.16l-7.393-2.37c-.54 7.529.513 15.085 3.087 22.18 9.193 25.618 35.21 39.71 58.095 31.496 11.938-4.283 20.675-13.795 24.993-25.539l-11.21-3.725zm-67.516-22.27v.228l67.516 22.042v-.114l-67.516-22.156z" opacity=".75"/>
                <path fill="#F9AD42" fill-rule="nonzero" d="M349.107 95.686c0 .9 0 1.788-.057 2.677l-84.17-28.25c-.432-.148-.865-.274-1.298-.388.32-.774.66-1.526 1.025-2.278 4.624-9.84 12.94-17.462 23.147-21.21 22.908-8.225 48.982 5.866 58.095 31.485 2.096 5.76 3.197 11.835 3.258 17.964z"/>
                <path fill="#2B2B2A" fill-rule="nonzero" d="M347.877 107.407c-.462 2.074-1.063 4.114-1.8 6.106l-11.232-3.668-67.538-22.042-7.45-2.37c.176-2.618.556-5.22 1.14-7.78l86.88 29.754z"/>
                <path fill="#F9AD42" fill-rule="nonzero" d="M349.016 98.408c-.087 2.17-.32 4.332-.695 6.47-.137.855-.307 1.698-.501 2.53l-86.778-29.811c.194-.843.41-1.675.638-2.484.524-1.817 1.16-3.602 1.902-5.342.433.114.866.24 1.299.387l84.135 28.25z"/>
                <g fill="#000" fill-rule="nonzero">
                    <path d="M8.464 21.324L9.272 21.085 9.329 23.705 8.521 23.944z" transform="translate(298.895 58.095)"/>
                    <g>
                        <path d="M2.187.672l.809-.24c-.405.135-.764.38-1.037.707l-.808.24c.27-.332.63-.577 1.036-.707" transform="translate(298.895 58.095) translate(3.417 6.835)"/>
                        <path d="M1.139 1.378L1.948 1.139 1.766 1.378.957 1.618 1.139 1.378M.968 1.618l.809-.24c-.048.068-.09.14-.125.217l-.81.239c.036-.076.078-.148.126-.216" transform="translate(298.895 58.095) translate(3.417 6.835)"/>
                        <path d="M.843 1.834l.809-.24c-.045.065-.083.134-.114.206l-.809.239c.03-.072.069-.14.114-.205" transform="translate(298.895 58.095) translate(3.417 6.835)"/>
                        <path d="M.729 2.039l.809-.24c0 .058-.057.126-.08.194l-.82.24.091-.194M.638 2.278l.82-.239c-.031.062-.058.127-.08.194l-.808.239.068-.194" transform="translate(298.895 58.095) translate(3.417 6.835)"/>
                        <path d="M0.57 2.426L1.378 2.187 1.31 2.392 0.501 2.631 0.57 2.426" transform="translate(298.895 58.095) translate(3.417 6.835)"/>
                        <path d="M.501 2.631l.809-.239v.194l-.809.239c0-.068 0-.137.057-.194" transform="translate(298.895 58.095) translate(3.417 6.835)"/>
                        <path d="M.444 2.825l.809-.24c-.005.069-.005.138 0 .206l-.809.24c-.005-.07-.005-.138 0-.206" transform="translate(298.895 58.095) translate(3.417 6.835)"/>
                        <path d="M.399 3.03l.808-.24c-.004.073-.004.145 0 .217l-.808.24c-.005-.073-.005-.145 0-.217" transform="translate(298.895 58.095) translate(3.417 6.835)"/>
                        <path d="M.353 3.246l.809-.239v.228l-.809.24v-.229" transform="translate(298.895 58.095) translate(3.417 6.835)"/>
                        <path d="M.308 3.474l.808-.239v.228l-.808.24v-.229" transform="translate(298.895 58.095) translate(3.417 6.835)"/>
                        <path d="M.285 3.702l.854-.285c-.006.08-.006.16 0 .24l-.809.239c-.005-.08-.005-.16 0-.24M.262 3.941l.809-.239v.262l-.809.24V3.94" transform="translate(298.895 58.095) translate(3.417 6.835)"/>
                        <path d="M.24 4.203l.808-.239c.006.091.006.182 0 .274l-.809.239c.006-.091.006-.183 0-.274" transform="translate(298.895 58.095) translate(3.417 6.835)"/>
                        <path d="M0.228 4.477L1.037 4.238 1.037 4.556 0.228 4.796 0.228 4.511" transform="translate(298.895 58.095) translate(3.417 6.835)"/>
                        <path d="M.228 4.762l.809-.24c.005.095.005.19 0 .285l-.81.24c.007-.096.007-.19 0-.285M.24 5.07l.808-.24v.296l-.809.24v-.297M.262 5.365L1.071 5.126 1.071 5.434.262 5.673.262 5.365M.296 5.696L1.105 5.456 1.105 5.764.296 6.003.296 5.696" transform="translate(298.895 58.095) translate(3.417 6.835)"/>
                        <path d="M.33 5.98l.81-.284c0 .102 0 .205.056.307l-.809.24v-.308M.387 6.288L1.196 6.049 1.264 6.379.456 6.618.387 6.288M.456 6.618l.808-.239c0 .125.057.24.092.365l-.81.239c0-.126-.068-.24-.09-.365" transform="translate(298.895 58.095) translate(3.417 6.835)"/>
                        <path d="M.547 6.983l.809-.24c0 .16.09.32.148.479l-.81.24c-.056-.16-.102-.32-.147-.48" transform="translate(298.895 58.095) translate(3.417 6.835)"/>
                        <path d="M.695 7.461l.809-.239c.119.355.271.699.455 1.025l-.808.24C.967 8.16.814 7.816.695 7.46" transform="translate(298.895 58.095) translate(3.417 6.835)"/>
                        <path d="M1.14 8.486l.808-.239c.068.148.16.285.24.422l-.81.239c-.08-.137-.17-.273-.239-.422M1.39 8.908L2.198 8.669 2.392 8.942 1.583 9.181 1.39 8.908" transform="translate(298.895 58.095) translate(3.417 6.835)"/>
                        <path d="M1.583 9.181L2.392 8.942 2.563 9.159 1.754 9.398 1.583 9.181" transform="translate(298.895 58.095) translate(3.417 6.835)"/>
                        <path d="M1.754 9.398L2.563 9.159 2.711 9.329 1.902 9.569 1.754 9.398" transform="translate(298.895 58.095) translate(3.417 6.835)"/>
                        <path d="M1.902 9.569L2.711 9.329 2.859 9.489 2.05 9.728 1.902 9.569" transform="translate(298.895 58.095) translate(3.417 6.835)"/>
                        <path d="M2.05 9.728L2.859 9.489 2.996 9.626 2.187 9.865 2.05 9.728" transform="translate(298.895 58.095) translate(3.417 6.835)"/>
                        <path d="M2.187 9.865L2.996 9.626 3.133 9.739 2.324 9.979 2.187 9.865" transform="translate(298.895 58.095) translate(3.417 6.835)"/>
                        <path d="M2.278 9.979L3.087 9.739 3.224 9.853 2.415 10.093 2.278 9.979M2.46 10.093L3.269 9.853 3.406 9.956 2.597 10.195 2.46 10.093M2.597 10.252L3.406 10.013 3.531 10.093 2.722 10.332 2.597 10.252" transform="translate(298.895 58.095) translate(3.417 6.835)"/>
                        <path d="M2.722 10.252L3.531 10.013 3.668 10.104 2.859 10.343 2.722 10.252M2.859 10.366L3.668 10.127 3.805 10.195 2.996 10.434 2.859 10.366" transform="translate(298.895 58.095) translate(3.417 6.835)"/>
                        <path d="M2.996 10.434L3.805 10.195 3.941 10.263 3.133 10.503 2.996 10.434" transform="translate(298.895 58.095) translate(3.417 6.835)"/>
                        <path d="M3.133 10.503L3.941 10.263 4.089 10.332 3.281 10.571 3.133 10.503" transform="translate(298.895 58.095) translate(3.417 6.835)"/>
                        <path d="M3.281 10.571L4.089 10.332 4.238 10.389 3.429 10.628 3.281 10.628" transform="translate(298.895 58.095) translate(3.417 6.835)"/>
                        <path d="M3.417 10.628L4.226 10.389 4.386 10.389 3.577 10.628 3.417 10.628M3.588 10.674L4.397 10.434 4.454 10.434 4.556 10.434 3.748 10.674 3.645 10.674 3.588 10.674M3.748 10.719L4.556 10.48 4.716 10.48 3.907 10.719 3.748 10.719M3.907 10.742L4.716 10.503 4.875 10.503 4.067 10.742 3.907 10.742M4.067 10.765L4.875 10.525 5.046 10.525 4.238 10.765 4.067 10.765M4.238 10.776L5.046 10.537 5.217 10.537 4.408 10.776 4.238 10.776" transform="translate(298.895 58.095) translate(3.417 6.835)"/>
                        <path d="M4.408 10.776L5.217 10.537 5.411 10.537 4.602 10.776 4.408 10.776" transform="translate(298.895 58.095) translate(3.417 6.835)"/>
                        <path d="M4.556 10.753L5.365 10.514 5.559 10.514 4.75 10.753 4.556 10.753" transform="translate(298.895 58.095) translate(3.417 6.835)"/>
                    </g>
                    <g>
                        <path d="M.843 1.606l.809-.24c.141-.044.286-.078.433-.102l-.81.24c-.146.023-.29.057-.432.102M1.276 1.504L2.085 1.264 2.506 1.264 1.697 1.504 1.276 1.504" transform="translate(298.895 58.095) translate(3.417 2.278)"/>
                        <path d="M1.697 1.458L2.506 1.219 2.643 1.219 1.834 1.458 1.697 1.458" transform="translate(298.895 58.095) translate(3.417 2.278)"/>
                    </g>
                    <g>
                        <path d="M3.258.638L4.067.4c0 .103-.057.194-.08.296l-.809.24c0-.103 0-.194.08-.297" transform="translate(298.895 58.095) translate(9.113 16.938)"/>
                        <path d="M3.178.935l.809-.24c0 .114-.08.217-.114.33l-.809.24c0-.114.08-.217.114-.33M3.064 1.288L3.873 1.048 3.748 1.379 2.939 1.618 3.064 1.288" transform="translate(298.895 58.095) translate(9.113 16.938)"/>
                        <path d="M2.939 1.595l.809-.239c0 .114-.103.216-.148.33l-.81.24c0-.114.103-.217.149-.33" transform="translate(298.895 58.095) translate(9.113 16.938)"/>
                        <path d="M2.79 1.926l.81-.24c-.057.114-.114.228-.183.342l-.808.24c.068-.115.125-.228.182-.342" transform="translate(298.895 58.095) translate(9.113 16.938)"/>
                        <path d="M2.609 2.267l.808-.239c-.068.125-.148.24-.216.353l-.809.24c.068-.114.148-.228.217-.354" transform="translate(298.895 58.095) translate(9.113 16.938)"/>
                        <path d="M2.392 2.62l.809-.239c-.099.152-.201.289-.308.41l-.808.24c.106-.122.208-.259.307-.41" transform="translate(298.895 58.095) translate(9.113 16.938)"/>
                        <path d="M2.085 3.03l.808-.239c-.45.57-1.061.99-1.754 1.208l-.809.239c.704-.214 1.327-.635 1.789-1.207" transform="translate(298.895 58.095) translate(9.113 16.938)"/>
                    </g>
                    <path d="M9.728 15.651L10.537 15.412 13.18 17.337 12.371 17.577zM5.206.877L6.015.638 8.931 1.413 8.122 1.652z" transform="translate(298.895 58.095)"/>
                    <path d="M8.122 1.652L8.931 1.413 8.976 4.203 8.167 4.443z" transform="translate(298.895 58.095)"/>
                    <g>
                        <path d="M.194 1.025L1.002.786 1.151.866.342 1.105.194 1.025M.342 1.139L1.151.9 1.39 1.048.581 1.287.342 1.139" transform="translate(298.895 58.095) translate(7.974 3.417)"/>
                        <path d="M0.581 1.253L1.39 1.014 1.629 1.173 0.82 1.413 0.581 1.253" transform="translate(298.895 58.095) translate(7.974 3.417)"/>
                        <path d="M0.82 1.413L1.629 1.173 1.857 1.344 1.048 1.583 0.82 1.413" transform="translate(298.895 58.095) translate(7.974 3.417)"/>
                        <path d="M1.048 1.583L1.857 1.344 2.096 1.538 1.287 1.777 1.048 1.583" transform="translate(298.895 58.095) translate(7.974 3.417)"/>
                        <path d="M1.287 1.777L2.096 1.538 2.335 1.754 1.526 1.993 1.287 1.777M1.526 1.993l.81-.239c.088.07.172.146.25.228l-.809.24-.25-.229M1.777 2.278L2.586 2.039 2.836 2.312 2.028 2.552 1.777 2.278" transform="translate(298.895 58.095) translate(7.974 3.417)"/>
                        <path d="M2.028 2.495l.808-.24c.097.095.184.198.262.308l-.808.24c-.078-.11-.166-.214-.262-.308" transform="translate(298.895 58.095) translate(7.974 3.417)"/>
                        <path d="M2.278 2.802l.809-.239c.101.117.196.238.285.365l-.809.239c-.089-.127-.184-.248-.285-.365M2.574 3.167l.81-.24c.113.149.216.297.318.456l-.809.24c-.102-.16-.205-.308-.319-.456" transform="translate(298.895 58.095) translate(7.974 3.417)"/>
                        <path d="M2.893 3.622l.81-.239c.136.217.273.444.398.672l-.809.24c-.125-.228-.262-.456-.399-.673" transform="translate(298.895 58.095) translate(7.974 3.417)"/>
                        <path d="M3.292 4.294l.809-.239c.286.535.53 1.09.729 1.663l-.809.24c-.199-.573-.442-1.13-.729-1.664" transform="translate(298.895 58.095) translate(7.974 3.417)"/>
                        <path d="M4.021 5.958l.809-.24c.084.232.156.468.216.707l-.808.239c-.069-.24-.137-.479-.217-.706" transform="translate(298.895 58.095) translate(7.974 3.417)"/>
                        <path d="M4.238 6.664l.808-.24c.041.132.075.265.103.4l-.809.239-.102-.4" transform="translate(298.895 58.095) translate(7.974 3.417)"/>
                    </g>
                    <path d="M8.122 1.663v2.78c2.159 1.35 3.66 3.537 4.146 6.037l-2.597.512c-.274-1.56-1.353-2.86-2.836-3.417-1.948-.524-3.281 1.14-3.235 4.101.045 2.962 1.47 5.388 3.417 5.9 1.276.342 2.278-.318 2.666-1.868l2.642 1.926c-.626 2.278-2.016 3.702-3.907 3.747l.057 2.62-2.916-.786-.011-2.71c-1.501-.926-2.691-2.279-3.418-3.885-.877-1.773-1.348-3.718-1.378-5.696-.12-1.764.275-3.526 1.139-5.069.664-1.217 1.918-1.995 3.303-2.05V.957l2.928.706z" transform="translate(298.895 58.095)"/>
                </g>
            </g>
        </g>
    </g>
</svg>
