<svg xmlns="http://www.w3.org/2000/svg" width="341" height="342" viewBox="0 0 341 342">
    <defs>
        <linearGradient id="itptrxucfa" x1="-47.085%" x2="99.998%" y1="-48.216%" y2="100%">
            <stop offset="0%" stop-color="#FAF4EA"/>
            <stop offset="100%" stop-color="#FFA600"/>
        </linearGradient>
        <linearGradient id="mhzi5e05vc" x1="23.07%" x2="76.511%" y1="0%" y2="85.584%">
            <stop offset="0%" stop-color="#FDD23C"/>
            <stop offset="100%" stop-color="#FAA61C"/>
        </linearGradient>
        <linearGradient id="py72bi0ljd" x1="1.298%" x2="50%" y1="0%" y2="100%">
            <stop offset="0%" stop-color="#FF6F52"/>
            <stop offset="100%" stop-color="#E45D26"/>
        </linearGradient>
        <linearGradient id="ipit17rege" x1="50%" x2="50%" y1="-32.277%" y2="100%">
            <stop offset="0%" stop-color="#FDC091"/>
            <stop offset="100%" stop-color="#5A4E44"/>
        </linearGradient>
        <filter id="rgh0nj9yzb" width="190.9%" height="190.9%" x="-45.5%" y="-45.5%" filterUnits="objectBoundingBox">
            <feGaussianBlur in="SourceGraphic" stdDeviation="22.5"/>
        </filter>
    </defs>
    <g fill="none" fill-rule="evenodd">
        <g>
            <g transform="translate(-806 -3372) translate(806 3373)">
                <path fill="url(#itptrxucfa)" fill-rule="nonzero" d="M340.683 184.518c-.012 77.487-56.812 143.26-133.471 154.554-76.66 11.295-150.016-35.301-172.375-109.492C12.48 155.388 47.873 76.019 118.008 43.074c70.135-32.944 153.82-9.509 196.644 55.07 16.978 25.607 26.03 55.65 26.03 86.374z" opacity=".558"/>
                <circle cx="180" cy="196.5" r="74.25" fill="#FFEEC8" filter="url(#rgh0nj9yzb)"/>
                <path fill="#E45D26" fill-rule="nonzero" d="M314.616 97.648c-18.296 25.634-40.265 45.785-65.44 65.216-5.736 4.42-20.241 15.621-26.166 5.807-1.603-2.701-.693-6.303-.216-6.393 2.143-.423-5.07 1.009-8.104-1.17-1.007-.707-1.749-1.731-2.107-2.908-.459-1.747.388-2.972 0-3.242-.684-.477-3.601 3.142-7.49 6.555-3.89 3.412-8.023 7.131-12.354 6.96-.793 0-3.368-.09-5.106-1.9-2.16-2.242-2.314-6.014-.62-9.517 3.07-6.303 11.983-13.263 16.9-18.152-.487-.063-.982-.135-1.468-.225-2.323-.345-4.569-1.091-6.636-2.206-5.474-3.124-3.07-9.103 1.342-11.49 3.916-2.115 8.752-2.466 12.947-3.403 7.78-1.728 15.38-3.772 21.502-9.184.099-.08 35.367-31.207 41.283-41.787 1.998-3.752 3.801-7.605 5.402-11.543 14.21 10.708 26.496 23.754 36.331 38.582z"/>
                <path stroke="#231F20" stroke-width="1.801" d="M221.362 135.96c-6.021 2.304-12.48 3.245-18.908 2.755M213.232 153.599c2.746-4.34 6.483-8.896 11.012-11.445 2.566-1.431 6.581-2.899 9.508-1.647 2.35 1.008 3.088 3.53 2.782 5.897-.37 2.783-2.215 4.989-4.133 6.906-2.773 2.783-5.7 5.403-8.716 7.915"/>
                <path stroke="#231F20" stroke-width="1.801" d="M223.685 161.225c3.064-3.219 6.463-6.101 10.139-8.599 3.34-2.278 8.031-5.51 11.867-2.305 6.879 5.745-3.322 14.73-7.987 17.747"/>
                <path fill="#FAA61C" fill-rule="nonzero" d="M151.266 266.454c.469.045.9.108 1.387.18h.1c2.328.287 4.59.97 6.69 2.017 5.555 2.971 3.322 9.004-1.018 11.525-3.854 2.224-8.68 2.701-12.849 3.764-7.725 1.954-15.307 4.214-21.24 9.787-.054.054-12.093 11.291-23.086 22.7-13.998-8.694-26.457-19.647-36.872-32.415 13.017-14.659 26.769-28.648 41.202-41.914 7.204-6.51 9.22-8.715 14.713-13.596.432-.387 6.483-5.087 9.004-6.969 3.412-2.52 5.87-4.16 9.391-4.367 1.765-.062 3.487.557 4.808 1.73 2.035 2.016 2.206 5.095.72 8.346l-.099.189c.45-.333.9-.657 1.369-.9 1.589-1.11 3.465-1.736 5.402-1.801 1.808-.099 3.584.5 4.962 1.675 2.133 2.097 2.377 5.717.846 9.12-.731 1.568-1.637 3.048-2.701 4.412 2.44-1.917 4.97-3.331 7.617-3.304.792 0 3.368 0 5.15 1.756 2.224 2.179 2.485 5.942.9 9.499-2.944 6.357-11.66 13.533-16.396 18.566z"/>
                <path fill="#FAA61C" fill-rule="nonzero" stroke="#231F20" stroke-linecap="round" stroke-width="1.801" d="M133.835 269.92c5.982-2.48 12.44-3.602 18.908-3.286M152.176 240.829L137.31 253.75M142.407 228.196L127.874 241.531"/>
                <path fill="#2A2B2A" fill-rule="nonzero" d="M168.374 194.783l4.457-23.528c-6.131-1.475-12.602-.156-17.666 3.602l13.209 19.926z"/>
                <circle cx="191.226" cy="192.189" r="9.904" fill="url(#mhzi5e05vc)" fill-rule="nonzero"/>
                <path fill="#A93A24" fill-rule="nonzero" d="M192.883 221.371L176.46 211.305 180.664 208.397 196.691 218.22z"/>
                <path fill="url(#py72bi0ljd)" fill-rule="nonzero" d="M189.11 230.6L173.839 221.236 176.46 211.305 192.883 221.371z"/>
                <path fill="#912E1F" fill-rule="nonzero" d="M189.11 230.6L192.883 221.371 196.691 218.22z"/>
                <path fill="#2A2B2A" fill-rule="nonzero" d="M224.442 198.267c-.315.171-1.801-1.873-3.197-4.574-1.395-2.701-2.314-4.916-2.053-5.186h.045c.37-.054 1.801 1.963 3.179 4.592 1.377 2.629 2.305 4.898 2.053 5.177l-.027-.009z"/>
                <path fill="url(#ipit17rege)" fill-rule="nonzero" d="M219.192 188.507c-.26.27.64 2.548 2.053 5.186 1.44 2.701 2.882 4.745 3.224 4.565l-11.084 5.934c-.008.004-.018.007-.027.009-.324.17-2.035-2.386-3.206-4.574-1.17-2.188-2.35-5.024-2.026-5.196l.005.009.022-.018z"/>
                <path stroke="#E45D26" stroke-linecap="round" stroke-linejoin="round" stroke-width="1.801" d="M134.744 174.695L122.571 170.472M149.025 156.291L140.462 144.964M168.662 148.259L168.797 133.151M193.243 248.14L195.098 260.899M211.494 235.363L221.002 245.907M224.226 219.589L239.091 222.308"/>
                <path fill="#FAA61C" fill-rule="nonzero" d="M50.26 185.157c.013 1.223.322 2.425.9 3.503 1.099 1.89 3.359 3.998 2.702 6.402-1.198 4.322-10.913 4.556-14.227 4.007-2.97-.496-5.915-2.324-6.86-5.187-.879-3.077-.46-6.38 1.16-9.139.631-1.08 1.676-2.638 2.945-2.998 1.477-.423 2.936.801 4.412.55 2.701-.47 1.846-3.36.333-5.061-1.512-1.702-3.98-2.197-6.302-2.107-2.902.115-5.72 1.007-8.158 2.584-2.26 1.468-4.421 3.602-7.113 3.494-5.78-.19-11.876-7.618-12.83-12.948-.695-4.429 1.555-8.798 5.564-10.805 4.09-1.823 8.89-.788 11.867 2.557.546.84 1.295 1.528 2.179 2 2.053.738 3.962-2.027 3.295-4.107-.666-2.08-2.764-3.304-4.754-4.186-4.979-2.197-10.372-3.44-15.208-5.934C5.33 145.288.9 141.119.126 135.735c-.72-4.835 1.72-9.716 5.402-12.714 3.683-2.998 8.69-4.322 13.506-4.385 7.663-.099 16.01 3.485 18.81 10.616 1.566 3.98 1.377 8.31 1.53 12.506.072 2.215.144 6.996 3.17 3.872 2.782-2.854 2.359-9.517 6.978-10.526 3.286-.72 5.762 2.963 6.69 6.195.883 3.085 1.314 6.282 1.278 9.49.121 1.44-.25 2.878-1.053 4.08-1.495 1.8-4.205 1.665-6.483 2.178-2.278.513-4.646 3.07-3.178 4.89 1.305 1.62 3.871.521 5.951.602 1.241.087 2.426.552 3.395 1.333 2.276 1.885 3.38 4.837 2.899 7.752-.393 2.032-1.57 3.828-3.277 4.998-1.801 1.377-3.746 2.278-4.737 4.439-.56 1.29-.815 2.692-.747 4.096z"/>
                <path stroke="#010101" stroke-linecap="round" stroke-width="1.801" d="M56.275 182.843c-12.371-8.297-21.128-20.984-24.5-35.493"/>
                <g>
                    <path stroke="#010101" stroke-linecap="round" stroke-width="1.801" d="M0 58.732s4.524.418 14.918-1.026c10.394-1.445 29.371-7.69 36.214-25.392" transform="rotate(3 -4680.227 4910.11)"/>
                    <path fill="#2B2C2B" fill-rule="nonzero" d="M23.922 51.232c.45-1.693.783-3.422 1.153-5.133.9-4.267 1.953-8.328 1.963-12.731 0-1.693-.757-3.188-2.567-3.44-2.197-.315-4.33 1.315-5.222 3.35-.765 2.101-.887 4.383-.351 6.555.78 4.134 2.499 8.034 5.024 11.399zM76.163 41.165c-.056-2.472-1.532-4.691-3.79-5.7-1.927-.81-4.124-.54-6.186-.17-.95.172-1.889.403-2.81.693-2.48.778-4.86 1.842-7.095 3.17l-4.096 1.422c3.335 5.223 9.175 8.303 15.37 8.104 1.857-.02 3.677-.53 5.276-1.477 2.065-1.317 3.32-3.592 3.331-6.042zM38.013 45.397c.306-1.45.622-2.89.9-4.33.55-1.973 2.558-9.392 2.981-15.154.112-1.535-.2-3.07-.9-4.44-.656-1.406-1.99-2.376-3.53-2.566-2.08-.135-3.854 1.594-4.718 3.494-1.756 3.88-1.017 8.4.063 12.362.499 1.947 1.121 3.86 1.864 5.727.388.942.86 1.846 1.413 2.701.244.288 1.963 2.053 1.927 2.206zM62.189 54.005c-1.522-1.63-3.737-1.8-6.195-1.936-5.015-.243-8.869-.387-11.705-.486 1.44 2.742 3.293 5.247 5.492 7.428 2.864 2.854 4.773 4.547 7.42 4.565 3.399-.103 6.132-2.832 6.24-6.23.014-1.231-.432-2.423-1.252-3.341zM11.389 44.335c.207-1.414.729-2.702.954-4.151.36-2.404-1.116-4.691-3.746-4.295-3.835.567-3.97 5.276-3.44 8.257.401 2.277 1.525 4.364 3.206 5.951.736.7 1.582 1.275 2.503 1.702.586.27 2.161.504 2.467 1.143-.423-.9-.855-1.8-1.287-2.647-.515-1.649-.764-3.369-.738-5.096.018-.288.045-.576.08-.864zM26.245 68.258c-.9-.504-1.936-.837-2.908-1.251-.414-.171-.81-.379-.99-.469-1.475-.82-2.746-1.961-3.72-3.34l-1.926-3.467c-1.135 3.269-1.17 7.06.621 10.013.644 1.005 1.426 1.914 2.323 2.701 1.44 1.324 3.206 2.503 5.169 2.53 1.962.027 4.024-1.54 3.907-3.493-.232-1.422-1.162-2.633-2.476-3.224zM39.931 59.83c-.064-.032-.13-.059-.198-.08-1.267-.353-2.59-.469-3.899-.343-.82.061-1.644.034-2.458-.08-1.846-.505-2.404-1.919-2.998-1.64-.594.28-.558 2.396-.441 3.287v.072c.208 1.455.764 2.839 1.62 4.034.915 1.563 2.364 2.743 4.08 3.322 1.716.483 3.556.228 5.078-.702.504-.314.937-.731 1.27-1.225.382-.58.623-1.244.701-1.935.162-.845.062-1.718-.288-2.504-.52-1.015-1.4-1.8-2.467-2.206zM55.688 25.768l7.401-9.085c1.855-2.278 3.755-4.637 4.583-7.446.829-2.809.316-6.24-2.008-8.04-3.43-2.701-8.616-.433-11.462 2.863-5.59 6.777-6.08 16.416-1.206 23.725l2.692-2.017z" transform="rotate(3 -4680.227 4910.11)"/>
                </g>
                <path stroke="#E65B29" stroke-linecap="round" stroke-width="1.801" d="M130.557 85.619c11.967-34.963 30.614-56.086 51.323-58.202M152.887 51.917c2.804 3.568 6.39 6.445 10.48 8.41 2.118 1.157 4.53 1.662 6.934 1.45 2.368-.361 4.646-2.135 4.943-4.503.18-1.15-.266-2.31-1.17-3.043-.514-.323-1.086-.544-1.684-.648-5.529-1.297-11.4-1.189-16.667-3.296M175.478 21.925c.207-2.702 2.701-4.628 4.25-6.888.57-.86 1.07-1.762 1.495-2.702.963-2.043 1.854-4.258 1.548-6.491-.426-2.634-2.328-4.788-4.889-5.538-2.568-.68-5.305 0-7.257 1.8-1.431 1.402-2.466 3.157-2.998 5.088-1.932 6.408-.333 13.359 4.205 18.278"/>
                <path stroke="#E65B29" stroke-linecap="round" stroke-width="1.801" d="M162.882 38.852c1.917 3.746 5.762 6.042 9.445 8.104 4.043 2.242 8.508 4.502 13.064 3.736 2.215-.369 4.502-1.737 4.953-3.943.24-1.67-.401-3.346-1.693-4.43-1.273-1.05-2.775-1.784-4.385-2.143-5.6-1.504-11.642-1.063-17.108-3.035M161.405 29.956c-.904-3.836-1.057-7.81-.45-11.705.369-2.359.963-4.97-.297-6.996-.736-1.102-1.857-1.889-3.143-2.206-3.57-.824-7.166 1.264-8.22 4.772-.82 3.142.729 6.42 2.7 9.004 1.973 2.584 4.386 4.871 5.763 7.806M147.98 43.462c-2.647-.675-5.402-1.423-7.383-3.295-1.428-1.352-2.263-3.213-2.323-5.178-.026-1.918.747-3.761 2.134-5.087.454-.463 1.017-.804 1.638-.99.592-.147 1.21-.147 1.801 0 2.35.567 4.075 2.571 4.286 4.979 0 .846-.144 1.675-.135 2.521.043 1.628.741 3.17 1.936 4.277M185.391 28.137c6.269 7.107 16.45 9.272 25.068 5.33 4.213-2.052 7.995-6.833 6.167-11.155-1.242-2.917-4.664-4.394-7.824-4.322-3.16.072-6.15 1.405-9.004 2.701l-11.525 5.195"/>
                <path fill="#E65B29" fill-rule="nonzero" d="M154.256 55.744c2.91 2.891 6.447 5.075 10.336 6.383 2.029.804 4.25.992 6.384.54 2.08-.585 3.935-2.43 3.935-4.6.033-1.05-.495-2.038-1.387-2.594-.487-.261-1.031-.4-1.584-.405-2.107 0-7.204.09-13.975.225l-3.71.45zM173.281 23.06c1.586-1.98 2.933-4.137 4.016-6.43.405-.85.754-1.724 1.044-2.62.63-1.936 1.18-4.025.667-5.996-.69-2.306-2.632-4.018-5.007-4.412-2.374-.32-4.749.588-6.302 2.413-1.126 1.417-1.86 3.107-2.125 4.898-1.022 5.964 1.183 12.024 5.798 15.937l1.91-3.79zM162.81 40.014c1.476 3.502 4.78 5.843 7.96 7.941 3.484 2.296 7.364 4.637 11.524 4.268 2.026-.18 4.187-1.26 4.736-3.214.315-1.48-.147-3.018-1.224-4.08-1.041-1.079-2.359-1.851-3.809-2.232-4.896-1.15-9.881-1.879-14.902-2.18l-4.285-.503zM158.848 33.009c.288-2.774.657-6.51 1.098-11.39.216-2.396.324-4.556-1.053-6.25-.782-.904-1.874-1.485-3.062-1.629-3.293-.331-6.282 1.942-6.843 5.204-.342 2.557 1.045 4.62 3.413 7.77 1.812 2.418 3.987 4.541 6.447 6.295zM147.179 43.912c-.432.784-3.16 0-3.305 0-1.378-.393-2.641-1.113-3.682-2.098-1.39-1.093-2.334-2.655-2.657-4.394-.24-1.718.25-3.458 1.351-4.799.672-.942 1.82-1.42 2.962-1.233.916-.068 1.836.055 2.702.36.93.602 1.579 1.553 1.8 2.638.126.45.144.81-.117 4.06-.17 2.144-.216 2.387-.08 2.945.377 1.495 1.296 2.035 1.026 2.521zM183.402 29.056c6.406 5.688 15.784 6.504 23.077 2.008 3.601-2.305 6.42-7.014 4.295-10.688-1.432-2.476-4.664-3.43-7.5-3.007-2.837.423-5.358 1.935-7.807 3.421l-9.76 5.934-2.305 2.332z" opacity=".61"/>
            </g>
        </g>
    </g>
</svg>
