<svg xmlns="http://www.w3.org/2000/svg" xmlns:xlink="http://www.w3.org/1999/xlink" width="100%" height="100%" viewBox="0 0 1023 590">
    <defs>
        <filter id="7vtua20mdh">
            <feColorMatrix in="SourceGraphic" values="0 0 0 0 1.000000 0 0 0 0 1.000000 0 0 0 0 1.000000 0 0 0 1.000000 0"/>
        </filter>
        <filter id="5xc49w270i">
            <feColorMatrix in="SourceGraphic" values="0 0 0 0 1.000000 0 0 0 0 1.000000 0 0 0 0 1.000000 0 0 0 1.000000 0"/>
        </filter>
        <filter id="yfqt5evw0j">
            <feColorMatrix in="SourceGraphic" values="0 0 0 0 1.000000 0 0 0 0 1.000000 0 0 0 0 1.000000 0 0 0 1.000000 0"/>
        </filter>
        <filter id="6ckdw4i20k">
            <feColorMatrix in="SourceGraphic" values="0 0 0 0 1.000000 0 0 0 0 1.000000 0 0 0 0 1.000000 0 0 0 1.000000 0"/>
        </filter>
        <filter id="8djbcad14l">
            <feColorMatrix in="SourceGraphic" values="0 0 0 0 1.000000 0 0 0 0 1.000000 0 0 0 0 1.000000 0 0 0 1.000000 0"/>
        </filter>
        <filter id="gj8xyvsz7m">
            <feColorMatrix in="SourceGraphic" values="0 0 0 0 1.000000 0 0 0 0 1.000000 0 0 0 0 1.000000 0 0 0 1.000000 0"/>
        </filter>
        <linearGradient id="h1chfzldkb" x1="-47.089%" x2="100%" y1="-29.475%" y2="90.459%">
            <stop offset="0%" stop-color="#FAF4EA"/>
            <stop offset="100%" stop-color="#FFA600"/>
        </linearGradient>
        <linearGradient id="h8e1khl8hc" x1="73.741%" x2="32.84%" y1="29.912%" y2="97.485%">
            <stop offset="0%" stop-color="#FAD170"/>
            <stop offset="39.612%" stop-color="#F4A24F"/>
            <stop offset="67.655%" stop-color="#EF7839"/>
            <stop offset="100%" stop-color="#E95027"/>
        </linearGradient>
        <linearGradient id="77m5qhrrde" x1="-47.089%" x2="100%" y1="17.012%" y2="66.794%">
            <stop offset="0%" stop-color="#FAF4EA"/>
            <stop offset="100%" stop-color="#FFA600"/>
        </linearGradient>
        <linearGradient id="ywgrcwy1xf" x1="91.024%" x2="8.017%" y1="50%" y2="56.08%">
            <stop offset="0%" stop-color="#FAD170"/>
            <stop offset="39.612%" stop-color="#F4A24F"/>
            <stop offset="67.655%" stop-color="#EF7839"/>
            <stop offset="100%" stop-color="#E95027"/>
        </linearGradient>
        <path id="moxrgdotoa" d="M82.812 0L165.625 148.987 0 148.987z"/>
        <path id="gut12rwwrd" d="M66.567 77.269L0.015 39.15 66.567 0.128 133.12 39.15z"/>
        <path id="8pxjoan0cg" d="M66.567 77.269L0.015 39.15 66.567 0.128 133.12 39.15z"/>
    </defs>
    <g fill="none" fill-rule="evenodd">
        <g>
            <g>
                <path fill="#AAB4D4" fill-opacity=".25" stroke="#2B2B2B" stroke-linejoin="round" stroke-width="1.513" d="M1 101.879H143.936V244.815H1z" transform="translate(-207 -2246) translate(207 2246)"/>
                <path fill="#2B2B2B" fill-rule="nonzero" d="M143.936 101.123H1c-.418 0-.756.338-.756.756v142.936c0 .418.338.757.756.757h142.936c.418 0 .757-.339.757-.757V101.88c0-.418-.339-.756-.757-.756zm-.756 1.512v141.424H1.756V102.635H143.18z" transform="translate(-207 -2246) translate(207 2246)"/>
                <path fill="#AAB4D4" fill-opacity=".25" stroke="#2B2B2B" stroke-linejoin="round" stroke-width="1.513" d="M404.852 101.879H547.788V244.815H404.852z" transform="translate(-207 -2246) translate(207 2246)"/>
                <path fill="#2B2B2B" fill-rule="nonzero" d="M547.789 101.123H404.852c-.417 0-.756.338-.756.756v142.936c0 .418.339.757.756.757H547.79c.417 0 .756-.339.756-.757V101.88c0-.418-.339-.756-.756-.756zm-.757 1.512v141.424H405.608V102.635h141.424z" transform="translate(-207 -2246) translate(207 2246)"/>
                <path fill="#2B2B2B" stroke="#2B2B2B" stroke-width="1.513" d="M72.09 149.524H143.936V197.169H72.09zM400.837 149.524H448.48199999999997V197.169H400.837zM504.159 149.524H551.804V197.169H504.159z" transform="translate(-207 -2246) translate(207 2246)"/>
                <path fill="#2B2B2B" fill-rule="nonzero" d="M24.293 177.557v-1.26h-4.648v-3.066h4.06v-1.232h-4.06v-2.982h4.648v-1.26h-6.048v9.8h6.048zm2.985 0l2.632-3.892 2.646 3.892h1.652l-3.36-4.998 3.234-4.802H32.43l-2.52 3.724-2.506-3.724h-1.652L29 172.573l-3.388 4.984h1.666zm14.104 2.394l1.106-.728c-.854-1.274-1.582-3.332-1.582-5.838 0-2.562.7-4.648 1.582-5.88l-1.092-.714c-1.022 1.456-1.834 3.752-1.834 6.566 0 2.8.812 5.096 1.82 6.594zm6.457-2.394c1.918 0 3.122-1.162 3.122-2.8 0-1.288-.742-2.002-1.582-2.282v-.028c.742-.406 1.218-1.106 1.218-2.1 0-1.526-1.008-2.59-2.898-2.59h-3.542v9.8h3.682zm-.182-5.572h-2.1v-2.996h2.1c.966 0 1.568.546 1.568 1.442 0 .952-.546 1.554-1.568 1.554zm.182 4.34h-2.282v-3.164h2.156c1.246 0 1.848.616 1.848 1.568 0 .91-.616 1.596-1.722 1.596zm5.45 3.626c1.007-1.498 1.82-3.794 1.82-6.594 0-2.814-.813-5.11-1.835-6.566l-1.092.714c.882 1.232 1.582 3.318 1.582 5.88 0 2.506-.728 4.564-1.582 5.838l1.106.728zM169.916 589.728l.91-2.478h4.06l.924 2.478h1.442l-3.668-9.8h-1.442l-3.668 9.8h1.442zm4.508-3.738h-3.122l1.554-4.214 1.568 4.214zm5.925 3.738v-3.99h1.722l2.31 3.99h1.54l-2.436-4.172c1.162-.322 2.044-1.274 2.044-2.772 0-1.638-1.12-2.856-3.192-2.856h-3.388v9.8h1.4zm1.96-5.222h-1.96v-3.318h1.932c1.12 0 1.848.546 1.848 1.652 0 1.064-.7 1.666-1.82 1.666zm9.327 5.222c1.918 0 3.122-1.162 3.122-2.8 0-1.288-.742-2.002-1.582-2.282v-.028c.742-.406 1.218-1.106 1.218-2.1 0-1.526-1.008-2.59-2.898-2.59h-3.542v9.8h3.682zm-.182-5.572h-2.1v-2.996h2.1c.966 0 1.568.546 1.568 1.442 0 .952-.546 1.554-1.568 1.554zm.182 4.34h-2.282v-3.164h2.156c1.246 0 1.848.616 1.848 1.568 0 .91-.616 1.596-1.722 1.596zm6.541 1.232v-9.8h-1.4v9.8h1.4zm6.107 0v-8.512h2.926v-1.288h-7.238v1.288h2.912v8.512h1.4zm6.121 0v-3.99h1.722l2.31 3.99h1.54l-2.436-4.172c1.162-.322 2.044-1.274 2.044-2.772 0-1.638-1.12-2.856-3.192-2.856h-3.388v9.8h1.4zm1.96-5.222h-1.96v-3.318h1.932c1.12 0 1.848.546 1.848 1.652 0 1.064-.7 1.666-1.82 1.666zm6.317 5.222l.91-2.478h4.06l.924 2.478h1.442l-3.668-9.8h-1.442l-3.668 9.8h1.442zm4.508-3.738h-3.122l1.554-4.214 1.568 4.214zm8.6 3.934c1.764 0 2.884-.896 3.262-1.484l.21 1.288h.994v-5.292h-3.654v1.204h2.282c-.056 1.54-1.036 2.996-3.052 2.996-2.1 0-3.584-1.638-3.584-3.808 0-2.1 1.484-3.808 3.57-3.808 1.414 0 2.338.7 2.8 1.862l1.302-.448c-.63-1.666-2.072-2.702-4.158-2.702-2.758-.042-4.97 2.268-4.914 5.096-.042 2.926 2.1 5.138 4.942 5.096zm12.813-.196v-1.26h-4.648v-3.066h4.06v-1.232h-4.06v-2.982h4.648v-1.26h-6.048v9.8h6.048zm6.992 0l.91-2.478h4.06l.924 2.478h1.442l-3.668-9.8h-1.442l-3.668 9.8h1.442zm4.508-3.738h-3.122l1.554-4.214 1.568 4.214zm5.967 3.738v-7.532l5.096 7.532h1.47v-9.8h-1.414v7.546l-5.082-7.546h-1.47v9.8h1.4zm12.407 0c3.024 0 4.704-2.212 4.704-4.942 0-2.618-1.442-4.858-4.83-4.858h-3.206v9.8h3.332zm-.07-1.26h-1.862v-7.28h1.736c1.288 0 2.198.336 2.716.994.518.658.784 1.526.784 2.59 0 1.05-.266 1.918-.798 2.632-.546.714-1.4 1.064-2.576 1.064zm14.384 1.442c1.988 0 3.542-1.148 3.542-2.884 0-1.624-1.036-2.492-3.276-2.954-1.582-.294-2.254-.644-2.254-1.526 0-.994.798-1.568 1.988-1.568 1.162 0 1.778.616 2.058 1.792l1.302-.378c-.434-1.694-1.568-2.674-3.36-2.674-1.932 0-3.388 1.134-3.388 2.828 0 1.61 1.176 2.464 3.416 2.856.84.154 1.4.364 1.694.63.28.266.42.602.42.994 0 1.05-.868 1.624-2.142 1.624-1.33 0-2.058-.616-2.394-1.918l-1.316.378c.462 1.848 1.764 2.8 3.71 2.8zm11.567-.182v-1.26h-4.648v-3.066h4.06v-1.232h-4.06v-2.982h4.648v-1.26h-6.048v9.8h6.048zm5.73 0v-8.512h2.926v-1.288h-7.238v1.288h2.912v8.512h1.4zm8.473 0v-8.512h2.926v-1.288h-7.238v1.288h2.912v8.512h1.4zm10.615 0v-1.288h-4.494v-8.512h-1.4v9.8h5.894zm7.843 0v-1.26h-4.648v-3.066h4.06v-1.232h-4.06v-2.982h4.648v-1.26h-6.048v9.8h6.048zm3.517 0l.014-7.182 3.052 7.182h1.036l3.08-7.21v7.21h1.386l.014-9.8h-1.61l-3.374 7.924-3.388-7.924h-1.596v9.8h1.386zm17.14 0v-1.26h-4.649v-3.066h4.06v-1.232h-4.06v-2.982h4.648v-1.26h-6.048v9.8h6.048zm3.53 0v-7.532l5.096 7.532h1.47v-9.8h-1.414v7.546l-5.082-7.546h-1.47v9.8h1.4zm12.715 0v-8.512h2.926v-1.288h-7.238v1.288h2.912v8.512h1.4zm7.773.182c1.988 0 3.542-1.148 3.542-2.884 0-1.624-1.036-2.492-3.276-2.954-1.582-.294-2.254-.644-2.254-1.526 0-.994.798-1.568 1.988-1.568 1.162 0 1.778.616 2.058 1.792l1.302-.378c-.434-1.694-1.568-2.674-3.36-2.674-1.932 0-3.388 1.134-3.388 2.828 0 1.61 1.176 2.464 3.416 2.856.84.154 1.4.364 1.694.63.28.266.42.602.42.994 0 1.05-.868 1.624-2.142 1.624-1.33 0-2.058-.616-2.394-1.918l-1.316.378c.462 1.848 1.764 2.8 3.71 2.8zM583.97 589.728c3.024 0 4.704-2.212 4.704-4.942 0-2.618-1.442-4.858-4.83-4.858h-3.206v9.8h3.332zm-.07-1.26h-1.862v-7.28h1.736c1.288 0 2.198.336 2.716.994.518.658.784 1.526.784 2.59 0 1.05-.266 1.918-.798 2.632-.546.714-1.4 1.064-2.576 1.064zm12.982 1.26v-1.26h-4.648v-3.066h4.06v-1.232h-4.06v-2.982h4.648v-1.26h-6.048v9.8h6.048zm3.489 0v-3.724h1.96c1.848 0 3.262-1.092 3.262-3.038 0-1.974-1.344-3.038-3.318-3.038h-3.304v9.8h1.4zm1.806-4.984h-1.806v-3.556h1.806c1.274 0 2.016.63 2.016 1.764 0 1.162-.728 1.792-2.016 1.792zm9.957 5.166c2.898.042 4.998-2.268 4.97-5.096.042-2.8-2.058-5.138-4.97-5.096-2.926-.042-5.026 2.296-4.984 5.096-.042 2.828 2.058 5.138 4.984 5.096zm0-1.288c-2.142 0-3.584-1.596-3.584-3.808 0-2.17 1.456-3.808 3.584-3.808 2.086 0 3.57 1.638 3.57 3.808 0 2.198-1.456 3.808-3.57 3.808zm10.349 1.288c1.988 0 3.542-1.148 3.542-2.884 0-1.624-1.036-2.492-3.276-2.954-1.582-.294-2.254-.644-2.254-1.526 0-.994.798-1.568 1.988-1.568 1.162 0 1.778.616 2.058 1.792l1.302-.378c-.434-1.694-1.568-2.674-3.36-2.674-1.932 0-3.388 1.134-3.388 2.828 0 1.61 1.176 2.464 3.416 2.856.84.154 1.4.364 1.694.63.28.266.42.602.42.994 0 1.05-.868 1.624-2.142 1.624-1.33 0-2.058-.616-2.394-1.918l-1.316.378c.462 1.848 1.764 2.8 3.71 2.8zm6.919-.182v-9.8h-1.4v9.8h1.4zm6.107 0v-8.512h2.926v-1.288h-7.238v1.288h2.912v8.512h1.4zm9.624 0l.91-2.478h4.06l.924 2.478h1.442l-3.668-9.8h-1.442l-3.668 9.8h1.442zm4.508-3.738h-3.122l1.554-4.214 1.568 4.214zm5.967 3.738v-7.532l5.096 7.532h1.47v-9.8h-1.414v7.546l-5.082-7.546h-1.47v9.8h1.4zm12.408 0c3.024 0 4.704-2.212 4.704-4.942 0-2.618-1.442-4.858-4.83-4.858h-3.206v9.8h3.332zm-.07-1.26h-1.862v-7.28h1.736c1.288 0 2.198.336 2.716.994.518.658.784 1.526.784 2.59 0 1.05-.266 1.918-.798 2.632-.546.714-1.4 1.064-2.576 1.064zm14.566 1.26l2.1-7.784 2.1 7.784h1.414l2.758-9.8h-1.428l-2.058 7.658-2.058-7.658h-1.428l-2.058 7.686-2.072-7.686h-1.442l2.758 9.8h1.414zm11.469 0v-9.8h-1.4v9.8h1.4zm6.107 0v-8.512h2.926v-1.288h-7.238v1.288h2.912v8.512h1.4zm6.121 0v-4.354h4.69v4.354h1.4v-9.8h-1.4v4.158h-4.69v-4.158h-1.4v9.8h1.4zm11.89 0c3.023 0 4.703-2.212 4.703-4.942 0-2.618-1.442-4.858-4.83-4.858h-3.206v9.8h3.332zm-.07-1.26h-1.863v-7.28h1.736c1.288 0 2.198.336 2.716.994.518.658.784 1.526.784 2.59 0 1.05-.266 1.918-.798 2.632-.546.714-1.4 1.064-2.576 1.064zm8.332 1.26v-3.99h1.722l2.31 3.99h1.54l-2.436-4.172c1.162-.322 2.044-1.274 2.044-2.772 0-1.638-1.12-2.856-3.192-2.856h-3.388v9.8h1.4zm1.96-5.222h-1.96v-3.318h1.932c1.12 0 1.848.546 1.848 1.652 0 1.064-.7 1.666-1.82 1.666zm6.317 5.222l.91-2.478h4.06l.924 2.478h1.442l-3.668-9.8h-1.442l-3.668 9.8h1.442zm4.508-3.738h-3.122l1.554-4.214 1.568 4.214zm6.808 3.738l2.1-7.784 2.1 7.784h1.414l2.758-9.8h-1.428l-2.058 7.658-2.058-7.658h-1.428l-2.058 7.686-2.072-7.686h-1.442l2.758 9.8h1.414zm9.62 0l.91-2.478h4.06l.925 2.478h1.442l-3.668-9.8H757.8l-3.668 9.8h1.442zm4.509-3.738h-3.122l1.554-4.214 1.568 4.214zm10.419 3.738v-1.288h-4.494v-8.512h-1.4v9.8h5.894zm5.015.182c1.988 0 3.542-1.148 3.542-2.884 0-1.624-1.036-2.492-3.276-2.954-1.582-.294-2.254-.644-2.254-1.526 0-.994.798-1.568 1.988-1.568 1.162 0 1.778.616 2.058 1.792l1.302-.378c-.434-1.694-1.568-2.674-3.36-2.674-1.932 0-3.388 1.134-3.388 2.828 0 1.61 1.176 2.464 3.416 2.856.84.154 1.4.364 1.694.63.28.266.42.602.42.994 0 1.05-.868 1.624-2.142 1.624-1.33 0-2.058-.616-2.394-1.918l-1.316.378c.462 1.848 1.764 2.8 3.71 2.8zM847.673 390.07v-3.723h1.96c1.848 0 3.262-1.092 3.262-3.038 0-1.974-1.344-3.038-3.318-3.038h-3.304v9.8h1.4zm1.806-4.983h-1.806v-3.556h1.806c1.274 0 2.016.63 2.016 1.764 0 1.162-.728 1.792-2.016 1.792zm11.595 4.984v-1.288h-4.452l2.282-2.016c.476-.406.868-.784 1.162-1.106.588-.658.994-1.484.994-2.534 0-1.764-1.414-3.052-3.276-3.052-1.764 0-3.234 1.19-3.318 2.996l1.302.378c0-1.246.854-2.086 2.016-2.086 1.106 0 1.876.77 1.876 1.778 0 .378-.07.714-.224 1.022-.294.616-.686 1.008-1.512 1.722l-3.276 2.884v1.302h6.426zm3.405 0v-3.724h1.96c1.848 0 3.262-1.092 3.262-3.038 0-1.974-1.344-3.038-3.318-3.038h-3.304v9.8h1.4zm1.806-4.984h-1.806v-3.556h1.806c1.274 0 2.016.63 2.016 1.764 0 1.162-.728 1.792-2.016 1.792zm11.08 4.984v-3.724h1.96c1.849 0 3.263-1.092 3.263-3.038 0-1.974-1.344-3.038-3.318-3.038h-3.304v9.8h1.4zm1.807-4.984h-1.806v-3.556h1.806c1.274 0 2.016.63 2.016 1.764 0 1.162-.728 1.792-2.016 1.792zm4.917 4.984l.91-2.478h4.06l.924 2.478h1.442l-3.668-9.8h-1.442l-3.668 9.8h1.442zm4.508-3.738h-3.122l1.554-4.214 1.568 4.214zm7.003 3.738v-3.906l3.346-5.894h-1.526l-2.534 4.508-2.52-4.508h-1.526l3.36 5.894v3.906h1.4zm6.47 0l.015-7.182 3.052 7.182h1.036l3.08-7.21v7.21h1.386l.014-9.8h-1.61l-3.374 7.924-3.388-7.924h-1.596v9.8h1.386zm17.14 0v-1.26h-4.648v-3.066h4.06v-1.232h-4.06v-2.982h4.648v-1.26h-6.048v9.8h6.048zm3.531 0v-7.532l5.096 7.532h1.47v-9.8h-1.414v7.546l-5.082-7.546h-1.47v9.8h1.4zm12.715 0v-8.512h2.926v-1.288h-7.238v1.288h2.912v8.512h1.4zm7.773.182c1.988 0 3.542-1.148 3.542-2.884 0-1.624-1.036-2.492-3.276-2.954-1.582-.294-2.254-.644-2.254-1.526 0-.994.798-1.568 1.988-1.568 1.162 0 1.778.616 2.058 1.792l1.302-.378c-.434-1.694-1.568-2.674-3.36-2.674-1.932 0-3.388 1.134-3.388 2.828 0 1.61 1.176 2.464 3.416 2.856.84.154 1.4.364 1.694.63.28.266.42.602.42.994 0 1.05-.868 1.624-2.142 1.624-1.33 0-2.058-.616-2.394-1.918l-1.316.378c.462 1.848 1.764 2.8 3.71 2.8zM464.005 177.557v-1.26h-4.648v-3.066h4.06v-1.232h-4.06v-2.982h4.648v-1.26h-6.048v9.8h6.048zm2.985 0l2.632-3.892 2.646 3.892h1.652l-3.36-4.998 3.234-4.802h-1.652l-2.52 3.724-2.506-3.724h-1.652l3.248 4.816-3.388 4.984h1.666zm14.105 2.394l1.106-.728c-.854-1.274-1.582-3.332-1.582-5.838 0-2.562.7-4.648 1.582-5.88l-1.092-.714c-1.022 1.456-1.834 3.752-1.834 6.566 0 2.8.812 5.096 1.82 6.594zm3.447-2.394l.91-2.478h4.06l.924 2.478h1.442l-3.668-9.8h-1.442l-3.668 9.8h1.442zm4.508-3.738h-3.122l1.554-4.214 1.568 4.214zm4.833 6.132c1.008-1.498 1.82-3.794 1.82-6.594 0-2.814-.812-5.11-1.834-6.566l-1.092.714c.882 1.232 1.582 3.318 1.582 5.88 0 2.506-.728 4.564-1.582 5.838l1.106.728z" transform="translate(-207 -2246) translate(207 2246)"/>
                <g fill="#2B2B2B" transform="translate(-207 -2246) translate(207 2246) rotate(90 57.33 114.589)">
                    <path fill-rule="nonzero" d="M7.953-.449l-.04 7.781-7.98-3.931 8.02-3.85zm65.92 3.847l1 .005c.21.001.378.171.377.38-.001.183-.132.335-.304.37l-.076.007-1-.006c-.21 0-.378-.17-.377-.38.001-.208.172-.377.38-.376zm-4.025-.02l1 .005c.21 0 .378.171.377.38-.001.183-.132.334-.304.369l-.076.007-1-.005c-.21-.001-.378-.171-.377-.38.001-.209.172-.377.38-.376zm-4.025-.02l1 .004c.21.001.378.172.377.38-.001.183-.132.335-.304.37l-.077.007-1-.005c-.208-.001-.377-.172-.376-.38.001-.21.171-.378.38-.377zm-4.025-.021l1 .005c.21.001.378.171.376.38 0 .183-.13.335-.303.369l-.077.007-1-.005c-.208 0-.377-.171-.376-.38.001-.209.171-.377.38-.376zm-4.025-.02l1 .005c.209 0 .377.17.376.38 0 .182-.13.334-.303.368l-.077.008-1-.005c-.208-.001-.377-.171-.376-.38.001-.21.171-.378.38-.377zm-4.025-.021l1 .005c.209.001.377.171.376.38 0 .183-.131.335-.303.37l-.077.006-1-.005c-.209 0-.377-.17-.376-.38.001-.209.171-.377.38-.376zm-4.025-.02l1 .005c.209 0 .377.17.376.38 0 .182-.131.334-.304.369l-.076.007-1-.005c-.209-.001-.377-.171-.376-.38.001-.209.171-.377.38-.376zm-4.025-.02l1 .004c.209.001.377.171.376.38 0 .183-.131.335-.304.37l-.076.007-1-.006c-.209 0-.377-.17-.376-.38.001-.208.171-.377.38-.376zm-4.025-.021l1 .005c.209 0 .377.171.376.38 0 .183-.131.334-.304.369l-.076.007-1-.005c-.209-.001-.377-.171-.376-.38.001-.209.171-.377.38-.376zm-4.025-.02l1 .004c.209.001.377.172.376.38 0 .183-.131.335-.304.37l-.076.007-1-.005c-.209-.001-.377-.172-.376-.38 0-.21.171-.378.38-.377zm-4.025-.021l1 .005c.209.001.377.171.376.38 0 .183-.131.335-.304.369l-.076.007-1-.005c-.209 0-.377-.171-.376-.38 0-.209.171-.377.38-.376zm-4.025-.02l1 .005c.209 0 .377.17.376.38 0 .182-.131.334-.304.368l-.076.008-1-.005c-.209-.001-.377-.172-.376-.38 0-.21.17-.378.38-.377zm-4.025-.021l1 .005c.209.001.377.171.376.38-.001.183-.131.335-.304.369l-.076.007-1-.005c-.209 0-.377-.171-.376-.38 0-.209.17-.377.38-.376zm-4.025-.02l1 .005c.208 0 .377.17.376.38-.001.182-.131.334-.304.369l-.076.007-1-.005c-.209-.001-.377-.171-.376-.38 0-.21.17-.377.38-.376zm-4.025-.02l1 .004c.208.001.377.171.376.38-.001.183-.132.335-.304.37l-.076.006-1-.005c-.21 0-.378-.17-.376-.38 0-.208.17-.377.38-.376zm-4.025-.021l1 .005c.208 0 .377.171.376.38-.001.183-.132.334-.304.369l-.076.007-1-.005c-.21-.001-.378-.171-.377-.38.002-.209.172-.377.38-.376zm-4.026-.02l1 .004c.21.001.378.172.377.38-.001.183-.132.335-.304.37l-.076.007-1-.005c-.21-.002-.378-.172-.377-.38.001-.21.172-.378.38-.377z"/>
                    <circle cx="76.762" cy="3.781" r="3.403"/>
                </g>
                <g fill="#2B2B2B" transform="translate(-207 -2246) translate(207 2246) rotate(90 259.256 316.515)">
                    <path fill-rule="nonzero" d="M7.953-.449l-.04 7.781-7.98-3.931 8.02-3.85zm65.92 3.847l1 .005c.21.001.378.171.377.38-.001.183-.132.335-.304.37l-.076.007-1-.006c-.21 0-.378-.17-.377-.38.001-.208.172-.377.38-.376zm-4.025-.02l1 .005c.21 0 .378.171.377.38-.001.183-.132.334-.304.369l-.076.007-1-.005c-.21-.001-.378-.171-.377-.38.001-.209.172-.377.38-.376zm-4.025-.02l1 .004c.21.001.378.172.377.38-.001.183-.132.335-.304.37l-.077.007-1-.005c-.208-.001-.377-.172-.376-.38.001-.21.171-.378.38-.377zm-4.025-.021l1 .005c.21.001.378.171.376.38 0 .183-.13.335-.303.369l-.077.007-1-.005c-.208 0-.377-.171-.376-.38.001-.209.171-.377.38-.376zm-4.025-.02l1 .005c.209 0 .377.17.376.38 0 .182-.13.334-.303.368l-.077.008-1-.005c-.208-.001-.377-.171-.376-.38.001-.21.171-.378.38-.377zm-4.025-.021l1 .005c.209.001.377.171.376.38 0 .183-.131.335-.303.37l-.077.006-1-.005c-.209 0-.377-.17-.376-.38.001-.209.171-.377.38-.376zm-4.025-.02l1 .005c.209 0 .377.17.376.38 0 .182-.131.334-.304.369l-.076.007-1-.005c-.209-.001-.377-.171-.376-.38.001-.209.171-.377.38-.376zm-4.025-.02l1 .004c.209.001.377.171.376.38 0 .183-.131.335-.304.37l-.076.007-1-.006c-.209 0-.377-.17-.376-.38.001-.208.171-.377.38-.376zm-4.025-.021l1 .005c.209 0 .377.171.376.38 0 .183-.131.334-.304.369l-.076.007-1-.005c-.209-.001-.377-.171-.376-.38.001-.209.171-.377.38-.376zm-4.025-.02l1 .004c.209.001.377.172.376.38 0 .183-.131.335-.304.37l-.076.007-1-.005c-.209-.001-.377-.172-.376-.38 0-.21.171-.378.38-.377zm-4.025-.021l1 .005c.209.001.377.171.376.38 0 .183-.131.335-.304.369l-.076.007-1-.005c-.209 0-.377-.171-.376-.38 0-.209.171-.377.38-.376zm-4.025-.02l1 .005c.209 0 .377.17.376.38 0 .182-.131.334-.304.368l-.076.008-1-.005c-.209-.001-.377-.172-.376-.38 0-.21.17-.378.38-.377zm-4.025-.021l1 .005c.209.001.377.171.376.38-.001.183-.131.335-.304.369l-.076.007-1-.005c-.209 0-.377-.171-.376-.38 0-.209.17-.377.38-.376zm-4.025-.02l1 .005c.208 0 .377.17.376.38-.001.182-.131.334-.304.369l-.076.007-1-.005c-.209-.001-.377-.171-.376-.38 0-.21.17-.377.38-.376zm-4.025-.02l1 .004c.208.001.377.171.376.38-.001.183-.132.335-.304.37l-.076.006-1-.005c-.21 0-.378-.17-.376-.38 0-.208.17-.377.38-.376zm-4.025-.021l1 .005c.208 0 .377.171.376.38-.001.183-.132.334-.304.369l-.076.007-1-.005c-.21-.001-.378-.171-.377-.38.002-.209.172-.377.38-.376zm-4.026-.02l1 .004c.21.001.378.172.377.38-.001.183-.132.335-.304.37l-.076.007-1-.005c-.21-.002-.378-.172-.377-.38.001-.21.172-.378.38-.377z"/>
                    <circle cx="76.762" cy="3.781" r="3.403"/>
                </g>
                <g fill="#2B2B2B" transform="translate(-207 -2246) translate(207 2246) rotate(-90 336.178 65.187)">
                    <path fill-rule="nonzero" d="M8.143-.26l-.04 7.781-7.98-3.93L8.143-.26zm28.673 3.658l1 .005c.209.001.377.171.376.38 0 .183-.131.335-.304.37l-.076.007-1-.006c-.209 0-.377-.17-.376-.38 0-.208.171-.377.38-.376zm-4.025-.02l1 .005c.209 0 .377.171.376.38-.001.183-.131.334-.304.369l-.076.007-1-.005c-.209-.001-.377-.171-.376-.38 0-.209.17-.377.38-.376zm-4.025-.02l1 .004c.209.001.377.172.376.38-.001.183-.131.335-.304.37l-.076.007-1-.005c-.209-.001-.377-.172-.376-.38 0-.21.17-.378.38-.377zm-4.025-.021l1 .005c.208.001.377.171.376.38-.001.183-.131.335-.304.369l-.076.007-1-.005c-.209 0-.377-.171-.376-.38 0-.209.17-.377.38-.376zm-4.025-.02l1 .005c.208 0 .377.17.376.38-.001.182-.132.334-.304.368l-.076.008-1-.005c-.21-.001-.378-.171-.376-.38 0-.21.17-.378.38-.377zm-4.025-.021l1 .005c.208.001.377.171.376.38-.001.183-.132.335-.304.37l-.076.006-1-.005c-.21 0-.378-.17-.377-.38.002-.209.172-.377.38-.376zm-4.026-.02l1 .005c.21 0 .378.17.377.38-.001.182-.132.334-.304.369l-.076.007-1-.005c-.21-.001-.378-.171-.377-.38.001-.209.172-.377.38-.376zm-4.025-.02l1 .004c.21.001.378.171.377.38-.001.183-.132.335-.304.37l-.076.007-1-.006c-.21 0-.378-.17-.377-.38.001-.208.172-.377.38-.376z"/>
                    <circle cx="39.705" cy="3.781" r="3.403"/>
                </g>
                <g fill="#2B2B2B" transform="translate(-207 -2246) translate(207 2246) rotate(-90 537.726 -136.361)">
                    <path fill-rule="nonzero" d="M8.143-.26l-.04 7.781-7.98-3.93L8.143-.26zm28.673 3.658l1 .005c.209.001.377.171.376.38 0 .183-.131.335-.304.37l-.076.007-1-.006c-.209 0-.377-.17-.376-.38 0-.208.171-.377.38-.376zm-4.025-.02l1 .005c.209 0 .377.171.376.38-.001.183-.131.334-.304.369l-.076.007-1-.005c-.209-.001-.377-.171-.376-.38 0-.209.17-.377.38-.376zm-4.025-.02l1 .004c.209.001.377.172.376.38-.001.183-.131.335-.304.37l-.076.007-1-.005c-.209-.001-.377-.172-.376-.38 0-.21.17-.378.38-.377zm-4.025-.021l1 .005c.208.001.377.171.376.38-.001.183-.131.335-.304.369l-.076.007-1-.005c-.209 0-.377-.171-.376-.38 0-.209.17-.377.38-.376zm-4.025-.02l1 .005c.208 0 .377.17.376.38-.001.182-.132.334-.304.368l-.076.008-1-.005c-.21-.001-.378-.171-.376-.38 0-.21.17-.378.38-.377zm-4.025-.021l1 .005c.208.001.377.171.376.38-.001.183-.132.335-.304.37l-.076.006-1-.005c-.21 0-.378-.17-.377-.38.002-.209.172-.377.38-.376zm-4.026-.02l1 .005c.21 0 .378.17.377.38-.001.182-.132.334-.304.369l-.076.007-1-.005c-.21-.001-.378-.171-.377-.38.001-.209.172-.377.38-.376zm-4.025-.02l1 .004c.21.001.378.171.377.38-.001.183-.132.335-.304.37l-.076.007-1-.006c-.21 0-.378-.17-.377-.38.001-.208.172-.377.38-.376z"/>
                    <circle cx="39.705" cy="3.781" r="3.403"/>
                </g>
                <g fill="#2B2B2B" transform="translate(-207 -2246) translate(207 2246) rotate(90 163.587 220.846)">
                    <path fill-rule="nonzero" d="M7.953-.449l-.04 7.781-7.98-3.931 8.02-3.85zm65.92 3.847l1 .005c.21.001.378.171.377.38-.001.183-.132.335-.304.37l-.076.007-1-.006c-.21 0-.378-.17-.377-.38.001-.208.172-.377.38-.376zm-4.025-.02l1 .005c.21 0 .378.171.377.38-.001.183-.132.334-.304.369l-.076.007-1-.005c-.21-.001-.378-.171-.377-.38.001-.209.172-.377.38-.376zm-4.025-.02l1 .004c.21.001.378.172.377.38-.001.183-.132.335-.304.37l-.077.007-1-.005c-.208-.001-.377-.172-.376-.38.001-.21.171-.378.38-.377zm-4.025-.021l1 .005c.21.001.378.171.376.38 0 .183-.13.335-.303.369l-.077.007-1-.005c-.208 0-.377-.171-.376-.38.001-.209.171-.377.38-.376zm-4.025-.02l1 .005c.209 0 .377.17.376.38 0 .182-.13.334-.303.368l-.077.008-1-.005c-.208-.001-.377-.171-.376-.38.001-.21.171-.378.38-.377zm-4.025-.021l1 .005c.209.001.377.171.376.38 0 .183-.131.335-.303.37l-.077.006-1-.005c-.209 0-.377-.17-.376-.38.001-.209.171-.377.38-.376zm-4.025-.02l1 .005c.209 0 .377.17.376.38 0 .182-.131.334-.304.369l-.076.007-1-.005c-.209-.001-.377-.171-.376-.38.001-.209.171-.377.38-.376zm-4.025-.02l1 .004c.209.001.377.171.376.38 0 .183-.131.335-.304.37l-.076.007-1-.006c-.209 0-.377-.17-.376-.38.001-.208.171-.377.38-.376zm-4.025-.021l1 .005c.209 0 .377.171.376.38 0 .183-.131.334-.304.369l-.076.007-1-.005c-.209-.001-.377-.171-.376-.38.001-.209.171-.377.38-.376zm-4.025-.02l1 .004c.209.001.377.172.376.38 0 .183-.131.335-.304.37l-.076.007-1-.005c-.209-.001-.377-.172-.376-.38 0-.21.171-.378.38-.377zm-4.025-.021l1 .005c.209.001.377.171.376.38 0 .183-.131.335-.304.369l-.076.007-1-.005c-.209 0-.377-.171-.376-.38 0-.209.171-.377.38-.376zm-4.025-.02l1 .005c.209 0 .377.17.376.38 0 .182-.131.334-.304.368l-.076.008-1-.005c-.209-.001-.377-.172-.376-.38 0-.21.17-.378.38-.377zm-4.025-.021l1 .005c.209.001.377.171.376.38-.001.183-.131.335-.304.369l-.076.007-1-.005c-.209 0-.377-.171-.376-.38 0-.209.17-.377.38-.376zm-4.025-.02l1 .005c.208 0 .377.17.376.38-.001.182-.131.334-.304.369l-.076.007-1-.005c-.209-.001-.377-.171-.376-.38 0-.21.17-.377.38-.376zm-4.025-.02l1 .004c.208.001.377.171.376.38-.001.183-.132.335-.304.37l-.076.006-1-.005c-.21 0-.378-.17-.376-.38 0-.208.17-.377.38-.376zm-4.025-.021l1 .005c.208 0 .377.171.376.38-.001.183-.132.334-.304.369l-.076.007-1-.005c-.21-.001-.378-.171-.377-.38.002-.209.172-.377.38-.376zm-4.026-.02l1 .004c.21.001.378.172.377.38-.001.183-.132.335-.304.37l-.076.007-1-.005c-.21-.002-.378-.172-.377-.38.001-.21.172-.378.38-.377z"/>
                    <circle cx="76.762" cy="3.781" r="3.403"/>
                </g>
                <g fill="#2B2B2B" transform="translate(-207 -2246) translate(207 2246) rotate(90 365.891 423.15)">
                    <path fill-rule="nonzero" d="M7.953-.449l-.04 7.781-7.98-3.931 8.02-3.85zm65.92 3.847l1 .005c.21.001.378.171.377.38-.001.183-.132.335-.304.37l-.076.007-1-.006c-.21 0-.378-.17-.377-.38.001-.208.172-.377.38-.376zm-4.025-.02l1 .005c.21 0 .378.171.377.38-.001.183-.132.334-.304.369l-.076.007-1-.005c-.21-.001-.378-.171-.377-.38.001-.209.172-.377.38-.376zm-4.025-.02l1 .004c.21.001.378.172.377.38-.001.183-.132.335-.304.37l-.077.007-1-.005c-.208-.001-.377-.172-.376-.38.001-.21.171-.378.38-.377zm-4.025-.021l1 .005c.21.001.378.171.376.38 0 .183-.13.335-.303.369l-.077.007-1-.005c-.208 0-.377-.171-.376-.38.001-.209.171-.377.38-.376zm-4.025-.02l1 .005c.209 0 .377.17.376.38 0 .182-.13.334-.303.368l-.077.008-1-.005c-.208-.001-.377-.171-.376-.38.001-.21.171-.378.38-.377zm-4.025-.021l1 .005c.209.001.377.171.376.38 0 .183-.131.335-.303.37l-.077.006-1-.005c-.209 0-.377-.17-.376-.38.001-.209.171-.377.38-.376zm-4.025-.02l1 .005c.209 0 .377.17.376.38 0 .182-.131.334-.304.369l-.076.007-1-.005c-.209-.001-.377-.171-.376-.38.001-.209.171-.377.38-.376zm-4.025-.02l1 .004c.209.001.377.171.376.38 0 .183-.131.335-.304.37l-.076.007-1-.006c-.209 0-.377-.17-.376-.38.001-.208.171-.377.38-.376zm-4.025-.021l1 .005c.209 0 .377.171.376.38 0 .183-.131.334-.304.369l-.076.007-1-.005c-.209-.001-.377-.171-.376-.38.001-.209.171-.377.38-.376zm-4.025-.02l1 .004c.209.001.377.172.376.38 0 .183-.131.335-.304.37l-.076.007-1-.005c-.209-.001-.377-.172-.376-.38 0-.21.171-.378.38-.377zm-4.025-.021l1 .005c.209.001.377.171.376.38 0 .183-.131.335-.304.369l-.076.007-1-.005c-.209 0-.377-.171-.376-.38 0-.209.171-.377.38-.376zm-4.025-.02l1 .005c.209 0 .377.17.376.38 0 .182-.131.334-.304.368l-.076.008-1-.005c-.209-.001-.377-.172-.376-.38 0-.21.17-.378.38-.377zm-4.025-.021l1 .005c.209.001.377.171.376.38-.001.183-.131.335-.304.369l-.076.007-1-.005c-.209 0-.377-.171-.376-.38 0-.209.17-.377.38-.376zm-4.025-.02l1 .005c.208 0 .377.17.376.38-.001.182-.131.334-.304.369l-.076.007-1-.005c-.209-.001-.377-.171-.376-.38 0-.21.17-.377.38-.376zm-4.025-.02l1 .004c.208.001.377.171.376.38-.001.183-.132.335-.304.37l-.076.006-1-.005c-.21 0-.378-.17-.376-.38 0-.208.17-.377.38-.376zm-4.025-.021l1 .005c.208 0 .377.171.376.38-.001.183-.132.334-.304.369l-.076.007-1-.005c-.21-.001-.378-.171-.377-.38.002-.209.172-.377.38-.376zm-4.026-.02l1 .004c.21.001.378.172.377.38-.001.183-.132.335-.304.37l-.076.007-1-.005c-.21-.002-.378-.172-.377-.38.001-.21.172-.378.38-.377z"/>
                    <circle cx="76.762" cy="3.781" r="3.403"/>
                </g>
                <g fill="#2B2B2B" transform="translate(-207 -2246) translate(207 2246) rotate(90 472.527 529.785)">
                    <path fill-rule="nonzero" d="M7.953-.449l-.04 7.781-7.98-3.931 8.02-3.85zm65.92 3.847l1 .005c.21.001.378.171.377.38-.001.183-.132.335-.304.37l-.076.007-1-.006c-.21 0-.378-.17-.377-.38.001-.208.172-.377.38-.376zm-4.025-.02l1 .005c.21 0 .378.171.377.38-.001.183-.132.334-.304.369l-.076.007-1-.005c-.21-.001-.378-.171-.377-.38.001-.209.172-.377.38-.376zm-4.025-.02l1 .004c.21.001.378.172.377.38-.001.183-.132.335-.304.37l-.077.007-1-.005c-.208-.001-.377-.172-.376-.38.001-.21.171-.378.38-.377zm-4.025-.021l1 .005c.21.001.378.171.376.38 0 .183-.13.335-.303.369l-.077.007-1-.005c-.208 0-.377-.171-.376-.38.001-.209.171-.377.38-.376zm-4.025-.02l1 .005c.209 0 .377.17.376.38 0 .182-.13.334-.303.368l-.077.008-1-.005c-.208-.001-.377-.171-.376-.38.001-.21.171-.378.38-.377zm-4.025-.021l1 .005c.209.001.377.171.376.38 0 .183-.131.335-.303.37l-.077.006-1-.005c-.209 0-.377-.17-.376-.38.001-.209.171-.377.38-.376zm-4.025-.02l1 .005c.209 0 .377.17.376.38 0 .182-.131.334-.304.369l-.076.007-1-.005c-.209-.001-.377-.171-.376-.38.001-.209.171-.377.38-.376zm-4.025-.02l1 .004c.209.001.377.171.376.38 0 .183-.131.335-.304.37l-.076.007-1-.006c-.209 0-.377-.17-.376-.38.001-.208.171-.377.38-.376zm-4.025-.021l1 .005c.209 0 .377.171.376.38 0 .183-.131.334-.304.369l-.076.007-1-.005c-.209-.001-.377-.171-.376-.38.001-.209.171-.377.38-.376zm-4.025-.02l1 .004c.209.001.377.172.376.38 0 .183-.131.335-.304.37l-.076.007-1-.005c-.209-.001-.377-.172-.376-.38 0-.21.171-.378.38-.377zm-4.025-.021l1 .005c.209.001.377.171.376.38 0 .183-.131.335-.304.369l-.076.007-1-.005c-.209 0-.377-.171-.376-.38 0-.209.171-.377.38-.376zm-4.025-.02l1 .005c.209 0 .377.17.376.38 0 .182-.131.334-.304.368l-.076.008-1-.005c-.209-.001-.377-.172-.376-.38 0-.21.17-.378.38-.377zm-4.025-.021l1 .005c.209.001.377.171.376.38-.001.183-.131.335-.304.369l-.076.007-1-.005c-.209 0-.377-.171-.376-.38 0-.209.17-.377.38-.376zm-4.025-.02l1 .005c.208 0 .377.17.376.38-.001.182-.131.334-.304.369l-.076.007-1-.005c-.209-.001-.377-.171-.376-.38 0-.21.17-.377.38-.376zm-4.025-.02l1 .004c.208.001.377.171.376.38-.001.183-.132.335-.304.37l-.076.006-1-.005c-.21 0-.378-.17-.376-.38 0-.208.17-.377.38-.376zm-4.025-.021l1 .005c.208 0 .377.171.376.38-.001.183-.132.334-.304.369l-.076.007-1-.005c-.21-.001-.378-.171-.377-.38.002-.209.172-.377.38-.376zm-4.026-.02l1 .004c.21.001.378.172.377.38-.001.183-.132.335-.304.37l-.076.007-1-.005c-.21-.002-.378-.172-.377-.38.001-.21.172-.378.38-.377z"/>
                    <circle cx="76.762" cy="3.781" r="3.403"/>
                </g>
                <path fill="#2B2B2B" fill-rule="nonzero" d="M135.447 11.688v-1.26H130.8V7.362h4.06V6.13h-4.06V3.148h4.648v-1.26H129.4v9.8h6.048zm2.436 0l1.792-2.492 1.778 2.492h1.526l-2.52-3.5 2.45-3.43h-1.512l-1.722 2.436-1.722-2.436h-1.526l2.464 3.444-2.52 3.486h1.512zm9.45.196c1.47 0 2.562-.854 3.052-2.142l-1.246-.42c-.28.798-.952 1.302-1.806 1.302-1.26 0-2.17-1.008-2.17-2.394 0-1.386.91-2.408 2.17-2.408.882 0 1.54.49 1.806 1.316l1.26-.42c-.434-1.302-1.54-2.156-3.066-2.156-2.114 0-3.542 1.666-3.542 3.668 0 1.974 1.4 3.654 3.542 3.654zm5.95-.196v-3.85c0-1.232.784-1.988 1.75-1.988.938 0 1.484.448 1.484 1.722v4.116h1.372V7.334c0-1.862-.896-2.772-2.422-2.772-.938 0-1.666.35-2.184 1.036v-3.71h-1.358v9.8h1.358zm8.498.196c.938 0 1.624-.294 2.044-.868l.14.672h1.162V7.096c0-1.638-1.134-2.52-2.828-2.52-1.526 0-2.464.7-2.8 2.086l1.218.294c.126-.798.602-1.26 1.554-1.26.994 0 1.484.476 1.484 1.414v.154l-1.666.238c-1.946.28-2.702 1.078-2.702 2.268 0 1.218.952 2.114 2.394 2.114zm.336-1.134c-.854 0-1.4-.42-1.4-1.05 0-.686.49-.994 1.484-1.148l1.554-.238v.91c0 .994-.728 1.526-1.638 1.526zm6.062.938V7.824c0-1.232.756-1.974 1.75-1.974.938 0 1.484.448 1.484 1.722v4.116h1.372V7.334c0-1.862-.91-2.772-2.436-2.772-.938 0-1.666.364-2.198 1.078l-.21-.882h-1.134v6.93h1.372zm9.548 3.052c2.31 0 3.472-1.386 3.472-3.178V4.758h-1.148l-.224.91c-.434-.63-1.19-1.106-2.268-1.106-1.96 0-3.276 1.68-3.276 3.584 0 1.918 1.26 3.542 3.29 3.542 1.05 0 1.862-.504 2.254-1.134v1.036c0 1.246-.742 1.974-2.1 1.974-.994 0-1.61-.448-1.848-1.358l-1.288.308c.392 1.358 1.414 2.226 3.136 2.226zm.028-4.284c-1.246 0-2.1-.924-2.1-2.31 0-1.4.854-2.352 2.086-2.352 1.232 0 2.086.952 2.086 2.352 0 1.386-.854 2.31-2.072 2.31zm8.414 1.428c1.582 0 2.66-.812 3.066-1.974l-1.176-.378c-.224.658-.924 1.204-1.89 1.204-1.218 0-2.058-.966-2.142-2.086h5.39v-.546c0-2.1-1.302-3.528-3.262-3.528-1.946 0-3.458 1.61-3.458 3.64 0 2.058 1.442 3.668 3.472 3.668zm2.016-4.312h-4.144c.168-1.05.952-1.848 2.128-1.848 1.162 0 1.946.868 2.016 1.848zm8.064 6.51l1.106-.728c-.854-1.274-1.582-3.332-1.582-5.838 0-2.562.7-4.648 1.582-5.88l-1.092-.714c-1.022 1.456-1.834 3.752-1.834 6.566 0 2.8.812 5.096 1.82 6.594zm6.146-2.394c1.918 0 3.122-1.162 3.122-2.8 0-1.288-.742-2.002-1.582-2.282v-.028c.742-.406 1.218-1.106 1.218-2.1 0-1.526-1.008-2.59-2.898-2.59h-3.542v9.8h3.682zm-.182-5.572h-2.1V3.12h2.1c.966 0 1.568.546 1.568 1.442 0 .952-.546 1.554-1.568 1.554zm.182 4.34h-2.282V7.292h2.156c1.246 0 1.848.616 1.848 1.568 0 .91-.616 1.596-1.722 1.596zm5.138 3.626c1.008-1.498 1.82-3.794 1.82-6.594 0-2.814-.812-5.11-1.834-6.566l-1.092.714c.882 1.232 1.582 3.318 1.582 5.88 0 2.506-.728 4.564-1.582 5.838l1.106.728zm-68.117 20.295v-1.288h-4.494v-8.512h-1.4v9.8h5.894zm7.63 0v-1.288h-4.452l2.282-2.016c.476-.406.868-.784 1.162-1.106.588-.658.994-1.484.994-2.534 0-1.764-1.414-3.052-3.276-3.052-1.764 0-3.234 1.19-3.318 2.996l1.302.378c0-1.246.854-2.086 2.016-2.086 1.106 0 1.876.77 1.876 1.778 0 .378-.07.714-.224 1.022-.294.616-.686 1.008-1.512 1.722l-3.276 2.884v1.302h6.426zm6.286 0l.91-2.478h4.06l.924 2.478h1.442l-3.668-9.8h-1.442l-3.668 9.8h1.442zm4.508-3.738h-3.122l1.554-4.214 1.568 4.214zm7.266 3.934c1.47 0 2.562-.854 3.052-2.142l-1.246-.42c-.28.798-.952 1.302-1.806 1.302-1.26 0-2.17-1.008-2.17-2.394 0-1.386.91-2.408 2.17-2.408.882 0 1.54.49 1.806 1.316l1.26-.42c-.434-1.302-1.54-2.156-3.066-2.156-2.114 0-3.542 1.666-3.542 3.668 0 1.974 1.4 3.654 3.542 3.654zm7.812 0c1.47 0 2.562-.854 3.052-2.142l-1.246-.42c-.28.798-.952 1.302-1.806 1.302-1.26 0-2.17-1.008-2.17-2.394 0-1.386.91-2.408 2.17-2.408.882 0 1.54.49 1.806 1.316l1.26-.42c-.434-1.302-1.54-2.156-3.066-2.156-2.114 0-3.542 1.666-3.542 3.668 0 1.974 1.4 3.654 3.542 3.654zm7.84 0c2.114 0 3.57-1.708 3.57-3.654 0-1.96-1.456-3.668-3.57-3.668-2.072-.042-3.612 1.736-3.57 3.668-.042 1.918 1.47 3.696 3.57 3.654zm0-1.26c-1.274 0-2.198-1.008-2.198-2.394 0-1.372.924-2.408 2.198-2.408 1.26 0 2.198 1.036 2.198 2.408 0 1.372-.938 2.394-2.198 2.394zm7.504 1.26c.938 0 1.666-.364 2.198-1.078l.21.882h1.134v-6.93h-1.372v3.878c0 1.232-.756 1.974-1.75 1.974-.938 0-1.484-.476-1.484-1.722v-4.13h-1.372v4.368c0 1.862.91 2.758 2.436 2.758zm6.734-.196v-3.864c0-1.232.756-1.974 1.75-1.974.938 0 1.484.448 1.484 1.722v4.116h1.372v-4.354c0-1.862-.91-2.772-2.436-2.772-.938 0-1.666.364-2.198 1.078l-.21-.882h-1.134v6.93h1.372zm8.876.196c.784 0 1.33-.28 1.568-.56l-.63-.98c-.182.182-.406.266-.672.266-.49 0-.728-.266-.728-.812v-3.808h1.876v-1.232h-1.876V25.64h-1.372v1.806h-1.246v1.232h1.246v3.976c0 1.19.756 1.918 1.834 1.918zM784.794 13.696v-1.288H780.3V3.896h-1.4v9.8h5.894zm7.63 0v-1.288h-4.452l2.282-2.016c.476-.406.868-.784 1.162-1.106.588-.658.994-1.484.994-2.534 0-1.764-1.414-3.052-3.276-3.052-1.764 0-3.234 1.19-3.318 2.996l1.302.378c0-1.246.854-2.086 2.016-2.086 1.106 0 1.876.77 1.876 1.778 0 .378-.07.714-.224 1.022-.294.616-.686 1.008-1.512 1.722l-3.276 2.884v1.302h6.426zM770.03 36.385l2.1-7.784 2.1 7.784h1.414l2.758-9.8h-1.428l-2.058 7.658-2.058-7.658h-1.428l-2.058 7.686-2.072-7.686h-1.442l2.758 9.8h1.414zm11.662.196c.938 0 1.624-.294 2.044-.868l.14.672h1.162v-4.592c0-1.638-1.134-2.52-2.828-2.52-1.526 0-2.464.7-2.8 2.086l1.218.294c.126-.798.602-1.26 1.554-1.26.994 0 1.484.476 1.484 1.414v.154l-1.666.238c-1.946.28-2.702 1.078-2.702 2.268 0 1.218.952 2.114 2.394 2.114zm.336-1.134c-.854 0-1.4-.42-1.4-1.05 0-.686.49-.994 1.484-1.148l1.554-.238v.91c0 .994-.728 1.526-1.638 1.526zm6.062.938v-9.8h-1.372v9.8h1.372zm3.192 0v-9.8h-1.372v9.8h1.372zm4.97.196c1.582 0 2.66-.812 3.066-1.974l-1.176-.378c-.224.658-.924 1.204-1.89 1.204-1.218 0-2.058-.966-2.142-2.086h5.39V32.8c0-2.1-1.302-3.528-3.262-3.528-1.946 0-3.458 1.61-3.458 3.64 0 2.058 1.442 3.668 3.472 3.668zm2.016-4.312h-4.144c.168-1.05.952-1.848 2.128-1.848 1.162 0 1.946.868 2.016 1.848zm5.18 4.312c.784 0 1.33-.28 1.568-.56l-.63-.98c-.182.182-.406.266-.672.266-.49 0-.728-.266-.728-.812v-3.808h1.876v-1.232h-1.876v-1.806h-1.372v1.806h-1.246v1.232h1.246v3.976c0 1.19.756 1.918 1.834 1.918zM997.625 13.696v-1.288h-4.494V3.896h-1.4v9.8h5.894zm7.63 0v-1.288h-4.452l2.282-2.016c.476-.406.868-.784 1.162-1.106.588-.658.994-1.484.994-2.534 0-1.764-1.414-3.052-3.276-3.052-1.764 0-3.234 1.19-3.318 2.996l1.302.378c0-1.246.854-2.086 2.016-2.086 1.106 0 1.876.77 1.876 1.778 0 .378-.07.714-.224 1.022-.294.616-.686 1.008-1.512 1.722l-3.276 2.884v1.302h6.426zm-22.393 22.689l2.1-7.784 2.1 7.784h1.414l2.758-9.8h-1.428l-2.058 7.658-2.058-7.658h-1.428l-2.058 7.686-2.072-7.686h-1.442l2.758 9.8h1.414zm11.662.196c.938 0 1.624-.294 2.044-.868l.14.672h1.162v-4.592c0-1.638-1.134-2.52-2.828-2.52-1.526 0-2.464.7-2.8 2.086l1.218.294c.126-.798.602-1.26 1.554-1.26.994 0 1.484.476 1.484 1.414v.154l-1.666.238c-1.946.28-2.702 1.078-2.702 2.268 0 1.218.952 2.114 2.394 2.114zm.336-1.134c-.854 0-1.4-.42-1.4-1.05 0-.686.49-.994 1.484-1.148l1.554-.238v.91c0 .994-.728 1.526-1.638 1.526zm6.062.938v-9.8h-1.372v9.8h1.372zm3.192 0v-9.8h-1.372v9.8h1.372zm4.97.196c1.582 0 2.66-.812 3.066-1.974l-1.176-.378c-.224.658-.924 1.204-1.89 1.204-1.218 0-2.058-.966-2.142-2.086h5.39V32.8c0-2.1-1.302-3.528-3.262-3.528-1.946 0-3.458 1.61-3.458 3.64 0 2.058 1.442 3.668 3.472 3.668zm2.016-4.312h-4.144c.168-1.05.952-1.848 2.128-1.848 1.162 0 1.946.868 2.016 1.848zm5.18 4.312c.784 0 1.33-.28 1.568-.56l-.63-.98c-.182.182-.406.266-.672.266-.49 0-.728-.266-.728-.812v-3.808h1.876v-1.232h-1.876v-1.806h-1.372v1.806h-1.246v1.232h1.246v3.976c0 1.19.756 1.918 1.834 1.918zM346.586 11.688v-1.26h-4.648V7.362h4.06V6.13h-4.06V3.148h4.648v-1.26h-6.048v9.8h6.048zm2.436 0l1.792-2.492 1.778 2.492h1.526l-2.52-3.5 2.45-3.43h-1.512l-1.722 2.436-1.722-2.436h-1.526l2.464 3.444-2.52 3.486h1.512zm9.45.196c1.47 0 2.562-.854 3.052-2.142l-1.246-.42c-.28.798-.952 1.302-1.806 1.302-1.26 0-2.17-1.008-2.17-2.394 0-1.386.91-2.408 2.17-2.408.882 0 1.54.49 1.806 1.316l1.26-.42c-.434-1.302-1.54-2.156-3.066-2.156-2.114 0-3.542 1.666-3.542 3.668 0 1.974 1.4 3.654 3.542 3.654zm5.95-.196v-3.85c0-1.232.784-1.988 1.75-1.988.938 0 1.484.448 1.484 1.722v4.116h1.372V7.334c0-1.862-.896-2.772-2.422-2.772-.938 0-1.666.35-2.184 1.036v-3.71h-1.358v9.8h1.358zm8.498.196c.938 0 1.624-.294 2.044-.868l.14.672h1.162V7.096c0-1.638-1.134-2.52-2.828-2.52-1.526 0-2.464.7-2.8 2.086l1.218.294c.126-.798.602-1.26 1.554-1.26.994 0 1.484.476 1.484 1.414v.154l-1.666.238c-1.946.28-2.702 1.078-2.702 2.268 0 1.218.952 2.114 2.394 2.114zm.336-1.134c-.854 0-1.4-.42-1.4-1.05 0-.686.49-.994 1.484-1.148l1.554-.238v.91c0 .994-.728 1.526-1.638 1.526zm6.062.938V7.824c0-1.232.756-1.974 1.75-1.974.938 0 1.484.448 1.484 1.722v4.116h1.372V7.334c0-1.862-.91-2.772-2.436-2.772-.938 0-1.666.364-2.198 1.078l-.21-.882h-1.134v6.93h1.372zm9.548 3.052c2.31 0 3.472-1.386 3.472-3.178V4.758h-1.148l-.224.91c-.434-.63-1.19-1.106-2.268-1.106-1.96 0-3.276 1.68-3.276 3.584 0 1.918 1.26 3.542 3.29 3.542 1.05 0 1.862-.504 2.254-1.134v1.036c0 1.246-.742 1.974-2.1 1.974-.994 0-1.61-.448-1.848-1.358l-1.288.308c.392 1.358 1.414 2.226 3.136 2.226zm.028-4.284c-1.246 0-2.1-.924-2.1-2.31 0-1.4.854-2.352 2.086-2.352 1.232 0 2.086.952 2.086 2.352 0 1.386-.854 2.31-2.072 2.31zm8.414 1.428c1.582 0 2.66-.812 3.066-1.974l-1.176-.378c-.224.658-.924 1.204-1.89 1.204-1.218 0-2.058-.966-2.142-2.086h5.39v-.546c0-2.1-1.302-3.528-3.262-3.528-1.946 0-3.458 1.61-3.458 3.64 0 2.058 1.442 3.668 3.472 3.668zm2.016-4.312h-4.144c.168-1.05.952-1.848 2.128-1.848 1.162 0 1.946.868 2.016 1.848zm8.064 6.51l1.106-.728c-.854-1.274-1.582-3.332-1.582-5.838 0-2.562.7-4.648 1.582-5.88l-1.092-.714c-1.022 1.456-1.834 3.752-1.834 6.566 0 2.8.812 5.096 1.82 6.594zm3.136-2.394l.91-2.478h4.06l.924 2.478h1.442l-3.668-9.8h-1.442l-3.668 9.8h1.442zm4.508-3.738h-3.122l1.554-4.214 1.568 4.214zm4.522 6.132c1.008-1.498 1.82-3.794 1.82-6.594 0-2.814-.812-5.11-1.834-6.566l-1.092.714c.882 1.232 1.582 3.318 1.582 5.88 0 2.506-.728 4.564-1.582 5.838l1.106.728zm-68.558 20.295v-1.288h-4.494v-8.512h-1.4v9.8h5.894zm7.63 0v-1.288h-4.452l2.282-2.016c.476-.406.868-.784 1.162-1.106.588-.658.994-1.484.994-2.534 0-1.764-1.414-3.052-3.276-3.052-1.764 0-3.234 1.19-3.318 2.996l1.302.378c0-1.246.854-2.086 2.016-2.086 1.106 0 1.876.77 1.876 1.778 0 .378-.07.714-.224 1.022-.294.616-.686 1.008-1.512 1.722l-3.276 2.884v1.302h6.426zm6.286 0l.91-2.478h4.06l.924 2.478h1.442l-3.668-9.8h-1.442l-3.668 9.8h1.442zm4.508-3.738h-3.122l1.554-4.214 1.568 4.214zm7.266 3.934c1.47 0 2.562-.854 3.052-2.142l-1.246-.42c-.28.798-.952 1.302-1.806 1.302-1.26 0-2.17-1.008-2.17-2.394 0-1.386.91-2.408 2.17-2.408.882 0 1.54.49 1.806 1.316l1.26-.42c-.434-1.302-1.54-2.156-3.066-2.156-2.114 0-3.542 1.666-3.542 3.668 0 1.974 1.4 3.654 3.542 3.654zm7.812 0c1.47 0 2.562-.854 3.052-2.142l-1.246-.42c-.28.798-.952 1.302-1.806 1.302-1.26 0-2.17-1.008-2.17-2.394 0-1.386.91-2.408 2.17-2.408.882 0 1.54.49 1.806 1.316l1.26-.42c-.434-1.302-1.54-2.156-3.066-2.156-2.114 0-3.542 1.666-3.542 3.668 0 1.974 1.4 3.654 3.542 3.654zm7.84 0c2.114 0 3.57-1.708 3.57-3.654 0-1.96-1.456-3.668-3.57-3.668-2.072-.042-3.612 1.736-3.57 3.668-.042 1.918 1.47 3.696 3.57 3.654zm0-1.26c-1.274 0-2.198-1.008-2.198-2.394 0-1.372.924-2.408 2.198-2.408 1.26 0 2.198 1.036 2.198 2.408 0 1.372-.938 2.394-2.198 2.394zm7.504 1.26c.938 0 1.666-.364 2.198-1.078l.21.882h1.134v-6.93h-1.372v3.878c0 1.232-.756 1.974-1.75 1.974-.938 0-1.484-.476-1.484-1.722v-4.13h-1.372v4.368c0 1.862.91 2.758 2.436 2.758zm6.734-.196v-3.864c0-1.232.756-1.974 1.75-1.974.938 0 1.484.448 1.484 1.722v4.116h1.372v-4.354c0-1.862-.91-2.772-2.436-2.772-.938 0-1.666.364-2.198 1.078l-.21-.882h-1.134v6.93h1.372zm8.876.196c.784 0 1.33-.28 1.568-.56l-.63-.98c-.182.182-.406.266-.672.266-.49 0-.728-.266-.728-.812v-3.808h1.876v-1.232h-1.876V25.64h-1.372v1.806h-1.246v1.232h1.246v3.976c0 1.19.756 1.918 1.834 1.918zM555.55 11.688V3.176h2.925V1.888h-7.238v1.288h2.912v8.512h1.4zm5.613 0V7.852c0-1.218.686-1.988 1.596-1.988.406 0 .728.126.896.252l.532-1.204c-.266-.182-.7-.35-1.246-.35-.826 0-1.47.462-1.806 1.064l-.21-.868h-1.134v6.93h1.372zm6.118.196c.938 0 1.624-.294 2.044-.868l.14.672h1.162V7.096c0-1.638-1.134-2.52-2.828-2.52-1.526 0-2.464.7-2.8 2.086l1.218.294c.126-.798.602-1.26 1.554-1.26.994 0 1.484.476 1.484 1.414v.154l-1.666.238c-1.946.28-2.702 1.078-2.702 2.268 0 1.218.952 2.114 2.394 2.114zm.336-1.134c-.854 0-1.4-.42-1.4-1.05 0-.686.49-.994 1.484-1.148l1.554-.238v.91c0 .994-.728 1.526-1.638 1.526zm7.7 1.12c1.078 0 1.876-.49 2.338-1.12l.182.938h1.134v-9.8H577.6v3.766c-.462-.63-1.274-1.092-2.296-1.092-2.044 0-3.318 1.694-3.318 3.654-.028 1.876 1.4 3.696 3.332 3.654zm.168-1.232c-1.232 0-2.128-1.036-2.128-2.422 0-1.414.896-2.422 2.128-2.422 1.246 0 2.114 1.008 2.114 2.422 0 1.414-.868 2.422-2.114 2.422zm8.456 1.246c1.582 0 2.66-.812 3.066-1.974l-1.176-.378c-.224.658-.924 1.204-1.89 1.204-1.218 0-2.058-.966-2.142-2.086h5.39v-.546c0-2.1-1.302-3.528-3.262-3.528-1.946 0-3.458 1.61-3.458 3.64 0 2.058 1.442 3.668 3.472 3.668zm2.016-4.312h-4.144c.168-1.05.952-1.848 2.128-1.848 1.162 0 1.946.868 2.016 1.848zm4.102 4.116V7.852c0-1.218.686-1.988 1.596-1.988.406 0 .728.126.896.252l.532-1.204c-.266-.182-.7-.35-1.246-.35-.826 0-1.47.462-1.806 1.064l-.21-.868h-1.134v6.93h1.372zM542.34 34.377v-1.288h-4.494v-8.512h-1.4v9.8h5.894zm7.63 0v-1.288h-4.452l2.282-2.016c.476-.406.868-.784 1.162-1.106.588-.658.994-1.484.994-2.534 0-1.764-1.414-3.052-3.276-3.052-1.764 0-3.234 1.19-3.318 2.996l1.302.378c0-1.246.854-2.086 2.016-2.086 1.106 0 1.876.77 1.876 1.778 0 .378-.07.714-.224 1.022-.294.616-.686 1.008-1.512 1.722l-3.276 2.884v1.302h6.426zm6.286 0l.91-2.478h4.06l.924 2.478h1.442l-3.668-9.8h-1.442l-3.668 9.8h1.442zm4.508-3.738h-3.122l1.554-4.214 1.568 4.214zm7.266 3.934c1.47 0 2.562-.854 3.052-2.142l-1.246-.42c-.28.798-.952 1.302-1.806 1.302-1.26 0-2.17-1.008-2.17-2.394 0-1.386.91-2.408 2.17-2.408.882 0 1.54.49 1.806 1.316l1.26-.42c-.434-1.302-1.54-2.156-3.066-2.156-2.114 0-3.542 1.666-3.542 3.668 0 1.974 1.4 3.654 3.542 3.654zm7.812 0c1.47 0 2.562-.854 3.052-2.142l-1.246-.42c-.28.798-.952 1.302-1.806 1.302-1.26 0-2.17-1.008-2.17-2.394 0-1.386.91-2.408 2.17-2.408.882 0 1.54.49 1.806 1.316l1.26-.42c-.434-1.302-1.54-2.156-3.066-2.156-2.114 0-3.542 1.666-3.542 3.668 0 1.974 1.4 3.654 3.542 3.654zm7.84 0c2.114 0 3.57-1.708 3.57-3.654 0-1.96-1.456-3.668-3.57-3.668-2.072-.042-3.612 1.736-3.57 3.668-.042 1.918 1.47 3.696 3.57 3.654zm0-1.26c-1.274 0-2.198-1.008-2.198-2.394 0-1.372.924-2.408 2.198-2.408 1.26 0 2.198 1.036 2.198 2.408 0 1.372-.938 2.394-2.198 2.394zm7.504 1.26c.938 0 1.666-.364 2.198-1.078l.21.882h1.134v-6.93h-1.372v3.878c0 1.232-.756 1.974-1.75 1.974-.938 0-1.484-.476-1.484-1.722v-4.13h-1.372v4.368c0 1.862.91 2.758 2.436 2.758zm6.734-.196v-3.864c0-1.232.756-1.974 1.75-1.974.938 0 1.484.448 1.484 1.722v4.116h1.372v-4.354c0-1.862-.91-2.772-2.436-2.772-.938 0-1.666.364-2.198 1.078l-.21-.882h-1.134v6.93h1.372zm8.876.196c.784 0 1.33-.28 1.568-.56l-.63-.98c-.182.182-.406.266-.672.266-.49 0-.728-.266-.728-.812v-3.808h1.876v-1.232h-1.876V25.64h-1.372v1.806h-1.246v1.232h1.246v3.976c0 1.19.756 1.918 1.834 1.918zM258.687 430.666v-8.512h2.926v-1.288h-7.238v1.288h2.912v8.512h1.4zm5.614 0v-3.836c0-1.218.686-1.988 1.596-1.988.406 0 .728.126.896.252l.532-1.204c-.266-.182-.7-.35-1.246-.35-.826 0-1.47.462-1.806 1.064l-.21-.868h-1.134v6.93h1.372zm6.118.196c.938 0 1.624-.294 2.044-.868l.14.672h1.162v-4.592c0-1.638-1.134-2.52-2.828-2.52-1.526 0-2.464.7-2.8 2.086l1.218.294c.126-.798.602-1.26 1.554-1.26.994 0 1.484.476 1.484 1.414v.154l-1.666.238c-1.946.28-2.702 1.078-2.702 2.268 0 1.218.952 2.114 2.394 2.114zm.336-1.134c-.854 0-1.4-.42-1.4-1.05 0-.686.49-.994 1.484-1.148l1.554-.238v.91c0 .994-.728 1.526-1.638 1.526zm7.7 1.12c1.078 0 1.876-.49 2.338-1.12l.182.938h1.134v-9.8h-1.372v3.766c-.462-.63-1.274-1.092-2.296-1.092-2.044 0-3.318 1.694-3.318 3.654-.028 1.876 1.4 3.696 3.332 3.654zm.168-1.232c-1.232 0-2.128-1.036-2.128-2.422 0-1.414.896-2.422 2.128-2.422 1.246 0 2.114 1.008 2.114 2.422 0 1.414-.868 2.422-2.114 2.422zm8.456 1.246c1.582 0 2.66-.812 3.066-1.974l-1.176-.378c-.224.658-.924 1.204-1.89 1.204-1.218 0-2.058-.966-2.142-2.086h5.39v-.546c0-2.1-1.302-3.528-3.262-3.528-1.946 0-3.458 1.61-3.458 3.64 0 2.058 1.442 3.668 3.472 3.668zm2.016-4.312h-4.144c.168-1.05.952-1.848 2.128-1.848 1.162 0 1.946.868 2.016 1.848zm4.102 4.116v-3.836c0-1.218.686-1.988 1.596-1.988.406 0 .728.126.896.252l.532-1.204c-.266-.182-.7-.35-1.246-.35-.826 0-1.47.462-1.806 1.064l-.21-.868h-1.134v6.93h1.372zm-40.523 22.689v-1.288h-4.494v-8.512h-1.4v9.8h5.894zm7.63 0v-1.288h-4.452l2.282-2.016c.476-.406.868-.784 1.162-1.106.588-.658.994-1.484.994-2.534 0-1.764-1.414-3.052-3.276-3.052-1.764 0-3.234 1.19-3.318 2.996l1.302.378c0-1.246.854-2.086 2.016-2.086 1.106 0 1.876.77 1.876 1.778 0 .378-.07.714-.224 1.022-.294.616-.686 1.008-1.512 1.722l-3.276 2.884v1.302h6.426zm9.016 0l2.1-7.784 2.1 7.784h1.414l2.758-9.8h-1.428l-2.058 7.658-2.058-7.658h-1.428l-2.058 7.686-2.072-7.686h-1.442l2.758 9.8h1.414zm11.662.196c.938 0 1.624-.294 2.044-.868l.14.672h1.162v-4.592c0-1.638-1.134-2.52-2.828-2.52-1.526 0-2.464.7-2.8 2.086l1.218.294c.126-.798.602-1.26 1.554-1.26.994 0 1.484.476 1.484 1.414v.154l-1.666.238c-1.946.28-2.702 1.078-2.702 2.268 0 1.218.952 2.114 2.394 2.114zm.336-1.134c-.854 0-1.4-.42-1.4-1.05 0-.686.49-.994 1.484-1.148l1.554-.238v.91c0 .994-.728 1.526-1.638 1.526zm6.062.938v-9.8h-1.372v9.8h1.372zm3.192 0v-9.8H289.2v9.8h1.372zm4.97.196c1.582 0 2.66-.812 3.066-1.974l-1.176-.378c-.224.658-.924 1.204-1.89 1.204-1.218 0-2.058-.966-2.142-2.086h5.39v-.546c0-2.1-1.302-3.528-3.262-3.528-1.946 0-3.458 1.61-3.458 3.64 0 2.058 1.442 3.668 3.472 3.668zm2.016-4.312h-4.144c.168-1.05.952-1.848 2.128-1.848 1.162 0 1.946.868 2.016 1.848zm5.18 4.312c.784 0 1.33-.28 1.568-.56l-.63-.98c-.182.182-.406.266-.672.266-.49 0-.728-.266-.728-.812v-3.808h1.876v-1.232h-1.876v-1.806h-1.372v1.806h-1.246v1.232h1.246v3.976c0 1.19.756 1.918 1.834 1.918zM679.045 430.666v-1.288h-4.494v-8.512h-1.4v9.8h5.894zm4.144 0v-9.8h-1.4c-.602.406-1.414.77-2.03.882v1.372c.63-.098 1.526-.392 2.03-.714v8.26h1.4zm-20.342 22.689l2.1-7.784 2.1 7.784h1.414l2.758-9.8h-1.428l-2.058 7.658-2.058-7.658h-1.428l-2.058 7.686-2.072-7.686h-1.442l2.758 9.8h1.414zm11.662.196c.938 0 1.624-.294 2.044-.868l.14.672h1.162v-4.592c0-1.638-1.134-2.52-2.828-2.52-1.526 0-2.464.7-2.8 2.086l1.218.294c.126-.798.602-1.26 1.554-1.26.994 0 1.484.476 1.484 1.414v.154l-1.666.238c-1.946.28-2.702 1.078-2.702 2.268 0 1.218.952 2.114 2.394 2.114zm.336-1.134c-.854 0-1.4-.42-1.4-1.05 0-.686.49-.994 1.484-1.148l1.554-.238v.91c0 .994-.728 1.526-1.638 1.526zm6.062.938v-9.8h-1.372v9.8h1.372zm3.192 0v-9.8h-1.372v9.8h1.372zm4.97.196c1.582 0 2.66-.812 3.066-1.974l-1.176-.378c-.224.658-.924 1.204-1.89 1.204-1.218 0-2.058-.966-2.142-2.086h5.39v-.546c0-2.1-1.302-3.528-3.262-3.528-1.946 0-3.458 1.61-3.458 3.64 0 2.058 1.442 3.668 3.472 3.668zm2.016-4.312h-4.144c.168-1.05.952-1.848 2.128-1.848 1.162 0 1.946.868 2.016 1.848zm5.18 4.312c.784 0 1.33-.28 1.568-.56l-.63-.98c-.182.182-.406.266-.672.266-.49 0-.728-.266-.728-.812v-3.808h1.876v-1.232h-1.876v-1.806h-1.372v1.806h-1.246v1.232h1.246v3.976c0 1.19.756 1.918 1.834 1.918z" transform="translate(-207 -2246) translate(207 2246)"/>
                <g>
                    <g transform="translate(-207 -2246) translate(207 2246) translate(190.632 157.6) matrix(-1 0 0 1 166.194 15.37)">
                        <g fill-rule="nonzero" opacity=".553" transform="matrix(1 0 0 -1 0 148.987)">
                            <use fill="url(#h1chfzldkb)" xlink:href="#moxrgdotoa"/>
                            <use fill="url(#h8e1khl8hc)" xlink:href="#moxrgdotoa"/>
                        </g>
                    </g>
                    <path fill="#1F2023" fill-rule="nonzero" d="M8.916 16.285l.06.066c-.04-.039-.074-.081-.103-.126l-.021-.035c-.012-.02-.023-.04-.032-.062l-.015-.033-.021-.063-.012-.041-.01-.05-.008-.062-.002-.042v-.057c.001-.019.002-.037.005-.055.002-.018.004-.035.008-.052l.011-.053.016-.052.018-.046c.007-.017.014-.034.023-.05.01-.021.022-.042.035-.062l.016-.024.04-.054.024-.027 7.39-8.138c.281-.309.76-.332 1.069-.051.283.257.326.68.115.988l-.064.08-6.179 6.803 52.87-.135.004 1.512-52.877.136 6.292 6.225c.297.294.3.772.006 1.07-.27.272-.694.296-.992.072l-.078-.067-7.528-7.449.023.022c-.03-.027-.058-.057-.083-.088zM150.118 7.116c.309-.28.787-.258 1.068.051l7.39 8.138.024.027c.013.015.025.031.036.047l.02.031c.013.02.025.04.036.062l.023.05.017.045c.006.019.012.036.016.054.005.017.009.034.012.052l.008.052.004.056v.038c0 .023 0 .046-.003.068-.001.018-.004.037-.007.055l-.008.042-.016.056c-.005.018-.012.036-.018.053l-.019.042c-.008.018-.017.036-.028.054-.008.015-.017.028-.026.042-.028.042-.06.083-.098.12l.063-.071c-.026.033-.055.064-.087.093l.049-.052-.025.03-7.529 7.45-.078.066c-.297.224-.722.2-.992-.073-.293-.297-.29-.775.006-1.07l6.426-6.358-53.658.138-.004-1.513 53.404-.136-6.058-6.67-.064-.081c-.21-.307-.168-.73.116-.988z" transform="translate(-207 -2246) translate(207 2246) translate(190.632 157.6)"/>
                    <path fill="#2B2B2B" fill-rule="nonzero" d="M103.804.244H63.72v30.25h40.083V.245zm-1.514 1.512v27.226H65.233V1.756h37.057z" transform="translate(-207 -2246) translate(207 2246) translate(190.632 157.6)"/>
                    <path fill="#2B2B2B" fill-rule="nonzero" d="M79.89 19.957v-8.25h2.84v-1.588h-7.394v1.588h2.84v8.25h1.714zm5.481 0l2.46-3.64 2.46 3.64h2.01l-3.331-5.031 3.204-4.807H90.15l-2.319 3.485-2.319-3.485h-2.038l3.233 4.849-3.36 4.99h2.024z" transform="translate(-207 -2246) translate(207 2246) translate(190.632 157.6)"/>
                </g>
                <g>
                    <g opacity=".547" transform="translate(-207 -2246) translate(207 2246) translate(601.484 133.6) translate(10 .8)">
                        <g fill-rule="nonzero">
                            <use fill="url(#77m5qhrrde)" xlink:href="#gut12rwwrd"/>
                            <use fill="url(#ywgrcwy1xf)" xlink:href="#gut12rwwrd"/>
                        </g>
                    </g>
                    <path fill="#231F20" fill-rule="nonzero" d="M1.916 40.285l.06.066c-.04-.039-.074-.081-.103-.126l-.021-.035c-.012-.02-.023-.04-.032-.062l-.015-.033-.021-.063-.012-.041-.01-.05-.008-.062-.002-.042v-.057c.001-.019.002-.037.005-.055.002-.018.004-.035.008-.052l.011-.053.016-.052.018-.046c.007-.017.014-.034.023-.05.01-.021.022-.042.035-.062l.016-.024.04-.054.024-.027 7.39-8.138c.281-.309.76-.332 1.069-.051.283.257.326.68.115.988l-.064.08-6.179 6.803 52.87-.135.004 1.512-52.877.136 6.292 6.225c.297.294.3.772.006 1.07-.27.272-.694.296-.992.072l-.078-.067-7.528-7.449.023.022c-.03-.027-.058-.057-.083-.088zM143.118 31.116c.309-.28.787-.258 1.068.051l7.39 8.138.024.027c.013.015.025.031.036.047l.02.031c.013.02.025.04.036.062l.023.05.017.045c.006.019.012.036.016.054.005.017.009.034.012.052l.008.052.004.056v.038c0 .023 0 .046-.003.068-.001.018-.004.037-.007.055l-.008.042-.016.056c-.005.018-.012.036-.018.053l-.019.042c-.008.018-.017.036-.028.054-.008.015-.017.028-.026.042-.028.042-.06.083-.098.12l.063-.071c-.026.033-.055.064-.087.093l.049-.052-.025.03-7.529 7.45-.078.066c-.297.224-.722.2-.992-.073-.293-.297-.29-.775.006-1.07l6.426-6.358-53.658.138-.004-1.513 53.404-.136-6.058-6.67-.064-.081c-.21-.307-.168-.73.116-.988z" transform="translate(-207 -2246) translate(207 2246) translate(601.484 133.6)"/>
                    <path fill="#2B2B2B" fill-rule="nonzero" d="M96.804 24.244H56.72v30.25h40.083v-30.25zm-1.514 1.512v27.226H58.233V25.756H95.29z" transform="translate(-207 -2246) translate(207 2246) translate(601.484 133.6)"/>
                    <path fill="#2B2B2B" fill-rule="nonzero" d="M72.905 43.957V35.74h2.828v-1.582H68.37v1.582h2.828v8.218h1.708zm5.46 0l2.45-3.626 2.45 3.626h2.002l-3.318-5.012 3.192-4.788h-2.016l-2.31 3.472-2.31-3.472h-2.03l3.22 4.83-3.346 4.97h2.016z" transform="translate(-207 -2246) translate(207 2246) translate(601.484 133.6)"/>
                </g>
                <g>
                    <g opacity=".547" transform="translate(-207 -2246) translate(207 2246) translate(814.755 133.6) translate(10.73 .8)">
                        <g fill-rule="nonzero" transform="matrix(-1 0 0 1 133.134 0)">
                            <use fill="url(#77m5qhrrde)" xlink:href="#8pxjoan0cg"/>
                            <use fill="url(#ywgrcwy1xf)" xlink:href="#8pxjoan0cg"/>
                        </g>
                    </g>
                    <path fill="#231F20" fill-rule="nonzero" d="M1.916 40.285l.06.066c-.04-.039-.074-.081-.103-.126l-.021-.035c-.012-.02-.023-.04-.032-.062l-.015-.033-.021-.063-.012-.041-.01-.05-.008-.062-.002-.042v-.057c.001-.019.002-.037.005-.055.002-.018.004-.035.008-.052l.011-.053.016-.052.018-.046c.007-.017.014-.034.023-.05.01-.021.022-.042.035-.062l.016-.024.04-.054.024-.027 7.39-8.138c.281-.309.76-.332 1.069-.051.283.257.326.68.115.988l-.064.08-6.179 6.803 52.87-.135.004 1.512-52.877.136 6.292 6.225c.297.294.3.772.006 1.07-.27.272-.694.296-.992.072l-.078-.067-7.528-7.449.023.022c-.03-.027-.058-.057-.083-.088zM143.118 31.116c.309-.28.787-.258 1.068.051l7.39 8.138.024.027c.013.015.025.031.036.047l.02.031c.013.02.025.04.036.062l.023.05.017.045c.006.019.012.036.016.054.005.017.009.034.012.052l.008.052.004.056v.038c0 .023 0 .046-.003.068-.001.018-.004.037-.007.055l-.008.042-.016.056c-.005.018-.012.036-.018.053l-.019.042c-.008.018-.017.036-.028.054-.008.015-.017.028-.026.042-.028.042-.06.083-.098.12l.063-.071c-.026.033-.055.064-.087.093l.049-.052-.025.03-7.529 7.45-.078.066c-.297.224-.722.2-.992-.073-.293-.297-.29-.775.006-1.07l6.426-6.358-53.658.138-.004-1.513 53.404-.136-6.058-6.67-.064-.081c-.21-.307-.168-.73.116-.988z" transform="translate(-207 -2246) translate(207 2246) translate(814.755 133.6)"/>
                    <path stroke="#2B2B2B" stroke-width="1.513" d="M57.477 25H96.047V53.739000000000004H57.477z" transform="translate(-207 -2246) translate(207 2246) translate(814.755 133.6)"/>
                    <path fill="#2B2B2B" fill-rule="nonzero" d="M72.905 43.957V35.74h2.828v-1.582H68.37v1.582h2.828v8.218h1.708zm5.46 0l2.45-3.626 2.45 3.626h2.002l-3.318-5.012 3.192-4.788h-2.016l-2.31 3.472-2.31-3.472h-2.03l3.22 4.83-3.346 4.97h2.016z" transform="translate(-207 -2246) translate(207 2246) translate(814.755 133.6)"/>
                </g>
                <g fill="#2B2B2B" fill-rule="nonzero">
                    <path d="M40.326.244H.244v30.25h40.082V.245zm-1.513 1.512v27.226H1.756V1.756h37.057z" transform="translate(-207 -2246) translate(207 2246) translate(147.474 305.452)"/>
                    <path d="M16.806 19.957V11.74h2.828v-1.582H12.27v1.582h2.828v8.218h1.708zm5.46 0l2.45-3.626 2.45 3.626h2.002l-3.318-5.012 3.192-4.788h-2.016l-2.31 3.472-2.31-3.472h-2.03l3.22 4.83-3.346 4.97h2.016z" transform="translate(-207 -2246) translate(207 2246) translate(147.474 305.452)"/>
                </g>
                <g fill="#2B2B2B" fill-rule="nonzero">
                    <path d="M40.326.244H.244v30.25h40.082V.245zm-1.513 1.512v27.226H1.756V1.756h37.057z" transform="translate(-207 -2246) translate(207 2246) translate(551.326 305.452)"/>
                    <path d="M16.602 19.957V11.74h2.828v-1.582h-7.364v1.582h2.828v8.218h1.708zm5.46 0l2.45-3.626 2.45 3.626h2.002l-3.318-5.012 3.192-4.788h-2.016l-2.31 3.472-2.31-3.472h-2.03l3.22 4.83-3.346 4.97h2.016z" transform="translate(-207 -2246) translate(207 2246) translate(551.326 305.452)"/>
                </g>
                <g fill="#2B2B2B" fill-rule="nonzero">
                    <path d="M40.326.244H.244v30.25h40.082V.245zm-1.513 1.512v27.226H1.756V1.756h37.057z" transform="translate(-207 -2246) translate(207 2246) translate(360.744 305.83)"/>
                    <path d="M16.602 19.957V11.74h2.828v-1.582h-7.364v1.582h2.828v8.218h1.708zm5.46 0l2.45-3.626 2.45 3.626h2.002l-3.318-5.012 3.192-4.788h-2.016l-2.31 3.472-2.31-3.472h-2.03l3.22 4.83-3.346 4.97h2.016z" transform="translate(-207 -2246) translate(207 2246) translate(360.744 305.83)"/>
                </g>
                <g fill="#2B2B2B" fill-rule="nonzero">
                    <path d="M40.326.244H.244v30.25h40.082V.245zm-1.513 1.512v27.226H1.756V1.756h37.057z" transform="translate(-207 -2246) translate(207 2246) translate(764.597 305.83)"/>
                    <path d="M16.428 19.957V11.74h2.828v-1.582h-7.364v1.582h2.828v8.218h1.708zm5.46 0l2.45-3.626 2.45 3.626h2.002l-3.318-5.012 3.192-4.788h-2.016l-2.31 3.472-2.31-3.472h-2.03l3.22 4.83-3.346 4.97h2.016z" transform="translate(-207 -2246) translate(207 2246) translate(764.597 305.83)"/>
                </g>
                <path fill="#2B2B2B" stroke="#2B2B2B" stroke-linejoin="round" stroke-width="1.513" d="M143.936 149.524H191.58100000000002V197.169H143.936z" transform="translate(-207 -2246) translate(207 2246)"/>
                <g filter="url(#7vtua20mdh)" transform="translate(-207 -2246) translate(207 2246)">
                    <g>
                        <g fill="#FFF" fill-rule="nonzero">
                            <path d="M14.437 9.403l-.527 2.985c-.272-.006-.512-.203-.562-.482-.012-.07-.012-.141.001-.21l.335-1.784c.046-.244.241-.433.487-.47l.266-.039zm2.906.16c.015.1.004.201-.031.295l-.74 1.778c-.074.192-.242.332-.444.368l-1.336.237.179-1.015.697-.124c.066-.011.12-.056.146-.117l.22-.532c.041-.1-.006-.213-.105-.255-.032-.013-.068-.018-.103-.012l-.69.101.18-1.014 1.363-.2c.319-.049.616.17.664.49zm-2.257-3.834l-.526 2.978c-.241-.043-.439-.237-.475-.493-.01-.063-.008-.128.004-.19l.339-1.803c.047-.25.25-.44.501-.471l.157-.02zm3.761.12c.012.095 0 .19-.033.28L18.1 7.922c-.075.199-.253.34-.463.37l-2.204.32.187-1.06 1.22-.175c.067-.01.125-.055.151-.119l.232-.56c.04-.1-.006-.214-.105-.255-.032-.013-.065-.018-.099-.013l-1.228.153.17-.963 2.235-.279c.32-.04.611.188.651.508zm-4.518-2.68l-.134.69 1.111-.153c.06.144.081.305.055.47l-.002.014-.157.881-1.382.178c-.427.055-.816-.247-.871-.674-.01-.078-.008-.157.005-.234l.244-1.173h1.13zm6.418-1.942c.01.114-.008.23-.049.337L19.697 4.08c-.103.269-.344.459-.628.495l-2.991.383.11-.621c.046-.258.031-.512-.033-.749l1.992-.275c.135-.018.25-.107.305-.232l.314-.735c.056-.132-.005-.285-.137-.341-.038-.017-.08-.024-.123-.02l-4.011.332-.003.007h-1.118l.153-.735c.062-.35.352-.615.707-.642l5.678-.438c.428-.033.802.289.835.718z" transform="translate(159.062 163.137) translate(.387 .387)"/>
                            <path d="M6.624 3.169H3.328c-.42 0-.781.302-.854.718L.258 16.43c-.084.473.23.924.703 1.008.05.009.1.013.15.013h3.297c.42 0 .78-.302.854-.717l.668-3.774c.03-.166.173-.287.342-.287H8.39c.191 0 .347.155.347.347 0 .02-.002.041-.006.061l-.593 3.349c-.083.473.231.924.703 1.008.05.009.1.013.152.013h3.296c.42 0 .78-.302.854-.718L15.359 4.19c.083-.473-.231-.924-.703-1.008-.05-.009-.1-.013-.151-.013h-3.296c-.42 0-.78.302-.854.717l-.65 3.653c-.03.166-.174.287-.342.287H7.245c-.191 0-.346-.156-.346-.348 0-.02.001-.04.005-.06l.574-3.227c.084-.473-.23-.924-.702-1.009-.05-.009-.1-.013-.152-.013z" transform="translate(159.062 163.137) translate(.387 .387)"/>
                        </g>
                    </g>
                </g>
                <path fill="#2B2B2B" stroke="#231F20" stroke-linejoin="round" stroke-width="1.513" d="M250.572 296.999H298.217V344.644H250.572z" transform="translate(-207 -2246) translate(207 2246)"/>
                <g>
                    <path fill="#2B2B2B" stroke="#231F20" stroke-linejoin="round" stroke-width="1.513" d="M0 0H47.645V47.645H0z" transform="translate(-207 -2246) translate(207 2246) translate(761.06 149.524)"/>
                    <g filter="url(#5xc49w270i)" transform="translate(-207 -2246) translate(207 2246) translate(761.06 149.524)">
                        <g>
                            <g fill="#FFF" fill-rule="nonzero">
                                <path d="M14.437 9.403l-.527 2.985c-.272-.006-.512-.203-.562-.482-.012-.07-.012-.141.001-.21l.335-1.784c.046-.244.241-.433.487-.47l.266-.039zm2.906.16c.015.1.004.201-.031.295l-.74 1.778c-.074.192-.242.332-.444.368l-1.336.237.179-1.015.697-.124c.066-.011.12-.056.146-.117l.22-.532c.041-.1-.006-.213-.105-.255-.032-.013-.068-.018-.103-.012l-.69.101.18-1.014 1.363-.2c.319-.049.616.17.664.49zm-2.257-3.834l-.526 2.978c-.241-.043-.439-.237-.475-.493-.01-.063-.008-.128.004-.19l.339-1.803c.047-.25.25-.44.501-.471l.157-.02zm3.761.12c.012.095 0 .19-.033.28L18.1 7.922c-.075.199-.253.34-.463.37l-2.204.32.187-1.06 1.22-.175c.067-.01.125-.055.151-.119l.232-.56c.04-.1-.006-.214-.105-.255-.032-.013-.065-.018-.099-.013l-1.228.153.17-.963 2.235-.279c.32-.04.611.188.651.508zm-4.518-2.68l-.134.69 1.111-.153c.06.144.081.305.055.47l-.002.014-.157.881-1.382.178c-.427.055-.816-.247-.871-.674-.01-.078-.008-.157.005-.234l.244-1.173h1.13zm6.418-1.942c.01.114-.008.23-.049.337L19.697 4.08c-.103.269-.344.459-.628.495l-2.991.383.11-.621c.046-.258.031-.512-.033-.749l1.992-.275c.135-.018.25-.107.305-.232l.314-.735c.056-.132-.005-.285-.137-.341-.038-.017-.08-.024-.123-.02l-4.011.332-.003.007h-1.118l.153-.735c.062-.35.352-.615.707-.642l5.678-.438c.428-.033.802.289.835.718z" transform="translate(15.126 13.613) translate(.387 .387)"/>
                                <path d="M6.624 3.169H3.328c-.42 0-.781.302-.854.718L.258 16.43c-.084.473.23.924.703 1.008.05.009.1.013.15.013h3.297c.42 0 .78-.302.854-.717l.668-3.774c.03-.166.173-.287.342-.287H8.39c.191 0 .347.155.347.347 0 .02-.002.041-.006.061l-.593 3.349c-.083.473.231.924.703 1.008.05.009.1.013.152.013h3.296c.42 0 .78-.302.854-.718L15.359 4.19c.083-.473-.231-.924-.703-1.008-.05-.009-.1-.013-.151-.013h-3.296c-.42 0-.78.302-.854.717l-.65 3.653c-.03.166-.174.287-.342.287H7.245c-.191 0-.346-.156-.346-.348 0-.02.001-.04.005-.06l.574-3.227c.084-.473-.23-.924-.702-1.009-.05-.009-.1-.013-.152-.013z" transform="translate(15.126 13.613) translate(.387 .387)"/>
                            </g>
                        </g>
                    </g>
                </g>
                <g>
                    <path fill="#2B2B2B" stroke="#231F20" stroke-linejoin="round" stroke-width="1.513" d="M0 0H47.645V47.645H0z" transform="translate(-207 -2246) translate(207 2246) translate(974.33 149.524)"/>
                    <g filter="url(#yfqt5evw0j)" transform="translate(-207 -2246) translate(207 2246) translate(974.33 149.524)">
                        <g>
                            <g fill="#FFF" fill-rule="nonzero">
                                <path d="M14.437 9.403l-.527 2.985c-.272-.006-.512-.203-.562-.482-.012-.07-.012-.141.001-.21l.335-1.784c.046-.244.241-.433.487-.47l.266-.039zm2.906.16c.015.1.004.201-.031.295l-.74 1.778c-.074.192-.242.332-.444.368l-1.336.237.179-1.015.697-.124c.066-.011.12-.056.146-.117l.22-.532c.041-.1-.006-.213-.105-.255-.032-.013-.068-.018-.103-.012l-.69.101.18-1.014 1.363-.2c.319-.049.616.17.664.49zm-2.257-3.834l-.526 2.978c-.241-.043-.439-.237-.475-.493-.01-.063-.008-.128.004-.19l.339-1.803c.047-.25.25-.44.501-.471l.157-.02zm3.761.12c.012.095 0 .19-.033.28L18.1 7.922c-.075.199-.253.34-.463.37l-2.204.32.187-1.06 1.22-.175c.067-.01.125-.055.151-.119l.232-.56c.04-.1-.006-.214-.105-.255-.032-.013-.065-.018-.099-.013l-1.228.153.17-.963 2.235-.279c.32-.04.611.188.651.508zm-4.518-2.68l-.134.69 1.111-.153c.06.144.081.305.055.47l-.002.014-.157.881-1.382.178c-.427.055-.816-.247-.871-.674-.01-.078-.008-.157.005-.234l.244-1.173h1.13zm6.418-1.942c.01.114-.008.23-.049.337L19.697 4.08c-.103.269-.344.459-.628.495l-2.991.383.11-.621c.046-.258.031-.512-.033-.749l1.992-.275c.135-.018.25-.107.305-.232l.314-.735c.056-.132-.005-.285-.137-.341-.038-.017-.08-.024-.123-.02l-4.011.332-.003.007h-1.118l.153-.735c.062-.35.352-.615.707-.642l5.678-.438c.428-.033.802.289.835.718z" transform="translate(15.126 13.613) translate(.387 .387)"/>
                                <path d="M6.624 3.169H3.328c-.42 0-.781.302-.854.718L.258 16.43c-.084.473.23.924.703 1.008.05.009.1.013.15.013h3.297c.42 0 .78-.302.854-.717l.668-3.774c.03-.166.173-.287.342-.287H8.39c.191 0 .347.155.347.347 0 .02-.002.041-.006.061l-.593 3.349c-.083.473.231.924.703 1.008.05.009.1.013.152.013h3.296c.42 0 .78-.302.854-.718L15.359 4.19c.083-.473-.231-.924-.703-1.008-.05-.009-.1-.013-.151-.013h-3.296c-.42 0-.78.302-.854.717l-.65 3.653c-.03.166-.174.287-.342.287H7.245c-.191 0-.346-.156-.346-.348 0-.02.001-.04.005-.06l.574-3.227c.084-.473-.23-.924-.702-1.009-.05-.009-.1-.013-.152-.013z" transform="translate(15.126 13.613) translate(.387 .387)"/>
                            </g>
                        </g>
                    </g>
                </g>
                <g fill="#667285" stroke="#667285" stroke-linejoin="round" stroke-width="1.513">
                    <path d="M0 0H47.645V47.645H0z" transform="translate(-207 -2246) translate(207 2246) translate(654.424 296.242)"/>
                </g>
                <g filter="url(#6ckdw4i20k)" transform="translate(-207 -2246) translate(207 2246)">
                    <g>
                        <g fill="#FFF" fill-rule="nonzero">
                            <path d="M14.437 9.403l-.527 2.985c-.272-.006-.512-.203-.562-.482-.012-.07-.012-.141.001-.21l.335-1.784c.046-.244.241-.433.487-.47l.266-.039zm2.906.16c.015.1.004.201-.031.295l-.74 1.778c-.074.192-.242.332-.444.368l-1.336.237.179-1.015.697-.124c.066-.011.12-.056.146-.117l.22-.532c.041-.1-.006-.213-.105-.255-.032-.013-.068-.018-.103-.012l-.69.101.18-1.014 1.363-.2c.319-.049.616.17.664.49zm-2.257-3.834l-.526 2.978c-.241-.043-.439-.237-.475-.493-.01-.063-.008-.128.004-.19l.339-1.803c.047-.25.25-.44.501-.471l.157-.02zm3.761.12c.012.095 0 .19-.033.28L18.1 7.922c-.075.199-.253.34-.463.37l-2.204.32.187-1.06 1.22-.175c.067-.01.125-.055.151-.119l.232-.56c.04-.1-.006-.214-.105-.255-.032-.013-.065-.018-.099-.013l-1.228.153.17-.963 2.235-.279c.32-.04.611.188.651.508zm-4.518-2.68l-.134.69 1.111-.153c.06.144.081.305.055.47l-.002.014-.157.881-1.382.178c-.427.055-.816-.247-.871-.674-.01-.078-.008-.157.005-.234l.244-1.173h1.13zm6.418-1.942c.01.114-.008.23-.049.337L19.697 4.08c-.103.269-.344.459-.628.495l-2.991.383.11-.621c.046-.258.031-.512-.033-.749l1.992-.275c.135-.018.25-.107.305-.232l.314-.735c.056-.132-.005-.285-.137-.341-.038-.017-.08-.024-.123-.02l-4.011.332-.003.007h-1.118l.153-.735c.062-.35.352-.615.707-.642l5.678-.438c.428-.033.802.289.835.718z" transform="translate(265.697 310.612) translate(.387 .387)"/>
                            <path d="M6.624 3.169H3.328c-.42 0-.781.302-.854.718L.258 16.43c-.084.473.23.924.703 1.008.05.009.1.013.15.013h3.297c.42 0 .78-.302.854-.717l.668-3.774c.03-.166.173-.287.342-.287H8.39c.191 0 .347.155.347.347 0 .02-.002.041-.006.061l-.593 3.349c-.083.473.231.924.703 1.008.05.009.1.013.152.013h3.296c.42 0 .78-.302.854-.718L15.359 4.19c.083-.473-.231-.924-.703-1.008-.05-.009-.1-.013-.151-.013h-3.296c-.42 0-.78.302-.854.717l-.65 3.653c-.03.166-.174.287-.342.287H7.245c-.191 0-.346-.156-.346-.348 0-.02.001-.04.005-.06l.574-3.227c.084-.473-.23-.924-.702-1.009-.05-.009-.1-.013-.152-.013z" transform="translate(265.697 310.612) translate(.387 .387)"/>
                        </g>
                    </g>
                </g>
                <path fill="#2B2B2B" stroke="#2B2B2B" stroke-linejoin="round" stroke-width="1.513" d="M357.207 149.524H404.852V197.169H357.207z" transform="translate(-207 -2246) translate(207 2246)"/>
                <g filter="url(#8djbcad14l)" transform="translate(-207 -2246) translate(207 2246)">
                    <g>
                        <g fill="#FFF" fill-rule="nonzero">
                            <path d="M14.437 9.403l-.527 2.985c-.272-.006-.512-.203-.562-.482-.012-.07-.012-.141.001-.21l.335-1.784c.046-.244.241-.433.487-.47l.266-.039zm2.906.16c.015.1.004.201-.031.295l-.74 1.778c-.074.192-.242.332-.444.368l-1.336.237.179-1.015.697-.124c.066-.011.12-.056.146-.117l.22-.532c.041-.1-.006-.213-.105-.255-.032-.013-.068-.018-.103-.012l-.69.101.18-1.014 1.363-.2c.319-.049.616.17.664.49zm-2.257-3.834l-.526 2.978c-.241-.043-.439-.237-.475-.493-.01-.063-.008-.128.004-.19l.339-1.803c.047-.25.25-.44.501-.471l.157-.02zm3.761.12c.012.095 0 .19-.033.28L18.1 7.922c-.075.199-.253.34-.463.37l-2.204.32.187-1.06 1.22-.175c.067-.01.125-.055.151-.119l.232-.56c.04-.1-.006-.214-.105-.255-.032-.013-.065-.018-.099-.013l-1.228.153.17-.963 2.235-.279c.32-.04.611.188.651.508zm-4.518-2.68l-.134.69 1.111-.153c.06.144.081.305.055.47l-.002.014-.157.881-1.382.178c-.427.055-.816-.247-.871-.674-.01-.078-.008-.157.005-.234l.244-1.173h1.13zm6.418-1.942c.01.114-.008.23-.049.337L19.697 4.08c-.103.269-.344.459-.628.495l-2.991.383.11-.621c.046-.258.031-.512-.033-.749l1.992-.275c.135-.018.25-.107.305-.232l.314-.735c.056-.132-.005-.285-.137-.341-.038-.017-.08-.024-.123-.02l-4.011.332-.003.007h-1.118l.153-.735c.062-.35.352-.615.707-.642l5.678-.438c.428-.033.802.289.835.718z" transform="translate(372.332 163.137) translate(.387 .387)"/>
                            <path d="M6.624 3.169H3.328c-.42 0-.781.302-.854.718L.258 16.43c-.084.473.23.924.703 1.008.05.009.1.013.15.013h3.297c.42 0 .78-.302.854-.717l.668-3.774c.03-.166.173-.287.342-.287H8.39c.191 0 .347.155.347.347 0 .02-.002.041-.006.061l-.593 3.349c-.083.473.231.924.703 1.008.05.009.1.013.152.013h3.296c.42 0 .78-.302.854-.718L15.359 4.19c.083-.473-.231-.924-.703-1.008-.05-.009-.1-.013-.151-.013h-3.296c-.42 0-.78.302-.854.717l-.65 3.653c-.03.166-.174.287-.342.287H7.245c-.191 0-.346-.156-.346-.348 0-.02.001-.04.005-.06l.574-3.227c.084-.473-.23-.924-.702-1.009-.05-.009-.1-.013-.152-.013z" transform="translate(372.332 163.137) translate(.387 .387)"/>
                        </g>
                    </g>
                </g>
                <path fill="#2B2B2B" stroke="#2B2B2B" stroke-linejoin="round" stroke-width="1.513" d="M547.789 149.524H595.434V197.169H547.789z" transform="translate(-207 -2246) translate(207 2246)"/>
                <g filter="url(#gj8xyvsz7m)" transform="translate(-207 -2246) translate(207 2246)">
                    <g>
                        <g fill="#FFF" fill-rule="nonzero">
                            <path d="M14.437 9.403l-.527 2.985c-.272-.006-.512-.203-.562-.482-.012-.07-.012-.141.001-.21l.335-1.784c.046-.244.241-.433.487-.47l.266-.039zm2.906.16c.015.1.004.201-.031.295l-.74 1.778c-.074.192-.242.332-.444.368l-1.336.237.179-1.015.697-.124c.066-.011.12-.056.146-.117l.22-.532c.041-.1-.006-.213-.105-.255-.032-.013-.068-.018-.103-.012l-.69.101.18-1.014 1.363-.2c.319-.049.616.17.664.49zm-2.257-3.834l-.526 2.978c-.241-.043-.439-.237-.475-.493-.01-.063-.008-.128.004-.19l.339-1.803c.047-.25.25-.44.501-.471l.157-.02zm3.761.12c.012.095 0 .19-.033.28L18.1 7.922c-.075.199-.253.34-.463.37l-2.204.32.187-1.06 1.22-.175c.067-.01.125-.055.151-.119l.232-.56c.04-.1-.006-.214-.105-.255-.032-.013-.065-.018-.099-.013l-1.228.153.17-.963 2.235-.279c.32-.04.611.188.651.508zm-4.518-2.68l-.134.69 1.111-.153c.06.144.081.305.055.47l-.002.014-.157.881-1.382.178c-.427.055-.816-.247-.871-.674-.01-.078-.008-.157.005-.234l.244-1.173h1.13zm6.418-1.942c.01.114-.008.23-.049.337L19.697 4.08c-.103.269-.344.459-.628.495l-2.991.383.11-.621c.046-.258.031-.512-.033-.749l1.992-.275c.135-.018.25-.107.305-.232l.314-.735c.056-.132-.005-.285-.137-.341-.038-.017-.08-.024-.123-.02l-4.011.332-.003.007h-1.118l.153-.735c.062-.35.352-.615.707-.642l5.678-.438c.428-.033.802.289.835.718z" transform="translate(562.914 163.137) translate(.387 .387)"/>
                            <path d="M6.624 3.169H3.328c-.42 0-.781.302-.854.718L.258 16.43c-.084.473.23.924.703 1.008.05.009.1.013.15.013h3.297c.42 0 .78-.302.854-.717l.668-3.774c.03-.166.173-.287.342-.287H8.39c.191 0 .347.155.347.347 0 .02-.002.041-.006.061l-.593 3.349c-.083.473.231.924.703 1.008.05.009.1.013.152.013h3.296c.42 0 .78-.302.854-.718L15.359 4.19c.083-.473-.231-.924-.703-1.008-.05-.009-.1-.013-.151-.013h-3.296c-.42 0-.78.302-.854.717l-.65 3.653c-.03.166-.174.287-.342.287H7.245c-.191 0-.346-.156-.346-.348 0-.02.001-.04.005-.06l.574-3.227c.084-.473-.23-.924-.702-1.009-.05-.009-.1-.013-.152-.013z" transform="translate(562.914 163.137) translate(.387 .387)"/>
                        </g>
                    </g>
                </g>
                <g fill="#1F2023" fill-rule="nonzero">
                    <g>
                        <path d="M1.43.453l.047.092L20.32 44.938l3.27-8.218c.155-.388.595-.577.983-.423.356.142.545.523.455.885l-.032.098-3.915 9.84-.024.055-.046.08-.034.048-.065.074-.09.076-.066.043-.106.05-.08.026-.103.02-.098.005-.12-.01-.083-.02L9.75 43.93c-.395-.137-.603-.569-.465-.963.126-.361.5-.566.864-.492l.1.027 8.68 3.03L.085 1.136C-.08.75.1.307.485.144c.353-.15.755-.011.945.309z" transform="translate(-207 -2246) translate(207 2246) translate(184.666 301.649) scale(1 -1) rotate(-67 -13.728 -10.087)"/>
                    </g>
                </g>
                <g fill="#231F20" fill-rule="nonzero">
                    <g>
                        <path d="M1.43.453l.047.092L20.32 44.938l3.27-8.218c.155-.388.595-.577.983-.423.356.142.545.523.455.885l-.032.098-3.915 9.84-.024.055-.046.08-.034.048-.065.074-.09.076-.066.043-.106.05-.08.026-.103.02-.098.005-.12-.01-.083-.02L9.75 43.93c-.395-.137-.603-.569-.465-.963.126-.361.5-.566.864-.492l.1.027 8.68 3.03L.085 1.136C-.08.75.1.307.485.144c.353-.15.755-.011.945.309z" transform="translate(-207 -2246) translate(207 2246) translate(588.518 301.649) scale(1 -1) rotate(-67 -13.728 -10.087)"/>
                    </g>
                </g>
                <g fill="#1F2023" fill-rule="nonzero">
                    <g>
                        <path d="M1.43.453l.047.092L20.32 44.938l3.27-8.218c.155-.388.595-.577.983-.423.356.142.545.523.455.885l-.032.098-3.915 9.84-.024.055-.046.08-.034.048-.065.074-.09.076-.066.043-.106.05-.08.026-.103.02-.098.005-.12-.01-.083-.02L9.75 43.93c-.395-.137-.603-.569-.465-.963.126-.361.5-.566.864-.492l.1.027 8.68 3.03L.085 1.136C-.08.75.1.307.485.144c.353-.15.755-.011.945.309z" transform="translate(-207 -2246) translate(207 2246) matrix(-1 0 0 1 364.123 301.649) scale(1 -1) rotate(-67 -13.728 -10.087)"/>
                    </g>
                </g>
                <g fill="#231F20" fill-rule="nonzero">
                    <g>
                        <path d="M1.477.545L20.32 44.94l3.27-8.22c.154-.388.594-.577.982-.423.356.142.545.523.455.885l-.032.098-3.915 9.84-.028.058-.006.016.034-.074c-.051.13-.135.237-.237.317l-.027.02-.059.038-.033.018-.059.027-.04.016-.056.016c-.017.005-.034.009-.052.012l-.046.007-.05.005-.057.001-.051-.003-.048-.005-.038-.007-.015-.003-.056-.015-.028-.01-10.378-3.623c-.395-.137-.603-.569-.465-.963.126-.361.5-.566.864-.492l.1.027 8.68 3.03L.085 1.136 1.477.545z" transform="translate(-207 -2246) translate(207 2246) matrix(-1 0 0 1 767.975 301.649) scale(1 -1) rotate(-67 -13.728 -10.087)"/>
                    </g>
                </g>
                <g fill="#1F2023" fill-rule="nonzero">
                    <path d="M1.571.422L38.308 86.97l3.283-8.249c.154-.388.594-.577.982-.423.356.142.545.523.455.885l-.032.098-3.915 9.84-.016.031-.018.043-.006.012.04-.086c-.02.053-.047.101-.077.146l-.007.01.007-.01c-.043.064-.095.12-.154.166l-.033.025-.06.039-.027.014c-.023.012-.047.023-.071.033l-.02.008c-.024.008-.048.016-.073.022l-.035.008c-.023.005-.045.009-.068.011l-.037.004H38.323l-.072-.01-.023-.004-.012-.003c-.018-.004-.036-.008-.054-.014l-.033-.01-10.378-3.624c-.395-.137-.603-.569-.465-.963.126-.361.5-.566.864-.492l.1.027 8.651 3.02L.18 1.013l1.392-.59z" transform="translate(-207 -2246) translate(207 2246) scale(1 -1) rotate(23 839.21 257.263)"/>
                </g>
                <g fill="#231F20" fill-rule="nonzero">
                    <path d="M1.525.33l.046.092L38.308 86.97l3.283-8.249c.154-.388.594-.577.982-.423.356.142.545.523.455.885l-.032.098-3.915 9.84-.024.055-.046.08-.034.048-.065.074-.09.076-.066.043-.106.05-.08.026-.103.02-.098.005-.12-.01-.083-.02L27.75 85.93c-.395-.137-.603-.569-.465-.963.126-.361.5-.566.864-.492l.1.027 8.651 3.02L.179 1.013C.016.63.195.185.58.021c.318-.134.676-.036.883.219l.063.09z" transform="translate(-207 -2246) translate(207 2246) scale(1 -1) rotate(23 1041.137 1249.762)"/>
                </g>
                <g fill="#1F2023" fill-rule="nonzero">
                    <path d="M1.571.422L38.308 86.97l3.283-8.249c.154-.388.594-.577.982-.423.356.142.545.523.455.885l-.032.098-3.915 9.84-.016.031-.018.043-.006.012.04-.086c-.02.053-.047.101-.077.146l-.007.01.007-.01c-.043.064-.095.12-.154.166l-.033.025-.06.039-.027.014c-.023.012-.047.023-.071.033l-.02.008c-.024.008-.048.016-.073.022l-.035.008c-.023.005-.045.009-.068.011l-.037.004H38.323l-.072-.01-.023-.004-.012-.003c-.018-.004-.036-.008-.054-.014l-.033-.01-10.378-3.624c-.395-.137-.603-.569-.465-.963.126-.361.5-.566.864-.492l.1.027 8.651 3.02L.18 1.013l1.392-.59z" transform="translate(-207 -2246) translate(207 2246) scale(1 -1) rotate(23 946.224 783.25)"/>
                </g>
                <g stroke="#231F20" stroke-linecap="round" stroke-width="1.513">
                    <path d="M10.378 9.841L0 6.217M10.378 9.841L14.294 0" transform="translate(-207 -2246) translate(207 2246) scale(1 -1) rotate(23 940.002 1805.061)"/>
                </g>
                <path stroke="#231F20" stroke-linejoin="round" stroke-width="1.513" d="M785.638 211.161L785.638 306.452" transform="translate(-207 -2246) translate(207 2246)"/>
                <g fill="#FFF" fill-rule="nonzero">
                    <path d="M3.667.906l.184.002h11.896c1.155 0 2.1.895 2.18 2.028l.005.156v2.185h1.093c1.154 0 2.099.895 2.179 2.029l.005.156.001 3.57c.653.378 1.092 1.084 1.092 1.892v2.185c0 .808-.44 1.514-1.092 1.892v3.57c0 1.154-.896 2.1-2.03 2.18l-.155.005H3.73c-1.748 0-3.176-1.368-3.272-3.092l-.005-.186L.452 4.61C.41 4.28.416 3.94.475 3.598.788 2.046 2.14.933 3.667.906zm-1.03 6.38l.002 12.192c0 .564.426 1.027.973 1.086l.119.007h15.294l-.001-3.277H16.84c-1.154 0-2.1-.895-2.18-2.03l-.005-.155v-2.185c0-1.207.978-2.185 2.185-2.185h2.184V7.462H3.722l-.182-.004c-.31-.015-.613-.074-.901-.172zm17.48 5.638H16.84v2.185h3.277v-2.185zM3.809 3.092c-.574-.023-1.079.374-1.186.907l.01.067.006.119-.003.253c.04.166.119.323.233.457.18.212.435.345.708.376l.138.006h12.032V3.092H3.81z" transform="translate(-207 -2246) translate(207 2246) translate(667.037 307.855)"/>
                </g>
                <path fill="#231F20" fill-rule="nonzero" d="M166.53 476.58l.662.75c.415.47 1.132.514 1.602.1.47-.415.514-1.132.1-1.602l-.662-.75c-.415-.47-1.132-.514-1.602-.1-.47.416-.514 1.132-.1 1.602zm15.602 11.51l.882.472c.553.295 1.24.086 1.535-.467.295-.553.086-1.24-.467-1.535l-.882-.47c-.553-.296-1.24-.087-1.535.466-.295.553-.086 1.24.467 1.535zm17.612 7.67l.94.34c.59.213 1.24-.093 1.453-.682.213-.59-.092-1.24-.682-1.452l-.94-.34c-.59-.212-1.24.093-1.453.682-.212.59.093 1.24.682 1.452zm18.322 5.674l.967.257c.605.16 1.227-.2 1.387-.806.16-.605-.2-1.226-.805-1.387l-.967-.256c-.605-.161-1.227.2-1.387.805-.16.606.2 1.227.805 1.387zm18.631 4.254l.982.19c.615.119 1.21-.283 1.329-.899.119-.615-.283-1.21-.899-1.329l-.981-.19c-.616-.118-1.21.284-1.33.9-.118.614.284 1.21.9 1.328zm18.913 2.983l.993.12c.622.074 1.187-.37 1.261-.992.075-.622-.369-1.186-.99-1.261l-.994-.12c-.622-.074-1.187.37-1.261.992-.075.622.369 1.187.99 1.261zm19.166 1.276l1-.008c.626-.005 1.13-.517 1.125-1.144-.006-.626-.518-1.13-1.144-1.125l-1 .008c-.627.006-1.13.518-1.125 1.144.005.627.517 1.13 1.144 1.125zm19.123-1.537l.992-.13c.62-.08 1.059-.65.977-1.271-.08-.621-.65-1.059-1.271-.978l-.992.13c-.621.08-1.059.65-.978 1.272.081.62.65 1.059 1.272.977zm18.876-3.133l.98-.196c.615-.122 1.013-.72.89-1.334-.122-.615-.72-1.013-1.334-.89l-.98.195c-.615.123-1.013.72-.89 1.334.122.615.72 1.014 1.334.891zm18.636-4.35l.965-.26c.605-.163.963-.786.8-1.39-.163-.606-.785-.964-1.39-.801l-.966.26c-.605.163-.963.786-.8 1.39.163.606.786.964 1.39.8zm18.278-5.73l.94-.343c.588-.215.891-.866.677-1.455-.215-.588-.866-.891-1.455-.677l-.94.343c-.588.215-.89.866-.676 1.454.215.589.866.892 1.454.677zm17.586-7.746l.88-.476c.55-.298.755-.987.457-1.538-.298-.55-.987-.756-1.538-.457l-.88.476c-.55.298-.755.986-.457 1.537.298.551.987.756 1.538.458zm15.483-11.67l.648-.761c.407-.477.35-1.193-.127-1.6-.477-.406-1.193-.349-1.6.128l-.648.76c-.406.478-.35 1.194.127 1.6.477.406 1.193.35 1.6-.127zM274.016 524.638v1c0 .627.508 1.135 1.135 1.135.626 0 1.134-.508 1.134-1.135v-1c0-.626-.508-1.134-1.134-1.134-.627 0-1.135.508-1.135 1.134zm0 15.126v1c0 .626.508 1.134 1.135 1.134.626 0 1.134-.508 1.134-1.134v-1c0-.627-.508-1.135-1.134-1.135-.627 0-1.135.508-1.135 1.135zm0 15.125v1c0 .627.508 1.135 1.135 1.135.626 0 1.134-.508 1.134-1.135v-1c0-.626-.508-1.134-1.134-1.134-.627 0-1.135.508-1.135 1.134zM677.869 524.638v1c0 .627.507 1.135 1.134 1.135.626 0 1.134-.508 1.134-1.135v-1c0-.626-.508-1.134-1.134-1.134-.627 0-1.134.508-1.134 1.134zm0 15.126v1c0 .626.507 1.134 1.134 1.134.626 0 1.134-.508 1.134-1.134v-1c0-.627-.508-1.135-1.134-1.135-.627 0-1.134.508-1.134 1.135zm0 15.125v1c0 .627.507 1.135 1.134 1.135.626 0 1.134-.508 1.134-1.135v-1c0-.626-.508-1.134-1.134-1.134-.627 0-1.134.508-1.134 1.134zM894.92 292.46v1c0 .627.508 1.135 1.135 1.135.626 0 1.134-.508 1.134-1.134v-1c0-.627-.508-1.135-1.134-1.135-.627 0-1.135.508-1.135 1.135zm0 21.404v1c0 .626.508 1.134 1.135 1.134.626 0 1.134-.508 1.134-1.134v-1c0-.627-.508-1.135-1.134-1.135-.627 0-1.135.508-1.135 1.135zm0 21.402v1c0 .627.508 1.135 1.135 1.135.626 0 1.134-.508 1.134-1.135v-1c0-.626-.508-1.134-1.134-1.134-.627 0-1.135.508-1.135 1.134zm0 21.403v1c0 .626.508 1.134 1.135 1.134.626 0 1.134-.508 1.134-1.134v-1c0-.627-.508-1.135-1.134-1.135-.627 0-1.135.508-1.135 1.135zM570.383 476.58l.662.75c.414.47 1.131.514 1.601.1.47-.415.514-1.132.1-1.602l-.662-.75c-.415-.47-1.132-.514-1.601-.1-.47.416-.515 1.132-.1 1.602zm15.6 11.51l.883.472c.553.295 1.24.086 1.535-.467.295-.553.086-1.24-.467-1.535l-.882-.47c-.552-.296-1.24-.087-1.535.466-.295.553-.086 1.24.467 1.535zm17.614 7.67l.94.34c.59.213 1.24-.093 1.452-.682.213-.59-.092-1.24-.682-1.452l-.94-.34c-.59-.212-1.24.093-1.452.682-.213.59.092 1.24.682 1.452zm18.322 5.674l.966.257c.606.16 1.227-.2 1.388-.806.16-.605-.2-1.226-.806-1.387l-.967-.256c-.605-.161-1.226.2-1.387.805-.16.606.2 1.227.806 1.387zm18.63 4.254l.982.19c.615.119 1.21-.283 1.33-.899.118-.615-.284-1.21-.9-1.329l-.981-.19c-.615-.118-1.21.284-1.33.9-.118.614.284 1.21.9 1.328zm18.913 2.983l.993.12c.622.074 1.187-.37 1.262-.992.074-.622-.37-1.186-.992-1.261l-.992-.12c-.622-.074-1.187.37-1.262.992-.075.622.37 1.187.991 1.261zm19.166 1.276l1-.008c.626-.005 1.13-.517 1.125-1.144-.005-.626-.517-1.13-1.144-1.125l-1 .008c-.626.006-1.13.518-1.125 1.144.005.627.518 1.13 1.144 1.125zm19.123-1.537l.992-.13c.621-.08 1.059-.65.978-1.271-.081-.621-.65-1.059-1.272-.978l-.992.13c-.62.08-1.059.65-.978 1.272.082.62.651 1.059 1.272.977zm18.876-3.133l.98-.196c.615-.122 1.014-.72.891-1.334-.123-.615-.72-1.013-1.334-.89l-.981.195c-.614.123-1.013.72-.89 1.334.122.615.72 1.014 1.334.891zm18.636-4.35l.966-.26c.604-.163.963-.786.8-1.39-.163-.606-.786-.964-1.39-.801l-.966.26c-.605.163-.964.786-.8 1.39.162.606.785.964 1.39.8zm18.279-5.73l.94-.343c.588-.215.89-.866.676-1.455-.215-.588-.866-.891-1.454-.677l-.94.343c-.588.215-.892.866-.677 1.454.215.589.866.892 1.455.677zm17.585-7.746l.88-.476c.55-.298.755-.987.457-1.538-.298-.55-.986-.756-1.537-.457l-.88.476c-.551.298-.756.986-.458 1.537.298.551.987.756 1.538.458zm15.483-11.67l.649-.761c.406-.477.35-1.193-.128-1.6-.476-.406-1.192-.349-1.599.128l-.649.76c-.406.478-.35 1.194.128 1.6.477.406 1.193.35 1.599-.127zM816.115 242.67l.599.8c.375.502 1.086.605 1.587.23.502-.375.605-1.086.23-1.588l-.599-.8c-.375-.503-1.086-.605-1.587-.23-.502.375-.605 1.086-.23 1.588zm17.249 13.303l.887.46c.556.29 1.241.072 1.53-.484.288-.556.071-1.24-.485-1.53l-.888-.46c-.556-.288-1.24-.071-1.529.485-.288.556-.071 1.24.485 1.53zm19.996 8.096l.953.303c.598.19 1.235-.14 1.425-.737.19-.597-.14-1.235-.737-1.425l-.953-.303c-.597-.19-1.235.14-1.425.737-.19.597.14 1.235.737 1.425zm20.881 5.264l.983.186c.615.117 1.209-.288 1.325-.903.117-.616-.288-1.21-.903-1.326l-.983-.186c-.615-.117-1.209.288-1.325.903-.117.616.288 1.21.903 1.326zm21.47 2.328l1-.01c.627-.007 1.13-.52 1.123-1.147-.007-.626-.52-1.129-1.146-1.123l-1 .01c-.627.007-1.13.52-1.123 1.147.006.626.52 1.129 1.146 1.123zm21.43-2.645l.981-.196c.615-.122 1.014-.72.891-1.334-.122-.615-.72-1.013-1.334-.891l-.98.195c-.615.123-1.014.72-.892 1.335.123.614.72 1.013 1.335.89zm20.84-5.402l.951-.307c.597-.193.924-.832.731-1.428-.193-.597-.832-.924-1.428-.731l-.952.307c-.596.193-.923.832-.73 1.429.192.596.832.923 1.428.73zm19.976-8.19l.885-.466c.555-.291.768-.977.477-1.532-.292-.554-.978-.768-1.532-.476l-.886.465c-.554.291-.768.977-.476 1.532.291.554.977.768 1.532.476zm17.108-13.467l.584-.81c.367-.51.251-1.218-.257-1.584-.508-.367-1.217-.251-1.584.257l-.584.811c-.366.509-.251 1.218.257 1.584.509.366 1.218.25 1.584-.258z" transform="translate(-207 -2246) translate(207 2246)"/>
            </g>
        </g>
    </g>
</svg>
