<svg xmlns="http://www.w3.org/2000/svg" xmlns:xlink="http://www.w3.org/1999/xlink" width="100%" height="410" viewBox="0 0 361 410">
    <defs>
        <linearGradient id="ada4lza25a" x1="-47.089%" x2="100%" y1="11.75%" y2="69.472%">
            <stop offset="0%" stop-color="#FAF4EA"/>
            <stop offset="100%" stop-color="#FFA600"/>
        </linearGradient>
        <linearGradient id="276i0bajbb" x1="-7.431%" x2="54.512%" y1="22.417%" y2="48.763%">
            <stop offset="0%" stop-color="#FF6C34"/>
            <stop offset="100%" stop-color="#FBBF5C"/>
        </linearGradient>
        <linearGradient id="2fm2p2e9yd" x1="100%" x2="24.708%" y1="31.899%" y2="50%">
            <stop offset="0%" stop-color="#FCBC5A"/>
            <stop offset="22.018%" stop-color="#FFB84C"/>
            <stop offset="100%" stop-color="#FF6C40"/>
        </linearGradient>
        <linearGradient id="u0p8w2zp2e" x1="199.268%" x2="-43.541%" y1="50%" y2="50%">
            <stop offset="0%" stop-color="#C7750A"/>
            <stop offset="100%" stop-color="#FF8133"/>
        </linearGradient>
        <linearGradient id="tg0kgziorf" x1="118.539%" x2="8.307%" y1="33.411%" y2="43.884%">
            <stop offset="0%" stop-color="#FCBC5A"/>
            <stop offset="22.018%" stop-color="#FFA623"/>
            <stop offset="100%" stop-color="#F05117"/>
        </linearGradient>
        <linearGradient id="7sthx5cusj" x1="72.543%" x2="0%" y1="50%" y2="50%">
            <stop offset="0%" stop-color="#E53727"/>
            <stop offset="100%" stop-color="#F4954F"/>
        </linearGradient>
        <linearGradient id="u203oz7i8m" x1="100%" x2="50%" y1="50%" y2="36.424%">
            <stop offset="0%" stop-color="#F4954F"/>
            <stop offset="100%" stop-color="#FFC733"/>
        </linearGradient>
        <linearGradient id="5g5mraxxwo" x1="-10.608%" x2="100%" y1="50%" y2="50%">
            <stop offset="0%" stop-color="#FF9610"/>
            <stop offset="100%" stop-color="#DE6E31"/>
        </linearGradient>
        <linearGradient id="hh3m329htp" x1="0%" x2="100%" y1="50%" y2="50%">
            <stop offset="0%" stop-color="#DE6E31"/>
            <stop offset="100%" stop-color="#FF9610"/>
        </linearGradient>
        <linearGradient id="u2fty0griq" x1="14.341%" x2="68.877%" y1="47.864%" y2="51.036%">
            <stop offset="0%" stop-color="#FFDA8F"/>
            <stop offset="59.394%" stop-color="#FFBF4A"/>
            <stop offset="100%" stop-color="#FFB34B"/>
        </linearGradient>
        <linearGradient id="8wz3w9wu1r" x1="0%" x2="100%" y1="50%" y2="50%">
            <stop offset="0%" stop-color="#FF9610"/>
            <stop offset="100%" stop-color="#DE6E31"/>
        </linearGradient>
        <linearGradient id="eak5ux2p2s" x1="50%" x2="50%" y1="100%" y2="0%">
            <stop offset="0%" stop-color="#FBAF4A"/>
            <stop offset="100%" stop-color="#FFD779"/>
        </linearGradient>
        <linearGradient id="vbkvpw4uzt" x1="50%" x2="50%" y1="100%" y2="0%">
            <stop offset="0%" stop-color="#FF9D1C"/>
            <stop offset="100%" stop-color="#FAD170"/>
        </linearGradient>
        <linearGradient id="434uef28su" x1="50%" x2="50%" y1="100%" y2="0%">
            <stop offset="0%" stop-color="#FFA835"/>
            <stop offset="100%" stop-color="#FAD170"/>
        </linearGradient>
        <linearGradient id="21hf69a43v" x1="50%" x2="50%" y1="100%" y2="0%">
            <stop offset="0%" stop-color="#FF9D1C"/>
            <stop offset="100%" stop-color="#FAD170"/>
        </linearGradient>
        <linearGradient id="pclep2uzcw" x1="50%" x2="50%" y1="100%" y2="0%">
            <stop offset="0%" stop-color="#FFA835"/>
            <stop offset="100%" stop-color="#FAD170"/>
        </linearGradient>
        <linearGradient id="pi8qfludsx" x1="50%" x2="50%" y1="100%" y2="0%">
            <stop offset="0%" stop-color="#FF9D1C"/>
            <stop offset="100%" stop-color="#FAD170"/>
        </linearGradient>
        <linearGradient id="6fa4pe7hry" x1="0%" x2="100%" y1="50%" y2="50%">
            <stop offset="0%" stop-color="#FF9610"/>
            <stop offset="100%" stop-color="#DE6E31"/>
        </linearGradient>
        <linearGradient id="hkfq892btz" x1="50%" x2="50%" y1="100%" y2="0%">
            <stop offset="0%" stop-color="#FFA835"/>
            <stop offset="100%" stop-color="#FAD170"/>
        </linearGradient>
        <linearGradient id="3k53kbob8A" x1="50%" x2="50%" y1="100%" y2="-27.942%">
            <stop offset="0%" stop-color="#FF9E1D"/>
            <stop offset="100%" stop-color="#FAD170"/>
        </linearGradient>
        <linearGradient id="simd6fcs4B" x1="50%" x2="50%" y1="100%" y2="0%">
            <stop offset="0%" stop-color="#FFA835"/>
            <stop offset="100%" stop-color="#FAD170"/>
        </linearGradient>
        <linearGradient id="zbk43sezfC" x1="50%" x2="50%" y1="100%" y2="-27.942%">
            <stop offset="0%" stop-color="#FF9E1D"/>
            <stop offset="100%" stop-color="#FAD170"/>
        </linearGradient>
        <linearGradient id="g6xv5n2snD" x1="50%" x2="50%" y1="100%" y2="0%">
            <stop offset="0%" stop-color="#FFA835"/>
            <stop offset="100%" stop-color="#FAD170"/>
        </linearGradient>
        <linearGradient id="zjt2yu48gE" x1="50%" x2="50%" y1="100%" y2="-27.942%">
            <stop offset="0%" stop-color="#FF9E1D"/>
            <stop offset="100%" stop-color="#FAD170"/>
        </linearGradient>
        <linearGradient id="kd77kb1rfF" x1="50%" x2="50%" y1="100%" y2="0%">
            <stop offset="0%" stop-color="#FFA835"/>
            <stop offset="100%" stop-color="#FAD170"/>
        </linearGradient>
        <linearGradient id="8mlg2iu2sG" x1="50%" x2="50%" y1="100%" y2="-27.942%">
            <stop offset="0%" stop-color="#FF9E1D"/>
            <stop offset="100%" stop-color="#FAD170"/>
        </linearGradient>
        <linearGradient id="8uxlb462qH" x1="50%" x2="50%" y1="100%" y2="0%">
            <stop offset="0%" stop-color="#FFA835"/>
            <stop offset="100%" stop-color="#FAD170"/>
        </linearGradient>
        <linearGradient id="pkv7sstzxI" x1="50%" x2="50%" y1="100%" y2="-27.942%">
            <stop offset="0%" stop-color="#FF9E1D"/>
            <stop offset="100%" stop-color="#FAD170"/>
        </linearGradient>
        <linearGradient id="7hs4amt13J" x1="50%" x2="50%" y1="100%" y2="0%">
            <stop offset="0%" stop-color="#FFA835"/>
            <stop offset="100%" stop-color="#FAD170"/>
        </linearGradient>
        <linearGradient id="5qhwkop4uK" x1="50%" x2="50%" y1="100%" y2="-27.942%">
            <stop offset="0%" stop-color="#FF9E1D"/>
            <stop offset="100%" stop-color="#FAD170"/>
        </linearGradient>
        <linearGradient id="b9m15l60uL" x1="50%" x2="50%" y1="100%" y2="0%">
            <stop offset="0%" stop-color="#FFA835"/>
            <stop offset="100%" stop-color="#FAD170"/>
        </linearGradient>
        <linearGradient id="j8o6hh1cfM" x1="50%" x2="50%" y1="100%" y2="0%">
            <stop offset="0%" stop-color="#FF960B"/>
            <stop offset="100%" stop-color="#FAD170"/>
        </linearGradient>
        <linearGradient id="jljue0uy7N" x1="50%" x2="50%" y1="100%" y2="0%">
            <stop offset="0%" stop-color="#FFA835"/>
            <stop offset="100%" stop-color="#FAD170"/>
        </linearGradient>
        <linearGradient id="6g2futrdkO" x1="50%" x2="50%" y1="100%" y2="0%">
            <stop offset="0%" stop-color="#FF960B"/>
            <stop offset="100%" stop-color="#FAD170"/>
        </linearGradient>
        <linearGradient id="msid5zwm4P" x1="50%" x2="50%" y1="100%" y2="0%">
            <stop offset="0%" stop-color="#FFA835"/>
            <stop offset="100%" stop-color="#FAD170"/>
        </linearGradient>
        <linearGradient id="mitwg97iqQ" x1="50%" x2="50%" y1="100%" y2="0%">
            <stop offset="0%" stop-color="#FF960B"/>
            <stop offset="100%" stop-color="#FAD170"/>
        </linearGradient>
        <linearGradient id="rjg0kor06R" x1="50%" x2="50%" y1="100%" y2="0%">
            <stop offset="0%" stop-color="#FFA835"/>
            <stop offset="100%" stop-color="#FAD170"/>
        </linearGradient>
        <linearGradient id="647ny4s0zS" x1="50%" x2="50%" y1="100%" y2="0%">
            <stop offset="0%" stop-color="#FF960B"/>
            <stop offset="100%" stop-color="#FAD170"/>
        </linearGradient>
        <linearGradient id="qt7oqwelsT" x1="50%" x2="50%" y1="100%" y2="0%">
            <stop offset="0%" stop-color="#FFA835"/>
            <stop offset="100%" stop-color="#FAD170"/>
        </linearGradient>
        <linearGradient id="byyaopr6kU" x1="50%" x2="50%" y1="100%" y2="0%">
            <stop offset="0%" stop-color="#FFA835"/>
            <stop offset="100%" stop-color="#FAD170"/>
        </linearGradient>
        <linearGradient id="qai9lm579V" x1="50%" x2="50%" y1="100%" y2="0%">
            <stop offset="0%" stop-color="#FF9B17"/>
            <stop offset="100%" stop-color="#FAD170"/>
        </linearGradient>
        <linearGradient id="m1p82buk3W" x1="50%" x2="50%" y1="100%" y2="0%">
            <stop offset="0%" stop-color="#FFA835"/>
            <stop offset="100%" stop-color="#FAD170"/>
        </linearGradient>
        <linearGradient id="pd6rqwg2eX" x1="50%" x2="50%" y1="100%" y2="0%">
            <stop offset="0%" stop-color="#FF9B17"/>
            <stop offset="100%" stop-color="#FAD170"/>
        </linearGradient>
        <linearGradient id="e9h1mawfkY" x1="50%" x2="50%" y1="100%" y2="0%">
            <stop offset="0%" stop-color="#FFA835"/>
            <stop offset="100%" stop-color="#FAD170"/>
        </linearGradient>
        <linearGradient id="o4urxbpbyZ" x1="93.845%" x2="28.934%" y1="47.692%" y2="52.308%">
            <stop offset="0%" stop-color="#EF7806"/>
            <stop offset="100%" stop-color="#9B6100"/>
        </linearGradient>
        <linearGradient id="v6kkpk0c8aa" x1="41.513%" x2="58.487%" y1="44.539%" y2="57.483%">
            <stop offset="0%" stop-color="#FF9610"/>
            <stop offset="100%" stop-color="#DE6E31"/>
        </linearGradient>
        <linearGradient id="y855rh3avab" x1="50%" x2="50%" y1="100%" y2="-27.942%">
            <stop offset="0%" stop-color="#FF9E1D"/>
            <stop offset="100%" stop-color="#FAD170"/>
        </linearGradient>
        <linearGradient id="9pob7q2x7ac" x1="50%" x2="50%" y1="100%" y2="0%">
            <stop offset="0%" stop-color="#FFA835"/>
            <stop offset="100%" stop-color="#FAD170"/>
        </linearGradient>
        <linearGradient id="xo0031j7had" x1="50%" x2="50%" y1="100%" y2="-27.942%">
            <stop offset="0%" stop-color="#FF9E1D"/>
            <stop offset="100%" stop-color="#FAD170"/>
        </linearGradient>
        <linearGradient id="swh76djzcae" x1="50%" x2="50%" y1="100%" y2="0%">
            <stop offset="0%" stop-color="#FFA835"/>
            <stop offset="100%" stop-color="#FAD170"/>
        </linearGradient>
        <linearGradient id="3swod7r0baf" x1="50%" x2="50%" y1="100%" y2="-27.942%">
            <stop offset="0%" stop-color="#FF9E1D"/>
            <stop offset="100%" stop-color="#FAD170"/>
        </linearGradient>
        <linearGradient id="z5p3xv87lag" x1="50%" x2="50%" y1="100%" y2="0%">
            <stop offset="0%" stop-color="#FFA835"/>
            <stop offset="100%" stop-color="#FAD170"/>
        </linearGradient>
        <linearGradient id="hsczrasc1ah" x1="50%" x2="50%" y1="100%" y2="-27.942%">
            <stop offset="0%" stop-color="#FF9E1D"/>
            <stop offset="100%" stop-color="#FAD170"/>
        </linearGradient>
        <linearGradient id="ljazwq1byai" x1="50%" x2="50%" y1="0%" y2="100%">
            <stop offset="0%" stop-color="#832F12"/>
            <stop offset="100%" stop-color="#2B2B2A"/>
        </linearGradient>
        <linearGradient id="6fakg35jeaj" x1="50%" x2="50%" y1="0%" y2="100%">
            <stop offset="0%" stop-color="#FCD161"/>
            <stop offset="100%" stop-color="#F8A532"/>
        </linearGradient>
        <linearGradient id="tu1rn66h2ak" x1="50%" x2="50%" y1="0%" y2="100%">
            <stop offset="0%" stop-color="#832F12"/>
            <stop offset="100%" stop-color="#2B2B2A"/>
        </linearGradient>
        <filter id="8av5yhumuc" width="263.2%" height="307.7%" x="-81.6%" y="-103.8%" filterUnits="objectBoundingBox">
            <feGaussianBlur in="SourceGraphic" stdDeviation="29.455"/>
        </filter>
        <filter id="3awsu4d7kk" width="243.9%" height="260.9%" x="-72%" y="-80.5%" filterUnits="objectBoundingBox">
            <feGaussianBlur in="SourceGraphic" stdDeviation="34.863"/>
        </filter>
        <filter id="twpj04td1n" width="238.3%" height="254.4%" x="-69.2%" y="-77.2%" filterUnits="objectBoundingBox">
            <feGaussianBlur in="SourceGraphic" stdDeviation="33.545"/>
        </filter>
        <radialGradient id="sy58w3l1cg" cx="57.719%" cy="35.107%" r="54.598%" fx="57.719%" fy="35.107%" gradientTransform="matrix(-.85935 -.4108 .5292 -.7144 .887 .839)">
            <stop offset="0%" stop-color="#FFDA6B"/>
            <stop offset="44.398%" stop-color="#FFBC1A"/>
            <stop offset="100%" stop-color="#FF9E22"/>
        </radialGradient>
        <radialGradient id="89fibiiw9i" cx="50%" cy="50%" r="172.376%" fx="50%" fy="50%" gradientTransform="scale(1 .3817) rotate(79.793 .016 .905)">
            <stop offset="0%" stop-color="#F5CC93"/>
            <stop offset="100%" stop-color="#FFA237"/>
        </radialGradient>
        <path id="8yekhu72ph" d="M29.96 0C46.4 0 59.73 13.328 59.73 29.77v126.216H.19V29.77C.19 13.329 13.519 0 29.96 0z"/>
    </defs>
    <g fill="none" fill-rule="evenodd">
        <g>
            <g transform="translate(-872 -4082) translate(872 4082)">
                <path fill="url(#ada4lza25a)" fill-rule="nonzero" d="M359.935 179.895c.01 15.064-1.867 30.07-5.59 44.667H5.736C-15.729 140.71 25.53 53.454 103.957 16.834c.29-.137.582-.271.872-.404 5.153-2.376 10.433-4.509 15.84-6.398.29-.101.581-.203.872-.302C140.367 3.268 160.136-.02 180.04 0c99.354 0 179.896 80.55 179.896 179.895z" opacity=".558"/>
                <path fill="url(#276i0bajbb)" fill-rule="nonzero" d="M354.346 224.562c-19.864 77.746-90.373 135.229-174.307 135.229-83.934 0-154.442-57.483-174.305-135.229h348.612z"/>
                <ellipse fill="#FFEEC8" style="mix-blend-mode:soft-light" cx="218.455" cy="278.591" filter="url(#8av5yhumuc)" opacity=".638" rx="54.149" ry="42.545"/>
                <path fill="#DE6E31" fill-rule="nonzero" d="M47.65 249.33l3.045 1.521c-1.058-.414-2.077-.923-3.044-1.52z"/>
                <path d="M102.442 232.502L102.316 232.55"/>
                <g>
                    <path fill="url(#2fm2p2e9yd)" fill-rule="nonzero" d="M88.248 93.783l-.025.01h-.012l-28.31 8.646c-2.082-1.204-4.004-2.605-5.641-4.433-5.182-5.79-8.311-13.158-12.457-19.638-3.704-5.793-8.689-12.039-15.998-13.113-1.509-.22-2.961-.021-4.355.433l5.907-2.241.322-.123 18.78-7.123c1.712-.71 3.523-1.095 5.412-.82 7.311 1.07 12.3 7.321 15.996 13.11 4.144 6.484 7.273 13.852 12.46 19.642 2.034 2.271 4.504 3.876 7.18 5.27.246.13.492.256.741.38z" opacity=".864" transform="translate(40.91 171.818)"/>
                    <path fill="#E75A2B" fill-rule="nonzero" d="M0 72.675c3.018 1.177 5.285.956 6.222.813 2.924-.443 5.482-1.991 7.852-3.612 2.211-1.525 4.687-3.322 7.379-4.188 1.393-.454 2.846-.654 4.354-.433 7.31 1.07 12.3 7.32 15.999 13.113 4.145 6.48 7.274 13.849 12.456 19.638 1.637 1.832 3.56 3.23 5.641 4.433.737.424-16.885-8.301-59.903-29.764z" transform="translate(40.91 171.818)"/>
                    <path fill="url(#u0p8w2zp2e)" fill-rule="nonzero" d="M96.07 67.955c-2.007 5.179-6.038 8.448-9.007 7.296l-.34-.154-.056-.028c-2.635-1.44-3.257-6.333-1.344-11.274 2.005-5.18 6.038-8.446 9.007-7.298 2.97 1.147 3.744 6.278 1.74 11.458z" opacity=".843" transform="translate(40.91 171.818)"/>
                    <path fill="url(#tg0kgziorf)" fill-rule="nonzero" d="M94.33 56.497c-2.969-1.148-7.002 2.118-9.007 7.298-1.913 4.94-1.291 9.835 1.344 11.274L15.311 42.513c-2.907-1.223-3.656-6.039-1.67-10.76 1.985-4.721 5.95-7.558 8.857-6.335L94.33 56.497z" transform="translate(40.91 171.818)"/>
                    <path fill="#AC2504" fill-rule="nonzero" d="M75.845 48.561l13.15 5.729c-2.032.358-4.53.546-7.227.5-6.777-.12-12.245-1.68-12.213-3.487.021-1.223 2.554-2.245 6.29-2.742z" opacity=".539" transform="translate(40.91 171.818)"/>
                    <path fill="#E75A2B" fill-rule="nonzero" d="M63.426 49.635c.055 1.187.824 2.222 1.945 2.617 8.503 2.985 17.769 2.985 26.272 0 1.174-.414 1.957-1.527 1.948-2.772 0-.059 0-.123-.008-.183-.454-5.841-2.156-9.842-3.742-12.515-2.12-3.563-4.696-5.861-5.516-10.435-.319-1.823-.323-3.688-.013-5.513.194-1.057.69-2.034 1.43-2.814 3.557-3.908 3.37-9.935-.425-13.613-3.795-3.678-9.825-3.678-13.62 0s-3.983 9.705-.424 13.613c.738.78 1.234 1.758 1.427 2.814.312 1.825.308 3.69-.012 5.513-.819 4.58-3.395 6.872-5.515 10.435-1.588 2.673-3.285 6.674-3.743 12.515-.009.112-.01.225-.004.338z" transform="translate(40.91 171.818)"/>
                    <path fill="#AC2504" fill-rule="nonzero" d="M35.997 31.118l-.092.096 4.44 1.928c-1.154.165-2.462.303-3.85.4-4.733.331-8.609.052-8.656-.625-.046-.66 3.578-1.455 8.158-1.8z" opacity=".411" transform="translate(40.91 171.818)"/>
                    <path fill="#2B2B2A" d="M21.452 30.091c.035.744.523 1.394 1.234 1.641 5.396 1.872 11.277 1.872 16.673 0 .745-.259 1.241-.957 1.236-1.738 0-.037 0-.077-.005-.115-.288-3.663-1.368-6.171-2.375-7.848-1.345-2.234-2.98-3.675-3.5-6.543-.203-1.143-.206-2.312-.008-3.457.122-.663.437-1.276.906-1.765 2.258-2.45 2.139-6.23-.27-8.536-2.407-2.307-6.234-2.307-8.642 0-2.408 2.306-2.528 6.086-.27 8.536.47.49.784 1.102.906 1.765.198 1.144.196 2.314-.007 3.457-.52 2.872-2.155 4.309-3.5 6.543-1.008 1.677-2.085 4.185-2.375 7.848-.006.07-.007.142-.003.212z" transform="translate(40.91 171.818)"/>
                </g>
                <path d="M146.992 253.512L147.055 253.543 147.431 253.714"/>
                <path fill="url(#sy58w3l1cg)" fill-rule="nonzero" d="M42.237 107.288c0 7.9-4.424 15.136-11.457 18.736-7.033 3.6-15.49 2.958-21.9-1.663 4.262-13.137 10.03-25.737 17.188-37.548 9.479 2.26 16.167 10.73 16.17 20.475z"/>
                <g transform="translate(201.144 34.69)">
                    <mask id="qo8lqcdddl" fill="#fff">
                        <use xlink:href="#8yekhu72ph"/>
                    </mask>
                    <use fill="url(#89fibiiw9i)" fill-rule="nonzero" opacity=".8" xlink:href="#8yekhu72ph"/>
                    <path fill="url(#7sthx5cusj)" fill-rule="nonzero" d="M124.582-19.907c11.423 9.669 18.111 25.817 20.067 44.023 1.852 18.102-1.03 38.16-12.452 52.765-11.422 14.503-31.488 23.657-48.879 20.983-17.288-2.777-31.9-17.28-48.57-31.886C17.975 51.373-.754 36.768-.136 22.778.48 8.79 20.444-4.581 37.218-14.25c16.67-9.668 30.047-15.634 44.865-17.074 14.818-1.44 30.974 1.646 42.5 11.417z" filter="url(#3awsu4d7kk)" mask="url(#qo8lqcdddl)" transform="rotate(-87 72.508 33.334)"/>
                    <g stroke="#FFF6C8" stroke-width=".818" mask="url(#qo8lqcdddl)" opacity=".609">
                        <g>
                            <path d="M103.276 121.035c-10.223 1.278-13.706-19.652-29.826-21.96-11.968-1.712-16.188 8.944-27.99 6.863-13.378-2.358-25.212-19.08-22.027-29.278 3.097-9.915 18.921-8.955 20.65-18.299 1.568-8.48-10.831-12.7-10.096-23.33.542-7.813 7.96-15.928 16.519-16.927 9.817-1.145 18.795 7.344 21.567 15.554 4.298 12.728-7.457 21.427-2.295 30.651 2.876 5.136 7.29 3.813 22.027 10.979 13.785 6.703 21.766 10.583 24.319 18.3 3.575 10.802-4.402 26.39-12.848 27.447z" transform="translate(-89.28 -22.791) rotate(130 69.955 69.545)"/>
                            <path d="M92.175 103.364c-6.755.841-9.057-12.945-19.71-14.466-7.91-1.127-10.698 5.892-18.499 4.52-8.84-1.552-16.662-12.568-14.557-19.286 2.048-6.53 12.506-5.897 13.648-12.053 1.035-5.587-7.159-8.368-6.673-15.37.358-5.146 5.261-10.49 10.918-11.149 6.487-.754 12.42 4.838 14.252 10.246 2.841 8.385-4.927 14.114-1.517 20.19 1.901 3.384 4.819 2.513 14.557 7.233 9.11 4.415 14.386 6.97 16.071 12.054 2.364 7.117-2.908 17.384-8.49 18.08z" transform="translate(-89.28 -22.791) rotate(130 70.154 69.446)"/>
                        </g>
                    </g>
                    <g stroke="#FFF6C8" stroke-width=".818" mask="url(#qo8lqcdddl)" opacity=".609">
                        <g>
                            <path d="M77.89 91.202c-7.702.956-10.342-14.823-22.49-16.574-9.02-1.3-12.192 6.73-21.087 5.153-10.082-1.787-19.011-14.4-16.619-22.085 2.327-7.472 14.252-6.737 15.547-13.78 1.176-6.39-8.17-9.58-7.624-17.592.403-5.89 5.988-12.001 12.436-12.748 7.397-.856 14.169 5.55 16.263 11.74 3.247 9.597-5.604 16.146-1.708 23.103 2.171 3.873 5.496 2.88 16.606 8.291 10.393 5.063 16.409 7.993 18.338 13.811 2.702 8.146-3.298 19.89-9.662 20.68z" transform="translate(24.446 50.027) rotate(130 52.76 52.371)"/>
                            <path d="M69.523 77.873c-5.09.63-6.834-9.764-14.863-10.918-5.96-.856-8.057 4.433-13.936 3.394-6.663-1.176-12.564-9.486-10.983-14.548 1.538-4.921 9.419-4.437 10.275-9.076.777-4.21-5.4-6.312-5.039-11.59.266-3.88 3.957-7.905 8.22-8.397 4.887-.564 9.362 3.656 10.746 7.734 2.147 6.322-3.703 10.635-1.128 15.218 1.434 2.552 3.632 1.898 10.974 5.462 6.868 3.335 10.845 5.265 12.119 9.098 1.786 5.366-2.18 13.102-6.385 13.623z" transform="translate(24.446 50.027) rotate(130 52.914 52.294)"/>
                        </g>
                    </g>
                    <g stroke="#FFF6C8" stroke-width=".818" mask="url(#qo8lqcdddl)" opacity=".609">
                        <g>
                            <path d="M58.836 68.956c-5.781.711-7.778-11.144-16.901-12.471-6.773-.985-9.147 5.044-15.827 3.85-7.572-1.351-14.288-10.834-12.499-16.604 1.74-5.61 10.694-5.046 11.66-10.335.877-4.8-6.144-7.205-5.741-13.222.297-4.423 4.484-9.009 9.325-9.563 5.552-.636 10.643 4.181 12.221 8.833 2.447 7.212-4.192 12.123-1.26 17.352 1.634 2.912 4.129 2.168 12.475 6.244 7.808 3.812 12.328 6.02 13.782 10.391 2.036 6.121-2.457 14.937-7.235 15.525z" transform="rotate(152 59.664 30.725) rotate(130 39.946 39.77)"/>
                            <path d="M54.718 60.087c-3.82.468-5.14-7.34-11.17-8.215-4.475-.648-6.044 3.323-10.46 2.537-5.003-.89-9.441-7.138-8.259-10.938 1.15-3.695 7.068-3.324 7.706-6.808.58-3.162-4.06-4.747-3.794-8.71.196-2.914 2.963-5.934 6.163-6.3 3.669-.419 7.033 2.755 8.076 5.82 1.618 4.75-2.77 7.985-.833 11.43 1.08 1.917 2.73 1.428 8.245 4.113 5.16 2.511 8.147 3.965 9.107 6.845 1.346 4.032-1.623 9.839-4.78 10.226z" transform="rotate(152 59.664 30.725) rotate(130 42.234 40.862)"/>
                        </g>
                    </g>
                    <path fill="url(#u203oz7i8m)" fill-rule="nonzero" d="M56.15 115.024c11.438 9.696 18.136 25.89 20.094 44.148 1.855 18.155-1.03 38.27-12.468 52.917-11.438 14.544-31.532 23.724-48.946 21.042-17.311-2.785-31.943-17.329-48.636-31.976-16.797-14.648-35.55-29.295-34.932-43.324.618-14.028 20.608-27.438 37.405-37.134 16.693-9.696 30.088-15.679 44.927-17.123 14.838-1.444 31.016 1.65 42.556 11.45z" filter="url(#twpj04td1n)" mask="url(#qo8lqcdddl)"/>
                    <g stroke="#FFF6C8" stroke-width=".818" mask="url(#qo8lqcdddl)" opacity=".609">
                        <g>
                            <path d="M77.89 91.202c-7.702.956-10.342-14.823-22.49-16.574-9.02-1.3-12.192 6.73-21.087 5.153-10.082-1.787-19.011-14.4-16.619-22.085 2.327-7.472 14.252-6.737 15.547-13.78 1.176-6.39-8.17-9.58-7.624-17.592.403-5.89 5.988-12.001 12.436-12.748 7.397-.856 14.169 5.55 16.263 11.74 3.247 9.597-5.604 16.146-1.708 23.103 2.171 3.873 5.496 2.88 16.606 8.291 10.393 5.063 16.409 7.993 18.338 13.811 2.702 8.146-3.298 19.89-9.662 20.68z" transform="translate(-67.19 97.481) rotate(130 52.76 52.371)"/>
                            <path d="M69.523 77.873c-5.09.63-6.834-9.764-14.863-10.918-5.96-.856-8.057 4.433-13.936 3.394-6.663-1.176-12.564-9.486-10.983-14.548 1.538-4.921 9.419-4.437 10.275-9.076.777-4.21-5.4-6.312-5.039-11.59.266-3.88 3.957-7.905 8.22-8.397 4.887-.564 9.362 3.656 10.746 7.734 2.147 6.322-3.703 10.635-1.128 15.218 1.434 2.552 3.632 1.898 10.974 5.462 6.868 3.335 10.845 5.265 12.119 9.098 1.786 5.366-2.18 13.102-6.385 13.623z" transform="translate(-67.19 97.481) rotate(130 52.914 52.294)"/>
                        </g>
                    </g>
                </g>
                <path fill="#231F20" fill-rule="nonzero" d="M104.83 16.43v93.291h-.872V16.834c.29-.137.582-.271.872-.404zM121.542 9.726V53.18h-.872V10.032c.29-.106.581-.208.872-.306z"/>
                <g>
                    <path fill="#AC6D04" fill-rule="nonzero" d="M91.712 109.458l16.5 5.458 7.026-.812 15.187 1.043c-.068.094-.068.094-.146.215-.067.103-.153.251-.209.32-.056.069-.058.104-.072.112-10.809 6.104-21.819 10.191-34.016 12.493-6.387.53-13.003 0-19.515-.285-.09-.005-.17-.06-.205-.142-.036-.082-.023-.177.033-.247l2.668-3.232c-10.774 2.601-21.664 4.7-32.635 6.29l15.542-17.943 29.842-3.27z" opacity=".411" transform="translate(200.455 162.818)"/>
                    <path fill="url(#5g5mraxxwo)" fill-rule="nonzero" d="M61.837 114.146c-.264.109-.544.218-.837.322-2.705.94-5.487 1.64-8.314 2.091-2.677.477-5.663.837-8.871 1.134-.837.072-1.688.135-2.556.188-2.04.134-4.182.222-6.332.26-2.091.037-4.107.024-6.068-.026-1.033-.03-2.046-.067-3.037-.121h-.02c-2.908-.15-5.634-.393-8.115-.724-2.974-.354-5.913-.964-8.783-1.823-2.986-.945-4.835-2.104-5.14-3.388v-.025c-.031-.112-.048-.227-.05-.343-.025-1.447 1.886-2.827 5.19-4.003v1.627c-.004.03-.004.062 0 .092.005.038.012.076.021.113.012.061.03.122.05.18.012.04.026.08.042.117v.021c0 .021.03.063.042.088.043.086.09.17.142.25l.034.051c.017.03.038.059.062.084v.025c.031.046.066.09.105.13.026.037.055.072.088.104.05.059.104.113.163.172l.075.07.076.072v.02l.18.151.2.15c.568.4 1.173.743 1.807 1.025l.213.097.352.15.171.071.443.172.18.067.54.192.569.188.372.117.226.059.456.134.171.05.569.159.548.138.564.138c.377.092.762.18 1.159.264l.347.075c1.18.247 2.447.472 3.785.673l1.08.16.275.037c.326.047.657.089.991.125l.197.025.619.076c.418.05.836.092 1.255.138l.811.08c.464.045.937.087 1.41.125l1.447.108c.485.038.978.067 1.476.096l.749.042 1.673.08.786.025c.268 0 .531.02.799.025H43.288l.953-.025 1.176-.042h.213l1.292-.059c.497-.025.99-.054 1.48-.087.29 0 .574-.034.837-.059h.088l.51-.038.753-.062c.122 0 .239 0 .36-.025l.314-.03.69-.062h.184l1.183-.122.674-.075c.443-.05.882-.1 1.313-.159h.134l1.142-.159h.042l.982-.146.168-.025.644-.11.506-.087.665-.117.569-.109h.07l.624-.125h.104l.879-.247z" transform="translate(200.455 162.818)"/>
                    <path fill="#F8A532" fill-rule="nonzero" d="M106.685 95.61c0 16.646-5.563 30.142-12.418 30.142h-12.84c-3.438 0-6.545-3.392-8.783-8.87-.85-2.11-1.528-4.286-2.028-6.504-.753.97-2.393 1.87-4.722 2.66v11.02c0 1.389-1.786 2.715-4.873 3.856-2.705.939-5.487 1.638-8.314 2.092-3.794.646-7.62 1.087-11.46 1.321-2.041.13-4.183.222-6.332.26-2.092.037-4.107.025-6.069-.025-3.736-.087-7.464-.366-11.171-.837-2.975-.353-5.914-.965-8.783-1.828-3.258-1.05-5.165-2.346-5.19-3.764v-.033l.062-13.041c.318 1.28 2.167 2.443 5.14 3.404 2.87.86 5.809 1.47 8.783 1.824 2.48.33 5.207.573 8.114.724h.021c.991.054 2.004.092 3.037.12 1.961.051 3.994.064 6.068.026 2.17-.038 4.291-.126 6.332-.26.865-.052 1.717-.115 2.556-.188 3.208-.276 6.194-.656 8.87-1.133 2.828-.452 5.61-1.152 8.315-2.091.289-.105.57-.213.837-.322l-.837.18h-.104l-.623.125H60.2l-.568.109-.665.117-.506.088-.645.109-.167.025-.983.146h-.041l-1.142.159h-.134c-.418.058-.87.109-1.313.159l-.674.075-1.183.121h-.184l-.69.063-.314.03c-.121 0-.239.02-.36.025l-.753.062-.51.038h-.088l-.836.058c-.491.034-.985.063-1.48.088l-1.293.059h-.214l-1.175.042-.953.025H36.253c-.268 0-.531 0-.799-.025l-.786-.025-1.673-.08-.749-.042c-.497-.029-.99-.058-1.476-.096l-1.493-.05c-.473-.038-.945-.08-1.41-.126l-.811-.079c-.418-.046-.837-.088-1.255-.138l-.619-.075-.196-.025c-.335-.037-.665-.079-.992-.126l-.276-.038-1.079-.158c-1.338-.201-2.605-.419-3.785-.674l-.347-.075c-.418-.084-.782-.172-1.158-.264l-.565-.138-.548-.138-.569-.159-.171-.05-.44-.142-.15-.046-.372-.117-.569-.188-.54-.193-.18-.067-.443-.171-.171-.071-.351-.15-.214-.097c-.634-.282-1.239-.625-1.807-1.025l-.2-.15-.18-.15v-.022l-.075-.07-.076-.072c-.058-.058-.113-.113-.163-.171-.033-.032-.062-.067-.088-.105-.038-.04-.073-.083-.104-.13v-.025c-.025-.025-.046-.053-.063-.083l-.033-.05c-.053-.081-.1-.165-.143-.251 0-.026-.025-.059-.041-.088-.017-.03 0 0 0-.021-.017-.038-.03-.077-.042-.117-.021-.059-.038-.119-.05-.18-.01-.037-.016-.075-.021-.113-.004-.03-.004-.062 0-.092v-8.599c-3.258-.753-5.78-1.673-7.29-2.69C.565 97.342 0 96.614 0 95.816V82.193c0-1.33 1.631-2.568 4.463-3.627V66.107c.012-.323.112-.637.288-.908.469-.778 1.518-1.497 3.045-2.145v-8.06c0-1.857 6.123-3.45 15.232-4.29v-.193c.477-6.144 2.267-10.352 3.936-13.162 2.23-3.764 4.94-6.165 5.8-10.975.332-1.918.332-3.879 0-5.797-.202-1.111-.724-2.14-1.5-2.96-3.742-4.11-3.544-10.448.446-14.315 3.99-3.868 10.332-3.868 14.322 0 3.99 3.867 4.188 10.205.447 14.314-.777.82-1.299 1.85-1.501 2.961-.332 1.918-.332 3.88 0 5.797.861 4.81 3.571 7.227 5.8 10.975 1.673 2.81 3.455 7.018 3.936 13.162.009.118.009.237 0 .355 4.776.49 8.729 1.176 11.41 1.987 2.438.736 3.827 1.577 3.822 2.463V69.47c-.029.932-1.23 1.781-3.345 2.51V82.1c0 .766-.582 1.494-1.607 2.154-.89.554-1.844 1-2.84 1.33v5.735c2.962.681 5.308 1.501 6.847 2.409.08-3.572.447-7.132 1.1-10.645.59-3.359 1.572-6.636 2.928-9.766 1.2-2.651 2.614-4.738 4.182-6.093 1.305-1.134 2.715-1.753 4.183-1.753h12.84c6.888 0 12.45 13.493 12.45 30.139z" opacity=".36" transform="translate(200.455 162.818)"/>
                    <path stroke="#2B2B2A" stroke-width=".5" d="M51.31 115.694L50.636 115.748M49.285 115.852L48.449 115.911M25.015 115.305c-.335-.037-.665-.079-.991-.126M9.854 110.892L9.762 110.808" transform="translate(200.455 162.818)"/>
                    <path fill="url(#hh3m329htp)" fill-rule="nonzero" d="M71.1 96.233c0 .874-.71 1.71-2.003 2.484-1.852 1.104-4.906 2.091-8.783 2.836-2.405.468-5.136.857-8.1 1.142-.94.092-1.904.171-2.891.238-2.928.21-6.06.322-9.302.322-.936 0-1.864-.01-2.78-.03-2.765-.054-5.438-.192-7.947-.417h4.282c.419 0 .837 0 1.28-.03 1.393-.033 2.76-.092 4.09-.171.502-.03.996-.059 1.485-.096l1.063-.08.665-.054 1.146-.105c.677-.067 1.338-.134 1.99-.213 3.451-.36 6.868-.995 10.218-1.899l.389-.113.652-.2c2.271-.728 3.949-1.56 4.86-2.456.08-.075.15-.154.222-.23.118-.138.223-.286.314-.443.029-.045.054-.093.075-.142.049-.1.088-.203.117-.31.017-.049.03-.1.038-.15v-.15V91.318c2.96.681 5.307 1.501 6.846 2.409.502.283.963.635 1.368 1.045.417.376.67.9.707 1.46z" transform="translate(200.455 162.818)"/>
                    <path fill="url(#u2fty0griq)" fill-rule="nonzero" d="M69.967 55.312c.002.035.002.07 0 .105-.004.053-.016.105-.033.155-.013.044-.03.087-.05.13v.033c-.02.04-.045.08-.071.117l-.042.062c-.029.042-.06.082-.096.118-.03.035-.062.069-.097.1-.045.048-.094.092-.146.134-.033.03-.068.058-.105.083-.339.254-.707.468-1.095.636l-.193.088-.205.084c-.067.029-.138.058-.213.083l-.222.088c-.225.084-.464.163-.715.247-.38.121-.794.238-1.234.355l-.447.113c-.335.08-.678.163-1.037.239-.628.14-1.293.269-1.995.389l-.268.046-.272.046-.456.075h-.096l-1.142.171c-.615.088-1.255.172-1.903.247l-.895.105-.544.058-.53.055c-.419.042-.808.083-1.222.117-1.146.109-2.342.2-3.58.28-2.51.163-5.207.272-8.018.318h-.029c-1.355.025-2.74.033-4.145.025-1.004 0-1.995-.013-2.973-.038l-1.184-.029c-.452 0-.903-.025-1.347-.042-.761-.025-1.51-.054-2.246-.092l-.527-.025-.95-.05-.647-.038-.808-.05h-.025l-1.468-.104c-.694-.05-1.376-.11-2.04-.168l-.984-.092c-.33-.033-.652-.062-.974-.1l-.945-.1c-1.155-.13-2.25-.277-3.288-.419-.59-.088-1.154-.18-1.702-.272l-.493-.087-.523-.097c-.736-.133-1.435-.28-2.091-.418l-.573-.138c-1.396-.293-2.75-.761-4.028-1.393-.071-.037-.142-.075-.205-.117-.128-.076-.25-.16-.368-.25-.103-.077-.2-.16-.289-.252-.079-.075-.15-.157-.213-.246-.045-.06-.081-.124-.109-.193-.015-.024-.026-.051-.033-.08-.002-.016-.002-.033 0-.05-.014-.037-.024-.077-.03-.117-.003-.047-.003-.094 0-.142 0-1.857 6.124-3.45 15.233-4.29 4.65-.42 10.084-.658 15.893-.628 5.81.03 11.2.318 15.839.79 4.776.49 8.728 1.176 11.41 1.987 2.408.71 3.789 1.552 3.784 2.438z" transform="translate(200.455 162.818)"/>
                    <path fill="url(#8wz3w9wu1r)" fill-rule="nonzero" d="M48.181 88.06c-.937.138-1.907.268-2.927.381-.649.075-1.314.146-1.991.213-1.493.143-3.05.264-4.655.352-1.606.087-3.346.159-5.074.188-.81 0-1.635.02-2.463.02-2.597 0-5.123-.07-7.528-.208-.628-.034-1.255-.076-1.861-.117-.951-.067-1.883-.145-2.794-.235-3.079-.297-5.902-.702-8.365-1.196-4.057-.807-7.169-1.853-8.925-3.036C.565 83.723 0 82.975 0 82.192c0-1.33 1.631-2.567 4.463-3.626v2.092c-.005.06-.005.122 0 .184.004.05.012.1.025.15.013.074.033.147.058.218 0 .054.042.113.071.171.008.025.02.05.034.071.021.046.045.09.07.134.112.194.245.373.398.535.055.059.113.122.176.18l.18.168c.413.353.861.663 1.338.924l.222.121c.205.113.418.226.656.335h.026c.221.104.455.209.698.313.125.055.255.11.389.16s.263.108.418.158l.79.289.063.02c.299.107.604.207.916.302l.465.142c.811.243 1.68.476 2.605.699.33.079.67.154 1.012.23l.502.108c.866.189 1.77.36 2.71.523l.465.08c1.405.238 2.894.451 4.446.64.602.07 1.212.138 1.836.2.418.046.811.084 1.225.122l1.255.112.807.063c.468.038.941.071 1.414.1l1.133.072 1.318.067c.527.025 1.058.05 1.589.067.531.016 1.07.037 1.61.05l1.405.025h.967c3.048.025 5.972-.059 8.711-.226l1.121-.075.594-.03z" transform="translate(200.455 162.818)"/>
                    <path fill="url(#eak5ux2p2s)" fill-rule="nonzero" d="M14.07 71.44v14.5c-.926-.22-1.795-.453-2.606-.699L11 85.1l-.916-.3-.063-.022-.82-.293c-.138-.05-.272-.104-.418-.158-.146-.055-.263-.105-.389-.16-.243-.104-.477-.209-.698-.313H7.67c-.23-.109-.448-.222-.657-.335l-.222-.121c-.477-.26-.925-.57-1.338-.924l-.18-.168c-.063-.058-.121-.12-.176-.18-.153-.161-.286-.341-.397-.535-.026-.043-.05-.088-.071-.134-.015-.022-.026-.046-.034-.07-.027-.056-.051-.113-.07-.172-.026-.071-.046-.144-.06-.218-.012-.05-.02-.1-.024-.15-.004-.061-.004-.123 0-.184V66.145c.02 1.99 3.705 3.88 9.628 5.295z" transform="translate(200.455 162.818)"/>
                    <path fill="url(#vbkvpw4uzt)" fill-rule="nonzero" d="M25.04 73.317v14.405c-.623-.063-1.234-.13-1.836-.201-3.072-.355-6.122-.882-9.134-1.581v-14.5c1.92.46 4.077.87 6.424 1.217 1.426.238 2.927.464 4.546.66z" transform="translate(200.455 162.818)"/>
                    <path fill="url(#434uef28su)" fill-rule="nonzero" d="M36.78 74.263v14.136l-1.405-.025c-3.622-.088-7.11-.314-10.335-.652V73.317c.49.063.991.122 1.497.176 3.158.351 6.625.615 10.243.77z" transform="translate(200.455 162.818)"/>
                    <path fill="url(#21hf69a43v)" fill-rule="nonzero" d="M48.474 74.342V88.04l-.28.02-.602.046c-3.346.239-6.98.348-10.8.293V74.263c.636.029 1.28.05 1.924.07 3.4.114 6.684.114 9.758.01z" transform="translate(200.455 162.818)"/>
                    <path fill="url(#pclep2uzcw)" fill-rule="nonzero" d="M58.855 73.568v12.966c-3.42.754-6.889 1.258-10.381 1.51V74.342c.836-.025 1.635-.058 2.43-.096 2.898-.142 5.58-.372 7.95-.678z" transform="translate(200.455 162.818)"/>
                    <path fill="url(#pi8qfludsx)" fill-rule="nonzero" d="M65.375 72.356l-.347.096-.322.083-.765.18-.695.15-.66.13-.774.143-.808.133-.15.026c-.64.1-1.305.192-2 .28v12.965c.47-.104.917-.217 1.343-.334l.419-.117.267-.076.247-.075c.234-.071.46-.142.682-.218l.372-.125c.996-.33 1.949-.776 2.84-1.33 1.024-.66 1.59-1.389 1.606-2.154v-10.15c-.385.133-.807.263-1.255.393z" transform="translate(200.455 162.818)"/>
                    <path fill="url(#6fa4pe7hry)" fill-rule="nonzero" d="M20.494 72.657c-2.347-.348-4.505-.757-6.424-1.217-5.923-1.414-9.62-3.305-9.62-5.295v-.038c.012-.323.112-.637.289-.908.468-.778 1.518-1.497 3.044-2.145v4.483c-.008.067-.008.134 0 .201-.002.028-.002.056 0 .084.006.037.016.074.03.109.014.05.032.099.054.146.012.03.028.06.046.088.018.04.039.08.063.117l.02.03.097.137.105.126c.034.04.07.077.108.113.13.133.27.258.418.372l.172.125c.438.298.901.557 1.384.774l.335.15c1.246.522 2.53.951 3.84 1.285.326.087.66.175 1.003.259.904.217 1.874.418 2.928.631.707.13 1.397.251 2.108.373z" transform="translate(200.455 162.818)"/>
                    <path fill="url(#hkfq892btz)" fill-rule="nonzero" d="M15.697 101.917v11.618l-.172-.05-.468-.142-.15-.046-.373-.117-.569-.188-.54-.193-.18-.067-.443-.171-.171-.071-.351-.15-.214-.097c-.634-.282-1.239-.625-1.807-1.025l-.2-.15-.18-.15v-.022l-.075-.07-.076-.072c-.058-.058-.113-.113-.163-.171-.033-.032-.062-.067-.088-.105-.038-.04-.073-.083-.104-.13v-.025c-.025-.025-.046-.053-.063-.083l-.033-.05c-.053-.081-.1-.165-.143-.251 0-.026-.025-.059-.041-.088-.017-.03 0 0 0-.021-.017-.038-.03-.077-.042-.117-.021-.059-.038-.119-.05-.18-.01-.037-.016-.075-.021-.113-.004-.03-.004-.062 0-.092v-8.599c.527.121 1.07.238 1.635.351 1.514.318 3.229.594 5.082.837z" transform="translate(200.455 162.818)"/>
                    <path fill="url(#3k53kbob8A)" fill-rule="nonzero" d="M25.212 102.707v12.623l-.197-.025c-.335-.037-.665-.079-.991-.126l-.276-.038-1.08-.158c-1.338-.201-2.605-.419-3.784-.674l-.348-.075c-.418-.084-.782-.172-1.158-.264l-.565-.138-.548-.138-.568-.159v-11.618c1.031.134 2.1.253 3.207.36 2.008.192 4.1.338 6.308.43z" transform="translate(200.455 162.818)"/>
                    <path fill="url(#simd6fcs4B)" fill-rule="nonzero" d="M37.223 103.226v12.92h-.949c-.268 0-.531 0-.799-.026l-.786-.025-1.673-.08-.749-.041c-.497-.03-.991-.059-1.476-.096l-1.514-.13c-.473-.038-.945-.08-1.41-.126l-.811-.079c-.418-.046-.837-.088-1.255-.138l-.619-.075v-12.623c1.325.064 2.678.103 4.061.117 2.543.21 5.195.347 7.98.402z" transform="translate(200.455 162.818)"/>
                    <path fill="url(#zbk43sezfC)" fill-rule="nonzero" d="M49.285 102.933v12.92l-.836.058c-.49.033-.984.063-1.48.088l-1.293.058h-.213l-1.176.042-.953.025h-6.132v-12.898c.915.022 1.842.032 2.782.03 3.241 0 6.365-.114 9.301-.323z" transform="translate(200.455 162.818)"/>
                    <path fill="url(#g6xv5n2snD)" fill-rule="nonzero" d="M60.277 101.553v12.92h-.071l-.57.108-.664.117-.506.088-.644.109-.168.025-.982.146h-.042l-1.142.16h-.134c-.418.058-.87.108-1.313.158l-.674.075-1.183.122H52l-.69.062-.314.03c-.121 0-.238.02-.36.025l-.753.062-.51.038h-.088v-12.865c.987-.067 1.95-.146 2.89-.238 2.966-.285 5.697-.674 8.102-1.142z" transform="translate(200.455 162.818)"/>
                    <path fill="url(#zjt2yu48gE)" fill-rule="nonzero" d="M71.1 96.233v12.928c-.013.45-.182.883-.476 1.225-.753.97-2.392 1.87-4.722 2.66-1.323.44-2.67.81-4.032 1.108l-.836.18h-.105l-.623.126v-12.907c3.894-.757 6.947-1.732 8.783-2.836 1.28-.774 2.012-1.61 2.012-2.484z" transform="translate(200.455 162.818)"/>
                    <path stroke="#2B2B2A" stroke-width=".5" d="M65.877 124.058L65.877 124.581M3.752 111.691L3.752 112.034" transform="translate(200.455 162.818)"/>
                    <path fill="url(#kd77kb1rfF)" fill-rule="nonzero" d="M8.892 115.463v13.443c-3.258-1.05-5.165-2.347-5.19-3.764v-.034l.062-13.049c.305 1.284 2.154 2.443 5.128 3.404z" transform="translate(200.455 162.818)"/>
                    <path fill="url(#8mlg2iu2sG)" fill-rule="nonzero" d="M17.675 117.287v13.446c-2.975-.353-5.914-.964-8.783-1.827v-13.443c2.87.86 5.808 1.47 8.783 1.824z" transform="translate(200.455 162.818)"/>
                    <path fill="url(#8uxlb462qH)" fill-rule="nonzero" d="M28.859 118.132v13.446c-3.736-.086-7.465-.365-11.172-.836v-13.455c2.48.33 5.207.573 8.114.724h.021c.979.054 1.991.092 3.037.12z" transform="translate(200.455 162.818)"/>
                    <path fill="url(#pkv7sstzxI)" fill-rule="nonzero" d="M41.247 117.898v13.43c-2.041.129-4.183.221-6.332.259-2.092.037-4.107.025-6.069-.025v-13.43c1.962.05 3.994.063 6.069.025 2.17-.038 4.29-.126 6.332-.26z" transform="translate(200.455 162.818)"/>
                    <path fill="url(#7hs4amt13J)" fill-rule="nonzero" d="M52.698 116.576v13.446c-3.79.641-7.613 1.077-11.451 1.305v-13.43c.864-.052 1.716-.115 2.555-.188 3.225-.276 6.211-.656 8.896-1.133z" transform="translate(200.455 162.818)"/>
                    <path fill="url(#5qhwkop4uK)" fill-rule="nonzero" d="M61.004 114.468v13.446c-2.705.939-5.487 1.638-8.314 2.092v-13.43c2.828-.457 5.61-1.163 8.314-2.108z" transform="translate(200.455 162.818)"/>
                    <path fill="url(#b9m15l60uL)" fill-rule="nonzero" d="M65.877 113.038v11.02c0 1.389-1.786 2.715-4.873 3.856v-13.446c.29-.104.57-.213.837-.322 1.364-.297 2.711-.667 4.036-1.108z" transform="translate(200.455 162.818)"/>
                    <path stroke="#2B2B2A" stroke-width=".5" d="M21.698 88.889L21.698 88.822" transform="translate(200.455 162.818)"/>
                    <path fill="url(#j8o6hh1cfM)" fill-rule="nonzero" d="M1.602 84.422V98.04C.565 97.34 0 96.613 0 95.815V82.193c0 .782.565 1.53 1.602 2.229z" transform="translate(200.455 162.818)"/>
                    <path fill="url(#jljue0uy7N)" fill-rule="nonzero" d="M10.527 87.458v13.622c-.565-.113-1.108-.23-1.635-.351-3.258-.753-5.78-1.673-7.29-2.69V84.423c1.744 1.183 4.868 2.229 8.925 3.036z" transform="translate(200.455 162.818)"/>
                    <path fill="url(#6g2futrdkO)" fill-rule="nonzero" d="M21.698 88.889v13.622c-.953-.067-1.882-.147-2.794-.235-1.115-.103-2.184-.223-3.207-.36-1.853-.242-3.585-.518-5.17-.836V87.458c2.476.494 5.3.9 8.365 1.196.92.09 1.855.168 2.806.235z" transform="translate(200.455 162.818)"/>
                    <path fill="url(#msid5zwm4P)" fill-rule="nonzero" d="M33.555 89.194v13.618c-.811 0-1.635.025-2.463.025h-1.82c-1.394-.017-2.747-.056-4.06-.117-1.197-.05-2.368-.116-3.514-.197V88.89c.615.041 1.234.083 1.861.117 2.41.138 4.936.209 7.529.209.832 0 1.656-.009 2.467-.021z" transform="translate(200.455 162.818)"/>
                    <path fill="url(#mitwg97iqQ)" fill-rule="nonzero" d="M45.274 88.441v13.61c-.652.079-1.313.146-1.99.213-3.028.293-6.299.477-9.729.535V89.194c1.736-.03 3.43-.096 5.074-.188 1.643-.092 3.162-.21 4.655-.352.677-.067 1.342-.138 1.99-.213z" transform="translate(200.455 162.818)"/>
                    <path fill="url(#rjg0kor06R)" fill-rule="nonzero" d="M55.492 87.195v12.965c-3.35.901-6.767 1.533-10.218 1.89V88.442c1-.113 1.97-.243 2.928-.38 2.64-.206 5.094-.502 7.29-.866z" transform="translate(200.455 162.818)"/>
                    <path fill="url(#647ny4s0zS)" fill-rule="nonzero" d="M62.188 85.584V96.12c-.009.052-.021.102-.038.151-.029.107-.068.21-.117.31-.02.05-.046.097-.075.142-.09.157-.196.306-.314.443-.07.076-.142.155-.221.23-.912.896-2.59 1.728-4.86 2.456l-.653.2-.389.113V87.2c.578-.096 1.142-.197 1.673-.305l.577-.118.222-.046.628-.138.255-.058c.468-.105.916-.218 1.342-.335l.418-.117.268-.075.247-.075c.234-.072.46-.143.682-.218l.355-.13z" transform="translate(200.455 162.818)"/>
                    <path fill="url(#qt7oqwelsT)" fill-rule="nonzero" d="M18.428 58.876v13.408c-1.033-.2-2.004-.418-2.928-.631-.343-.084-.678-.172-1.004-.26-1.31-.333-2.593-.762-3.84-1.283l-.334-.151c-.483-.217-.946-.476-1.384-.774l-.172-.125c-.148-.114-.288-.239-.418-.372-.038-.036-.075-.074-.109-.113l-.104-.126-.096-.138-.021-.03c-.024-.036-.045-.076-.063-.116-.019-.028-.034-.057-.046-.088-.022-.047-.04-.096-.054-.146-.015-.035-.024-.072-.03-.11-.002-.027-.002-.055 0-.083-.008-.067-.008-.134 0-.2V54.993c-.004.048-.004.095 0 .143.006.04.016.079.03.117-.002.016-.002.033 0 .05.006.028.018.055.033.08.027.068.064.133.109.192.062.089.134.172.213.246.09.091.186.175.289.251.117.091.24.175.368.251.062.042.134.08.205.117 1.268.635 2.612 1.109 3.998 1.41l.573.138c.648.15 1.347.297 2.091.418l.523.096.494.088c.522.105 1.087.197 1.677.285z" transform="translate(200.455 162.818)"/>
                    <path fill="url(#byyaopr6kU)" fill-rule="nonzero" d="M31.096 60.03v13.894c-1.572-.126-3.095-.272-4.559-.418-2.154-.239-4.182-.523-6.043-.837-.711-.121-1.401-.242-2.066-.372V58.876c1.037.15 2.133.297 3.287.418l.945.1c.322.038.644.067.975.1l.983.093c.665.058 1.346.117 2.04.167l1.469.104h.025l.807.05.648.038c.506.038.987.063 1.49.084z" transform="translate(200.455 162.818)"/>
                    <path fill="url(#qai9lm579V)" fill-rule="nonzero" d="M42.99 60.227v14.22c-1.393 0-2.822-.025-4.286-.076-2.627-.079-5.174-.221-7.608-.418V60.03c.736.038 1.485.067 2.246.092.443 0 .895.033 1.347.042l1.183.03c.98.021 1.97.034 2.974.037 1.405-.004 2.79-.004 4.145-.004z" transform="translate(200.455 162.818)"/>
                    <path fill="url(#m1p82buk3W)" fill-rule="nonzero" d="M54.618 59.608v14.42c-1.188.097-2.43.176-3.714.239-2.51.121-5.144.18-7.913.163V60.227h.03c2.81-.046 5.499-.155 8.017-.318 1.242-.1 2.434-.193 3.58-.301z" transform="translate(200.455 162.818)"/>
                    <path fill="url(#pd6rqwg2eX)" fill-rule="nonzero" d="M63.94 58.282v14.425c-3.073.654-6.188 1.095-9.322 1.321v-14.42c.418-.034.836-.076 1.221-.118l.531-.054.544-.058.895-.105c.657-.075 1.288-.159 1.903-.247l1.142-.171h.096l.456-.076.272-.046.268-.046c.702-.13 1.367-.266 1.995-.405z" transform="translate(200.455 162.818)"/>
                    <path fill="url(#e9h1mawfkY)" fill-rule="nonzero" d="M69.967 55.312v14.153c-.029.933-1.23 1.782-3.346 2.51-.389.134-.811.263-1.254.385-.218.062-.44.121-.67.18l-.765.18V58.281c.36-.076.703-.16 1.037-.239l.448-.113c.418-.117.836-.234 1.234-.355.25-.084.49-.163.715-.247l.222-.088c.075-.025.146-.054.213-.083l.205-.084.192-.088c.389-.168.757-.382 1.096-.636.037-.025.072-.053.105-.083.051-.042.1-.086.146-.134.034-.031.066-.065.096-.1.036-.036.068-.076.096-.118l.042-.062c.027-.037.05-.077.071-.117V55.7c.02-.042.037-.085.05-.13.018-.05.03-.101.034-.154.013-.034.024-.07.033-.105z" transform="translate(200.455 162.818)"/>
                    <path fill="url(#o4urxbpbyZ)" fill-rule="nonzero" d="M43.773 56.451c8.36 0 16.044-2.263 15.274-4.063-.344-.805-2.848-.892-5.754-1.488-2.714-.557-5.484-.994-9.52-.994-8.36 0-15.137 1.465-15.137 3.272 0 1.808 6.777 3.273 15.137 3.273z" opacity=".424" transform="translate(200.455 162.818) rotate(-2 43.868 53.178)"/>
                    <path fill="#2B2B2A" d="M23.003 50.862c.057 1.249.866 2.337 2.045 2.752 8.942 3.14 18.687 3.14 27.63 0 1.24-.435 2.064-1.613 2.049-2.928v-.192c-.477-6.144-2.267-10.351-3.936-13.162-2.23-3.764-4.94-6.165-5.8-10.975-.332-1.918-.332-3.878 0-5.796.202-1.112.724-2.14 1.5-2.961 3.742-4.11 3.544-10.447-.446-14.315-3.99-3.868-10.332-3.868-14.322 0-3.99 3.868-4.188 10.205-.447 14.315.777.82 1.299 1.849 1.501 2.96.332 1.919.332 3.88 0 5.797-.861 4.81-3.571 7.228-5.8 10.975-1.673 2.81-3.455 7.018-3.936 13.162-.022.122-.034.245-.038.368z" transform="translate(200.455 162.818)"/>
                    <path fill="url(#v6kkpk0c8aa)" fill-rule="nonzero" d="M106.685 95.61c0 16.646-5.563 30.142-12.418 30.142-2.35 0-4.546-1.585-6.42-4.337-.949-1.424-1.745-2.943-2.375-4.534-1.278-3.217-2.192-6.567-2.727-9.987-.607-3.734-.908-7.51-.9-11.293v-.836c.03-3.9.398-7.79 1.1-11.627.594-3.382 1.587-6.681 2.957-9.829.542-1.224 1.19-2.398 1.937-3.509.631-.954 1.384-1.823 2.237-2.585 1.31-1.133 2.715-1.752 4.183-1.752 6.863.008 12.426 13.5 12.426 30.147z" transform="translate(200.455 162.818)"/>
                    <path fill="url(#y855rh3avab)" fill-rule="nonzero" d="M94.267 125.752h-12.84c-3.438 0-6.545-3.392-8.783-8.87h12.84c.621 1.588 1.408 3.108 2.346 4.533 1.89 2.752 4.087 4.337 6.437 4.337z" transform="translate(200.455 162.818)"/>
                    <path fill="url(#9pob7q2x7ac)" fill-rule="nonzero" d="M85.472 116.881h-12.84c-.85-2.11-1.528-4.285-2.029-6.503-.26-1.117-.493-2.28-.69-3.484h12.832c.535 3.42 1.45 6.77 2.727 9.987z" transform="translate(200.455 162.818)"/>
                    <path fill="url(#xo0031j7had)" fill-rule="nonzero" d="M82.745 106.894H69.913c-.61-3.733-.912-7.51-.903-11.293v-.836h12.84v.836c-.01 3.783.29 7.56.895 11.293z" transform="translate(200.455 162.818)"/>
                    <path fill="url(#swh76djzcae)" fill-rule="nonzero" d="M82.954 83.146c-.703 3.837-1.07 7.727-1.1 11.627H69.01c0-.351 0-.698.02-1.045.08-3.572.448-7.132 1.1-10.645l12.824.063z" transform="translate(200.455 162.818)"/>
                    <path fill="url(#3swod7r0baf)" fill-rule="nonzero" d="M85.91 73.317c-1.37 3.148-2.362 6.448-2.956 9.83l-12.82-.064c.59-3.359 1.573-6.636 2.928-9.766h12.849z" transform="translate(200.455 162.818)"/>
                    <path fill="url(#z5p3xv87lag)" fill-rule="nonzero" d="M90.085 67.224c-.854.762-1.606 1.63-2.238 2.584-.746 1.111-1.394 2.286-1.936 3.51H73.07c1.2-2.652 2.614-4.74 4.182-6.094h12.832z" transform="translate(200.455 162.818)"/>
                    <path fill="url(#hsczrasc1ah)" fill-rule="nonzero" d="M94.267 65.471c-1.468 0-2.873.62-4.182 1.753h-12.84c1.305-1.134 2.714-1.753 4.182-1.753h12.84z" transform="translate(200.455 162.818)"/>
                </g>
                <path fill="url(#ljazwq1byai)" fill-rule="nonzero" d="M114.99 110.26c-7.044-.745-14.148-.717-21.185.084.308 6.008 4.933 10.778 10.59 10.778 5.684 0 10.322-4.816 10.594-10.861zM131.698 53.72c-7.043-.745-14.147-.717-21.184.084.308 6.007 4.933 10.778 10.59 10.778 5.681 0 10.322-4.816 10.594-10.861z"/>
                <path fill="url(#6fakg35jeaj)" fill-rule="nonzero" d="M306.005 150.433L292.165 130.3 306.005 110.166 319.847 130.3z"/>
                <path fill="url(#tu1rn66h2ak)" fill-rule="nonzero" d="M294.046 105.936L306.005 88.538 317.965 105.936 306.005 123.334z"/>
            </g>
        </g>
    </g>
</svg>
