<svg xmlns="http://www.w3.org/2000/svg" width="1443" height="730" viewBox="0 0 1443 730">
    <defs>
        <linearGradient id="l9ykw77wba" x1="19.735%" x2="122.294%" y1="-19.765%" y2="121.605%">
            <stop offset="0%" stop-color="#FFA600"/>
            <stop offset="100%" stop-color="#FFDFCF"/>
        </linearGradient>
        <linearGradient id="1spkryp36b" x1="59.855%" x2="100%" y1="-56.549%" y2="104.928%">
            <stop offset="0%" stop-color="#ED441E"/>
            <stop offset="100%" stop-color="#FFA600"/>
            <stop offset="100%" stop-color="#E1B86C"/>
        </linearGradient>
    </defs>
    <g fill="none" fill-rule="evenodd">
        <g>
            <g transform="translate(-246 -2923) translate(246 2923)">
                <circle cx="119" cy="282" r="119" fill="url(#l9ykw77wba)" opacity=".554"/>
                <path fill="#FFA229" fill-rule="nonzero" d="M119 163c65.722 0 119 53.278 119 119 0 65.722-53.278 119-119 119C53.278 401 0 347.722 0 282c0-65.722 53.278-119 119-119zm0 1C53.83 164 1 216.83 1 282s52.83 118 118 118 118-52.83 118-118-52.83-118-118-118z" opacity=".553"/>
                <circle cx="672" cy="119" r="119" fill="url(#l9ykw77wba)" opacity=".554"/>
                <path fill="#FFA229" fill-rule="nonzero" d="M672 0c65.722 0 119 53.278 119 119 0 65.722-53.278 119-119 119-65.722 0-119-53.278-119-119C553 53.278 606.278 0 672 0zm0 1c-65.17 0-118 52.83-118 118s52.83 118 118 118 118-52.83 118-118S737.17 1 672 1z" opacity=".55"/>
                <g transform="translate(445 33)">
                    <circle cx="86" cy="86" r="85" fill="url(#1spkryp36b)" fill-opacity=".8" opacity=".596"/>
                    <path fill="#E75A2B" fill-rule="nonzero" d="M86 .5C38.78.5.5 38.78.5 86s38.28 85.5 85.5 85.5 85.5-38.28 85.5-85.5S133.22.5 86 .5zm0 1c46.668 0 84.5 37.832 84.5 84.5s-37.832 84.5-84.5 84.5S1.5 132.668 1.5 86 39.332 1.5 86 1.5z" opacity=".596"/>
                    <text fill="#2B2B2B" font-family="ModernEra-Medium, Modern Era" font-size="16" font-weight="400">
                        <tspan x="40.816" y="117">Exchange L2 </tspan> <tspan x="57.368" y="137">account</tspan>
                    </text>
                    <g transform="translate(52 26)">
                        <rect width="47" height="47" x="10" y="10" fill="#E75A2B" rx="11" transform="rotate(45 33.5 33.5)"/>
                        <g fill-rule="nonzero">
                            <path fill="#FFC55A" d="M20.668 10.727c.018.118.005.238-.038.35l-.895 2.106c-.088.227-.292.393-.536.435l-2.542.445c-.384.067-.75-.184-.818-.56-.015-.083-.015-.168.001-.25l.405-2.113c.056-.289.292-.512.588-.556l3.032-.438c.385-.057.745.203.803.581zm-1.834.738l-1.29.187c-.1.014-.178.089-.197.185l-.123.644c-.024.125.06.246.187.27.028.005.057.005.085 0l1.147-.2c.08-.014.145-.067.176-.14l.266-.63c.05-.118-.007-.253-.127-.301-.039-.016-.082-.022-.124-.015zm3.651-5.137c.015.112 0 .226-.04.331l-.862 2.124c-.092.236-.306.404-.56.44l-3.496.494c-.385.054-.743-.21-.798-.588-.01-.075-.009-.151.005-.226l.41-2.134c.056-.296.301-.522.606-.56l3.948-.483c.387-.047.74.222.787.602zm-2.209.687l-2.262.277c-.101.013-.183.088-.202.187l-.131.687c-.024.126.06.246.187.27.025.004.051.005.077.001l2.114-.3c.082-.011.151-.065.183-.14l.28-.664c.05-.118-.007-.253-.127-.302-.038-.015-.079-.02-.119-.016zM24.782.852c.01.136-.01.273-.059.4l-1.21 2.98c-.124.318-.416.544-.76.587l-6.344.798c-.516.065-.987-.293-1.053-.799-.012-.092-.01-.185.007-.277l.692-3.26c.074-.415.426-.728.854-.76l6.863-.518c.518-.04.97.341 1.01.85zm-2.709.899l-4.848.392-.362 1.828 4.777-.647c.163-.022.302-.127.367-.275l.38-.87c.068-.157-.006-.338-.165-.405-.047-.02-.098-.028-.149-.023z" transform="translate(23 22)"/>
                            <path fill="#FFF" d="M7.711 3.153H3.727c-.508 0-.944.358-1.032.85L.016 18.863c-.1.56.28 1.094.85 1.193.06.01.121.016.183.016h3.983c.509 0 .944-.358 1.033-.85l.807-4.47c.036-.197.21-.34.413-.34h2.56c.232 0 .42.184.42.412 0 .024-.002.048-.007.072l-.716 3.966c-.101.56.279 1.095.849 1.194.06.01.122.016.183.016h3.984c.509 0 .944-.358 1.032-.85l2.679-14.86c.101-.56-.28-1.094-.85-1.193-.06-.01-.121-.016-.182-.016h-3.984c-.508 0-.943.358-1.032.849l-.786 4.328c-.036.197-.21.34-.413.34h-2.56c-.231 0-.419-.185-.419-.412 0-.024.002-.049.007-.073l.694-3.822c.101-.56-.278-1.094-.849-1.194-.06-.01-.122-.016-.184-.016z" transform="translate(23 22)"/>
                        </g>
                    </g>
                </g>
                <g transform="translate(175 197)">
                    <circle cx="85" cy="85" r="85" fill="url(#1spkryp36b)" fill-opacity=".8" opacity=".596"/>
                    <path fill="#E75A2B" fill-rule="nonzero" d="M85-.5C37.78-.5-.5 37.78-.5 85s38.28 85.5 85.5 85.5 85.5-38.28 85.5-85.5S132.22-.5 85-.5zm0 1c46.668 0 84.5 37.832 84.5 84.5s-37.832 84.5-84.5 84.5S.5 131.668.5 85 38.332.5 85 .5z" opacity=".602"/>
                    <text fill="#2B2B2B" font-family="ModernEra-Medium, Modern Era" font-size="16" font-weight="400">
                        <tspan x="39.816" y="116">Exchange L2 </tspan> <tspan x="56.368" y="136">account</tspan>
                    </text>
                    <g transform="translate(51 25)">
                        <rect width="47" height="47" x="10" y="10" fill="#E75A2B" rx="11" transform="rotate(45 33.5 33.5)"/>
                        <g fill-rule="nonzero">
                            <path fill="#FFC55A" d="M20.668 10.727c.018.118.005.238-.038.35l-.895 2.106c-.088.227-.292.393-.536.435l-2.542.445c-.384.067-.75-.184-.818-.56-.015-.083-.015-.168.001-.25l.405-2.113c.056-.289.292-.512.588-.556l3.032-.438c.385-.057.745.203.803.581zm-1.834.738l-1.29.187c-.1.014-.178.089-.197.185l-.123.644c-.024.125.06.246.187.27.028.005.057.005.085 0l1.147-.2c.08-.014.145-.067.176-.14l.266-.63c.05-.118-.007-.253-.127-.301-.039-.016-.082-.022-.124-.015zm3.651-5.137c.015.112 0 .226-.04.331l-.862 2.124c-.092.236-.306.404-.56.44l-3.496.494c-.385.054-.743-.21-.798-.588-.01-.075-.009-.151.005-.226l.41-2.134c.056-.296.301-.522.606-.56l3.948-.483c.387-.047.74.222.787.602zm-2.209.687l-2.262.277c-.101.013-.183.088-.202.187l-.131.687c-.024.126.06.246.187.27.025.004.051.005.077.001l2.114-.3c.082-.011.151-.065.183-.14l.28-.664c.05-.118-.007-.253-.127-.302-.038-.015-.079-.02-.119-.016zM24.782.852c.01.136-.01.273-.059.4l-1.21 2.98c-.124.318-.416.544-.76.587l-6.344.798c-.516.065-.987-.293-1.053-.799-.012-.092-.01-.185.007-.277l.692-3.26c.074-.415.426-.728.854-.76l6.863-.518c.518-.04.97.341 1.01.85zm-2.709.899l-4.848.392-.362 1.828 4.777-.647c.163-.022.302-.127.367-.275l.38-.87c.068-.157-.006-.338-.165-.405-.047-.02-.098-.028-.149-.023z" transform="translate(23 22)"/>
                            <path fill="#FFF" d="M7.711 3.153H3.727c-.508 0-.944.358-1.032.85L.016 18.863c-.1.56.28 1.094.85 1.193.06.01.121.016.183.016h3.983c.509 0 .944-.358 1.033-.85l.807-4.47c.036-.197.21-.34.413-.34h2.56c.232 0 .42.184.42.412 0 .024-.002.048-.007.072l-.716 3.966c-.101.56.279 1.095.849 1.194.06.01.122.016.183.016h3.984c.509 0 .944-.358 1.032-.85l2.679-14.86c.101-.56-.28-1.094-.85-1.193-.06-.01-.121-.016-.182-.016h-3.984c-.508 0-.943.358-1.032.849l-.786 4.328c-.036.197-.21.34-.413.34h-2.56c-.231 0-.419-.185-.419-.412 0-.024.002-.049.007-.073l.694-3.822c.101-.56-.278-1.094-.849-1.194-.06-.01-.122-.016-.184-.016z" transform="translate(23 22)"/>
                        </g>
                    </g>
                </g>
                <g transform="translate(445 353)">
                    <circle cx="86" cy="86" r="85" fill="url(#1spkryp36b)" fill-opacity=".8" opacity=".596"/>
                    <path fill="#E75A2B" fill-rule="nonzero" d="M86 .5C38.78.5.5 38.78.5 86s38.28 85.5 85.5 85.5 85.5-38.28 85.5-85.5S133.22.5 86 .5zm0 1c46.668 0 84.5 37.832 84.5 84.5s-37.832 84.5-84.5 84.5S1.5 132.668 1.5 86 39.332 1.5 86 1.5z" opacity=".597"/>
                    <text fill="#2B2B2B" font-family="ModernEra-Medium, Modern Era" font-size="16" font-weight="400">
                        <tspan x="51.856" y="117">Trader L2 </tspan> <tspan x="65.728" y="137">wallet</tspan>
                    </text>
                    <g transform="translate(52 26)">
                        <rect width="47" height="47" x="10" y="10" fill="#E75A2B" rx="11" transform="rotate(45 33.5 33.5)"/>
                        <g fill-rule="nonzero">
                            <path fill="#FFC55A" d="M20.668 10.727c.018.118.005.238-.038.35l-.895 2.106c-.088.227-.292.393-.536.435l-2.542.445c-.384.067-.75-.184-.818-.56-.015-.083-.015-.168.001-.25l.405-2.113c.056-.289.292-.512.588-.556l3.032-.438c.385-.057.745.203.803.581zm-1.834.738l-1.29.187c-.1.014-.178.089-.197.185l-.123.644c-.024.125.06.246.187.27.028.005.057.005.085 0l1.147-.2c.08-.014.145-.067.176-.14l.266-.63c.05-.118-.007-.253-.127-.301-.039-.016-.082-.022-.124-.015zm3.651-5.137c.015.112 0 .226-.04.331l-.862 2.124c-.092.236-.306.404-.56.44l-3.496.494c-.385.054-.743-.21-.798-.588-.01-.075-.009-.151.005-.226l.41-2.134c.056-.296.301-.522.606-.56l3.948-.483c.387-.047.74.222.787.602zm-2.209.687l-2.262.277c-.101.013-.183.088-.202.187l-.131.687c-.024.126.06.246.187.27.025.004.051.005.077.001l2.114-.3c.082-.011.151-.065.183-.14l.28-.664c.05-.118-.007-.253-.127-.302-.038-.015-.079-.02-.119-.016zM24.782.852c.01.136-.01.273-.059.4l-1.21 2.98c-.124.318-.416.544-.76.587l-6.344.798c-.516.065-.987-.293-1.053-.799-.012-.092-.01-.185.007-.277l.692-3.26c.074-.415.426-.728.854-.76l6.863-.518c.518-.04.97.341 1.01.85zm-2.709.899l-4.848.392-.362 1.828 4.777-.647c.163-.022.302-.127.367-.275l.38-.87c.068-.157-.006-.338-.165-.405-.047-.02-.098-.028-.149-.023z" transform="translate(23 22)"/>
                            <path fill="#FFF" d="M7.711 3.153H3.727c-.508 0-.944.358-1.032.85L.016 18.863c-.1.56.28 1.094.85 1.193.06.01.121.016.183.016h3.983c.509 0 .944-.358 1.033-.85l.807-4.47c.036-.197.21-.34.413-.34h2.56c.232 0 .42.184.42.412 0 .024-.002.048-.007.072l-.716 3.966c-.101.56.279 1.095.849 1.194.06.01.122.016.183.016h3.984c.509 0 .944-.358 1.032-.85l2.679-14.86c.101-.56-.28-1.094-.85-1.193-.06-.01-.121-.016-.182-.016h-3.984c-.508 0-.943.358-1.032.849l-.786 4.328c-.036.197-.21.34-.413.34h-2.56c-.231 0-.419-.185-.419-.412 0-.024.002-.049.007-.073l.694-3.822c.101-.56-.278-1.094-.849-1.194-.06-.01-.122-.016-.184-.016z" transform="translate(23 22)"/>
                        </g>
                    </g>
                </g>
                <g transform="translate(730 354)">
                    <circle cx="85" cy="85" r="85" fill="#B3C4E3" opacity=".303"/>
                    <path fill="#7189B4" fill-rule="nonzero" d="M85 0c46.944 0 85 38.056 85 85s-38.056 85-85 85S0 131.944 0 85 38.056 0 85 0zm0 1C38.608 1 1 38.608 1 85s37.608 84 84 84 84-37.608 84-84S131.392 1 85 1z" opacity=".3"/>
                    <text fill="#2B2B2B" font-family="ModernEra-Medium, Modern Era" font-size="16" font-weight="400">
                        <tspan x="55.432" y="125">L1 wallet</tspan>
                    </text>
                </g>
                <g fill-rule="nonzero">
                    <path fill="#DAE2F1" d="M47.44 8.14V4.92c-.06-1.998-.963-3.101-1.71-3.675-1.798-1.38-4.205-.939-4.456-.887L4.14 7.558v.001C1.784 8.006 0 10.032 0 12.46v27.797c0 2.754 2.296 4.994 5.12 4.994h39.76c2.824 0 5.12-2.24 5.12-4.994V12.46c0-1.844-1.032-3.453-2.56-4.318z" transform="translate(790 399.75)"/>
                    <path fill="#2B2B2B" d="M39 26.75c0 .828-.672 1.5-1.5 1.5s-1.5-.672-1.5-1.5.672-1.5 1.5-1.5 1.5.672 1.5 1.5z" transform="translate(790 399.75)"/>
                    <path fill="#2B2B2B" d="M46 22.62H35.717c-2.393 0-4.334 1.892-4.334 4.227 0 2.335 1.94 4.227 4.334 4.227H46v9.518c0 .915-.762 1.658-1.7 1.658H4.7c-.937 0-1.7-.743-1.7-1.658V12.908c0-.914.763-1.658 1.7-1.658h39.6c.938 0 1.7.744 1.7 1.658v9.712zM41.921 3.291c.175-.037 1.172-.142 1.668.248.256.202.394.602.411 1.14V7.25H22l19.921-3.959z" transform="translate(790 399.75)"/>
                </g>
                <g transform="translate(1271 196)">
                    <path fill="#E75A2B" fill-rule="nonzero" d="M86 .5C38.78.5.5 38.78.5 86s38.28 85.5 85.5 85.5 85.5-38.28 85.5-85.5S133.22.5 86 .5zm0 1c46.668 0 84.5 37.832 84.5 84.5s-37.832 84.5-84.5 84.5S1.5 132.668 1.5 86 39.332 1.5 86 1.5z" opacity=".6"/>
                    <circle cx="86" cy="86" r="85" fill="url(#1spkryp36b)" fill-opacity=".8" opacity=".596"/>
                    <text fill="#2B2B2B" font-family="ModernEra-Medium, Modern Era" font-size="16" font-weight="400">
                        <tspan x="54.792" y="128">L2 wallet</tspan>
                    </text>
                    <g transform="translate(52 37)">
                        <rect width="47" height="47" x="10" y="10" fill="#E75A2B" rx="11" transform="rotate(45 33.5 33.5)"/>
                        <g fill-rule="nonzero">
                            <path fill="#FFC55A" d="M20.668 10.727c.018.118.005.238-.038.35l-.895 2.106c-.088.227-.292.393-.536.435l-2.542.445c-.384.067-.75-.184-.818-.56-.015-.083-.015-.168.001-.25l.405-2.113c.056-.289.292-.512.588-.556l3.032-.438c.385-.057.745.203.803.581zm-1.834.738l-1.29.187c-.1.014-.178.089-.197.185l-.123.644c-.024.125.06.246.187.27.028.005.057.005.085 0l1.147-.2c.08-.014.145-.067.176-.14l.266-.63c.05-.118-.007-.253-.127-.301-.039-.016-.082-.022-.124-.015zm3.651-5.137c.015.112 0 .226-.04.331l-.862 2.124c-.092.236-.306.404-.56.44l-3.496.494c-.385.054-.743-.21-.798-.588-.01-.075-.009-.151.005-.226l.41-2.134c.056-.296.301-.522.606-.56l3.948-.483c.387-.047.74.222.787.602zm-2.209.687l-2.262.277c-.101.013-.183.088-.202.187l-.131.687c-.024.126.06.246.187.27.025.004.051.005.077.001l2.114-.3c.082-.011.151-.065.183-.14l.28-.664c.05-.118-.007-.253-.127-.302-.038-.015-.079-.02-.119-.016zM24.782.852c.01.136-.01.273-.059.4l-1.21 2.98c-.124.318-.416.544-.76.587l-6.344.798c-.516.065-.987-.293-1.053-.799-.012-.092-.01-.185.007-.277l.692-3.26c.074-.415.426-.728.854-.76l6.863-.518c.518-.04.97.341 1.01.85zm-2.709.899l-4.848.392-.362 1.828 4.777-.647c.163-.022.302-.127.367-.275l.38-.87c.068-.157-.006-.338-.165-.405-.047-.02-.098-.028-.149-.023z" transform="translate(23 22)"/>
                            <path fill="#FFF" d="M7.711 3.153H3.727c-.508 0-.944.358-1.032.85L.016 18.863c-.1.56.28 1.094.85 1.193.06.01.121.016.183.016h3.983c.509 0 .944-.358 1.033-.85l.807-4.47c.036-.197.21-.34.413-.34h2.56c.232 0 .42.184.42.412 0 .024-.002.048-.007.072l-.716 3.966c-.101.56.279 1.095.849 1.194.06.01.122.016.183.016h3.984c.509 0 .944-.358 1.032-.85l2.679-14.86c.101-.56-.28-1.094-.85-1.193-.06-.01-.121-.016-.182-.016h-3.984c-.508 0-.943.358-1.032.849l-.786 4.328c-.036.197-.21.34-.413.34h-2.56c-.231 0-.419-.185-.419-.412 0-.024.002-.049.007-.073l.694-3.822c.101-.56-.278-1.094-.849-1.194-.06-.01-.122-.016-.184-.016z" transform="translate(23 22)"/>
                        </g>
                    </g>
                </g>
                <g transform="translate(1000 196)">
                    <path fill="#E75A2B" fill-rule="nonzero" d="M86 .5C38.78.5.5 38.78.5 86s38.28 85.5 85.5 85.5 85.5-38.28 85.5-85.5S133.22.5 86 .5zm0 1c46.668 0 84.5 37.832 84.5 84.5s-37.832 84.5-84.5 84.5S1.5 132.668 1.5 86 39.332 1.5 86 1.5z" opacity=".6"/>
                    <circle cx="86" cy="86" r="85" fill="url(#1spkryp36b)" fill-opacity=".8" opacity=".596"/>
                    <text fill="#2B2B2B" font-family="ModernEra-Medium, Modern Era" font-size="16" font-weight="400">
                        <tspan x="54.792" y="128">L2 wallet</tspan>
                    </text>
                    <g transform="translate(52 37)">
                        <rect width="47" height="47" x="10" y="10" fill="#E75A2B" rx="11" transform="rotate(45 33.5 33.5)"/>
                        <g fill-rule="nonzero">
                            <path fill="#FFC55A" d="M20.668 10.727c.018.118.005.238-.038.35l-.895 2.106c-.088.227-.292.393-.536.435l-2.542.445c-.384.067-.75-.184-.818-.56-.015-.083-.015-.168.001-.25l.405-2.113c.056-.289.292-.512.588-.556l3.032-.438c.385-.057.745.203.803.581zm-1.834.738l-1.29.187c-.1.014-.178.089-.197.185l-.123.644c-.024.125.06.246.187.27.028.005.057.005.085 0l1.147-.2c.08-.014.145-.067.176-.14l.266-.63c.05-.118-.007-.253-.127-.301-.039-.016-.082-.022-.124-.015zm3.651-5.137c.015.112 0 .226-.04.331l-.862 2.124c-.092.236-.306.404-.56.44l-3.496.494c-.385.054-.743-.21-.798-.588-.01-.075-.009-.151.005-.226l.41-2.134c.056-.296.301-.522.606-.56l3.948-.483c.387-.047.74.222.787.602zm-2.209.687l-2.262.277c-.101.013-.183.088-.202.187l-.131.687c-.024.126.06.246.187.27.025.004.051.005.077.001l2.114-.3c.082-.011.151-.065.183-.14l.28-.664c.05-.118-.007-.253-.127-.302-.038-.015-.079-.02-.119-.016zM24.782.852c.01.136-.01.273-.059.4l-1.21 2.98c-.124.318-.416.544-.76.587l-6.344.798c-.516.065-.987-.293-1.053-.799-.012-.092-.01-.185.007-.277l.692-3.26c.074-.415.426-.728.854-.76l6.863-.518c.518-.04.97.341 1.01.85zm-2.709.899l-4.848.392-.362 1.828 4.777-.647c.163-.022.302-.127.367-.275l.38-.87c.068-.157-.006-.338-.165-.405-.047-.02-.098-.028-.149-.023z" transform="translate(23 22)"/>
                            <path fill="#FFF" d="M7.711 3.153H3.727c-.508 0-.944.358-1.032.85L.016 18.863c-.1.56.28 1.094.85 1.193.06.01.121.016.183.016h3.983c.509 0 .944-.358 1.033-.85l.807-4.47c.036-.197.21-.34.413-.34h2.56c.232 0 .42.184.42.412 0 .024-.002.048-.007.072l-.716 3.966c-.101.56.279 1.095.849 1.194.06.01.122.016.183.016h3.984c.509 0 .944-.358 1.032-.85l2.679-14.86c.101-.56-.28-1.094-.85-1.193-.06-.01-.121-.016-.182-.016h-3.984c-.508 0-.943.358-1.032.849l-.786 4.328c-.036.197-.21.34-.413.34h-2.56c-.231 0-.419-.185-.419-.412 0-.024.002-.049.007-.073l.694-3.822c.101-.56-.278-1.094-.849-1.194-.06-.01-.122-.016-.184-.016z" transform="translate(23 22)"/>
                        </g>
                    </g>
                </g>
                <g transform="translate(729 33)">
                    <circle cx="86" cy="86" r="85" fill="url(#1spkryp36b)" fill-opacity=".8" opacity=".596"/>
                    <path fill="#E75A2B" fill-rule="nonzero" d="M86 .5C38.78.5.5 38.78.5 86s38.28 85.5 85.5 85.5 85.5-38.28 85.5-85.5S133.22.5 86 .5zm0 1c46.668 0 84.5 37.832 84.5 84.5s-37.832 84.5-84.5 84.5S1.5 132.668 1.5 86 39.332 1.5 86 1.5z" opacity=".601"/>
                    <text fill="#2B2B2B" font-family="ModernEra-Medium, Modern Era" font-size="16" font-weight="400">
                        <tspan x="51.856" y="117">Trader L2 </tspan> <tspan x="57.368" y="137">account</tspan>
                    </text>
                    <g transform="translate(52 26)">
                        <rect width="47" height="47" x="10" y="10" fill="#E75A2B" rx="11" transform="rotate(45 33.5 33.5)"/>
                        <g fill-rule="nonzero">
                            <path fill="#FFC55A" d="M20.668 10.727c.018.118.005.238-.038.35l-.895 2.106c-.088.227-.292.393-.536.435l-2.542.445c-.384.067-.75-.184-.818-.56-.015-.083-.015-.168.001-.25l.405-2.113c.056-.289.292-.512.588-.556l3.032-.438c.385-.057.745.203.803.581zm-1.834.738l-1.29.187c-.1.014-.178.089-.197.185l-.123.644c-.024.125.06.246.187.27.028.005.057.005.085 0l1.147-.2c.08-.014.145-.067.176-.14l.266-.63c.05-.118-.007-.253-.127-.301-.039-.016-.082-.022-.124-.015zm3.651-5.137c.015.112 0 .226-.04.331l-.862 2.124c-.092.236-.306.404-.56.44l-3.496.494c-.385.054-.743-.21-.798-.588-.01-.075-.009-.151.005-.226l.41-2.134c.056-.296.301-.522.606-.56l3.948-.483c.387-.047.74.222.787.602zm-2.209.687l-2.262.277c-.101.013-.183.088-.202.187l-.131.687c-.024.126.06.246.187.27.025.004.051.005.077.001l2.114-.3c.082-.011.151-.065.183-.14l.28-.664c.05-.118-.007-.253-.127-.302-.038-.015-.079-.02-.119-.016zM24.782.852c.01.136-.01.273-.059.4l-1.21 2.98c-.124.318-.416.544-.76.587l-6.344.798c-.516.065-.987-.293-1.053-.799-.012-.092-.01-.185.007-.277l.692-3.26c.074-.415.426-.728.854-.76l6.863-.518c.518-.04.97.341 1.01.85zm-2.709.899l-4.848.392-.362 1.828 4.777-.647c.163-.022.302-.127.367-.275l.38-.87c.068-.157-.006-.338-.165-.405-.047-.02-.098-.028-.149-.023z" transform="translate(23 22)"/>
                            <path fill="#FFF" d="M7.711 3.153H3.727c-.508 0-.944.358-1.032.85L.016 18.863c-.1.56.28 1.094.85 1.193.06.01.121.016.183.016h3.983c.509 0 .944-.358 1.033-.85l.807-4.47c.036-.197.21-.34.413-.34h2.56c.232 0 .42.184.42.412 0 .024-.002.048-.007.072l-.716 3.966c-.101.56.279 1.095.849 1.194.06.01.122.016.183.016h3.984c.509 0 .944-.358 1.032-.85l2.679-14.86c.101-.56-.28-1.094-.85-1.193-.06-.01-.121-.016-.182-.016h-3.984c-.508 0-.943.358-1.032.849l-.786 4.328c-.036.197-.21.34-.413.34h-2.56c-.231 0-.419-.185-.419-.412 0-.024.002-.049.007-.073l.694-3.822c.101-.56-.278-1.094-.849-1.194-.06-.01-.122-.016-.184-.016z" transform="translate(23 22)"/>
                        </g>
                    </g>
                </g>
                <g fill="#2B2B2B">
                    <text font-family="ModernEra-Bold, Modern Era" font-size="48" font-weight="bold" transform="translate(89 250)">
                        <tspan x="0" y="48">EX</tspan>
                    </text>
                    <text font-family="ModernEra-Medium, Modern Era" font-size="20" font-weight="400" transform="translate(89 250)">
                        <tspan x="23" y="64">A</tspan>
                    </text>
                </g>
                <g fill="#2B2B2B">
                    <text font-family="ModernEra-Bold, Modern Era" font-size="48" font-weight="bold" transform="translate(642 87)">
                        <tspan x="0" y="48">EX</tspan>
                    </text>
                    <text font-family="ModernEra-Medium, Modern Era" font-size="20" font-weight="400" transform="translate(642 87)">
                        <tspan x="23" y="64">B</tspan>
                    </text>
                </g>
                <g>
                    <text fill="#778499" font-family="ModernEra-Regular, Modern Era" font-size="16" transform="translate(618 695)">
                        <tspan x="47.432" y="22">Arbitrage and settlements</tspan>
                    </text>
                    <g fill="#FF7778" transform="translate(618 695)">
                        <circle cx="15" cy="15" r="15"/>
                    </g>
                </g>
                <g>
                    <text fill="#778499" font-family="ModernEra-Regular, Modern Era" font-size="16" transform="translate(938 695)">
                        <tspan x="46" y="22">Deposit and withdrawals</tspan>
                    </text>
                    <g fill="#FFB94B" transform="translate(938 695)">
                        <circle cx="15" cy="15" r="15"/>
                    </g>
                </g>
                <g transform="translate(1244 695)">
                    <text fill="#778499" font-family="ModernEra-Regular, Modern Era" font-size="16">
                        <tspan x="46" y="22">P2P Payments</tspan>
                    </text>
                    <circle cx="15" cy="15" r="15" fill="#8880E3"/>
                </g>
                <path fill="#D7DCEA" fill-rule="nonzero" d="M1394.5 633.5L1394.5 634.5 33.5 634.5 33.5 633.5z"/>
                <path fill="#FF7778" fill-rule="nonzero" d="M411.273 201.637l.051.074 4.545 7.975c.18.314-.025.699-.367.743l-.081.004-9.175-.257c-.276-.008-.494-.238-.486-.514.007-.245.19-.444.424-.48l.09-.005 7.623.212c-.019-.113.001-.233.065-.34.064-.106.161-.18.27-.216l-3.776-6.627c-.122-.213-.07-.478.112-.63l.074-.052c.214-.121.479-.069.63.113zm-3.476 3.12l.522.319.526.32 2.373 1.424c.237.142.313.45.171.686-.126.21-.383.295-.604.211l-.082-.04-2.375-1.424-1.054-.644c-.235-.144-.309-.452-.165-.687.144-.236.452-.31.688-.166zm-6.77-4.244c1.061.684 2.185 1.397 3.372 2.14.234.147.305.455.158.69-.146.233-.455.304-.689.158-1.19-.746-2.318-1.461-3.383-2.147-.232-.15-.299-.46-.149-.692.15-.232.459-.299.691-.15zm-6.616-4.455c.985.703 2.079 1.458 3.28 2.264.229.154.29.464.136.694-.154.229-.464.29-.694.136-1.208-.81-2.31-1.57-3.303-2.28-.225-.161-.277-.473-.117-.698.16-.225.473-.277.698-.116zm-6.277-4.903c1.02.858 2.051 1.697 3.09 2.513.218.17.256.485.085.702-.17.217-.485.255-.702.085-1.048-.824-2.087-1.67-3.116-2.535-.212-.177-.24-.493-.061-.704.177-.211.493-.239.704-.061zm-5.94-5.32c.962.915 1.938 1.817 2.928 2.704.205.184.223.5.038.706-.184.206-.5.223-.706.039-.997-.894-1.98-1.802-2.949-2.724-.2-.19-.207-.507-.017-.707.19-.2.507-.208.707-.018zm-5.61-5.662c.898.96 1.82 1.92 2.764 2.871.194.197.193.513-.003.708-.197.194-.513.192-.708-.004-.95-.959-1.879-1.924-2.784-2.892-.188-.202-.178-.518.024-.707.202-.188.518-.178.707.024zm-5.267-5.981c.814.986 1.679 2 2.586 3.03.183.207.163.523-.044.705-.207.183-.523.163-.706-.044-.915-1.038-1.786-2.06-2.607-3.055-.176-.213-.146-.528.067-.703.213-.176.528-.146.704.067zm-4.89-6.287c.812 1.1 1.618 2.161 2.408 3.179.17.218.13.532-.088.701-.218.17-.532.13-.702-.088-.795-1.024-1.605-2.092-2.423-3.197-.164-.222-.117-.535.105-.7.222-.164.535-.117.7.105zm-4.6-6.527c.742 1.108 1.496 2.204 2.26 3.287.158.225.104.537-.121.696-.226.16-.538.105-.697-.12-.768-1.09-1.526-2.192-2.273-3.306-.154-.23-.092-.54.137-.694.23-.153.54-.092.694.137zm-4.27-6.732c.677 1.133 1.375 2.264 2.092 3.394.147.233.078.542-.155.69-.233.148-.542.079-.69-.154-.721-1.137-1.423-2.277-2.105-3.417-.141-.237-.064-.544.173-.686.237-.141.544-.064.686.173zm-3.878-6.966c.6 1.164 1.227 2.335 1.883 3.51.134.242.048.547-.193.681s-.546.048-.68-.193c-.661-1.185-1.295-2.366-1.9-3.54-.126-.246-.029-.547.217-.674.245-.126.547-.03.673.216zm-3.33-7.221c.47 1.176.925 2.244 1.367 3.203l.207.445c.117.25.01.548-.241.664-.25.117-.548.01-.665-.24l-.209-.45c-.45-.976-.913-2.06-1.387-3.252-.103-.256.022-.547.279-.65.256-.102.547.023.65.28zm-2.688-7.502c.439 1.336.868 2.594 1.288 3.774.093.26-.043.546-.303.639-.26.092-.546-.044-.639-.304-.423-1.188-.855-2.453-1.296-3.797-.086-.262.057-.545.32-.631.262-.086.544.057.63.32zm-2.356-7.629c.389 1.328.771 2.603 1.148 3.825.081.263-.067.543-.33.625-.265.08-.545-.067-.626-.331-.378-1.226-.762-2.505-1.152-3.838-.077-.265.075-.542.34-.62.265-.078.542.074.62.34zm-2.492-8.452l.067.056 6.492 6.49c.195.195.195.511 0 .706-.174.174-.443.193-.638.058l-.07-.057-5.142-5.141.7 2.496c.075.266-.08.542-.346.616-.237.067-.481-.049-.585-.262l-.032-.084-.699-2.497-1.722 7.065c-.059.238-.279.395-.515.38l-.09-.013c-.238-.058-.394-.278-.38-.515l.013-.09 2.175-8.917c.085-.35.493-.489.772-.291z" transform="rotate(96 377.894 163.61)"/>
                <path fill="#8880E3" fill-rule="nonzero" d="M1270.151 239.2l.076.05 7.175 5.724c.281.224.236.653-.06.823l-.08.037-8.617 3.16c-.26.095-.547-.038-.642-.297-.084-.23.011-.483.216-.604l.081-.038 7.783-2.854-6.48-5.17c-.192-.153-.241-.418-.129-.627l.05-.075c.153-.192.419-.241.627-.129zm-.89 4.395l.09.007 3.949.64c.272.045.457.302.413.574-.04.243-.246.416-.483.42l-.09-.006-3.949-.641c-.272-.045-.457-.301-.413-.574.034-.212.197-.371.396-.41l.087-.01zm-7.77-1.675l.088.016c1.123.3 2.412.603 3.868.909.27.057.443.322.386.592-.057.27-.322.443-.592.387-1.472-.31-2.779-.617-3.92-.922-.267-.072-.425-.346-.354-.613.055-.207.234-.349.435-.368h.088zm-7.502-2.388c1.253.44 2.513.863 3.778 1.266.264.083.409.365.325.628-.083.263-.365.408-.628.325-1.275-.406-2.544-.832-3.807-1.276-.26-.092-.397-.377-.306-.638.092-.26.378-.397.638-.305zm-7.44-2.863c1.222.51 2.455 1.005 3.7 1.484.257.1.386.389.287.647-.1.257-.389.386-.647.287-1.254-.483-2.495-.982-3.725-1.496-.255-.106-.375-.399-.269-.654.107-.254.4-.375.654-.268zm-7.272-3.268c1.188.571 2.39 1.13 3.615 1.682.252.113.364.41.251.661-.113.252-.409.364-.66.251-1.235-.555-2.444-1.118-3.64-1.693-.248-.12-.353-.418-.233-.667.12-.249.418-.354.667-.234zm-7.117-3.613c.192.102.383.203.575.303 1.594.834 2.03 1.06 2.967 1.539.246.125.344.426.219.672-.126.246-.427.344-.673.218l-.603-.308-.28-.144c-.513-.264-1.06-.55-2.094-1.091l-.58-.306c-.244-.13-.337-.432-.207-.676.13-.244.432-.337.676-.207zm-6.916-3.975c1.14.705 2.282 1.387 3.42 2.042.24.137.322.443.185.682-.138.24-.444.322-.683.184-1.148-.66-2.298-1.346-3.449-2.058-.234-.145-.307-.453-.162-.688.146-.235.454-.308.689-.162zm-6.643-4.391c1.093.77 2.191 1.519 3.292 2.247.23.152.294.462.141.693-.152.23-.462.293-.692.14-1.11-.733-2.215-1.487-3.317-2.263-.225-.159-.28-.47-.12-.697.158-.225.47-.28.696-.12zm-6.384-4.772c1.045.827 2.099 1.638 3.16 2.431.22.166.266.479.1.7-.165.221-.478.266-.7.101-1.067-.798-2.128-1.615-3.18-2.449-.217-.171-.254-.486-.082-.702.171-.216.486-.253.702-.081zm-6.117-5.13c.994.882 2 1.75 3.018 2.603.211.177.239.492.061.704-.177.212-.492.24-.704.062-1.024-.86-2.037-1.733-3.039-2.622-.207-.183-.225-.5-.042-.706.183-.206.5-.225.706-.042zm-5.806-5.45c.941.935 1.898 1.858 2.867 2.768.202.19.212.505.023.707-.19.201-.506.211-.707.022-.977-.916-1.94-1.846-2.888-2.788-.196-.194-.197-.51-.002-.707.194-.196.511-.197.707-.002zm-5.5-5.79c.883.987 1.784 1.963 2.7 2.928.19.2.183.517-.017.707-.2.19-.517.182-.707-.018-.924-.973-1.831-1.956-2.721-2.95-.185-.206-.167-.522.039-.706.205-.184.521-.167.706.039zm-5.135-6.1c.82 1.038 1.66 2.068 2.52 3.089.177.21.15.526-.06.704-.212.178-.528.15-.705-.06-.866-1.029-1.713-2.067-2.54-3.114-.17-.216-.134-.53.083-.702.217-.171.531-.134.702.083zm-4.747-6.404c.58.823 1.177 1.657 1.792 2.504.177.244.356.489.536.733.164.222.117.535-.105.699-.222.164-.535.117-.7-.106-.18-.246-.361-.492-.54-.739-.618-.85-1.218-1.688-1.8-2.515-.16-.225-.106-.537.12-.696.225-.16.537-.106.697.12zm-4.456-6.618c.697 1.09 1.426 2.2 2.19 3.333.154.229.094.54-.135.694-.23.154-.54.094-.695-.135-.767-1.14-1.501-2.256-2.203-3.353-.149-.233-.08-.542.152-.69.233-.15.542-.082.69.151zm-4.108-6.835c.632 1.13 1.299 2.276 2.002 3.446.143.236.066.543-.17.686-.237.142-.544.066-.686-.17-.71-1.18-1.381-2.335-2.018-3.473-.135-.24-.05-.545.191-.68s.546-.05.681.191zm-3.644-7.08c.554 1.182 1.137 2.369 1.757 3.571.126.246.03.547-.216.674-.245.126-.547.03-.673-.216-.626-1.214-1.214-2.411-1.774-3.605-.117-.25-.009-.548.241-.665.25-.118.548-.01.665.24zm-3.116-7.331c.501 1.292.988 2.498 1.495 3.694.108.254-.011.547-.265.655-.255.108-.548-.011-.656-.265-.51-1.206-1.002-2.422-1.506-3.723-.1-.257.028-.547.285-.647.258-.1.547.028.647.286zm-2.78-7.486c.186.532.374 1.056.566 1.57l.165.444.641 1.736c.096.259-.036.547-.295.642-.259.096-.547-.036-.642-.295l-.642-1.735-.165-.443c-.193-.521-.384-1.05-.572-1.59-.091-.26.046-.545.307-.636.26-.092.546.046.637.307zm-2.32-7.621c.347 1.31.71 2.589 1.086 3.831.08.265-.07.544-.333.624-.265.08-.544-.07-.624-.334-.38-1.254-.746-2.544-1.095-3.866-.07-.267.089-.54.356-.61.267-.071.54.088.61.355zm-1.79-7.774c.261 1.318.54 2.618.834 3.896.062.27-.106.538-.375.6-.27.061-.538-.107-.6-.376-.296-1.287-.576-2.597-.84-3.925-.055-.271.121-.534.392-.588.271-.054.534.122.588.393zm-1.339-7.857c.189 1.323.394 2.637.616 3.939.046.272-.137.53-.41.576-.272.047-.53-.137-.576-.409-.223-1.31-.43-2.633-.62-3.965-.039-.273.151-.526.425-.565.273-.04.526.15.565.424zm-.919-7.927c.119 1.325.255 2.649.408 3.967.031.274-.165.522-.44.554-.274.032-.522-.165-.554-.439-.153-1.327-.29-2.659-.41-3.993-.024-.275.179-.518.454-.542.275-.025.518.178.542.453zm-1.017-8.439c.276-.009.507.207.516.483l.014.372c.046 1.2.108 2.403.184 3.608.017.276-.192.513-.468.53-.275.018-.513-.191-.53-.467-.077-1.213-.139-2.424-.186-3.632l-.013-.377c-.01-.276.207-.508.483-.517zm.099-7.999c.276.01.491.242.48.518-.052 1.421-.085 2.75-.099 3.986-.003.276-.229.497-.505.494-.276-.003-.498-.229-.495-.505.014-1.245.047-2.582.1-4.012.01-.276.243-.491.519-.481zm.455-7.988c.275.02.483.258.464.534-.096 1.388-.18 2.716-.25 3.985-.016.276-.252.487-.528.472-.275-.016-.486-.252-.47-.527.07-1.274.154-2.607.25-4 .02-.275.259-.483.534-.464zm1.048-8.265l.047.082 3.844 8.335c.116.25.007.548-.244.663-.223.103-.483.028-.619-.166l-.045-.078-3.045-6.603-.207 2.584c-.022.275-.263.48-.539.458-.244-.02-.434-.212-.457-.448v-.09l.206-2.584-4.06 6.03c-.137.205-.398.275-.615.18l-.079-.044c-.204-.137-.274-.397-.179-.615l.044-.079 5.127-7.613c.2-.297.626-.288.821-.012z" transform="rotate(126 1216.29 168.686)"/>
                <g fill="#FFB94B" fill-rule="nonzero">
                    <path d="M92.57 82.87l.052.074 4.545 7.975c.18.314-.025.698-.367.743l-.081.004-9.176-.257c-.276-.008-.493-.238-.485-.514.007-.245.189-.444.423-.48l.09-.006 7.624.213c-.019-.113 0-.233.065-.34.063-.106.16-.18.27-.217l-3.777-6.626c-.121-.213-.069-.478.113-.63l.074-.052c.213-.121.478-.069.63.113zm-3.475 3.12l.522.318.526.322 2.373 1.423c.236.142.313.45.171.686-.126.21-.383.294-.605.21l-.08-.039-2.376-1.425c-.356-.216-.707-.43-1.054-.643-.235-.144-.31-.452-.165-.688.144-.235.452-.31.688-.165zm-6.77-4.244c1.06.683 2.185 1.397 3.372 2.14.234.146.305.455.158.689-.146.234-.455.305-.689.158-1.19-.745-2.318-1.46-3.383-2.147-.232-.15-.299-.459-.15-.69.15-.233.46-.3.692-.15zm-6.616-4.456c.985.704 2.078 1.459 3.28 2.265.229.153.29.464.136.693-.154.23-.464.29-.694.137-1.208-.81-2.31-1.571-3.303-2.28-.225-.161-.277-.474-.117-.698.16-.225.473-.277.698-.117zm-6.277-4.902c1.02.858 2.051 1.696 3.09 2.513.218.17.255.485.085.702-.17.217-.485.255-.702.084-1.048-.823-2.088-1.668-3.117-2.534-.211-.178-.238-.493-.06-.704.177-.212.493-.239.704-.061zm-5.94-5.32c.962.915 1.938 1.817 2.927 2.704.206.184.223.5.04.706-.185.206-.501.223-.707.039-.997-.894-1.98-1.803-2.949-2.725-.2-.19-.208-.507-.017-.707.19-.2.507-.207.707-.017zm-5.61-5.662c.898.96 1.82 1.919 2.764 2.871.194.196.193.513-.004.707-.196.195-.512.193-.707-.003-.95-.96-1.88-1.925-2.784-2.892-.189-.202-.178-.518.024-.707.201-.188.518-.178.706.024zm-5.267-5.981c.814.986 1.679 2 2.586 3.03.183.206.163.522-.044.705-.208.183-.524.163-.706-.045-.915-1.037-1.786-2.06-2.607-3.054-.176-.213-.146-.528.067-.704.213-.176.528-.145.704.068zm-4.89-6.287c.812 1.1 1.618 2.16 2.408 3.179.17.218.13.532-.088.701-.219.17-.533.13-.702-.088-.795-1.024-1.605-2.092-2.423-3.197-.164-.222-.117-.536.105-.7.222-.164.535-.117.7.105zm-4.6-6.527c.742 1.108 1.496 2.204 2.259 3.286.159.226.105.538-.12.697-.226.16-.538.105-.697-.12-.768-1.09-1.526-2.192-2.273-3.306-.154-.23-.093-.54.137-.694.23-.154.54-.092.694.137zm-4.27-6.732c.677 1.133 1.375 2.264 2.091 3.393.148.234.08.543-.154.69-.233.148-.542.08-.69-.154-.721-1.136-1.424-2.276-2.105-3.416-.141-.237-.064-.544.173-.686.237-.141.544-.064.686.173zm-3.878-6.966c.6 1.164 1.227 2.335 1.883 3.51.134.242.048.546-.193.68-.242.135-.546.049-.68-.192-.661-1.186-1.295-2.366-1.9-3.54-.126-.246-.03-.548.216-.674s.547-.03.674.216zm-3.33-7.221c.469 1.176.925 2.244 1.367 3.203l.207.445c.117.25.009.547-.241.664-.223.104-.483.03-.62-.163l-.045-.078-.209-.45c-.45-.975-.913-2.06-1.388-3.251-.102-.257.023-.547.28-.65.256-.102.547.023.65.28zM28.96 14.19c.439 1.336.868 2.594 1.288 3.774.093.26-.043.546-.303.638-.26.093-.546-.043-.639-.303-.423-1.188-.855-2.453-1.296-3.797-.086-.263.057-.545.32-.631.262-.086.544.057.63.319zM26.603 6.56c.389 1.328.771 2.603 1.148 3.824.08.264-.067.544-.331.625-.264.082-.544-.066-.625-.33-.378-1.226-.762-2.505-1.152-3.838-.077-.265.074-.543.34-.62.264-.078.542.074.62.34zM24.11-1.892l.067.057 6.491 6.49c.196.194.196.51 0 .706-.173.174-.442.193-.637.058l-.07-.058L24.82.222l.7 2.495c.074.266-.08.542-.347.616-.236.066-.48-.049-.584-.262l-.032-.084L23.858.49l-1.723 7.063c-.058.239-.278.395-.515.381l-.089-.013c-.238-.058-.395-.279-.38-.515l.013-.09L23.339-1.6c.085-.35.493-.489.772-.292z" transform="rotate(180 512.851 213.884) rotate(98 59.191 44.842)"/>
                    <path d="M284.061 187.128l.049.076 4.204 8.16c.166.321-.054.696-.398.727h-.081l-9.156-.643c-.276-.02-.483-.259-.464-.534.017-.245.208-.436.444-.462l.09-.002 8.247.58.006-.01.006-.008-3.787-7.35c-.113-.218-.049-.48.139-.625l.076-.048c.218-.113.48-.049.625.14zm-3.043 3.348l.381.254.103.068 2.852 1.88c.231.151.295.462.143.692-.135.205-.395.278-.613.185l-.08-.042-2.854-1.88-.18-.121-.127-.084-.18-.12c-.229-.153-.291-.463-.138-.693.153-.23.464-.292.693-.139zM274.396 186c1.042.716 2.143 1.466 3.302 2.25.23.154.29.465.135.694-.155.229-.466.289-.694.134-1.162-.785-2.265-1.536-3.31-2.254-.227-.157-.285-.468-.128-.696.156-.227.467-.285.695-.128zm-6.522-4.609c.983.72 2.064 1.496 3.243 2.327.226.16.28.471.12.697-.159.226-.47.28-.696.12-1.184-.834-2.27-1.614-3.258-2.337-.222-.163-.27-.476-.107-.7.163-.222.476-.27.698-.107zm-6.246-4.926c1.014.87 2.038 1.714 3.072 2.527.218.17.255.485.084.702-.17.217-.485.255-.702.084-1.045-.822-2.08-1.674-3.106-2.554-.21-.18-.233-.496-.053-.705.18-.21.495-.234.705-.054zm-5.839-5.42c.946.944 1.901 1.866 2.867 2.764.202.188.214.504.026.706-.188.202-.504.214-.707.026-.975-.906-1.938-1.836-2.892-2.789-.196-.195-.196-.512 0-.707.194-.195.51-.196.706 0zm-5.454-5.81c.887 1.002 1.779 1.983 2.682 2.947.19.201.179.518-.023.707-.201.188-.517.178-.706-.023-.91-.971-1.81-1.96-2.702-2.97-.183-.206-.164-.522.043-.705.207-.183.523-.164.706.043zm-5.14-6.103c.886 1.094 1.704 2.09 2.537 3.08.177.212.15.527-.062.705-.211.177-.526.15-.704-.061-.837-.997-1.66-1.996-2.548-3.095-.174-.215-.14-.53.074-.704.215-.173.53-.14.703.075zm-4.75-6.385c.802 1.19 1.57 2.282 2.29 3.252.164.222.117.535-.105.7-.221.164-.535.117-.699-.105-.728-.983-1.505-2.085-2.316-3.288-.154-.23-.094-.54.135-.694.23-.155.54-.094.694.135zm-4.266-6.74c.702 1.174 1.4 2.31 2.088 3.399.148.233.078.542-.156.69-.233.147-.542.077-.69-.156-.691-1.096-1.394-2.239-2.1-3.419-.142-.237-.064-.544.172-.686.237-.141.544-.064.686.173zm-3.952-6.932c.64 1.177 1.288 2.341 1.94 3.486.137.24.053.545-.187.682-.24.136-.545.053-.682-.187-.655-1.15-1.307-2.32-1.95-3.504-.131-.243-.041-.546.201-.678.243-.132.546-.042.678.2zm-3.668-7.088c.584 1.188 1.184 2.377 1.798 3.562.127.245.031.547-.214.674s-.547.031-.674-.214c-.617-1.191-1.22-2.386-1.808-3.58-.121-.248-.02-.548.228-.67s.548-.02.67.228zm-3.296-7.247c.469 1.176.925 2.243 1.367 3.203l.207.446c.116.25.008.547-.243.664-.25.116-.547.007-.664-.243l-.208-.448c-.45-.977-.913-2.06-1.388-3.252-.102-.257.023-.548.28-.65.256-.102.547.023.65.28zm-2.688-7.502c.439 1.336.868 2.594 1.288 3.773.093.26-.043.547-.303.64-.26.092-.546-.044-.639-.304-.423-1.188-.855-2.454-1.296-3.797-.086-.263.057-.545.32-.631.262-.087.544.056.63.319zm-2.356-7.63c.389 1.329.771 2.604 1.148 3.825.081.264-.067.544-.33.625-.265.081-.545-.067-.626-.33-.378-1.226-.762-2.506-1.152-3.838-.077-.265.075-.543.34-.62.265-.078.542.074.62.339zm-2.492-8.452l.067.057 6.492 6.489c.195.195.195.512 0 .707-.174.174-.443.193-.638.058l-.07-.058-5.141-5.14.7 2.496c.074.265-.082.541-.347.616-.237.066-.481-.05-.585-.262l-.032-.085-.7-2.495-1.721 7.063c-.059.239-.279.395-.515.381l-.09-.013c-.238-.059-.395-.279-.38-.515l.013-.09 2.175-8.917c.085-.35.493-.49.772-.292z" transform="rotate(180 512.851 213.884) rotate(-146 251.568 148.579)"/>
                    <path d="M84.474 302.387l.047.077 4.02 8.252c.158.325-.07.695-.415.718l-.081-.002-9.14-.849c-.275-.025-.477-.27-.451-.544.023-.244.218-.431.454-.452h.09l7.239.673-.008-.005c-.227-.157-.284-.469-.127-.696.14-.202.401-.27.617-.171l.079.044.008.006-3.184-6.536c-.108-.22-.038-.482.153-.622l.077-.046c.22-.108.482-.038.622.153zm-4.243 2.484l.798.563.811.57 1.668 1.153c.227.157.284.469.127.696-.14.202-.401.269-.617.171l-.079-.044-1.67-1.156c-.549-.384-1.087-.763-1.615-1.136-.226-.16-.28-.472-.12-.697.16-.226.471-.28.697-.12zm-6.48-4.677c1.02.754 2.095 1.54 3.226 2.355.224.162.275.474.114.698-.162.224-.474.275-.698.113-1.135-.818-2.213-1.605-3.236-2.362-.222-.164-.269-.477-.104-.7.164-.221.477-.268.699-.104zm-6.324-4.863c.955.772 2 1.593 3.135 2.463.22.168.261.482.093.701-.168.22-.482.26-.701.093-1.142-.876-2.194-1.702-3.156-2.479-.214-.173-.248-.488-.074-.703.173-.215.488-.248.703-.075zm-5.966-5.27c.64.62 1.278 1.221 1.915 1.805l.637.578.369.328c.207.182.226.498.043.705-.162.184-.43.22-.633.098l-.072-.054-.375-.333c-.858-.77-1.718-1.573-2.58-2.407-.198-.193-.203-.51-.011-.708.192-.198.508-.203.707-.011zm-5.529-5.742c.908 1.005 1.812 1.976 2.715 2.916.191.2.185.516-.014.707-.2.191-.516.185-.707-.014-.91-.947-1.821-1.926-2.736-2.939-.185-.205-.169-.52.036-.706.205-.185.521-.169.706.036zm-5.2-6.051c.865 1.052 1.716 2.066 2.564 3.055.18.21.156.525-.054.705-.21.18-.525.156-.705-.054-.853-.994-1.708-2.014-2.578-3.07-.175-.214-.145-.53.068-.705.214-.175.529-.144.704.069zm-4.984-6.242c.982 1.255 1.711 2.181 2.473 3.138.172.216.137.53-.08.703-.215.172-.53.136-.702-.08-.764-.96-1.495-1.887-2.479-3.144-.17-.218-.132-.532.086-.702.217-.17.531-.132.702.085zm-4.833-6.332c.647.962 1.273 1.822 1.882 2.582l.48.601c.171.217.135.531-.082.703-.216.171-.53.135-.702-.081l-.476-.598c-.628-.783-1.27-1.665-1.932-2.649-.154-.229-.093-.54.136-.693.23-.155.54-.094.694.135zm-4.055-6.838c.674 1.25 1.322 2.406 1.949 3.472.14.238.06.544-.178.684s-.544.06-.684-.177c-.633-1.078-1.287-2.243-1.967-3.504-.131-.243-.04-.546.203-.677.243-.131.546-.04.677.202zm-3.626-7.108c.619 1.267 1.21 2.454 1.778 3.573.126.247.027.548-.219.673s-.547.027-.672-.22c-.572-1.124-1.165-2.315-1.786-3.587-.121-.248-.018-.548.23-.669.248-.12.547-.018.669.23zm-3.435-7.214c.603 1.292 1.165 2.486 1.702 3.615.119.25.013.548-.237.667-.25.118-.548.012-.666-.237-.538-1.132-1.1-2.328-1.705-3.622-.117-.25-.009-.548.242-.664.25-.117.547-.01.664.241zm-3.24-7.28c.405 1.065.81 2.038 1.217 2.918l.339.734c.116.25.006.548-.244.664-.251.116-.548.006-.664-.244l-.34-.735c-.415-.902-.83-1.895-1.243-2.98-.098-.259.032-.548.29-.646.258-.098.547.032.645.29zm-2.444-7.57c.379 1.354.759 2.626 1.14 3.816.083.263-.062.545-.325.629-.263.084-.544-.061-.628-.324-.384-1.203-.768-2.486-1.15-3.85-.075-.267.08-.543.347-.617.265-.074.541.08.616.347zm-1.956-7.733c.31 1.348.622 2.641.933 3.879.068.267-.095.54-.362.607-.268.067-.54-.095-.607-.363-.314-1.245-.626-2.544-.938-3.899-.062-.269.106-.537.375-.599.269-.062.537.106.6.375zm-1.95-8.59l.062.06 6.066 6.89c.182.206.162.522-.045.705-.184.162-.454.164-.64.017l-.066-.062-4.804-5.456.54 2.534c.057.27-.116.536-.386.593-.24.051-.477-.08-.566-.299l-.027-.086-.54-2.533-2.167 6.938c-.073.234-.303.376-.538.347l-.089-.02c-.234-.072-.376-.302-.347-.537l.02-.088 2.737-8.762c.107-.343.523-.456.79-.241z" transform="rotate(180 512.851 213.884) rotate(-22 52.625 262.343)"/>
                </g>
                <circle cx="901" cy="273" r="15" fill="#FFB94B"/>
                <path fill="#FF7778" fill-rule="nonzero" d="M605.764 318.895l.048.077 4.205 8.159c.166.321-.055.697-.398.727h-.082l-9.156-.643c-.275-.02-.483-.258-.464-.534.017-.245.208-.436.444-.462l.09-.002 8.247.58.006-.01.006-.008-3.787-7.35c-.112-.218-.049-.48.14-.625l.075-.048c.219-.112.481-.049.626.14zm-3.043 3.348l.13.088.174.115.107.071.072.049 2.853 1.879c.23.152.294.462.142.692-.135.205-.395.278-.613.186l-.08-.043-2.854-1.88-.18-.12-.126-.085-.18-.12c-.23-.152-.292-.463-.139-.693.153-.23.464-.292.694-.139zm-6.623-4.476c1.042.717 2.143 1.467 3.303 2.25.228.154.289.465.134.694-.155.229-.465.289-.694.134-1.162-.784-2.265-1.536-3.31-2.254-.227-.157-.285-.468-.128-.696.156-.227.468-.285.695-.128zm-6.521-4.609c.982.72 2.063 1.496 3.242 2.327.226.16.28.471.12.697-.158.226-.47.28-.696.12-1.184-.834-2.27-1.613-3.257-2.337-.223-.163-.271-.476-.108-.699.163-.223.476-.27.699-.108zm-6.247-4.926c1.014.871 2.038 1.714 3.073 2.527.217.17.254.485.084.702-.171.217-.485.255-.703.084-1.045-.822-2.08-1.674-3.106-2.554-.21-.18-.233-.496-.053-.705.18-.21.495-.234.705-.054zm-5.838-5.42c.945.944 1.9 1.866 2.866 2.764.203.188.214.504.026.706-.188.203-.504.214-.707.026-.975-.906-1.938-1.836-2.892-2.789-.196-.195-.196-.511 0-.707.195-.195.511-.195.707 0zm-5.455-5.81c.887 1.003 1.779 1.983 2.682 2.947.19.201.18.518-.022.707-.202.189-.518.178-.707-.023-.91-.97-1.809-1.959-2.702-2.969-.183-.207-.164-.523.043-.706.207-.183.523-.163.706.044zm-5.14-6.103c.886 1.094 1.704 2.09 2.537 3.08.177.212.15.527-.061.705-.212.177-.527.15-.705-.061-.837-.996-1.659-1.996-2.548-3.095-.174-.215-.14-.53.074-.703.215-.174.53-.14.703.074zm-4.75-6.385c.803 1.191 1.57 2.282 2.29 3.252.164.222.118.535-.104.7-.222.164-.535.117-.7-.105-.728-.982-1.504-2.085-2.316-3.288-.154-.229-.094-.54.135-.694.23-.154.54-.094.695.135zm-4.266-6.739c.702 1.173 1.4 2.31 2.088 3.398.148.234.078.542-.155.69-.234.147-.543.078-.69-.156-.692-1.096-1.395-2.239-2.1-3.419-.142-.237-.065-.544.172-.685.237-.142.544-.065.685.172zm-3.952-6.933c.64 1.177 1.288 2.341 1.94 3.486.137.24.053.545-.187.682s-.545.053-.682-.187c-.655-1.15-1.306-2.32-1.95-3.504-.131-.242-.041-.546.201-.678.243-.132.547-.042.678.2zm-3.668-7.088c.584 1.188 1.185 2.377 1.798 3.562.127.246.031.547-.214.674s-.547.031-.674-.214c-.617-1.191-1.22-2.386-1.807-3.58-.122-.248-.02-.548.228-.67.247-.122.547-.02.669.228zm-3.295-7.247c.468 1.176.924 2.244 1.367 3.203l.206.446c.117.25.008.548-.242.664-.25.116-.548.008-.665-.243l-.207-.448c-.45-.976-.913-2.06-1.388-3.252-.103-.257.023-.547.28-.65.256-.102.546.023.649.28zm-2.688-7.502c.438 1.336.867 2.594 1.288 3.774.092.26-.044.546-.304.638-.26.093-.546-.043-.639-.303-.423-1.188-.855-2.453-1.296-3.797-.086-.263.057-.545.32-.631.262-.086.544.057.63.319zm-2.357-7.629c.389 1.328.772 2.603 1.148 3.824.081.264-.067.544-.33.625-.265.082-.544-.066-.626-.33-.377-1.226-.761-2.505-1.152-3.838-.077-.265.075-.543.34-.62.265-.078.543.074.62.34zm-2.492-8.452l.067.056 6.492 6.49c.195.194.195.511 0 .706-.174.174-.443.193-.638.058l-.07-.058-5.141-5.139.7 2.495c.074.266-.081.542-.347.616-.237.066-.48-.049-.585-.262l-.032-.084-.699-2.497-1.722 7.064c-.058.239-.279.395-.515.381l-.09-.013c-.238-.058-.394-.279-.38-.515l.013-.09 2.175-8.917c.085-.35.493-.489.772-.291z" transform="rotate(-140 573.27 280.346)"/>
                <path fill="#FF7778" fill-rule="nonzero" d="M407.724 423.628l.043.08 3.63 8.43c.143.332-.102.691-.447.697l-.082-.005-9.09-1.275c-.273-.038-.463-.29-.425-.564.034-.243.238-.42.474-.43l.09.004 8.209 1.151-3.278-7.613c-.097-.226-.015-.483.182-.614l.08-.043c.225-.097.483-.016.614.182zm-2.68 3.592l.077.048 3.18 2.427c.22.167.262.48.094.7-.149.195-.413.25-.624.143l-.076-.048-3.18-2.427c-.22-.167-.262-.481-.095-.7.15-.196.414-.25.625-.143zm-6.234-4.857c1.002.789 2.052 1.61 3.148 2.462.218.17.258.484.088.702-.169.218-.483.257-.701.088-1.099-.854-2.15-1.676-3.153-2.467-.217-.17-.255-.485-.084-.702.171-.217.486-.254.702-.083zm-6.228-5.004c.961.791 1.995 1.63 3.1 2.518.216.173.25.487.078.703-.173.215-.488.25-.703.077-1.11-.89-2.146-1.732-3.11-2.525-.213-.176-.244-.491-.068-.704.175-.214.49-.244.703-.069zm-6.032-5.207c.3.284.6.56.9.829.626.561 1.317 1.166 2.074 1.815.21.18.234.495.054.705-.18.21-.495.234-.705.054-.762-.654-1.459-1.263-2.09-1.83-.306-.274-.612-.556-.919-.845-.2-.189-.21-.505-.02-.706.189-.201.505-.21.706-.022zm-5.425-5.796c.881 1.048 1.758 2.04 2.632 2.98.188.201.177.518-.025.706-.202.188-.519.177-.707-.025-.886-.951-1.774-1.957-2.665-3.017-.178-.211-.15-.527.06-.704.212-.178.528-.15.705.06zm-4.888-6.293c.8 1.104 1.594 2.166 2.387 3.19.169.218.129.532-.09.701-.218.17-.532.13-.7-.089-.8-1.032-1.6-2.103-2.407-3.215-.162-.224-.112-.536.112-.698.223-.162.536-.112.698.111zm-4.522-6.572c.76 1.154 1.495 2.249 2.225 3.313.157.227.099.539-.129.695-.227.156-.539.098-.695-.13-.734-1.069-1.472-2.169-2.236-3.328-.152-.23-.088-.54.143-.693.23-.152.54-.088.692.143zm-4.33-6.72l2.156 3.37c.15.232.082.542-.15.69-.233.15-.542.082-.691-.15l-2.157-3.37c-.15-.232-.082-.54.15-.69.233-.15.542-.082.691.15zm-4.042-6.838c.63 1.254 1.261 2.41 1.899 3.48.141.238.064.545-.174.686-.237.141-.544.064-.685-.174-.65-1.091-1.292-2.268-1.933-3.542-.125-.247-.025-.547.221-.671.247-.125.548-.025.672.221zm-3.246-7.269c.527 1.305 1.042 2.525 1.55 3.67.112.252-.002.547-.255.66-.252.111-.547-.003-.66-.255-.512-1.156-1.03-2.385-1.562-3.7-.104-.256.02-.548.276-.651.256-.103.548.02.651.276zm-2.828-7.463c.477 1.327.935 2.57 1.379 3.746.097.259-.033.547-.291.645-.259.097-.547-.033-.645-.292-.445-1.18-.905-2.429-1.384-3.76-.093-.26.041-.547.301-.64.26-.094.547.041.64.301zm-2.63-7.546c.457 1.345.888 2.597 1.299 3.78.09.26-.047.546-.308.636-.26.091-.546-.047-.637-.308-.412-1.185-.843-2.438-1.301-3.786-.089-.262.05-.546.312-.635.262-.088.546.051.635.313zm-2.283-7.636c.321 1.318.668 2.597 1.04 3.836.08.264-.07.543-.335.622-.265.08-.544-.07-.623-.335-.377-1.256-.728-2.551-1.053-3.886-.066-.268.099-.539.367-.604.269-.065.539.1.604.367zm-1.535-7.807c.207 1.34.435 2.646.684 3.92.053.271-.124.534-.395.587-.27.053-.533-.124-.586-.395-.252-1.287-.483-2.607-.691-3.96-.043-.273.144-.528.417-.57.273-.042.529.145.57.418zm-1.15-8.725l.056.067 5.397 7.425c.162.223.113.536-.11.698-.2.144-.468.121-.64-.042l-.06-.068-4.274-5.883.3 2.575c.033.275-.164.523-.438.555-.244.028-.467-.124-.536-.35l-.018-.089-.301-2.574-2.806 6.707c-.095.226-.337.346-.568.296l-.086-.028c-.227-.094-.347-.336-.296-.568l.028-.086 3.543-8.467c.139-.332.563-.406.808-.168z" transform="rotate(-27 378.36 383.092)"/>
                <circle cx="446" cy="273" r="15" fill="#FF7778"/>
                <path fill="#FF7778" fill-rule="nonzero" d="M446 254.75c-10.08 0-18.25 8.17-18.25 18.25s8.17 18.25 18.25 18.25 18.25-8.17 18.25-18.25-8.17-18.25-18.25-18.25zm0 .5c9.803 0 17.75 7.947 17.75 17.75s-7.947 17.75-17.75 17.75-17.75-7.947-17.75-17.75 7.947-17.75 17.75-17.75zM633 691.75c-10.08 0-18.25 8.17-18.25 18.25s8.17 18.25 18.25 18.25 18.25-8.17 18.25-18.25-8.17-18.25-18.25-18.25zm0 .5c9.803 0 17.75 7.947 17.75 17.75s-7.947 17.75-17.75 17.75-17.75-7.947-17.75-17.75 7.947-17.75 17.75-17.75z"/>
                <path fill="#FFB94B" fill-rule="nonzero" d="M901 254.75c-10.08 0-18.25 8.17-18.25 18.25s8.17 18.25 18.25 18.25 18.25-8.17 18.25-18.25-8.17-18.25-18.25-18.25zm0 .5c9.803 0 17.75 7.947 17.75 17.75s-7.947 17.75-17.75 17.75-17.75-7.947-17.75-17.75 7.947-17.75 17.75-17.75zM953 691.75c-10.08 0-18.25 8.17-18.25 18.25s8.17 18.25 18.25 18.25 18.25-8.17 18.25-18.25-8.17-18.25-18.25-18.25zm0 .5c9.803 0 17.75 7.947 17.75 17.75s-7.947 17.75-17.75 17.75-17.75-7.947-17.75-17.75 7.947-17.75 17.75-17.75z"/>
                <path fill="#8880E3" fill-rule="nonzero" d="M1218 254.75c-10.08 0-18.25 8.17-18.25 18.25s8.17 18.25 18.25 18.25 18.25-8.17 18.25-18.25-8.17-18.25-18.25-18.25zm0 .5c9.803 0 17.75 7.947 17.75 17.75s-7.947 17.75-17.75 17.75-17.75-7.947-17.75-17.75 7.947-17.75 17.75-17.75zM1259 691.75c-10.08 0-18.25 8.17-18.25 18.25s8.17 18.25 18.25 18.25 18.25-8.17 18.25-18.25-8.17-18.25-18.25-18.25zm0 .5c9.803 0 17.75 7.947 17.75 17.75s-7.947 17.75-17.75 17.75-17.75-7.947-17.75-17.75 7.947-17.75 17.75-17.75z"/>
                <circle cx="1218" cy="273" r="15" fill="#8880E3"/>
                <text fill="#2B2B2B" font-family="ModernEra-Medium, Modern Era" font-size="32" font-weight="400">
                    <tspan x="34" y="722">Transaction type</tspan>
                </text>
                <path fill="#D7DCEA" fill-rule="nonzero" d="M1201.5 696L1201.5 724 1200.5 724 1200.5 696zM895.5 696L895.5 724 894.5 724 894.5 696z"/>
            </g>
        </g>
    </g>
</svg>
