<svg xmlns="http://www.w3.org/2000/svg" xmlns:xlink="http://www.w3.org/1999/xlink" width="100%" height="100%" viewBox="0 0 417 496">
    <defs>
        <filter id="9vmf4l2r9a" width="198.2%" height="171.5%" x="-49.1%" y="-35.8%" filterUnits="objectBoundingBox">
            <feGaussianBlur in="SourceGraphic" stdDeviation="34.357"/>
        </filter>
        <filter id="eens5bj5sb" width="157.9%" height="145.9%" x="-29%" y="-22.9%" filterUnits="objectBoundingBox">
            <feGaussianBlur in="SourceGraphic" stdDeviation="17.598"/>
        </filter>
        <filter id="p4hdvjfx4e" width="154.1%" height="154.1%" x="-27.1%" y="-21.6%" filterUnits="objectBoundingBox">
            <feMorphology in="SourceAlpha" radius="2.5" result="shadowSpreadOuter1"/>
            <feOffset dy="2" in="shadowSpreadOuter1" result="shadowOffsetOuter1"/>
            <feGaussianBlur in="shadowOffsetOuter1" result="shadowBlurOuter1" stdDeviation="5.5"/>
            <feColorMatrix in="shadowBlurOuter1" values="0 0 0 0 0.982789855 0 0 0 0 0.930422306 0 0 0 0 0.843143057 0 0 0 1 0"/>
        </filter>
        <circle id="11a09n4qdf" cx="105.847" cy="141.129" r="18.481"/>
        <rect id="74gw3pm43c" width="209.956" height="271.338" x=".239" y="0" rx="18.855"/>
    </defs>
    <g fill="none" fill-rule="evenodd">
        <g>
            <g>
                <g opacity=".828">
                    <path fill="#A3B0D5" d="M4.161 0H214.175V288.139H4.161z" filter="url(#9vmf4l2r9a)" opacity=".218" transform="translate(-644 -1733) translate(695 1799) translate(47.922 37.841)"/>
                    <path fill="#767B8C" fill-opacity=".49" d="M0 6.72H182.292V236.895H0z" filter="url(#eens5bj5sb)" opacity=".129" transform="translate(-644 -1733) translate(695 1799) translate(47.922 37.841)"/>
                </g>
                <g transform="translate(-644 -1733) translate(695 1799)">
                    <mask id="c6wjk654sd" fill="#fff">
                        <use xlink:href="#74gw3pm43c"/>
                    </mask>
                    <rect width="214.146" height="275.528" x="-1.856" y="-2.095" stroke="#FFF" stroke-width="4.19" rx="18.855"/>
                    <path fill="#FFA600" fill-rule="nonzero" d="M112.08 24.916c.014.094.004.19-.03.278l-.698 1.676c-.07.181-.229.313-.42.347l-1.985.353c-.3.053-.586-.146-.64-.446-.012-.065-.011-.133.001-.198l.317-1.681c.043-.23.227-.408.459-.443l2.369-.348c.301-.046.582.161.628.462zm-1.432.587l-1.009.149c-.077.011-.14.07-.154.148l-.096.512c-.018.1.047.195.147.214.021.004.044.004.066 0l.896-.16c.062-.01.114-.052.138-.11l.208-.501c.039-.094-.005-.201-.1-.24-.03-.013-.063-.017-.096-.012zm2.853-4.087c.011.089 0 .18-.032.264l-.673 1.69c-.072.187-.24.32-.438.349l-2.732.393c-.3.043-.58-.166-.623-.467-.008-.06-.007-.12.004-.18l.32-1.698c.044-.236.235-.415.473-.445l3.086-.385c.301-.037.577.177.615.479zm-1.727.547l-1.767.22c-.08.01-.143.07-.157.148l-.104.548c-.019.1.047.195.146.214.02.004.04.004.06.001l1.652-.239c.064-.009.12-.051.144-.111l.218-.529c.04-.093-.005-.2-.1-.24-.028-.012-.06-.016-.092-.012zm3.522-4.904c.008.108-.008.217-.047.318l-.946 2.372c-.097.253-.324.432-.593.466l-4.957.635c-.403.052-.772-.233-.823-.635-.009-.073-.008-.148.005-.22l.541-2.594c.058-.33.333-.58.667-.605l5.363-.413c.405-.03.758.272.79.676zm-2.117.715l-3.789.312-.283 1.455 3.733-.515c.128-.018.237-.101.287-.22l.297-.692c.053-.124-.005-.268-.129-.321-.036-.016-.077-.022-.116-.02z" mask="url(#c6wjk654sd)" opacity=".7"/>
                    <path fill="#FAF4EA" fill-rule="nonzero" d="M101.957 18.094h-3.113c-.783 0-1.454.562-1.59 1.333L95.161 31.25c-.155.878.43 1.716 1.309 1.872.093.016.187.025.281.025h3.136c.773-.012 1.431-.57 1.567-1.333l.562-3.171h1.05l-.462 2.607c-.156.878.43 1.716 1.308 1.872.093.016.187.025.282.025h3.113c.783 0 1.453-.563 1.59-1.334l2.093-11.823c.156-.878-.43-1.716-1.309-1.871-.093-.017-.187-.025-.281-.025h-3.136c-.772.011-1.43.569-1.566 1.331l-.546 3.058h-1.05l.445-2.49c.156-.879-.428-1.717-1.306-1.874-.094-.017-.189-.025-.284-.025zm0 .795c.049 0 .096.005.144.013.44.079.736.497.665.937l-.003.014-.541 3.04c-.004.02-.005.039-.005.058 0 .178.141.323.318.328h2.009c.156 0 .29-.11.321-.262l.002-.008.614-3.444c.069-.387.402-.67.794-.676h3.125c.048 0 .095.005.143.013.44.078.736.496.666.936l-.002.014-2.093 11.823c-.069.387-.403.67-.795.676h-3.125c-.048 0-.096-.004-.143-.013-.441-.078-.737-.495-.666-.936l.002-.013.56-3.156c.003-.02.005-.039.005-.058 0-.178-.141-.323-.318-.327h-2.01c-.156 0-.29.11-.321.261l-.001.009-.632 3.557c-.068.387-.402.67-.794.676h-3.125c-.048 0-.096-.004-.142-.012-.441-.079-.738-.496-.667-.937l.003-.013 2.093-11.823c.068-.387.402-.67.794-.677h3.125z" mask="url(#c6wjk654sd)"/>
                    <path fill="#E75A2B" fill-rule="nonzero" d="M101.956 18.889h-3.113c-.397 0-.737.285-.807.676l-2.092 11.823c-.08.446.218.87.663.95.048.008.095.012.143.012h3.113c.397 0 .738-.285.807-.676l.63-3.557c.028-.156.164-.27.324-.27h2c.18 0 .328.146.328.327 0 .02-.002.039-.005.058l-.56 3.156c-.08.445.218.87.663.95.047.008.095.012.143.012h3.113c.398 0 .738-.285.807-.676l2.093-11.823c.079-.446-.218-.871-.664-.95-.047-.008-.095-.012-.143-.012h-3.112c-.397 0-.738.284-.807.675l-.614 3.444c-.028.156-.164.27-.323.27h-2c-.18 0-.328-.147-.328-.328 0-.02.002-.038.005-.057l.543-3.041c.08-.446-.218-.871-.663-.95-.047-.01-.095-.013-.144-.013z" mask="url(#c6wjk654sd)"/>
                    <path fill="#FFA600" fill-rule="nonzero" d="M112.08 24.916c.014.094.004.19-.03.278l-.698 1.676c-.07.181-.229.313-.42.347l-1.985.353c-.3.053-.586-.146-.64-.446-.012-.065-.011-.133.001-.198l.317-1.681c.043-.23.227-.408.459-.443l2.369-.348c.301-.046.582.161.628.462zm-1.432.587l-1.009.149c-.077.011-.14.07-.154.148l-.096.512c-.018.1.047.195.147.214.021.004.044.004.066 0l.896-.16c.062-.01.114-.052.138-.11l.208-.501c.039-.094-.005-.201-.1-.24-.03-.013-.063-.017-.096-.012zm2.853-4.087c.011.089 0 .18-.032.264l-.673 1.69c-.072.187-.24.32-.438.349l-2.732.393c-.3.043-.58-.166-.623-.467-.008-.06-.007-.12.004-.18l.32-1.698c.044-.236.235-.415.473-.445l3.086-.385c.301-.037.577.177.615.479zm-1.727.547l-1.767.22c-.08.01-.143.07-.157.148l-.104.548c-.019.1.047.195.146.214.02.004.04.004.06.001l1.652-.239c.064-.009.12-.051.144-.111l.218-.529c.04-.093-.005-.2-.1-.24-.028-.012-.06-.016-.092-.012zm3.522-4.904c.008.108-.008.217-.047.318l-.946 2.372c-.097.253-.324.432-.593.466l-4.957.635c-.403.052-.772-.233-.823-.635-.009-.073-.008-.148.005-.22l.541-2.594c.058-.33.333-.58.667-.605l5.363-.413c.405-.03.758.272.79.676zm-2.117.715l-3.789.312-.283 1.455 3.733-.515c.128-.018.237-.101.287-.22l.297-.692c.053-.124-.005-.268-.129-.321-.036-.016-.077-.022-.116-.02z" mask="url(#c6wjk654sd)" opacity=".7"/>
                    <path fill="#FAF4EA" fill-rule="nonzero" d="M101.957 18.094h-3.113c-.783 0-1.454.562-1.59 1.333L95.161 31.25c-.155.878.43 1.716 1.309 1.872.093.016.187.025.281.025h3.136c.773-.012 1.431-.57 1.567-1.333l.562-3.171h1.05l-.462 2.607c-.156.878.43 1.716 1.308 1.872.093.016.187.025.282.025h3.113c.783 0 1.453-.563 1.59-1.334l2.093-11.823c.156-.878-.43-1.716-1.309-1.871-.093-.017-.187-.025-.281-.025h-3.136c-.772.011-1.43.569-1.566 1.331l-.546 3.058h-1.05l.445-2.49c.156-.879-.428-1.717-1.306-1.874-.094-.017-.189-.025-.284-.025zm0 .795c.049 0 .096.005.144.013.44.079.736.497.665.937l-.003.014-.541 3.04c-.004.02-.005.039-.005.058 0 .178.141.323.318.328h2.009c.156 0 .29-.11.321-.262l.002-.008.614-3.444c.069-.387.402-.67.794-.676h3.125c.048 0 .095.005.143.013.44.078.736.496.666.936l-.002.014-2.093 11.823c-.069.387-.403.67-.795.676h-3.125c-.048 0-.096-.004-.143-.013-.441-.078-.737-.495-.666-.936l.002-.013.56-3.156c.003-.02.005-.039.005-.058 0-.178-.141-.323-.318-.327h-2.01c-.156 0-.29.11-.321.261l-.001.009-.632 3.557c-.068.387-.402.67-.794.676h-3.125c-.048 0-.096-.004-.142-.012-.441-.079-.738-.496-.667-.937l.003-.013 2.093-11.823c.068-.387.402-.67.794-.677h3.125z" mask="url(#c6wjk654sd)"/>
                    <path fill="#E75A2B" fill-rule="nonzero" d="M101.956 18.889h-3.113c-.397 0-.737.285-.807.676l-2.092 11.823c-.08.446.218.87.663.95.048.008.095.012.143.012h3.113c.397 0 .738-.285.807-.676l.63-3.557c.028-.156.164-.27.324-.27h2c.18 0 .328.146.328.327 0 .02-.002.039-.005.058l-.56 3.156c-.08.445.218.87.663.95.047.008.095.012.143.012h3.113c.398 0 .738-.285.807-.676l2.093-11.823c.079-.446-.218-.871-.664-.95-.047-.008-.095-.012-.143-.012h-3.112c-.397 0-.738.284-.807.675l-.614 3.444c-.028.156-.164.27-.323.27h-2c-.18 0-.328-.147-.328-.328 0-.02.002-.038.005-.057l.543-3.041c.08-.446-.218-.871-.663-.95-.047-.01-.095-.013-.144-.013z" mask="url(#c6wjk654sd)"/>
                    <path fill="#2B2B2B" fill-rule="nonzero" d="M27.722 19.846c-1.508 0-2.73 1.223-2.73 2.73 0 1.508 1.222 2.73 2.73 2.73s2.73-1.222 2.73-2.73c0-1.507-1.222-2.73-2.73-2.73zm0 1.26c.812 0 1.47.659 1.47 1.47 0 .812-.658 1.47-1.47 1.47-.812 0-1.47-.658-1.47-1.47 0-.811.658-1.47 1.47-1.47z" mask="url(#c6wjk654sd)"/>
                    <path fill="#2B2B2B" fill-rule="nonzero" d="M27.722 16.381c-4.524 0-8.19 3.667-8.19 8.19 0 4.524 3.666 8.191 8.19 8.191 4.523 0 8.19-3.667 8.19-8.19 0-4.524-3.667-8.19-8.19-8.19zm0 1.26c3.827 0 6.93 3.103 6.93 6.93 0 3.828-3.103 6.931-6.93 6.931-3.828 0-6.93-3.103-6.93-6.93 0-3.828 3.102-6.93 6.93-6.93z" mask="url(#c6wjk654sd)"/>
                    <path fill="#2B2B2B" fill-rule="nonzero" d="M29.07 26.383c2.17 0 3.938 1.726 4.005 3.88l.002.127v.11c0 .347-.282.63-.63.63-.326 0-.595-.248-.627-.566l-.003-.064v-.11c0-1.48-1.17-2.686-2.637-2.744l-.11-.003h-2.697c-1.48 0-2.686 1.171-2.744 2.637l-.003.11v.11c0 .347-.282.63-.63.63-.326 0-.594-.248-.626-.566l-.004-.064v-.11c0-2.17 1.726-3.938 3.88-4.005l.127-.002h2.697z" mask="url(#c6wjk654sd)"/>
                    <path fill="#2B2B2B" d="M177.042 19.355c0-.946.774-1.714 1.729-1.714h2.87c.955 0 1.73.768 1.73 1.714v2.843c0 .947-.775 1.714-1.73 1.714h-2.87c-.955 0-1.73-.767-1.73-1.714v-2.843zm1.729-.418c-.233 0-.422.187-.422.418v2.843c0 .232.189.419.422.419h2.87c.233 0 .422-.187.422-.419v-2.843c0-.23-.19-.418-.422-.418h-2.87zM177.042 26.82c0-.948.774-1.715 1.729-1.715h2.87c.955 0 1.73.767 1.73 1.714v2.843c0 .947-.775 1.714-1.73 1.714h-2.87c-.955 0-1.73-.767-1.73-1.714V26.82zm1.729-.42c-.233 0-.422.188-.422.42v2.842c0 .231.189.419.422.419h2.87c.233 0 .422-.188.422-.419V26.82c0-.231-.19-.418-.422-.418h-2.87zM184.574 19.355c0-.946.774-1.714 1.73-1.714h2.869c.955 0 1.73.768 1.73 1.714v2.843c0 .947-.775 1.714-1.73 1.714h-2.87c-.955 0-1.73-.767-1.73-1.714v-2.843zm1.73-.418c-.234 0-.423.187-.423.418v2.843c0 .232.189.419.422.419h2.87c.233 0 .422-.187.422-.419v-2.843c0-.23-.189-.418-.422-.418h-2.87zM185.292 26.64c0-.457.373-.826.833-.826.46 0 .833.37.833.825 0 .456-.373.826-.833.826-.46 0-.833-.37-.833-.826zM185.292 29.84c0-.457.373-.826.833-.826.46 0 .833.37.833.825 0 .456-.373.826-.833.826-.46 0-.833-.37-.833-.826zM188.518 26.64c0-.457.373-.826.834-.826.46 0 .833.37.833.825 0 .456-.373.826-.833.826-.46 0-.834-.37-.834-.826zM188.518 29.84c0-.457.373-.826.834-.826.46 0 .833.37.833.825 0 .456-.373.826-.833.826-.46 0-.834-.37-.834-.826z" mask="url(#c6wjk654sd)"/>
                    <path fill="#2B2B2B" fill-rule="nonzero" d="M71.374 172.116c1.279 0 2.275-.741 2.275-1.852 0-1.05-.652-1.623-2.09-1.906-.918-.185-1.297-.379-1.297-.838 0-.555.432-.855 1.103-.855.644 0 .979.326 1.155.996l1.006-.282c-.274-1.067-1.032-1.685-2.161-1.685-1.27 0-2.179.768-2.179 1.826 0 1.024.732 1.58 2.179 1.853.908.15 1.208.44 1.208.89 0 .565-.485.883-1.2.883-.767 0-1.137-.336-1.358-1.077l-1.005.292c.29 1.137 1.137 1.755 2.364 1.755zm7.246-1.967v-.406c0-1.34-.82-2.267-2.081-2.267-1.244 0-2.223 1.006-2.223 2.32 0 1.35.979 2.329 2.231 2.329 1.024 0 1.694-.52 1.967-1.27l-.89-.274c-.133.353-.512.67-1.077.67-.679 0-1.164-.529-1.217-1.102h3.29zm-3.281-.812c.106-.555.538-.988 1.208-.988.715 0 1.103.547 1.138.988H75.34zm4.15 2.664h1.058v-2.417c0-.714.406-1.129.97-1.129.574 0 .856.344.856 1.023v2.523h1.058v-2.664c0-1.261-.555-1.86-1.579-1.86-.564 0-1.014.22-1.34.652l-.15-.53h-.874v4.402zm6.945.124c.662 0 1.13-.3 1.403-.662l.14.538h.874v-6.174h-1.059v2.267c-.273-.353-.74-.618-1.367-.618-1.226 0-2.126 1.023-2.126 2.32 0 1.279.927 2.329 2.135 2.329zm.15-.953c-.697 0-1.226-.582-1.226-1.376 0-.785.53-1.367 1.226-1.367.706 0 1.217.564 1.217 1.367s-.511 1.376-1.217 1.376z" mask="url(#c6wjk654sd)"/>
                    <circle cx="78.755" cy="139.869" r="17.641" fill="#FFF" fill-rule="nonzero" mask="url(#c6wjk654sd)"/>
                    <path fill="#FFA600" d="M85.184 134.3c-.458-1.515-2.058-2.372-3.573-1.914l-9.63 2.912c-.842.254-1.507.902-1.782 1.737-.469 1.416.3 2.944 1.716 3.412l4.061 1.342c.44.146.809.455 1.029.864l2.027 3.766c.417.774 1.184 1.297 2.057 1.401 1.481.177 2.826-.88 3.003-2.36l1.194-9.99c.047-.393.013-.791-.102-1.17zm-2.998-.012c.465-.14.955.122 1.096.587.035.116.046.239.031.359l-1.195 9.99c-.046.391-.402.67-.793.624-.23-.028-.433-.166-.544-.37l-2.027-3.767c-.069-.129-.144-.252-.227-.37l1.484-1.771c.353-.42.298-1.047-.122-1.4-.42-.352-1.047-.298-1.4.123l-1.485 1.77c-.131-.062-.266-.115-.404-.16l-4.061-1.343c-.375-.124-.578-.527-.454-.901.073-.22.249-.392.471-.46l9.63-2.91z" mask="url(#c6wjk654sd)"/>
                    <path fill="#2B2B2B" fill-rule="nonzero" d="M116.571 172.001h2.17c1.747.018 2.982-1.314 2.955-3.096 0-1.746-1.023-3.078-2.981-3.078h-2.144V172zm1.077-.97v-4.234h.979c.732 0 1.243.194 1.543.582.3.388.45.891.45 1.517 0 .6-.15 1.103-.45 1.517-.308.415-.794.618-1.464.618h-1.058zm9.06-.882v-.406c0-1.34-.82-2.267-2.08-2.267-1.245 0-2.224 1.006-2.224 2.32 0 1.35.98 2.329 2.232 2.329 1.023 0 1.694-.52 1.967-1.27l-.89-.274c-.133.353-.513.67-1.077.67-.68 0-1.164-.529-1.217-1.102h3.29zm-3.28-.812c.105-.555.538-.988 1.208-.988.714 0 1.103.547 1.138.988h-2.346zm6.566-1.86c-.662 0-1.13.3-1.403.66l-.14-.537h-.874v6.174h1.058v-2.267c.274.353.741.618 1.368.618 1.243 0 2.125-1.024 2.125-2.32 0-1.28-.926-2.329-2.134-2.329zm-.15.952c.706 0 1.226.573 1.226 1.376 0 .397-.115.723-.344.979-.238.256-.53.388-.882.388-.706 0-1.209-.564-1.209-1.367s.503-1.376 1.209-1.376zm5.242 3.696c1.305 0 2.293-1.032 2.293-2.329 0-1.297-.988-2.32-2.293-2.32-1.288-.017-2.311 1.041-2.285 2.32 0 1.297.97 2.329 2.285 2.329zm0-.98c-.715 0-1.226-.564-1.226-1.349 0-.776.511-1.34 1.226-1.34.353 0 .644.123.882.379.238.255.353.573.353.961s-.115.706-.353.961c-.238.256-.53.389-.882.389zm4.761.98c1.067 0 1.782-.609 1.782-1.403 0-.838-.556-1.217-1.623-1.402-.626-.115-.882-.23-.882-.512 0-.247.256-.45.723-.45.397 0 .644.212.75.644l.926-.264c-.185-.803-.794-1.262-1.676-1.262-1.05 0-1.711.618-1.711 1.376 0 .838.6 1.165 1.685 1.367.626.106.811.274.811.52 0 .318-.3.504-.785.504-.467 0-.767-.247-.9-.732l-.935.3c.22.82.882 1.314 1.835 1.314zm2.685-.124h1.058V167.6h-1.058V172zm.511-5.001c.344 0 .635-.282.635-.626 0-.344-.29-.627-.635-.627-.344 0-.617.283-.617.627 0 .344.273.626.617.626zm3.29 5.125c.539 0 .91-.186 1.077-.388l-.441-.75c-.115.097-.247.15-.406.15-.273 0-.414-.159-.414-.468v-2.143h1.12v-.926h-1.12v-1.147h-1.059v1.147h-.758v.926h.758v2.293c0 .838.53 1.306 1.244 1.306z" mask="url(#c6wjk654sd)"/>
                    <circle cx="131.679" cy="139.869" r="17.641" fill="#FFF" fill-rule="nonzero" mask="url(#c6wjk654sd)"/>
                    <path fill="#FFA600" d="M131.663 133.247c-.635 0-1.15.515-1.15 1.15v4.32h-4.306c-.635 0-1.15.514-1.15 1.149s.515 1.15 1.15 1.15h4.306v4.32c0 .636.515 1.15 1.15 1.15.635 0 1.15-.514 1.15-1.15v-4.32h4.333c.635 0 1.15-.515 1.15-1.15 0-.635-.515-1.15-1.15-1.15h-4.333v-4.319c0-.635-.515-1.15-1.15-1.15z" mask="url(#c6wjk654sd)"/>
                    <path fill="#2B2B2B" fill-rule="nonzero" d="M72.433 104.148c-.625.726-1.552 1.17-2.661 1.17-1.452 0-2.701-.646-3.427-1.835h2.58l.666-2.218h-3.932c-.02-.12-.02-.302-.02-.544 0-.242 0-.424.02-.544h4.254l.665-2.218h-4.193c.726-1.19 1.935-1.916 3.327-1.916 1.149 0 2.036.363 2.681 1.069l2.117-1.794c-1.19-1.31-2.843-1.976-4.839-1.976-1.552 0-2.883.423-4.032 1.25-1.15.826-1.976 1.955-2.44 3.367h-1.43l-.626 2.218h1.653c-.02.1-.02.262-.02.483 0 .262 0 .464.02.605h-1.028l-.625 2.218h2.036c.948 2.903 3.367 4.536 6.492 4.536 2.016 0 3.69-.746 4.88-2.177l-2.118-1.694zm6.205 3.589h2.903V93.624h-2.903c-.907.625-2.137 1.19-3.004 1.29v2.944c.464-.04.988-.161 1.593-.363.584-.181 1.068-.403 1.41-.625v10.867zm10.175.282c2.903 0 5.141-1.955 5.141-4.92 0-2.862-2.056-4.656-4.899-4.656-.706 0-1.391.181-1.734.363l.262-2.46h5.383v-2.722h-7.883l-.726 7.258 2.48.907c.404-.504 1.11-.867 1.976-.867 1.27 0 2.238.888 2.238 2.198 0 1.29-.968 2.198-2.238 2.198-1.29 0-2.278-.847-2.298-2.158l-2.682.807c.04 2.218 2.218 4.052 4.98 4.052zm12.664-.282h2.903l.02-3.448h1.452v-2.46H104.4l-.02-8.205h-3.105l-6.048 8.548v2.117h6.27l-.02 3.448zm-3.065-5.907l3.065-4.214.02 4.214h-3.085zm13.733 6.19c3.025 0 5.202-2.077 5.202-4.9 0-2.58-1.452-4.073-3.306-4.415l2.379-2.38v-2.7h-8.79v2.7h5.382l-3.165 2.985 1.472 1.754c.22-.101.504-.142.826-.142 1.371 0 2.299.908 2.299 2.198 0 1.27-.948 2.198-2.299 2.198-1.35 0-2.278-1.008-2.338-2.299l-2.682.787c.04 2.278 2.037 4.213 5.02 4.213zm8.127-.142c.948 0 1.694-.786 1.694-1.693 0-.948-.746-1.694-1.694-1.694-.907 0-1.693.746-1.693 1.694 0 .907.786 1.693 1.693 1.693zm11.644-7.701c.766-.746 1.15-1.654 1.15-2.722 0-2.4-2.057-4.113-4.597-4.113-2.601 0-4.597 1.714-4.597 4.113 0 1.109.423 2.056 1.149 2.722-1.028.786-1.633 1.935-1.633 3.306 0 2.661 2.197 4.536 5.08 4.536 2.843 0 5.081-1.875 5.081-4.536 0-1.371-.605-2.56-1.633-3.306zm-5.222-2.722c0-.988.746-1.653 1.775-1.653.987 0 1.774.665 1.774 1.653s-.787 1.673-1.774 1.673c-.988 0-1.775-.685-1.775-1.673zm1.775 7.943c-1.23 0-2.178-.806-2.178-1.955 0-1.19.948-2.016 2.178-2.016 1.21 0 2.177.826 2.177 2.016 0 1.149-.968 1.955-2.177 1.955zM140.466 108c3.529 0 5.303-3.125 5.303-7.359s-1.815-7.318-5.343-7.318-5.343 3.084-5.343 7.318c0 2.198.464 3.972 1.371 5.323.908 1.35 2.258 2.036 4.012 2.036zm0-2.702c-1.693 0-2.48-1.673-2.48-4.637 0-2.883.767-4.637 2.44-4.637 1.633 0 2.44 1.754 2.44 4.637 0 2.904-.787 4.637-2.4 4.637z" mask="url(#c6wjk654sd)"/>
                    <rect width="115.928" height="25.202" x="47.253" y="49.143" fill="#F6E9D3" fill-rule="nonzero" mask="url(#c6wjk654sd)" rx="12.57"/>
                    <path fill="#7A7C89" fill-rule="nonzero" d="M57.989 64.894h.978v-2.772c0-.887.564-1.431 1.26-1.431.675 0 1.068.322 1.068 1.24v2.963h.988V61.76c0-1.34-.645-1.996-1.744-1.996-.675 0-1.2.252-1.572.746v-2.671h-.978v7.056zm10.209-2.187v-.393c0-1.513-.938-2.54-2.35-2.54-1.4 0-2.49 1.159-2.49 2.62 0 1.482 1.039 2.641 2.5 2.641 1.14 0 1.916-.584 2.208-1.421l-.847-.272c-.16.474-.665.867-1.36.867-.877 0-1.482-.696-1.543-1.502h3.882zm-3.872-.776c.121-.757.686-1.331 1.533-1.331.836 0 1.4.625 1.451 1.33h-2.984zm4.653 2.963h3.892l.01-.836h-2.702l2.671-3.377v-.777h-3.79v.847h2.58l-2.66 3.367v.776zm5.3-2.963c.373 0 .676-.313.676-.686 0-.363-.303-.665-.676-.665-.373 0-.675.302-.675.665 0 .393.302.686.675.686zm0 3.034c.373 0 .676-.303.676-.676 0-.373-.303-.675-.676-.675-.373 0-.675.302-.675.675 0 .373.302.676.675.676zm4.046.07c1.754 0 2.58-1.602 2.58-3.7 0-2.066-.856-3.638-2.59-3.638-1.754 0-2.601 1.572-2.601 3.639 0 1.099.222 1.986.655 2.671.434.686 1.089 1.028 1.956 1.028zm0-.927c-.545 0-.948-.252-1.21-.766-.272-.504-.403-1.16-.403-1.976 0-.806.13-1.462.403-1.976.262-.514.665-.766 1.2-.766.524 0 .917.252 1.19.766.261.514.392 1.17.392 1.976 0 .817-.13 1.482-.383 1.986-.262.504-.655.756-1.19.756zm7.938.786l-1.814-2.52 1.764-2.47h-1.089l-1.24 1.754-1.24-1.754h-1.098l1.774 2.48-1.815 2.51h1.089l1.29-1.794 1.28 1.794h1.1zm.736 0h4.627v-.927H88.42l1.643-1.452c.343-.292.625-.564.837-.796.423-.474.716-1.069.716-1.825 0-1.27-1.019-2.197-2.36-2.197-1.27 0-2.328.856-2.388 2.157l.937.272c0-.897.615-1.502 1.452-1.502.796 0 1.35.554 1.35 1.28 0 .272-.05.514-.16.736-.213.444-.495.726-1.09 1.24L87 63.957v.937zm7.949.141c1.461 0 2.52-1.018 2.52-2.359 0-1.33-.837-2.177-2.056-2.248l1.592-1.663v-.927H92.73v.927h3.075l-1.885 1.926.514.625c.161-.05.332-.081.514-.081.927 0 1.512.595 1.512 1.441 0 .817-.625 1.432-1.512 1.432-.414 0-.766-.131-1.049-.403-.292-.272-.443-.605-.463-.998l-.928.272c.04 1.119 1.039 2.056 2.44 2.056zm7.319-3.951c.444-.333.696-.847.696-1.422 0-1.129-.938-1.955-2.158-1.955-1.24 0-2.157.806-2.157 1.955 0 .575.252 1.09.696 1.422-.635.373-.988.998-.988 1.754 0 1.3 1.028 2.207 2.45 2.207 1.39 0 2.439-.907 2.439-2.207 0-.756-.363-1.391-.978-1.754zm-2.631-1.442c0-.645.494-1.068 1.17-1.068.655 0 1.169.423 1.169 1.068s-.514 1.059-1.17 1.059c-.675 0-1.17-.414-1.17-1.059zm1.17 4.496c-.394 0-.737-.12-1.019-.363-.282-.232-.423-.544-.423-.937 0-.797.635-1.31 1.441-1.31.807 0 1.432.503 1.432 1.31 0 .776-.625 1.3-1.432 1.3zm5.079.756c.171-.957.504-2.026.988-3.226.473-1.19.957-2.157 1.431-2.903v-.927h-4.587v.927h3.458c-.444.756-.897 1.724-1.35 2.913-.454 1.2-.777 2.269-.948 3.216h1.008zm8.044-4.677c-.464 0-.837.383-.837.847 0 .463.373.846.837.846.464 0 .847-.383.847-.846 0-.464-.383-.847-.847-.847zm5.04 0c-.463 0-.836.383-.836.847 0 .463.373.846.836.846.464 0 .847-.383.847-.846 0-.464-.383-.847-.847-.847zm5.04 0c-.463 0-.836.383-.836.847 0 .463.373.846.837.846.463 0 .846-.383.846-.846 0-.464-.383-.847-.846-.847zm8.26 4.818c1.41 0 2.5-.977 2.5-2.399 0-1.391-.999-2.339-2.44-2.339-.484 0-.938.172-1.18.343l.202-1.875h2.954v-.927h-3.8l-.384 3.558.897.313c.232-.293.716-.535 1.25-.535.877 0 1.502.615 1.502 1.462 0 .857-.615 1.472-1.502 1.472-.816 0-1.451-.534-1.522-1.31l-.937.282c.05 1.018 1.129 1.976 2.46 1.955zm5.927 0c1.412 0 2.47-.967 2.47-2.379 0-1.421-1.028-2.359-2.379-2.359-.726 0-1.3.343-1.573.676.05-1.502.454-2.349 1.553-2.349.675 0 1.109.363 1.32 1.079l.888-.272c-.283-1.059-1.009-1.734-2.208-1.734-1.865 0-2.611 1.441-2.611 4.052 0 2.107.877 3.286 2.54 3.286zm0-.927c-.857 0-1.451-.655-1.451-1.462 0-.847.605-1.441 1.451-1.441.877 0 1.462.584 1.462 1.441 0 .857-.585 1.462-1.462 1.462zm7.268-3.024c.444-.333.696-.847.696-1.422 0-1.129-.937-1.955-2.157-1.955-1.24 0-2.157.806-2.157 1.955 0 .575.252 1.09.695 1.422-.635.373-.988.998-.988 1.754 0 1.3 1.028 2.207 2.45 2.207 1.39 0 2.44-.907 2.44-2.207 0-.756-.364-1.391-.979-1.754zm-2.63-1.442c0-.645.493-1.068 1.169-1.068.655 0 1.17.423 1.17 1.068s-.515 1.059-1.17 1.059c-.676 0-1.17-.414-1.17-1.059zm1.169 4.496c-.393 0-.736-.12-1.018-.363-.283-.232-.424-.544-.424-.937 0-.797.635-1.31 1.442-1.31.806 0 1.431.503 1.431 1.31 0 .776-.625 1.3-1.431 1.3zm3.46.756h4.627v-.927h-3.206l1.643-1.452c.343-.292.625-.564.837-.796.424-.474.716-1.069.716-1.825 0-1.27-1.018-2.197-2.359-2.197-1.27 0-2.329.856-2.39 2.157l.938.272c0-.897.615-1.502 1.452-1.502.796 0 1.35.554 1.35 1.28 0 .272-.05.514-.16.736-.212.444-.494.726-1.09 1.24l-2.358 2.077v.937z" mask="url(#c6wjk654sd)"/>
                    <g mask="url(#c6wjk654sd)">
                        <path fill="#FFF" fill-rule="nonzero" d="M0 0H210.854V374.664H0z"/>
                        <path fill="#FAF4EA" fill-rule="nonzero" d="M0 0H210.854V189.852H0z"/>
                        <path fill="#FFA600" fill-rule="nonzero" d="M112.629 22.405c.014.099.004.2-.031.292l-.717 1.76c-.07.19-.234.329-.43.364l-2.036.372c-.307.056-.6-.154-.655-.469-.013-.069-.012-.14.001-.208l.324-1.765c.045-.242.233-.429.471-.465l2.43-.367c.308-.047.596.17.643.486zm-1.47.616l-1.034.157c-.08.012-.142.074-.157.155l-.1.538c-.018.104.05.205.151.225.022.004.046.004.068 0l.92-.167c.063-.012.116-.055.14-.116l.214-.527c.04-.098-.006-.211-.102-.252-.032-.013-.066-.018-.1-.013zm2.926-4.292c.011.093 0 .189-.032.277l-.691 1.775c-.074.196-.245.337-.449.367l-2.8.413c-.31.045-.596-.175-.64-.491-.009-.063-.007-.127.004-.189l.328-1.784c.046-.247.242-.436.486-.467l3.163-.404c.31-.04.592.186.63.503zm-1.77.574l-1.812.232c-.082.01-.147.073-.162.156l-.106.574c-.02.105.048.206.15.225.02.004.041.005.062.002l1.693-.251c.066-.01.122-.054.148-.117l.224-.556c.04-.098-.006-.21-.102-.251-.03-.013-.063-.018-.095-.014zm3.61-5.15c.009.114-.007.228-.047.334l-.97 2.49c-.1.267-.333.455-.609.491l-5.083.667c-.412.054-.79-.245-.843-.668-.01-.076-.008-.155.006-.231l.554-2.724c.06-.347.34-.609.684-.636l5.499-.433c.415-.033.777.285.81.71zm-2.17.75l-3.885.329-.29 1.528 3.827-.541c.131-.019.243-.106.295-.23l.304-.728c.054-.13-.004-.281-.132-.337-.037-.017-.079-.024-.12-.02z" opacity=".7"/>
                        <path fill="#FAF4EA" fill-rule="nonzero" d="M102.143 15.121H98.85c-.828 0-1.538.596-1.682 1.414L94.953 29.07c-.165.931.455 1.82 1.384 1.985.098.017.198.026.298.026h3.318c.818-.012 1.514-.604 1.657-1.413l.596-3.362h1.111l-.49 2.764c-.164.93.455 1.82 1.385 1.985.098.017.198.026.298.026h3.294c.828 0 1.538-.596 1.682-1.414l2.215-12.536c.164-.932-.456-1.82-1.385-1.985-.099-.017-.198-.026-.298-.026H106.7c-.817.012-1.513.603-1.657 1.412l-.577 3.242h-1.111l.47-2.641c.166-.931-.453-1.82-1.382-1.986-.099-.018-.2-.027-.3-.027zm0 .843c.051 0 .102.005.152.014.467.083.78.526.704.993l-.003.015-.573 3.224c-.004.02-.005.04-.005.061 0 .189.15.343.337.348h2.125c.166 0 .307-.117.34-.278l.002-.009.65-3.651c.072-.41.426-.71.84-.717h3.306c.05 0 .101.005.151.014.467.082.78.525.705.992l-.002.015-2.214 12.536c-.073.411-.426.711-.842.718h-3.306c-.051 0-.102-.005-.152-.014-.466-.083-.779-.526-.704-.993l.002-.014.593-3.347c.003-.02.005-.04.005-.06 0-.19-.15-.343-.337-.348h-2.126c-.165 0-.307.117-.34.278l-.001.009-.668 3.772c-.073.41-.426.71-.84.717h-3.307c-.051 0-.102-.005-.151-.014-.467-.083-.78-.525-.705-.992l.002-.015 2.215-12.536c.073-.411.426-.711.84-.718h3.307z"/>
                        <path fill="#E75A2B" fill-rule="nonzero" d="M102.143 15.961h-3.295c-.42 0-.78.303-.854.718L95.78 29.22c-.084.473.23.924.702 1.008.05.008.1.013.151.013h3.294c.42 0 .781-.302.854-.717l.668-3.774c.03-.166.173-.287.342-.287h2.117c.191 0 .347.156.347.348 0 .02-.002.04-.006.06l-.592 3.349c-.084.473.23.924.702 1.008.05.008.1.013.151.013h3.295c.42 0 .78-.303.854-.718l2.215-12.542c.083-.473-.232-.924-.703-1.008-.05-.008-.1-.013-.151-.013h-3.294c-.42 0-.78.302-.854.717l-.65 3.653c-.03.166-.173.286-.341.286h-2.117c-.192 0-.347-.155-.347-.347 0-.02.002-.041.005-.061l.574-3.226c.084-.473-.23-.924-.701-1.008-.05-.01-.1-.014-.152-.014z"/>
                        <path fill="#2B2B2B" fill-rule="nonzero" d="M24.782 16.801c-1.624 0-2.94 1.317-2.94 2.94 0 1.624 1.316 2.94 2.94 2.94 1.623 0 2.94-1.316 2.94-2.94 0-1.623-1.317-2.94-2.94-2.94zm0 1.357c.874 0 1.583.709 1.583 1.583 0 .875-.71 1.583-1.583 1.583-.875 0-1.584-.708-1.584-1.583 0-.874.71-1.583 1.584-1.583z"/>
                        <path fill="#2B2B2B" fill-rule="nonzero" d="M24.362 13.44c-4.64 0-8.401 3.762-8.401 8.401 0 4.64 3.761 8.401 8.4 8.401 4.64 0 8.401-3.761 8.401-8.4 0-4.64-3.76-8.401-8.4-8.401zm0 1.293c3.925 0 7.108 3.183 7.108 7.108 0 3.926-3.183 7.109-7.108 7.109-3.926 0-7.109-3.183-7.109-7.109 0-3.925 3.183-7.108 7.109-7.108z"/>
                        <path fill="#2B2B2B" fill-rule="nonzero" d="M26.156 23.522c2.213 0 4.015 1.832 4.084 4.12l.002.135v.116c0 .37-.288.669-.642.669-.333 0-.607-.263-.64-.6l-.003-.07v-.115c0-1.572-1.194-2.853-2.688-2.915l-.113-.002h-2.75c-1.508 0-2.739 1.243-2.798 2.8l-.002.117v.116c0 .37-.288.669-.642.669-.333 0-.607-.263-.64-.6l-.003-.07v-.115c0-2.305 1.76-4.182 3.956-4.253l.13-.002h2.75z"/>
                        <path fill="#2B2B2B" d="M180.612 16.118c0-1.015.822-1.837 1.836-1.837h3.048c1.014 0 1.836.822 1.836 1.837v3.047c0 1.014-.822 1.836-1.836 1.836h-3.048c-1.014 0-1.836-.822-1.836-1.836v-3.047zm1.836-.449c-.247 0-.448.201-.448.449v3.047c0 .247.2.448.448.448h3.048c.247 0 .448-.2.448-.448v-3.047c0-.248-.2-.449-.448-.449h-3.048zM180.612 23.678c0-1.014.822-1.837 1.836-1.837h3.048c1.014 0 1.836.823 1.836 1.837v3.047c0 1.015-.822 1.837-1.836 1.837h-3.048c-1.014 0-1.836-.822-1.836-1.837v-3.047zm1.836-.448c-.247 0-.448.2-.448.448v3.047c0 .248.2.448.448.448h3.048c.247 0 .448-.2.448-.448v-3.047c0-.247-.2-.448-.448-.448h-3.048zM188.172 16.118c0-1.015.822-1.837 1.837-1.837h3.047c1.014 0 1.837.822 1.837 1.837v3.047c0 1.014-.823 1.836-1.837 1.836h-3.047c-1.015 0-1.837-.822-1.837-1.836v-3.047zm1.837-.449c-.248 0-.449.201-.449.449v3.047c0 .247.201.448.449.448h3.047c.248 0 .448-.2.448-.448v-3.047c0-.248-.2-.449-.448-.449h-3.047zM189.012 23.522c0-.464.376-.84.84-.84.464 0 .84.376.84.84 0 .463-.376.84-.84.84-.464 0-.84-.377-.84-.84zM189.012 26.882c0-.464.376-.84.84-.84.464 0 .84.376.84.84 0 .464-.376.84-.84.84-.464 0-.84-.376-.84-.84zM192.373 23.522c0-.464.376-.84.84-.84.464 0 .84.376.84.84 0 .463-.376.84-.84.84-.464 0-.84-.377-.84-.84zM192.373 26.882c0-.464.376-.84.84-.84.464 0 .84.376.84.84 0 .464-.376.84-.84.84-.464 0-.84-.376-.84-.84z"/>
                        <path fill="#2B2B2B" fill-rule="nonzero" d="M89.886 174.556h2.246c1.808.018 3.086-1.376 3.059-3.24 0-1.828-1.06-3.222-3.086-3.222h-2.22v6.462zM91 173.541v-4.432h1.013c.758 0 1.288.204 1.598.61.31.406.466.932.466 1.588 0 .627-.155 1.153-.466 1.587-.32.434-.822.647-1.516.647H91zm9.38-.924v-.424c0-1.403-.85-2.373-2.155-2.373-1.288 0-2.301 1.053-2.301 2.428 0 1.413 1.013 2.437 2.31 2.437 1.059 0 1.753-.544 2.036-1.33l-.922-.285c-.137.369-.53.701-1.114.701-.703 0-1.206-.554-1.26-1.154h3.405zm-3.397-.849c.11-.581.557-1.034 1.25-1.034.74 0 1.142.573 1.179 1.034h-2.43zm6.797-1.948c-.685 0-1.169.314-1.452.693l-.146-.563h-.904v6.461h1.096v-2.372c.283.37.767.646 1.415.646 1.287 0 2.2-1.07 2.2-2.428 0-1.338-.958-2.437-2.21-2.437zm-.155.997c.73 0 1.269.6 1.269 1.44 0 .416-.119.757-.356 1.025-.247.268-.548.406-.913.406-.73 0-1.251-.59-1.251-1.43s.52-1.44 1.25-1.44zm5.426 3.868c1.351 0 2.374-1.08 2.374-2.437 0-1.357-1.023-2.428-2.374-2.428-1.333-.018-2.392 1.09-2.365 2.428 0 1.357 1.004 2.437 2.365 2.437zm0-1.024c-.74 0-1.27-.591-1.27-1.413 0-.812.53-1.403 1.27-1.403.365 0 .666.13.913.397.246.268.365.6.365 1.006s-.119.739-.365 1.006c-.247.268-.548.407-.913.407zm4.928 1.024c1.105 0 1.845-.637 1.845-1.468 0-.877-.576-1.274-1.68-1.467-.649-.12-.914-.24-.914-.536 0-.258.265-.47.75-.47.41 0 .666.221.775.673l.959-.277c-.192-.84-.822-1.32-1.735-1.32-1.086 0-1.771.646-1.771 1.44 0 .877.62 1.219 1.744 1.431.648.111.84.286.84.545 0 .332-.31.526-.813.526-.484 0-.794-.258-.931-.766l-.968.314c.228.858.913 1.375 1.9 1.375zm2.78-.129h1.095v-4.606h-1.096v4.606zm.529-5.234c.356 0 .657-.296.657-.656 0-.36-.301-.655-.657-.655-.356 0-.64.295-.64.655 0 .36.284.656.64.656zm3.406 5.363c.557 0 .94-.194 1.114-.406l-.457-.785c-.118.102-.255.157-.42.157-.283 0-.429-.166-.429-.489v-2.243h1.16v-.97h-1.16v-1.2h-1.095v1.2h-.786v.97h.786v2.4c0 .877.547 1.366 1.287 1.366z"/>
                        <g fill-rule="nonzero">
                            <use fill="#000" filter="url(#p4hdvjfx4e)" xlink:href="#11a09n4qdf"/>
                            <use fill="#FFF" xlink:href="#11a09n4qdf"/>
                        </g>
                        <path fill="#FFA600" fill-rule="nonzero" d="M105.427 134.409c.696 0 1.26.564 1.26 1.26v10.92c0 .696-.564 1.26-1.26 1.26-.696 0-1.26-.564-1.26-1.26v-10.92c0-.696.564-1.26 1.26-1.26z" transform="rotate(-90 105.427 141.13)"/>
                        <rect width="2.52" height="13.441" x="104.167" y="134.409" fill="#FFA600" fill-rule="nonzero" rx="1.26"/>
                        <path fill="#333" fill-rule="nonzero" d="M103.44 103.545c-.657.746-1.632 1.203-2.799 1.203-1.526 0-2.841-.664-3.604-1.888h2.714l.7-2.282h-4.135c-.021-.124-.021-.31-.021-.56 0-.249 0-.435.02-.56h4.475l.7-2.281h-4.41c.762-1.224 2.035-1.97 3.498-1.97 1.208 0 2.141.373 2.82 1.099l2.226-1.847c-1.25-1.348-2.99-2.032-5.089-2.032-1.632 0-3.032.435-4.24 1.286-1.21.85-2.079 2.012-2.566 3.464h-1.506l-.657 2.281h1.739c-.022.104-.022.27-.022.498 0 .27 0 .477.022.622h-1.082l-.657 2.282h2.142c.996 2.987 3.54 4.667 6.827 4.667 2.12 0 3.88-.767 5.132-2.24l-2.227-1.742zm9.431 3.961c3.71 0 5.577-3.215 5.577-7.57 0-4.356-1.909-7.53-5.62-7.53-3.71 0-5.619 3.174-5.619 7.53 0 2.26.488 4.086 1.442 5.475.955 1.39 2.375 2.095 4.22 2.095zm0-2.78c-1.781 0-2.608-1.72-2.608-4.77 0-2.966.806-4.77 2.566-4.77 1.717 0 2.565 1.804 2.565 4.77 0 2.987-.827 4.77-2.523 4.77z"/>
                        <rect width="120.968" height="26.042" x="45.363" y="46.203" fill="#F7E9D3" fill-rule="nonzero" rx="13.021"/>
                        <path fill="#7A7C89" fill-rule="nonzero" d="M56.284 62.849h1.021v-2.853c0-.912.59-1.472 1.316-1.472.706 0 1.116.332 1.116 1.275v3.05h1.032v-3.226c0-1.38-.674-2.053-1.822-2.053-.705 0-1.252.259-1.642.767V55.59h-1.021v7.26zm10.662-2.251v-.404c0-1.556-.98-2.614-2.453-2.614-1.464 0-2.6 1.193-2.6 2.697 0 1.524 1.084 2.717 2.61 2.717 1.19 0 2.001-.602 2.306-1.463l-.884-.28c-.169.488-.695.892-1.422.892-.916 0-1.547-.715-1.61-1.545h4.053zm-4.043-.799c.126-.777.716-1.369 1.6-1.369.874 0 1.464.643 1.516 1.37h-3.116zm4.86 3.05h4.064l.01-.861h-2.821l2.79-3.475v-.798h-3.959v.871h2.696l-2.78 3.464v.799zm5.536-3.05c.39 0 .705-.321.705-.705 0-.373-.316-.684-.705-.684-.39 0-.706.31-.706.684 0 .405.316.705.706.705zm0 3.122c.39 0 .705-.311.705-.695 0-.383-.316-.695-.705-.695-.39 0-.706.312-.706.695 0 .384.316.695.706.695zm4.225.073c1.832 0 2.695-1.65 2.695-3.806 0-2.127-.895-3.744-2.706-3.744-1.832 0-2.716 1.617-2.716 3.744 0 1.13.232 2.043.684 2.748.453.705 1.137 1.058 2.043 1.058zm0-.954c-.569 0-.99-.26-1.264-.789-.284-.518-.42-1.192-.42-2.032 0-.83.136-1.504.42-2.033.274-.529.695-.788 1.253-.788.548 0 .959.259 1.243.788.274.529.41 1.203.41 2.033 0 .84-.136 1.524-.4 2.043-.273.518-.684.778-1.242.778zm8.292.809l-1.896-2.593 1.843-2.541h-1.137l-1.295 1.804-1.295-1.804h-1.148l1.853 2.551-1.895 2.583h1.137l1.348-1.847 1.337 1.847h1.148zm.768 0h4.832v-.955h-3.348l1.716-1.493c.358-.3.653-.58.874-.82.442-.487.748-1.099.748-1.877 0-1.306-1.064-2.26-2.464-2.26-1.327 0-2.432.881-2.495 2.219l.979.28c0-.923.642-1.545 1.516-1.545.832 0 1.41.57 1.41 1.317 0 .28-.052.529-.168.757-.22.456-.515.747-1.137 1.276l-2.463 2.136v.965zm8.302.145c1.527 0 2.633-1.048 2.633-2.427 0-1.37-.874-2.24-2.148-2.313l1.663-1.711v-.954H92.57v.954h3.211l-1.969 1.98.537.644c.169-.052.348-.083.537-.083.969 0 1.58.612 1.58 1.483 0 .84-.653 1.473-1.58 1.473-.431 0-.8-.135-1.095-.415-.305-.28-.463-.623-.484-1.027l-.969.28c.042 1.151 1.085 2.116 2.548 2.116zm7.645-4.066c.463-.342.727-.87.727-1.462 0-1.162-.98-2.012-2.254-2.012-1.295 0-2.253.83-2.253 2.012 0 .591.263 1.12.727 1.462-.664.384-1.032 1.027-1.032 1.805 0 1.338 1.074 2.271 2.558 2.271 1.453 0 2.548-.933 2.548-2.271 0-.778-.379-1.431-1.021-1.805zm-2.748-1.483c0-.664.516-1.1 1.221-1.1.685 0 1.222.436 1.222 1.1 0 .664-.537 1.09-1.222 1.09-.705 0-1.221-.426-1.221-1.09zm1.221 4.626c-.41 0-.768-.125-1.063-.374-.295-.238-.442-.56-.442-.964 0-.82.663-1.348 1.505-1.348.843 0 1.495.518 1.495 1.348 0 .798-.652 1.338-1.495 1.338zm5.306.778c.179-.986.526-2.085 1.031-3.32.495-1.223 1-2.219 1.496-2.986v-.954h-4.791v.954h3.611c-.463.778-.937 1.773-1.41 2.997-.474 1.234-.811 2.334-.99 3.309h1.053zm8.402-4.813c-.485 0-.874.394-.874.872 0 .477.39.87.874.87s.884-.393.884-.87c0-.478-.4-.872-.884-.872zm5.264 0c-.484 0-.874.394-.874.872 0 .477.39.87.874.87.485 0 .885-.393.885-.87 0-.478-.4-.872-.885-.872zm5.265 0c-.485 0-.874.394-.874.872 0 .477.39.87.874.87s.884-.393.884-.87c0-.478-.4-.872-.884-.872zm8.626 4.958c1.474 0 2.61-1.006 2.61-2.469 0-1.43-1.041-2.406-2.547-2.406-.506 0-.98.177-1.232.353l.21-1.93h3.086v-.953h-3.97l-.4 3.66.937.322c.242-.3.748-.55 1.306-.55.916 0 1.569.633 1.569 1.504 0 .882-.643 1.515-1.57 1.515-.852 0-1.515-.55-1.59-1.349l-.978.29c.052 1.048 1.179 2.033 2.569 2.013zm6.191 0c1.474 0 2.58-.996 2.58-2.448 0-1.462-1.074-2.427-2.485-2.427-.758 0-1.358.353-1.642.695.052-1.545.473-2.416 1.621-2.416.706 0 1.158.373 1.38 1.11l.926-.28c-.295-1.09-1.053-1.784-2.306-1.784-1.948 0-2.727 1.483-2.727 4.169 0 2.167.916 3.38 2.653 3.38zm0-.954c-.895 0-1.516-.675-1.516-1.504 0-.871.632-1.483 1.516-1.483.916 0 1.527.601 1.527 1.483 0 .881-.61 1.504-1.527 1.504zm7.592-3.112c.463-.342.726-.87.726-1.462 0-1.162-.979-2.012-2.253-2.012-1.295 0-2.253.83-2.253 2.012 0 .591.263 1.12.726 1.462-.663.384-1.031 1.027-1.031 1.805 0 1.338 1.074 2.271 2.558 2.271 1.453 0 2.548-.933 2.548-2.271 0-.778-.379-1.431-1.021-1.805zm-2.748-1.483c0-.664.516-1.1 1.221-1.1.685 0 1.222.436 1.222 1.1 0 .664-.537 1.09-1.222 1.09-.705 0-1.221-.426-1.221-1.09zm1.221 4.626c-.41 0-.768-.125-1.063-.374-.295-.238-.443-.56-.443-.964 0-.82.664-1.348 1.506-1.348s1.495.518 1.495 1.348c0 .798-.653 1.338-1.495 1.338zm3.614.778h4.833v-.955h-3.348l1.716-1.493c.358-.3.653-.58.874-.82.442-.487.748-1.099.748-1.877 0-1.306-1.064-2.26-2.464-2.26-1.327 0-2.432.881-2.496 2.219l.98.28c0-.923.642-1.545 1.516-1.545.832 0 1.41.57 1.41 1.317 0 .28-.052.529-.168.757-.221.456-.516.747-1.137 1.276l-2.464 2.136v.965z"/>
                        <path fill="#8F92B3" fill-rule="nonzero" d="M44.523 225.085h2.518c2.285 0 3.554-1.66 3.554-3.708 0-1.965-1.09-3.645-3.65-3.645h-2.422v7.353zm1.058-.945v-5.463h1.311c.974 0 1.661.252 2.053.746.391.494.592 1.145.592 1.943 0 .788-.2 1.44-.603 1.975-.412.536-1.058.799-1.946.799H45.58zm10.994-1.335v-.41c0-1.575-.983-2.646-2.464-2.646-1.47 0-2.613 1.208-2.613 2.73 0 1.545 1.09 2.753 2.623 2.753 1.196 0 2.01-.61 2.317-1.481l-.889-.284c-.169.494-.698.904-1.428.904-.92 0-1.555-.725-1.618-1.566h4.072zm-4.062-.808c.127-.788.72-1.387 1.608-1.387.878 0 1.47.651 1.524 1.387h-3.132zm7.96-2.248c-.814 0-1.417.367-1.766.84l-.138-.704h-.857v7.353h1.037v-2.825c.349.472.963.82 1.735.82 1.544 0 2.507-1.272 2.507-2.743.021-1.407-1.058-2.773-2.518-2.741zm-.127.924c.92 0 1.608.777 1.608 1.817 0 1.061-.687 1.818-1.608 1.818-.941 0-1.608-.757-1.608-1.818 0-.525.148-.956.455-1.302.296-.347.677-.515 1.153-.515zm6.236 4.56c1.597 0 2.697-1.283 2.697-2.743 0-1.47-1.1-2.752-2.697-2.752-1.566-.031-2.73 1.303-2.698 2.752-.032 1.44 1.111 2.774 2.698 2.742zm0-.946c-.963 0-1.661-.757-1.661-1.797 0-1.03.698-1.806 1.66-1.806.953 0 1.662.777 1.662 1.806 0 1.03-.71 1.797-1.661 1.797zm5.68.945c1.205 0 2.072-.672 2.072-1.607 0-.967-.666-1.387-1.904-1.628-.793-.137-1.163-.305-1.163-.715 0-.367.317-.661.994-.661.624 0 .931.357 1.058.892l.92-.262c-.211-.956-.92-1.502-1.978-1.502-.582 0-1.047.147-1.417.43-.37.294-.561.673-.561 1.145 0 .967.73 1.355 1.968 1.576.878.158 1.1.4 1.1.735 0 .452-.445.725-1.09.725-.751 0-1.058-.399-1.227-.987l-.931.283c.286 1.02 1.026 1.576 2.158 1.576zm3.261-.147h1.037v-5.2h-1.037v5.2zm.53-5.967c.37 0 .666-.294.666-.672 0-.368-.297-.672-.667-.672-.38 0-.687.304-.687.672 0 .378.306.672.687.672zm3.79 6.114c.592 0 1.005-.21 1.184-.42l-.476-.735c-.137.136-.306.2-.507.2-.37 0-.55-.2-.55-.61v-2.857h1.417v-.925h-1.417v-1.355h-1.037v1.355h-.942v.925h.942v2.983c0 .893.571 1.44 1.386 1.44zm6.91 0c.593 0 1.006-.21 1.186-.42l-.476-.735c-.138.136-.307.2-.508.2-.37 0-.55-.2-.55-.61v-2.857h1.417v-.925h-1.417v-1.355h-1.037v1.355h-.942v.925h.942v2.983c0 .893.571 1.44 1.386 1.44zm4.271 0c1.598 0 2.698-1.282 2.698-2.742 0-1.47-1.1-2.752-2.698-2.752-1.565-.031-2.73 1.303-2.697 2.752-.032 1.44 1.11 2.774 2.697 2.742zm0-.945c-.962 0-1.66-.757-1.66-1.797 0-1.03.698-1.806 1.66-1.806.952 0 1.661.777 1.661 1.806 0 1.03-.709 1.797-1.66 1.797zm7.18.798h1.185l-2.221-3.14 1.978-2.06h-1.27l-1.988 2.06v-4.213H94.85v7.353h1.037v-1.807l.592-.62 1.724 2.427zm6.543-2.28v-.41c0-1.575-.984-2.646-2.465-2.646-1.47 0-2.612 1.208-2.612 2.73 0 1.545 1.09 2.753 2.623 2.753 1.195 0 2.01-.61 2.317-1.481l-.889-.284c-.17.494-.698.904-1.428.904-.92 0-1.555-.725-1.618-1.566h4.072zm-4.062-.808c.127-.788.72-1.387 1.608-1.387.878 0 1.47.651 1.523 1.387h-3.13zm5.199 3.088h1.037v-2.9c0-.924.57-1.48 1.322-1.48.709 0 1.121.336 1.121 1.292v3.088h1.037v-3.267c0-1.397-.688-2.08-1.84-2.08-.71 0-1.26.273-1.662.809l-.158-.662h-.857v5.2zm7.803.147c1.206 0 2.074-.672 2.074-1.607 0-.967-.667-1.387-1.904-1.628-.794-.137-1.164-.305-1.164-.715 0-.367.317-.661.994-.661.625 0 .931.357 1.058.892l.92-.262c-.21-.956-.92-1.502-1.978-1.502-.581 0-1.047.147-1.417.43-.37.294-.56.673-.56 1.145 0 .967.73 1.355 1.967 1.576.878.158 1.1.4 1.1.735 0 .452-.444.725-1.09.725-.75 0-1.057-.399-1.227-.987l-.93.283c.285 1.02 1.026 1.576 2.157 1.576zm6.619-.147h1.036v-4.275h1.429v-.925h-1.429v-.746c0-.42.19-.63.561-.63.254 0 .434.116.508.2l.508-.704c-.17-.2-.54-.43-1.217-.43-.814 0-1.396.566-1.396 1.449v.861h-.92v.925h.92v4.275zm3.388 0h1.037v-2.878c0-.914.518-1.492 1.206-1.492.307 0 .55.095.677.19l.402-.904c-.201-.137-.53-.263-.942-.263-.624 0-1.11.347-1.364.798l-.159-.65h-.857v5.199zm6.287.147c1.598 0 2.698-1.282 2.698-2.742 0-1.47-1.1-2.752-2.698-2.752-1.565-.031-2.73 1.303-2.697 2.752-.032 1.44 1.11 2.774 2.697 2.742zm0-.945c-.962 0-1.66-.757-1.66-1.797 0-1.03.698-1.806 1.66-1.806.952 0 1.661.777 1.661 1.806 0 1.03-.709 1.797-1.66 1.797zm3.827.798h1.037v-2.941c0-.914.529-1.44 1.216-1.44.677 0 1.016.42 1.016 1.25v3.131h1.036v-2.941c0-.914.519-1.44 1.206-1.44.667 0 1.027.337 1.027 1.25v3.131h1.036v-3.456c0-1.26-.687-1.89-1.703-1.89-.762 0-1.365.335-1.745.85-.244-.504-.74-.85-1.47-.85-.72 0-1.28.304-1.651.808l-.148-.662h-.857v5.2zm15.518-5.2v2.742c0 .935-.571 1.492-1.375 1.492-.751 0-1.174-.368-1.174-1.324v-2.91h-1.037v3.141c0 1.376.783 2.048 1.894 2.048.793 0 1.269-.262 1.692-.777v.714c0 .925-.465 1.471-1.354 1.471-.698 0-1.121-.326-1.28-.977l-.973.21c.285 1.02 1.026 1.66 2.253 1.66 1.597 0 2.39-1.04 2.39-2.385v-5.105h-1.036zm4.808 5.347c1.597 0 2.698-1.282 2.698-2.742 0-1.47-1.1-2.752-2.698-2.752-1.566-.031-2.73 1.303-2.697 2.752-.032 1.44 1.11 2.774 2.697 2.742zm0-.945c-.963 0-1.66-.757-1.66-1.797 0-1.03.697-1.806 1.66-1.806.952 0 1.66.777 1.66 1.806 0 1.03-.708 1.797-1.66 1.797zm8.344-4.402h-1.037v2.91c0 .924-.571 1.481-1.322 1.481-.709 0-1.121-.357-1.121-1.292v-3.099h-1.037v3.278c0 1.397.687 2.07 1.84 2.07.71 0 1.26-.274 1.661-.81l.16.662h.856v-5.2zm1.371 5.2h1.037v-2.878c0-.914.518-1.492 1.206-1.492.307 0 .55.095.677.19l.402-.904c-.201-.137-.53-.263-.942-.263-.624 0-1.11.347-1.364.798l-.159-.65h-.857v5.199zM61.114 243.468h4.57v-.945h-3.512v-2.3h3.068v-.925h-3.068v-2.238h3.512v-.945h-4.57v7.353zm7.468.147c.593 0 1.005-.21 1.185-.42l-.476-.735c-.137.136-.307.2-.508.2-.37 0-.55-.2-.55-.61v-2.857h1.418v-.925h-1.418v-1.355h-1.036v1.355h-.942v.925h.942v2.983c0 .893.57 1.44 1.385 1.44zm2.095-.147h1.026v-2.889c0-.924.592-1.491 1.322-1.491.71 0 1.122.336 1.122 1.292v3.088h1.036v-3.267c0-1.397-.677-2.08-1.83-2.08-.708 0-1.259.263-1.65.778v-2.784h-1.026v7.353zm10.713-2.28v-.409c0-1.576-.984-2.647-2.465-2.647-1.47 0-2.613 1.208-2.613 2.731 0 1.544 1.09 2.752 2.624 2.752 1.195 0 2.01-.609 2.316-1.48l-.888-.285c-.17.494-.699.904-1.428.904-.92 0-1.556-.725-1.619-1.565h4.073zm-4.062-.808c.127-.788.719-1.387 1.608-1.387.878 0 1.47.652 1.523 1.387h-3.131zm5.198 3.088h1.037v-2.878c0-.914.518-1.492 1.206-1.492.307 0 .55.095.677.19l.402-.904c-.201-.137-.529-.263-.942-.263-.624 0-1.11.347-1.364.799l-.159-.652h-.857v5.2zm8.667-2.28v-.409c0-1.576-.983-2.647-2.464-2.647-1.47 0-2.613 1.208-2.613 2.731 0 1.544 1.09 2.752 2.623 2.752 1.196 0 2.01-.609 2.317-1.48l-.889-.285c-.169.494-.698.904-1.428.904-.92 0-1.555-.725-1.618-1.565h4.072zm-4.062-.808c.127-.788.72-1.387 1.608-1.387.878 0 1.47.652 1.524 1.387H87.13zm9.716-2.112H95.81v2.91c0 .925-.57 1.481-1.322 1.481-.709 0-1.121-.357-1.121-1.292v-3.099H92.33v3.278c0 1.397.688 2.07 1.84 2.07.71 0 1.26-.274 1.662-.81l.158.662h.857v-5.2zm1.372 5.2h1.037v-2.941c0-.914.529-1.44 1.216-1.44.677 0 1.016.421 1.016 1.25v3.131h1.036v-2.941c0-.914.519-1.44 1.206-1.44.667 0 1.027.337 1.027 1.25v3.131h1.036v-3.456c0-1.26-.687-1.89-1.703-1.89-.762 0-1.365.335-1.745.85-.244-.504-.74-.85-1.47-.85-.72 0-1.28.304-1.651.808l-.148-.662h-.857v5.2zm13.476.147c.71 0 1.228-.22 1.545-.651l.106.504h.878v-3.445c0-1.23-.857-1.891-2.137-1.891-1.153 0-1.862.525-2.116 1.565l.92.22c.096-.598.455-.945 1.175-.945.75 0 1.121.357 1.121 1.061v.116l-1.259.178c-1.47.21-2.042.81-2.042 1.702 0 .914.72 1.586 1.81 1.586zm.254-.85c-.645 0-1.058-.316-1.058-.788 0-.515.37-.746 1.122-.862l1.174-.178v.682c0 .746-.55 1.145-1.238 1.145zm5.976.85c1.11 0 1.936-.64 2.306-1.607l-.941-.315c-.212.599-.72.977-1.365.977-.952 0-1.64-.756-1.64-1.796s.688-1.807 1.64-1.807c.666 0 1.164.367 1.365.987l.952-.315c-.328-.977-1.164-1.618-2.317-1.618-1.597 0-2.676 1.25-2.676 2.753 0 1.48 1.057 2.741 2.676 2.741zm5.898 0c1.11 0 1.936-.64 2.306-1.607l-.941-.315c-.212.599-.72.977-1.365.977-.952 0-1.64-.756-1.64-1.796s.688-1.807 1.64-1.807c.667 0 1.164.367 1.365.987l.952-.315c-.328-.977-1.164-1.618-2.317-1.618-1.597 0-2.676 1.25-2.676 2.753 0 1.48 1.058 2.741 2.676 2.741zm5.92 0c1.598 0 2.698-1.281 2.698-2.741 0-1.471-1.1-2.753-2.698-2.753-1.565-.031-2.73 1.303-2.697 2.753-.032 1.439 1.11 2.773 2.697 2.741zm0-.945c-.962 0-1.66-.756-1.66-1.796 0-1.03.698-1.807 1.66-1.807.952 0 1.661.777 1.661 1.807 0 1.029-.709 1.796-1.66 1.796zm8.344-4.402h-1.037v2.91c0 .925-.57 1.481-1.322 1.481-.709 0-1.121-.357-1.121-1.292v-3.099h-1.037v3.278c0 1.397.688 2.07 1.84 2.07.71 0 1.26-.274 1.661-.81l.16.662h.856v-5.2zm1.372 5.2h1.037v-2.9c0-.923.57-1.48 1.322-1.48.709 0 1.121.336 1.121 1.292v3.088h1.037v-3.267c0-1.397-.688-2.08-1.84-2.08-.71 0-1.26.273-1.662.81l-.158-.663h-.857v5.2zm7.677.147c.593 0 1.005-.21 1.185-.42l-.476-.735c-.137.136-.307.2-.508.2-.37 0-.55-.2-.55-.61v-2.857h1.418v-.925h-1.418v-1.355h-1.036v1.355h-.942v.925h.942v2.983c0 .893.57 1.44 1.385 1.44zm2.486-.073c.391 0 .708-.315.708-.704 0-.389-.317-.704-.708-.704-.392 0-.71.315-.71.704 0 .389.318.704.71.704z"/>
                    </g>
                </g>
            </g>
        </g>
    </g>
</svg>
