<svg xmlns="http://www.w3.org/2000/svg" xmlns:xlink="http://www.w3.org/1999/xlink" width="100%" height="100%" viewBox="0 0 417 496">
    <defs>
        <filter id="9cymnsgp7a" width="198.2%" height="171.5%" x="-49.1%" y="-35.8%" filterUnits="objectBoundingBox">
            <feGaussianBlur in="SourceGraphic" stdDeviation="34.357"/>
        </filter>
        <filter id="t5iggxoh5b" width="157.9%" height="145.9%" x="-29%" y="-22.9%" filterUnits="objectBoundingBox">
            <feGaussianBlur in="SourceGraphic" stdDeviation="17.598"/>
        </filter>
        <rect id="832v7xw0jc" width="209.956" height="271.338" x=".239" y="0" rx="18.855"/>
        <path id="ozhalxmsme" d="M3.483.225c.283-.3.743-.3 1.026 0 .284.3.284.785 0 1.084l-1.7 1.795h8.41c.378 0 .688.305.723.693l.004.074c0 .424-.325.767-.726.767H2.81l1.7 1.795c.264.28.282.721.052 1.023l-.053.062c-.283.3-.743.3-1.026 0L.544 4.413c-.283-.299-.283-.785 0-1.084L3.483.225z"/>
    </defs>
    <g fill="none" fill-rule="evenodd">
        <g>
            <g>
                <g opacity=".828">
                    <path fill="#A3B0D5" d="M20.161 0H230.175V288.139H20.161z" filter="url(#9cymnsgp7a)" opacity=".218" transform="translate(-644 -1720) translate(695 1799) translate(31.922 24.841)"/>
                    <path fill="#767B8C" fill-opacity=".49" d="M0 6.72H182.292V236.895H0z" filter="url(#t5iggxoh5b)" opacity=".129" transform="translate(-644 -1720) translate(695 1799) translate(31.922 24.841)"/>
                </g>
                <g transform="translate(-644 -1720) translate(695 1799)">
                    <mask id="leoz13ypyd" fill="#fff">
                        <use xlink:href="#832v7xw0jc"/>
                    </mask>
                    <rect width="214.146" height="275.528" x="-1.856" y="-2.095" stroke="#FFF" stroke-width="4.19" rx="18.855"/>
                    <g mask="url(#leoz13ypyd)">
                        <g>
                            <path fill="#FFF" fill-rule="nonzero" d="M0 20.161H210.854V394.825H0z" transform="translate(0 -26.882)"/>
                            <path fill="#FAF4EA" fill-rule="nonzero" d="M0 0H210.854V374.664H0z" transform="translate(0 -26.882)"/>
                            <g transform="translate(0 -26.882) translate(0 26.882)">
                                <path fill="#FFF" fill-rule="nonzero" d="M0 0H212.366V376.949H0z"/>
                                <path fill="#333" fill-rule="nonzero" d="M88.235 23.891h1.951l-3.477-9.29h-2.004l-3.491 9.29h1.964l.677-1.832h3.703l.677 1.832zm-3.743-3.557l1.208-3.278 1.221 3.278h-2.429zm6.612 3.557h1.884v-3.783c0-.889.412-1.34 1.062-1.34.637 0 .982.398.982 1.208v3.915h1.885v-3.783c0-.889.412-1.34 1.062-1.34.65 0 .969.398.969 1.208v3.915h1.885v-4.38c0-1.699-.797-2.495-2.137-2.495-.916 0-1.62.411-2.044.942-.345-.624-.93-.942-1.752-.942-.89 0-1.62.425-1.991.916l-.266-.73h-1.54v6.69zm14.41.186c1.912 0 3.491-1.473 3.491-3.53 0-2.058-1.58-3.531-3.49-3.531-1.925 0-3.504 1.473-3.504 3.53 0 2.058 1.566 3.531 3.504 3.531zm0-1.752c-.942 0-1.619-.73-1.619-1.779 0-1.048.677-1.778 1.62-1.778.902 0 1.606.756 1.606 1.778 0 1.049-.704 1.779-1.606 1.779zm10.854-5.123h-1.884v3.597c0 1.008-.478 1.526-1.261 1.526-.77 0-1.155-.478-1.155-1.447v-3.676h-1.885v3.875c0 2.031.81 3 2.456 3 .796 0 1.433-.319 1.924-.942l.266.756h1.54v-6.69zm1.463 6.69h1.884v-3.598c0-1.009.478-1.526 1.261-1.526.77 0 1.155.478 1.155 1.447v3.676h1.885v-3.876c0-2.03-.81-3-2.443-3-.796 0-1.433.32-1.924.943l-.279-.756h-1.54v6.69zm10.276.185c.89 0 1.473-.305 1.752-.624l-.743-1.354c-.146.146-.345.226-.571.226-.372 0-.557-.212-.557-.637v-2.84h1.592v-1.646h-1.592v-1.74h-1.885v1.74h-1.115v1.645h1.115v3.133c0 1.34.876 2.097 2.004 2.097z"/>
                                <path fill="#2B2B2B" fill-rule="nonzero" d="M192.663 14.6h.004c.43 0 .779.349.779.779v9.06c0 .43-.35.78-.78.78h-.003c-.43 0-.779-.35-.779-.78v-9.06c0-.43.349-.78.779-.78z" transform="rotate(-135 192.665 19.909)"/>
                                <path fill="#2B2B2B" fill-rule="nonzero" d="M192.663 14.6h.004c.43 0 .778.35.778.78v9.06c0 .43-.348.779-.778.779h-.004c-.43 0-.779-.349-.779-.779v-9.06c0-.43.349-.78.779-.78z" transform="rotate(-45 192.665 19.91)"/>
                                <g transform="translate(11.946 16.591)">
                                    <mask id="gl5wypncbf" fill="#fff">
                                        <use xlink:href="#ozhalxmsme"/>
                                    </mask>
                                    <path fill="#2B2B2B" fill-rule="nonzero" d="M3.483.225c.283-.3.743-.3 1.026 0 .284.3.284.785 0 1.084l-1.7 1.795h8.41c.378 0 .688.305.723.693l.004.074c0 .424-.325.767-.726.767H2.81l1.7 1.795c.264.28.282.721.052 1.023l-.053.062c-.283.3-.743.3-1.026 0L.544 4.413c-.283-.299-.283-.785 0-1.084L3.483.225z" mask="url(#gl5wypncbf)"/>
                                </g>
                                <rect width="191.129" height="37.164" x="10.618" y="45.128" fill="#F3F3F8" fill-rule="nonzero" rx="7.944"/>
                                <path fill="#2B2B2B" fill-rule="nonzero" d="M26.312 67.028h1.296v-6.233h2.144v-1.2h-5.585v1.2h2.145v6.233zm8.204-2.23v-.488c0-1.614-.988-2.73-2.506-2.73-1.497 0-2.676 1.211-2.676 2.793 0 1.625 1.179 2.804 2.687 2.804 1.231 0 2.038-.627 2.367-1.53l-1.072-.329c-.16.425-.616.807-1.295.807-.818 0-1.402-.637-1.466-1.327h3.96zm-3.95-.977c.127-.669.648-1.189 1.455-1.189.86 0 1.327.658 1.37 1.19h-2.825zm6.877 3.356c.648 0 1.094-.223 1.296-.468l-.531-.902c-.138.117-.298.18-.489.18-.329 0-.499-.19-.499-.562v-2.58h1.349v-1.116H37.22v-1.38h-1.274v1.38h-.913v1.115h.913v2.761c0 1.009.637 1.572 1.497 1.572zm2.1-.149h1.264v-2.899c0-.86.488-1.359 1.168-1.359.647 0 1.03.34 1.03 1.242v3.016h1.263v-3.207c0-1.497-.626-2.24-1.89-2.24-.658 0-1.178.244-1.571.732v-2.718h-1.264v7.433zm10.952-2.23v-.488c0-1.614-.987-2.73-2.506-2.73-1.497 0-2.676 1.211-2.676 2.793 0 1.625 1.18 2.804 2.687 2.804 1.232 0 2.039-.627 2.368-1.53l-1.073-.329c-.159.425-.616.807-1.295.807-.818 0-1.402-.637-1.465-1.327h3.96zm-3.95-.977c.128-.669.648-1.189 1.455-1.189.86 0 1.327.658 1.37 1.19h-2.825zm4.996 3.207h1.274V64.14c0-.85.478-1.37 1.115-1.37.286 0 .51.085.637.18l.456-1.114c-.201-.138-.52-.255-.913-.255-.626 0-1.083.329-1.338.764l-.18-.616H51.54v5.299zM130.033 67.028h1.062v-7.433h-1.062c-.457.308-1.073.584-1.54.67v1.04c.478-.075 1.158-.298 1.54-.542v6.265zm5.218.149c1.848 0 2.718-1.689 2.718-3.897 0-2.177-.902-3.834-2.728-3.834-1.848 0-2.74 1.657-2.74 3.834 0 1.157.234 2.092.69 2.814.457.722 1.147 1.083 2.06 1.083zm0-.977c-.573 0-.998-.266-1.274-.807-.287-.531-.425-1.221-.425-2.081 0-.85.138-1.54.425-2.082.276-.541.7-.807 1.264-.807.552 0 .966.266 1.252.807.277.542.415 1.232.415 2.082 0 .86-.138 1.56-.404 2.091-.276.531-.69.797-1.253.797zm6.398.977c1.848 0 2.719-1.689 2.719-3.897 0-2.177-.903-3.834-2.73-3.834-1.847 0-2.739 1.657-2.739 3.834 0 1.157.234 2.092.69 2.814.457.722 1.147 1.083 2.06 1.083zm0-.977c-.573 0-.998-.266-1.274-.807-.287-.531-.425-1.221-.425-2.081 0-.85.138-1.54.425-2.082.276-.541.7-.807 1.264-.807.552 0 .966.266 1.253.807.276.542.414 1.232.414 2.082 0 .86-.138 1.56-.404 2.091-.276.531-.69.797-1.253.797zm4.014.902c.393 0 .711-.318.711-.711 0-.393-.318-.712-.711-.712-.393 0-.711.319-.711.712 0 .393.318.711.711.711zm3.956.075c1.54 0 2.655-1.073 2.655-2.485 0-1.402-.882-2.294-2.167-2.368l1.678-1.752v-.977h-4.502v.977h3.239l-1.986 2.028.541.658c.17-.053.35-.084.542-.084.977 0 1.593.626 1.593 1.518 0 .86-.659 1.508-1.593 1.508-.435 0-.807-.138-1.104-.425-.308-.287-.467-.637-.489-1.051l-.977.286c.043 1.18 1.094 2.167 2.57 2.167zm6.786-.149h1.062v-1.943h.966v-.913h-.966v-4.577h-1.115l-3.303 4.683v.807h3.356v1.943zm-2.209-2.846l2.209-3.1v3.09l-2.209.01zm11.168 2.995c1.688 0 2.814-.967 2.814-2.931v-4.65h-1.062v4.586c0 1.37-.648 2.018-1.752 2.018-1.115 0-1.763-.627-1.763-2.018v-4.587h-1.062v4.64c0 .977.266 1.71.786 2.198.52.5 1.2.744 2.039.744zm6.887-.011c1.507 0 2.686-.87 2.686-2.187 0-1.232-.786-1.89-2.485-2.24-1.2-.224-1.71-.49-1.71-1.158 0-.754.606-1.19 1.509-1.19.88 0 1.348.468 1.56 1.36l.988-.287c-.33-1.285-1.19-2.028-2.548-2.028-1.466 0-2.57.86-2.57 2.145 0 1.22.892 1.869 2.59 2.166.638.117 1.063.276 1.286.478.212.201.318.456.318.754 0 .796-.658 1.231-1.624 1.231-1.01 0-1.561-.467-1.816-1.454l-.998.286c.35 1.402 1.338 2.124 2.814 2.124zm3.945-.138h2.527c2.294 0 3.568-1.678 3.568-3.748 0-1.986-1.094-3.685-3.663-3.685h-2.432v7.433zm1.062-.956v-5.521h1.316c.977 0 1.667.255 2.06.754s.595 1.157.595 1.964c0 .796-.202 1.455-.605 1.996-.414.542-1.062.807-1.954.807h-1.412zm7.626.956h1.062v-6.456h2.219v-.977h-5.49v.977h2.209v6.456z"/>
                                <path stroke="#E1E1F1" stroke-width="1.324" d="M10.618 100.874c0-4.398 3.566-7.964 7.964-7.964h175.202c4.398 0 7.964 3.566 7.964 7.964v80.964c0 4.398-3.566 7.964-7.964 7.964H18.582c-4.398 0-7.964-3.566-7.964-7.964v-80.964z"/>
                                <path stroke="#E1E1F1" stroke-width="1.324" d="M106.183 157.947h95.565v23.891c0 4.398-3.566 7.964-7.964 7.964h-87.601v-31.855zM10.618 157.947h95.565v31.855H18.582c-4.398 0-7.964-3.566-7.964-7.964v-23.89z"/>
                                <path fill="#888BAA" fill-rule="nonzero" d="M41.74 177.33c1.54 0 2.74-.891 2.74-2.23 0-1.263-.786-1.953-2.517-2.293-1.104-.223-1.56-.456-1.56-1.008 0-.67.52-1.03 1.327-1.03.775 0 1.179.393 1.39 1.2l1.211-.34c-.329-1.285-1.242-2.028-2.601-2.028-1.53 0-2.623.923-2.623 2.198 0 1.231.881 1.9 2.623 2.23 1.094.18 1.455.53 1.455 1.072 0 .68-.584 1.062-1.445 1.062-.923 0-1.37-.404-1.635-1.296l-1.21.35c.35 1.37 1.37 2.114 2.845 2.114zm8.724-2.367v-.489c0-1.614-.987-2.728-2.506-2.728-1.497 0-2.676 1.21-2.676 2.792 0 1.625 1.179 2.803 2.687 2.803 1.232 0 2.039-.626 2.368-1.529l-1.073-.329c-.16.425-.616.807-1.295.807-.818 0-1.402-.637-1.466-1.327h3.961zm-3.95-.977c.128-.669.648-1.19 1.455-1.19.86 0 1.327.66 1.37 1.19h-2.825zm4.996 3.207h1.274v-2.91c0-.86.488-1.359 1.168-1.359.69 0 1.03.414 1.03 1.232v3.037h1.274v-3.207c0-1.518-.67-2.24-1.9-2.24-.68 0-1.222.265-1.615.785l-.18-.637H51.51v5.299zm8.36.148c.797 0 1.36-.36 1.688-.796l.17.648h1.052v-7.433h-1.275v2.729c-.329-.425-.892-.743-1.645-.743-1.476 0-2.56 1.231-2.56 2.792 0 1.54 1.115 2.803 2.57 2.803zm.18-1.146c-.838 0-1.475-.701-1.475-1.657 0-.945.637-1.646 1.476-1.646.85 0 1.465.68 1.465 1.646 0 .966-.616 1.657-1.465 1.657zm12.132.998h1.328l-2.782-7.433h-1.36l-2.781 7.433h1.327l.616-1.667h3.037l.615 1.667zm-3.217-2.835l1.083-2.92 1.083 2.92h-2.166zm5.378 2.835h1.274v-7.433h-1.274v7.433zm2.55 0h1.275v-7.433h-1.274v7.433zM152.086 177.193h4.672v-1.168h-3.377v-2.007h2.93v-1.136h-2.93v-1.954h3.377v-1.168h-4.672v7.433zm8.84.148c.872 0 1.572-.244 2.114-.743.541-.499.807-1.263.807-2.304v-4.534h-1.296v4.46c0 1.284-.541 1.922-1.624 1.922-1.073 0-1.625-.606-1.625-1.922v-4.46h-1.295v4.523c0 2.124 1.274 3.058 2.92 3.058zm4.474-.148h1.296v-2.91h1.104l1.625 2.91h1.433l-1.773-3.09c.849-.287 1.455-1.02 1.455-2.134 0-1.264-.892-2.21-2.421-2.21H165.4v7.434zm1.296-4.046v-2.22h1.317c.775 0 1.242.415 1.242 1.105 0 .68-.457 1.115-1.221 1.115h-1.338z"/>
                                <path fill="#888BAA" fill-rule="nonzero" d="M152.086 177.193h4.672v-1.168h-3.377v-2.007h2.93v-1.136h-2.93v-1.954h3.377v-1.168h-4.672v7.433zm8.84.148c.872 0 1.572-.244 2.114-.743.541-.499.807-1.263.807-2.304v-4.534h-1.296v4.46c0 1.284-.541 1.922-1.624 1.922-1.073 0-1.625-.606-1.625-1.922v-4.46h-1.295v4.523c0 2.124 1.274 3.058 2.92 3.058zm4.474-.148h1.296v-2.91h1.104l1.625 2.91h1.433l-1.773-3.09c.849-.287 1.455-1.02 1.455-2.134 0-1.264-.892-2.21-2.421-2.21H165.4v7.434zm1.296-4.046v-2.22h1.317c.775 0 1.242.415 1.242 1.105 0 .68-.457 1.115-1.221 1.115h-1.338z"/>
                                <path stroke="#888BAA" stroke-linecap="round" stroke-width="1.324" d="M138.448 173.476L138.448 178.574M136.047 176.873L138.358 179.184M140.85 176.873L138.538 179.184M143.392 174.937L143.392 169.839M140.991 171.54L143.302 169.23M145.794 171.54L143.482 169.23"/>
                                <path stroke="#888BAA" stroke-linecap="round" stroke-width="1.192" d="M138.448 173.476L138.448 178.574M136.047 176.873L138.358 179.184M140.85 176.873L138.538 179.184M143.392 174.937L143.392 169.839M140.991 171.54L143.302 169.23M145.794 171.54L143.482 169.23"/>
                                <rect width="191.129" height="42.473" x="10.618" y="216.348" stroke="#E1E1F1" stroke-width="1.324" rx="7.944"/>
                                <path fill="#2B2B2B" fill-rule="nonzero" d="M77.994 141.356h12.37v-3h-7.751l3.929-3.424c1.274-1.115 2.23-2.15 2.867-3.132.61-.983.929-2.15.929-3.505 0-3.344-2.788-5.893-6.345-5.893-3.398 0-6.211 2.336-6.37 5.76l2.999.824c-.027-2.15 1.354-3.584 3.371-3.584 1.832 0 3.106 1.3 3.106 2.92 0 1.779-.823 2.84-2.84 4.566l-6.265 5.468v3zm25.285-10.008c1.062-.876 1.673-2.177 1.673-3.663 0-3.053-2.549-5.283-5.867-5.283s-5.866 2.204-5.866 5.283c0 1.487.584 2.76 1.645 3.69-1.46.982-2.336 2.601-2.336 4.486 0 3.424 2.814 5.867 6.557 5.867 3.743 0 6.557-2.443 6.557-5.867 0-1.911-.876-3.477-2.363-4.513zm-6.901-3.69c0-1.486 1.141-2.495 2.707-2.495 1.566 0 2.708 1.009 2.708 2.495 0 1.514-1.195 2.496-2.708 2.496-1.513 0-2.707-.982-2.707-2.496zm2.707 11.15c-1.885 0-3.318-1.195-3.318-3s1.487-3.053 3.318-3.053c1.832 0 3.318 1.248 3.318 3.053s-1.433 3-3.318 3zm10.463 2.734c1.088 0 2.017-.903 2.017-1.991 0-1.142-.876-2.018-2.017-2.018-1.089 0-1.991.93-1.991 2.018 0 1.088.902 1.99 1.99 1.99zm6.364-.186h3.238v-18.582h-3.238c-1.168.823-2.734 1.487-3.876 1.672v3.265c1.195-.132 2.947-.716 3.876-1.327v14.972zm14.443 0h3.239l.027-4.699h2.15v-2.76h-2.15l-.027-11.123h-3.45l-8.097 11.468v2.415h8.335l-.027 4.699zm-4.778-7.46l4.778-6.636.027 6.637h-4.805z"/>
                                <path fill="#333" fill-rule="nonzero" d="M96.735 114.959c.87 0 1.571-.244 2.113-.743.541-.5.807-1.264.807-2.305v-4.534h-1.296v4.46c0 1.285-.541 1.922-1.624 1.922-1.073 0-1.625-.605-1.625-1.922v-4.46h-1.295v4.524c0 2.124 1.274 3.058 2.92 3.058zm6.947-.01c1.54 0 2.74-.893 2.74-2.23 0-1.264-.786-1.954-2.517-2.294-1.104-.223-1.56-.457-1.56-1.009 0-.669.52-1.03 1.327-1.03.775 0 1.178.393 1.39 1.2l1.211-.34c-.329-1.285-1.242-2.028-2.601-2.028-1.53 0-2.623.924-2.623 2.198 0 1.232.881 1.9 2.623 2.23 1.093.18 1.454.53 1.454 1.072 0 .68-.584 1.062-1.444 1.062-.923 0-1.37-.403-1.635-1.295l-1.21.35c.35 1.37 1.37 2.113 2.845 2.113zm3.914-.139h2.612c2.102.021 3.589-1.582 3.557-3.727 0-2.102-1.232-3.706-3.589-3.706h-2.58v7.433zm1.295-1.168v-5.097h1.179c.881 0 1.497.234 1.858.701.361.467.542 1.073.542 1.827 0 .722-.18 1.327-.542 1.826-.372.499-.956.743-1.763.743h-1.274zm7.381 1.168h1.296v-6.233h2.145v-1.2h-5.586v1.2h2.145v6.233z"/>
                                <path fill="#2B2B2B" fill-rule="nonzero" d="M24.581 240.902h1.03v-2.92c0-.934.595-1.507 1.328-1.507.711 0 1.125.34 1.125 1.306v3.121h1.04V237.6c0-1.412-.679-2.102-1.836-2.102-.712 0-1.264.265-1.657.786v-2.814h-1.03v7.432zm10.753-2.304v-.414c0-1.593-.987-2.676-2.474-2.676-1.476 0-2.623 1.221-2.623 2.761 0 1.561 1.094 2.782 2.634 2.782 1.2 0 2.017-.616 2.325-1.497l-.892-.287c-.17.5-.7.913-1.433.913-.924 0-1.561-.732-1.625-1.582h4.088zm-4.077-.817c.127-.797.722-1.402 1.614-1.402.881 0 1.476.658 1.529 1.402h-3.143zm4.901 3.121h4.099l.01-.88h-2.845l2.813-3.558v-.818h-3.992v.892h2.718l-2.803 3.547v.817zm5.583-3.121c.392 0 .711-.33.711-.722 0-.383-.319-.701-.711-.701-.393 0-.712.318-.712.7 0 .415.319.723.712.723zm0 3.196c.392 0 .711-.319.711-.712 0-.393-.319-.711-.711-.711-.393 0-.712.318-.712.711 0 .393.319.712.712.712zm4.26.074c1.848 0 2.719-1.688 2.719-3.897 0-2.177-.903-3.833-2.729-3.833-1.848 0-2.74 1.656-2.74 3.833 0 1.158.234 2.092.69 2.814.457.722 1.147 1.083 2.06 1.083zm0-.977c-.573 0-.998-.265-1.274-.807-.286-.53-.424-1.22-.424-2.08 0-.85.138-1.54.424-2.082.276-.542.701-.807 1.264-.807.552 0 .966.265 1.253.807.276.541.414 1.232.414 2.081 0 .86-.138 1.56-.403 2.092-.276.53-.69.796-1.253.796zm8.363.828l-1.911-2.654 1.858-2.602h-1.147l-1.306 1.848-1.306-1.848h-1.157l1.868 2.613-1.91 2.643h1.146l1.359-1.89 1.349 1.89h1.157zm.774 0h4.874v-.976h-3.377l1.731-1.53c.361-.307.658-.594.881-.838.446-.5.754-1.126.754-1.922 0-1.338-1.072-2.315-2.484-2.315-1.338 0-2.453.903-2.517 2.272l.988.287c0-.945.647-1.582 1.529-1.582.838 0 1.422.584 1.422 1.348 0 .287-.053.542-.17.776-.222.467-.52.764-1.146 1.306l-2.485 2.187v.987zm8.373.15c1.54 0 2.655-1.073 2.655-2.486 0-1.401-.881-2.293-2.166-2.367l1.677-1.752v-.977h-4.502v.977h3.239l-1.986 2.028.542.658c.17-.053.35-.085.541-.085.977 0 1.593.626 1.593 1.518 0 .86-.658 1.508-1.593 1.508-.435 0-.807-.138-1.104-.425-.308-.286-.467-.637-.488-1.05l-.977.286c.042 1.179 1.093 2.166 2.57 2.166zm7.71-4.163c.467-.35.733-.892.733-1.497 0-1.19-.988-2.06-2.273-2.06-1.306 0-2.272.85-2.272 2.06 0 .605.265 1.146.733 1.497-.67.393-1.041 1.051-1.041 1.847 0 1.37 1.083 2.326 2.58 2.326 1.466 0 2.57-.956 2.57-2.326 0-.796-.382-1.465-1.03-1.847zm-2.772-1.519c0-.68.52-1.125 1.232-1.125.69 0 1.232.446 1.232 1.125 0 .68-.542 1.115-1.232 1.115-.711 0-1.232-.435-1.232-1.115zm1.232 4.736c-.414 0-.775-.127-1.072-.382-.298-.244-.446-.574-.446-.988 0-.839.669-1.38 1.518-1.38.85 0 1.508.53 1.508 1.38 0 .818-.658 1.37-1.508 1.37zm5.35.796c.181-1.008.531-2.134 1.041-3.397.5-1.253 1.009-2.273 1.508-3.058v-.977h-4.831v.977h3.642c-.468.796-.945 1.815-1.423 3.068-.478 1.264-.818 2.39-.998 3.387h1.061zm8.474-4.926c-.489 0-.881.403-.881.892 0 .488.392.891.88.891.49 0 .893-.403.893-.891 0-.489-.404-.892-.892-.892zm5.309 0c-.488 0-.881.403-.881.892 0 .488.393.891.881.891s.892-.403.892-.891c0-.489-.404-.892-.892-.892zm5.31 0c-.49 0-.882.403-.882.892 0 .488.393.891.881.891.489 0 .892-.403.892-.891 0-.489-.403-.892-.892-.892zm8.698 5.075c1.487 0 2.634-1.03 2.634-2.527 0-1.465-1.052-2.463-2.57-2.463-.51 0-.988.18-1.242.36l.212-1.974h3.111v-.977h-4.003l-.403 3.748.945.33c.244-.309.753-.564 1.316-.564.924 0 1.582.648 1.582 1.54 0 .903-.647 1.55-1.582 1.55-.86 0-1.529-.563-1.603-1.38l-.988.297c.053 1.073 1.19 2.081 2.591 2.06zm6.244 0c1.487 0 2.602-1.02 2.602-2.506 0-1.497-1.083-2.484-2.506-2.484-.765 0-1.37.36-1.656.71.053-1.581.477-2.473 1.635-2.473.711 0 1.168.382 1.39 1.136l.935-.287c-.297-1.115-1.062-1.826-2.325-1.826-1.965 0-2.75 1.518-2.75 4.269 0 2.219.923 3.461 2.675 3.461zm0-.977c-.902 0-1.529-.69-1.529-1.54 0-.891.637-1.518 1.53-1.518.923 0 1.54.616 1.54 1.519 0 .902-.617 1.54-1.54 1.54zm7.656-3.185c.467-.35.733-.892.733-1.497 0-1.19-.988-2.06-2.272-2.06-1.306 0-2.273.85-2.273 2.06 0 .605.266 1.146.733 1.497-.669.393-1.04 1.051-1.04 1.847 0 1.37 1.082 2.326 2.58 2.326 1.465 0 2.57-.956 2.57-2.326 0-.796-.383-1.465-1.03-1.847zm-2.771-1.519c0-.68.52-1.125 1.232-1.125.69 0 1.231.446 1.231 1.125 0 .68-.541 1.115-1.231 1.115-.712 0-1.232-.435-1.232-1.115zm1.232 4.736c-.415 0-.776-.127-1.073-.382-.297-.244-.446-.574-.446-.988 0-.839.67-1.38 1.519-1.38.849 0 1.507.53 1.507 1.38 0 .818-.658 1.37-1.507 1.37zm3.644.796h4.874v-.976h-3.377l1.731-1.53c.361-.307.659-.594.882-.838.446-.5.753-1.126.753-1.922 0-1.338-1.072-2.315-2.484-2.315-1.338 0-2.453.903-2.517 2.272l.988.287c0-.945.647-1.582 1.529-1.582.839 0 1.423.584 1.423 1.348 0 .287-.053.542-.17.776-.223.467-.52.764-1.147 1.306l-2.485 2.187v.987z"/>
                                <path fill="#2B2B2B" fill-rule="nonzero" d="M180.717 231.611h.004c.43 0 .779.349.779.779v9.06c0 .43-.349.78-.779.78h-.004c-.43 0-.778-.35-.778-.78v-9.06c0-.43.348-.779.778-.779z" transform="rotate(-135 180.72 236.92)"/>
                                <path fill="#2B2B2B" fill-rule="nonzero" d="M180.717 231.612h.004c.43 0 .779.349.779.779v9.06c0 .43-.349.78-.779.78h-.004c-.43 0-.779-.35-.779-.78v-9.06c0-.43.35-.779.78-.779z" transform="rotate(-45 180.72 236.921)"/>
                                <path fill="#888BAA" fill-rule="nonzero" d="M73.175 359.03h1.062v-3.1h3.1v-.934h-3.1v-2.442h3.525v-.956h-4.587v7.433zm10.108-2.303v-.414c0-1.593-.988-2.676-2.474-2.676-1.476 0-2.623 1.22-2.623 2.76 0 1.561 1.093 2.783 2.633 2.783 1.2 0 2.018-.616 2.326-1.498l-.892-.286c-.17.499-.701.913-1.434.913-.924 0-1.56-.733-1.624-1.582h4.088zm-4.078-.818c.128-.796.722-1.401 1.614-1.401.881 0 1.476.658 1.53 1.401h-3.144zm10.07.818v-.414c0-1.593-.987-2.676-2.473-2.676-1.476 0-2.623 1.22-2.623 2.76 0 1.561 1.094 2.783 2.633 2.783 1.2 0 2.018-.616 2.326-1.498l-.892-.286c-.17.499-.7.913-1.434.913-.923 0-1.56-.733-1.624-1.582h4.088zm-4.076-.818c.127-.796.722-1.401 1.613-1.401.882 0 1.476.658 1.53 1.401h-3.143zm10.721 3.27c1.848 0 2.719-1.688 2.719-3.896 0-2.177-.903-3.834-2.73-3.834-1.847 0-2.739 1.657-2.739 3.834 0 1.157.233 2.091.69 2.814.457.722 1.147 1.083 2.06 1.083zm0-.976c-.573 0-.998-.266-1.274-.807-.287-.531-.425-1.221-.425-2.081 0-.85.138-1.54.425-2.082.276-.541.7-.807 1.264-.807.552 0 .966.266 1.253.807.276.542.414 1.232.414 2.082 0 .86-.138 1.56-.404 2.091-.276.531-.69.797-1.253.797zm4.014.902c.393 0 .711-.318.711-.711 0-.393-.318-.712-.711-.712-.393 0-.711.319-.711.712 0 .393.318.711.711.711zm4.054.075c1.847 0 2.718-1.689 2.718-3.897 0-2.177-.903-3.834-2.729-3.834-1.848 0-2.74 1.657-2.74 3.834 0 1.157.234 2.091.69 2.814.457.722 1.147 1.083 2.06 1.083zm0-.977c-.574 0-.999-.266-1.275-.807-.286-.531-.424-1.221-.424-2.081 0-.85.138-1.54.424-2.082.276-.541.701-.807 1.264-.807.552 0 .966.266 1.253.807.276.542.414 1.232.414 2.082 0 .86-.138 1.56-.403 2.091-.277.531-.69.797-1.253.797zm4.953.828h1.062v-7.433h-1.062c-.457.308-1.072.584-1.54.67v1.04c.478-.075 1.158-.298 1.54-.542v6.265zm8.62.149c1.688 0 2.813-.967 2.813-2.931v-4.65h-1.062v4.586c0 1.37-.647 2.018-1.752 2.018-1.115 0-1.762-.627-1.762-2.018v-4.587h-1.062v4.64c0 .977.265 1.71.786 2.198.52.5 1.2.744 2.038.744zm6.886-.011c1.508 0 2.686-.87 2.686-2.187 0-1.232-.785-1.89-2.484-2.24-1.2-.224-1.71-.49-1.71-1.158 0-.754.605-1.19 1.508-1.19.881 0 1.349.468 1.56 1.36l.988-.287c-.329-1.285-1.189-2.028-2.548-2.028-1.465 0-2.57.86-2.57 2.145 0 1.22.892 1.869 2.591 2.166.637.117 1.062.276 1.285.478.212.201.319.456.319.754 0 .796-.659 1.231-1.625 1.231-1.009 0-1.56-.467-1.816-1.454l-.998.286c.35 1.402 1.338 2.124 2.814 2.124zm3.945-.138h2.528c2.293 0 3.567-1.678 3.567-3.748 0-1.986-1.093-3.685-3.663-3.685h-2.432v7.433zm1.062-.956v-5.521h1.317c.977 0 1.667.255 2.06.754s.594 1.157.594 1.964c0 .796-.201 1.455-.605 1.996-.414.542-1.062.807-1.954.807h-1.412zm7.627.956h1.062v-6.456h2.219v-.977h-5.49v.977h2.209v6.456z"/>
                                <path fill="#E75A2B" fill-rule="nonzero" d="M10.618 311.912c0-5.131 4.16-9.29 9.291-9.29h172.548c5.13 0 9.29 4.159 9.29 9.29v15.928c0 5.131-4.16 9.29-9.29 9.29H19.909c-5.131 0-9.29-4.159-9.29-9.29v-15.928z"/>
                                <path fill="#FFF" fill-rule="nonzero" d="M87.866 323.332c1.625 0 2.719-.775 3.26-2.166l-1.22-.403c-.288.817-.946 1.38-2.018 1.38-1.391 0-2.443-1.083-2.443-2.665 0-1.519 1.01-2.676 2.41-2.676 1.094 0 1.774.573 2.06 1.518l1.243-.403c-.499-1.497-1.71-2.315-3.313-2.315-2.134-.032-3.727 1.667-3.695 3.865 0 2.326 1.56 3.865 3.716 3.865zm6.87.01c1.572 0 2.761-1.241 2.761-2.802s-1.19-2.793-2.76-2.793c-1.55-.021-2.783 1.253-2.75 2.793 0 1.56 1.167 2.803 2.75 2.803zm0-1.178c-.86 0-1.476-.68-1.476-1.624 0-.935.616-1.614 1.476-1.614.425 0 .776.148 1.062.456.287.308.425.69.425 1.158 0 .467-.138.85-.425 1.157-.286.308-.637.467-1.062.467zm3.8 1.03h1.273v-2.91c0-.86.489-1.358 1.168-1.358.69 0 1.03.414 1.03 1.231v3.037h1.274v-3.207c0-1.518-.668-2.24-1.9-2.24-.68 0-1.221.265-1.614.786l-.18-.637h-1.052v5.298zm7.967.149c.648 0 1.094-.223 1.296-.467l-.531-.903c-.138.117-.297.18-.488.18-.33 0-.5-.19-.5-.562v-2.58h1.349v-1.115h-1.349v-1.38h-1.274v1.38h-.913v1.115h.913v2.76c0 1.01.637 1.572 1.497 1.572zm2.143-.149h1.275v-5.298h-1.275v5.298zm.616-6.02c.414 0 .765-.34.765-.754s-.35-.754-.765-.754c-.414 0-.743.34-.743.754s.33.754.743.754zm1.975 6.02h1.274v-2.91c0-.86.489-1.358 1.168-1.358.69 0 1.03.414 1.03 1.231v3.037h1.275v-3.207c0-1.518-.67-2.24-1.901-2.24-.68 0-1.221.265-1.614.786l-.18-.637h-1.052v5.298zm10.771-5.298h-1.274v2.898c0 .86-.489 1.36-1.168 1.36-.648 0-1.03-.34-1.03-1.232v-3.026h-1.274v3.196c0 1.497.637 2.25 1.9 2.25.68 0 1.222-.265 1.614-.785l.18.637h1.052v-5.298zm6.185 3.068v-.488c0-1.614-.987-2.729-2.506-2.729-1.497 0-2.675 1.21-2.675 2.793 0 1.624 1.178 2.803 2.686 2.803 1.232 0 2.039-.627 2.368-1.53l-1.073-.328c-.159.424-.615.807-1.295.807-.818 0-1.402-.637-1.465-1.328h3.96zm-3.95-.977c.128-.668.648-1.189 1.455-1.189.86 0 1.327.659 1.37 1.19h-2.825z"/>
                            </g>
                        </g>
                    </g>
                    <g mask="url(#leoz13ypyd)">
                        <path fill="#FFF" fill-rule="nonzero" d="M0 0H210V372.75H0z"/>
                        <path fill="#333" fill-rule="nonzero" d="M87.252 23.625h1.93l-3.439-9.188h-1.982l-3.452 9.188h1.943l.67-1.811h3.661l.67 1.811zm-3.7-3.517l1.194-3.242 1.207 3.242h-2.402zm6.537 3.517h1.863v-3.74c0-.88.407-1.326 1.05-1.326.63 0 .972.393.972 1.194v3.872h1.863v-3.74c0-.88.407-1.326 1.05-1.326.644 0 .959.393.959 1.194v3.872h1.863v-4.331c0-1.68-.787-2.468-2.113-2.468-.905 0-1.601.407-2.021.932-.341-.617-.919-.932-1.733-.932-.879 0-1.6.42-1.968.906l-.263-.722H90.09v6.615zm14.25.184c1.89 0 3.452-1.457 3.452-3.492 0-2.034-1.562-3.49-3.452-3.49-1.903 0-3.465 1.456-3.465 3.49 0 2.035 1.549 3.492 3.465 3.492zm0-1.733c-.932 0-1.601-.722-1.601-1.759 0-1.036.67-1.758 1.601-1.758.893 0 1.588.748 1.588 1.758 0 1.037-.695 1.76-1.588 1.76zm10.733-5.066h-1.864v3.557c0 .997-.472 1.51-1.246 1.51-.762 0-1.142-.473-1.142-1.431V17.01h-1.864v3.832c0 2.009.8 2.967 2.428 2.967.787 0 1.418-.315 1.903-.932l.263.748h1.522V17.01zm1.446 6.615h1.864v-3.557c0-.997.472-1.51 1.246-1.51.762 0 1.142.473 1.142 1.431v3.636h1.864v-3.832c0-2.009-.8-2.967-2.415-2.967-.787 0-1.417.315-1.903.932l-.276-.748h-1.522v6.615zm10.162.184c.88 0 1.457-.302 1.732-.617l-.735-1.339c-.144.144-.34.223-.564.223-.367 0-.551-.21-.551-.63v-2.809h1.575V17.01h-1.575v-1.72h-1.864v1.72h-1.102v1.627h1.102v3.098c0 1.326.866 2.074 1.982 2.074z"/>
                        <rect width="189" height="36.75" x="10.5" y="44.625" fill="#F3F3F8" fill-rule="nonzero" rx="7.875"/>
                        <path fill="#2B2B2B" fill-rule="nonzero" d="M24.392 66.281h4.62v-1.155h-3.34v-1.984h2.898v-1.124h-2.898v-1.932h3.34v-1.155h-4.62v7.35zm7.538.147c.64 0 1.081-.22 1.28-.462l-.524-.892c-.137.115-.294.178-.483.178-.326 0-.494-.189-.494-.556v-2.552h1.334v-1.102h-1.334v-1.365h-1.26v1.365h-.903v1.102h.903v2.73c0 .998.63 1.554 1.48 1.554zm2.076-.147h1.25v-2.866c0-.85.483-1.344 1.155-1.344.64 0 1.018.336 1.018 1.228v2.982h1.25v-3.17c0-1.481-.62-2.216-1.869-2.216-.651 0-1.166.241-1.554.724v-2.688h-1.25v7.35zm10.83-2.205v-.483c0-1.596-.976-2.698-2.477-2.698-1.481 0-2.646 1.197-2.646 2.761 0 1.607 1.165 2.772 2.656 2.772 1.218 0 2.016-.62 2.341-1.512l-1.06-.325c-.157.42-.609.798-1.281.798-.808 0-1.386-.63-1.449-1.313h3.917zm-3.905-.966c.126-.661.64-1.176 1.438-1.176.85 0 1.313.651 1.355 1.176H40.93zm4.94 3.171h1.26v-2.856c0-.84.472-1.354 1.102-1.354.283 0 .504.084.63.178l.451-1.102c-.2-.137-.514-.252-.903-.252-.62 0-1.07.325-1.323.756l-.178-.61h-1.04v5.24zM135.936 66.281h1.05v-7.35h-1.05c-.451.305-1.06.578-1.522.662v1.029c.472-.074 1.144-.294 1.522-.536v6.195zm3.008.074c.388 0 .703-.315.703-.704 0-.388-.315-.703-.703-.703-.389 0-.704.315-.704.703 0 .389.315.704.704.704zm3.933.073c1.47 0 2.604-1.018 2.604-2.499 0-1.449-1.04-2.436-2.541-2.436-.504 0-.977.179-1.229.357l.21-1.953h3.077v-.966h-3.959l-.399 3.707.935.325c.241-.304.745-.556 1.302-.556.913 0 1.564.64 1.564 1.522 0 .893-.64 1.533-1.564 1.533-.85 0-1.512-.556-1.586-1.365l-.976.294c.052 1.06 1.176 2.058 2.562 2.037zm6.69-.147h1.05V64.36h.955v-.903h-.955V58.93h-1.103l-3.265 4.63v.799h3.318v1.921zm-2.184-2.814l2.184-3.066v3.056l-2.184.01zm9.095-1.155c.462-.346.725-.882.725-1.48 0-1.176-.977-2.037-2.247-2.037-1.292 0-2.247.84-2.247 2.037 0 .598.262 1.134.724 1.48-.661.389-1.029 1.04-1.029 1.827 0 1.355 1.071 2.3 2.552 2.3 1.449 0 2.54-.945 2.54-2.3 0-.787-.377-1.449-1.018-1.827zm-2.74-1.501c0-.672.514-1.113 1.218-1.113.682 0 1.218.44 1.218 1.113 0 .672-.536 1.102-1.218 1.102-.704 0-1.218-.43-1.218-1.102zm1.218 4.683c-.41 0-.767-.126-1.06-.378-.295-.242-.442-.567-.442-.977 0-.83.662-1.365 1.502-1.365s1.49.525 1.49 1.365c0 .809-.65 1.355-1.49 1.355zm6.187.934c1.827 0 2.688-1.67 2.688-3.853 0-2.153-.893-3.79-2.699-3.79-1.827 0-2.709 1.637-2.709 3.79 0 1.144.231 2.068.683 2.782.451.714 1.134 1.071 2.037 1.071zm0-.966c-.567 0-.987-.262-1.26-.798-.284-.525-.42-1.207-.42-2.058 0-.84.136-1.522.42-2.058.273-.535.693-.798 1.25-.798.545 0 .955.263 1.238.798.273.536.41 1.218.41 2.058 0 .85-.137 1.544-.4 2.069-.272.525-.682.787-1.238.787zm6.896.82h4.536v-.946h-3.486v-2.3h3.045v-.923h-3.045v-2.237h3.486v-.945h-4.536v7.35zm7.546 0h1.05v-6.385h2.194v-.966h-5.428v.966h2.184v6.384zm4.36 0h1.05v-3.266h3.517v3.265h1.05v-7.35h-1.05v3.119h-3.518V58.93h-1.05v7.35z"/>
                        <path stroke="#E1E1F1" stroke-width="1.313" d="M10.5 99.75c0-4.349 3.526-7.875 7.875-7.875h173.25c4.349 0 7.875 3.526 7.875 7.875v80.063c0 4.348-3.526 7.875-7.875 7.875H18.375c-4.35 0-7.875-3.527-7.875-7.875V99.75z"/>
                        <path fill="#888BAA" fill-rule="nonzero" d="M34.724 167.869h-1.439l-2.404 5.628-2.405-5.628h-1.438v7.35h1.27l.01-4.946 2.111 4.946h.903l2.121-4.977v4.977h1.27v-7.35zm2.959 7.497c.682 0 1.165-.21 1.46-.62l.136.473h1.06v-3.444c0-.64-.21-1.134-.62-1.46-.409-.325-.934-.483-1.564-.483-1.228 0-1.9.525-2.194 1.586l1.113.273c.084-.557.399-.85 1.04-.85.64 0 .965.314.965.955v.063l-1.123.157c-1.544.21-2.069.85-2.069 1.733 0 .976.809 1.617 1.796 1.617zm.336-1.019c-.578 0-.924-.262-.924-.672 0-.43.283-.65.945-.745l1.04-.158v.61c0 .598-.463.965-1.061.965zm8.23.872l-1.912-2.657 1.859-2.583H44.81l-1.187 1.67-1.186-1.67H41.03l1.88 2.594-1.901 2.646h1.386l1.228-1.733 1.229 1.733h1.396z"/>
                        <path stroke="#888BAA" stroke-linecap="round" stroke-width="1.313" d="M176.439 171.168L176.439 176.545M173.906 174.75L176.344 177.188M178.972 174.75L176.534 177.188M181.654 172.708L181.654 167.331M179.121 169.126L181.559 166.688M184.187 169.126L181.749 166.688"/>
                        <path stroke="#888BAA" stroke-linecap="round" stroke-width="1.181" d="M176.439 171.168L176.439 176.545M173.906 174.75L176.344 177.188M178.972 174.75L176.534 177.188M181.654 172.708L181.654 167.331M179.121 169.126L181.559 166.688M184.187 169.126L181.749 166.688"/>
                        <rect width="189" height="42" x="10.5" y="213.938" stroke="#E1E1F1" stroke-width="1.313" rx="7.875"/>
                        <path fill="#2B2B2B" fill-rule="nonzero" d="M82.32 140.123c4.568 0 6.8-4.122 6.8-9.582 0-5.433-2.258-9.528-6.826-9.528-4.62 0-6.877 4.094-6.877 9.528 0 2.862.577 5.172 1.759 6.93 1.155 1.759 2.86 2.651 5.145 2.651zm0-2.967c-2.52 0-3.7-2.52-3.7-6.589 0-3.963 1.18-6.588 3.674-6.588 2.415 0 3.623 2.625 3.623 6.588 0 4.017-1.181 6.59-3.596 6.59zm10.08 2.809c1.077 0 1.996-.893 1.996-1.969 0-1.129-.867-1.995-1.995-1.995-1.077 0-1.97.919-1.97 1.995s.893 1.969 1.97 1.969zm10.224.157c4.567 0 6.798-4.12 6.798-9.58 0-5.434-2.257-9.53-6.825-9.53-4.62 0-6.877 4.096-6.877 9.53 0 2.86.577 5.17 1.759 6.93 1.155 1.758 2.861 2.65 5.145 2.65zm0-2.966c-2.52 0-3.702-2.52-3.702-6.589 0-3.963 1.182-6.588 3.675-6.588 2.415 0 3.623 2.625 3.623 6.588 0 4.017-1.181 6.59-3.596 6.59zm12.245 2.625h3.203v-18.375h-3.203c-1.155.814-2.703 1.47-3.832 1.654v3.229c1.181-.132 2.914-.709 3.832-1.313v14.805zm13.154.368c3.754 0 6.563-2.547 6.563-6.274s-2.704-6.195-6.195-6.195c-1.864 0-3.229.787-3.754 1.496.184-3.333 1.155-5.171 3.596-5.171 1.68 0 2.546.892 3.045 2.494l2.835-.84c-.735-2.835-2.651-4.62-5.88-4.62-4.935 0-6.93 3.701-6.93 10.421 0 5.539 2.231 8.689 6.72 8.689zm0-2.94c-1.969 0-3.334-1.444-3.334-3.334 0-1.916 1.418-3.308 3.334-3.308 1.995 0 3.36 1.313 3.36 3.308 0 1.969-1.391 3.334-3.36 3.334z"/>
                        <path fill="#333" fill-rule="nonzero" d="M96.133 113.531h4.62v-1.155h-3.34v-1.984h2.899v-1.124h-2.898v-1.932h3.339v-1.155h-4.62v7.35zm7.482 0h1.281v-6.163h2.121v-1.187h-5.523v1.187h2.121v6.163zm4.443 0h1.281v-3.15h3.245v3.15h1.28v-7.35h-1.28v3.014h-3.245v-3.014h-1.28v7.35z"/>
                        <path fill="#2B2B2B" fill-rule="nonzero" d="M24.308 238.219h1.018v-2.888c0-.924.588-1.49 1.313-1.49.703 0 1.113.335 1.113 1.29v3.088h1.029v-3.266c0-1.396-.672-2.079-1.817-2.079-.703 0-1.25.263-1.638.777v-2.782h-1.018v7.35zm10.632-2.279v-.41c0-1.574-.976-2.645-2.446-2.645-1.46 0-2.594 1.207-2.594 2.73 0 1.543 1.082 2.75 2.604 2.75 1.187 0 1.995-.608 2.3-1.48l-.882-.283c-.168.493-.693.903-1.418.903-.913 0-1.543-.725-1.606-1.565h4.042zm-4.032-.808c.126-.788.714-1.386 1.596-1.386.872 0 1.46.65 1.512 1.386h-3.108zm4.847 3.087h4.053l.01-.872h-2.813l2.782-3.517v-.809H35.84v.882h2.688l-2.772 3.507v.809zm5.52-3.087c.39 0 .704-.326.704-.714 0-.378-.315-.693-.703-.693-.389 0-.704.315-.704.693 0 .41.315.714.704.714zm0 3.16c.39 0 .704-.315.704-.703 0-.389-.315-.704-.703-.704-.389 0-.704.315-.704.704 0 .388.315.703.704.703zm4.214.074c1.827 0 2.688-1.67 2.688-3.854 0-2.152-.892-3.79-2.698-3.79-1.827 0-2.71 1.638-2.71 3.79 0 1.145.232 2.069.683 2.783.452.714 1.134 1.07 2.037 1.07zm0-.966c-.567 0-.987-.263-1.26-.798-.283-.525-.42-1.208-.42-2.058 0-.84.137-1.523.42-2.058.273-.536.693-.798 1.25-.798.546 0 .955.262 1.239.798.273.535.41 1.218.41 2.058 0 .85-.137 1.543-.4 2.068-.273.525-.682.788-1.239.788zm8.27.819l-1.89-2.625 1.837-2.573h-1.134l-1.292 1.827-1.291-1.827h-1.145l1.848 2.583-1.89 2.615h1.134l1.344-1.87 1.334 1.87h1.144zm.765 0h4.82v-.966h-3.34l1.712-1.512c.357-.305.65-.588.871-.83.441-.493.746-1.113.746-1.9 0-1.323-1.06-2.29-2.457-2.29-1.323 0-2.426.893-2.489 2.248l.977.283c0-.934.64-1.564 1.512-1.564.83 0 1.407.577 1.407 1.333 0 .284-.053.536-.168.767-.22.462-.515.756-1.134 1.291l-2.457 2.163v.977zm8.28.147c1.522 0 2.625-1.06 2.625-2.457 0-1.386-.872-2.268-2.142-2.342l1.659-1.732v-.966h-4.452v.966h3.202l-1.963 2.005.535.651c.168-.052.347-.084.536-.084.966 0 1.575.62 1.575 1.502 0 .85-.651 1.49-1.575 1.49-.43 0-.798-.136-1.092-.42-.305-.283-.462-.63-.483-1.039l-.966.284c.042 1.165 1.081 2.142 2.54 2.142zm7.623-4.116c.462-.347.725-.882.725-1.48 0-1.177-.977-2.038-2.247-2.038-1.292 0-2.247.84-2.247 2.037 0 .599.262 1.134.724 1.48-.661.39-1.029 1.04-1.029 1.828 0 1.354 1.071 2.3 2.552 2.3 1.449 0 2.54-.946 2.54-2.3 0-.788-.377-1.45-1.018-1.827zm-2.74-1.502c0-.672.514-1.113 1.218-1.113.682 0 1.218.441 1.218 1.113 0 .672-.536 1.103-1.218 1.103-.704 0-1.218-.43-1.218-1.103zm1.218 4.683c-.41 0-.767-.126-1.06-.378-.295-.241-.442-.567-.442-.976 0-.83.662-1.365 1.502-1.365s1.49.525 1.49 1.365c0 .808-.65 1.354-1.49 1.354zm5.29.788c.18-.998.526-2.11 1.03-3.36.493-1.24.997-2.247 1.49-3.024v-.966h-4.777v.966h3.602c-.462.787-.935 1.795-1.407 3.034-.473 1.25-.809 2.363-.987 3.35h1.05zm8.38-4.872c-.483 0-.872.399-.872.882s.389.882.872.882.882-.4.882-.882c0-.483-.4-.882-.882-.882zm5.25 0c-.483 0-.872.399-.872.882s.389.882.872.882.882-.4.882-.882c0-.483-.4-.882-.882-.882zm5.25 0c-.483 0-.872.399-.872.882s.389.882.872.882.882-.4.882-.882c0-.483-.4-.882-.882-.882zm8.602 5.019c1.47 0 2.604-1.019 2.604-2.5 0-1.448-1.04-2.435-2.541-2.435-.504 0-.977.178-1.229.357l.21-1.953h3.077v-.966h-3.959l-.399 3.706.935.326c.241-.305.745-.557 1.302-.557.913 0 1.564.64 1.564 1.523 0 .892-.64 1.533-1.564 1.533-.85 0-1.512-.557-1.586-1.365l-.976.294c.052 1.06 1.176 2.058 2.562 2.037zm6.174 0c1.47 0 2.573-1.008 2.573-2.478 0-1.48-1.071-2.457-2.478-2.457-.756 0-1.355.357-1.638.703.052-1.564.472-2.446 1.617-2.446.703 0 1.155.378 1.375 1.123l.924-.283c-.294-1.103-1.05-1.806-2.3-1.806-1.942 0-2.719 1.501-2.719 4.22 0 2.195.914 3.424 2.646 3.424zm0-.966c-.892 0-1.512-.683-1.512-1.523 0-.882.63-1.501 1.512-1.501.914 0 1.523.609 1.523 1.501 0 .893-.61 1.523-1.523 1.523zm7.57-3.15c.463-.347.725-.882.725-1.48 0-1.177-.976-2.038-2.247-2.038-1.291 0-2.247.84-2.247 2.037 0 .599.263 1.134.725 1.48-.662.39-1.03 1.04-1.03 1.828 0 1.354 1.072 2.3 2.552 2.3 1.45 0 2.541-.946 2.541-2.3 0-.788-.378-1.45-1.018-1.827zm-2.74-1.502c0-.672.515-1.113 1.218-1.113.683 0 1.218.441 1.218 1.113 0 .672-.535 1.103-1.218 1.103-.703 0-1.218-.43-1.218-1.103zm1.218 4.683c-.41 0-.766-.126-1.06-.378-.294-.241-.441-.567-.441-.976 0-.83.661-1.365 1.501-1.365.84 0 1.491.525 1.491 1.365 0 .808-.65 1.354-1.49 1.354zm3.605.788h4.819v-.966h-3.339l1.712-1.512c.357-.305.65-.588.871-.83.441-.493.746-1.113.746-1.9 0-1.323-1.061-2.29-2.457-2.29-1.323 0-2.426.893-2.489 2.248l.977.283c0-.934.64-1.564 1.512-1.564.829 0 1.407.577 1.407 1.333 0 .284-.053.536-.168.767-.221.462-.515.756-1.134 1.291l-2.457 2.163v.977z"/>
                        <rect width="1.544" height="10.5" x="177.934" y="229.031" fill="#2B2B2B" fill-rule="nonzero" rx=".772" transform="rotate(-135 178.706 234.28)"/>
                        <rect width="1.544" height="10.5" x="177.934" y="229.032" fill="#2B2B2B" fill-rule="nonzero" rx=".772" transform="rotate(-45 178.706 234.282)"/>
                        <path fill="#888BAA" fill-rule="nonzero" d="M72.36 355.031h1.05v-3.066h3.066v-.924H73.41v-2.415h3.486v-.945H72.36v7.35zm9.995-2.278v-.41c0-1.575-.977-2.646-2.447-2.646-1.46 0-2.593 1.208-2.593 2.73 0 1.544 1.081 2.751 2.604 2.751 1.186 0 1.995-.609 2.3-1.48l-.883-.284c-.168.494-.693.903-1.417.903-.914 0-1.544-.724-1.607-1.564h4.043zm-4.032-.809c.126-.787.714-1.386 1.596-1.386.871 0 1.46.651 1.512 1.386h-3.108zm9.958.809v-.41c0-1.575-.976-2.646-2.446-2.646-1.46 0-2.594 1.208-2.594 2.73 0 1.544 1.082 2.751 2.604 2.751 1.187 0 1.995-.609 2.3-1.48l-.882-.284c-.168.494-.693.903-1.418.903-.913 0-1.543-.724-1.606-1.564h4.042zm-4.032-.809c.126-.787.714-1.386 1.596-1.386.872 0 1.46.651 1.512 1.386H84.25zm10.603 3.234c1.827 0 2.688-1.67 2.688-3.853 0-2.153-.893-3.79-2.699-3.79-1.827 0-2.709 1.637-2.709 3.79 0 1.144.23 2.068.683 2.782.451.714 1.134 1.071 2.037 1.071zm0-.966c-.567 0-.987-.262-1.26-.798-.284-.525-.42-1.207-.42-2.058 0-.84.136-1.522.42-2.058.273-.535.693-.798 1.25-.798.545 0 .955.263 1.238.798.273.536.41 1.218.41 2.058 0 .85-.137 1.544-.4 2.069-.272.525-.682.787-1.238.787zm3.969.893c.388 0 .703-.315.703-.704 0-.388-.315-.703-.703-.703-.389 0-.704.315-.704.703 0 .389.315.704.704.704zm4.008.073c1.827 0 2.688-1.67 2.688-3.853 0-2.153-.892-3.79-2.698-3.79-1.827 0-2.71 1.637-2.71 3.79 0 1.144.232 2.068.683 2.782.452.714 1.134 1.071 2.037 1.071zm0-.966c-.567 0-.987-.262-1.26-.798-.283-.525-.42-1.207-.42-2.058 0-.84.137-1.522.42-2.058.273-.535.693-.798 1.25-.798.546 0 .955.263 1.239.798.273.536.41 1.218.41 2.058 0 .85-.137 1.544-.4 2.069-.273.525-.682.787-1.239.787zm4.898.82h1.05v-7.35h-1.05c-.451.304-1.06.577-1.522.66v1.03c.472-.074 1.144-.294 1.522-.536v6.195zm8.524.146c1.67 0 2.782-.955 2.782-2.898v-4.599h-1.05v4.536c0 1.355-.64 1.995-1.732 1.995-1.103 0-1.743-.62-1.743-1.995v-4.536h-1.05v4.589c0 .966.262 1.69.777 2.173.514.494 1.186.735 2.016.735zm6.81-.01c1.49 0 2.656-.861 2.656-2.163 0-1.218-.777-1.87-2.457-2.216-1.186-.22-1.69-.483-1.69-1.144 0-.746.598-1.176 1.49-1.176.872 0 1.334.462 1.544 1.344l.977-.284c-.326-1.27-1.176-2.005-2.52-2.005-1.45 0-2.541.85-2.541 2.12 0 1.208.882 1.849 2.562 2.143.63.115 1.05.273 1.27.472.21.2.315.452.315.746 0 .787-.65 1.218-1.606 1.218-.998 0-1.544-.462-1.796-1.439l-.987.284c.347 1.386 1.323 2.1 2.783 2.1zm3.901-.137h2.5c2.267 0 3.527-1.659 3.527-3.706 0-1.964-1.081-3.644-3.622-3.644h-2.405v7.35zm1.05-.945v-5.46h1.302c.966 0 1.649.252 2.037.746.389.493.588 1.144.588 1.942 0 .788-.2 1.439-.598 1.974-.41.536-1.05.798-1.932.798h-1.397zm7.542.945h1.05v-6.384h2.194v-.966h-5.428v.966h2.184v6.384zM96.605 173.675c-.43.494-1.008.735-1.733.735-1.102 0-1.984-.567-2.373-1.564h1.87l.24-.84h-2.32c-.01-.2-.02-.347-.02-.452 0-.157.01-.315.03-.472h2.563l.241-.84h-2.572c.42-.956 1.28-1.554 2.33-1.554.746 0 1.324.262 1.712.714l.767-.64c-.64-.694-1.46-1.04-2.478-1.04-.82 0-1.533.23-2.153.682-.62.462-1.04 1.071-1.28 1.838h-.83l-.231.84h.882c-.01.2-.021.346-.021.462 0 .115.01.262.02.462h-.65l-.231.84h1.04c.22.787.64 1.396 1.26 1.848.619.451 1.343.672 2.194.672 1.04 0 1.88-.357 2.51-1.082l-.767-.609zm2.997 1.544h1.05v-7.35h-1.05c-.452.304-1.06.577-1.523.661v1.03c.473-.074 1.145-.295 1.523-.536v6.195zm5.013-7.497c-1.47 0-2.573 1.008-2.573 2.478 0 1.48 1.071 2.457 2.478 2.457.756 0 1.355-.357 1.638-.704-.052 1.565-.472 2.447-1.617 2.447-.703 0-1.155-.378-1.375-1.124l-.924.284c.294 1.102 1.05 1.806 2.3 1.806 1.942 0 2.719-1.502 2.719-4.221 0-2.195-.914-3.423-2.646-3.423zm0 .966c.892 0 1.512.682 1.512 1.522 0 .882-.63 1.502-1.512 1.502-.914 0-1.523-.61-1.523-1.502 0-.913.63-1.522 1.523-1.522zm3.931 6.604c.389 0 .704-.315.704-.703 0-.389-.315-.704-.704-.704-.388 0-.703.315-.703.704 0 .388.315.703.703.703zm2.99-.073c.178-.998.525-2.11 1.029-3.36.493-1.24.997-2.247 1.49-3.024v-.966h-4.777v.966h3.602c-.462.787-.935 1.795-1.407 3.034-.473 1.25-.809 2.363-.987 3.35h1.05zm5.855-7.497c-1.47 0-2.572 1.008-2.572 2.478 0 1.48 1.07 2.457 2.478 2.457.756 0 1.354-.357 1.638-.704-.053 1.565-.473 2.447-1.617 2.447-.704 0-1.155-.378-1.376-1.124l-.924.284c.294 1.102 1.05 1.806 2.3 1.806 1.942 0 2.72-1.502 2.72-4.221 0-2.195-.914-3.423-2.647-3.423zm0 .966c.893 0 1.512.682 1.512 1.522 0 .882-.63 1.502-1.512 1.502-.913 0-1.522-.61-1.522-1.502 0-.913.63-1.522 1.522-1.522z"/>
                        <path fill="#E75A2B" fill-rule="nonzero" d="M10.5 308.438c0-5.075 4.113-9.188 9.188-9.188h170.625c5.074 0 9.187 4.113 9.187 9.188v15.75c0 5.074-4.113 9.187-9.188 9.187H19.688c-5.074 0-9.187-4.113-9.187-9.188v-15.75z"/>
                        <path fill="#FFF" fill-rule="nonzero" d="M86.888 319.73c1.606 0 2.688-.766 3.223-2.142l-1.208-.399c-.283.809-.934 1.365-1.995 1.365-1.375 0-2.415-1.07-2.415-2.635 0-1.502.998-2.646 2.384-2.646 1.082 0 1.754.567 2.037 1.501l1.228-.399c-.493-1.48-1.69-2.289-3.275-2.289-2.111-.031-3.686 1.649-3.654 3.822 0 2.3 1.543 3.822 3.675 3.822zm6.793.01c1.554 0 2.73-1.228 2.73-2.771 0-1.544-1.176-2.762-2.73-2.762-1.533-.02-2.751 1.24-2.72 2.762 0 1.543 1.156 2.772 2.72 2.772zm0-1.165c-.85 0-1.46-.672-1.46-1.606 0-.924.61-1.596 1.46-1.596.42 0 .767.147 1.05.451.284.305.42.683.42 1.145 0 .462-.136.84-.42 1.144-.283.305-.63.462-1.05.462zm3.756 1.019h1.26v-2.877c0-.85.483-1.344 1.155-1.344.683 0 1.019.41 1.019 1.218v3.003h1.26v-3.171c0-1.502-.662-2.216-1.88-2.216-.672 0-1.207.263-1.596.777l-.178-.63h-1.04v5.24zm7.88.147c.64 0 1.081-.22 1.281-.462l-.525-.893c-.137.116-.294.179-.483.179-.326 0-.494-.19-.494-.557v-2.551h1.334v-1.103h-1.334v-1.365h-1.26v1.365h-.903v1.103h.903v2.73c0 .997.63 1.554 1.481 1.554zm2.119-.147h1.26v-5.24h-1.26v5.24zm.609-5.954c.41 0 .756-.336.756-.745 0-.41-.347-.746-.756-.746-.41 0-.735.336-.735.746s.325.745.735.745zm1.953 5.954h1.26v-2.877c0-.85.483-1.344 1.155-1.344.683 0 1.019.41 1.019 1.218v3.003h1.26v-3.171c0-1.502-.662-2.216-1.88-2.216-.672 0-1.207.263-1.596.777l-.178-.63h-1.04v5.24zm10.65-5.24h-1.26v2.867c0 .85-.482 1.344-1.154 1.344-.64 0-1.019-.336-1.019-1.218v-2.993h-1.26v3.16c0 1.481.63 2.227 1.88 2.227.672 0 1.207-.263 1.596-.777l.178.63h1.04v-5.24zm6.117 3.035v-.483c0-1.596-.976-2.699-2.478-2.699-1.48 0-2.646 1.197-2.646 2.762 0 1.606 1.166 2.772 2.657 2.772 1.218 0 2.016-.62 2.341-1.512l-1.06-.326c-.158.42-.61.798-1.281.798-.809 0-1.386-.63-1.45-1.312h3.917zm-3.906-.966c.126-.662.64-1.176 1.439-1.176.85 0 1.312.65 1.354 1.176h-2.793z"/>
                        <path stroke="#E1E1F1" stroke-width="1.313" d="M10.5 155.531L199.5 155.531"/>
                    </g>
                </g>
            </g>
        </g>
    </g>
</svg>
