<svg xmlns="http://www.w3.org/2000/svg" xmlns:xlink="http://www.w3.org/1999/xlink" width="100%" height="100%" viewBox="0 0 417 496">
    <defs>
        <filter id="hg2ap8s36a" width="198.2%" height="171.5%" x="-49.1%" y="-35.8%" filterUnits="objectBoundingBox">
            <feGaussianBlur in="SourceGraphic" stdDeviation="34.357"/>
        </filter>
        <filter id="2x858yokgb" width="157.9%" height="145.9%" x="-29%" y="-22.9%" filterUnits="objectBoundingBox">
            <feGaussianBlur in="SourceGraphic" stdDeviation="17.598"/>
        </filter>
        <rect id="c2xk00inuc" width="209.956" height="271.338" x=".239" y="0" rx="18.855"/>
    </defs>
    <g fill="none" fill-rule="evenodd">
        <g>
            <g>
                <g opacity=".828">
                    <path fill="#A3B0D5" d="M20.161 0H230.175V288.139H20.161z" filter="url(#hg2ap8s36a)" opacity=".218" transform="translate(-646 -1720) translate(697 1799) translate(31.922 24.841)"/>
                    <path fill="#767B8C" fill-opacity=".49" d="M0 6.72H182.292V236.895H0z" filter="url(#2x858yokgb)" opacity=".129" transform="translate(-646 -1720) translate(697 1799) translate(31.922 24.841)"/>
                </g>
                <g transform="translate(-646 -1720) translate(697 1799)">
                    <mask id="djyw3rd13d" fill="#fff">
                        <use xlink:href="#c2xk00inuc"/>
                    </mask>
                    <rect width="214.146" height="275.528" x="-1.856" y="-2.095" stroke="#FFF" stroke-width="4.19" rx="18.855"/>
                    <g mask="url(#djyw3rd13d)">
                        <g>
                            <path fill="#FFF" fill-rule="nonzero" d="M0.874 62.903H220.162V452.55400000000003H0.874z" transform="translate(-5.04 -80.645)"/>
                            <path fill="#FAF4EA" fill-rule="nonzero" d="M0.874 41.936H220.162V431.587H0.874z" transform="translate(-5.04 -80.645)"/>
                            <g transform="translate(-5.04 -80.645)">
                                <path fill="#FFF" fill-rule="nonzero" d="M0 0H220.797V391.915H0z"/>
                                <path fill="#FAF4EA" fill-rule="nonzero" d="M0 0H220.797V200.098H0z"/>
                                <path fill="#FFA600" fill-rule="nonzero" d="M117.915 23.147c.016.103.005.208-.033.305l-.766 1.835c-.075.198-.249.342-.458.38l-2.175.387c-.328.058-.642-.16-.7-.489-.013-.072-.012-.145 0-.217l.348-1.84c.047-.253.249-.447.503-.486l2.594-.381c.33-.05.637.177.687.506zm-1.57.643l-1.103.163c-.085.012-.153.077-.169.162l-.105.56c-.02.11.05.215.16.235.024.005.049.005.073 0l.982-.174c.068-.012.124-.058.15-.121l.228-.55c.043-.102-.006-.22-.108-.262-.034-.014-.07-.019-.107-.013zm3.126-4.477c.012.098 0 .198-.035.29l-.738 1.85c-.078.205-.262.352-.479.383l-2.991.43c-.33.048-.636-.181-.683-.511-.01-.066-.008-.132.004-.197l.35-1.86c.049-.258.259-.455.52-.487l3.378-.421c.33-.042.632.193.674.523zm-1.89.6l-1.936.241c-.087.011-.157.077-.173.162l-.113.6c-.02.109.051.214.16.234.022.005.044.005.066.002l1.809-.262c.07-.01.13-.056.157-.122l.24-.579c.042-.102-.007-.22-.11-.262-.031-.014-.066-.019-.1-.014zm3.855-5.37c.01.118-.008.237-.05.348l-1.037 2.597c-.105.277-.355.473-.65.511l-5.428.695c-.441.057-.845-.255-.901-.696-.01-.08-.008-.161.005-.241l.593-2.84c.064-.362.364-.635.73-.663l5.874-.452c.443-.034.83.298.864.74zm-2.318.782l-4.15.343-.309 1.592 4.088-.564c.14-.019.259-.11.315-.24l.325-.758c.058-.136-.005-.294-.141-.352-.04-.017-.084-.024-.128-.02z" opacity=".7"/>
                                <path fill="#FAF4EA" fill-rule="nonzero" d="M106.829 15.676h-3.41c-.857 0-1.591.615-1.74 1.46l-2.293 12.948c-.17.962.472 1.88 1.434 2.05.101.018.204.027.307.027h3.435c.847-.013 1.567-.624 1.715-1.46l.617-3.472h1.15l-.507 2.854c-.17.962.47 1.88 1.433 2.05.102.018.205.028.309.028h3.408c.858 0 1.592-.616 1.742-1.46l2.292-12.949c.17-.961-.471-1.879-1.433-2.05-.102-.017-.205-.026-.308-.026H111.545c-.845.012-1.566.623-1.715 1.458l-.597 3.349h-1.15l.487-2.728c.171-.962-.469-1.88-1.43-2.052-.103-.018-.207-.027-.311-.027zm0 .87c.053 0 .105.006.157.015.483.086.807.544.729 1.026l-.003.015-.594 3.33c-.004.02-.005.042-.005.063 0 .195.155.354.35.359h2.199c.17 0 .317-.12.352-.287l.001-.009.673-3.771c.075-.424.44-.734.87-.74H114.98c.052 0 .104.005.156.014.483.085.807.542.73 1.025l-.003.015-2.292 12.948c-.075.424-.44.734-.87.74H109.279c-.053 0-.106-.004-.157-.013-.483-.086-.807-.543-.73-1.026l.003-.014.613-3.457c.004-.02.006-.042.006-.063 0-.195-.155-.353-.35-.358h-2.199c-.172 0-.318.12-.353.286v.01l-.692 3.895c-.075.424-.441.734-.87.74h-3.423c-.052 0-.105-.004-.156-.013-.483-.086-.807-.543-.73-1.026l.003-.014 2.292-12.948c.075-.424.441-.735.87-.741h3.423z"/>
                                <path fill="#E75A2B" fill-rule="nonzero" d="M106.828 16.546h-3.41c-.434 0-.807.313-.882.741l-2.293 12.948c-.086.488.24.954.728 1.04.05.01.103.014.156.014h3.409c.435 0 .807-.312.883-.74l.691-3.896c.03-.171.18-.296.354-.296h2.19c.198 0 .36.16.36.359 0 .02-.003.042-.006.062l-.614 3.457c-.086.488.239.954.728 1.04.051.01.104.014.156.014h3.41c.434 0 .807-.312.883-.741l2.292-12.948c.086-.488-.24-.954-.727-1.04-.052-.01-.105-.014-.157-.014h-3.409c-.434 0-.806.312-.883.74l-.673 3.771c-.03.172-.179.296-.353.296h-2.19c-.198 0-.359-.16-.359-.359 0-.02.002-.042.006-.063l.593-3.33c.088-.488-.237-.954-.725-1.04-.052-.01-.105-.015-.158-.015z"/>
                                <path fill="#FFA600" fill-rule="nonzero" d="M117.915 23.147c.016.103.005.208-.033.305l-.766 1.835c-.075.198-.249.342-.458.38l-2.175.387c-.328.058-.642-.16-.7-.489-.013-.072-.012-.145 0-.217l.348-1.84c.047-.253.249-.447.503-.486l2.594-.381c.33-.05.637.177.687.506zm-1.57.643l-1.103.163c-.085.012-.153.077-.169.162l-.105.56c-.02.11.05.215.16.235.024.005.049.005.073 0l.982-.174c.068-.012.124-.058.15-.121l.228-.55c.043-.102-.006-.22-.108-.262-.034-.014-.07-.019-.107-.013zm3.126-4.477c.012.098 0 .198-.035.29l-.738 1.85c-.078.205-.262.352-.479.383l-2.991.43c-.33.048-.636-.181-.683-.511-.01-.066-.008-.132.004-.197l.35-1.86c.049-.258.259-.455.52-.487l3.378-.421c.33-.042.632.193.674.523zm-1.89.6l-1.936.241c-.087.011-.157.077-.173.162l-.113.6c-.02.109.051.214.16.234.022.005.044.005.066.002l1.809-.262c.07-.01.13-.056.157-.122l.24-.579c.042-.102-.007-.22-.11-.262-.031-.014-.066-.019-.1-.014zm3.855-5.37c.01.118-.008.237-.05.348l-1.037 2.597c-.105.277-.355.473-.65.511l-5.428.695c-.441.057-.845-.255-.901-.696-.01-.08-.008-.161.005-.241l.593-2.84c.064-.362.364-.635.73-.663l5.874-.452c.443-.034.83.298.864.74zm-2.318.782l-4.15.343-.309 1.592 4.088-.564c.14-.019.259-.11.315-.24l.325-.758c.058-.136-.005-.294-.141-.352-.04-.017-.084-.024-.128-.02z" opacity=".7"/>
                                <path fill="#FAF4EA" fill-rule="nonzero" d="M106.829 15.676h-3.41c-.857 0-1.591.615-1.74 1.46l-2.293 12.948c-.17.962.472 1.88 1.434 2.05.101.018.204.027.307.027h3.435c.847-.013 1.567-.624 1.715-1.46l.617-3.472h1.15l-.507 2.854c-.17.962.47 1.88 1.433 2.05.102.018.205.028.309.028h3.408c.858 0 1.592-.616 1.742-1.46l2.292-12.949c.17-.961-.471-1.879-1.433-2.05-.102-.017-.205-.026-.308-.026H111.545c-.845.012-1.566.623-1.715 1.458l-.597 3.349h-1.15l.487-2.728c.171-.962-.469-1.88-1.43-2.052-.103-.018-.207-.027-.311-.027zm0 .87c.053 0 .105.006.157.015.483.086.807.544.729 1.026l-.003.015-.594 3.33c-.004.02-.005.042-.005.063 0 .195.155.354.35.359h2.199c.17 0 .317-.12.352-.287l.001-.009.673-3.771c.075-.424.44-.734.87-.74H114.98c.052 0 .104.005.156.014.483.085.807.542.73 1.025l-.003.015-2.292 12.948c-.075.424-.44.734-.87.74H109.279c-.053 0-.106-.004-.157-.013-.483-.086-.807-.543-.73-1.026l.003-.014.613-3.457c.004-.02.006-.042.006-.063 0-.195-.155-.353-.35-.358h-2.199c-.172 0-.318.12-.353.286v.01l-.692 3.895c-.075.424-.441.734-.87.74h-3.423c-.052 0-.105-.004-.156-.013-.483-.086-.807-.543-.73-1.026l.003-.014 2.292-12.948c.075-.424.441-.735.87-.741h3.423z"/>
                                <path fill="#E75A2B" fill-rule="nonzero" d="M106.828 16.546h-3.41c-.434 0-.807.313-.882.741l-2.293 12.948c-.086.488.24.954.728 1.04.05.01.103.014.156.014h3.409c.435 0 .807-.312.883-.74l.691-3.896c.03-.171.18-.296.354-.296h2.19c.198 0 .36.16.36.359 0 .02-.003.042-.006.062l-.614 3.457c-.086.488.239.954.728 1.04.051.01.104.014.156.014h3.41c.434 0 .807-.312.883-.741l2.292-12.948c.086-.488-.24-.954-.727-1.04-.052-.01-.105-.014-.157-.014h-3.409c-.434 0-.806.312-.883.74l-.673 3.771c-.03.172-.179.296-.353.296h-2.19c-.198 0-.359-.16-.359-.359 0-.02.002-.042.006-.063l.593-3.33c.088-.488-.237-.954-.725-1.04-.052-.01-.105-.015-.158-.015z"/>
                                <path fill="#2B2B2B" fill-rule="nonzero" d="M25.53 17.595c-1.651 0-2.99 1.339-2.99 2.99 0 1.651 1.339 2.99 2.99 2.99 1.651 0 2.99-1.339 2.99-2.99 0-1.651-1.339-2.99-2.99-2.99zm0 1.38c.889 0 1.61.72 1.61 1.61 0 .889-.721 1.61-1.61 1.61-.89 0-1.61-.721-1.61-1.61 0-.89.72-1.61 1.61-1.61z"/>
                                <path fill="#2B2B2B" fill-rule="nonzero" d="M25.53 13.8c-4.954 0-8.97 4.016-8.97 8.97 0 4.954 4.016 8.97 8.97 8.97 4.954 0 8.97-4.016 8.97-8.97 0-4.954-4.016-8.97-8.97-8.97zm0 1.38c4.191 0 7.59 3.398 7.59 7.59s-3.399 7.59-7.59 7.59c-4.192 0-7.59-3.398-7.59-7.59s3.398-7.59 7.59-7.59z"/>
                                <path fill="#2B2B2B" fill-rule="nonzero" d="M27.006 24.753c2.377 0 4.313 1.89 4.386 4.25l.002.139v.12c0 .38-.309.69-.69.69-.357 0-.65-.272-.686-.62l-.004-.07v-.12c0-1.621-1.282-2.943-2.887-3.006l-.121-.003h-2.953c-1.621 0-2.943 1.283-3.006 2.888l-.003.12v.12c0 .381-.308.69-.69.69-.357 0-.65-.271-.686-.619l-.004-.07v-.12c0-2.377 1.89-4.313 4.25-4.386l.139-.003h2.953z"/>
                                <path fill="#2B2B2B" d="M189.058 17.057c0-1.037.848-1.877 1.894-1.877h3.143c1.046 0 1.894.84 1.894 1.877v3.114c0 1.036-.848 1.877-1.894 1.877h-3.143c-1.046 0-1.894-.84-1.894-1.877v-3.114zm1.894-.458c-.255 0-.462.205-.462.458v3.114c0 .253.207.458.462.458h3.143c.255 0 .462-.205.462-.458v-3.114c0-.253-.207-.458-.462-.458h-3.143zM189.058 25.23c0-1.036.848-1.877 1.894-1.877h3.143c1.046 0 1.894.84 1.894 1.877v3.114c0 1.037-.848 1.877-1.894 1.877h-3.143c-1.046 0-1.894-.84-1.894-1.877V25.23zm1.894-.458c-.255 0-.462.205-.462.458v3.114c0 .253.207.458.462.458h3.143c.255 0 .462-.205.462-.458V25.23c0-.253-.207-.458-.462-.458h-3.143zM197.307 17.057c0-1.037.848-1.877 1.894-1.877h3.143c1.046 0 1.894.84 1.894 1.877v3.114c0 1.036-.848 1.877-1.894 1.877H199.2c-1.046 0-1.894-.84-1.894-1.877v-3.114zm1.894-.458c-.256 0-.463.205-.463.458v3.114c0 .253.207.458.463.458h3.143c.255 0 .462-.205.462-.458v-3.114c0-.253-.207-.458-.462-.458H199.2zM198.094 25.035c0-.5.408-.904.912-.904s.912.405.912.904c0 .5-.408.904-.912.904s-.912-.405-.912-.904zM198.094 28.539c0-.5.408-.904.912-.904s.912.404.912.904-.408.904-.912.904-.912-.405-.912-.904zM201.627 25.035c0-.5.409-.904.913-.904.503 0 .912.405.912.904 0 .5-.409.904-.912.904-.504 0-.913-.405-.913-.904zM201.627 28.539c0-.5.409-.904.913-.904.503 0 .912.404.912.904s-.409.904-.912.904c-.504 0-.913-.405-.913-.904z"/>
                                <path fill="#2B2B2B" fill-rule="nonzero" d="M73.335 184.353c1.4 0 2.492-.811 2.492-2.028 0-1.15-.714-1.778-2.289-2.087-1.005-.203-1.42-.415-1.42-.917 0-.609.473-.937 1.207-.937.706 0 1.073.357 1.266 1.091l1.101-.309c-.3-1.169-1.13-1.845-2.367-1.845-1.39 0-2.386.84-2.386 2 0 1.12.802 1.729 2.386 2.028.995.164 1.324.483 1.324.976 0 .618-.531.966-1.314.966-.84 0-1.246-.367-1.488-1.179l-1.1.32c.318 1.245 1.245 1.921 2.588 1.921zm7.936-2.154v-.444c0-1.468-.898-2.483-2.28-2.483-1.361 0-2.434 1.102-2.434 2.54 0 1.479 1.073 2.551 2.444 2.551 1.12 0 1.855-.57 2.154-1.39l-.975-.3c-.145.386-.56.734-1.179.734-.743 0-1.275-.58-1.333-1.208h3.603zm-3.593-.888c.116-.609.59-1.082 1.323-1.082.783 0 1.208.599 1.246 1.082h-2.57zm4.544 2.917h1.16v-2.647c0-.782.444-1.236 1.062-1.236.628 0 .937.376.937 1.12v2.763h1.16v-2.917c0-1.382-.61-2.039-1.73-2.039-.618 0-1.11.242-1.468.715l-.164-.58h-.957v4.82zm7.607.135c.724 0 1.236-.328 1.536-.724l.154.589h.956v-6.762h-1.159v2.483c-.3-.387-.811-.677-1.497-.677-1.343 0-2.328 1.12-2.328 2.54 0 1.402 1.014 2.551 2.338 2.551zm.164-1.043c-.763 0-1.343-.638-1.343-1.507 0-.86.58-1.497 1.343-1.497.773 0 1.333.618 1.333 1.497 0 .879-.56 1.507-1.333 1.507z"/>
                                <circle cx="81.419" cy="149.038" r="19.32" fill="#FFF" fill-rule="nonzero"/>
                                <path fill="#FFA600" d="M88.46 142.94c-.502-1.66-2.254-2.598-3.913-2.096L74 144.032c-.922.28-1.65.988-1.952 1.903-.512 1.55.33 3.223 1.88 3.736l4.447 1.47c.483.16.886.498 1.127.946l2.22 4.124c.457.848 1.297 1.421 2.253 1.535 1.622.195 3.094-.963 3.288-2.585l1.31-10.94c.05-.43.012-.866-.113-1.282zm-3.283-.014c.509-.154 1.046.135 1.2.643.038.128.05.261.034.394l-1.308 10.94c-.052.428-.44.734-.87.683-.252-.03-.474-.182-.594-.406l-2.22-4.125c-.076-.14-.16-.275-.25-.405l1.627-1.939c.385-.46.325-1.147-.135-1.533-.46-.386-1.147-.326-1.532.134L79.5 149.25c-.143-.066-.291-.125-.442-.174l-4.448-1.47c-.41-.136-.632-.578-.497-.988.08-.242.273-.43.516-.503l10.547-3.189z"/>
                                <path fill="#2B2B2B" fill-rule="nonzero" d="M122.834 184.228h2.376c1.913.02 3.265-1.44 3.236-3.39 0-1.913-1.12-3.372-3.265-3.372h-2.347v6.762zm1.178-1.063v-4.636h1.073c.801 0 1.362.212 1.69.637.328.425.493.976.493 1.662 0 .656-.165 1.207-.493 1.661-.338.454-.87.676-1.604.676h-1.159zm9.924-.966v-.444c0-1.468-.899-2.483-2.28-2.483-1.362 0-2.434 1.102-2.434 2.54 0 1.479 1.072 2.551 2.444 2.551 1.12 0 1.854-.57 2.154-1.39l-.976-.3c-.145.386-.56.734-1.178.734-.744 0-1.275-.58-1.333-1.208h3.603zm-3.594-.888c.116-.609.59-1.082 1.324-1.082.782 0 1.207.599 1.246 1.082h-2.57zm7.191-2.039c-.724 0-1.236.329-1.536.725l-.154-.59h-.956v6.762h1.159v-2.482c.3.386.811.676 1.497.676 1.362 0 2.328-1.12 2.328-2.54 0-1.401-1.014-2.55-2.338-2.55zm-.164 1.044c.773 0 1.343.627 1.343 1.507 0 .434-.126.792-.377 1.072-.26.28-.58.425-.966.425-.773 0-1.323-.618-1.323-1.497 0-.88.55-1.507 1.323-1.507zm5.74 4.047c1.43 0 2.512-1.13 2.512-2.55s-1.081-2.54-2.511-2.54c-1.41-.02-2.531 1.14-2.502 2.54 0 1.42 1.063 2.55 2.502 2.55zm0-1.072c-.782 0-1.342-.618-1.342-1.478 0-.85.56-1.468 1.343-1.468.386 0 .705.135.966.415.26.28.386.628.386 1.053 0 .425-.125.773-.386 1.053-.261.28-.58.425-.966.425zm5.215 1.072c1.169 0 1.951-.666 1.951-1.536 0-.918-.608-1.333-1.777-1.536-.686-.125-.966-.25-.966-.56 0-.27.28-.493.792-.493.435 0 .705.232.821.705l1.015-.29c-.203-.878-.87-1.38-1.836-1.38-1.15 0-1.874.676-1.874 1.506 0 .918.657 1.275 1.845 1.498.686.115.889.299.889.57 0 .347-.329.55-.86.55-.512 0-.84-.27-.985-.802l-1.024.329c.241.898.966 1.44 2.01 1.44zm2.94-.135h1.16v-4.82h-1.16v4.82zm.56-5.477c.377 0 .696-.31.696-.686 0-.377-.319-.686-.696-.686-.376 0-.676.31-.676.686 0 .377.3.686.676.686zm3.604 5.612c.59 0 .995-.203 1.179-.425l-.483-.821c-.126.106-.27.164-.445.164-.299 0-.454-.174-.454-.512v-2.347h1.227v-1.014h-1.227v-1.256h-1.159v1.256h-.83v1.014h.83v2.511c0 .918.58 1.43 1.362 1.43z"/>
                                <circle cx="139.378" cy="149.038" r="19.32" fill="#FFF" fill-rule="nonzero"/>
                                <path fill="#FFA600" d="M139.361 141.786c-.695 0-1.26.564-1.26 1.26v4.73h-4.715c-.696 0-1.26.563-1.26 1.259 0 .695.564 1.26 1.26 1.26h4.716v4.731c0 .696.564 1.26 1.26 1.26.695 0 1.258-.564 1.258-1.26v-4.732h4.746c.696 0 1.26-.564 1.26-1.26 0-.695-.564-1.258-1.26-1.258h-4.746v-4.73c0-.696-.563-1.26-1.259-1.26z"/>
                                <path fill="#2B2B2B" fill-rule="nonzero" d="M74.496 109.918c-.685.795-1.7 1.281-2.915 1.281-1.59 0-2.958-.706-3.753-2.01h2.826l.728-2.428h-4.305c-.022-.132-.022-.331-.022-.596 0-.265 0-.464.022-.596h4.659l.728-2.429h-4.592c.795-1.303 2.12-2.098 3.643-2.098 1.258 0 2.23.398 2.937 1.17l2.318-1.964c-1.303-1.436-3.113-2.164-5.3-2.164-1.7 0-3.156.463-4.415 1.369-1.259.905-2.164 2.141-2.672 3.687h-1.567l-.685 2.429h1.81c-.021.11-.021.287-.021.53 0 .287 0 .508.022.662h-1.126l-.685 2.429h2.23c1.038 3.18 3.688 4.968 7.11 4.968 2.208 0 4.04-.817 5.343-2.385l-2.318-1.855zm6.795 3.93h3.18V98.394h-3.18c-.994.684-2.34 1.303-3.29 1.413v3.224c.508-.045 1.082-.177 1.744-.398.64-.199 1.17-.441 1.546-.684v11.9zm11.143.31c3.18 0 5.63-2.142 5.63-5.388 0-3.135-2.252-5.1-5.365-5.1-.773 0-1.523.199-1.899.397l.287-2.693h5.896v-2.981h-8.634l-.795 7.949 2.716.993c.442-.552 1.215-.95 2.164-.95 1.391 0 2.45.972 2.45 2.407 0 1.414-1.059 2.407-2.45 2.407-1.413 0-2.495-.927-2.517-2.362l-2.937.883c.045 2.429 2.43 4.438 5.454 4.438zm13.869-.31h3.18l.021-3.775h1.59v-2.694h-1.59l-.022-8.986h-3.4l-6.624 9.362v2.318h6.867l-.022 3.776zm-3.356-6.469l3.356-4.614.022 4.614h-3.378zm15.04 6.779c3.312 0 5.696-2.274 5.696-5.366 0-2.826-1.59-4.46-3.62-4.835l2.604-2.605v-2.96h-9.626v2.96h5.895l-3.467 3.267 1.612 1.921c.242-.11.552-.154.906-.154 1.501 0 2.517.993 2.517 2.406 0 1.391-1.038 2.407-2.517 2.407-1.48 0-2.495-1.104-2.562-2.517l-2.936.861c.044 2.495 2.23 4.615 5.498 4.615zm8.9-.155c1.038 0 1.854-.86 1.854-1.854 0-1.038-.816-1.855-1.854-1.855-.994 0-1.855.817-1.855 1.855 0 .993.861 1.854 1.855 1.854zm12.752-8.434c.839-.817 1.258-1.81 1.258-2.981 0-2.627-2.252-4.504-5.034-4.504-2.848 0-5.034 1.877-5.034 4.504 0 1.214.463 2.252 1.258 2.98-1.126.862-1.788 2.12-1.788 3.622 0 2.914 2.406 4.968 5.564 4.968 3.113 0 5.564-2.054 5.564-4.968 0-1.502-.662-2.804-1.788-3.621zm-5.72-2.981c0-1.082.818-1.81 1.944-1.81 1.082 0 1.943.728 1.943 1.81s-.861 1.833-1.943 1.833-1.943-.751-1.943-1.833zm1.944 8.7c-1.347 0-2.385-.884-2.385-2.142 0-1.303 1.038-2.208 2.385-2.208 1.325 0 2.384.905 2.384 2.208 0 1.258-1.06 2.141-2.384 2.141zm13.14 2.848c3.863 0 5.806-3.423 5.806-8.06 0-4.636-1.987-8.014-5.85-8.014-3.865 0-5.852 3.378-5.852 8.015 0 2.406.508 4.35 1.502 5.829.993 1.479 2.472 2.23 4.393 2.23zm0-2.959c-1.855 0-2.716-1.833-2.716-5.078 0-3.158.839-5.079 2.671-5.079 1.789 0 2.672 1.921 2.672 5.079 0 3.18-.861 5.078-2.628 5.078z"/>
                                <path fill="#7A7C89" fill-rule="nonzero" d="M58.677 66.93h1.07v-3.037c0-.971.619-1.567 1.38-1.567.74 0 1.171.353 1.171 1.357v3.246h1.082v-3.433c0-1.468-.707-2.186-1.91-2.186-.74 0-1.314.276-1.722.817V59.2h-1.071v7.728zm11.18-2.396v-.431c0-1.656-1.027-2.782-2.573-2.782-1.534 0-2.727 1.27-2.727 2.87 0 1.623 1.138 2.893 2.738 2.893 1.248 0 2.098-.64 2.418-1.557l-.927-.298c-.177.519-.729.95-1.49.95-.961 0-1.624-.762-1.69-1.645h4.25zm-4.24-.85c.133-.828.751-1.458 1.678-1.458.917 0 1.535.685 1.59 1.457h-3.268zm5.096 3.245h4.262l.01-.916h-2.958l2.925-3.698v-.85h-4.15v.927h2.826l-2.915 3.687v.85zm5.804-3.246c.409 0 .74-.342.74-.75 0-.398-.331-.729-.74-.729-.408 0-.74.331-.74.729 0 .43.332.75.74.75zm0 3.323c.409 0 .74-.33.74-.74 0-.408-.331-.739-.74-.739-.408 0-.74.331-.74.74 0 .408.332.74.74.74zm4.43.078c1.922 0 2.827-1.756 2.827-4.052 0-2.263-.938-3.985-2.837-3.985-1.921 0-2.849 1.722-2.849 3.985 0 1.203.243 2.175.718 2.926.475.75 1.192 1.126 2.142 1.126zm0-1.016c-.595 0-1.037-.276-1.324-.839-.298-.552-.442-1.27-.442-2.164 0-.883.144-1.6.442-2.164.287-.563.729-.839 1.314-.839.574 0 1.004.276 1.302.84.287.562.431 1.28.431 2.163 0 .894-.144 1.623-.42 2.175-.287.552-.717.828-1.302.828zm8.695.861l-1.987-2.76 1.931-2.705h-1.192l-1.358 1.921-1.358-1.92h-1.203l1.943 2.715-1.987 2.75h1.192l1.413-1.966 1.402 1.965h1.204zm.805 0h5.067v-1.015h-3.51l1.799-1.59c.375-.32.684-.618.916-.872.464-.52.784-1.17.784-1.999 0-1.39-1.115-2.406-2.583-2.406-1.391 0-2.55.938-2.617 2.362l1.027.298c0-.982.674-1.645 1.59-1.645.872 0 1.48.608 1.48 1.402 0 .299-.056.564-.177.806-.232.486-.541.795-1.193 1.358l-2.583 2.275v1.026zm8.706.155c1.6 0 2.76-1.115 2.76-2.584 0-1.457-.917-2.384-2.253-2.461l1.745-1.822v-1.016h-4.681v1.016h3.367l-2.065 2.109.564.684c.176-.055.364-.088.563-.088 1.015 0 1.656.651 1.656 1.578 0 .895-.685 1.568-1.656 1.568-.453 0-.84-.143-1.149-.441-.32-.299-.485-.663-.507-1.093l-1.016.298c.044 1.225 1.137 2.252 2.672 2.252zm8.015-4.328c.486-.364.762-.927.762-1.556 0-1.237-1.027-2.142-2.363-2.142-1.358 0-2.362.883-2.362 2.142 0 .629.276 1.192.762 1.556-.696.409-1.082 1.093-1.082 1.921 0 1.424 1.126 2.418 2.682 2.418 1.524 0 2.672-.994 2.672-2.418 0-.828-.397-1.523-1.07-1.92zm-2.881-1.579c0-.706.54-1.17 1.28-1.17.718 0 1.281.464 1.281 1.17 0 .707-.563 1.16-1.28 1.16-.74 0-1.281-.453-1.281-1.16zm1.28 4.924c-.43 0-.806-.132-1.115-.397-.309-.254-.463-.596-.463-1.027 0-.872.695-1.435 1.578-1.435.884 0 1.568.552 1.568 1.435 0 .85-.684 1.424-1.568 1.424zm5.563.828c.188-1.049.552-2.219 1.082-3.533.519-1.302 1.049-2.362 1.568-3.179v-1.016h-5.023v1.016h3.786c-.486.828-.982 1.888-1.48 3.19-.496 1.314-.85 2.484-1.037 3.522h1.104zm8.81-5.122c-.508 0-.916.42-.916.927 0 .508.408.927.916.927s.927-.42.927-.927c0-.508-.42-.927-.927-.927zm5.52 0c-.508 0-.916.42-.916.927 0 .508.408.927.916.927s.927-.42.927-.927c0-.508-.42-.927-.927-.927zm5.52 0c-.508 0-.917.42-.917.927 0 .508.409.927.917.927s.927-.42.927-.927c0-.508-.42-.927-.927-.927zm9.044 5.277c1.546 0 2.738-1.071 2.738-2.628 0-1.523-1.093-2.561-2.672-2.561-.53 0-1.026.188-1.291.375l.22-2.053h3.235v-1.016h-4.162l-.42 3.897.983.343c.254-.32.784-.585 1.37-.585.96 0 1.644.673 1.644 1.6 0 .939-.673 1.612-1.645 1.612-.894 0-1.59-.585-1.667-1.435l-1.027.309c.056 1.115 1.237 2.164 2.694 2.142zm6.492 0c1.546 0 2.705-1.06 2.705-2.606 0-1.556-1.126-2.583-2.605-2.583-.795 0-1.424.375-1.723.74.056-1.645.497-2.573 1.7-2.573.74 0 1.215.398 1.447 1.182l.971-.298c-.309-1.16-1.104-1.9-2.417-1.9-2.043 0-2.86 1.58-2.86 4.439 0 2.307.96 3.599 2.782 3.599zm0-1.016c-.938 0-1.59-.717-1.59-1.6 0-.928.663-1.58 1.59-1.58.96 0 1.601.64 1.601 1.58 0 .938-.64 1.6-1.6 1.6zm7.96-3.312c.486-.364.762-.927.762-1.556 0-1.237-1.027-2.142-2.363-2.142-1.358 0-2.362.883-2.362 2.142 0 .629.276 1.192.762 1.556-.696.409-1.082 1.093-1.082 1.921 0 1.424 1.126 2.418 2.682 2.418 1.524 0 2.672-.994 2.672-2.418 0-.828-.397-1.523-1.07-1.92zm-2.881-1.579c0-.706.54-1.17 1.28-1.17.718 0 1.28.464 1.28 1.17 0 .707-.562 1.16-1.28 1.16-.74 0-1.28-.453-1.28-1.16zm1.28 4.924c-.43 0-.806-.132-1.115-.397-.309-.254-.463-.596-.463-1.027 0-.872.695-1.435 1.578-1.435.883 0 1.568.552 1.568 1.435 0 .85-.685 1.424-1.568 1.424zm3.79.828h5.067v-1.015h-3.51l1.799-1.59c.375-.32.684-.618.916-.872.464-.52.784-1.17.784-1.999 0-1.39-1.115-2.406-2.583-2.406-1.391 0-2.55.938-2.617 2.362l1.027.298c0-.982.673-1.645 1.59-1.645.872 0 1.479.608 1.479 1.402 0 .299-.055.564-.177.806-.231.486-.54.795-1.192 1.358l-2.583 2.275v1.026z"/>
                                <rect width="198.718" height="56.579" x="11.04" y="358.106" fill="#F3F3F8" fill-rule="nonzero" rx="8.294"/>
                                <path fill="#888BAA" fill-rule="nonzero" d="M117.664 398.815h.966v-6.762h-.966c-.416.28-.976.532-1.401.609v.947c.435-.068 1.053-.27 1.4-.493v5.7zm4.747.136c1.681 0 2.473-1.536 2.473-3.546 0-1.98-.82-3.487-2.482-3.487-1.681 0-2.492 1.507-2.492 3.487 0 1.053.212 1.903.627 2.56.416.657 1.044.986 1.874.986zm0-.89c-.521 0-.908-.24-1.159-.733-.26-.483-.386-1.111-.386-1.894 0-.772.125-1.4.386-1.893.251-.493.638-.734 1.15-.734.502 0 .879.241 1.14.734.25.493.376 1.12.376 1.893 0 .783-.125 1.42-.367 1.903-.25.483-.628.725-1.14.725zm5.821.89c1.681 0 2.473-1.536 2.473-3.546 0-1.98-.82-3.487-2.482-3.487-1.681 0-2.493 1.507-2.493 3.487 0 1.053.213 1.903.628 2.56.416.657 1.043.986 1.874.986zm0-.89c-.521 0-.908-.24-1.159-.733-.26-.483-.386-1.111-.386-1.894 0-.772.125-1.4.386-1.893.251-.493.638-.734 1.15-.734.502 0 .879.241 1.14.734.25.493.376 1.12.376 1.893 0 .783-.125 1.42-.367 1.903-.251.483-.628.725-1.14.725zm3.652.822c.357 0 .647-.29.647-.647 0-.358-.29-.647-.647-.647-.358 0-.648.29-.648.647 0 .357.29.647.648.647zm3.599.068c1.4 0 2.415-.976 2.415-2.26 0-1.276-.802-2.087-1.971-2.155l1.526-1.594v-.889h-4.095v.89h2.946l-1.807 1.844.493.6c.155-.05.319-.078.493-.078.888 0 1.449.57 1.449 1.381 0 .783-.6 1.372-1.45 1.372-.395 0-.733-.126-1.004-.387-.28-.26-.425-.58-.444-.956l-.889.261c.039 1.072.995 1.97 2.338 1.97zm6.173-.136h.966v-1.767h.88v-.831h-.88v-4.164h-1.014l-3.004 4.26v.735h3.052v1.767zm-2.01-2.588l2.01-2.821v2.81l-2.01.01zm6.921 2.724c1.353 0 2.396-.937 2.396-2.3 0-1.333-.956-2.24-2.338-2.24-.463 0-.898.164-1.13.328l.193-1.797h2.83v-.889h-3.641l-.367 3.41.86.3c.222-.28.685-.512 1.197-.512.84 0 1.44.59 1.44 1.4 0 .822-.59 1.41-1.44 1.41-.782 0-1.39-.511-1.458-1.255l-.899.27c.049.976 1.082 1.894 2.357 1.875zm5.681 0c1.352 0 2.367-.928 2.367-2.28 0-1.362-.986-2.26-2.28-2.26-.695 0-1.246.328-1.507.647.048-1.44.435-2.251 1.488-2.251.647 0 1.062.348 1.265 1.034l.85-.261c-.27-1.015-.966-1.662-2.115-1.662-1.787 0-2.502 1.382-2.502 3.883 0 2.02.84 3.15 2.434 3.15zm0-.89c-.821 0-1.39-.627-1.39-1.4 0-.811.579-1.381 1.39-1.381.84 0 1.4.56 1.4 1.381s-.56 1.4-1.4 1.4zm6.124.754h.966v-1.767h.879v-.831h-.88v-4.164h-1.014l-3.004 4.26v.735h3.053v1.767zm-2.01-2.588l2.01-2.821v2.81l-2.01.01zm6.998 2.724c1.353 0 2.367-.928 2.367-2.28 0-1.362-.985-2.26-2.28-2.26-.695 0-1.246.328-1.507.647.049-1.44.435-2.251 1.488-2.251.647 0 1.063.348 1.265 1.034l.85-.261c-.27-1.015-.965-1.662-2.115-1.662-1.787 0-2.502 1.382-2.502 3.883 0 2.02.84 3.15 2.434 3.15zm0-.89c-.82 0-1.39-.627-1.39-1.4 0-.811.579-1.381 1.39-1.381.84 0 1.401.56 1.401 1.381s-.56 1.4-1.4 1.4zm8.813.89c1.536 0 2.56-.88 2.56-2.667v-4.23h-.966v4.173c0 1.246-.59 1.835-1.594 1.835-1.014 0-1.604-.57-1.604-1.835v-4.174h-.966v4.222c0 .889.242 1.555.715 2 .474.453 1.092.676 1.855.676zm6.265-.01c1.372 0 2.444-.792 2.444-1.99 0-1.12-.715-1.72-2.26-2.038-1.092-.203-1.556-.445-1.556-1.053 0-.686.551-1.082 1.372-1.082.802 0 1.227.425 1.42 1.236l.899-.26c-.3-1.17-1.082-1.845-2.319-1.845-1.333 0-2.338.782-2.338 1.95 0 1.112.812 1.701 2.357 1.971.58.107.966.252 1.17.435.192.184.29.416.29.686 0 .724-.6 1.12-1.479 1.12-.918 0-1.42-.424-1.652-1.323l-.908.261c.319 1.275 1.217 1.932 2.56 1.932zm3.589-.126h2.299c2.086 0 3.246-1.526 3.246-3.41 0-1.806-.995-3.352-3.333-3.352h-2.212v6.762zm.966-.869v-5.023h1.198c.888 0 1.516.232 1.874.686.357.454.54 1.053.54 1.787 0 .724-.183 1.323-.55 1.816-.377.492-.966.734-1.777.734h-1.285zm6.938.87h.966v-5.874h2.019v-.889h-4.995v.89h2.01v5.872zM28.153 398.95c1.536 0 2.56-.878 2.56-2.666v-4.23h-.966v4.173c0 1.246-.59 1.835-1.594 1.835-1.014 0-1.603-.57-1.603-1.835v-4.174h-.966v4.222c0 .889.241 1.555.714 2 .474.453 1.092.676 1.855.676zm6.265-.01c1.372 0 2.444-.791 2.444-1.989 0-1.12-.715-1.72-2.26-2.038-1.092-.203-1.556-.445-1.556-1.053 0-.686.551-1.082 1.372-1.082.802 0 1.227.425 1.42 1.236l.899-.26c-.3-1.17-1.082-1.845-2.319-1.845-1.333 0-2.338.782-2.338 1.95 0 1.112.812 1.701 2.357 1.971.58.107.966.252 1.17.435.193.184.29.416.29.686 0 .724-.6 1.12-1.479 1.12-.918 0-1.42-.424-1.652-1.323l-.908.261c.32 1.275 1.217 1.932 2.56 1.932zm3.59-.125h2.299c2.086 0 3.245-1.526 3.245-3.41 0-1.806-.995-3.352-3.332-3.352h-2.213v6.762zm.965-.869v-5.023h1.198c.889 0 1.517.232 1.874.686.358.454.541 1.053.541 1.787 0 .724-.183 1.323-.55 1.816-.377.492-.966.734-1.778.734h-1.285zm6.938.87h.966v-5.874h2.02v-.889h-4.995v.89h2.01v5.872z"/>
                                <path fill="#2B2B2B" fill-rule="nonzero" d="M27.357 380.876h1.347v-6.48h2.23v-1.248h-5.807v1.247h2.23v6.48zm8.53-2.319v-.508c0-1.678-1.027-2.837-2.606-2.837-1.557 0-2.782 1.259-2.782 2.904 0 1.689 1.225 2.914 2.793 2.914 1.28 0 2.12-.651 2.462-1.59l-1.115-.342c-.166.442-.64.84-1.347.84-.85 0-1.457-.663-1.524-1.38h4.118zm-4.107-1.015c.132-.696.673-1.237 1.512-1.237.894 0 1.38.685 1.424 1.237H31.78zm7.15 3.488c.673 0 1.137-.232 1.347-.486l-.552-.938c-.144.121-.31.188-.508.188-.342 0-.519-.2-.519-.585v-2.683H40.1v-1.16h-1.402v-1.435h-1.325v1.436h-.95v1.159h.95v2.87c0 1.049.663 1.634 1.557 1.634zm2.183-.154h1.314v-3.014c0-.895.508-1.413 1.214-1.413.674 0 1.071.353 1.071 1.291v3.136h1.314v-3.334c0-1.557-.651-2.33-1.965-2.33-.685 0-1.226.254-1.634.762v-2.826h-1.314v7.728zm11.387-2.319v-.508c0-1.678-1.027-2.837-2.605-2.837-1.557 0-2.782 1.259-2.782 2.904 0 1.689 1.225 2.914 2.793 2.914 1.28 0 2.12-.651 2.462-1.59l-1.115-.342c-.166.442-.64.84-1.347.84-.85 0-1.458-.663-1.524-1.38H52.5zm-4.107-1.015c.133-.696.674-1.237 1.513-1.237.894 0 1.38.685 1.424 1.237h-2.937zm5.194 3.334h1.325v-3.003c0-.883.496-1.424 1.159-1.424.298 0 .53.088.662.187l.475-1.159c-.21-.143-.541-.265-.95-.265-.65 0-1.126.342-1.39.795l-.188-.64h-1.093v5.509zM158.189 379.253c-.453.519-1.06.772-1.822.772-1.159 0-2.086-.596-2.495-1.644h1.965l.254-.884h-2.44c-.01-.21-.022-.364-.022-.474 0-.166.012-.332.034-.497h2.693l.254-.883h-2.705c.442-1.005 1.347-1.634 2.451-1.634.784 0 1.391.276 1.8.75l.806-.673c-.674-.729-1.535-1.093-2.606-1.093-.86 0-1.612.243-2.263.718-.651.485-1.093 1.126-1.347 1.932h-.872l-.243.883h.928c-.011.21-.022.364-.022.486 0 .121.01.276.022.485h-.685l-.243.884h1.093c.232.828.674 1.468 1.325 1.943.651.474 1.413.706 2.307.706 1.093 0 1.976-.375 2.639-1.137l-.806-.64zm4.497-6.26c-1.545 0-2.704 1.06-2.704 2.606 0 1.556 1.126 2.583 2.605 2.583.795 0 1.424-.376 1.722-.74-.055 1.645-.497 2.572-1.7 2.572-.74 0-1.214-.397-1.446-1.18l-.972.297c.31 1.16 1.104 1.9 2.418 1.9 2.042 0 2.86-1.58 2.86-4.439 0-2.307-.961-3.599-2.783-3.599zm0 1.016c.939 0 1.59.717 1.59 1.6 0 .928-.662 1.58-1.59 1.58-.96 0-1.6-.641-1.6-1.58 0-.96.662-1.6 1.6-1.6zm6.459-1.016c-1.546 0-2.705 1.06-2.705 2.606 0 1.556 1.126 2.583 2.605 2.583.795 0 1.424-.376 1.722-.74-.055 1.645-.496 2.572-1.7 2.572-.74 0-1.214-.397-1.446-1.18l-.971.297c.309 1.16 1.104 1.9 2.417 1.9 2.043 0 2.86-1.58 2.86-4.439 0-2.307-.96-3.599-2.782-3.599zm0 1.016c.938 0 1.59.717 1.59 1.6 0 .928-.663 1.58-1.59 1.58-.96 0-1.601-.641-1.601-1.58 0-.96.662-1.6 1.6-1.6zm8.036 2.693c.486-.364.762-.927.762-1.556 0-1.237-1.027-2.142-2.363-2.142-1.358 0-2.362.883-2.362 2.142 0 .63.276 1.192.761 1.556-.695.409-1.082 1.093-1.082 1.921 0 1.425 1.127 2.418 2.683 2.418 1.524 0 2.672-.993 2.672-2.418 0-.828-.398-1.523-1.071-1.92zm-2.881-1.578c0-.707.54-1.17 1.28-1.17.718 0 1.28.463 1.28 1.17 0 .706-.562 1.159-1.28 1.159-.74 0-1.28-.453-1.28-1.16zm1.28 4.924c-.43 0-.806-.133-1.115-.398-.309-.254-.464-.596-.464-1.027 0-.872.696-1.435 1.58-1.435.882 0 1.567.552 1.567 1.435 0 .85-.685 1.425-1.568 1.425zm4.22.905c.41 0 .74-.331.74-.74 0-.408-.33-.74-.74-.74-.408 0-.739.332-.739.74 0 .409.331.74.74.74zm4.56-.077h1.104v-2.02h1.005v-.95h-1.005v-4.758h-1.159l-3.433 4.868v.84h3.488v2.02zm-2.296-2.96l2.296-3.223v3.213l-2.296.01zm7.91 3.114c1.545 0 2.737-1.07 2.737-2.627 0-1.524-1.093-2.562-2.671-2.562-.53 0-1.027.188-1.292.376l.22-2.054h3.235v-1.015h-4.162l-.42 3.897.983.342c.254-.32.784-.585 1.37-.585.96 0 1.644.673 1.644 1.6 0 .939-.673 1.612-1.645 1.612-.894 0-1.59-.585-1.667-1.435l-1.026.31c.055 1.114 1.236 2.163 2.693 2.141z"/>
                                <path stroke="#F4EDE3" stroke-width=".5" d="M0 199.925L220.797 199.925"/>
                                <rect width="198.718" height="135.928" x="11.04" y="211.138" fill="#2B2B2B" fill-rule="nonzero" rx="8.294"/>
                                <path fill="#7A7C89" fill-rule="nonzero" d="M41.342 313.382c1.372 0 2.444-.792 2.444-1.99 0-1.12-.715-1.72-2.26-2.038-1.092-.203-1.555-.445-1.555-1.053 0-.686.55-1.082 1.371-1.082.802 0 1.227.425 1.42 1.236l.899-.26c-.3-1.17-1.082-1.845-2.319-1.845-1.333 0-2.337.782-2.337 1.95 0 1.112.811 1.701 2.357 1.971.58.107.966.252 1.168.435.194.184.29.416.29.686 0 .724-.599 1.12-1.478 1.12-.917 0-1.42-.424-1.652-1.323l-.908.261c.32 1.275 1.218 1.932 2.56 1.932zm3.522-.126h.947v-4.781h-.947v4.781zm.483-5.486c.338 0 .609-.27.609-.619 0-.338-.27-.618-.609-.618-.348 0-.628.28-.628.618 0 .348.28.619.628.619zm3.925 7.592c1.594 0 2.395-.956 2.395-2.193v-4.694h-.792l-.154.628c-.3-.435-.821-.764-1.565-.764-1.353 0-2.26 1.16-2.26 2.473 0 1.324.869 2.444 2.27 2.444.724 0 1.284-.347 1.555-.782v.715c0 .86-.512 1.362-1.45 1.362-.685 0-1.11-.31-1.274-.937l-.89.212c.271.937.976 1.536 2.165 1.536zm.019-2.956c-.86 0-1.449-.637-1.449-1.594 0-.966.59-1.622 1.44-1.622s1.439.656 1.439 1.622c0 .957-.59 1.594-1.43 1.594zm3.628.85h.947v-2.666c0-.85.521-1.362 1.207-1.362.647 0 1.024.31 1.024 1.188v2.84h.947v-3.004c0-1.285-.628-1.913-1.681-1.913-.647 0-1.15.252-1.517.744l-.144-.608h-.783v4.781zm8.085 0h.946v-2.646c0-.84.474-1.372 1.101-1.372.28 0 .503.087.619.174l.367-.831c-.184-.126-.483-.242-.86-.242-.57 0-1.014.32-1.246.735l-.145-.6h-.782v4.782zm7.914-2.096v-.377c0-1.449-.898-2.434-2.25-2.434-1.344 0-2.387 1.111-2.387 2.512 0 1.42.995 2.53 2.396 2.53 1.091 0 1.835-.56 2.115-1.361l-.811-.261c-.155.454-.638.83-1.304.83-.84 0-1.42-.666-1.478-1.439h3.719zm-3.71-.744c.116-.724.657-1.275 1.469-1.275.802 0 1.343.6 1.39 1.275H65.21zm6.825-2.067c-1.333-.029-2.318 1.227-2.299 2.521 0 1.353.88 2.522 2.29 2.522.705 0 1.265-.32 1.584-.754v2.599h.946v-6.762h-.782l-.126.647c-.318-.435-.87-.773-1.613-.773zm.116.85c.86 0 1.459.696 1.459 1.671 0 .976-.6 1.672-1.459 1.672-.85 0-1.468-.696-1.468-1.672 0-.956.618-1.67 1.468-1.67zm7.79-.724h-.947v2.675c0 .85-.521 1.363-1.207 1.363-.647 0-1.024-.329-1.024-1.189v-2.85h-.947v3.015c0 1.284.628 1.903 1.681 1.903.647 0 1.15-.252 1.517-.744l.145.608h.782v-4.781zm1.3 4.781h.947v-4.781h-.946v4.781zm.484-5.486c.338 0 .608-.27.608-.619 0-.338-.27-.618-.608-.618-.348 0-.628.28-.628.618 0 .348.28.619.628.619zm1.77 5.486h.947v-2.646c0-.84.473-1.372 1.101-1.372.28 0 .502.087.618.174l.367-.831c-.183-.126-.483-.242-.86-.242-.57 0-1.014.32-1.245.735l-.145-.6h-.783v4.782zm7.914-2.096v-.377c0-1.449-.898-2.434-2.25-2.434-1.343 0-2.386 1.111-2.386 2.512 0 1.42.995 2.53 2.395 2.53 1.092 0 1.836-.56 2.116-1.361l-.812-.261c-.154.454-.637.83-1.304.83-.84 0-1.42-.666-1.478-1.439h3.72zm-3.709-.744c.116-.724.657-1.275 1.468-1.275.802 0 1.343.6 1.391 1.275h-2.859zm6.824 2.966c.744 0 1.294-.338 1.613-.773l.126.647h.782v-6.762h-.946v2.599c-.32-.435-.88-.754-1.585-.754-1.41 0-2.29 1.17-2.29 2.522-.018 1.294.967 2.55 2.3 2.52zm.116-.85c-.85 0-1.468-.715-1.468-1.671 0-.976.618-1.671 1.468-1.671.86 0 1.459.695 1.459 1.67 0 .976-.6 1.672-1.46 1.672zm8.063.86c.541 0 .918-.194 1.082-.387l-.435-.676c-.125.126-.28.184-.463.184-.338 0-.503-.184-.503-.56v-2.628h1.295v-.85h-1.295v-1.246h-.946v1.246h-.86v.85h.86v2.743c0 .821.521 1.324 1.265 1.324zm3.9 0c1.459 0 2.463-1.179 2.463-2.522 0-1.352-1.004-2.53-2.463-2.53-1.43-.03-2.492 1.197-2.463 2.53-.03 1.324 1.014 2.55 2.463 2.522zm0-.87c-.88 0-1.517-.695-1.517-1.652 0-.946.638-1.661 1.517-1.661.87 0 1.517.715 1.517 1.661 0 .947-.648 1.652-1.517 1.652zm-80.728 14.534h.947v-3.931h1.304v-.85H26.82v-.686c0-.387.174-.58.512-.58.232 0 .396.106.464.184l.463-.648c-.154-.183-.492-.396-1.11-.396-.744 0-1.276.522-1.276 1.333v.793h-.84v.85h.84v3.931zm3.143 0h.946v-4.781h-.946v4.781zm.483-5.487c.338 0 .608-.27.608-.618 0-.338-.27-.618-.608-.618-.348 0-.628.28-.628.618 0 .348.28.618.628.618zm1.77 5.487h.947v-2.666c0-.85.521-1.362 1.207-1.362.648 0 1.024.31 1.024 1.188v2.84h.947v-3.004c0-1.285-.628-1.913-1.68-1.913-.648 0-1.15.251-1.517.744l-.145-.608h-.783v4.781zm6.807.135c.647 0 1.12-.202 1.41-.598l.097.463h.802v-3.168c0-1.13-.783-1.739-1.952-1.739-1.053 0-1.7.483-1.932 1.44l.84.202c.088-.55.416-.87 1.073-.87.686 0 1.024.33 1.024.976v.107l-1.15.164c-1.342.193-1.864.744-1.864 1.565 0 .84.657 1.458 1.652 1.458zm.232-.782c-.59 0-.966-.29-.966-.725 0-.473.338-.685 1.024-.792l1.072-.164v.628c0 .686-.502 1.053-1.13 1.053zm3.234.647h.947v-6.762h-.947v6.762zm2.247 0h.946v-4.781h-.946v4.781zm.483-5.487c.338 0 .608-.27.608-.618 0-.338-.27-.618-.608-.618-.348 0-.628.28-.628.618 0 .348.28.618.628.618zm1.538 5.487h3.729l.01-.802h-2.59l2.56-3.236v-.743h-3.631v.811h2.472l-2.55 3.226v.744zm9.118-2.096v-.377c0-1.449-.898-2.434-2.25-2.434-1.343 0-2.387 1.11-2.387 2.512 0 1.42.995 2.53 2.396 2.53 1.092 0 1.835-.56 2.115-1.362l-.811-.26c-.155.454-.638.83-1.304.83-.84 0-1.42-.666-1.478-1.439h3.72zm-3.71-.744c.117-.724.658-1.275 1.469-1.275.802 0 1.343.599 1.391 1.275h-2.86zm13.049-1.941l-1.034 3.641-1.063-3.641h-.927l-1.053 3.651-1.034-3.651H58.2l1.478 4.781h.976l1.062-3.603 1.053 3.603h.976l1.478-4.781h-.956zm1.785 4.781h.946v-4.781h-.946v4.781zm.483-5.487c.338 0 .608-.27.608-.618 0-.338-.27-.618-.608-.618-.348 0-.628.28-.628.618 0 .348.28.618.628.618zm3.46 5.622c.541 0 .918-.193 1.082-.386l-.434-.676c-.126.125-.28.183-.464.183-.338 0-.502-.183-.502-.56v-2.627h1.294v-.85h-1.294v-1.247h-.947v1.247h-.86v.85h.86v2.743c0 .821.522 1.323 1.266 1.323zm1.914-.135h.937V324.4c0-.85.54-1.372 1.207-1.372.648 0 1.024.31 1.024 1.188v2.84h.947v-3.004c0-1.285-.618-1.913-1.671-1.913-.647 0-1.15.242-1.507.715v-2.56h-.937v6.762zm7.444.126c.744 0 1.295-.338 1.613-.773l.126.647h.782v-6.762h-.946v2.599c-.319-.435-.88-.754-1.584-.754-1.41 0-2.29 1.17-2.29 2.522-.02 1.294.966 2.55 2.3 2.52zm.116-.85c-.85 0-1.468-.715-1.468-1.671 0-.976.618-1.672 1.468-1.672.86 0 1.459.696 1.459 1.672 0 .975-.6 1.67-1.459 1.67zm3.665.724h.947v-2.647c0-.84.473-1.371 1.101-1.371.28 0 .503.087.619.174l.367-.831c-.184-.126-.483-.242-.86-.242-.57 0-1.014.32-1.246.734l-.145-.598h-.783v4.781zm5.015.135c.647 0 1.12-.202 1.41-.598l.096.463h.802v-3.168c0-1.13-.782-1.739-1.951-1.739-1.053 0-1.7.483-1.932 1.44l.84.202c.087-.55.416-.87 1.073-.87.685 0 1.024.33 1.024.976v.107l-1.15.164c-1.343.193-1.864.744-1.864 1.565 0 .84.657 1.458 1.652 1.458zm.231-.782c-.589 0-.966-.29-.966-.725 0-.473.338-.685 1.024-.792l1.073-.164v.628c0 .686-.503 1.053-1.13 1.053zm8.734-4.134l-1.034 3.641-1.063-3.641h-.927l-1.053 3.651-1.033-3.651h-.957l1.478 4.781h.976l1.062-3.603 1.053 3.603h.976l1.478-4.781h-.956zm1.376 4.849c.358 0 .647-.29.647-.647 0-.358-.29-.648-.647-.648-.357 0-.647.29-.647.648 0 .357.29.647.647.647z"/>
                                <path fill="#7A7C89" d="M30.015 314.981c2.858 0 5.175-2.317 5.175-5.175 0-2.858-2.317-5.175-5.175-5.175-2.858 0-5.175 2.317-5.175 5.175 0 2.858 2.317 5.175 5.175 5.175zm.2-6.555h-.821c-.372 0-.673.3-.673.672 0 .372.301.673.673.673h.223v2.467c0 .371.302.673.673.673.372 0 .673-.302.673-.673v-3.065c0-.413-.335-.747-.748-.747zm-1.045-1.346c0-.495.402-.897.897-.897s.897.402.897.897c0 .496-.402.897-.897.897s-.897-.401-.897-.897z"/>
                                <path fill="#7A7C89" fill-rule="nonzero" d="M27.593 231.954c1.274 0 2.27-.736 2.27-1.848 0-1.04-.664-1.597-2.1-1.893-1.013-.188-1.443-.412-1.443-.977 0-.637.511-1.005 1.273-1.005.745 0 1.14.395 1.319 1.148l.834-.242c-.278-1.085-1.004-1.713-2.153-1.713-1.237 0-2.17.726-2.17 1.812 0 1.031.753 1.578 2.188 1.83.539.098.897.233 1.086.403.18.17.269.386.269.637 0 .673-.556 1.04-1.373 1.04-.852 0-1.318-.394-1.533-1.228l-.844.242c.296 1.184 1.13 1.794 2.377 1.794zm4.843-.117h.897v-5.453h1.875v-.826H30.57v.826h1.866v5.453zm3.903 0h3.875v-.807h-2.978v-1.964h2.602v-.79h-2.602v-1.91h2.978v-.808H36.34v6.28zm5.19 0h.897v-2.386h1.256c1.184 0 2.09-.7 2.09-1.946 0-1.265-.861-1.947-2.126-1.947H41.53v6.28zm.897-3.193v-2.278h1.157c.817 0 1.292.403 1.292 1.13 0 .744-.466 1.148-1.292 1.148h-1.157zm7.14 3.193h4.117v-.825h-2.852l1.462-1.292c.305-.26.556-.502.745-.708.376-.422.636-.951.636-1.624 0-1.13-.906-1.955-2.099-1.955-1.13 0-2.072.762-2.125 1.92l.834.242c0-.799.547-1.337 1.291-1.337.71 0 1.202.493 1.202 1.14 0 .241-.044.457-.143.654-.188.395-.44.646-.969 1.103l-2.099 1.848v.834zm5.123 0h.897l2.404-6.279h-.897l-2.404 6.28zm6.321.126c1.301 0 2.243-.906 2.243-2.1 0-1.183-.745-1.937-1.83-2l1.417-1.48v-.825h-3.803v.826h2.736l-1.678 1.713.458.556c.143-.045.296-.072.457-.072.826 0 1.346.53 1.346 1.283 0 .726-.556 1.274-1.346 1.274-.367 0-.681-.117-.933-.36-.26-.241-.394-.537-.412-.887l-.825.242c.035.996.924 1.83 2.17 1.83z"/>
                                <path fill="#FFF" fill-rule="nonzero" d="M31.033 246.19l-1.49 5.652-1.513-5.653h-1.347l-1.512 5.73-1.502-5.73h-1.39l2.174 7.728H25.8l1.535-5.818 1.567 5.818h1.347l2.175-7.728h-1.39zm2.297 7.727h1.325v-5.509H33.33v5.509zm.64-6.26c.431 0 .795-.353.795-.783 0-.43-.364-.784-.794-.784-.431 0-.773.353-.773.784 0 .43.342.783.773.783zm4.119 6.415c.673 0 1.137-.232 1.347-.486l-.552-.939c-.144.122-.31.188-.508.188-.342 0-.519-.199-.519-.585v-2.683h1.402v-1.159h-1.402v-1.435h-1.325v1.435h-.95v1.16h.95v2.87c0 1.048.663 1.634 1.557 1.634zm2.183-.155h1.314v-3.014c0-.894.508-1.413 1.214-1.413.674 0 1.071.353 1.071 1.292v3.135h1.314v-3.334c0-1.557-.651-2.33-1.965-2.33-.685 0-1.226.255-1.634.762v-2.826h-1.314v7.728zm8.671.155c.828 0 1.413-.376 1.756-.828l.176.673h1.093v-7.728h-1.325v2.837c-.342-.441-.927-.772-1.71-.772-1.535 0-2.661 1.28-2.661 2.903 0 1.6 1.159 2.915 2.671 2.915zm.188-1.193c-.872 0-1.535-.728-1.535-1.722 0-.982.663-1.711 1.535-1.711.883 0 1.523.706 1.523 1.711 0 1.005-.64 1.722-1.523 1.722zm4.165 1.038h1.325v-3.003c0-.883.496-1.424 1.159-1.424.298 0 .53.088.662.188l.475-1.16c-.21-.143-.541-.264-.95-.264-.65 0-1.126.342-1.39.794l-.188-.64h-1.093v5.509zm5.827.155c.718 0 1.226-.221 1.535-.652l.143.497h1.115v-3.621c0-.673-.22-1.192-.65-1.535-.431-.342-.983-.507-1.646-.507-1.292 0-1.998.552-2.307 1.667l1.17.287c.088-.585.42-.895 1.093-.895s1.016.332 1.016 1.005v.066l-1.182.166c-1.622.22-2.174.894-2.174 1.821 0 1.027.85 1.7 1.887 1.7zm.354-1.071c-.608 0-.972-.276-.972-.707 0-.452.298-.684.994-.784l1.093-.165v.64c0 .63-.486 1.016-1.115 1.016zm10.002-4.593l-1.082 3.941-1.115-3.94h-1.237l-1.115 3.962-1.093-3.963h-1.324l1.71 5.509h1.359l1.082-3.82 1.081 3.82h1.347l1.712-5.509h-1.325zm3.66 5.664c.718 0 1.226-.221 1.535-.652l.143.497h1.115v-3.621c0-.673-.22-1.192-.651-1.535-.43-.342-.983-.507-1.645-.507-1.292 0-1.998.552-2.307 1.667l1.17.287c.088-.585.42-.895 1.093-.895s1.015.332 1.015 1.005v.066l-1.18.166c-1.624.22-2.176.894-2.176 1.821 0 1.027.85 1.7 1.888 1.7zm.353-1.071c-.607 0-.971-.276-.971-.707 0-.452.298-.684.994-.784l1.092-.165v.64c0 .63-.485 1.016-1.115 1.016zm3.652.916h1.325v-7.728h-1.325v7.728z"/>
                                <path fill="#7A7C89" fill-rule="nonzero" d="M122.15 275.307h1.104v-7.728h-1.104c-.475.32-1.115.607-1.6.695v1.082c.496-.077 1.203-.309 1.6-.563v6.514zm3.99 0h1.103v-7.728h-1.103c-.475.32-1.116.607-1.601.695v1.082c.497-.077 1.203-.309 1.6-.563v6.514zm2.985 1.457c.574-.53.916-1.402.916-2.02 0-.541-.32-.84-.75-.84-.398 0-.729.32-.729.751 0 .343.199.575.541.696-.011.31-.21.729-.442 1.027l.464.386zm3.32-1.457c.187-1.049.552-2.22 1.082-3.533.518-1.303 1.048-2.362 1.567-3.18v-1.015h-5.023v1.016h3.787c-.486.828-.983 1.887-1.48 3.19-.496 1.314-.85 2.484-1.037 3.522h1.104zm6.156-7.883c-1.545 0-2.704 1.06-2.704 2.606 0 1.556 1.126 2.583 2.605 2.583.795 0 1.424-.375 1.722-.74-.055 1.645-.496 2.573-1.7 2.573-.74 0-1.214-.398-1.446-1.182l-.972.298c.31 1.16 1.104 1.9 2.418 1.9 2.043 0 2.86-1.58 2.86-4.439 0-2.307-.961-3.599-2.783-3.599zm0 1.016c.939 0 1.59.718 1.59 1.6 0 .928-.662 1.58-1.59 1.58-.96 0-1.6-.64-1.6-1.58 0-.96.662-1.6 1.6-1.6zm6.458-1.016c-1.546 0-2.705 1.06-2.705 2.606 0 1.556 1.126 2.583 2.606 2.583.795 0 1.424-.375 1.722-.74-.055 1.645-.497 2.573-1.7 2.573-.74 0-1.215-.398-1.446-1.182l-.972.298c.31 1.16 1.104 1.9 2.418 1.9 2.042 0 2.86-1.58 2.86-4.439 0-2.307-.961-3.599-2.783-3.599zm0 1.016c.938 0 1.59.718 1.59 1.6 0 .928-.663 1.58-1.59 1.58-.96 0-1.6-.64-1.6-1.58 0-.96.662-1.6 1.6-1.6zm6.613 7.021c1.92 0 2.826-1.755 2.826-4.051 0-2.263-.938-3.986-2.837-3.986-1.921 0-2.848 1.723-2.848 3.986 0 1.203.243 2.175.717 2.925.475.751 1.193 1.126 2.142 1.126zm0-1.015c-.596 0-1.038-.276-1.325-.84-.298-.551-.441-1.269-.441-2.163 0-.883.143-1.6.441-2.164.287-.563.729-.839 1.314-.839.574 0 1.005.276 1.303.839.287.563.43 1.28.43 2.164 0 .894-.143 1.623-.42 2.175-.286.552-.717.828-1.302.828zm3.936.86h5.067v-1.015h-3.51l1.799-1.59c.375-.32.684-.618.916-.872.464-.519.784-1.17.784-1.998 0-1.391-1.115-2.407-2.583-2.407-1.391 0-2.55.939-2.617 2.363l1.027.298c0-.983.673-1.645 1.59-1.645.872 0 1.479.607 1.479 1.402 0 .298-.055.563-.177.806-.232.486-.54.795-1.192 1.358l-2.583 2.274v1.027zm8.894.155c1.92 0 2.826-1.755 2.826-4.051 0-2.263-.939-3.986-2.837-3.986-1.921 0-2.849 1.723-2.849 3.986 0 1.203.243 2.175.718 2.925.475.751 1.192 1.126 2.142 1.126zm0-1.015c-.596 0-1.038-.276-1.325-.84-.298-.551-.442-1.269-.442-2.163 0-.883.144-1.6.442-2.164.287-.563.729-.839 1.314-.839.574 0 1.004.276 1.302.839.287.563.43 1.28.43 2.164 0 .894-.143 1.623-.419 2.175-.287.552-.717.828-1.302.828zm10.187 1.015c1.756 0 2.926-1.004 2.926-3.047v-4.835h-1.104v4.77c0 1.423-.673 2.097-1.822 2.097-1.159 0-1.832-.652-1.832-2.098v-4.77h-1.104v4.825c0 1.016.276 1.778.817 2.286.54.518 1.247.772 2.12.772zm7.16-.01c1.568 0 2.794-.906 2.794-2.275 0-1.28-.817-1.965-2.584-2.33-1.247-.231-1.777-.507-1.777-1.203 0-.783.63-1.236 1.567-1.236.917 0 1.403.486 1.623 1.413l1.027-.298c-.342-1.336-1.236-2.109-2.65-2.109-1.523 0-2.671.895-2.671 2.23 0 1.27.927 1.943 2.694 2.252.662.122 1.104.288 1.335.497.221.21.332.475.332.784 0 .828-.685 1.28-1.69 1.28-1.048 0-1.622-.485-1.887-1.512l-1.038.298c.364 1.458 1.39 2.208 2.925 2.208zm4.102-.144h2.628c2.385 0 3.71-1.745 3.71-3.897 0-2.065-1.138-3.831-3.81-3.831h-2.528v7.728zm1.104-.994v-5.74h1.37c1.015 0 1.733.264 2.141.783.409.52.618 1.204.618 2.043 0 .828-.21 1.512-.629 2.075-.43.563-1.104.84-2.031.84h-1.469zm7.93.994h1.103v-6.712h2.307v-1.016h-5.707v1.016h2.296v6.712z"/>
                                <path fill="#F2F2F2" fill-rule="nonzero" d="M186.539 252.118c-.409.474-.96.706-1.634.706-.983 0-1.789-.475-2.197-1.314h1.689l.32-1.048h-2.296c-.011-.177-.022-.31-.022-.398 0-.1.01-.22.022-.386h2.506l.32-1.05h-2.517c.43-.827 1.225-1.346 2.153-1.346.695 0 1.27.254 1.634.662l.971-.816c-.63-.707-1.534-1.093-2.627-1.093-.85 0-1.601.231-2.242.706-.64.475-1.081 1.104-1.335 1.888h-.817l-.298 1.049h.905c-.011.077-.011.198-.011.364 0 .188 0 .331.01.42h-.606l-.298 1.048h1.104c.496 1.623 1.854 2.562 3.588 2.562 1.093 0 1.987-.387 2.66-1.17l-.982-.784zm3.263 1.799h1.346v-7.728h-1.346c-.486.342-1.137.618-1.612.696v1.358c.497-.056 1.225-.299 1.612-.552v6.226zm5.61.144c1.92 0 2.859-1.734 2.859-4.03 0-2.285-.95-4.007-2.87-4.007-1.944 0-2.893 1.722-2.893 4.007 0 1.203.243 2.175.74 2.915.485.74 1.203 1.115 2.163 1.115zm0-1.248c-1.06 0-1.557-1.06-1.557-2.771 0-1.667.496-2.771 1.545-2.771 1.016 0 1.524 1.104 1.524 2.771 0 1.69-.497 2.771-1.513 2.771z"/>
                                <rect width="71.069" height="28.98" x="127.649" y="304.286" fill="#E75A2B" fill-rule="nonzero" rx="14.49"/>
                                <path fill="#F2F2F2" fill-rule="nonzero" d="M145.014 322.226h1.347v-3.113h3.058v-1.181h-3.058v-2.22h3.5v-1.214h-4.847v7.728zm6.046 0h1.325v-5.509h-1.325v5.51zm.64-6.26c.43 0 .795-.353.795-.783 0-.43-.364-.784-.795-.784-.43 0-.773.353-.773.784 0 .43.343.784.773.784zm2.054 6.26h1.325v-3.025c0-.894.508-1.413 1.215-1.413.717 0 1.07.43 1.07 1.28v3.158h1.325v-3.334c0-1.578-.695-2.33-1.976-2.33-.707 0-1.27.277-1.678.818l-.188-.663h-1.093v5.51zm7.887.155c.718 0 1.225-.221 1.535-.652l.143.497h1.115v-3.62c0-.674-.22-1.193-.651-1.535-.43-.343-.983-.508-1.645-.508-1.292 0-1.998.552-2.308 1.667l1.17.287c.089-.585.42-.894 1.094-.894.673 0 1.015.33 1.015 1.004v.066l-1.181.166c-1.623.22-2.175.894-2.175 1.822 0 1.026.85 1.7 1.888 1.7zm.353-1.071c-.607 0-.971-.276-.971-.707 0-.452.298-.684.993-.783l1.093-.166v.64c0 .63-.485 1.016-1.115 1.016zm3.652.916h1.324v-7.728h-1.324v7.728zm2.696 0h1.325v-5.509h-1.325v5.51zm.64-6.26c.431 0 .795-.353.795-.783 0-.43-.364-.784-.795-.784-.43 0-.772.353-.772.784 0 .43.342.784.772.784zm4.108 6.415c1.336 0 2.23-.762 2.23-1.756 0-1.048-.695-1.523-2.031-1.755-.784-.143-1.104-.287-1.104-.64 0-.31.32-.563.905-.563.497 0 .806.265.938.806l1.16-.332c-.232-1.004-.994-1.578-2.098-1.578-1.314 0-2.142.773-2.142 1.722 0 1.049.751 1.457 2.109 1.711.784.133 1.016.342 1.016.652 0 .397-.376.629-.983.629-.585 0-.96-.31-1.126-.916l-1.17.375c.276 1.027 1.104 1.645 2.296 1.645zm8.46-2.473v-.508c0-1.678-1.027-2.837-2.605-2.837-1.557 0-2.782 1.258-2.782 2.903 0 1.69 1.225 2.915 2.793 2.915 1.28 0 2.12-.652 2.462-1.59l-1.116-.342c-.165.441-.64.839-1.346.839-.85 0-1.458-.663-1.524-1.38h4.118zm-4.107-1.016c.133-.695.674-1.236 1.513-1.236.894 0 1.38.684 1.424 1.236h-2.937z"/>
                                <path stroke="#7A7C89" stroke-width=".5" d="M22.08 293.074L198.718 293.074"/>
                                <rect width="46.229" height="20.7" x="22.08" y="261.507" fill="#FF4B40" fill-opacity=".15" fill-rule="nonzero" rx="5.53"/>
                                <path fill="#FF4B40" fill-rule="nonzero" d="M31.57 274.742c2 .03 3.448-1.565 3.43-3.516.028-1.932-1.42-3.545-3.43-3.516-2.019-.029-3.468 1.584-3.439 3.516-.029 1.951 1.42 3.545 3.439 3.516zm0-.888c-1.478 0-2.473-1.102-2.473-2.628 0-1.497 1.005-2.627 2.473-2.627 1.44 0 2.463 1.13 2.463 2.627 0 1.517-1.004 2.628-2.463 2.628zm4.591.763h.947v-2.666c0-.85.521-1.362 1.207-1.362.647 0 1.024.309 1.024 1.188v2.84h.947v-3.004c0-1.285-.628-1.913-1.68-1.913-.648 0-1.15.251-1.518.744l-.144-.609h-.783v4.782zm8.085 0h.937v-2.657c0-.85.54-1.371 1.207-1.371.647 0 1.024.309 1.024 1.188v2.84h.947v-3.004c0-1.285-.619-1.913-1.671-1.913-.648 0-1.15.241-1.507.715v-2.56h-.937v6.762zm7.608.135c1.459 0 2.464-1.178 2.464-2.521 0-1.353-1.005-2.531-2.464-2.531-1.43-.03-2.492 1.198-2.463 2.53-.029 1.324 1.014 2.551 2.463 2.522zm0-.87c-.879 0-1.516-.695-1.516-1.651 0-.947.637-1.662 1.516-1.662.87 0 1.517.715 1.517 1.662 0 .946-.647 1.652-1.517 1.652zm3.495.735h.946v-6.762h-.946v6.762zm4.275.125c.744 0 1.294-.338 1.613-.772l.126.647h.782v-6.762h-.947v2.598c-.318-.434-.879-.753-1.584-.753-1.41 0-2.29 1.169-2.29 2.521-.019 1.295.967 2.55 2.3 2.521zm.116-.85c-.85 0-1.469-.715-1.469-1.67 0-.976.619-1.672 1.469-1.672.86 0 1.458.696 1.458 1.671 0 .976-.599 1.671-1.458 1.671z"/>
                            </g>
                        </g>
                    </g>
                    <g mask="url(#djyw3rd13d)">
                        <g transform="translate(0 -31)">
                            <path fill="#FFF" fill-rule="nonzero" d="M0 7.875H210V380.625H0z"/>
                            <path fill="#FAF4EA" fill-rule="nonzero" d="M0 0H210V165.375H0z"/>
                            <path fill="#2B2B2B" fill-rule="nonzero" d="M147.232 143.194l-1.24 4.704-1.259-4.704h-1.12l-1.26 4.768-1.249-4.768h-1.157l1.81 6.431h1.12l1.278-4.842 1.304 4.842h1.121l1.81-6.431h-1.158zm1.912 6.431h1.102v-4.585h-1.102v4.585zm.533-5.21c.358 0 .661-.293.661-.652 0-.358-.303-.652-.661-.652-.358 0-.643.294-.643.652 0 .359.285.653.643.653zm3.427 5.339c.56 0 .947-.193 1.121-.405l-.46-.78c-.118.1-.256.156-.422.156-.284 0-.431-.166-.431-.487v-2.233h1.166v-.965h-1.167v-1.194h-1.102v1.194h-.79v.965h.79v2.389c0 .873.551 1.36 1.295 1.36zm1.817-.129h1.093v-2.508c0-.744.423-1.176 1.01-1.176.561 0 .892.294.892 1.075v2.609h1.093v-2.775c0-1.295-.542-1.938-1.635-1.938-.57 0-1.02.211-1.36.634v-2.352h-1.093v6.431zm7.216.129c.69 0 1.176-.313 1.46-.69l.148.561h.91v-6.431h-1.103v2.36c-.285-.367-.772-.642-1.424-.642-1.277 0-2.214 1.066-2.214 2.416 0 1.332.964 2.426 2.223 2.426zm.156-.993c-.726 0-1.277-.606-1.277-1.433 0-.818.551-1.424 1.277-1.424.735 0 1.268.588 1.268 1.424s-.533 1.433-1.268 1.433zm3.467.864h1.102v-2.499c0-.735.413-1.185.965-1.185.248 0 .44.073.551.156l.395-.965c-.174-.12-.45-.22-.79-.22-.542 0-.937.285-1.158.661l-.156-.533h-.91v4.585zm4.85.129c.596 0 1.02-.184 1.276-.542l.12.413h.928v-3.013c0-.56-.184-.993-.542-1.278-.359-.284-.818-.422-1.37-.422-1.074 0-1.662.46-1.92 1.387l.974.239c.074-.487.35-.744.91-.744s.845.275.845.836v.055l-.983.138c-1.35.184-1.81.744-1.81 1.516 0 .854.708 1.415 1.571 1.415zm.293-.892c-.505 0-.808-.23-.808-.588 0-.376.248-.57.827-.652l.91-.138v.533c0 .524-.405.845-.929.845zm8.324-3.822l-.9 3.28-.928-3.28h-1.03l-.927 3.299-.91-3.299h-1.102l1.424 4.585h1.13l.9-3.179.9 3.179h1.122l1.424-4.585h-1.103z"/>
                            <circle cx="160.125" cy="116.156" r="18.375" fill="#FFF" fill-rule="nonzero"/>
                            <rect width="2.067" height="9.302" x="159.092" y="118.1" fill="#FFA600" fill-rule="nonzero" stroke="#FFA600" stroke-width=".5" rx="1.034" transform="rotate(-90 160.125 122.752)"/>
                            <path fill="#FFA600" fill-rule="nonzero" stroke="#FFA600" stroke-width=".5" d="M164.993 112.534c.4.383.4 1.003 0 1.386s-1.048.383-1.448 0l-2.396-2.294v7.045c0 .51-.406.928-.926.975l-.098.005c-.566 0-1.024-.439-1.024-.98v-7.046l-2.396 2.295c-.374.357-.963.381-1.365.071l-.083-.071c-.4-.383-.4-1.003 0-1.386l4.144-3.966c.4-.383 1.048-.383 1.448 0l4.144 3.966z"/>
                            <path fill="#2B2B2B" fill-rule="nonzero" d="M40.218 149.744c1.332 0 2.37-.771 2.37-1.929 0-1.093-.68-1.69-2.177-1.984-.956-.193-1.351-.395-1.351-.873 0-.58.45-.891 1.148-.891.671 0 1.02.34 1.204 1.038l1.047-.294c-.284-1.112-1.075-1.755-2.25-1.755-1.324 0-2.27.8-2.27 1.902 0 1.066.763 1.644 2.27 1.93.946.155 1.258.458 1.258.927 0 .588-.505.919-1.25.919-.799 0-1.185-.35-1.414-1.121l-1.048.303c.304 1.185 1.186 1.828 2.463 1.828zm7.548-2.048v-.423c0-1.397-.855-2.361-2.169-2.361-1.295 0-2.315 1.047-2.315 2.416 0 1.406 1.02 2.426 2.325 2.426 1.065 0 1.764-.542 2.048-1.323l-.927-.285c-.138.367-.533.698-1.121.698-.708 0-1.213-.551-1.268-1.148h3.427zm-3.418-.846c.11-.578.56-1.029 1.259-1.029.744 0 1.148.57 1.185 1.03h-2.444zm4.322 2.775h1.103v-2.517c0-.745.422-1.176 1.01-1.176.598 0 .892.358.892 1.065v2.628h1.102v-2.775c0-1.313-.579-1.938-1.644-1.938-.588 0-1.057.23-1.397.68l-.156-.552h-.91v4.585zm7.234.129c.69 0 1.176-.313 1.461-.69l.147.561h.91v-6.431h-1.103v2.36c-.285-.367-.772-.642-1.424-.642-1.277 0-2.214 1.066-2.214 2.416 0 1.332.965 2.426 2.223 2.426zm.157-.993c-.726 0-1.278-.606-1.278-1.433 0-.818.552-1.424 1.278-1.424.735 0 1.267.588 1.267 1.424s-.532 1.433-1.267 1.433z"/>
                            <circle cx="47.906" cy="116.156" r="18.375" fill="#FFF" fill-rule="nonzero"/>
                            <path fill="#FFA600" fill-rule="nonzero" stroke="#FFA600" stroke-width=".5" d="M54.446 110.403c.112.373.147.765.1 1.152l-1.244 10.404c-.174 1.453-1.493 2.49-2.945 2.316-.856-.103-1.61-.615-2.018-1.374l-2.111-3.924c-.25-.462-.666-.812-1.165-.977l-4.23-1.398c-1.389-.459-2.143-1.957-1.684-3.346.271-.82.923-1.455 1.749-1.705l10.03-3.032c1.492-.451 3.067.392 3.518 1.884zm-3.013-.217l-10.031 3.032c-.283.086-.507.304-.6.584-.157.476.102.99.578 1.147l4.23 1.398c.178.059.35.13.516.214l1.63-1.942c.308-.368.858-.416 1.226-.107.368.31.416.859.107 1.227l-1.628 1.942c.11.149.211.306.3.47l2.112 3.924c.14.26.397.436.69.471.498.06.95-.296 1.01-.793l1.244-10.405c.018-.148.005-.298-.038-.441-.173-.571-.776-.894-1.346-.721z"/>
                            <path fill="#2B2B2B" fill-rule="nonzero" d="M87.296 149.625h2.26c1.819.018 3.105-1.369 3.078-3.225 0-1.819-1.066-3.206-3.106-3.206h-2.232v6.431zm1.12-1.01v-4.41h1.02c.763 0 1.296.201 1.608.606.313.404.469.928.469 1.58 0 .625-.156 1.148-.469 1.58-.321.432-.827.643-1.525.643h-1.102zm9.439-.92v-.422c0-1.397-.855-2.361-2.169-2.361-1.295 0-2.315 1.047-2.315 2.416 0 1.406 1.02 2.426 2.325 2.426 1.065 0 1.764-.542 2.049-1.323l-.928-.285c-.138.367-.533.698-1.121.698-.708 0-1.213-.551-1.268-1.148h3.427zm-3.418-.845c.11-.578.56-1.029 1.259-1.029.744 0 1.148.57 1.185 1.03h-2.444zm6.84-1.938c-.69 0-1.177.312-1.461.689l-.147-.56h-.91v6.43h1.103v-2.36c.284.367.771.643 1.424.643 1.295 0 2.214-1.066 2.214-2.417 0-1.332-.965-2.425-2.224-2.425zm-.157.992c.735 0 1.277.597 1.277 1.433 0 .414-.12.754-.358 1.02-.248.267-.551.404-.919.404-.735 0-1.258-.588-1.258-1.424s.523-1.433 1.258-1.433zm5.46 3.85c1.36 0 2.389-1.075 2.389-2.426 0-1.35-1.029-2.416-2.389-2.416-1.341-.019-2.407 1.084-2.38 2.416 0 1.35 1.011 2.426 2.38 2.426zm0-1.02c-.744 0-1.277-.588-1.277-1.406 0-.808.533-1.396 1.277-1.396.368 0 .67.128.919.395.248.266.368.597.368 1.001 0 .404-.12.735-.368 1.002-.248.266-.551.404-.919.404zm4.96 1.02c1.111 0 1.855-.634 1.855-1.461 0-.873-.578-1.268-1.69-1.461-.652-.12-.919-.239-.919-.533 0-.257.267-.468.754-.468.413 0 .67.22.78.67l.965-.275c-.193-.836-.827-1.314-1.745-1.314-1.094 0-1.783.643-1.783 1.433 0 .873.625 1.213 1.755 1.424.652.11.845.285.845.542 0 .33-.312.524-.817.524-.487 0-.8-.257-.938-.763l-.973.313c.23.854.918 1.369 1.91 1.369zm2.796-.129h1.102v-4.585h-1.102v4.585zm.533-5.21c.358 0 .661-.293.661-.652 0-.358-.303-.652-.661-.652-.359 0-.643.294-.643.652 0 .359.284.653.643.653zm3.427 5.339c.56 0 .947-.193 1.121-.405l-.46-.78c-.119.1-.256.156-.422.156-.285 0-.432-.166-.432-.487v-2.233h1.167v-.965h-1.167v-1.194h-1.102v1.194h-.79v.965h.79v2.389c0 .873.551 1.36 1.295 1.36z"/>
                            <circle cx="103.031" cy="116.156" r="18.375" fill="#FFF" fill-rule="nonzero"/>
                            <rect width="2.395" height="13.79" x="101.831" y="109.258" fill="#FFA600" fill-rule="nonzero" rx="1.198" transform="rotate(-90 103.029 116.153)"/>
                            <rect width="2.395" height="13.79" x="101.817" y="109.259" fill="#FFA600" fill-rule="nonzero" rx="1.198"/>
                            <path stroke="#F4EDE3" stroke-width=".5" d="M0 165.211L210 165.211"/>
                            <path fill="#2B2B2B" fill-rule="nonzero" d="M54.91 65.625h3.024v-14.7H54.91c-.945.651-2.226 1.239-3.129 1.344v3.066c.483-.042 1.03-.168 1.66-.378.608-.189 1.112-.42 1.47-.651v11.319zm6.945.147c.987 0 1.764-.819 1.764-1.764 0-.987-.777-1.764-1.764-1.764-.945 0-1.764.777-1.764 1.764 0 .945.819 1.764 1.764 1.764zm8.227.147c3.024 0 5.355-2.037 5.355-5.124 0-2.982-2.142-4.851-5.103-4.851-.735 0-1.449.189-1.806.378l.273-2.562h5.607v-2.835h-8.21l-.757 7.56 2.583.945c.42-.525 1.155-.903 2.058-.903 1.323 0 2.331.924 2.331 2.289 0 1.344-1.008 2.289-2.33 2.289-1.345 0-2.374-.882-2.395-2.247l-2.793.84c.042 2.31 2.31 4.221 5.187 4.221zm13.19-.294h3.025l.02-3.591h1.513v-2.562h-1.512l-.021-8.547h-3.234l-6.3 8.904v2.205h6.53l-.02 3.591zm-3.191-6.153l3.192-4.389.02 4.389h-3.212zM98.08 57.75c.798-.777 1.197-1.722 1.197-2.835 0-2.499-2.142-4.284-4.788-4.284-2.71 0-4.788 1.785-4.788 4.284 0 1.155.44 2.142 1.197 2.835-1.071.819-1.701 2.016-1.701 3.444 0 2.772 2.289 4.725 5.292 4.725 2.96 0 5.292-1.953 5.292-4.725 0-1.428-.63-2.667-1.701-3.444zm-5.44-2.835c0-1.029.778-1.722 1.849-1.722 1.029 0 1.848.693 1.848 1.722s-.82 1.743-1.848 1.743c-1.03 0-1.848-.714-1.848-1.743zm1.849 8.274c-1.281 0-2.268-.84-2.268-2.037 0-1.239.987-2.1 2.268-2.1 1.26 0 2.268.861 2.268 2.1 0 1.197-1.008 2.037-2.268 2.037zm12.497 2.709c3.675 0 5.523-3.255 5.523-7.665s-1.89-7.623-5.565-7.623c-3.675 0-5.565 3.213-5.565 7.623 0 2.289.483 4.137 1.428 5.544s2.352 2.121 4.179 2.121zm0-2.814c-1.764 0-2.583-1.743-2.583-4.83 0-3.003.798-4.83 2.54-4.83 1.702 0 2.542 1.827 2.542 4.83 0 3.024-.82 4.83-2.5 4.83zm13.665 2.541h9.408v-2.73h-6.384v-3.339h5.48V56.91h-5.48v-3.255h6.384v-2.73h-9.408v14.7zm14.818 0h3.024V53.739h4.095v-2.814h-11.214v2.814h4.095v11.886zm9.053 0h3.024v-6.048h5.943v6.048h3.024v-14.7h-3.024v5.838h-5.943v-5.838h-3.024v14.7z"/>
                            <path fill="#7A7C89" fill-rule="nonzero" d="M88.859 80.951c-.484.555-1.134.827-1.95.827-1.24 0-2.232-.638-2.669-1.76h2.103l.272-.945h-2.611c-.012-.225-.024-.39-.024-.508 0-.177.012-.354.036-.532h2.882l.272-.945h-2.894c.472-1.075 1.44-1.748 2.622-1.748.839 0 1.488.295 1.925.803l.863-.72c-.72-.78-1.642-1.17-2.788-1.17-.921 0-1.725.26-2.422.768-.697.52-1.169 1.205-1.44 2.067h-.934l-.26.945h.993c-.012.225-.024.39-.024.52s.012.295.023.52h-.732l-.26.945h1.17c.248.886.72 1.57 1.417 2.079.697.508 1.512.756 2.469.756 1.17 0 2.114-.402 2.823-1.217l-.862-.685zm3.371 1.737h1.181v-8.27H92.23c-.508.343-1.193.65-1.713.745v1.158c.532-.083 1.288-.331 1.713-.603v6.97zm5.64-8.435c-1.653 0-2.894 1.134-2.894 2.788 0 1.666 1.205 2.764 2.788 2.764.85 0 1.524-.401 1.843-.791-.06 1.76-.532 2.752-1.82 2.752-.79 0-1.299-.425-1.547-1.264l-1.04.32c.332 1.24 1.182 2.03 2.588 2.03 2.185 0 3.06-1.688 3.06-4.748 0-2.469-1.028-3.85-2.977-3.85zm0 1.087c1.005 0 1.701.768 1.701 1.713 0 .992-.708 1.69-1.7 1.69-1.028 0-1.713-.686-1.713-1.69 0-1.028.708-1.713 1.713-1.713zm5.469 7.347h1.181V74.42h-1.181c-.508.342-1.193.65-1.713.744v1.158c.532-.083 1.288-.331 1.713-.603v6.97zm5.628.166c1.654 0 2.93-1.146 2.93-2.811 0-1.63-1.17-2.741-2.86-2.741-.566 0-1.098.2-1.381.402l.236-2.198h3.461V74.42H106.9l-.449 4.17 1.051.366c.272-.343.839-.626 1.465-.626 1.028 0 1.76.72 1.76 1.713 0 1.004-.72 1.724-1.76 1.724-.957 0-1.701-.626-1.784-1.535l-1.098.33c.059 1.193 1.323 2.315 2.882 2.292zm4.47-.083c.437 0 .791-.354.791-.791 0-.437-.354-.792-.791-.792-.437 0-.792.355-.792.792 0 .437.355.791.792.791zm4.509.083c2.055 0 3.024-1.878 3.024-4.335 0-2.422-1.004-4.265-3.036-4.265-2.055 0-3.048 1.843-3.048 4.265 0 1.287.26 2.327.768 3.13.508.803 1.276 1.205 2.292 1.205zm0-1.087c-.638 0-1.11-.295-1.418-.898-.319-.59-.472-1.358-.472-2.315 0-.945.153-1.713.472-2.315.307-.603.78-.898 1.406-.898.614 0 1.075.295 1.394.898.307.602.46 1.37.46 2.315 0 .957-.153 1.737-.448 2.327-.307.59-.768.886-1.394.886zm7.035 1.087c1.654 0 2.894-1.134 2.894-2.788 0-1.665-1.205-2.764-2.788-2.764-.85 0-1.524.402-1.843.791.06-1.76.532-2.752 1.82-2.752.791 0 1.299.425 1.547 1.264l1.04-.319c-.331-1.24-1.182-2.032-2.587-2.032-2.186 0-3.06 1.69-3.06 4.749 0 2.469 1.028 3.85 2.977 3.85zm0-1.087c-1.004 0-1.701-.768-1.701-1.713 0-.992.709-1.689 1.7-1.689 1.029 0 1.714.685 1.714 1.69 0 1.003-.685 1.712-1.713 1.712z"/>
                            <rect width="189" height="115.5" x="10.5" y="175.875" fill="#2B2B2B" fill-rule="nonzero" rx="7.875"/>
                            <path fill="#7A7C89" fill-rule="nonzero" d="M39.32 259.338c1.305 0 2.325-.753 2.325-1.892 0-1.066-.68-1.636-2.15-1.939-1.038-.193-1.479-.423-1.479-1.001 0-.653.524-1.03 1.305-1.03.762 0 1.166.405 1.35 1.177l.855-.248c-.285-1.112-1.03-1.755-2.205-1.755-1.268 0-2.224.744-2.224 1.856 0 1.056.772 1.617 2.242 1.874.551.1.919.239 1.112.413.183.175.275.395.275.653 0 .689-.57 1.065-1.405 1.065-.873 0-1.351-.404-1.571-1.258l-.864.248c.303 1.212 1.158 1.837 2.435 1.837zm3.35-.12h.9v-4.547h-.9v4.548zm.46-5.218c.321 0 .578-.257.578-.588 0-.321-.257-.588-.579-.588-.33 0-.597.267-.597.588 0 .331.267.588.597.588zm3.732 7.222c1.516 0 2.279-.91 2.279-2.086v-4.465h-.754l-.147.597c-.285-.413-.78-.726-1.488-.726-1.286 0-2.15 1.103-2.15 2.352 0 1.259.827 2.325 2.16 2.325.688 0 1.221-.331 1.478-.744v.68c0 .817-.487 1.295-1.378 1.295-.652 0-1.056-.294-1.213-.891l-.845.202c.257.891.928 1.46 2.058 1.46zm.019-2.812c-.818 0-1.379-.606-1.379-1.516 0-.918.56-1.543 1.37-1.543.808 0 1.368.625 1.368 1.543 0 .91-.56 1.516-1.36 1.516zm3.45.809h.9v-2.536c0-.808.497-1.295 1.149-1.295.616 0 .974.294.974 1.13v2.7h.9v-2.857c0-1.221-.597-1.819-1.598-1.819-.616 0-1.094.24-1.443.708l-.138-.58h-.744v4.549zm7.69 0h.9V256.7c0-.799.45-1.304 1.047-1.304.267 0 .478.082.588.165l.35-.79c-.175-.12-.46-.23-.818-.23-.543 0-.965.303-1.186.699l-.137-.57h-.745v4.548zm7.527-1.994v-.358c0-1.378-.855-2.316-2.141-2.316-1.277 0-2.27 1.057-2.27 2.39 0 1.35.947 2.406 2.28 2.406 1.037 0 1.745-.532 2.011-1.295l-.771-.248c-.147.432-.607.79-1.24.79-.8 0-1.351-.634-1.406-1.369h3.537zm-3.528-.707c.11-.69.624-1.213 1.396-1.213.763 0 1.277.57 1.323 1.213h-2.72zm6.49-1.966c-1.267-.028-2.204 1.166-2.186 2.397 0 1.287.836 2.398 2.177 2.398.671 0 1.204-.303 1.507-.716v2.471h.9v-6.431h-.744l-.12.615c-.302-.413-.826-.734-1.533-.734zm.11.808c.818 0 1.388.661 1.388 1.59 0 .927-.57 1.589-1.387 1.589-.809 0-1.397-.662-1.397-1.59 0-.91.588-1.589 1.397-1.589zm7.41-.69h-.9v2.546c0 .808-.497 1.295-1.149 1.295-.616 0-.974-.312-.974-1.13v-2.71h-.9v2.866c0 1.222.597 1.81 1.598 1.81.616 0 1.094-.238 1.443-.707l.138.579h.744v-4.548zm1.237 4.549h.9v-4.548h-.9v4.548zm.46-5.219c.32 0 .578-.257.578-.588 0-.321-.257-.588-.579-.588-.33 0-.597.267-.597.588 0 .331.266.588.597.588zm1.683 5.219h.9V256.7c0-.799.45-1.304 1.048-1.304.266 0 .478.082.588.165l.35-.79c-.175-.12-.46-.23-.819-.23-.542 0-.964.303-1.185.699l-.138-.57h-.744v4.548zm7.527-1.994v-.358c0-1.378-.854-2.316-2.14-2.316-1.277 0-2.27 1.057-2.27 2.39 0 1.35.947 2.406 2.279 2.406 1.038 0 1.746-.532 2.012-1.295l-.772-.248c-.147.432-.606.79-1.24.79-.8 0-1.35-.634-1.406-1.369h3.537zm-3.528-.707c.11-.69.625-1.213 1.397-1.213.762 0 1.277.57 1.323 1.213h-2.72zm6.49 2.82c.708 0 1.232-.321 1.535-.735l.12.616h.744v-6.431h-.9v2.47c-.304-.413-.837-.716-1.507-.716-1.342 0-2.178 1.112-2.178 2.398-.018 1.231.919 2.426 2.187 2.398zm.11-.808c-.808 0-1.396-.68-1.396-1.59 0-.928.588-1.59 1.397-1.59.818 0 1.387.662 1.387 1.59s-.57 1.59-1.387 1.59zm7.67.817c.514 0 .873-.183 1.029-.367l-.414-.643c-.119.12-.266.174-.44.174-.322 0-.478-.174-.478-.533v-2.499h1.23v-.808h-1.23v-1.185h-.9v1.185h-.818v.808h.817v2.61c0 .78.496 1.258 1.204 1.258zm3.709 0c1.387 0 2.343-1.12 2.343-2.398 0-1.286-.956-2.407-2.343-2.407-1.36-.027-2.37 1.14-2.343 2.407-.027 1.26.965 2.426 2.343 2.398zm0-.826c-.836 0-1.442-.662-1.442-1.572 0-.9.606-1.58 1.442-1.58.827 0 1.442.68 1.442 1.58s-.615 1.572-1.442 1.572zm-76.78 13.823h.9v-3.74h1.24v-.808h-1.24v-.652c0-.368.166-.552.487-.552.22 0 .377.101.441.175l.441-.616c-.147-.174-.468-.376-1.056-.376-.708 0-1.213.496-1.213 1.268v.753h-.8v.808h.8v3.74zm2.989 0h.9v-4.548h-.9v4.548zm.46-5.219c.32 0 .578-.257.578-.588 0-.321-.257-.588-.579-.588-.33 0-.597.267-.597.588 0 .331.266.588.597.588zm1.683 5.219h.9v-2.536c0-.808.497-1.295 1.149-1.295.615 0 .974.294.974 1.13v2.7h.9v-2.857c0-1.221-.597-1.819-1.598-1.819-.616 0-1.094.24-1.443.708l-.138-.58h-.744v4.549zm6.474.128c.616 0 1.066-.193 1.341-.57l.092.442h.763v-3.014c0-1.075-.744-1.654-1.856-1.654-1.002 0-1.617.46-1.838 1.37l.8.192c.082-.523.395-.827 1.02-.827.652 0 .973.313.973.928v.101l-1.093.157c-1.277.183-1.773.707-1.773 1.488 0 .8.625 1.387 1.571 1.387zm.22-.744c-.56 0-.918-.275-.918-.689 0-.45.321-.652.974-.753l1.02-.156v.597c0 .652-.478 1.001-1.076 1.001zm3.077.616h.9v-6.431h-.9v6.43zm2.136 0h.9v-4.548h-.9v4.548zm.46-5.219c.321 0 .578-.257.578-.588 0-.321-.257-.588-.578-.588-.331 0-.598.267-.598.588 0 .331.267.588.598.588zm1.463 5.219h3.546l.01-.763h-2.463l2.435-3.078v-.707h-3.454v.772h2.352l-2.426 3.068v.708zm8.672-1.994v-.358c0-1.378-.854-2.316-2.14-2.316-1.278 0-2.27 1.057-2.27 2.39 0 1.35.946 2.406 2.278 2.406 1.039 0 1.746-.532 2.013-1.295l-.772-.248c-.147.432-.607.79-1.24.79-.8 0-1.351-.634-1.406-1.369h3.537zm-3.528-.707c.11-.69.625-1.213 1.396-1.213.763 0 1.278.57 1.323 1.213h-2.719zm12.41-1.847l-.983 3.464-1.01-3.464h-.883l-1.001 3.473-.983-3.473h-.91l1.406 4.548h.928l1.01-3.427 1.002 3.427h.928l1.405-4.548h-.91zm1.697 4.548h.9v-4.548h-.9v4.548zm.46-5.219c.321 0 .579-.257.579-.588 0-.321-.258-.588-.58-.588-.33 0-.596.267-.596.588 0 .331.266.588.597.588zm3.292 5.347c.514 0 .872-.183 1.029-.367l-.414-.643c-.12.12-.266.174-.44.174-.322 0-.479-.174-.479-.533v-2.499h1.232v-.808h-1.232v-1.185h-.9v1.185h-.818v.808h.818v2.61c0 .78.496 1.258 1.204 1.258zm1.82-.128h.89v-2.527c0-.808.515-1.304 1.149-1.304.616 0 .974.294.974 1.13v2.7h.9v-2.857c0-1.221-.588-1.819-1.59-1.819-.615 0-1.092.23-1.432.68v-2.434h-.892v6.43zm7.08.12c.707 0 1.23-.322 1.534-.736l.12.616h.744v-6.431h-.9v2.47c-.304-.412-.837-.716-1.508-.716-1.34 0-2.177 1.112-2.177 2.398-.018 1.231.919 2.426 2.187 2.398zm.11-.81c-.809 0-1.397-.68-1.397-1.589 0-.928.588-1.59 1.397-1.59.818 0 1.387.662 1.387 1.59s-.57 1.59-1.387 1.59zm3.486.69h.9v-2.518c0-.799.45-1.304 1.048-1.304.266 0 .477.082.588.165l.349-.79c-.175-.12-.46-.23-.818-.23-.542 0-.965.304-1.185.699l-.138-.57h-.744v4.548zm4.769.128c.615 0 1.066-.193 1.341-.57l.092.442h.763v-3.014c0-1.075-.744-1.654-1.856-1.654-1.002 0-1.617.46-1.838 1.37l.8.192c.082-.523.395-.827 1.02-.827.652 0 .973.313.973.928v.101l-1.093.157c-1.277.183-1.773.707-1.773 1.488 0 .8.625 1.387 1.57 1.387zm.22-.744c-.56 0-.918-.275-.918-.689 0-.45.321-.652.974-.753l1.02-.156v.597c0 .652-.478 1.001-1.076 1.001zm8.307-3.932l-.983 3.464-1.011-3.464h-.882l-1.002 3.473-.983-3.473h-.91l1.407 4.548h.927l1.011-3.427 1.002 3.427h.927l1.406-4.548h-.91zm1.309 4.612c.34 0 .615-.276.615-.615 0-.34-.275-.616-.615-.616-.34 0-.616.276-.616.615 0 .34.276.616.616.616z"/>
                            <path fill="#7A7C89" d="M28.547 260.86c2.718 0 4.922-2.204 4.922-4.923 0-2.718-2.204-4.921-4.922-4.921-2.718 0-4.922 2.203-4.922 4.922 0 2.718 2.204 4.921 4.922 4.921zm.19-6.236h-.781c-.353 0-.64.286-.64.64 0 .353.287.64.64.64h.213v2.346c0 .353.286.64.64.64.353 0 .64-.287.64-.64v-2.915c0-.392-.319-.71-.711-.71zm-.993-1.28c0-.47.382-.852.853-.852.47 0 .853.381.853.853 0 .47-.382.853-.853.853s-.853-.382-.853-.853z"/>
                            <path fill="#FFF" fill-rule="nonzero" d="M29.515 195.431l-1.417 5.376-1.438-5.376h-1.282l-1.438 5.45-1.428-5.45h-1.323l2.069 7.35h1.28l1.46-5.533 1.491 5.533h1.281l2.069-7.35h-1.323zm2.185 7.35h1.26v-5.24H31.7v5.24zm.61-5.953c.409 0 .755-.336.755-.746s-.346-.745-.756-.745c-.41 0-.735.336-.735.745 0 .41.326.746.735.746zm3.916 6.1c.64 0 1.082-.22 1.281-.462l-.525-.892c-.136.115-.294.178-.483.178-.325 0-.493-.189-.493-.556v-2.552h1.333v-1.102h-1.333v-1.365h-1.26v1.365h-.903v1.102h.903v2.73c0 .998.63 1.554 1.48 1.554zm2.077-.147h1.25v-2.866c0-.85.482-1.344 1.154-1.344.64 0 1.019.336 1.019 1.228v2.982h1.25v-3.17c0-1.481-.62-2.216-1.87-2.216-.65 0-1.165.241-1.554.724v-2.688h-1.25v7.35zm8.247.147c.787 0 1.344-.357 1.67-.787l.167.64h1.04v-7.35h-1.26v2.699c-.326-.42-.882-.735-1.628-.735-1.46 0-2.53 1.218-2.53 2.761 0 1.523 1.102 2.772 2.54 2.772zm.178-1.134c-.83 0-1.46-.693-1.46-1.638 0-.934.63-1.627 1.46-1.627.84 0 1.45.672 1.45 1.627 0 .956-.61 1.638-1.45 1.638zm3.962.987h1.26v-2.856c0-.84.472-1.354 1.102-1.354.284 0 .504.084.63.178l.452-1.102c-.2-.137-.515-.252-.903-.252-.62 0-1.071.325-1.323.756l-.179-.61h-1.04v5.24zm5.542.147c.683 0 1.166-.21 1.46-.62l.136.473h1.06v-3.444c0-.64-.21-1.134-.619-1.46-.41-.325-.934-.482-1.564-.482-1.229 0-1.9.525-2.195 1.585l1.113.273c.084-.556.4-.85 1.04-.85s.966.315.966.955v.063l-1.124.158c-1.543.21-2.068.85-2.068 1.732 0 .977.808 1.617 1.795 1.617zm.336-1.018c-.577 0-.924-.263-.924-.672 0-.43.284-.651.945-.746l1.04-.157v.609c0 .598-.462.966-1.06.966zm9.513-4.368l-1.029 3.748-1.06-3.748h-1.176l-1.06 3.77-1.04-3.77h-1.26l1.627 5.24h1.292l1.029-3.634 1.029 3.633h1.28l1.628-5.24h-1.26zm3.481 5.386c.683 0 1.166-.21 1.46-.62l.136.473h1.061v-3.444c0-.64-.21-1.134-.62-1.46-.409-.325-.934-.482-1.564-.482-1.228 0-1.9.525-2.194 1.585l1.113.273c.084-.556.399-.85 1.039-.85.64 0 .966.315.966.955v.063l-1.124.158c-1.543.21-2.068.85-2.068 1.732 0 .977.809 1.617 1.796 1.617zm.337-1.018c-.578 0-.924-.263-.924-.672 0-.43.283-.651.945-.746l1.039-.157v.609c0 .598-.462.966-1.06.966zm3.472.871h1.26v-7.35h-1.26v7.35z"/>
                            <path fill="#7A7C89" fill-rule="nonzero" d="M158.595 221.582c-.43.493-1.008.734-1.733.734-1.102 0-1.984-.566-2.373-1.564h1.87l.24-.84h-2.32c-.01-.2-.02-.347-.02-.452 0-.157.01-.315.03-.472h2.563l.241-.84h-2.572c.42-.956 1.28-1.554 2.33-1.554.746 0 1.324.263 1.712.714l.767-.64c-.64-.694-1.46-1.04-2.478-1.04-.82 0-1.533.231-2.153.683-.62.462-1.04 1.07-1.28 1.837h-.83l-.231.84h.882c-.01.2-.021.346-.021.462 0 .115.01.263.02.462h-.65l-.231.84h1.04c.22.787.64 1.397 1.26 1.848.619.452 1.343.672 2.194.672 1.04 0 1.88-.357 2.51-1.082l-.767-.608zm1.842 1.543h4.82v-.966h-3.34l1.712-1.512c.357-.304.65-.588.871-.83.441-.493.746-1.113.746-1.9 0-1.323-1.06-2.289-2.457-2.289-1.323 0-2.426.893-2.489 2.247l.977.284c0-.935.64-1.565 1.512-1.565.83 0 1.407.578 1.407 1.334 0 .283-.053.535-.168.766-.22.462-.515.756-1.134 1.292l-2.457 2.163v.976zm5.875 0h4.82v-.966h-3.34l1.712-1.512c.357-.304.651-.588.872-.83.44-.493.745-1.113.745-1.9 0-1.323-1.06-2.289-2.457-2.289-1.323 0-2.425.893-2.488 2.247l.976.284c0-.935.64-1.565 1.512-1.565.83 0 1.407.578 1.407 1.334 0 .283-.052.535-.168.766-.22.462-.514.756-1.134 1.292l-2.457 2.163v.976zm7.03 0h1.05v-7.35h-1.05c-.451.304-1.06.577-1.522.661v1.03c.473-.074 1.145-.294 1.523-.536v6.195zm3.008.073c.389 0 .704-.315.704-.703 0-.388-.315-.703-.704-.703-.388 0-.703.315-.703.703 0 .388.315.703.703.703zm4.337-.073h1.05v-1.922h.956v-.903h-.956v-4.525h-1.102l-3.266 4.63v.798h3.318v1.922zm-2.184-2.814l2.184-3.066v3.055l-2.184.011zm8.182 2.814h1.05v-1.922h.956v-.903h-.956v-4.525h-1.102l-3.266 4.63v.798h3.318v1.922zm-2.184-2.814l2.184-3.066v3.055l-2.184.011z"/>
                            <path fill="#F2F2F2" fill-rule="nonzero" d="M140.195 202.918c1.827 0 2.72-1.649 2.72-3.833 0-2.173-.904-3.811-2.73-3.811-1.849 0-2.752 1.638-2.752 3.811 0 1.145.231 2.069.704 2.772.462.704 1.144 1.06 2.058 1.06zm0-1.187c-1.008 0-1.48-1.008-1.48-2.635 0-1.586.472-2.636 1.47-2.636.965 0 1.448 1.05 1.448 2.636 0 1.606-.472 2.635-1.438 2.635zm4.031 1.124c.43 0 .798-.357.798-.788 0-.451-.346-.798-.798-.798-.43 0-.787.368-.787.798 0 .43.357.788.787.788zm2.518-.074h1.281v-7.35h-1.28c-.463.326-1.082.588-1.534.662v1.291c.472-.052 1.165-.283 1.533-.525v5.922zm4.894 0c.157-.955.472-2.037.945-3.244.472-1.197.945-2.174 1.417-2.92v-1.186h-4.83v1.187h3.392c-.441.745-.872 1.711-1.302 2.908-.43 1.208-.735 2.29-.903 3.255h1.28zm5.698-7.497c-1.502 0-2.625 1.019-2.625 2.51 0 1.49 1.081 2.478 2.478 2.478.745 0 1.291-.315 1.501-.599-.073 1.334-.462 2.069-1.438 2.069-.672 0-1.019-.357-1.218-.998l-1.134.336c.294 1.134 1.06 1.848 2.352 1.848 1.974 0 2.772-1.48 2.772-4.168 0-2.216-.893-3.476-2.688-3.476zm0 1.176c.787 0 1.333.578 1.333 1.334 0 .766-.567 1.323-1.333 1.323-.798 0-1.344-.525-1.344-1.323 0-.788.556-1.334 1.344-1.334zm6.31 6.458c1.826 0 2.719-1.649 2.719-3.833 0-2.173-.903-3.811-2.73-3.811-1.848 0-2.751 1.638-2.751 3.811 0 1.145.23 2.069.703 2.772.462.704 1.145 1.06 2.058 1.06zm0-1.187c-1.009 0-1.481-1.008-1.481-2.635 0-1.586.472-2.636 1.47-2.636.966 0 1.449 1.05 1.449 2.636 0 1.606-.473 2.635-1.439 2.635zm6.854 1.05h4.62v-1.155h-3.34v-1.984h2.899v-1.124h-2.898v-1.932h3.339v-1.155h-4.62v7.35zm7.482 0h1.281v-6.163h2.121v-1.187h-5.523v1.187h2.121v6.163zm4.443 0h1.281v-3.15h3.245v3.15h1.28v-7.35h-1.28v3.014h-3.245v-3.014h-1.281v7.35z"/>
                            <rect width="70.219" height="27.563" x="118.781" y="250.688" fill="#E75A2B" fill-rule="nonzero" rx="13.781"/>
                            <path fill="#F2F2F2" fill-rule="nonzero" d="M139.11 260.4l-1.418 5.376-1.439-5.376h-1.28l-1.44 5.45-1.427-5.45h-1.323l2.068 7.35h1.281l1.46-5.534 1.49 5.534h1.282l2.068-7.35h-1.323zm2.184 7.35h1.26v-5.24h-1.26v5.24zm.609-5.954c.41 0 .756-.335.756-.745s-.347-.745-.756-.745c-.41 0-.735.336-.735.745 0 .41.325.745.735.745zm3.917 6.101c.64 0 1.082-.22 1.281-.462l-.525-.892c-.136.115-.294.178-.483.178-.325 0-.493-.189-.493-.557v-2.551h1.333v-1.103H145.6v-1.364h-1.26v1.364h-.903v1.103h.903v2.73c0 .998.63 1.554 1.48 1.554zm2.076-.147h1.25v-2.866c0-.851.483-1.345 1.155-1.345.64 0 1.018.337 1.018 1.229v2.982h1.25v-3.171c0-1.48-.62-2.216-1.87-2.216-.65 0-1.165.242-1.553.725V260.4h-1.25v7.35zm8.248.147c.787 0 1.344-.357 1.669-.787l.168.64h1.04v-7.35h-1.26v2.699c-.326-.42-.882-.736-1.628-.736-1.46 0-2.53 1.219-2.53 2.762 0 1.522 1.102 2.772 2.54 2.772zm.178-1.134c-.83 0-1.46-.693-1.46-1.638 0-.935.63-1.627 1.46-1.627.84 0 1.449.672 1.449 1.627s-.609 1.638-1.449 1.638zm3.961.987h1.26v-2.856c0-.84.473-1.355 1.103-1.355.283 0 .504.084.63.179l.451-1.103c-.2-.136-.514-.252-.903-.252-.62 0-1.07.326-1.323.757l-.178-.61h-1.04v5.24zm5.543.147c.682 0 1.165-.21 1.46-.62l.136.473h1.06v-3.444c0-.64-.21-1.134-.62-1.46-.409-.325-.934-.483-1.564-.483-1.228 0-1.9.526-2.194 1.586l1.113.273c.084-.556.399-.85 1.04-.85.64 0 .965.315.965.955v.063l-1.123.158c-1.544.21-2.069.85-2.069 1.732 0 .977.809 1.617 1.796 1.617zm.336-1.019c-.578 0-.924-.262-.924-.671 0-.431.283-.651.945-.746l1.04-.158v.61c0 .598-.463.965-1.061.965zm9.513-4.368l-1.03 3.749-1.06-3.749h-1.176l-1.06 3.77-1.04-3.77h-1.26l1.628 5.24h1.291l1.03-3.633 1.028 3.633h1.281l1.628-5.24h-1.26z"/>
                            <path stroke="#7A7C89" stroke-width=".5" d="M21 240.023L189 240.023"/>
                            <rect width="40.031" height="19.688" x="21" y="210" fill="#11C65E" fill-rule="nonzero" opacity=".15" rx="5.25"/>
                            <path fill="#22DA70" fill-rule="nonzero" d="M29.07 222.588c1.305 0 2.325-.753 2.325-1.892 0-1.066-.68-1.636-2.15-1.939-1.038-.193-1.48-.423-1.48-1.001 0-.653.525-1.03 1.306-1.03.762 0 1.166.405 1.35 1.177l.855-.248c-.285-1.112-1.03-1.755-2.205-1.755-1.268 0-2.224.744-2.224 1.856 0 1.056.772 1.617 2.242 1.874.551.1.919.239 1.112.413.183.175.275.395.275.653 0 .689-.57 1.065-1.405 1.065-.873 0-1.351-.404-1.572-1.258l-.863.248c.303 1.212 1.158 1.837 2.435 1.837zm7.503-2.113v-.358c0-1.378-.855-2.315-2.14-2.315-1.278 0-2.27 1.056-2.27 2.388 0 1.35.946 2.407 2.278 2.407 1.038 0 1.746-.532 2.012-1.295l-.771-.248c-.147.432-.607.79-1.24.79-.8 0-1.351-.634-1.406-1.369h3.537zm-3.528-.707c.11-.69.624-1.213 1.396-1.213.763 0 1.277.57 1.323 1.213h-2.72zm6.628 2.83c.965 0 1.681-.561 2.003-1.406l-.818-.276c-.183.524-.624.855-1.185.855-.827 0-1.424-.662-1.424-1.572s.597-1.58 1.424-1.58c.579 0 1.01.322 1.185.864l.827-.276c-.285-.854-1.01-1.415-2.012-1.415-1.387 0-2.324 1.094-2.324 2.407 0 1.296.918 2.398 2.324 2.398zm6.933-4.677h-.9v2.545c0 .808-.496 1.295-1.149 1.295-.615 0-.974-.312-.974-1.13v-2.71h-.9v2.866c0 1.222.597 1.81 1.599 1.81.615 0 1.093-.239 1.442-.707l.138.579h.744v-4.548zm1.191 4.548h.9v-2.518c0-.799.45-1.304 1.048-1.304.266 0 .478.082.588.165l.35-.79c-.176-.12-.46-.23-.819-.23-.542 0-.964.303-1.185.699l-.138-.57h-.744v4.548zm7.528-1.994v-.358c0-1.378-.855-2.315-2.141-2.315-1.277 0-2.27 1.056-2.27 2.388 0 1.35.947 2.407 2.28 2.407 1.037 0 1.745-.532 2.011-1.295l-.772-.248c-.147.432-.606.79-1.24.79-.8 0-1.35-.634-1.406-1.369h3.538zm-3.528-.707c.11-.69.624-1.213 1.396-1.213.763 0 1.277.57 1.323 1.213h-2.72z"/>
                        </g>
                    </g>
                </g>
            </g>
        </g>
    </g>
</svg>
