<svg width="14" height="13" xmlns="http://www.w3.org/2000/svg"><path d="M6.69170506.302516c.35503815-.36728085.91812806-.40437839 1.31958929-.08800009L8.10829494.302516l4.79999996 4.96551724c.2167127.22418549.3186197.53309965.2856576.82020588.0083141.07810141.008081.15687845-.0007307.2347076l-.0107379.0715246-.0134483.0638117-.0381093.12172655-.0332142.07745001-.0436342.08202943-.0494718.07537771-.0919221.11090103-4.80922492 4.97504235-.09736698.0877138c-.39625898.3119875-.95934889.27489-1.31438704-.0923909-.35338687-.3655726-.38891759-.9427152-.08503639-1.3553749l.08501857-.1002926L9.791 7.23232452 1 7.23380728c-.51618707 0-.93993605-.40276191-.99414175-.9188216L0 6.2027728c0-.52051515.3763768-.95849524.88069357-1.0235746L1 5.17173831l8.992-.00041379-3.30029494-3.41312251C6.33268345 1.38680034 6.3050664.80354775 6.60885392.39955364z" fill="#FFF" fill-rule="nonzero"/></svg>