<svg xmlns="http://www.w3.org/2000/svg" width="24" height="24" viewBox="0 0 24 24">
    <g fill="none" fill-rule="evenodd">
        <g fill="#667285">
            <g>
                <path d="M257 52c6.627 0 12 5.373 12 12s-5.373 12-12 12-12-5.373-12-12 5.373-12 12-12zm.916 7.905c-.283-.146-.638-.1-.875.136-.293.293-.293.768 0 1.06l2.149 2.148-6.533.001-.102.007c-.366.05-.648.363-.648.743 0 .414.336.75.75.75h6.533l-2.149 2.148-.073.084c-.217.294-.193.71.073.977.293.293.768.293 1.06 0l3.43-3.429.072-.084c.218-.293.194-.71-.073-.976l-3.428-3.429-.084-.073z" transform="translate(-815 -3251) translate(570 3199)"/>
            </g>
        </g>
    </g>
</svg>
