<svg xmlns="http://www.w3.org/2000/svg" width="13" height="12" viewBox="0 0 13 12">
    <g fill="none" fill-rule="evenodd">
        <g fill="#667285" fill-rule="nonzero">
            <g>
                <g>
                    <path d="M7.844.19l.092.083 4.8 4.965c.201.208.288.49.259.762.007.07.007.142-.001.212L13 6.103c0 .121-.022.236-.063.342-.005.016-.012.03-.019.046l-.03.064-.02.034c-.013.022-.027.043-.042.064-.026.038-.056.074-.09.109l.066-.075c-.015.019-.03.037-.047.055l-.019.02-4.8 4.965-.092.084c-.353.277-.858.25-1.18-.084-.352-.363-.352-.953 0-1.316l3.262-3.377H.9c-.497 0-.9-.416-.9-.93 0-.475.343-.867.787-.924L.9 5.172h9.227L6.664 1.589c-.352-.363-.352-.953 0-1.316.322-.334.827-.361 1.18-.084z" transform="translate(-786 -1614) translate(610 1583) translate(176 31)"/>
                </g>
            </g>
        </g>
    </g>
</svg>
