<svg xmlns="http://www.w3.org/2000/svg" xmlns:xlink="http://www.w3.org/1999/xlink" width="100%" height="650" viewBox="0 0 519 650">
    <defs>
        <linearGradient id="k0juawxvhb" x1="47.741%" x2="98.842%" y1="31.864%" y2="75.766%">
            <stop offset="0%" stop-color="#FBBF5C"/>
            <stop offset="100%" stop-color="#FF6C34"/>
        </linearGradient>
        <linearGradient id="x2dg3iczpd" x1="43.518%" x2="50%" y1="-9.812%" y2="100%">
            <stop offset="0%" stop-color="#FFF6C2"/>
            <stop offset="100%" stop-color="#FFF6C8"/>
        </linearGradient>
        <linearGradient id="fxlykelwpe" x1="43.476%" x2="50%" y1="-9.812%" y2="100%">
            <stop offset="0%" stop-color="#FFF6C2"/>
            <stop offset="100%" stop-color="#FFF6C8"/>
        </linearGradient>
        <linearGradient id="vn2dwgxk1f" x1="32.143%" x2="77.123%" y1="51.971%" y2="242.308%">
            <stop offset="0%" stop-color="#FBE8CE"/>
            <stop offset="45.437%" stop-color="#FFE1B2"/>
            <stop offset="100%" stop-color="#6D6860"/>
        </linearGradient>
        <linearGradient id="7vaj0zv5ng" x1="32.367%" x2="76.783%" y1="51.971%" y2="242.308%">
            <stop offset="0%" stop-color="#FBE8CE"/>
            <stop offset="45.437%" stop-color="#FFE1B2"/>
            <stop offset="100%" stop-color="#6D6860"/>
        </linearGradient>
        <linearGradient id="7p2eddd65h" x1="32.143%" x2="54.303%" y1="0%" y2="117.148%">
            <stop offset="0%" stop-color="#FBF2CE"/>
            <stop offset="100%" stop-color="#FFD672"/>
        </linearGradient>
        <linearGradient id="nl95b4ejpi" x1="32.143%" x2="77.123%" y1="51.971%" y2="242.308%">
            <stop offset="0%" stop-color="#FBF2CE"/>
            <stop offset="45.437%" stop-color="#FFE1B2"/>
            <stop offset="100%" stop-color="#6D6860"/>
        </linearGradient>
        <linearGradient id="gl0fujez8j" x1="32.142%" x2="54.303%" y1="0%" y2="117.148%">
            <stop offset="0%" stop-color="#FBF2CE"/>
            <stop offset="100%" stop-color="#FFD672"/>
        </linearGradient>
        <linearGradient id="t6ab98ehjk" x1="32.142%" x2="77.124%" y1="51.971%" y2="242.308%">
            <stop offset="0%" stop-color="#FBF2CE"/>
            <stop offset="45.437%" stop-color="#FFE1B2"/>
            <stop offset="100%" stop-color="#6D6860"/>
        </linearGradient>
        <linearGradient id="ypdcasxtrl" x1="8.349%" x2="72.883%" y1="14.68%" y2="89.863%">
            <stop offset="0%" stop-color="#FFF8E3"/>
            <stop offset="100%" stop-color="#FFC94C"/>
        </linearGradient>
        <linearGradient id="849rtkp2pm" x1="8.494%" x2="72.804%" y1="14.68%" y2="89.863%">
            <stop offset="0%" stop-color="#FFF8E3"/>
            <stop offset="100%" stop-color="#FFC94C"/>
        </linearGradient>
        <linearGradient id="btvxnhqo8n" x1="-47.089%" x2="100%" y1="11.23%" y2="69.737%">
            <stop offset="0%" stop-color="#FAF4EA"/>
            <stop offset="100%" stop-color="#FFA600"/>
        </linearGradient>
        <linearGradient id="3vg2s9d72r" x1="76.494%" x2="0%" y1="31.284%" y2="50%">
            <stop offset="0%" stop-color="#E67724"/>
            <stop offset="100%" stop-color="#110E38"/>
        </linearGradient>
        <linearGradient id="vipagqc1ku" x1="76.494%" x2="0%" y1="31.317%" y2="50%">
            <stop offset="0%" stop-color="#E67724"/>
            <stop offset="100%" stop-color="#110E38"/>
        </linearGradient>
        <linearGradient id="amxck501cw" x1="100%" x2="0%" y1="25.723%" y2="50%">
            <stop offset="0%" stop-color="#FF7B19"/>
            <stop offset="100%" stop-color="#A17922"/>
        </linearGradient>
        <linearGradient id="g1mynkiuoy" x1="100%" x2="0%" y1="25.723%" y2="50%">
            <stop offset="0%" stop-color="#A17922"/>
            <stop offset="100%" stop-color="#FFAB6C"/>
        </linearGradient>
        <linearGradient id="bqk5qo7e4D" x1="50%" x2="50%" y1="0%" y2="100%">
            <stop offset="0%" stop-color="#FDD338"/>
            <stop offset="100%" stop-color="#FAA71A"/>
        </linearGradient>
        <linearGradient id="g6rt4luv2E" x1="50%" x2="50%" y1="0%" y2="100%">
            <stop offset="0%" stop-color="#F4964C"/>
            <stop offset="100%" stop-color="#E65D25"/>
        </linearGradient>
        <linearGradient id="xi0u8mp17F" x1="50%" x2="50%" y1="0%" y2="100%">
            <stop offset="0%" stop-color="#FAA71A"/>
            <stop offset="100%" stop-color="#FDD338"/>
        </linearGradient>
        <linearGradient id="qcjp5cc78G" x1="50%" x2="50%" y1="0%" y2="100%">
            <stop offset="0%" stop-color="#E65D25"/>
            <stop offset="100%" stop-color="#F4964C"/>
        </linearGradient>
        <linearGradient id="164t8xadrI" x1="100%" x2="25.499%" y1="77.555%" y2="37.875%">
            <stop offset="0%" stop-color="#FFAB37"/>
            <stop offset="100%" stop-color="#BA601B"/>
        </linearGradient>
        <linearGradient id="ysmwm49uxJ" x1="100%" x2="0%" y1="77.809%" y2="22.191%">
            <stop offset="0%" stop-color="#FFAA42"/>
            <stop offset="100%" stop-color="#E65D25"/>
        </linearGradient>
        <linearGradient id="y9dyvz1wrK" x1="100%" x2="0%" y1="78.38%" y2="21.62%">
            <stop offset="0%" stop-color="#FFAA42"/>
            <stop offset="100%" stop-color="#E65D25"/>
        </linearGradient>
        <linearGradient id="d40wn56w6L" x1="100%" x2="25.499%" y1="78.387%" y2="37.508%">
            <stop offset="0%" stop-color="#FFAB37"/>
            <stop offset="100%" stop-color="#BA601B"/>
        </linearGradient>
        <filter id="c33dvehd3s" width="238%" height="254.3%" x="-69%" y="-77.1%" filterUnits="objectBoundingBox">
            <feGaussianBlur in="SourceGraphic" stdDeviation="16.561"/>
        </filter>
        <filter id="jmrphoppwv" width="249%" height="266.7%" x="-74.5%" y="-83.3%" filterUnits="objectBoundingBox">
            <feGaussianBlur in="SourceGraphic" stdDeviation="13.801"/>
        </filter>
        <filter id="qyu4ssveex" width="280%" height="301.4%" x="-90%" y="-100.7%" filterUnits="objectBoundingBox">
            <feGaussianBlur in="SourceGraphic" stdDeviation="19.321"/>
        </filter>
        <filter id="wjqt07d6az" width="228.6%" height="243.8%" x="-64.3%" y="-71.9%" filterUnits="objectBoundingBox">
            <feGaussianBlur in="SourceGraphic" stdDeviation="13.801"/>
        </filter>
        <filter id="gwtxbxb7tA" width="288.7%" height="311.1%" x="-94.4%" y="-105.6%" filterUnits="objectBoundingBox">
            <feGaussianBlur in="SourceGraphic" stdDeviation="17.481"/>
        </filter>
        <radialGradient id="1amo1dysyo" cx="57.719%" cy="35.107%" r="52.005%" fx="57.719%" fy="35.107%" gradientTransform="rotate(-154.45 .576 .357) scale(1 1.03486)">
            <stop offset="0%" stop-color="#FB9C2F"/>
            <stop offset="44.398%" stop-color="#F87B2D"/>
            <stop offset="100%" stop-color="#D44B15"/>
        </radialGradient>
        <radialGradient id="zm7dcz0jmp" cx="57.719%" cy="35.107%" r="52.005%" fx="57.719%" fy="35.107%" gradientTransform="rotate(-154.45 .576 .357) scale(1 1.03486)">
            <stop offset="0%" stop-color="#FFDA6B"/>
            <stop offset="44.398%" stop-color="#FFBC1A"/>
            <stop offset="100%" stop-color="#FF9E22"/>
        </radialGradient>
        <radialGradient id="hlyoz3v38C" cx="60.739%" cy="17.288%" r="52.005%" fx="60.739%" fy="17.288%" gradientTransform="matrix(-.9022 -.4313 .44635 -.9336 1.078 .596)">
            <stop offset="0%" stop-color="#FCA645"/>
            <stop offset="44.398%" stop-color="#F87B2D"/>
            <stop offset="100%" stop-color="#D44B15"/>
        </radialGradient>
        <radialGradient id="zynzl0wo6H" cx="60.739%" cy="17.288%" r="52.005%" fx="60.739%" fy="17.288%" gradientTransform="rotate(-154.45 .607 .176) scale(1 1.03486)">
            <stop offset="0%" stop-color="#FCA645"/>
            <stop offset="44.398%" stop-color="#F87B2D"/>
            <stop offset="100%" stop-color="#D44B15"/>
        </radialGradient>
        <path id="cdsaklq07a" d="M485.765 37.77c-5.596 131.517-113.984 236.42-246.877 236.42-114.548 0-210.894-77.947-238.89-183.7C61.068 51.364 185.906-12.896 343.617 2.417c56.086 5.453 104 19.77 142.148 35.352z"/>
        <path id="g71etuymyB" d="M60.45 30.08c.353 15.872-11.775 29.246-27.607 30.442C17.012 61.718 3.013 50.316.978 34.571-1.056 18.825 9.586 4.24 25.202 1.373 40.817-1.494 55.946 8.359 59.638 23.8c.004.013.004.027 0 .04.49 2.045.762 4.137.811 6.24z"/>
        <circle id="53tqv7cs9q" cx="45.106" cy="45.584" r="44.919"/>
    </defs>
    <g fill="none" fill-rule="evenodd">
        <g>
            <g transform="translate(-658 -131) translate(658 131)">
                <g>
                    <g transform="translate(22.148 84.519) translate(8.214 220.022)">
                        <mask id="3zbs2a2nsc" fill="#fff">
                            <use xlink:href="#cdsaklq07a"/>
                        </mask>
                        <use fill="url(#k0juawxvhb)" fill-rule="nonzero" xlink:href="#cdsaklq07a"/>
                        <g mask="url(#3zbs2a2nsc)" opacity=".541">
                            <g stroke-width=".92">
                                <path stroke="url(#x2dg3iczpd)" d="M101.873 186.556c-10.083 1.26-13.52-19.385-29.42-21.662-11.805-1.689-15.968 8.823-27.61 6.77-13.196-2.326-24.87-18.821-21.728-28.88 3.055-9.78 18.664-8.833 20.369-18.05 1.547-8.366-10.684-12.53-9.959-23.014.535-7.707 7.853-15.712 16.295-16.697 9.683-1.13 18.54 7.244 21.275 15.342 4.239 12.556-7.357 21.136-2.265 30.235 2.838 5.067 7.191 3.762 21.728 10.83 13.598 6.612 21.47 10.44 23.99 18.05 3.525 10.657-4.343 26.033-12.675 27.076z" transform="rotate(-33 140.886 -271.715) rotate(134 69.005 135.766)"/>
                                <g stroke="#FFF6C8">
                                    <path d="M10.04 57.609c6.098-8.13 23.336 3.74 36.02-6.116 9.415-7.319 4.745-17.615 14.31-24.564 10.84-7.877 30.814-4.815 35.868 4.432 4.913 8.992-6.612 19.562-1.165 27.191 4.942 6.924 16.433 1.018 23.472 8.823 5.172 5.739 5.847 16.564.691 23.32-5.914 7.75-18.09 8.305-25.815 4.646C81.445 89.67 83.328 75.367 73.245 72.71c-5.616-1.479-7.701 2.56-22.884 8.106-14.202 5.189-22.424 8.193-29.648 4.717C10.598 80.667 5.003 64.327 10.04 57.61z" transform="rotate(-33 140.886 -271.715) rotate(-115 143.925 37.948)"/>
                                    <path d="M30.013 64.283c3.647-5.638 15.524 1.364 23.428-5.723 5.867-5.26 2.33-11.818 8.313-16.844 6.779-5.696 20.062-4.62 23.804 1.23 3.636 5.687-3.473 13.188.454 17.954 3.566 4.325 10.862-.103 15.845 4.703 3.662 3.534 4.592 10.628 1.503 15.32-3.543 5.38-11.531 6.318-16.78 4.273-8.137-3.17-7.54-12.673-14.294-13.948-3.762-.71-4.954 2.048-14.695 6.414-9.113 4.084-14.39 6.45-19.299 4.5-6.876-2.726-11.292-13.22-8.279-17.88z" transform="rotate(-33 140.886 -271.715) rotate(-115 143.925 37.948)"/>
                                </g>
                                <path stroke="url(#fxlykelwpe)" d="M90.923 169.125c-6.662.83-8.933-12.77-19.443-14.27-7.8-1.112-10.551 5.812-18.247 4.46-8.72-1.532-16.435-12.398-14.359-19.025 2.02-6.441 12.336-5.817 13.463-11.889 1.02-5.511-7.062-8.254-6.582-15.161.352-5.077 5.189-10.35 10.769-10.998 6.399-.744 12.252 4.772 14.059 10.107 2.802 8.27-4.861 13.922-1.497 19.916 1.875 3.337 4.753 2.479 14.36 7.134 8.986 4.356 14.19 6.876 15.853 11.89 2.331 7.02-2.869 17.148-8.376 17.836z" transform="rotate(-33 140.886 -271.715) rotate(130 69.201 135.668)"/>
                            </g>
                        </g>
                        <g stroke="#FFFACC" stroke-width=".92" mask="url(#3zbs2a2nsc)" opacity=".598">
                            <g>
                                <path d="M83.301 107.589c-10.595 1.335-14.206-20.52-30.915-22.93-12.404-1.789-16.778 9.339-29.012 7.166C9.508 89.363-2.758 71.9.543 61.253c3.21-10.354 19.612-9.35 21.403-19.108 1.626-8.855-11.226-13.262-10.464-24.361C12.044 9.625 19.734 1.15 28.605.109c10.175-1.196 19.481 7.668 22.354 16.24 4.455 13.292-7.73 22.375-2.379 32.007 2.982 5.363 7.556 3.982 22.831 11.464 14.289 7 22.561 11.05 25.207 19.108 3.706 11.28-4.562 27.557-13.317 28.66z" transform="rotate(-72 99.388 -95.228)"/>
                                <path stroke-linecap="square" d="M76.152 92.884c-7.695.958-10.318-14.732-22.457-16.462-9.01-1.284-12.187 6.705-21.075 5.144C22.548 79.8 13.637 67.262 16.036 59.617c2.332-7.432 14.247-6.712 15.548-13.717 1.18-6.359-8.156-9.523-7.602-17.492.408-5.857 5.994-11.94 12.439-12.689 7.39-.858 14.15 5.506 16.238 11.661 3.236 9.542-5.614 16.062-1.728 22.978 2.165 3.85 5.49 2.86 16.584 8.23 10.38 5.026 16.39 7.934 18.31 13.719 2.693 8.1-3.313 19.784-9.673 20.577z" transform="rotate(-72 99.388 -95.228)"/>
                            </g>
                        </g>
                        <path stroke="#FFF6C8" stroke-width=".92" d="M216.74 325.009c-11.494 1.437-15.412-22.099-33.539-24.695-13.457-1.925-18.203 10.058-31.475 7.718-15.044-2.651-28.351-21.456-24.77-32.924 3.483-11.15 21.277-10.07 23.22-20.577 1.765-9.536-12.179-14.282-11.352-26.235.61-8.786 8.952-17.912 18.576-19.035 11.04-1.287 21.136 8.258 24.253 17.49 4.833 14.313-8.386 24.096-2.581 34.468 3.235 5.776 8.198 4.289 24.77 12.346 15.501 7.538 24.476 11.901 27.347 20.578 4.02 12.148-4.95 29.677-14.448 30.866z" mask="url(#3zbs2a2nsc)" opacity=".609" transform="rotate(130 179.27 267.108)"/>
                        <path stroke="#FFF6C8" stroke-width=".92" d="M204.258 305.137c-7.596.946-10.185-14.557-22.165-16.267-8.893-1.268-12.029 6.626-20.802 5.084-9.941-1.746-18.736-14.134-16.37-21.688 2.303-7.344 14.063-6.632 15.348-13.554 1.164-6.283-8.05-9.41-7.504-17.283.403-5.788 5.916-11.798 12.277-12.538 7.295-.849 13.968 5.44 16.027 11.522 3.195 9.428-5.54 15.87-1.705 22.704 2.137 3.804 5.418 2.826 16.37 8.133 10.243 4.965 16.176 7.839 18.072 13.555 2.658 8.003-3.27 19.549-9.548 20.332z" mask="url(#3zbs2a2nsc)" opacity=".609" transform="rotate(130 179.495 266.996)"/>
                        <g stroke-linecap="square" stroke-width=".92" mask="url(#3zbs2a2nsc)" opacity=".669">
                            <g>
                                <path stroke="url(#vn2dwgxk1f)" d="M1.612 40.24C-3.755 21.724 4.211-4.087 26.546.548 35.932 2.497 42.1 11.798 44.89 20.335c2.012 6.15 2.018 12.377.391 18.605-1.477 5.652-6.078 11.667-5.433 17.572.995 9.074 10.118 15.557 15.637 21.96 7.869 9.13 17.45 25.027.646 29.696-10.412 2.893-26.426 1.38-33.253-8.082-3.467-4.805-1.97-9.33-1.435-14.663.919-9.155-.584-18.069-6.115-25.507-4.8-6.454-11.394-11.663-13.716-19.675z" transform="rotate(-33 509.825 -378.286)"/>
                                <path stroke="url(#7vaj0zv5ng)" d="M10.492 42.6c-3.452-11.983 1.67-28.685 16.032-25.685 6.034 1.262 10 7.28 11.795 12.804 1.293 3.98 1.297 8.008.25 12.037-.95 3.658-3.906 7.55-3.492 11.371.64 5.872 6.504 10.067 10.053 14.209 5.06 5.908 11.221 16.195.416 19.216-6.695 1.873-16.992.893-21.382-5.23-2.228-3.109-1.266-6.037-.921-9.487.59-5.924-.375-11.691-3.932-16.505-3.085-4.175-7.326-7.546-8.82-12.73z" transform="rotate(-33 509.825 -378.286)"/>
                            </g>
                        </g>
                        <g stroke-linecap="square" mask="url(#3zbs2a2nsc)" opacity=".669">
                            <g stroke-width=".92">
                                <path stroke="url(#7p2eddd65h)" d="M89.73 35.062C85.055 18.928 91.996-3.562 111.457.477c8.178 1.698 13.552 9.803 15.983 17.24 1.753 5.36 1.759 10.785.34 16.211-1.286 4.926-5.295 10.166-4.733 15.311.867 7.906 8.816 13.556 13.624 19.134 6.857 7.956 15.204 21.806.563 25.875-9.071 2.52-23.025 1.202-28.973-7.042-3.02-4.187-1.717-8.13-1.25-12.776.8-7.977-.51-15.744-5.329-22.224-4.181-5.624-9.927-10.163-11.95-17.144z" transform="rotate(85 73.775 128.411)"/>
                                <path stroke="url(#nl95b4ejpi)" d="M2.212 190.878c-4.676-16.134 2.265-38.624 21.726-34.585 8.177 1.699 13.551 9.803 15.983 17.241 1.753 5.36 1.758 10.784.34 16.21-1.287 4.926-5.295 10.166-4.733 15.311.867 7.907 8.816 13.556 13.624 19.134 6.856 7.956 15.204 21.806.563 25.875-9.072 2.521-23.025 1.203-28.974-7.042-3.02-4.186-1.716-8.13-1.25-12.776.8-7.977-.509-15.743-5.328-22.224-4.182-5.624-9.927-10.162-11.95-17.144z" transform="rotate(85 73.775 128.411)"/>
                                <path stroke="url(#gl0fujez8j)" d="M97.468 37.196c-3.008-10.374 1.455-24.834 13.969-22.237 5.257 1.092 8.713 6.303 10.277 11.086 1.126 3.444 1.13 6.932.218 10.421-.828 3.167-3.404 6.537-3.043 9.845.558 5.084 5.667 8.716 8.76 12.302 4.408 5.116 9.776 14.022.362 16.638-5.834 1.62-14.806.772-18.63-4.529-1.942-2.691-1.104-5.227-.804-8.213.516-5.13-.326-10.123-3.425-14.29-2.688-3.616-6.383-6.534-7.684-11.023z" transform="rotate(85 73.775 128.411)"/>
                                <path stroke="url(#t6ab98ehjk)" d="M9.95 193.012c-3.008-10.374 1.455-24.834 13.969-22.237 5.257 1.092 8.713 6.304 10.277 11.086 1.126 3.445 1.13 6.933.218 10.422-.828 3.166-3.404 6.537-3.044 9.844.559 5.084 5.668 8.716 8.76 12.302 4.41 5.116 9.777 14.022.363 16.638-5.834 1.621-14.806.773-18.63-4.529-1.942-2.69-1.104-5.227-.804-8.213.515-5.13-.327-10.123-3.425-14.29-2.689-3.615-6.384-6.534-7.685-11.023z" transform="rotate(85 73.775 128.411)"/>
                            </g>
                        </g>
                        <path stroke="url(#ypdcasxtrl)" stroke-width=".92" d="M518.521 175.038c-11.495 1.438-15.412-22.098-33.54-24.694-13.457-1.925-18.203 10.058-31.475 7.718-15.043-2.652-28.35-21.456-24.77-32.924 3.483-11.15 21.278-10.07 23.221-20.577 1.764-9.536-12.18-14.283-11.352-26.235.61-8.786 8.952-17.912 18.576-19.035 11.039-1.287 21.136 8.258 24.253 17.49 4.832 14.313-8.387 24.095-2.582 34.468 3.235 5.776 8.198 4.289 24.77 12.346 15.502 7.538 24.476 11.9 27.347 20.578 4.02 12.148-4.95 29.676-14.448 30.865z" mask="url(#3zbs2a2nsc)" opacity=".676" transform="rotate(28 481.051 117.138)"/>
                        <path stroke="url(#849rtkp2pm)" stroke-width=".92" d="M519.392 162.612c-8.195 1.027-10.989-15.784-23.915-17.638-9.595-1.375-12.979 7.184-22.444 5.512-10.726-1.893-20.215-15.326-17.662-23.517 2.485-7.963 15.173-7.191 16.56-14.697 1.255-6.813-8.687-10.203-8.097-18.741.434-6.276 6.383-12.793 13.246-13.595 7.87-.92 15.07 5.898 17.293 12.493 3.447 10.224-5.979 17.21-1.84 24.62 2.306 4.125 5.846 3.063 17.661 8.818 11.053 5.384 17.454 8.5 19.5 14.698 2.867 8.678-3.529 21.198-10.302 22.047z" mask="url(#3zbs2a2nsc)" opacity=".676" transform="rotate(28 492.674 121.255)"/>
                    </g>
                    <path fill="url(#btvxnhqo8n)" fill-rule="nonzero" d="M494.224 247.106c0 3.577-.077 7.145-.23 10.673-38.147-15.58-86.052-29.886-142.147-35.351C194.136 207.12 69.282 271.388 8.213 310.51 2.744 289.821-.017 268.507 0 247.106 0 110.633 110.633 0 247.103 0c136.47 0 247.12 110.633 247.12 247.106z" opacity=".4" transform="translate(22.148 84.519)"/>
                </g>
                <circle cx="166.346" cy="228.015" r="12.204" fill="url(#1amo1dysyo)" fill-rule="nonzero"/>
                <circle cx="65.569" cy="191.019" r="16.725" fill="url(#zm7dcz0jmp)" fill-rule="nonzero"/>
                <path fill="#E65D25" fill-rule="nonzero" d="M178.788 395.89c-.192-.092-.412-.19-.65-.305"/>
                <g>
                    <path fill="#2A2B2A" fill-rule="nonzero" d="M156.31 11.257c-.275-.697-.51-1.41-.702-2.135-.222-.859-.529-1.694-.914-2.494-.87-1.687-1.894-2.29-2.315-2.504.236.929.297 1.894.18 2.845-.55 4.432-4.742 7.56-9.369 6.99-.595-.069-1.181-.203-1.747-.4-.077-.127-.164-.248-.26-.362-1.06-1.302-3.51-1.019-4.574.396-.927 1.16-.927 2.806 0 3.965-.247.305-.49.628-.707.951-1.955 2.882-7.213 10.022-7.213 10.022-.112 1.19-.076 2.39.107 3.57-1.885 1.41-5.206 3.584-8.661 4.337-4.51.985-10.674-1.003-12.388-1.613-.305-.1-.46-.168-.46-.168-1.653-1.409-2.364-2.134-3.874-4.724-2.29-3.912-2.683-9.197-.195-13.113 2.352-3.702 6.728-5.795 10.912-6.374 5.474-.769 11.808-.403 17.197.71.189-.518.404-1.027.644-1.524 2.814-5.822 8.734-8.78 13.217-6.612.055-.058.122-.122.204-.195.712-.614 1.505-1.128 2.357-1.525 1.45-.729 3.071-1.046 4.688-.915 4.397.445 6.587 5.185 4.76 9.015-.302.604-.597 1.235-.887 1.857z" transform="rotate(1 -17401.762 439.003)"/>
                    <path fill="#E75A2B" fill-rule="nonzero" d="M39.14 231.41c-3.202 9.049-5.416 15.697-5.669 16.88-.13.538-.115 1.102.046 1.632.305.979 1.595 2.107 2.674 2.05l29.49-.117c.584-.032 1.094-.403 1.303-.948.21-.545.08-1.163-.333-1.577l-10.725-10.369c-.343-.366-.402-.915-.144-1.345l2.59-4.333-19.232-1.873z" transform="rotate(1 -17401.762 439.003) rotate(14 50.233 241.692)"/>
                    <path fill="#E75A2B" fill-rule="nonzero" d="M122.324 205.982c-4.687 7.908-8.002 13.748-8.46 14.812-.22.476-.309 1.003-.259 1.525.116.982 1.107 2.278 2.135 2.44l27.752 5.364c.554.077 1.102-.177 1.4-.65.298-.473.29-1.077-.018-1.543l-8.161-11.726c-.253-.407-.207-.933.113-1.29l3.241-3.592-17.743-5.34z" transform="rotate(1 -17401.762 439.003)"/>
                    <path fill="#2A2B2A" fill-rule="nonzero" d="M133.605 4.295l-.04-.022c-.09-.056-.155-.147-.178-.25-.024-.105-.004-.215.053-.305 1.641-2.592 4.49-4.034 7.256-3.66 1.778.27 3.393 1.192 4.528 2.587.122.17.092.404-.068.538s-.395.123-.542-.026c-1.012-1.232-2.441-2.05-4.016-2.302-2.458-.323-4.998.973-6.474 3.306-.113.17-.337.229-.519.134z" transform="rotate(1 -17401.762 439.003)"/>
                    <path fill="#2A2B2A" fill-rule="nonzero" d="M143.19 244.865l-36.295.504c-.09-6.483 3.286-12.522 8.856-15.842 5.57-3.32 12.487-3.416 18.147-.252 5.66 3.163 9.202 9.106 9.292 15.59z" transform="rotate(1 -17401.762 439.003) rotate(1 125.042 236.168)"/>
                    <path fill="#E75A2B" fill-rule="nonzero" d="M173.836 162.307c-3.29 6.133-6.965 11.952-9.945 17.173-6.614 11.589-12.677 21.79-18.975 33.59l-32.021-4.737c.453-1.187.914-2.387 1.381-3.599 6.121-15.98 13.144-33.85 20.625-50.072l.46-.997c2.044-4.42 4.103-8.774 6.176-13.062l-12.766-19.67-.2-1.08c-.068.152-.132.305-.196.463-6.404 15.249-20.738 46.42-28.432 62.534-11.15 23.373-17.219 34.903-26.682 54.982l-34.641-5.837c10.532-36.038 21.824-64.852 36.883-99.245.78-1.787 1.572-3.581 2.375-5.383 6.533-14.632 13.207-28.566 20.022-41.802 9.554-2.07 19.242-3.468 28.993-4.184 10.064-.74 16.395-.957 24.577-.478l.464.027.122.207c4.028 6.66 12.918 16.774 16.877 23.315 4.467 7.392 10.213 14.431 12.503 23.028 3.074 11.537-1.625 23.702-7.6 34.827z" transform="rotate(1 -17401.762 439.003)"/>
                    <g>
                        <g transform="rotate(1 -17401.762 439.003) translate(0 104.612) translate(.733 .254)">
                            <mask id="ispkixixet" fill="#fff">
                                <use xlink:href="#53tqv7cs9q"/>
                            </mask>
                            <use fill="#2A2B2A" fill-rule="nonzero" xlink:href="#53tqv7cs9q"/>
                            <path fill="url(#3vg2s9d72r)" fill-rule="nonzero" d="M35.182 28.197c5.658 4.79 8.971 12.792 9.94 21.812.917 8.97-.51 18.907-6.168 26.144-5.658 7.185-15.597 11.721-24.211 10.396-8.564-1.376-15.802-8.562-24.06-15.798-8.308-7.237-17.584-14.474-17.279-21.404C-26.29 42.416-16.4 35.79-8.093 31c8.258-4.79 14.884-7.746 22.224-8.46 7.34-.713 15.342.816 21.051 5.657z" filter="url(#c33dvehd3s)" mask="url(#ispkixixet)"/>
                            <path fill="url(#vipagqc1ku)" fill-rule="nonzero" d="M42.185 41.295c4.369 3.695 6.927 9.867 7.675 16.826.708 6.919-.394 14.585-4.763 20.168-4.368 5.543-12.043 9.042-18.694 8.02-6.612-1.062-12.2-6.605-18.576-12.187C1.412 68.539-5.75 62.956-5.515 57.61c.236-5.347 7.872-10.458 14.287-14.153 6.375-3.696 11.492-5.976 17.159-6.526 5.667-.55 11.846.629 16.254 4.364z" filter="url(#jmrphoppwv)" mask="url(#ispkixixet)" transform="rotate(-105 22.269 61.644)"/>
                            <path fill="url(#amxck501cw)" fill-rule="nonzero" d="M68.127-6.683C73.19-2.4 76.154 4.752 77.021 12.816c.82 8.018-.456 16.901-5.519 23.37C66.44 42.61 57.547 46.666 49.84 45.48c-7.662-1.23-14.138-7.653-21.526-14.123-7.434-6.469-15.734-12.938-15.46-19.134.273-6.195 9.12-12.118 16.555-16.4 7.388-4.282 13.317-6.925 19.884-7.563 6.567-.637 13.727.73 18.835 5.057z" filter="url(#qyu4ssveex)" mask="url(#ispkixixet)" transform="rotate(-105 45.048 16.899)"/>
                            <path fill="url(#g1mynkiuoy)" fill-rule="nonzero" d="M24.884-7.603c5.063 4.283 8.027 11.435 8.894 19.499.82 8.018-.456 16.901-5.519 23.37-5.062 6.424-13.955 10.479-21.663 9.294-7.662-1.23-14.138-7.653-21.526-14.123-7.434-6.469-15.734-12.938-15.46-19.134.273-6.195 9.12-12.118 16.555-16.4C-6.447-9.38-.518-12.022 6.049-12.66c6.567-.637 13.728.73 18.835 5.057z" filter="url(#wjqt07d6az)" mask="url(#ispkixixet)" transform="rotate(-105 1.805 15.979)"/>
                            <path fill="url(#vipagqc1ku)" fill-rule="nonzero" d="M109.35 45.895c4.368 3.695 6.926 9.868 7.674 16.826.708 6.92-.393 14.586-4.762 20.168-4.369 5.543-12.043 9.042-18.694 8.02-6.612-1.061-12.2-6.605-18.576-12.187-6.415-5.583-13.578-11.165-13.342-16.512.236-5.347 7.871-10.457 14.286-14.153 6.376-3.695 11.492-5.976 17.16-6.526 5.667-.55 11.846.629 16.254 4.364z" filter="url(#gwtxbxb7tA)" mask="url(#ispkixixet)" transform="rotate(-105 89.433 66.244)"/>
                        </g>
                    </g>
                    <path stroke="#231F20" stroke-linecap="round" stroke-linejoin="round" stroke-width="1.656" d="M38.637 232.953L60.296 235.751" transform="rotate(1 -17401.762 439.003)"/>
                    <path stroke="#231F20" stroke-linecap="round" stroke-width="1.656" d="M117.552 209.022L139.235 212.227" transform="rotate(1 -17401.762 439.003)"/>
                    <path fill="#FAA71A" fill-rule="nonzero" d="M177.91 34.971c5.124 1.041 10.123 2.16 14.996 3.355-7.712 6.87-11.337 17.23-9.591 27.41-1.688-.223-3.385-.426-5.093-.61-6.032-.64-12.156-1.134-17.975-1.503v-.027c-.071.695-.173 1.407-.305 2.134-1.25 6.74-4.88 11.44-7.517 14.123-.339.335-.658.689-.958 1.059-8.182-.48-14.504-.263-24.577.478-9.75.713-19.436 2.108-28.99 4.175-6.785 13.236-13.457 27.173-20.015 41.811-.801 1.8-1.593 3.594-2.376 5.383l-.287.195c-1.192 2.745-2.44 5.49-3.174 6.908-.599 1.195-1.328 2.32-2.175 3.354-.576.681-1.352 1.164-2.217 1.382-.915.226-2.135.284-3.153-.43-.8-.55-1.372-1.373-1.61-2.315-.254-1.08-.05-2.348.164-3.41.275-1.347-.729.415-1.01.77-1.405 1.783-4.007 1.786-5.766.566-2.037-1.405-2.208-3.632-2.09-4.937.059-.683.171-1.357.257-2.04-.058.055-1.183 1.32-2.214 1.918-1.171.671-2.922.894-4.22.247-2.517-1.247-2.782-5.087-2.611-7.502.213-3.09 1.26-6.057 2.311-8.945 1.168-3.2 2.53-6.327 4.078-9.362v.021c.186-.396 1.274-2.684 2.662-5.59 1.525-3.196 3.43-7.145 4.913-10.143 10.549-21.381 17.688-31.076 19.46-33.422 2.21-2.938 4.604-5.734 7.167-8.37 2.124-2.165 4.364-4.214 6.709-6.137 12.278-9.636 26.82-15.967 42.238-18.39l12.378 2.547c9.72 1.177 19.948 3.132 30.592 5.297z" transform="rotate(1 -17401.762 439.003)"/>
                    <path fill="#E65D25" fill-rule="nonzero" d="M250.493 51.745c-.517 1.212-1.281 2.302-2.245 3.202-.555.527-.61.521-1.33.265-.643-.232-1.286-.47-1.942-.662-1.964-.582-3.406-1.012-5.09-.89-.915.067-2.97.372-5.233 2.208.473-.381.814-1.543 1.137-2.08.531-.894 1.144-1.736 1.83-2.516 1.884-2.114 4.403-3.56 7.18-4.117 1.783-.305 4.311-.12 5.473 1.491.68.927.622 2.028.22 3.099z" transform="rotate(1 -17401.762 439.003)"/>
                    <path fill="#FAA71A" fill-rule="nonzero" d="M157.097 22.077c-.915 1.989-2.812 3.886-5.054 4.17-.954.107-1.92-.008-2.824-.336-.423.735-1.08 2.095-1.915 4.025-2.826 1.678-6.091 2.465-9.371 2.26-2.43-.163-4.791-.873-6.908-2.077-.827-.467-1.612-1.006-2.345-1.61 0 0 5.258-7.14 7.212-10.021.217-.323.46-.64.708-.952-.927-1.159-.927-2.805 0-3.964 1.076-1.415 3.525-1.699 4.574-.397.096.115.182.236.26.363.566.197 1.152.33 1.747.4 4.626.57 8.82-2.559 9.369-6.99.117-.951.056-1.916-.18-2.845.42.213 1.445.817 2.314 2.503.386.8.692 1.636.915 2.495.192.725.427 1.438.702 2.135.015.052.04.1.058.146.119.263.256.517.411.76.989 1.607 1.525 1.988 2.282 3.21.099.17.057.385-.098.504-.217.165-.442.305-.674.464-.162.106-.33.213-.488.323-.085.052-.384.186-.357.305.24.894.343 1.82.305 2.745-.079.825-.296 1.631-.643 2.384z" transform="rotate(1 -17401.762 439.003)"/>
                    <path fill="#231F20" fill-rule="nonzero" d="M152.223 20.638c-.917-.455-1.47-1.418-1.4-2.44.018-.22.21-.385.43-.369.107.008.205.058.274.139.07.08.104.185.096.291-.054.744.375 1.439 1.064 1.723.64.24 1.36.073 1.83-.424.153-.159.406-.164.565-.01.16.153.164.406.011.565-.694.732-1.76.973-2.702.61l-.168-.085zM151.366 12.684c-.05-.023-.093-.058-.128-.1-.07-.08-.106-.185-.098-.29.007-.107.057-.205.138-.274.352-.307.794-.492 1.26-.528.34-.025.68.032.994.168.099.04.177.118.217.217.04.1.037.21-.007.307-.04.098-.12.176-.218.215-.099.04-.21.038-.306-.004-.477-.203-1.028-.113-1.415.232-.122.104-.293.126-.437.057zM148.115 25.88c-.725-.351-1.412-.775-2.052-1.265-.614-.49-1.197-1.017-1.744-1.58l-.272-.265c-.091-.092-.18-.18-.268-.263-.162-.15-.172-.404-.022-.567.073-.079.173-.125.28-.128.107-.004.21.036.288.11.097.088.192.183.286.277l.269.266c.524.542 1.08 1.051 1.668 1.525.851.657 1.797 1.181 2.806 1.555.146.039.258.157.29.305.031.148-.023.302-.141.397-.118.095-.28.116-.418.054-.33-.122-.654-.263-.97-.42z" transform="rotate(1 -17401.762 439.003)"/>
                    <g>
                        <g>
                            <g transform="rotate(1 -17401.762 439.003) translate(181.981 29.2) translate(0 .638) translate(.19 .042)">
                                <use fill="url(#hlyoz3v38C)" fill-rule="nonzero" xlink:href="#g71etuymyB"/>
                            </g>
                        </g>
                    </g>
                    <path stroke="#231F20" stroke-linecap="round" stroke-linejoin="round" stroke-width="1.656" d="M154.889 47.948c2.44 2.677 5.568 6.965 5.94 12.147.087 1.201.018 2.409-.207 3.592M149.228 30.565c-4.55 1.608-11.38 3.206-17.636.857-1.451-.544-2.818-1.288-4.066-2.213M147.399 149.645L141.534 140.6" transform="rotate(1 -17401.762 439.003)"/>
                    <path stroke="#231F20" stroke-linecap="round" stroke-width="1.656" d="M74.432 62.629c9.04 3.716 17.15 9.382 23.748 16.593" transform="rotate(1 -17401.762 439.003)"/>
                    <path fill="#E65D25" fill-rule="nonzero" d="M248.135 64.364c-.036.485.635.61.882 1.43.162.608.117 1.252-.128 1.83-.644 1.543-3.355 2.745-3.437 2.806l.195-.07c.232-.092 1.622 1.26 1.644 2.86.043.746-.132 1.488-.503 2.135-1.663 2.629-7.155 1.72-8.973 1.418-2.46-.408-4.05-.698-4.812-2.083-.685-1.383-.533-3.034.393-4.27.897-1.094 2.364-1.006 2.44-1.744.043-.457-.503-.576-1.15-1.524-.305-.473-1.11-1.65-.792-2.763.283-1 1.357-1.556 1.903-1.83 1.021-.53 1.561-.37 1.68-.72.229-.68-1.766-1.375-2.565-3.257-.34-.855-.425-1.79-.247-2.693 2.281-1.86 4.337-2.135 5.233-2.208 1.684-.122 3.126.305 5.09.89.868.262 1.722.568 2.559.916-.14.11-.284.22-.433.326 2.44.762 4.053 2.586 4.044 4.38-.007.971-.368 1.907-1.016 2.631-.875.866-1.96.918-2.007 1.54z" transform="rotate(1 -17401.762 439.003)"/>
                    <path stroke="#231F20" stroke-linecap="round" stroke-linejoin="round" stroke-width="1.656" d="M126.438 124.369L135.316 105.763" transform="rotate(1 -17401.762 439.003)"/>
                    <path stroke="#231F20" stroke-linecap="round" stroke-width="1.656" d="M109.351 82.318L140.302 79.738M109.738 68.823c-2.29 2.826-4.438 5.766-6.434 8.807-1.9 2.891-3.535 5.682-4.944 8.308" transform="rotate(1 -17401.762 439.003)"/>
                    <path fill="#FAA71A" fill-rule="nonzero" stroke="#231F20" stroke-linecap="round" stroke-width="1.656" d="M101.178 80.982l-2.656 4.574c-3.33 5.95-6.64 12.239-9.927 18.869-2.084 4.22-4.048 8.375-5.892 12.464" transform="rotate(1 -17401.762 439.003)"/>
                    <path stroke="#231F20" stroke-linecap="round" stroke-linejoin="round" stroke-width="1.656" d="M58.156 122.659L54.448 132.793M67.4 126.69L63.06 138.435" transform="rotate(1 -17401.762 439.003)"/>
                    <path stroke="#231F20" stroke-linecap="round" stroke-width="1.656" d="M178.658 35.09c.418 4.453.329 8.938-.265 13.37-.763 5.774-2.366 11.405-4.758 16.715" transform="rotate(1 -17401.762 439.003)"/>
                    <path fill="#E65D25" fill-rule="nonzero" stroke="#2A2B2A" stroke-linecap="round" stroke-width="1.656" d="M241.21 76.907s-6.063 0-7.734-2.18c-1.077-1.4-1.126-3.318.024-4.526 1.15-1.207 3.257-1.345 4.88-1.186 1.415.14 2.839.61 4.27.768l3.027.342" transform="rotate(1 -17401.762 439.003)"/>
                    <path stroke="#2A2B2A" stroke-linecap="round" stroke-width="1.656" d="M243.674 69.887c-1.788-.07-3.559-.384-5.26-.936-1.446-.46-3.337-1.007-4.191-2.376-.622-1.072-.532-2.414.226-3.394.552-.653 1.42-.985 2.229-1.177 3.495-.833 7.886.506 9.344 1.067" transform="rotate(1 -17401.762 439.003)"/>
                    <path stroke="#2A2B2A" stroke-linecap="round" stroke-width="1.656" d="M244.93 62.739c-3.171-.683-5.523-1.193-6.983-1.806-2.154-.915-2.77-1.653-3.05-2.372-.36-.943-.259-2 .271-2.858.19-.305.76-1.046 2.495-1.458 3.626-.866 8.188.754 9.7 1.336" transform="rotate(1 -17401.762 439.003)"/>
                </g>
                <path fill="#E65D25" fill-rule="nonzero" d="M252.733 373.7v.034c.003-.015.003-.03 0-.046v.013z"/>
                <path fill="#231F20" fill-rule="nonzero" d="M166.322 331.795H167.322V332.795H166.322z" transform="rotate(-64.18 166.397 331.994)"/>
                <path stroke="#231F20" stroke-width=".613" d="M106.056 410.815c-.03.055-.058.104-.085.159"/>
                <path d="M236.161 374.972L231.395 398.924"/>
                <g fill-rule="nonzero">
                    <g fill="#E65D25" opacity=".6">
                        <path d="M38.648.184L.047 30.609c8.654 3.889 17.573 7.161 26.69 9.793 7.575 2.19 15.274 3.93 23.055 5.215 5.215-4.177 10.633-8.849 16.147-14.058 7.42-7.013 14.427-14.45 20.986-22.274L38.648.184z" transform="translate(162.726 26.217) translate(0 52.15)"/>
                    </g>
                    <g fill="url(#bqk5qo7e4D)" opacity=".88" transform="translate(162.726 26.217)">
                        <path d="M.047 82.758c8.498 3.747 17.232 6.934 26.146 9.54 7.758 2.27 15.638 4.094 23.604 5.466C41.801 65.184 33.802 32.596 25.8 0c-4.556 11.07-9.035 23.094-13.21 36.043C7.249 52.608 3.173 68.28.047 82.758z"/>
                    </g>
                    <g fill="url(#g6rt4luv2E)" opacity=".8" transform="translate(162.726 26.217) translate(25.8)">
                        <path d="M0 0l23.997 97.764c7.58-6.013 14.804-12.46 21.64-19.307 5.818-5.832 10.978-11.563 15.493-17.017-8.59-10.43-18.458-21.488-29.728-32.772C20.607 17.852 10.026 8.333 0 0z"/>
                    </g>
                    <path fill="url(#xi0u8mp17F)" d="M2.07 90.992c7.273 7.63 15.408 15.557 24.46 23.572 10.843 9.599 22.198 18.604 34.015 26.975l-8.725-35.541c-5.82-.74-11.592-1.805-17.292-3.192-11.22-2.734-22.105-6.696-32.458-11.814z" transform="translate(162.726 26.217)"/>
                    <path fill="url(#qcjp5cc78G)" d="M51.82 105.998l8.725 35.54c6.596-12.399 12.43-25.19 17.47-38.299 4.229-10.999 7.893-22.206 10.98-33.578-6.943 8.247-14.375 16.069-22.258 23.423-5.072 4.724-10.073 9.019-14.917 12.914z" transform="translate(162.726 26.217)"/>
                </g>
                <g>
                    <g>
                        <g>
                            <g>
                                <g transform="rotate(8 -437.332 2181.715)">
                                    <path fill="#2B2B2B" fill-rule="nonzero" d="M98.396 149.74c-9.207 3.736-18.572 7.097-28.106 9.912-5.858 1.729-11.774 3.171-17.71 4.614-6.044 1.467-12.115 2.98-18.328 3.51-2.586.223-4.458-.964-6.593-2.23-1.68-.996-3.309-2.085-5.05-2.979-1.671-.854-4.105-1.336-5.587.147-1.22 1.22-1.22 3.29-.226 4.632.686.936 1.857 1.491 2.812 2.117-4.916.35-8.887.686-13.806 1.024-1.65.113-3.66.635-4.773 1.983-1.659 2.034.458 4.5 2.477 5.184-.757-.26-1.995.762-2.458 1.266-2.44 2.674-.275 6.361 2.97 6.895-.33-.052-1.147.494-1.446.662-.524.265-.994.627-1.384 1.067-.562.71-.856 1.596-.83 2.5.186 3.233 3.8 3.755 6.32 4.032 7.123.781 14.534 0 21.67-.305 13.228-1.034 26.338-3.227 39.182-6.553 7.368-1.913 14.635-4.197 21.772-6.844l9.094-30.634z"/>
                                    <path fill="#E75A2B" fill-rule="nonzero" d="M153.293 336.261c1.37 8.7 2.492 15.029 2.806 16.093.128.492.386.94.747 1.296.686.653 2.208 1.004 3.05.485l23.735-12.982c.458-.277.71-.797.644-1.328-.066-.53-.437-.973-.949-1.13l-13.177-3.66c-.437-.145-.724-.562-.705-1.021l.195-4.63-16.346 6.877zM92.492 339.903c3.556 8.054 6.041 13.982 6.355 15.05.158.482.184.998.074 1.494-.223.915-1.312 2.037-2.306 2.059l-26.986 1.933c-.535.012-1.027-.292-1.256-.775-.23-.484-.153-1.057.194-1.463l9.094-10.22c.288-.359.305-.865.04-1.241l-2.671-3.785 17.462-3.052z"/>
                                    <circle cx="145.713" cy="44.015" r="30.737" fill="url(#zynzl0wo6H)" fill-rule="nonzero" transform="rotate(-45 145.713 44.015)"/>
                                    <path fill="#E65D25" fill-rule="nonzero" d="M135.7 186.08c7.767 20.128 18.417 42.05 25.468 65.644 7.7 25.773 13.723 50.247 18.49 73.05l-28.057 12.79c-6.438-13.42-12.888-28.38-18.933-44.806-5.681-15.44-9.667-28.012-13.348-41.653-.13.814-.262 1.634-.397 2.461-2.342 14.395-5.184 29.366-8.654 44.83-3.258 14.566-6.807 28.463-10.54 41.674l-33.418 4.907c3.102-35.841 8.398-71.46 15.858-106.653 3.461-16.316 7.267-31.967 11.311-46.925l42.22-5.319z"/>
                                    <path fill="#2B2B2B" fill-rule="nonzero" d="M135.7 186.08l7.383-29.582c4.574-17.035 7.719-31.826 9.908-43.54 0 0 5.45-29.142 6.82-52.57.045-.741.137-2.876.304-7.142l.101-10.107c.021-2.022.247-4.346-1-6.1-1.318-1.829-3.876-2.561-5.703-1.027-.483.415-.895.905-1.22 1.452-.195.305-.817 1.177-.772 1.525-.451-3.529-4.351-6.017-7.337-3.48-.564.479-1.717 1.775-1.467 2.604-.665-2.208-3.248-4.593-5.51-2.882-1.504 1.138-2.136 3.303-2.334 5.084-.558 5.303-1.076 9.582-1.65 14.883-.637-1.056-1.192-2.343-2.177-3.123-1.159-.915-2.824-1.22-4.169-.534-2.519 1.28-2.245 4.443-1.22 6.63.915 1.967 2.254 3.797 3.355 5.663 1.207 2.033 2.398 4.077 3.57 6.13-1.079 15.453-2.033 19.951-5.522 38.328-2.595 13.675-5.678 26.35-8.975 37.95l-16.706 1.525c-5.078 1.552-10.427 3.355-15.996 5.49-5.074 1.924-9.844 3.915-14.297 5.919l.196-.088 6.404 25.187 11.589-3.943c.413 2.052 1.003 4.064 1.765 6.014.681 1.734 1.497 3.412 2.44 5.02.015.1.03.2.049.304 9.743-2.717 19.732-4.464 29.82-5.215 4.345-.283 8.45-.402 12.35-.375z"/>
                                    <path stroke="#FAA71A" stroke-linecap="round" stroke-linejoin="round" stroke-width="1.656" d="M71.312 159.124c3.78 7.89 5.957 16.45 6.404 25.187"/>
                                    <path stroke="#231F20" stroke-linecap="round" stroke-linejoin="round" stroke-width="1.656" d="M117.623 258.778c1.095-6.874 1.461-9.408 2.336-16.007M69.604 344.498L95.844 340.647M151.613 337.563L169.63 329.378"/>
                                    <path stroke="#FAA71A" stroke-linecap="round" stroke-linejoin="round" stroke-width="1.656" d="M3.506 177.66L14.847 176.443M4.018 185.824L15.82 184.921"/>
                                    <path stroke="#231F20" stroke-linecap="round" stroke-width="1.656" d="M137.434 358.083c5.58-2.415 11.48-3.522 17.457-3.276 9.363.435 17.175 4.293 22.833 8.12"/>
                                </g>
                                <path stroke="#FAA71A" stroke-linecap="round" stroke-linejoin="round" stroke-width="1.656" d="M142.744 38.153L141.451 51.337M151.549 39.028L150.424 50.989" transform="rotate(8 -437.332 2181.715)"/>
                            </g>
                            <path stroke="#FAA71A" stroke-linecap="round" stroke-linejoin="round" stroke-width="1.656" d="M124.48 121.04c7.98 3.902 16.573 6.4 25.4 7.383" transform="rotate(8 -437.332 2181.715)"/>
                        </g>
                        <path stroke="#231F20" stroke-linecap="round" stroke-width="1.656" d="M93.273 191.704L114.782 188.663" transform="rotate(8 -437.332 2181.715)"/>
                    </g>
                    <path fill="#FAA71A" fill-rule="nonzero" d="M118.155 130.86c11.476 8.365 19.42 20.738 26.163 33.01 6.167 11.22 12.199 23.397 16.255 35.787 2.305 7.033 10.411 29.344 2.36 34.767-3.754 2.525-7.377-2.18-10.369-3.995-3.168-1.916-6.553-3.578-10.29-3.965-5.117-.503-9.545 2.345-14.308 3.632-7.103 1.921-15.554-.229-20.714-5.544-3.171-3.276-4.528-8.808-5.56-13.663-1.628-7.679-2.439-15.8-2.67-23.717 0 0-1.568-30.64.875-47.477.61-4.136 1.043-10.98 4.821-12.278 4.404-1.525 9.582.637 13.437 3.443z" transform="rotate(8 -437.332 2181.715)"/>
                    <path stroke="#2B2B2B" stroke-linecap="round" stroke-width="1.656" d="M133.352 228.113c6.945-2.814 11.302-.733 17.275 2.441 3.395 1.804 8.496 7.053 12.749 5.215 6.277-2.713 3.764-14.078 3.01-18.937" transform="rotate(8 -437.332 2181.715)"/>
                </g>
                <path fill="url(#164t8xadrI)" fill-rule="nonzero" d="M140.264 156.229l-65.836-50.08 67.285 48.116c.548.392.675 1.155.282 1.703-.392.548-1.155.674-1.703.282l-.028-.021z"/>
                <path fill="url(#ysmwm49uxJ)" fill-rule="nonzero" d="M345.895 130.206l-37.356-29.06 38.795 27.099c.552.386.687 1.147.3 1.7-.386.552-1.147.687-1.7.3l-.04-.04z"/>
                <path fill="#231F20" fill-rule="nonzero" d="M105.861 287.965l-28.108-22.262 29.557 20.286c.36.247.56.667.526 1.101-.034.435-.297.819-.69 1.007-.394.188-.858.152-1.218-.095l-.067-.037z"/>
                <path fill="url(#y9dyvz1wrK)" fill-rule="nonzero" d="M317.874 202.077l-18.298-15.02 19.759 13.06c.364.24.572.657.545 1.092-.026.436-.283.824-.674 1.019-.39.195-.855.166-1.219-.074-.039-.024-.077-.05-.113-.077z"/>
                <path fill="url(#d40wn56w6L)" fill-rule="nonzero" d="M516.64 288.728l-18.299-15.023 19.76 13.059c.563.372.718 1.13.345 1.694-.372.563-1.13.718-1.694.346-.039-.024-.076-.049-.112-.076z"/>
                <circle cx="243.34" cy="204.389" r="2.498" fill="#FFF3E2" fill-rule="nonzero"/>
                <circle cx="472.361" cy="244.815" r="1.921" fill="#FFF3E2" fill-rule="nonzero" opacity=".843"/>
                <circle cx="286.877" cy="155.991" r="2.498" fill="#FFF3E2" fill-rule="nonzero" opacity=".843"/>
                <circle cx="345.114" cy="173.956" r="1.851" fill="#FFF3E2" fill-rule="nonzero" opacity=".843"/>
                <circle cx="177.495" cy="173.956" r="1.824" fill="#FFF3E2" fill-rule="nonzero"/>
                <circle cx="107.709" cy="204.389" r="2.498" fill="#FFF3E2" fill-rule="nonzero"/>
            </g>
        </g>
    </g>
</svg>
