<svg width="5658" height="832" xmlns="http://www.w3.org/2000/svg" xmlns:xlink="http://www.w3.org/1999/xlink">
    <defs>
        <linearGradient x1="50%" y1="-12.907%" x2="50%" y2="100%" id="a">
            <stop stop-color="#6A27E5" offset="0%"/>
            <stop stop-color="#4B47FF" offset="100%"/>
        </linearGradient>
        <linearGradient x1="50%" y1="-12.907%" x2="50%" y2="100%" id="b">
            <stop stop-color="#6A27E5" offset="0%"/>
            <stop stop-color="#4B47FF" offset="100%"/>
        </linearGradient>
        <linearGradient x1="6.804%" y1="30.317%" x2="111.664%" y2="30.317%" id="d">
            <stop stop-color="#8014F5" offset="0%"/>
            <stop stop-color="#5D4BFF" stop-opacity=".773" offset="100%"/>
        </linearGradient>
        <linearGradient x1="50%" y1="-9.707%" x2="50%" y2="100%" id="e">
            <stop stop-color="#6F27E5" offset="0%"/>
            <stop stop-color="#4F50F4" offset="100%"/>
        </linearGradient>
        <linearGradient x1="44.992%" y1="48.874%" x2="50%" y2="50.781%" id="f">
            <stop stop-color="#2164ED" offset="0%"/>
            <stop stop-color="#6729F3" offset="100%"/>
        </linearGradient>
        <linearGradient x1="50%" y1="0%" x2="50%" y2="100%" id="g">
            <stop stop-color="#6A1BFA" offset="0%"/>
            <stop stop-color="#ADDBFF" offset="100%"/>
        </linearGradient>
        <linearGradient x1="90.988%" y1="9.683%" x2="-19.393%" y2="109.224%" id="i">
            <stop stop-color="#863AFD" offset="0%"/>
            <stop stop-color="#541BFA" offset="100%"/>
        </linearGradient>
        <linearGradient x1="131.354%" y1="50%" x2="0%" y2="50%" id="j">
            <stop stop-color="#4C90FF" offset="0%"/>
            <stop stop-color="#5121E0" offset="100%"/>
        </linearGradient>
        <linearGradient x1="76.494%" y1="31.317%" x2="0%" y2="50%" id="m">
            <stop stop-color="#262933" offset="0%"/>
            <stop stop-color="#222941" offset="100%"/>
        </linearGradient>
        <linearGradient x1="55.051%" y1="25.047%" x2="94.271%" y2="73.76%" id="t">
            <stop stop-color="#9C66FF" stop-opacity="0" offset="0%"/>
            <stop stop-color="#FFA14B" stop-opacity=".5" offset="100%"/>
        </linearGradient>
        <linearGradient x1="39.177%" y1="41.304%" x2="69.44%" y2="0%" id="u">
            <stop stop-color="#8E47FF" stop-opacity="0" offset="0%"/>
            <stop stop-color="#FFAA43" stop-opacity=".5" offset="100%"/>
        </linearGradient>
        <linearGradient x1="54.04%" y1="23.931%" x2="11.194%" y2="80.455%" id="v">
            <stop stop-color="#8D35FF" stop-opacity="0" offset="0%"/>
            <stop stop-color="#8517FF" stop-opacity=".5" offset="100%"/>
        </linearGradient>
        <linearGradient x1="34.175%" y1="3.171%" x2="59.338%" y2="58.864%" id="w">
            <stop stop-color="#82FCFD" stop-opacity=".49" offset="0%"/>
            <stop stop-color="#A538FF" stop-opacity="0" offset="100%"/>
        </linearGradient>
        <linearGradient x1="100%" y1="50%" x2="0%" y2="50%" id="y">
            <stop stop-color="#A74FF4" offset="0%"/>
            <stop stop-color="#7851EA" offset="100%"/>
        </linearGradient>
        <linearGradient x1="50%" y1="0%" x2="84.114%" y2="86.08%" id="A">
            <stop stop-color="#121723" offset="0%"/>
            <stop stop-color="#121723" offset="100%"/>
        </linearGradient>
        <linearGradient x1="50%" y1="0%" x2="50%" y2="100%" id="C">
            <stop stop-color="#752CCE" offset="0%"/>
            <stop stop-color="#7C4DDC" offset="44.722%"/>
            <stop stop-color="#7A62E7" offset="68.111%"/>
            <stop stop-color="#7070E7" offset="100%"/>
        </linearGradient>
        <linearGradient x1="31.925%" y1="51.971%" x2="50%" y2="100%" id="D">
            <stop stop-color="#CEDBFB" offset="0%"/>
            <stop stop-color="#567DFF" offset="100%"/>
        </linearGradient>
        <linearGradient x1="31.713%" y1="51.971%" x2="50%" y2="100%" id="F">
            <stop stop-color="#CEDBFB" offset="0%"/>
            <stop stop-color="#567DFF" offset="100%"/>
        </linearGradient>
        <linearGradient x1="100%" y1="50%" x2="0%" y2="50%" id="J">
            <stop stop-color="#7F29E5" offset="0%"/>
            <stop stop-color="#9144F0" offset="54.425%"/>
            <stop stop-color="#5227E5" offset="100%"/>
        </linearGradient>
        <linearGradient x1="50%" y1="2.011%" x2="50%" y2="100%" id="K">
            <stop stop-color="#EE9B5E" stop-opacity="0" offset="0%"/>
            <stop stop-color="#F1AB51" stop-opacity=".761" offset="11.736%"/>
            <stop stop-color="#F2B14C" offset="16.411%"/>
            <stop stop-color="#F2AE4F" stop-opacity=".885" offset="20.136%"/>
            <stop stop-color="#F19B5F" stop-opacity="0" offset="36.786%"/>
            <stop stop-color="#ECA855" offset="51.599%"/>
            <stop stop-color="#FAB152" stop-opacity=".974" offset="55.436%"/>
            <stop stop-color="#EEAF55" stop-opacity=".949" offset="59.102%"/>
            <stop stop-color="#EF8A49" stop-opacity="0" offset="100%"/>
        </linearGradient>
        <path id="c" d="M3546.5 284.1H0L8 75.076 3436.612 74 3793 148 5658 0v284.1z"/>
        <path id="h" d="M36.75 33 0 32.768 21.545 0h6.15z"/>
        <path id="l" d="M317.008 20.25v-5.235H0L32.614 0h342.219l8.417 15.015-.242 5.235z"/>
        <path id="p" d="M0 0h9.75v6.75H0z"/>
        <path d="M72.43 148.111 49.986 115.48l17.394-25.292a9.578 9.578 0 0 0 0-10.856L50.324 54.53l11.175-16.25a7.716 7.716 0 0 0 0-8.745L43.489 3.346c-3.068-4.461-9.66-4.461-12.727 0l-18.01 26.188a7.716 7.716 0 0 0 0 8.746l11.174 16.249L6.869 79.33a9.578 9.578 0 0 0 0 10.856l17.394 25.292L1.82 148.11a10.34 10.34 0 0 0 0 11.72l26.777 38.935c4.111 5.979 12.943 5.979 17.054 0L72.43 159.83a10.34 10.34 0 0 0 0-11.719" id="B"/>
        <path d="M38.75 13.92v628.449c-3.714 1.617-18.512 2.697-26.28 2.697A69.154 69.154 0 0 1 0 644.018V5.563A19.901 19.901 0 0 1 3.827 2.44a15.777 15.777 0 0 1 6.506-2.34C18.286-.826 34.695 4.68 38.75 13.92z" id="I"/>
        <radialGradient cx="100%" cy="50%" fx="100%" fy="50%" r="136.513%" gradientTransform="matrix(-.73253 -.36626 .15107 -.48752 1.657 1.11)" id="k">
            <stop stop-color="#9E78FF" offset="0%"/>
            <stop stop-color="#9767FF" offset="51.402%"/>
            <stop stop-color="#6315D4" offset="100%"/>
        </radialGradient>
        <radialGradient cx="64.681%" cy="37.131%" fx="64.681%" fy="37.131%" r="86.968%" id="s">
            <stop stop-color="#F5CC93" offset="0%"/>
            <stop stop-color="#EABC9C" offset="18.129%"/>
            <stop stop-color="#8A2EEF" offset="100%"/>
        </radialGradient>
        <radialGradient cx="100%" cy="50%" fx="100%" fy="50%" r="118.235%" gradientTransform="matrix(-.84577 -.42289 .2068 -.47478 1.742 1.16)" id="x">
            <stop stop-color="#D2A3FF" offset="0%"/>
            <stop stop-color="#9C2DF8" offset="51.402%"/>
            <stop stop-color="#6615D4" offset="100%"/>
        </radialGradient>
        <circle id="r" cx="93" cy="93" r="93"/>
        <circle id="G" cx="93" cy="93" r="93"/>
        <circle id="H" cx="-698" cy="265" r="93"/>
        <filter x="-75.3%" y="-84.3%" width="250.7%" height="268.5%" filterUnits="objectBoundingBox" id="n">
            <feGaussianBlur stdDeviation="37.5" in="SourceGraphic"/>
        </filter>
        <filter x="0%" y="0%" width="100%" height="100%" filterUnits="objectBoundingBox" id="z">
            <feGaussianBlur in="SourceGraphic"/>
        </filter>
    </defs>
    <g fill="none" fill-rule="evenodd">
        <path stroke="#231F20" stroke-width="1.5" d="m3558.25 796.5-3.75-1.5M3306.876 805.192l-.502-.134M3306.625 805.403v-.556"/>
        <path fill="url(#a)" fill-rule="nonzero" opacity=".53" d="m3792.75 688.9-356-74.045V42.829L3436.632 1l21.991-1L3793 1z" transform="translate(0 6)"/>
        <path fill="url(#b)" fill-rule="nonzero" opacity=".734" transform="matrix(-1 0 0 1 9450 6)" d="M5658 688.9 3792 541.878V0l1865.25 1z"/>
        <use fill="url(#d)" fill-rule="nonzero" opacity=".516" xlink:href="#c" transform="translate(0 546.9)"/>
        <path stroke="#231F20" stroke-width=".703" d="M2977.375 639.446v-.142"/>
        <path d="M2699.789 658.5c.075-.453.135-.96.172-1.5"/>
        <path d="M2696.613 592.166c.24 0 .525-.082.525-.082a1.05 1.05 0 0 1-.255.06l-.27.022zM2697.141 593.25a7.853 7.853 0 0 1-.532-.75c.165.222.337.472.532.75z" fill="#E55C27" fill-rule="nonzero"/>
        <path d="M2708.873 594.311zM2708.849 595.245l.052-.24a2.25 2.25 0 0 1-.052.24z" fill="#E55C27" fill-rule="nonzero" opacity=".71"/>
        <path d="M2708.995 591.75a6.775 6.775 0 0 0-.24-.75c0 .064.06.128.083.191.045.176.097.368.157.559z" fill="#E55C27" fill-rule="nonzero"/>
        <path d="M3210.623 491.726h0v-.202c.005.067.005.135 0 .202h0z" stroke="#2B2B2A" stroke-width=".75" fill="#FAA61B" fill-rule="nonzero" opacity=".77" stroke-linecap="round"/>
        <g>
            <g transform="translate(8 .15)">
                <path d="M2952.5 199.376v20.974c-19.578-13.827-31.289-30.208-33.423-47.713a46.954 46.954 0 0 1 .863-16.037c3.604 15.655 14.865 30.262 32.56 42.776z" fill="url(#e)" fill-rule="nonzero" opacity=".785"/>
                <path stroke="#231F20" stroke-width="1.5" d="m3550.25 790.35-3.75-1.5M3298.876 799.043l-.502-.135M3298.625 799.253v-.556"/>
                <path d="m3450.725 0-21.781 42.633h-.119c-61.126-15.877-127.941-17.485-189.789-15.461-62.117 2.034-127.903 11.23-188.183 31.262a450.898 450.898 0 0 0-11.373 3.935 451.187 451.187 0 0 0-36.883 15.11c-33.402 15.505-75.15 45.191-82.708 78.845a47.06 47.06 0 0 0-.867 16.092c2.155 17.566 13.91 33.999 33.58 47.879v.205l-74.988-9.385-30.509-3.837L1686.86 63.85 2102.225 0h1348.5z" fill="url(#f)" fill-rule="nonzero" opacity=".446"/>
                <path d="m3427.25 42.62 1.37.253 1.004 578.374H1.003L0 62.313l1686.86 1.538L2847.2 206.998l30.492 3.83 74.948 9.36v-21.229c-17.77-12.537-29.12-27.17-32.695-42.844 7.538-33.599 49.3-63.237 82.663-78.717a436.713 436.713 0 0 1 36.862-15.086 450.99 450.99 0 0 1 11.367-3.928c60.248-20 125.998-29.18 188.082-31.211 61.83-2.026 128.609-.42 189.713 15.447h-1.382z" fill="url(#g)" fill-rule="nonzero" opacity=".32"/>
                <use fill="url(#i)" fill-rule="nonzero" xlink:href="#h" transform="translate(2905.25 746.85)"/>
                <path fill="#121723" fill-rule="nonzero" d="M2891.75 741.6H3275v5.25h-383.25z"/>
                <path fill="url(#j)" fill-rule="nonzero" d="m2954.75 769.5-.262.21-12.335 10.14-.096-.038-.09-.048L2933 746.85h3.25z"/>
                <path d="M3255.5 757.052c.003 7.584-4.893 14.311-12.135 16.674-7.242 2.363-15.189-.174-19.698-6.289a17.471 17.471 0 0 1-.124-20.587h28.67a17.414 17.414 0 0 1 3.287 10.202z" fill="url(#k)" fill-rule="nonzero"/>
                <g transform="translate(2891.75 726.6)">
                    <mask id="o" fill="#fff">
                        <use xlink:href="#l"/>
                    </mask>
                    <use fill="#121723" fill-rule="nonzero" opacity=".65" xlink:href="#l"/>
                    <path d="M170.193-61.805c11.738 9.93 18.612 26.515 20.621 45.213 1.904 18.592-1.057 39.19-12.796 54.191-11.738 14.895-32.36 24.297-50.231 21.55-17.766-2.852-32.783-17.747-49.915-32.747-17.237-15-36.484-30.001-35.85-44.368.635-14.366 21.151-28.099 38.388-38.029 17.132-9.93 30.88-16.057 46.108-17.536 15.228-1.478 31.83 1.69 43.675 11.726z" fill="url(#m)" fill-rule="nonzero" filter="url(#n)" mask="url(#o)" transform="rotate(65 116.677 -7.125)"/>
                </g>
                <g transform="translate(2930.75 522.041)">
                    <path fill="#231F20" fill-rule="nonzero" d="M53.213 95.922h1v1h-1z"/>
                    <path d="M53.402 95.923a17.668 17.668 0 0 1-1.475-1.512 13.033 13.033 0 0 0-1.791-1.746 5.103 5.103 0 0 0-3.024-1.18 7.28 7.28 0 0 1 1.323 2.344 7.802 7.802 0 0 1-5.088 9.782 7.56 7.56 0 0 1-1.648.378 3.53 3.53 0 0 0-.37-.204c-1.43-.665-3.395.582-3.728 2.223a3.024 3.024 0 0 0 1.648 3.319c-.083.37-.158.756-.211 1.104-.477 3.265-1.989 11.49-1.989 11.49a13.48 13.48 0 0 0 1.558 3.025c-1.02 1.973-2.949 5.178-5.572 7.242-3.425 2.692-9.473 3.53-11.181 3.72-.295 0-.461.045-.461.045a13.827 13.827 0 0 1-5.247-2.434c-3.553-2.382-6.048-6.706-5.55-11.053.477-4.113 3.335-7.673 6.646-9.896a49.737 49.737 0 0 1 14.893-6.456 15.271 15.271 0 0 1-.083-1.565c0-6.101 3.78-11.045 8.513-11.045.025-.085.055-.169.09-.25a9.828 9.828 0 0 1 1.369-2.268 8.4 8.4 0 0 1 3.614-2.691c3.916-1.429 7.718 1.693 7.741 5.7l.023 1.928z" fill="#121723" fill-rule="nonzero"/>
                    <g transform="translate(31.5 92.809)">
                        <mask id="q" fill="#fff">
                            <use xlink:href="#p"/>
                        </mask>
                        <path d="M.378 6.75c-.016 0-.03 0-.044-.002a.374.374 0 0 1-.332-.414C.331 3.493 2.15 1.13 4.638.312 6.732-.373 8.602.224 9.53.642c.19.086.274.306.187.494a.376.376 0 0 1-.499.185c-.666-.3-2.427-.93-4.342-.3-2.21.725-3.83 2.844-4.124 5.398a.376.376 0 0 1-.373.331" fill="#2B2B2A" mask="url(#q)"/>
                    </g>
                    <path d="M45.312 128.166a18.59 18.59 0 0 1-2.865-.227c-1.512-.234-2.82-1.217-4.014-2.925l-.068-.091.053-.098c.536-1.013.816-1.709.831-1.731.015-.023.099-.326.257-.825l.046-.143h.143a15.03 15.03 0 0 0 6.638-1.066 15.37 15.37 0 0 0 6.94-5.685l.325-.484v.582c.053 1.384.144 2.948.265 4.665.143 1.958-.696 3.553-1.444 4.959a12.7 12.7 0 0 0-.756 1.67v.076h-.068a14.923 14.923 0 0 1-6.283 1.323zm-6.501-3.273a5.851 5.851 0 0 0 3.697 2.676c2.97.534 6.033.184 8.807-1.005.22-.564.472-1.114.756-1.649.756-1.36 1.512-2.895 1.399-4.747a153.162 153.162 0 0 1-.242-4.113 15.664 15.664 0 0 1-6.804 5.375 15.34 15.34 0 0 1-6.645 1.097l-.22.687c.023.046-.242.696-.748 1.679z" fill="#231F20" fill-rule="nonzero"/>
                    <path d="M58.52 104.79c.045 2.065-.794 4.461-2.578 5.618a5.897 5.897 0 0 1-2.54.877c-.053.801-.053 2.222 0 4.203a15.415 15.415 0 0 1-7.031 5.768 15.173 15.173 0 0 1-9.322.666s1.512-8.226 2.004-11.469c.053-.37.128-.756.211-1.104a3.024 3.024 0 0 1-1.617-3.364c.332-1.64 2.268-2.888 3.727-2.222.127.06.25.128.37.204a7.56 7.56 0 0 0 1.648-.378 7.802 7.802 0 0 0 5.073-9.783 7.28 7.28 0 0 0-1.323-2.344 5.103 5.103 0 0 1 3.024 1.18 13.033 13.033 0 0 1 1.792 1.746c.46.533.953 1.038 1.474 1.512l.113.098c.206.177.426.336.658.477 1.512.96 2.117 1.066 3.258 1.791a.37.37 0 0 1 .121.47 8.325 8.325 0 0 1-.378.664l-.287.477c-.045.083-.242.317-.166.416a8.649 8.649 0 0 1 1.353 2.23c.26.728.4 1.494.416 2.268z" fill="#FFC55A" fill-rule="nonzero"/>
                    <path d="M78.63 105.169s11.551-3.402 16.276-5.716c5.292-2.6 21.463-18.975 21.508-19.02 2.805-2.843 4.007-6.495 5.058-10.252.567-2.018.877-4.37 2.01-6.23 1.286-2.086 4.272-3.099 5.648-.34.557 1.27.865 2.636.907 4.022 2.518-2.268 6.147-6.433 9.314-7.764 1.754-.756 3.591-.552 4.627.56.579.717.862 1.628.794 2.547-.038 2.117-1.966 4.037-3.735 5.844-1.769 1.807-3.614 3.13-3.402 3.478.121.196.756-.19 1.588.083.56.212 1.037.6 1.36 1.104.983 1.565.091 5.042.348 4.007.06-.227 1.868-.575 3.123.28 4.626 3.16-1.233 9.933-3.546 12.617-11.06 12.791-22.43 23.723-37.09 32.319-4.21 2.465-10.1 6.214-17.561 10.206l-7.228-27.745zM35.023 166.564l-9.941 32.122-.129.43c2.556.107 5.292.092 7.651 1.263a9.072 9.072 0 0 1 2.661 2.026 7.462 7.462 0 0 1 1.845 5.958 19.868 19.868 0 0 1-1.15 5.163c-.589 1.686-1.322 3.32-2.04 4.96a29.295 29.295 0 0 1-3.198 6.169 2.91 2.91 0 0 1-4.4.226c-1.127-1.24-.492-3.371-.756-3.417-.265-.045-.34 1.164-.59 1.83-.446 1.141-.983 2.389-2.223 2.812a3.334 3.334 0 0 1-3.538-.937 3.432 3.432 0 0 1-.657-2.094 9.783 9.783 0 0 0 0-1.951c-.144-.174-.394 1.353-1.437 2.865a4.49 4.49 0 0 1-2.056 1.913c-2.457.922-4.166-.817-4.385-3.122-.333-3.546.87-7.636 2.329-10.834-.5.046-6.426.424-10.35-4.415C-1.265 202.693.27 197.083.42 196.584a624.91 624.91 0 0 1 5.209-19.36 585.184 585.184 0 0 1 6.804-22.129l22.59 11.469z" fill="#8248E5" fill-rule="nonzero"/>
                    <path d="M53.787 105.547a2.381 2.381 0 0 1-2.192-1.512.386.386 0 0 1 .211-.492.378.378 0 0 1 .492.212 1.633 1.633 0 0 0 1.61 1.036 1.595 1.595 0 0 0 1.384-1.12.397.397 0 1 1 .756.243 2.336 2.336 0 0 1-2.08 1.633h-.18zM49.796 99.166a.34.34 0 0 1-.152 0 .378.378 0 0 1-.196-.499c.172-.404.469-.743.846-.968.28-.159.594-.25.915-.264a.378.378 0 0 1 0 .756c-.202.008-.399.066-.574.166a1.285 1.285 0 0 0-.53.613.386.386 0 0 1-.31.196z" fill="#231F20" fill-rule="nonzero"/>
                    <path d="M192.422 208.537c-19.58.14-39.16.234-58.74.28-21.44.045-42.879.03-64.314-.046l16.821-37.286c23.421 2.072 47.517 4.71 72.29 7.915a1716.14 1716.14 0 0 1 38.147 5.42c-1.399 7.909-1.399 7.909-4.204 23.717 2.805-15.808 2.805-15.808 4.204-23.716l-4.204 23.716z" fill="#8248E5" fill-rule="nonzero"/>
                    <path d="m99.692 185.683 25.099 2.865c5.057-12.572 10.448-25.084 15.12-37.8 3.492-9.45 5.057-20.828-3.244-28.305-6.1-5.48-15.61-6.048-22.891-2.729-12.293 5.61-22.106 15.12-32.312 23.716l-42.426 31.359c3.198 9.578 6.804 24.51 15.49 30.678 10.97 7.795 24.464 1.709 32.977-6.592a174.356 174.356 0 0 0 12.187-13.192zM196.323 186.537l6.547.998c.369.055.745-.017 1.066-.204l12.444-7.235a1.709 1.709 0 0 1 2.412 2.071l-6.986 17.713-2.918 6.91a2.54 2.54 0 0 1-2.222 1.55l-14.244.197 3.901-22z" fill="#FFC55A" fill-rule="nonzero"/>
                    <path d="M99.692 185.789c-3.667 10.017-6.215 17.388-6.51 18.688a3.523 3.523 0 0 0 0 1.814c.34 1.097 1.747 2.367 2.949 2.314l32.772.234a1.648 1.648 0 0 0 1.112-2.79l-11.794-11.642a1.263 1.263 0 0 1-.144-1.512l2.934-4.785-21.32-2.321z" fill="#FFC55A" fill-rule="nonzero"/>
                    <path d="M52.457 111.708a11.733 11.733 0 0 1-2.268-.234 18.658 18.658 0 0 1-2.132-.635l-.333-.114-.34-.113a.378.378 0 1 1 .227-.718l.355.12.34.114a16.42 16.42 0 0 0 2.034.597c.993.21 2.013.267 3.024.167a.38.38 0 0 1 .083.756c-.318.037-.65.06-.99.06z" fill="#231F20" fill-rule="nonzero"/>
                    <path d="m85.88 132.914-4.393 3.024c.756 5.11 0 7.515 0 7.515L61.03 164.84l-21.992 9.949-3.826-9.95c-.06.575-.128 1.15-.189 1.725a67.231 67.231 0 0 1-23.76-7.795 60.57 60.57 0 0 1 10.583-22.9 60.386 60.386 0 0 1 3.614-4.323 57.456 57.456 0 0 1 11.59-9.624c.87.213 1.758.347 2.653.4 2.29.155 4.585-.212 6.713-1.073a15.415 15.415 0 0 0 7.031-5.768 383.948 383.948 0 0 0 16.027-6.668 338.348 338.348 0 0 0 11.068-5.149 49.14 49.14 0 0 1 2.487 5.542 52.058 52.058 0 0 1 2.85 23.708z" fill="#8248E5" fill-rule="nonzero"/>
                    <path d="M94.392 185.864a.756.756 0 0 1-.718-1.005l15.195-43.024a.756.756 0 0 1 1.422.499L95.095 185.35a.756.756 0 0 1-.703.514zM116.686 188.404h-.083l-13.797-1.512a.76.76 0 1 1 .167-1.512l13.797 1.512a.757.757 0 0 1-.084 1.512zM51.224 175.545a.756.756 0 0 1-.544-1.285l30.24-31.352a.756.756 0 1 1 1.081 1.044l-30.24 31.358a.756.756 0 0 1-.537.235z" fill="#231F20" fill-rule="nonzero"/>
                    <path d="M39.038 175.537a.756.756 0 0 1-.31-1.444l21.992-9.941a.758.758 0 1 1 .62 1.383l-22.023 9.942a.756.756 0 0 1-.28.06zM40.708 122.738a16.405 16.405 0 0 1-3.78-.446.388.388 0 0 1 .174-.756c2.546.64 5.216.6 7.742-.113a15.218 15.218 0 0 0 8.27-6.124.378.378 0 0 1 .53-.098.37.37 0 0 1 .098.522 15.982 15.982 0 0 1-8.687 6.426 15.49 15.49 0 0 1-4.347.59zM35.023 167.32h-.098a69.446 69.446 0 0 1-9.828-2.042 68.977 68.977 0 0 1-14.16-5.836.765.765 0 0 1 .756-1.33 66.815 66.815 0 0 0 23.497 7.71.758.758 0 1 1-.099 1.513l-.068-.015z" fill="#231F20" fill-rule="nonzero"/>
                    <path d="M85.88 133.67h-.084a.756.756 0 0 1-.665-.84 49.843 49.843 0 0 0-5.292-28.81.757.757 0 1 1 1.346-.696 51.355 51.355 0 0 1 5.428 29.68.756.756 0 0 1-.734.666z" fill="#0C0830" fill-rule="nonzero"/>
                    <path d="M37.05 168.801a.756.756 0 0 1-.696-.446c-.756-1.663-1.421-3.364-2.056-5.065-.756-1.943-1.4-3.939-1.989-5.927a.756.756 0 0 1 1.444-.43 95.852 95.852 0 0 0 1.958 5.828 95.366 95.366 0 0 0 2.026 4.982.756.756 0 0 1-.385.998.862.862 0 0 1-.303.06z" fill="#231F20" fill-rule="nonzero"/>
                    <path d="M81.487 136.671a.756.756 0 0 1-.756-.536 18.567 18.567 0 0 0-8.4-10.728.756.756 0 0 1 .757-1.308 20.087 20.087 0 0 1 9.125 11.605.756.756 0 0 1-.726.967zM128.132 76.819a.756.756 0 0 1-.688-1.066 20.684 20.684 0 0 0 1.338-4.105c.334-1.56.484-3.153.446-4.748a.756.756 0 0 1 1.512 0 21.81 21.81 0 0 1-.483 5.095 21.84 21.84 0 0 1-1.43 4.4.756.756 0 0 1-.695.424zM132.532 84.538a3.22 3.22 0 0 1-3.205-2.019c-.756-1.996.552-4.347 1.134-5.292a16.632 16.632 0 0 1 6.146-5.292.759.759 0 1 1 .756 1.315 15.506 15.506 0 0 0-5.61 4.816c-.756 1.172-1.398 2.82-.99 3.931.408 1.112 1.656 1.051 2.034 1.02a5.458 5.458 0 0 0 3.024-1.64 62.334 62.334 0 0 0 4.044-3.991.756.756 0 0 1 1.104 1.028 63.516 63.516 0 0 1-4.143 4.09 6.804 6.804 0 0 1-3.93 2.018 2.91 2.91 0 0 1-.364.016z" fill="#0C0830" fill-rule="nonzero"/>
                    <path d="M136.841 90.359a3.583 3.583 0 0 1-2.933-1.558c-1.792-2.419.234-5.057 1.444-6.63a30.996 30.996 0 0 1 4.597-4.853.756.756 0 0 1 .975 1.156 29.885 29.885 0 0 0-4.362 4.604c-1.399 1.822-2.465 3.433-1.437 4.816.374.588 1.02.946 1.716.953 2.026 0 4.657-2.616 5.927-4.37a.758.758 0 1 1 1.225.892c-1.346 1.845-4.362 4.975-7.144 4.99h-.008z" fill="#0C0830" fill-rule="nonzero"/>
                    <path d="M18.535 221.857a.756.756 0 0 1-.25-.045.756.756 0 0 1-.468-.96l3.78-10.758a.758.758 0 1 1 1.429.507l-3.78 10.75a.756.756 0 0 1-.711.506zM25.558 222.198a.847.847 0 0 1-.264-.046.756.756 0 0 1-.439-.975l3.818-10.236a.758.758 0 0 1 1.421.529l-3.825 10.236a.756.756 0 0 1-.71.492z" fill="#231F20" fill-rule="nonzero"/>
                    <path d="M148.168 26.787A4.9 4.9 0 0 1 146.1 33.4l-12.068 6.325a4.898 4.898 0 0 1-6.613-2.066 4.9 4.9 0 0 1 2.067-6.614l12.068-6.325a4.898 4.898 0 0 1 6.613 2.066zM128.614 20.2a1.972 1.972 0 0 1-2.398 1.425l-3.93-1a1.973 1.973 0 0 1 .972-3.824l3.93 1a1.973 1.973 0 0 1 1.426 2.398z" fill="#FFC55A" fill-rule="nonzero"/>
                    <path d="M152.32 43.123a1.972 1.972 0 0 1-2.587 1.043L146 42.577a1.973 1.973 0 0 1 1.544-3.63l3.733 1.588a1.973 1.973 0 0 1 1.043 2.588z" fill="#8248E5" fill-rule="nonzero"/>
                    <circle fill="#8248E5" fill-rule="nonzero" cx="150.974" cy="14.2" r="4.725"/>
                    <path d="m136.892 2.108 3.204 2.323a3.595 3.595 0 0 1 .801 5.015l-2.322 3.206a3.589 3.589 0 0 1-5.014.8l-3.204-2.322a3.595 3.595 0 0 1-.801-5.016l2.322-3.206a3.589 3.589 0 0 1 5.014-.8z" fill="#2B2B2A" fill-rule="nonzero"/>
                </g>
                <g fill-rule="nonzero" transform="translate(3200.75 141.6)" opacity=".716">
                    <use fill="url(#s)" xlink:href="#r"/>
                    <use fill="url(#t)" xlink:href="#r"/>
                    <use fill="url(#u)" xlink:href="#r"/>
                    <use fill="url(#v)" xlink:href="#r"/>
                    <use fill="url(#w)" xlink:href="#r"/>
                </g>
                <path d="M3032.75 443.85v-233.3c0-6.6 5.371-11.95 11.997-11.95 3.183 0 6.236 1.257 8.487 3.498a11.927 11.927 0 0 1 3.516 8.452v81.366" stroke="#231F20" stroke-width="1.5"/>
                <path d="M3050 164.85c0 2.903-2.52 5.25-5.628 5.25-3.107 0-5.622-2.347-5.622-5.25s2.52-5.25 5.622-5.25 5.628 2.352 5.628 5.25z" fill="url(#x)" fill-rule="nonzero"/>
                <path d="M3050 58.35v106.5c0-2.899-2.52-5.251-5.628-5.251-3.107 0-5.622 2.352-5.622 5.251V62.292A442.14 442.14 0 0 1 3050 58.35z" fill="url(#y)" fill-rule="nonzero" filter="url(#z)"/>
                <circle stroke="#231F20" stroke-width="1.5" cx="3044.75" cy="200.85" r="1"/>
                <circle stroke="#231F20" stroke-width="1.5" cx="3044.75" cy="195.6" r="1"/>
                <path stroke="#231F20" stroke-width="1.5" d="M3043.625 200.85v-5.25M3045.125 200.85v-5.25M3044.375 170.1v31.5"/>
                <path d="M3047.75 444.63a134.426 134.426 0 0 0-30 .12c.438 8.695 6.986 15.6 14.997 15.6 8.012 0 14.618-6.97 15.003-15.72zM3071.75 292.38a134.426 134.426 0 0 0-30 .12c.438 8.695 6.986 15.6 14.997 15.6 8.012 0 14.618-6.97 15.003-15.72z" fill="#2B2B2A" fill-rule="nonzero"/>
                <path stroke="#231F20" stroke-width=".703" d="M2969.375 633.296v-.142"/>
                <path d="M2691.789 652.35c.075-.453.135-.96.172-1.5"/>
                <path d="M2688.613 586.016c.24 0 .524-.082.524-.082a1.05 1.05 0 0 1-.255.06l-.27.022zM2689.141 587.1a7.853 7.853 0 0 1-.532-.75c.165.222.337.472.532.75z" fill="#E55C27" fill-rule="nonzero"/>
                <path d="M2700.873 588.161zM2700.849 589.095l.052-.24a2.25 2.25 0 0 1-.052.24z" fill="#E55C27" fill-rule="nonzero" opacity=".71"/>
                <path d="M2700.995 585.6a6.775 6.775 0 0 0-.24-.75c0 .064.06.128.082.191.046.176.098.368.158.559z" fill="#E55C27" fill-rule="nonzero"/>
                <g transform="translate(3189.5 406.35)">
                    <path d="M0 0v112.35h138.6V0H0zm133.101 106.876H5.476V5.474H133.1v101.402z" fill="#2B2B2A" fill-rule="nonzero"/>
                    <path d="M133.35 5.25V107.1H6.3C6.3 60.928 43.41 5.25 89.19 5.25h44.16z" fill="#8248E5" fill-rule="nonzero" opacity=".27"/>
                    <circle fill="url(#A)" fill-rule="nonzero" opacity=".61" cx="102.375" cy="54.075" r="30.975"/>
                    <g transform="translate(13.65 16.799)">
                        <path d="M61.441 12.74h0v-.204c.01.068.01.136 0 .204z" stroke="#2B2B2A" stroke-width=".756" fill="#FAA61B" fill-rule="nonzero" opacity=".77" stroke-linecap="round"/>
                        <path d="M80.144 9.83a3.387 3.387 0 0 1-.521 1.262 3.281 3.281 0 0 0-1.588.355c-.362.228-.695.5-.99.81h-.182c-.264-.1-.098-.757-.211-1.588a5.45 5.45 0 0 0-1.868-3.19 4.067 4.067 0 0 0-2.411-.999c-.93-.12-1.285.114-3.47.65-2.185.537-3.244.756-4.022.567-1.512-.4-1.898-1.512-2.563-1.338-.318.099-.847.552-.938 3.652 0 1.156 0 2.086.046 2.532a4.733 4.733 0 0 0-.446-.975c-.203-.47-.38-.953-.53-1.444a7.197 7.197 0 0 1-.393-3.175c.04-.59.373-1.12.885-1.414.34-.174.514-.204.446-.635-.098-.62-.454-1.043-.43-1.708A3.266 3.266 0 0 1 63.21.326a5.534 5.534 0 0 1 3.614-.045c1.149.363 1.973 1.172 3.258 1.119a8.807 8.807 0 0 0 2.049-.582A3.893 3.893 0 0 1 75.04.9a2.6 2.6 0 0 1 1.097.922c.209.44.462.859.756 1.248.348.333.792.55 1.27.62.68.105 1.3 0 1.7.665.334.644.503 1.361.492 2.086a10.818 10.818 0 0 1-.212 3.387z" fill="#0C0830" fill-rule="nonzero"/>
                        <path d="M62.318 6.155a9.374 9.374 0 0 0 3.236 2.11 9.51 9.51 0 0 0 4.649.559" stroke="#2B2B2A" stroke-width=".756" stroke-linecap="round"/>
                        <path d="M82.11 14.615a3.205 3.205 0 0 1-.756 1.595 4.778 4.778 0 0 1-1.716 1.293 9.227 9.227 0 0 1-.718.302c-.598.22-.658.151-.938.34-.68.454-.665 1.081-1.126 2.094a7.507 7.507 0 0 1-2.132 2.7 7.764 7.764 0 0 1-1.452.93 7.878 7.878 0 0 1-3.628.96 7.507 7.507 0 0 1-1.936-.227 6.048 6.048 0 0 1-2.389-1.165 7.227 7.227 0 0 1-1.875-2.714 21.448 21.448 0 0 1-2.003-7.945.756.756 0 0 0 0-.182c0-.446-.076-1.376-.045-2.532.09-3.1.62-3.553.937-3.652.665-.204 1.074.938 2.563 1.338.756.212 1.875-.045 4.022-.567 2.147-.521 2.54-.756 3.47-.65.892.059 1.74.41 2.411.998a5.45 5.45 0 0 1 1.868 3.19c.113.824-.053 1.512.211 1.588.057.03.125.03.182 0 .295-.31.628-.581.99-.809a3.281 3.281 0 0 1 1.588-.355c.279.02.551.094.801.219.163.088.313.197.446.325a3.614 3.614 0 0 1 1.225 2.926z" fill="#FFC55A" fill-rule="nonzero"/>
                        <path d="M62.472 12.85c-1.494.21-2.52 1.65-2.302 3.213.218 1.561 1.601 2.665 3.096 2.455 1.494-.209 2.52-1.65 2.302-3.211-.219-1.562-1.602-2.665-3.096-2.456zm.079.562c1.177-.164 2.28.715 2.455 1.973.176 1.259-.642 2.407-1.82 2.572-1.176.165-2.279-.715-2.455-1.973-.176-1.258.643-2.407 1.82-2.572zM69.36 12.085c-1.493.209-2.52 1.65-2.302 3.211.219 1.562 1.602 2.666 3.096 2.456 1.494-.209 2.521-1.65 2.302-3.211-.218-1.562-1.601-2.666-3.095-2.456zm.08.561c1.176-.165 2.279.715 2.455 1.973.176 1.258-.642 2.407-1.82 2.572-1.176.165-2.279-.715-2.455-1.973-.176-1.258.642-2.407 1.82-2.572z" fill="#0C0830" fill-rule="nonzero"/>
                        <path d="M66.206 13.977a1.66 1.66 0 0 1 1.359.502.284.284 0 0 1-.409.393 1.091 1.091 0 0 0-.891-.33 1.123 1.123 0 0 0-.833.524.283.283 0 1 1-.482-.298 1.691 1.691 0 0 1 1.256-.79zM76.73 11.946a.352.352 0 0 1 .329.617l-.063.034-4.77 1.943a.352.352 0 0 1-.329-.618l.063-.033 4.77-1.943zM78.86 13.023c.258-.086.533-.105.8-.055a.283.283 0 1 1-.104.557 1.053 1.053 0 0 0-.48.02 1.856 1.856 0 0 0-1.023 1.79.284.284 0 0 1-.565.04c-.069-.977.458-1.9 1.373-2.352zM72.052 17.424a.283.283 0 0 1 .301.265 3.17 3.17 0 0 1-1.196 2.686c-.493.339-1.08.515-1.678.503a.283.283 0 1 1 .011-.567c.48.01.95-.131 1.33-.391a2.597 2.597 0 0 0 .967-2.195.283.283 0 0 1 .265-.301z" fill="#0C0830" fill-rule="nonzero"/>
                        <circle fill="#0C0830" fill-rule="nonzero" cx="63.626" cy="15.091" r="1"/>
                        <circle fill="#0C0830" fill-rule="nonzero" cx="69.991" cy="13.745" r="1"/>
                        <path d="M66.333 12.865a.284.284 0 0 1 .271.234l.004.057-.092 3.244a.972.972 0 0 0 .356.866l.08.056.543.294a.284.284 0 0 1-.217.521l-.053-.022-.56-.304a1.534 1.534 0 0 1-.723-1.33l.009-.12.09-3.22a.284.284 0 0 1 .292-.276z" fill="#0C0830" fill-rule="nonzero"/>
                        <path d="m65.115 58.213-1.081 2.692-2.442-.182c-4.255-.54-8.56.505-12.096 2.934a14.485 14.485 0 0 0-3.092 2.842c-2.328-.242-6.978-.438-10.743 1.15h-.075L18.379 55.77c-.37-.249-1.852-.06-2.32-.12a17.925 17.925 0 0 1-3.72-.915A27.549 27.549 0 0 1 6.51 51.9c-3.16-2.057-4.294-3.78-4.717-4.453a4.317 4.317 0 0 1-.575-2.525c.09-.756.438-1.33 1.21-1.429.15 0 .756-.076.831.121-.673-1.278-.998-4.045 1.225-3.954.614.02 1.192.293 1.595.756-.469-1.194-.295-2.366.386-2.888.277-.206.614-.315.96-.31.952 0 1.565.93 2.268 1.603a10.244 10.244 0 0 0 3.288 2.268c2.14.847 4.854.348 7.092.37 2.45.102 4.836.817 6.94 2.08l20.321 11.143 2.185-8.702 13.608 7.515 1.988 4.717zM86.646 27.762a13.396 13.396 0 0 1-7.734 5.382c-7 1.633-12.315-3.53-12.678-3.863 1.882-.62 3.228-.937 3.228-.937l-1.792-3.78c.633.16 1.284.235 1.936.227a7.878 7.878 0 0 0 3.629-.96 7.764 7.764 0 0 0 1.451-.93 7.507 7.507 0 0 0 2.132-2.662c.461-1.013.446-1.64 1.126-2.094.28-.189.34-.12.938-.34.181-.068.43-.166.718-.302l4.536 9.949s.998.068 2.51.31z" fill="#FFC55A" fill-rule="nonzero"/>
                        <path d="M107.156 42.693 92.96 52.097l3.916 6.457.393.642.756 1.24-32.425-1.126-.098-.227-.386-.87-1.996-4.687-13.608-7.514-.12-.069c-.394-.219 2.698-6.221 3.023-6.766a20.412 20.412 0 0 1 5.504-6.01 32.584 32.584 0 0 1 8.316-3.886c.34.333 5.655 5.511 12.64 3.863a13.396 13.396 0 0 0 7.772-5.382 36.5 36.5 0 0 1 8.316 2.313c1.33.556 2.596 1.25 3.78 2.071a21.523 21.523 0 0 1 3.538 3.168 35.532 35.532 0 0 1 5.11 7.22l-.234.159z" fill="#0C0830" fill-rule="nonzero"/>
                        <path d="M121.755 73.643a9.707 9.707 0 0 1-.87 3.614c-1.172 2.525-3.235 3.863-6.358 5.836a41.126 41.126 0 0 1-5.292 2.82 49.405 49.405 0 0 1-7.96 2.813 4.007 4.007 0 0 0-2.563 2.207c-.688 1.33-1.248 2.744-1.905 4.098a24.426 24.426 0 0 1-1.89 3.78c-.703.975-2.178 1.905-3.297.982-.756-.612-.189-2.956-.12-3.243-.356 1.15-.938 2.6-1.928 3.327a1.83 1.83 0 0 1-2.268-.069c-.635-.551-.688-1.7-.37-4.664.052-.476.06-1.15.098-1.421v-.598s-.25.65-.53 1.354a57.56 57.56 0 0 1-.68 1.655c-.174.348-.355.756-.567 1.089a2.208 2.208 0 0 1-1.512 1.247 1.913 1.913 0 0 1-1.64-.884c-.757-1.142-.235-3.122-.235-3.122s.098-.56.265-1.407c.219-1.164.574-2.85.967-4.384.235-1.075.582-2.121 1.036-3.123a17.26 17.26 0 0 1 3.47-4.967C89.874 78.43 102.22 67.09 102.22 67.09l-4.937-7.893-.408-.642-3.916-6.457 14.197-9.404 8.793 15.074c1.247 1.77 6.312 9.2 5.806 15.876z" fill="#FFC55A" fill-rule="nonzero"/>
                        <path d="M107.466 133.67c-.074.02-.15.032-.227.038l-1.194.045-19.399.816-1.436.053a.854.854 0 0 1-.719-.332c-2.336-3.085-19.089-25.19-19.474-25.704-2.828-3.78-8.203-9.496-13.608-18.273a65.288 65.288 0 0 1-1.512-2.6c-3.78-6.578-5.663-11.446-5.61-15.325a9.42 9.42 0 0 1 .976-4.143c.31-.617.685-1.2 1.118-1.738a14.485 14.485 0 0 1 3.092-2.843 17.479 17.479 0 0 1 12.096-2.933l2.442.181.802.068a.862.862 0 0 0 .87-1.149l-.152-.416a.84.84 0 0 1-.053-.294l.098.226 32.41 1.089-.756-1.24 5.043 7.885s-12.369 11.34-14.614 13.495a17.26 17.26 0 0 0-3.47 4.967 15.634 15.634 0 0 0-1.036 3.122l-2.918-.128a.854.854 0 0 0-.688 1.406c.446.521.998 1.164 1.648 1.875.212.234.552.657.99 1.232-.166.847-.264 1.406-.264 1.406s-.544 1.98.234 3.122c.357.56.978.894 1.64.885a2.208 2.208 0 0 0 1.513-1.248c3.833 5.292 8.974 12.595 9.98 14.092 1.511 2.268 12.851 20.412 12.851 20.412a1.225 1.225 0 0 1-.673 1.95z" fill="#8248E5" fill-rule="nonzero"/>
                        <path d="M106.846 145.153c-5.178.953-10.584 1.512-15.815 2.42-1.12.196-8.09 1.746-7.56-.84.385-1.98 3.07-4.12 4.43-5.465 1.013-1.014.476-1.603 0-2.858-.106-.287-.756-2.412-1.24-3.87l19.376-.757c1.958 3.213 6.124 10.395.81 11.37z" fill="#FFC55A" fill-rule="nonzero"/>
                        <path d="m51.462 90.275-3.924-.143s-11.03 36.59-11.922 40.31c-.892 3.72-2.502 3.303-2.502 3.303l-2.17-.166-17.993-1.391H12.8c-.756-.053-.325-.87-.325-.87l9.7-34.904s4.913-18.5 9.132-25.243a9.208 9.208 0 0 1 4.362-3.545c3.78-1.588 8.414-1.391 10.743-1.15a9.828 9.828 0 0 0-1.12 1.74 9.42 9.42 0 0 0-.982 4.135c-.053 3.878 1.86 8.746 5.61 15.324.521.892 1.028 1.761 1.542 2.6z" fill="#8248E5" fill-rule="nonzero"/>
                        <path d="m30.944 133.579-4.203 10.818s-.847 2.178-2.88 2.268c-2.034.091-19.816.567-19.816.567s-2.676-.491.704-3.303a223.253 223.253 0 0 0 4.301-3.727c2.268-1.989 2.949-5.164 3.901-7.976l17.993 1.353z" fill="#FFC55A" fill-rule="nonzero"/>
                        <path d="M86.18 27.44a.567.567 0 1 1 .933.644 13.968 13.968 0 0 1-8.108 5.612c-3.212.758-6.318.217-9.2-1.234a17.21 17.21 0 0 1-3.326-2.193l-.298-.259a10.65 10.65 0 0 1-.13-.118l-.218-.21a.567.567 0 1 1 .802-.802l.194.186.245.22c.09.078.19.161.296.249l.344.273c.772.598 1.644 1.16 2.6 1.641 2.661 1.34 5.502 1.834 8.423 1.145a12.83 12.83 0 0 0 7.442-5.155z" fill="#0C0830" fill-rule="nonzero"/>
                        <path stroke="#121723" stroke-width=".756" stroke-linecap="round" d="m92.959 52.097 14.197-9.404M49.39 45.913l13.729 7.583M59.135 42.693l6.464 16.617"/>
                        <path stroke="#121723" stroke-width="1.134" stroke-linecap="round" d="M98.016 60.436 65.599 59.31"/>
                        <path stroke="#121723" stroke-width=".756" stroke-linecap="round" d="m89.776 47.395 3.183 4.702"/>
                        <path d="M50.907 61.618c.138-.071.275-.14.411-.204l.409-.188c1.968-.867 3.905-1.17 6.837-1.174l.622.003.651.011.684.02 1.092.04c.871.032 1.615.092 2.481.185a.567.567 0 0 1-.12 1.127 34.412 34.412 0 0 0-1.912-.157l-.862-.037-.708-.025-.673-.018-.64-.012-.607-.003-.578.006a30.91 30.91 0 0 0-.551.014l-.526.023c-2.226.124-3.798.525-5.472 1.387a13.731 13.731 0 0 0-4.563 4.17c-3.462 5.128-1.476 14.548 5.032 23.147a.567.567 0 0 1-.904.684c-6.769-8.942-8.858-18.852-5.065-24.47a14.888 14.888 0 0 1 4.962-4.53zM66.34 61.04l18.174 2.676a.567.567 0 0 1-.089 1.127l-.077-.006-18.174-2.676a.567.567 0 0 1 .088-1.128l.077.006zM71.724 81.49a.567.567 0 0 1 .74-.012l.06.059 8.4 9.435a.567.567 0 0 1-.787.812l-.06-.058-8.4-9.435a.567.567 0 0 1 .047-.8zM45.968 53.881a.567.567 0 0 1 .708-.236l.069.035 3.122 1.837a.567.567 0 0 1-.506 1.012l-.07-.034-3.121-1.838a.567.567 0 0 1-.202-.776zM88.057 89.72a.567.567 0 0 1 .455.59l-.01.076-.967 4.861a.567.567 0 0 1-1.122-.145l.01-.076.967-4.861a.567.567 0 0 1 .59-.456l.077.01zM92.458 91.105a.567.567 0 0 1 1.108.23l-.016.076-1.482 5.285a.567.567 0 0 1-1.108-.231l.016-.076 1.482-5.284zM5.687 39.308c.291-.116.621.026.737.317a9.261 9.261 0 0 0 4.745 4.986.567.567 0 0 1-.473 1.031 10.395 10.395 0 0 1-5.325-5.597.567.567 0 0 1 .316-.737zM2.724 42.025a.567.567 0 0 1 .697.397 9.822 9.822 0 0 0 1.234 2.756 10.017 10.017 0 0 0 3.327 3.148.567.567 0 0 1-.57.98A11.155 11.155 0 0 1 3.706 45.8a10.962 10.962 0 0 1-1.38-3.078.567.567 0 0 1 .398-.696z" fill="#0C0830" fill-rule="nonzero"/>
                        <path d="M104.453 65.013c.192.21.196.526.021.74l-.058.061L101.6 68.4l-2.37 2.187-2.325 2.158-2.84 2.655-2.291 2.165-1.571 1.504-1.32 1.283-.688.683-.58.585-.464.485-.223.241-.178.202-.135.163-.064.086a49.57 49.57 0 0 0-.956 1.541l-.398.68-.386.68a23.07 23.07 0 0 0-1.636 4.949l-.195.806-.115.501-.102.473-.091.445-.08.42-.067.393-.057.37-.047.346-.036.323-.026.302-.016.28c-.012.271-.01.512.006.728l.02.207c.008.066.017.13.028.19l.035.176c.027.112.058.215.094.31l.058.135c.03.064.064.125.1.181l.035.056c.164.275.431.472.699.538.474.076 1.172-.432 1.68-1.366a.567.567 0 0 1 .996.541c-.712 1.311-1.813 2.112-2.899 1.936a2.31 2.31 0 0 1-1.351-.915l-.08-.124c-.238-.347-.406-.773-.491-1.329l-.031-.246-.021-.263-.01-.281a8.219 8.219 0 0 1 0-.3l.011-.32.023-.34.016-.178.04-.372.024-.195.059-.407.07-.43.083-.457.095-.482.109-.51.121-.536.136-.566.072-.294a24.141 24.141 0 0 1 1.729-5.206l.318-.566.2-.346c.4-.688.824-1.387 1.256-2.056.024-.036.052-.077.086-.122l.12-.15.152-.18.184-.206.337-.362.408-.424.477-.485.62-.616 1.187-1.16 1.406-1.35 1.614-1.532 2.463-2.313 2.273-2.118 2.348-2.174 4.405-4.05a.567.567 0 0 1 .8.036zM16.034 131.621l.077.002 14.886 1.391a.567.567 0 0 1-.029 1.132l-.077-.002-14.885-1.392a.567.567 0 0 1 .028-1.13z" fill="#0C0830" fill-rule="nonzero"/>
                        <path d="M102.673 133.322a.567.567 0 0 1 .123 1.125l-.077.008-16.027.65a.567.567 0 0 1-.123-1.124l.077-.008 16.027-.65z" fill="#2B2B2A" fill-rule="nonzero"/>
                        <path d="M68.62 26.524a.567.567 0 0 1 .719.2l.038.068 1.338 2.805a.567.567 0 0 1-.986.555l-.038-.067-1.338-2.805a.567.567 0 0 1 .268-.756zM72.344 23.63a.567.567 0 0 1 .496 1.02 7.227 7.227 0 0 1-5.258.419.567.567 0 0 1 .328-1.086c1.47.446 3.053.32 4.434-.352z" fill="#0C0830" fill-rule="nonzero"/>
                        <g transform="translate(0 6.16)" fill-rule="nonzero">
                            <rect fill="#FFC55A" transform="rotate(-48.64 18.383 15.471)" x="14.523" y="6.241" width="7.721" height="18.46" rx="3.861"/>
                            <path d="m15.228 23.383.3-.11a1.393 1.393 0 0 1 1.786.833l1.214 3.336a1.393 1.393 0 0 1-.832 1.786 1.713 1.713 0 0 1-2.196-1.024l-1.093-3.002a1.393 1.393 0 0 1 .821-1.82z" fill="#8248E5"/>
                            <rect fill="#8248E5" transform="rotate(34.57 22.012 3.48)" x="20.459" y=".324" width="3.106" height="6.31" rx="1.553"/>
                            <path d="M8.786 21.364A4.393 4.393 0 1 1 .01 21.09a4.393 4.393 0 0 1 8.777.275z" fill="#FFC55A"/>
                            <rect fill="#0C0830" transform="rotate(-88.34 7.454 4.408)" x="4.627" y="1.581" width="5.653" height="5.653" rx="2.827"/>
                        </g>
                    </g>
                </g>
                <path d="M3202.623 485.576h0v-.202c.005.067.005.135 0 .202h0z" stroke="#2B2B2A" stroke-width=".75" fill="#FAA61B" fill-rule="nonzero" opacity=".77" stroke-linecap="round"/>
            </g>
            <g transform="translate(2681.747 498.935)">
                <path d="M96.386 169.84a388.645 388.645 0 0 0-84.787.338c1.229 24.037 19.744 43.14 42.404 43.14 22.727 0 41.296-19.279 42.383-43.477z" fill="#0C0830" fill-rule="nonzero"/>
                <path d="M50.587 102.415a1.208 1.208 0 0 0-1.154.749l-3.53 8.856a.675.675 0 0 1-.405.385.675.675 0 0 1-.372 0 .358.358 0 0 0-.08 0c.098 1.543.02 3.092-.237 4.617-.103.63-.24 1.254-.412 1.87a19.528 19.528 0 0 1-1.073 2.976v-.04a15.262 15.262 0 0 0 4.354-.776 8.458 8.458 0 0 0 2.862-2.302c.271-.358.498-.748.675-1.161a7.02 7.02 0 0 0 .506-2.545v-11.88a1.215 1.215 0 0 0-1.134-.75zm9.396 17.671a19.5 19.5 0 0 1-.776-3.064 20.115 20.115 0 0 1-.236-4.617.358.358 0 0 0-.081 0 .675.675 0 0 1-.372 0 .675.675 0 0 1-.398-.385c-1.192-2.947-2.383-5.9-3.57-8.856a1.195 1.195 0 0 0-2.221 0v11.887a6.548 6.548 0 0 0 .762 3.085c.112.216.241.424.385.62a8.518 8.518 0 0 0 2.862 2.302c1.404.47 2.868.73 4.347.777a18.549 18.549 0 0 1-.702-1.749z" fill="#E55C27" fill-rule="nonzero"/>
                <path d="M66.591 121.95H35.913c2.835-.925 5.656-1.924 8.43-3.052a76.337 76.337 0 0 0 4.455-1.964l2.356.675 1.924.54 6.905 1.95 6.608 1.85z" fill="#EE662F" fill-rule="nonzero"/>
                <path d="M47.05 153.796c.068-.675.122-1.431.155-2.234"/>
                <path d="M41.232 67.382a1.492 1.492 0 0 1 1.242-.364c.45.094.843.363 1.093.749l-.148-.108a2.484 2.484 0 0 0-.98-.533 1.29 1.29 0 0 0-1.207.256zM42.345 70.69c.216 0 .473-.074.473-.074a.945.945 0 0 1-.23.054c-.08.013-.161.02-.243.02zM43.297 71.736a13.085 13.085 0 0 1-.48-1.093c.163.324.318.722.48 1.093z" fill="#E55C27" fill-rule="nonzero"/>
                <path d="M58.053 73.687v.115-.115zM57.951 74.018c.014-.073.032-.146.054-.216-.02.074-.033.148-.054.216z" fill="#E55C27" fill-rule="nonzero" opacity=".71"/>
                <path d="M58.147 70.366c-.067-.378-.155-.73-.21-.952 0 .081.048.162.068.236.048.23.102.473.142.716z" fill="#E55C27" fill-rule="nonzero"/>
                <path d="M56.703 77.042a6.352 6.352 0 0 1-1.627 1.687c-.722.824.256 1.35.21 1.445-.838 1.714-1.75 1.012-6.434.202a3.55 3.55 0 0 0 .912-.574c.236-.216.31-.432.175-.62a8.532 8.532 0 0 1-2.531-1.587 10.8 10.8 0 0 1-3.456-4.354l.088 7.574a14.175 14.175 0 0 0 9.207.736 12.926 12.926 0 0 0 3.61-1.62l-.154-2.89z" fill="#E55C27" fill-rule="nonzero" opacity=".78"/>
                <path d="M58.228 72.114v.263c0 .19 0 .372-.054.527-.054.155 0 .236-.054.358-.054.121-.04.236-.067.357-.027.122-.04.216-.068.331a.088.088 0 0 1 0 .04c-.054.217-.108.44-.182.676a8.815 8.815 0 0 1-1.1 2.301 6.156 6.156 0 0 1-1.627 1.688 4.813 4.813 0 0 1-2.572.877 6.17 6.17 0 0 1-2.565-.425 8.552 8.552 0 0 1-2.531-1.593 10.8 10.8 0 0 1-3.456-4.347c-.243-.533-.439-1.046-.628-1.505-.189-.46-.337-.73-.48-1.1a1.276 1.276 0 0 1-.229.06 1.809 1.809 0 0 1-1.91-1.6c-.114-.599.061-1.216.473-1.667l.04-.04a1.431 1.431 0 0 1 1.242-.365c.45.09.845.357 1.094.743 1.35.857 2.578-2.336 3.111-2.464 1.6-.398 2.262 2.315 4.982 3.119 2.49.742 5.447-.5 6.014.222.655.824.668 2.356.567 3.544z" fill="#FFC55A" fill-rule="nonzero"/>
                <path d="M56.858 79.924a12.926 12.926 0 0 1-3.611 1.62 14.175 14.175 0 0 1-9.207-.73l-.115-7.566a10.8 10.8 0 0 0 3.456 4.354c.744.673 1.6 1.21 2.531 1.586.816.321 1.69.468 2.565.432a4.82 4.82 0 0 0 2.572-.884 6.352 6.352 0 0 0 1.627-1.688l.182 2.876z" fill="#8248E5" fill-rule="nonzero"/>
                <path d="M80.22 94.666c-1.573-1.904-10.017-12.19-22.066-14.526a25.93 25.93 0 0 0-1.296-.216 12.926 12.926 0 0 1-3.611 1.62 14.175 14.175 0 0 1-9.207-.73c-.972.257-1.884.54-2.7.838l-.237.08a33.028 33.028 0 0 0-5.454 2.539c-7.971 4.644-13.776 13.419-17.145 21.802-1.539 3.834-1.883 6.035-1.775 8.1a9.45 9.45 0 0 0 1.249 4.496 6.304 6.304 0 0 0 2.275 2.47c.98.57 2.1.85 3.233.81h12.427l-.601.19.405.114a67.925 67.925 0 0 0 16.51 1.762c4.863.01 9.7-.683 14.364-2.059H79.12a9.14 9.14 0 0 0 1.803-.108 8.1 8.1 0 0 0 4.536-2.079c2.362-2.281 2.463-5.94 2.457-7.661-.027-7.958-5.407-14.661-7.695-17.442zm-48.6 14.56a21.54 21.54 0 0 1 1.289-2.545 22.093 22.093 0 0 1 1.991-2.828 220.3 220.3 0 0 0 .182 6.196l-3.462-.823zm20.02 5.825a7.02 7.02 0 0 1-.506 2.545 5.535 5.535 0 0 1-.675 1.16 8.458 8.458 0 0 1-2.862 2.302c-1.406.469-2.873.73-4.354.777v.04c.438-.962.797-1.957 1.073-2.977.172-.615.31-1.24.412-1.87.256-1.524.335-3.074.236-4.616a.358.358 0 0 1 .081 0c.122.034.25.034.372 0a.675.675 0 0 0 .405-.385l.047-.122c1.174-2.911 2.347-5.823 3.517-8.734a1.202 1.202 0 0 1 2.227 0l.027 11.88zm4.725 6.115a8.843 8.843 0 0 1-2.997-2.328 6.75 6.75 0 0 1-1.269-3.814l-.08-3.659-.19-8.667a1.235 1.235 0 0 1 2.295-.047c1.161 2.7 2.32 5.418 3.476 8.154.129.317.264.628.399.938a.621.621 0 0 0 .108.183c.082.095.19.165.31.202.126.037.26.037.385 0h.08v2.12a20.709 20.709 0 0 0 1.944 7.62 15.964 15.964 0 0 1-4.44-.702h-.02zm12.488-11.117-4.503 1.067 4.374-1.04c.054-2.335.061-4.61 0-6.817a37.409 37.409 0 0 1 3.564 5.987l-3.435.803z" fill="#FFC55A" fill-rule="nonzero"/>
                <path d="M103.858 142.287c.018.892-.072 1.783-.27 2.653-2.329 10.24-16.004 9.963-24.077 8.532a86.92 86.92 0 0 1-15.883-4.448c.81 1.093 1.62 2.193 2.437 3.287l-.169-.21-8.363-10.232c-1.094-1.35-2.133-2.754-3.254-4.05-.951-1.134-2.146-2.16-3.705-2.16H44.35a37.935 37.935 0 0 1 2.329 7.998c.455 2.611.631 5.263.526 7.911l-.155 2.228c-1.883.142-20.959 1.519-32.569.796-4.84-.297-9.186-2.2-12.096-6.196-2.76-3.8-3.435-8.856-.357-12.683 2.12-2.633 5.433-4.05 8.417-5.292 8.1-3.423 16.55-5.59 24.853-8.283l.405.115a67.925 67.925 0 0 0 16.524 1.762c4.863.01 9.7-.683 14.364-2.059h.054l1.296.365 15.087 4.259c1.444.33 3.523.864 5.973 1.687 3.834 1.283 8.1 2.424 11.057 5.313a12.623 12.623 0 0 1 3.8 8.707z" fill="#8248E5" fill-rule="nonzero"/>
                <path d="m68.853 110.049 3.47-.823a37.409 37.409 0 0 0-3.564-5.987v6.817l.094-.007zM44.762 112.952a.452.452 0 0 1-.162 0 82.29 82.29 0 0 0-4.725-1.438 75.015 75.015 0 0 0-5.029-1.154.493.493 0 0 1-.398-.588.506.506 0 0 1 .594-.405 79.15 79.15 0 0 1 5.09 1.168c1.68.446 3.24.925 4.819 1.458a.506.506 0 0 1-.162.986l-.027-.027z" fill="#0C0830" fill-rule="nonzero"/>
                <path d="M60.88 121.868a15.964 15.964 0 0 1-4.495-.675 8.843 8.843 0 0 1-2.997-2.328 6.75 6.75 0 0 1-1.269-3.814l-.27-12.326a1.235 1.235 0 0 1 2.295-.047c1.161 2.7 2.32 5.418 3.477 8.154.128.317.263.628.398.938.076.184.23.325.418.385.126.037.26.037.385 0h.081v2.12c.051.895.162 1.785.33 2.666.34 1.705.894 3.36 1.648 4.927z" fill="#8248E5" fill-rule="nonzero"/>
                <path d="M28.69 109.691a.506.506 0 0 1-.04-1.005l2.95-.223a.508.508 0 0 1 .074 1.012l-2.95.216h-.034z" fill="#0C0830" fill-rule="nonzero"/>
                <path d="m51.822 103.009-.31 12.23a6.676 6.676 0 0 1-1.276 3.78 8.64 8.64 0 0 1-2.983 2.255c-1.447.44-2.95.668-4.462.675v.04a20.574 20.574 0 0 0 1.64-4.947c.303-1.556.423-3.141.358-4.725h.08a.715.715 0 0 0 .379 0 .675.675 0 0 0 .418-.385c1.296-2.997 2.588-5.996 3.875-8.997a1.215 1.215 0 0 1 2.268.06l.013.014z" fill="#8248E5" fill-rule="nonzero"/>
                <path d="m42.811 122.462-.034-.465-.459-.223a19.92 19.92 0 0 0 1.951-7.77V112.865a3.287 3.287 0 0 1 0-.365c0-.168.068-.328.19-.445a.675.675 0 0 1 .674-.203.243.243 0 0 0 .081-.101l3.875-9.004a1.728 1.728 0 0 1 3.206.08v.095l-.277 12.319a7.155 7.155 0 0 1-1.35 4.05 9.214 9.214 0 0 1-3.166 2.443c-1.518.475-3.1.72-4.69.73zm2.484-9.618v1.208a21.674 21.674 0 0 1-.364 3.098c-.3 1.463-.753 2.89-1.35 4.26a13.095 13.095 0 0 0 3.449-.595 8.262 8.262 0 0 0 2.78-2.133 6.17 6.17 0 0 0 1.175-3.49l.318-12.102a.729.729 0 0 0-.601-.398.675.675 0 0 0-.675.438l-3.875 8.998c-.119.31-.364.556-.675.675l-.182.04zM49.81 82.516a15.525 15.525 0 0 1-5.932-1.242.506.506 0 0 1 .391-.932 13.743 13.743 0 0 0 8.876.716 12.44 12.44 0 0 0 3.477-1.56.513.513 0 0 1 .675.156.5.5 0 0 1-.156.675 13.669 13.669 0 0 1-3.753 1.687 13.325 13.325 0 0 1-3.577.5z" fill="#0C0830" fill-rule="nonzero"/>
                <path d="M50.439 124.514a67.311 67.311 0 0 1-15.97-1.923.506.506 0 0 1-.386-.446c0-.175-.033-.358-.054-.533a.52.52 0 0 1 .135-.405.493.493 0 0 1 .399-.155l8.255.398a.506.506 0 0 1 .486.533.5.5 0 0 1-.533.48l-5.4-.264a67.203 67.203 0 0 0 13.324 1.303 66.21 66.21 0 0 0 15.87-2.025.506.506 0 1 1 .25.979 67.264 67.264 0 0 1-16.12 2.025l-.256.033z" fill="#0C0830" fill-rule="nonzero"/>
                <path d="M112.269 120.296a36.45 36.45 0 0 1-5.718 18.19 41.593 41.593 0 0 1-2.7 3.801 12.622 12.622 0 0 0-3.807-8.707c-2.983-2.89-7.222-4.05-11.056-5.313a64.98 64.98 0 0 0-5.974-1.687l-14.992-4.226-1.289-.364h-.054 12.528a9.14 9.14 0 0 0 1.802-.108 8.1 8.1 0 0 0 4.536-2.08c2.363-2.28 2.464-5.94 2.457-7.66 0-7.952-5.4-14.655-7.695-17.436-1.66-1.944-10.104-12.23-22.153-14.566a25.93 25.93 0 0 0-1.296-.216l-.155-2.882a8.775 8.775 0 0 0 1.06-2.302c.074-.216.128-.439.182-.675a.088.088 0 0 0 0-.04c0-.109.047-.223.067-.331.02-.108.047-.237.068-.358.02-.122.04-.236.054-.351.013-.115.04-.338.054-.533v-.264c.1-1.181.087-2.7-.554-3.543-.567-.716-3.523.52-6.014-.216-2.7-.81-3.375-3.524-4.982-3.126-.533.129-1.734 3.321-3.111 2.464a1.694 1.694 0 0 0-1.094-.742 1.674 1.674 0 0 0-.486 0 1.478 1.478 0 0 0-.756.37l-.04.041a2.025 2.025 0 0 0 .236 2.984c.219.176.483.286.763.317h.155c.08.007.162.007.243 0a.877.877 0 0 0 .23-.054c.141.371.31.736.479 1.094.189.459.384.972.627 1.505l.156 7.533c-.972.256-1.884.54-2.7.837l-.237.08c-.047-.141-.054-.222 0-.202a4.496 4.496 0 0 1-1.04-1.829 41.1 41.1 0 0 1-1.963-8.417c-.223-2.7-.513-6.21 1.829-9.531a12.251 12.251 0 0 1 6.034-4.367 11.792 11.792 0 0 1 5.09-.797c3.915.31 6.797 2.74 8.525 4.158 1.83 1.505 2.295 2.37 5.137 5.771a79.731 79.731 0 0 0 6.669 7.473c3.577 3.496 6.014 4.92 14.776 10.638 8.43 5.508 12.676 8.289 14.303 9.774 3.692 3.375 8.174 7.566 10.483 14.539a30.132 30.132 0 0 1 1.323 11.354z" fill="#0C0830" fill-rule="nonzero"/>
                <path d="M65.478 154.64a2.126 2.126 0 0 1-2.572.155s-9.875-5.501-10.253-5.292c-.378.209-5.4 1.269-5.4 1.269l-.054.763c.104-2.649-.072-5.3-.527-7.911a37.935 37.935 0 0 0-2.322-8h6.224c1.559 0 2.754 1.027 3.705 2.16 1.12 1.35 2.154 2.7 3.254 4.05l8.363 10.24.169.203a2.113 2.113 0 0 1-.587 2.363z" fill="#FFC55A" fill-rule="nonzero"/>
                <path d="M39.828 135.233h-.075a132.967 132.967 0 0 0-7.85-.897 123.073 123.073 0 0 0-13.297-.365.506.506 0 0 1-.507-.493.5.5 0 0 1 .493-.52c4.47-.115 8.942.008 13.399.372 2.64.216 5.299.52 7.918.904a.506.506 0 0 1-.075 1.006l-.006-.007zM47.01 149.665a.513.513 0 0 1-.493-.52 31.995 31.995 0 0 0-.324-5.454 31.853 31.853 0 0 0-1.303-5.4.506.506 0 0 1 .317-.641.506.506 0 0 1 .675.317 31.867 31.867 0 0 1 1.35 5.596c.278 1.863.391 3.747.338 5.63a.506.506 0 0 1-.56.472z" fill="#0C0830" fill-rule="nonzero"/>
                <path d="M66.065 152.817a.52.52 0 0 1-.398-.189l-8.526-10.442c-.479-.587-.951-1.195-1.424-1.796a81.69 81.69 0 0 0-1.822-2.281c-1.134-1.35-2.187-1.978-3.321-1.978H43.27a.506.506 0 0 1 0-1.012h7.304c1.91 0 3.253 1.35 4.097 2.342.634.756 1.249 1.546 1.85 2.308.465.594.93 1.195 1.41 1.776l8.525 10.449a.506.506 0 0 1-.391.823zM35.926 134.599a.506.506 0 0 1-.33-.891 17.199 17.199 0 0 1 4.259-2.7 16.659 16.659 0 0 1 2.612-.918h.128c1.35 0 2.734 0 4.09.108 1.1.067 2.228.182 3.376.324a.5.5 0 0 1 .438.56.506.506 0 0 1-.567.439 54.387 54.387 0 0 0-7.229-.419 16.2 16.2 0 0 0-6.412 3.423.486.486 0 0 1-.365.074z" fill="#0C0830" fill-rule="nonzero"/>
                <path d="M86.72 136.03h-.115c-5.88-1.35-11.9-2.383-17.88-3.16a198.11 198.11 0 0 0-17.659-1.484c-.04.06-.128.155-.216.27-.18.218-.32.467-.411.736a.5.5 0 0 1-.675.31.5.5 0 0 1-.31-.641c.128-.376.32-.728.566-1.04.118-.142.244-.278.378-.405a.972.972 0 0 1 .675-.243c5.913.23 11.88.736 17.746 1.492 6.014.783 12.062 1.85 17.975 3.173a.52.52 0 0 1 .385.607.513.513 0 0 1-.46.385z" fill="#0C0830" fill-rule="nonzero"/>
                <path d="M44.35 136.3h-1.08a.675.675 0 0 1 0-1.35h1.08a.675.675 0 0 1 0 1.35zM65.093 122.699H63.85c-1.12 0-2.147-.054-3.03-.142a.678.678 0 1 1 .127-1.35c.85.08 1.83.128 2.916.135h.527a16.95 16.95 0 0 0 2.12-.061.675.675 0 0 1 .749.587.675.675 0 0 1-.588.75c-.524.06-1.051.087-1.58.08z" fill="#231F20" fill-rule="nonzero"/>
                <path d="M51.478 74.402a1.553 1.553 0 0 1-.904-.283 1.667 1.667 0 0 1-.675-1.31.256.256 0 0 1 .256-.25.243.243 0 0 1 .25.25c.004.352.168.682.445.898.23.16.515.22.79.169a.257.257 0 0 1 .081.506c-.08.012-.162.018-.243.02zM48.238 69.67a.236.236 0 0 1-.128-.04.25.25 0 0 1-.088-.344c.22-.347.57-.59.972-.675.37-.071.753-.002 1.073.196a.243.243 0 0 1 .081.344.257.257 0 0 1-.344.088.999.999 0 0 0-.675-.129 1.033 1.033 0 0 0-.675.453c-.05.07-.13.11-.216.108zM51.802 72.924a.27.27 0 0 1-.263-.182.236.236 0 0 1 .155-.304h.054c.095 0 .236-.06.263-.121.129-.345-.256-1.769-.384-2.241 0-.115-.061-.21-.075-.277a.25.25 0 0 1 .19-.304.25.25 0 0 1 .303.189c0 .054.04.149.068.263.337 1.229.526 2.14.37 2.552a.817.817 0 0 1-.607.432l-.074-.007z" fill="#0C0830" fill-rule="nonzero"/>
                <circle fill="#8248E5" fill-rule="nonzero" cx="46.706" cy="71.203" r="1"/>
                <path d="M41.59 69.13a.236.236 0 0 1-.17-.067.257.257 0 0 1 0-.358 1.262 1.262 0 0 1 1.783-.04.256.256 0 0 1-.345.371.803.803 0 0 0-.675-.216.81.81 0 0 0-.465.257.263.263 0 0 1-.129.054zM58.89 112.702a.506.506 0 0 1-.135-.992 76.851 76.851 0 0 1 4.873-1.236 83.829 83.829 0 0 1 5.144-.938.513.513 0 0 1 .573.432.506.506 0 0 1-.425.574 71.032 71.032 0 0 0-5.076.925c-1.7.37-3.22.756-4.813 1.215l-.141.02z" fill="#0C0830" fill-rule="nonzero"/>
                <rect fill="#FFC55A" fill-rule="nonzero" transform="rotate(-123.66 53.182 14.011)" x="48.798" y="3.529" width="8.768" height="20.965" rx="4.384"/>
                <rect fill="#FFC55A" fill-rule="nonzero" transform="rotate(-49.25 58.895 27.632)" x="57.13" y="24.051" width="3.53" height="7.162" rx="1.762"/>
                <rect fill="#8248E5" fill-rule="nonzero" transform="rotate(-19.29 45.59 3.963)" x="43.825" y=".382" width="3.53" height="7.162" rx="1.762"/>
                <circle fill="#0C0830" fill-rule="nonzero" cx="35.406" cy="22.799" r="4.144"/>
                <rect fill="#8248E5" fill-rule="nonzero" transform="rotate(-117.59 45.514 34.617)" x="40.529" y="29.632" width="9.97" height="9.97" rx="4.981"/>
            </g>
            <path d="m3212.86 423.686-.135-.469-.28-.942-.297-.969a110.95 110.95 0 0 0-.158-.502.375.375 0 1 0-.715.227c.322 1.013.596 1.928.865 2.862a.375.375 0 0 0 .72-.207zm-1.817-5.738c-.32-.925-.66-1.869-1.021-2.83a.375.375 0 1 0-.702.262c.358.956.695 1.894 1.014 2.814a.375.375 0 1 0 .709-.246zm-2.112-5.638c-.37-.918-.754-1.844-1.155-2.776a.375.375 0 1 0-.689.296c.399.927.781 1.847 1.149 2.76a.375.375 0 0 0 .695-.28zm-2.374-5.526a131.21 131.21 0 0 0-1.282-2.72.375.375 0 0 0-.675.328c.438.903.863 1.805 1.275 2.704a.375.375 0 1 0 .682-.312zm-2.628-5.413c-.457-.888-.926-1.775-1.407-2.661a.375.375 0 0 0-.659.358c.479.88.945 1.763 1.399 2.646a.375.375 0 1 0 .667-.343zm-2.875-5.29a130.043 130.043 0 0 0-1.527-2.593.375.375 0 1 0-.641.388c.517.856 1.023 1.716 1.518 2.578a.375.375 0 0 0 .65-.373zm-3.117-5.154a127.97 127.97 0 0 0-1.647-2.52.375.375 0 1 0-.623.418 127.2 127.2 0 0 1 1.638 2.505.375.375 0 1 0 .632-.403zm-3.353-5c-.577-.818-1.165-1.63-1.764-2.437a.375.375 0 1 0-.602.447c.595.802 1.18 1.61 1.754 2.423a.375.375 0 1 0 .612-.432zm-3.58-4.825c-.617-.79-1.244-1.573-1.882-2.35a.375.375 0 1 0-.58.476c.634.772 1.257 1.55 1.87 2.336a.375.375 0 1 0 .591-.462zm-3.821-4.655c-.655-.759-1.32-1.51-1.994-2.254a.375.375 0 0 0-.555.504c.67.74 1.33 1.486 1.98 2.24a.375.375 0 0 0 .569-.49zm-4.047-4.46a118.628 118.628 0 0 0-2.106-2.152.375.375 0 0 0-.53.532c.708.704 1.405 1.416 2.093 2.137a.375.375 0 1 0 .543-.518zm-4.265-4.248a117.06 117.06 0 0 0-2.212-2.04.375.375 0 0 0-.501.558c.742.667 1.475 1.343 2.198 2.027a.375.375 0 1 0 .515-.545zm-4.481-4.027a116.02 116.02 0 0 0-2.315-1.923.375.375 0 1 0-.472.583c.776.628 1.543 1.265 2.3 1.91a.375.375 0 0 0 .487-.57zm-4.685-3.79c-.795-.61-1.6-1.21-2.413-1.801a.375.375 0 0 0-.44.607c.808.586 1.607 1.183 2.396 1.788a.375.375 0 1 0 .457-.595zm-4.876-3.542c-.826-.567-1.66-1.125-2.503-1.672a.375.375 0 1 0-.408.629 115.04 115.04 0 0 1 2.486 1.661.375.375 0 1 0 .425-.618zm-5.055-3.283a116.676 116.676 0 0 0-2.586-1.54.375.375 0 0 0-.376.649c.866.5 1.722 1.01 2.57 1.53a.375.375 0 1 0 .392-.64zm-5.208-3.012c-.88-.48-1.767-.948-2.66-1.404a.375.375 0 1 0-.341.667c.886.454 1.767.919 2.642 1.396a.375.375 0 1 0 .36-.659zm-5.353-2.74c-.905-.434-1.816-.857-2.731-1.268a.375.375 0 1 0-.308.684c.91.408 1.815.828 2.714 1.26a.375.375 0 0 0 .325-.676zm-5.5-2.469c-.927-.387-1.858-.763-2.794-1.127a.375.375 0 1 0-.271.699c.93.362 1.855.735 2.775 1.12a.375.375 0 1 0 .29-.692zm-5.603-2.179c-.943-.34-1.891-.667-2.843-.982a.375.375 0 0 0-.236.712c.946.313 1.888.639 2.825.976a.375.375 0 0 0 .254-.706zm-5.721-1.896c-.96-.292-1.923-.57-2.89-.838a.375.375 0 0 0-.199.723c.96.265 1.917.543 2.87.832a.375.375 0 0 0 .219-.717zm-5.816-1.607c-.972-.242-1.948-.472-2.926-.69a.375.375 0 1 0-.163.732c.972.217 1.941.445 2.908.686a.375.375 0 1 0 .181-.728zm-5.875-1.308a120.46 120.46 0 0 0-2.962-.544.375.375 0 1 0-.126.74c.983.167 1.964.347 2.943.54a.375.375 0 1 0 .145-.736zm-5.924-1.012c-.992-.144-1.987-.276-2.983-.396a.375.375 0 0 0-.09.745c.99.119 1.979.25 2.966.393a.375.375 0 1 0 .107-.742zm-5.98-.717a121.38 121.38 0 0 0-2.998-.247.375.375 0 1 0-.052.748c.994.07 1.987.151 2.98.245a.375.375 0 1 0 .07-.746zm-6.01-.42a121.66 121.66 0 0 0-3.009-.098.375.375 0 0 0-.015.75c.997.02 1.994.053 2.991.097a.375.375 0 0 0 .034-.749zm-6.026-.121c-1.003.004-2.005.022-3.008.05a.375.375 0 0 0 .022.75c.996-.029 1.993-.046 2.99-.05a.375.375 0 0 0-.004-.75zm-6.03.177c-1.001.054-2.003.121-3.003.2a.375.375 0 1 0 .06.748c.993-.079 1.988-.145 2.984-.199a.375.375 0 0 0-.04-.749zm-6.005.475c-.998.104-1.994.22-2.989.349a.375.375 0 0 0 .096.743c.989-.127 1.979-.243 2.97-.346a.375.375 0 0 0-.077-.746zm-5.931.765c-.993.153-1.983.318-2.97.496a.375.375 0 0 0 .133.738c.981-.176 1.965-.34 2.95-.492a.375.375 0 1 0-.113-.742zm-5.932 1.066c-.983.203-1.963.417-2.94.643a.375.375 0 0 0 .17.73c.97-.224 1.944-.437 2.921-.638a.375.375 0 0 0-.15-.735zm-5.867 1.36c-.972.252-1.94.515-2.904.79a.375.375 0 0 0 .206.721c.958-.273 1.92-.535 2.886-.784a.375.375 0 1 0-.188-.727zm-5.796 1.655c-.958.3-1.911.611-2.86.935a.375.375 0 1 0 .242.71c.943-.322 1.89-.632 2.842-.93a.375.375 0 0 0-.224-.715zm-5.705 1.945c-.941.348-1.878.708-2.809 1.08a.375.375 0 1 0 .278.696c.925-.369 1.856-.726 2.791-1.072a.375.375 0 0 0-.26-.704zm-5.593 2.233c-.923.395-1.84.803-2.75 1.222a.375.375 0 0 0 .313.681c.905-.416 1.816-.82 2.732-1.214a.375.375 0 1 0-.295-.69zm-5.482 2.522c-.901.443-1.796.898-2.684 1.364a.375.375 0 0 0 .349.664c.882-.463 1.77-.915 2.666-1.355a.375.375 0 1 0-.331-.673zm-5.334 2.798c-.877.49-1.745.99-2.606 1.5a.375.375 0 1 0 .383.646c.855-.507 1.718-1.004 2.59-1.49a.375.375 0 0 0-.367-.656zm-5.177 3.072c-.852.537-1.695 1.083-2.53 1.64a.375.375 0 1 0 .416.624c.83-.553 1.667-1.096 2.514-1.629a.375.375 0 1 0-.4-.635zm-5.018 3.348c-.822.58-1.635 1.171-2.44 1.772a.375.375 0 0 0 .45.601c.798-.597 1.606-1.184 2.423-1.76a.375.375 0 1 0-.433-.613zm-4.822 3.601c-.787.622-1.566 1.253-2.335 1.894a.375.375 0 0 0 .48.576c.764-.637 1.538-1.264 2.32-1.881a.375.375 0 0 0-.465-.589zm-4.627 3.855c-.753.663-1.498 1.335-2.233 2.017a.375.375 0 1 0 .51.55c.73-.677 1.47-1.345 2.219-2.004a.375.375 0 1 0-.496-.563zm-4.424 4.103c-.717.701-1.426 1.412-2.125 2.133a.375.375 0 1 0 .538.522c.695-.716 1.399-1.422 2.112-2.12a.375.375 0 0 0-.525-.535zm-4.176 4.302c-.68.738-1.351 1.485-2.012 2.24a.375.375 0 1 0 .564.494c.657-.75 1.323-1.493 2-2.226a.375.375 0 1 0-.552-.508zm-3.97 4.538c-.64.77-1.271 1.55-1.892 2.337a.375.375 0 0 0 .59.465c.616-.783 1.242-1.557 1.878-2.323a.375.375 0 0 0-.577-.479zm-3.73 4.731c-.601.803-1.193 1.615-1.774 2.434a.375.375 0 1 0 .611.434 119.84 119.84 0 0 1 1.763-2.419.375.375 0 0 0-.6-.449zm-3.493 4.919c-.56.83-1.109 1.669-1.649 2.515a.375.375 0 1 0 .633.403c.536-.84 1.082-1.673 1.638-2.5a.375.375 0 1 0-.622-.418zm-3.24 5.075a125.76 125.76 0 0 0-1.528 2.596.375.375 0 1 0 .651.373c.497-.867 1.003-1.727 1.519-2.58a.375.375 0 0 0-.642-.389zm-2.996 5.234c-.478.881-.945 1.769-1.401 2.662a.375.375 0 0 0 .667.342c.455-.888.919-1.77 1.393-2.647a.375.375 0 1 0-.66-.357zm-2.737 5.35c-.436.903-.862 1.812-1.277 2.726a.375.375 0 1 0 .683.31c.413-.909.836-1.812 1.27-2.71a.375.375 0 1 0-.676-.326zm-2.485 5.465c-.393.921-.777 1.848-1.15 2.778a.375.375 0 1 0 .696.28c.371-.926.752-1.847 1.144-2.763a.375.375 0 1 0-.69-.295zm-2.238 5.582c-.352.938-.694 1.88-1.025 2.826a.375.375 0 0 0 .708.248c.33-.94.67-1.877 1.02-2.81a.375.375 0 0 0-.703-.264zm-1.988 5.68c-.31.955-.61 1.912-.899 2.872a.375.375 0 1 0 .719.216c.287-.955.585-1.907.893-2.855a.375.375 0 1 0-.713-.232zm-1.735 5.768a136.65 136.65 0 0 0-.771 2.906.375.375 0 0 0 .727.184c.245-.965.5-1.928.766-2.89a.375.375 0 0 0-.722-.2zm-1.48 5.843c-.226.98-.44 1.96-.643 2.94a.375.375 0 0 0 .735.152c.201-.975.414-1.95.638-2.924a.375.375 0 1 0-.73-.168zm-1.22 5.895c-.182.988-.352 1.976-.51 2.964a.375.375 0 1 0 .74.119c.158-.982.327-1.965.508-2.948a.375.375 0 0 0-.738-.135zm-.957 5.957c-.137.997-.262 1.992-.376 2.986a.375.375 0 1 0 .745.085c.113-.988.238-1.978.374-2.969a.375.375 0 1 0-.743-.102zm-.683 5.981c-.091 1.003-.17 2.003-.237 2.999a.375.375 0 1 0 .749.05c.066-.99.144-1.984.235-2.98a.375.375 0 1 0-.747-.069zm-.402 6.018c-.043 1.008-.074 2.01-.091 3.008a.375.375 0 0 0 .75.013 120.5 120.5 0 0 1 .09-2.989.375.375 0 1 0-.75-.032zm-.106 6.016c.007 1.01.028 2.013.063 3.01a.375.375 0 1 0 .75-.027c-.035-.989-.056-1.986-.063-2.99a.375.375 0 0 0-.75.007zm.207 6.01c.062 1.01.138 2.011.228 3.002a.375.375 0 1 0 .747-.068 103.69 103.69 0 0 1-.227-2.98.375.375 0 0 0-.748.046zm.546 6a93.8 93.8 0 0 0 .411 2.985.375.375 0 0 0 .742-.115 93.004 93.004 0 0 1-.408-2.96.375.375 0 1 0-.745.09zm.918 5.936c.19 1 .394 1.983.614 2.95a.375.375 0 1 0 .732-.166 81.13 81.13 0 0 1-.61-2.924.375.375 0 1 0-.736.14zm1.339 5.866c.131.486.267.967.406 1.443.141.482.284.962.429 1.44a.375.375 0 1 0 .717-.218c-.143-.475-.286-.953-.426-1.433-.138-.47-.272-.947-.402-1.428a.375.375 0 1 0-.724.196zm1.733 5.753c.311.96.63 1.91.955 2.851a.375.375 0 0 0 .709-.245c-.324-.936-.64-1.882-.95-2.837a.375.375 0 1 0-.714.23zm1.97 5.686c.351.947.71 1.884 1.077 2.81a.375.375 0 0 0 .697-.276c-.365-.921-.721-1.852-1.07-2.794a.375.375 0 1 0-.704.26zm2.222 5.6c.394.93.798 1.849 1.21 2.756a.375.375 0 0 0 .683-.31c-.41-.902-.81-1.815-1.203-2.739a.375.375 0 1 0-.69.293zm2.49 5.476c.441.908.893 1.804 1.354 2.688a.375.375 0 1 0 .665-.347c-.458-.878-.907-1.768-1.345-2.67a.375.375 0 0 0-.675.33zm2.79 5.345c.493.881.996 1.75 1.51 2.605a.375.375 0 0 0 .643-.386 97.57 97.57 0 0 1-1.498-2.585.375.375 0 0 0-.655.366zm3.11 5.176a90.435 90.435 0 0 0 1.676 2.504.375.375 0 1 0 .616-.428 89.672 89.672 0 0 1-1.661-2.483.375.375 0 0 0-.63.407zm3.424 4.936a84.79 84.79 0 0 0 1.845 2.384.375.375 0 1 0 .585-.468 89.793 89.793 0 0 1-1.828-2.365.375.375 0 0 0-.602.449zm3.767 4.705a92.082 92.082 0 0 0 1.996 2.255.375.375 0 1 0 .553-.506 91.364 91.364 0 0 1-1.98-2.237.375.375 0 1 0-.57.488zm4.07 4.448a88.06 88.06 0 0 0 2.141 2.118.375.375 0 1 0 .518-.543 87.314 87.314 0 0 1-2.124-2.1.375.375 0 0 0-.536.525zm4.357 4.16a79.83 79.83 0 0 0 2.29 1.96.375.375 0 0 0 .477-.578 79.074 79.074 0 0 1-2.268-1.942.375.375 0 1 0-.499.56zm4.664 3.837c.81.613 1.624 1.204 2.442 1.77a.375.375 0 0 0 .427-.617 68.649 68.649 0 0 1-2.416-1.75.375.375 0 0 0-.453.597zm4.965 3.428c.864.54 1.732 1.05 2.601 1.533a.375.375 0 0 0 .364-.656 57.68 57.68 0 0 1-2.568-1.513.375.375 0 1 0-.397.636zm5.284 2.923c.92.444 1.842.853 2.763 1.228a.375.375 0 0 0 .283-.695 47.396 47.396 0 0 1-2.72-1.209.375.375 0 1 0-.326.676zm5.621 2.278c.973.318 1.944.596 2.912.833a.375.375 0 1 0 .179-.729 38.72 38.72 0 0 1-2.857-.817.375.375 0 1 0-.234.713zm5.93 1.397c1.031.114 2.056.137 3.064.07a.375.375 0 1 0-.049-.748c-.964.064-1.945.042-2.934-.067a.375.375 0 1 0-.082.745zm6.104-.414a15.706 15.706 0 0 0 2.887-1.054.375.375 0 0 0-.325-.676c-.875.421-1.795.757-2.75 1.003a.375.375 0 1 0 .188.727zm5.51-2.66a14.988 14.988 0 0 0 2.242-2.106.375.375 0 1 0-.567-.491c-.64.74-1.354 1.409-2.13 2a.375.375 0 1 0 .454.597zm4.033-4.664c.493-.885.904-1.826 1.228-2.817a.375.375 0 1 0-.713-.233c-.309.945-.7 1.842-1.17 2.685a.375.375 0 0 0 .655.365zm1.923-5.858a14.166 14.166 0 0 0 .11-3.083.375.375 0 1 0-.75.054 13.416 13.416 0 0 1-.103 2.927.375.375 0 1 0 .743.102zm-.409-6.133a19.89 19.89 0 0 0-1.016-2.884.375.375 0 1 0-.686.302c.405.924.732 1.852.977 2.774a.375.375 0 1 0 .725-.192zm-2.43-5.601a26.842 26.842 0 0 0-1.722-2.51.375.375 0 1 0-.594.459 26.092 26.092 0 0 1 1.673 2.438.375.375 0 0 0 .642-.387zm-3.69-4.8a30.068 30.068 0 0 0-2.203-2.092.375.375 0 1 0-.488.57c.75.642 1.468 1.324 2.148 2.038a.375.375 0 1 0 .544-.517zm-4.637-3.97a27.18 27.18 0 0 0-2.596-1.587.375.375 0 0 0-.354.662 26.43 26.43 0 0 1 2.524 1.543.375.375 0 0 0 .426-.617zm-5.382-2.861a19.858 19.858 0 0 0-2.932-.87.375.375 0 0 0-.155.734c.93.197 1.873.477 2.82.837a.375.375 0 0 0 .267-.701zm-5.948-1.225-.138-.002a10.11 10.11 0 0 0-2.947.413.375.375 0 0 0 .21.72 9.36 9.36 0 0 1 2.73-.383l.13.002a.375.375 0 0 0 .015-.75zm-5.91 1.699c-.867.55-1.67 1.218-2.38 1.978a.375.375 0 1 0 .549.512 11.47 11.47 0 0 1 2.233-1.857.375.375 0 0 0-.401-.633zm-4.191 4.49c-.51.939-.876 1.924-1.082 2.914a.375.375 0 1 0 .734.153 9.988 9.988 0 0 1 1.007-2.71.375.375 0 0 0-.66-.358zm-1.161 6.13a7.577 7.577 0 0 0 1.162 2.934.375.375 0 1 0 .625-.415 6.828 6.828 0 0 1-1.048-2.645.375.375 0 1 0-.74.127zm3.285 5.125c.385.282.802.546 1.25.79.516.28 1.035.48 1.574.609a.375.375 0 0 0 .174-.73 5.632 5.632 0 0 1-1.39-.538 10.305 10.305 0 0 1-1.164-.736.375.375 0 0 0-.444.605zm5.984 1.398c.934-.197 1.896-.55 2.91-1.048a.375.375 0 0 0-.33-.673c-.963.472-1.867.804-2.735.987a.375.375 0 0 0 .155.734zm5.562-2.58.39-.253.205-.136c.621-.412 1.25-.846 1.903-1.312a.375.375 0 0 0-.436-.61c-.484.345-.955.673-1.42.987l-.665.444-.383.25a.375.375 0 0 0 .406.63zm4.922-3.488 2.383-1.828a.375.375 0 0 0-.458-.593l-2.252 1.729c-.042.03-.083.062-.125.094a.375.375 0 0 0 .452.598zm4.761-3.655.729-.55.69-.513.333-.245.65-.472a.375.375 0 0 0-.437-.61l-.326.236-.665.487c-.113.084-.228.168-.343.255l-.712.533-.372.282a.375.375 0 0 0 .453.597zm4.862-3.471.481-.31a39.472 39.472 0 0 1 2.064-1.23.375.375 0 0 0-.364-.655c-.72.4-1.422.817-2.103 1.252l-.488.315a.375.375 0 0 0 .41.628zm5.196-2.889a42.88 42.88 0 0 1 2.739-1.16.375.375 0 1 0-.269-.7c-.946.363-1.876.757-2.786 1.18a.375.375 0 0 0 .316.68zm5.556-2.128c.95-.29 1.908-.548 2.872-.77a.375.375 0 1 0-.169-.731c-.98.226-1.956.488-2.923.783a.375.375 0 0 0 .22.718zm5.811-1.337c.986-.153 1.97-.268 2.952-.344a.375.375 0 1 0-.058-.748c-1 .078-2.005.195-3.008.35a.375.375 0 1 0 .114.742zm5.907-.458c.998.003 1.987.046 2.965.132a.375.375 0 0 0 .065-.747c-.999-.088-2.01-.132-3.028-.135a.375.375 0 1 0-.002.75zm5.926.53c.979.177 1.942.4 2.887.669a.375.375 0 0 0 .205-.722 31.3 31.3 0 0 0-2.958-.686.375.375 0 0 0-.134.738zm5.72 1.631c.924.366 1.824.774 2.7 1.222a.375.375 0 0 0 .342-.667 31.731 31.731 0 0 0-2.766-1.252.375.375 0 1 0-.276.697zm5.283 2.702a32.5 32.5 0 0 1 2.424 1.706.375.375 0 0 0 .46-.593 33.25 33.25 0 0 0-2.481-1.746.375.375 0 0 0-.403.633zm4.695 3.63c.73.674 1.427 1.377 2.093 2.105a.375.375 0 0 0 .553-.507 36.336 36.336 0 0 0-2.137-2.15.375.375 0 0 0-.51.551zm4.012 4.38c.622.8 1.198 1.607 1.728 2.415a.375.375 0 0 0 .627-.412 38.257 38.257 0 0 0-1.763-2.464.375.375 0 0 0-.592.46zm3.259 4.969c.09.165.173.323.251.474l.218.43.098.199.174.369.077.17c.152.34.298.682.438 1.026a.375.375 0 0 0 .695-.282 33.135 33.135 0 0 0-.448-1.05l-.167-.362-.194-.401-.108-.216-.241-.465a33.177 33.177 0 0 0-.134-.25.375.375 0 0 0-.66.358zm2.247 5.464c.287.947.531 1.906.732 2.874a.375.375 0 0 0 .734-.152 33.541 33.541 0 0 0-.749-2.94.375.375 0 0 0-.717.218zm1.204 5.81c.114.982.184 1.97.21 2.96a.375.375 0 0 0 .75-.02 34.54 34.54 0 0 0-.215-3.026.375.375 0 1 0-.745.086zm.16 5.953a34.64 34.64 0 0 1-.305 2.953.375.375 0 0 0 .742.11c.147-1.001.251-2.008.312-3.018a.375.375 0 0 0-.749-.045zm-.858 5.852a34.594 34.594 0 0 1-.803 2.857.375.375 0 0 0 .713.233c.314-.958.588-1.932.82-2.919a.375.375 0 0 0-.73-.171zm-1.858 5.656a33.189 33.189 0 0 1-1.288 2.673.375.375 0 0 0 .66.355 33.94 33.94 0 0 0 1.318-2.733.375.375 0 0 0-.69-.295zm-2.833 5.246c-.32.48-.651.948-.994 1.405l-.465.604-.314.395a.375.375 0 1 0 .584.47l.44-.554c.478-.614.937-1.25 1.373-1.904a.375.375 0 1 0-.624-.416zm-3.739 4.624a29.547 29.547 0 0 1-2.173 2.013.375.375 0 1 0 .481.575 30.295 30.295 0 0 0 2.229-2.064.375.375 0 1 0-.537-.524zm-4.544 3.8a28.215 28.215 0 0 1-2.537 1.527.375.375 0 1 0 .352.662 28.966 28.966 0 0 0 2.605-1.568.375.375 0 0 0-.42-.621zm-5.22 2.777a28.023 28.023 0 0 1-2.802.96.375.375 0 1 0 .206.722 28.66 28.66 0 0 0 2.877-.987.375.375 0 1 0-.28-.695zm-5.692 1.62c-.977.168-1.958.284-2.94.35a.375.375 0 0 0 .05.748 29.253 29.253 0 0 0 3.017-.36.375.375 0 0 0-.127-.739zm-5.912.399a31.167 31.167 0 0 1-2.954-.24.375.375 0 1 0-.096.744c.999.129 2.008.212 3.025.246a.375.375 0 1 0 .025-.75zm-5.871-.753a33.215 33.215 0 0 1-2.864-.773.375.375 0 0 0-.228.715c.937.298 1.913.564 2.929.79a.375.375 0 1 0 .163-.732zm-5.668-1.814-.284-.123a.375.375 0 0 0-.302.686l.291.127a.375.375 0 1 0 .295-.69z" fill="#995EFF" fill-rule="nonzero"/>
            <g transform="translate(2166.5 496.15)">
                <mask id="E" fill="#fff">
                    <use xlink:href="#B"/>
                </mask>
                <use fill="#4271F5" xlink:href="#B"/>
                <use fill="url(#C)" xlink:href="#B"/>
                <path d="M36.411 148.83c-2.918 5.81-3.465 13.759-1.501 20.535.602 2.078 1.425 3.726 2.888 5.733l.436.583.472.607.512.635.271.33.575.683.946 1.098 1.601 1.835.544.637.618.745.278.347.398.513.262.348c3.537 4.757 4.897 10.612 4.32 17.324l-.067.702-.059.522-.108.84-.166 1.264-.071.6-.058.55-.044.503c-.012.16-.022.315-.03.464l-.014.432a8.566 8.566 0 0 0 .154 1.874l.079.36a8.46 8.46 0 0 0 1.424 3.092c4.476 6.205 15.285 8.31 24.022 5.882 5.65-1.57 7.677-5.03 6.607-9.801-.814-3.632-3.397-7.853-6.882-11.897-.139-.16-.282-.323-.43-.489l-.466-.509-.511-.541-.986-1.01-1.721-1.73-.69-.704-.65-.68c-3.568-3.783-5.204-6.45-5.564-9.73-.133-1.222.02-2.407.496-3.895l.194-.573c.07-.196.144-.398.224-.606l.256-.642.14-.336.303-.704.164-.37.652-1.45.372-.85.211-.499.185-.456c.03-.073.057-.145.084-.215l.153-.41.07-.197.126-.383.115-.378.104-.381c1.205-4.611 1.133-9.093-.284-13.426-2.396-7.328-7.207-13.037-13.309-14.305-7.538-1.564-13.357 1.583-16.645 8.129zm16.493-7.394c5.791 1.202 10.428 6.705 12.748 13.803 1.371 4.192 1.44 8.528.272 13.003l-.1.365-.11.363-.124.37-.139.387-.158.41-.181.446-.207.488-.236.54-.414.928-.363.806c-1.506 3.37-2.073 5.353-1.837 7.513.336 3.071 1.698 5.592 4.529 8.812l.586.654c.202.221.41.446.626.675l.667.697c.114.119.23.238.349.358l2.496 2.517.559.576.503.534.458.5.422.478c3.411 3.96 5.937 8.087 6.719 11.572.983 4.384-.816 7.453-6.077 8.915-8.465 2.352-18.95.31-23.214-5.599a7.711 7.711 0 0 1-1.213-2.483l-.048-.179-.082-.349a8.055 8.055 0 0 1-.166-2.017l.02-.437.035-.474.05-.52.063-.568.121-.963.168-1.271.084-.722.018-.175c.714-7.108-.664-13.332-4.415-18.377l-.4-.53-.271-.346-.43-.533-.478-.574-.753-.88-1.722-1.972-.607-.708-.564-.67-.521-.636c-2.172-2.69-3.222-4.541-3.937-7.006-1.913-6.6-1.379-14.356 1.451-19.99 3.088-6.148 8.447-9.122 15.458-7.803l.365.072z" fill="url(#D)" fill-rule="nonzero" opacity=".401" mask="url(#E)"/>
                <path d="M-34.839 141.33c-2.918 5.81-3.465 13.759-1.501 20.535.602 2.078 1.425 3.726 2.888 5.733l.436.583.472.607.512.635.271.33.575.683.946 1.098 1.601 1.835.544.637.618.745.278.347.398.513.262.348c3.537 4.757 4.897 10.612 4.32 17.324l-.067.702-.059.522-.108.84-.166 1.264-.071.6-.058.55-.044.503c-.012.16-.022.315-.03.464l-.014.432a8.566 8.566 0 0 0 .154 1.874l.079.36a8.46 8.46 0 0 0 1.424 3.092c4.476 6.205 15.285 8.31 24.022 5.882 5.65-1.57 7.677-5.03 6.607-9.801-.814-3.632-3.397-7.853-6.882-11.897-.139-.16-.282-.323-.43-.489l-.466-.509-.511-.541-.986-1.01-1.721-1.73-.69-.704-.65-.68c-3.568-3.783-5.204-6.45-5.564-9.73-.133-1.222.02-2.407.496-3.895l.194-.573c.07-.196.144-.398.224-.606l.256-.642.14-.336.303-.704.164-.37.652-1.45.372-.85.211-.499.185-.456c.03-.073.057-.145.084-.215l.153-.41.07-.197.126-.383.115-.378.104-.381c1.205-4.611 1.133-9.093-.284-13.426-2.396-7.328-7.207-13.037-13.309-14.305-7.538-1.564-13.357 1.583-16.645 8.129zm16.493-7.394c5.791 1.202 10.428 6.705 12.748 13.803 1.371 4.192 1.44 8.528.272 13.003l-.1.365-.11.363-.124.37-.139.387-.158.41-.181.446-.207.488-.236.54-.414.928-.363.806c-1.506 3.37-2.073 5.353-1.837 7.513.336 3.071 1.698 5.592 4.529 8.812l.586.654c.202.221.41.446.626.675l.667.697c.114.119.23.238.349.358l2.496 2.517.559.576.503.534.458.5.422.478c3.411 3.96 5.937 8.087 6.719 11.572.983 4.384-.816 7.453-6.077 8.915-8.465 2.352-18.95.31-23.214-5.599a7.711 7.711 0 0 1-1.213-2.483l-.048-.179-.082-.349a8.055 8.055 0 0 1-.166-2.017l.02-.437.035-.474.05-.52.063-.568.121-.963.168-1.271.084-.722.018-.175c.714-7.108-.664-13.332-4.415-18.377l-.4-.53-.271-.346-.43-.533-.478-.574-.753-.88-1.722-1.972-.607-.708-.564-.67-.521-.636c-2.172-2.69-3.222-4.541-3.937-7.006-1.913-6.6-1.379-14.356 1.451-19.99 3.088-6.148 8.447-9.122 15.458-7.803l.365.072z" fill="url(#D)" fill-rule="nonzero" opacity=".4" mask="url(#E)" transform="rotate(69 -13.888 172.079)"/>
                <path d="M-45.339 141.33c-2.918 5.81-3.465 13.759-1.501 20.535.602 2.078 1.425 3.726 2.888 5.733l.436.583.472.607.512.635.271.33.575.683.946 1.098 1.601 1.835.544.637.618.745.278.347.398.513.262.348c3.537 4.757 4.897 10.612 4.32 17.324l-.067.702-.059.522-.108.84-.166 1.264-.071.6-.058.55-.044.503c-.012.16-.022.315-.03.464l-.014.432a8.566 8.566 0 0 0 .154 1.874l.079.36a8.46 8.46 0 0 0 1.424 3.092c4.476 6.205 15.285 8.31 24.022 5.882 5.65-1.57 7.677-5.03 6.607-9.801-.814-3.632-3.397-7.853-6.882-11.897-.139-.16-.282-.323-.43-.489l-.466-.509-.511-.541-.986-1.01-1.721-1.73-.69-.704-.65-.68c-3.568-3.783-5.204-6.45-5.564-9.73-.133-1.222.02-2.407.496-3.895l.194-.573c.07-.196.144-.398.224-.606l.256-.642.14-.336.303-.704.164-.37.652-1.45.372-.85.211-.499.185-.456c.03-.073.057-.145.084-.215l.153-.41.07-.197.126-.383.115-.378.104-.381c1.205-4.611 1.133-9.093-.284-13.426-2.396-7.328-7.207-13.037-13.309-14.305-7.538-1.564-13.357 1.583-16.645 8.129zm16.493-7.394c5.791 1.202 10.428 6.705 12.748 13.803 1.371 4.192 1.44 8.528.272 13.003l-.1.365-.11.363-.124.37-.139.387-.158.41-.181.446-.207.488-.236.54-.414.928-.363.806c-1.506 3.37-2.073 5.353-1.837 7.513.336 3.071 1.698 5.592 4.529 8.812l.586.654c.202.221.41.446.626.675l.667.697c.114.119.23.238.349.358l2.496 2.517.559.576.503.534.458.5.422.478c3.411 3.96 5.937 8.087 6.719 11.572.983 4.384-.816 7.453-6.077 8.915-8.465 2.352-18.95.31-23.214-5.599a7.711 7.711 0 0 1-1.213-2.483l-.048-.179-.082-.349a8.055 8.055 0 0 1-.166-2.017l.02-.437.035-.474.05-.52.063-.568.121-.963.168-1.271.084-.722.018-.175c.714-7.108-.664-13.332-4.415-18.377l-.4-.53-.271-.346-.43-.533-.478-.574-.753-.88-1.722-1.972-.607-.708-.564-.67-.521-.636c-2.172-2.69-3.222-4.541-3.937-7.006-1.913-6.6-1.379-14.356 1.451-19.99 3.088-6.148 8.447-9.122 15.458-7.803l.365.072z" fill="url(#D)" fill-rule="nonzero" opacity=".4" mask="url(#E)" transform="rotate(69 -24.388 172.079)"/>
                <path d="M41.217 171.105c.58 2 1.61 3.57 3.606 5.873l1.38 1.581.297.348.384.46.228.284.428.558c2.313 3.111 3.165 6.96 2.72 11.388l-.03.28-.188 1.458-.062.525-.046.466-.03.418c-.04.792.022 1.348.207 2.015.172.622.457 1.213.873 1.79 2.917 4.043 9.924 5.408 15.591 3.833 3.702-1.028 5.047-3.323 4.343-6.46-.53-2.361-2.2-5.093-4.455-7.708l-.183-.21-.396-.434a31.85 31.85 0 0 0-.216-.23l-.566-.586-1.289-1.296c-.297-.3-.578-.59-.842-.869l-.505-.547c-1.937-2.139-2.844-3.733-3.055-5.652-.06-.557-.013-1.144.133-1.784l.041-.17.09-.337c.05-.169.105-.34.169-.52l.139-.376.166-.414.197-.464.793-1.783.168-.392.142-.346.12-.312.104-.29a9.69 9.69 0 0 0 .046-.14l.085-.277.078-.285c.781-2.988.735-5.896-.184-8.706-1.554-4.753-4.679-8.461-8.658-9.288-9.513-1.974-14.76 8.472-11.823 18.599zm11.671-17.864c3.668.762 6.618 4.263 8.097 8.786.873 2.67.917 5.431.172 8.284l-.074.266a9.001 9.001 0 0 1-.039.13l-.085.264a9.78 9.78 0 0 1-.048.136l-.107.286-.198.488-.255.59-.68 1.524-.194.457-.167.41-.142.377-.12.352a9.711 9.711 0 0 0-.15.507l-.085.34c-.164.717-.218 1.387-.147 2.033.27 2.455 1.532 4.36 4.31 7.206l1.677 1.69.469.486c.291.307.543.583.773.85 2.18 2.53 3.795 5.168 4.292 7.383.616 2.75-.499 4.653-3.813 5.574-5.395 1.499-12.079.197-14.782-3.55a4.824 4.824 0 0 1-.759-1.552c-.185-.669-.23-1.226-.153-2.152l.044-.455.029-.25.069-.553.116-.88.053-.451.015-.145c.463-4.602-.43-8.637-2.864-11.91l-.219-.29-.335-.427-.51-.616-.301-.353-1.389-1.59-.55-.647c-1.57-1.881-2.413-3.26-2.9-4.943-2.803-9.667 2.129-19.486 10.95-17.655z" fill="url(#F)" fill-rule="nonzero" opacity=".401" mask="url(#E)"/>
                <path d="M-10.652 66.209c.532 1.834 1.395 3.242 3.102 5.28l.511.6 1.243 1.423.356.415.315.375.284.347.262.333c.085.11.168.22.25.331 2.234 3.004 3.105 6.696 2.762 10.932l-.056.596-.052.441-.152 1.157-.062.525-.046.467c-.087 1.027-.038 1.654.177 2.432.172.622.457 1.213.873 1.79 2.917 4.043 9.925 5.408 15.592 3.834 3.701-1.029 5.047-3.324 4.343-6.46-.53-2.362-2.201-5.093-4.455-7.709a22.8 22.8 0 0 0-.579-.644l-.447-.472-1.624-1.64-.573-.586c-2.474-2.575-3.592-4.323-3.83-6.482-.06-.557-.013-1.144.134-1.784.065-.286.141-.558.238-.85l.128-.361.152-.393.18-.437.336-.766.56-1.257.168-.391.142-.346.063-.16.111-.3.097-.282c.015-.047.03-.093.043-.14l.081-.279.039-.143c.78-2.989.734-5.897-.184-8.707-1.555-4.753-4.68-8.46-8.658-9.287-9.513-1.975-14.76 8.47-11.824 18.598zM1.02 48.345c3.668.762 6.618 4.263 8.097 8.786.873 2.67.917 5.432.171 8.284l-.073.266-.08.261a9.123 9.123 0 0 1-.045.133l-.098.276-.117.3-.215.517-.386.875-.361.807-.21.484-.181.432-.154.393c-.024.062-.046.124-.068.184l-.121.352-.104.339c-.048.168-.09.335-.13.508-.165.717-.218 1.387-.148 2.033.241 2.192 1.273 3.946 3.47 6.322l.55.583c.095.1.192.2.292.301l1.676 1.691c.168.171.323.332.469.486l.409.44c.128.14.248.276.364.41 2.18 2.53 3.794 5.167 4.291 7.382.617 2.75-.498 4.653-3.812 5.574-5.395 1.5-12.08.197-14.782-3.55a4.897 4.897 0 0 1-.948-2.94l.009-.36.027-.403.044-.455.06-.518.173-1.323.049-.439c.462-4.602-.43-8.637-2.864-11.91l-.259-.34-.268-.342a27.07 27.07 0 0 0-.142-.175l-.304-.368-.727-.847-1.04-1.19-.495-.58c-1.652-1.97-2.473-3.308-2.97-5.024C-12.706 56.43-7.9 46.71.756 48.294l.264.051z" fill-opacity=".4" fill="#E7CEFB" fill-rule="nonzero" mask="url(#E)" transform="rotate(106 3.882 72.746)"/>
                <path d="M-10.364 65.024c.392 1.332.95 2.34 2.039 3.705l.383.469.425.501.471.54.988 1.113.498.582.31.381.195.25.097.127c1.89 2.503 2.632 5.58 2.346 9.111l-.05.527-.062.51-.086.634-.067.543c-.137 1.178-.117 1.777.102 2.556.15.53.396 1.033.755 1.524 2.506 3.418 8.507 4.568 13.362 3.24 3.187-.871 4.354-2.831 3.746-5.499-.455-1.996-1.886-4.298-3.815-6.502a18.072 18.072 0 0 0-.321-.356l-.36-.38-.49-.499-1.093-1.083-.522-.526c-2.079-2.134-3.018-3.588-3.217-5.374-.051-.46-.012-.946.112-1.477.024-.102.049-.202.077-.302l.09-.303.11-.317.133-.344.16-.384.192-.437.636-1.409.154-.358.067-.162.117-.297.097-.275a8 8 0 0 0 .085-.266l.077-.272c.67-2.522.63-4.978-.159-7.35-1.332-4.011-4.012-7.142-7.43-7.84-7.297-1.492-11.67 5.396-10.721 12.976l.077.542c.114.725.278 1.454.492 2.181zM-.362 50.06c3.108.636 5.612 3.56 6.869 7.342.74 2.23.778 4.537.145 6.921l-.035.127-.074.248-.086.252-.101.27-.123.3-.234.537-.546 1.204-.199.455c-.03.071-.06.14-.087.207l-.153.38a8.56 8.56 0 0 0-.363 1.17c-.142.608-.188 1.178-.127 1.729.232 2.075 1.31 3.68 3.677 6.07l1.45 1.44.4.407.18.188.327.355.15.17c1.855 2.118 3.228 4.326 3.65 6.174.518 2.277-.415 3.843-3.214 4.609-4.586 1.254-10.268.165-12.559-2.96a3.964 3.964 0 0 1-.638-1.284c-.16-.572-.195-1.047-.121-1.864l.046-.439.064-.508.112-.835.034-.293.015-.142c.396-3.88-.37-7.286-2.457-10.05l-.2-.26-.31-.386-.348-.416-.582-.666-.93-1.049-.446-.519-.401-.482c-1.136-1.395-1.69-2.367-2.068-3.649-2.354-7.992 1.711-16.099 9.035-14.8l.248.047z" fill-opacity=".4" fill="#E7CEFB" fill-rule="nonzero" mask="url(#E)" transform="rotate(110 2.09 70.497)"/>
                <path d="M53.316 8.326c-6.12.717-11.652 6.521-12.059 12.402-.214 3.105.805 5.282 3.436 8.582l1.253 1.548.254.322.118.152c1.806 2.332 2.477 3.988 2.112 5.968-.421 2.286-1.769 3.575-5.169 5.314l-.64.322-1.446.695c-4.488 2.15-6.475 3.704-7.395 6.658-1.366 4.386.94 10.196 4.948 14.675l.444.483c2.927 3.105 6.675 5.49 10.54 6.173 3.386.6 5.69-.01 9.416-1.995l1.05-.57.762-.408c3.453-1.81 5.549-2.358 8.656-1.912 4.228.607 7.258 2.855 10.82 7.246l.441.556 1.824 2.34 1.075 1.354.369.448c2.374 2.79 4.331 3.999 6.748 3.695 6.417-.805 11.975-12.325 9.431-20.036-1.022-3.099-3.219-5.436-7.179-7.885l-.805-.488-.67-.391-.526-.297-.748-.41-.82-.436-1.157-.597-.78-.395-2.472-1.227-2.301-1.126a79.137 79.137 0 0 0-6.668-2.899l-.91-.34-3.235-1.16-.828-.306-.26-.1c-1.88-.757-2.797-1.466-3.575-2.86a6.972 6.972 0 0 1-.784-2.149l-.031-.18-.052-.35c-.125-.984-.06-1.886.254-3.151l.122-.463.143-.497.165-.536.187-.58.325-.959.38-1.081c1.814-5.113 2.226-8.025.949-11.819-2.252-6.691-9.106-12.102-15.712-11.33zm15 11.57c1.173 3.482.84 6.192-.788 10.882l-.423 1.205-.242.7-.218.65-.194.599-.17.556-.148.517c-.431 1.579-.529 2.636-.375 3.827l.056.381.035.196c.15.817.435 1.606.866 2.378.872 1.56 1.924 2.374 3.95 3.19l.667.251 3.936 1.418a78.249 78.249 0 0 1 7.25 3.114l2.573 1.26 2.344 1.167 1.426.728 1.211.64.72.395.67.381.797.472.472.288c3.823 2.364 5.903 4.577 6.861 7.482 1.53 4.635-.059 10.773-2.934 14.824l-.325.441c-1.594 2.09-3.54 3.54-5.554 3.792-2.028.255-3.735-.748-5.854-3.172l-.322-.376-.37-.453-1.172-1.483-1.752-2.25c-3.805-4.78-7.024-7.246-11.606-7.904-3.412-.49-5.678.153-9.484 2.189l-1.059.575c-3.822 2.077-6.02 2.709-9.318 2.126-3.325-.588-6.57-2.507-9.238-5.057l-.465-.457c-4.358-4.395-7.016-10.448-5.643-14.856.763-2.451 2.374-3.875 5.918-5.672l.71-.352 1.48-.71.664-.327c.107-.053.212-.107.316-.16l.6-.313c3.19-1.702 4.533-3.098 4.984-5.542.397-2.153-.277-3.936-2.04-6.28l-.337-.438-.4-.504-.847-1.042c-2.72-3.355-3.743-5.426-3.539-8.393.382-5.52 5.636-11.033 11.398-11.708 6.119-.715 12.558 4.28 14.808 10.521l.106.303z" fill="#A36DFF" fill-rule="nonzero" mask="url(#E)"/>
                <path d="M-24.246 46.223c-7.85.916-14.952 8.346-15.473 15.863-.272 3.919.973 6.633 4.286 10.813l.588.731.748.918.488.611.452.581c.144.19.283.374.415.554l.38.528c1.814 2.585 2.325 4.323 1.902 6.607-.509 2.75-2.041 4.39-5.737 6.395l-.618.328-.658.336-.697.345-2.106 1.009-.747.367-.709.36c-.46.237-.895.47-1.306.702l-.6.346c-3.205 1.897-4.858 3.72-5.74 6.543-3.057 9.787 8.263 25.165 20.484 27.32 4.335.763 7.17.031 12.02-2.525l1.16-.623c5.36-2.916 8.082-3.773 12.49-3.142 5.52.79 9.464 3.724 14.109 9.455l.452.567 2.454 3.138 1.307 1.642.421.513.082.097c3.043 3.565 5.542 5.103 8.615 4.719 8.21-1.028 15.352-15.785 12.087-25.65-1.273-3.848-3.97-6.78-8.792-9.823l-.696-.431-.53-.32-.805-.474-.556-.317-.576-.323-.92-.5-.66-.35-1.075-.56-1.197-.608-1.364-.683-2.621-1.292-2.693-1.313c-3.127-1.521-5.9-2.706-8.728-3.776l-.982-.365L.1 93.1l-1.19-.435-.45-.172c-2.447-.981-3.652-1.91-4.67-3.727a9.063 9.063 0 0 1-1.023-2.8l-.064-.375a9.284 9.284 0 0 1-.063-2.562l.052-.391c.04-.266.09-.543.152-.833l.102-.448.057-.232.128-.485.07-.253.156-.53.085-.277.183-.58.312-.943.358-1.038.57-1.62.316-.92c1.918-5.716 2.26-9.248.742-13.747-2.893-8.568-11.698-15.498-20.17-14.51zm19.458 14.75c1.296 3.838 1.177 6.95-.187 11.523l-.261.848-.141.437-.303.902-.16.466-.582 1.647-.25.722-.334.999-.198.616-.092.294-.169.561-.077.27-.14.514-.122.487-.104.464-.086.442-.07.424c-.02.138-.036.274-.051.409l-.035.397a9.602 9.602 0 0 0 .015 1.532l.04.385.056.391.068.401a9.813 9.813 0 0 0 1.107 3.03c1.065 1.901 2.34 2.928 4.727 3.926l.442.18.534.2 1.87.677 3.412 1.222c2.82 1.045 5.55 2.185 8.6 3.641l3.287 1.599 3.11 1.534 1.438.723 1.27.65 1.13.595.824.446.955.534.724.418.353.209.525.316.35.214c4.956 3.055 7.658 5.922 8.904 9.688 1.564 4.726.62 10.652-1.675 15.518l-.282.579c-.096.19-.194.38-.294.567l-.307.556c-.052.092-.104.183-.157.273l-.324.536c-2.252 3.617-5.273 6.246-8.43 6.641-2.674.335-4.915-.985-7.689-4.158l-.342-.399-.417-.507-.68-.85-3.198-4.081c-4.896-6.132-9.033-9.291-14.914-10.134-4.354-.623-7.14.144-12.063 2.748l-1.174.631c-5.261 2.86-8.029 3.687-12.408 2.915-11.804-2.08-22.81-17.034-19.899-26.357.763-2.441 2.17-4.096 4.848-5.78l.553-.338c.57-.338 1.193-.68 1.873-1.031l.7-.355.74-.363 1.742-.833.73-.356.35-.175.671-.343c.326-.17.637-.337.935-.502l.577-.328c3.263-1.902 4.704-3.62 5.22-6.414.542-2.93-.291-5-3.035-8.537l-.489-.62-.527-.653-.49-.6c-3.642-4.468-4.977-7.12-4.707-11.018.496-7.157 7.32-14.296 14.812-15.17 7.976-.93 16.356 5.57 19.256 13.675l.115.33z" fill="#A24CFF" fill-rule="nonzero" mask="url(#E)" transform="rotate(-18 -6.386 93.754)"/>
                <path d="M-12.755 62.696c-5.65.66-10.753 6.008-11.128 11.429-.198 2.858.739 4.862 3.153 7.891l1.17 1.443.341.435c1.66 2.14 2.275 3.655 1.94 5.466-.378 2.048-1.652 3.277-4.6 4.795l-.635.318c-.11.054-.221.109-.335.163l-1.093.522-.727.354c-3.63 1.804-5.298 3.223-6.097 5.784-2.2 7.058 5.916 18.103 14.69 19.652 3.194.564 5.258-.003 8.888-1.945l1.271-.688c3.158-1.692 5.247-2.275 8.149-1.859 3.876.556 6.658 2.613 9.925 6.632l.377.472 2.088 2.67.81 1.01.158.19c2.19 2.57 4 3.685 6.236 3.405 5.93-.743 11.055-11.355 8.707-18.461-.91-2.758-2.831-4.861-6.25-7.033l-.533-.332-.649-.39-.84-.485-.917-.503-.819-.434-.92-.474-1.62-.814-1.98-.975-1.56-.761a72.964 72.964 0 0 0-6.08-2.643l-.953-.356-3.354-1.205-.57-.215C1.764 95.06.925 94.413.212 93.138a6.373 6.373 0 0 1-.718-1.97l-.057-.345c-.14-.966-.088-1.825.225-3.066l.121-.454c.022-.08.045-.16.07-.241l.154-.512.179-.555.202-.603.35-1.007.129-.365c1.672-4.707 2.052-7.39.873-10.887-2.077-6.165-8.4-11.15-14.495-10.437zM1.03 73.373c1.042 3.088.79 5.514-.58 9.563l-.66 1.889-.216.636-.193.587-.17.542a25.62 25.62 0 0 0-.148.503l-.126.467-.054.222-.094.423c-.237 1.162-.228 2.038-.032 3.1.14.756.403 1.485.801 2.199.806 1.442 1.78 2.194 3.652 2.946l.26.1 1.074.393 2.904 1.043a71.333 71.333 0 0 1 5.96 2.52l1.512.732 2.418 1.188 2.153 1.08 1.093.569.952.514.857.484.647.382.478.291c3.515 2.17 5.425 4.2 6.304 6.863 2.211 6.692-2.673 16.803-8.088 17.482-1.852.232-3.414-.682-5.355-2.897l-.289-.337-.502-.618-1.743-2.217-.802-1.03c-3.506-4.4-6.476-6.672-10.704-7.278-3.09-.443-5.323.179-8.61 1.94l-.893.485c-3.734 2.033-5.687 2.617-8.78 2.07-3.419-.603-6.745-2.737-9.341-5.5l-.426-.466c-3.49-3.93-5.506-8.977-4.338-12.723.722-2.312 2.27-3.626 5.736-5.347l1.152-.556.637-.304c3.85-1.853 5.508-3.24 5.984-5.817.366-1.985-.252-3.627-1.868-5.778l-.328-.426-.642-.8-.505-.62c-2.5-3.08-3.439-4.978-3.25-7.695.35-5.06 5.175-10.118 10.466-10.736 5.613-.656 11.524 3.92 13.595 9.64l.102.292z" fill="#A24CFF" fill-rule="nonzero" mask="url(#E)" transform="rotate(-18 -.007 96.753)"/>
                <path d="M58.81 19.066c-4.446.52-8.457 4.728-8.752 9.001-.155 2.248.575 3.826 2.452 6.19l.984 1.217.219.278c1.28 1.654 1.752 2.818 1.497 4.204-.298 1.615-1.263 2.525-3.729 3.778l-.573.284-.85.407c-3.247 1.555-4.692 2.686-5.365 4.844-1.732 5.562 4.633 14.234 11.522 15.452 2.3.407 3.856.067 6.285-1.162l.655-.34.5-.271c2.952-1.611 4.436-2.08 6.841-1.734 2.983.428 5.13 2.009 7.65 5.101l.376.472 1.721 2.201.458.57.163.197c1.725 2.026 3.158 2.912 4.937 2.689 4.681-.588 8.706-8.93 6.86-14.526-.713-2.161-2.21-3.811-4.863-5.506l-.636-.395-.45-.268-.309-.179-.483-.272-.703-.381-.798-.417-.922-.47-1.078-.536-2.348-1.152a56.98 56.98 0 0 0-4.692-2.046l-.815-.304-2.635-.949-.41-.155c-1.328-.534-1.968-1.029-2.514-2.006a4.9 4.9 0 0 1-.551-1.513l-.05-.304-.032-.297a5.088 5.088 0 0 1 .045-1.214l.06-.34.08-.363.102-.395.125-.431.147-.473.172-.52.304-.881.115-.323c1.31-3.692 1.608-5.803.681-8.556-1.632-4.848-6.596-8.768-11.393-8.206zm10.682 8.445c.798 2.37.615 4.236-.423 7.33l-.581 1.671-.188.556-.163.507-.074.238-.129.445c-.02.07-.038.14-.056.209l-.096.395c-.228 1.015-.231 1.743-.066 2.643.11.599.319 1.177.634 1.742.64 1.144 1.414 1.743 2.89 2.337l.418.159 2.89 1.041a55.466 55.466 0 0 1 4.58 1.937l.988.478 1.96.962 1.77.888.424.218.764.403.677.37.768.442.587.356c2.727 1.686 4.204 3.257 4.882 5.315 1.71 5.182-2.073 13.023-6.24 13.546-1.4.176-2.588-.513-4.069-2.195l-.277-.322-.294-.363-.375-.47-1.688-2.164c-2.747-3.45-5.079-5.236-8.402-5.714-2.508-.36-4.099.098-6.958 1.63l-.505.273c-2.897 1.58-4.405 2.031-6.794 1.608-6.472-1.143-12.525-9.391-10.937-14.49.529-1.697 1.64-2.699 4.076-3.947l.586-.293.855-.41c.322-.154.626-.303.911-.448l.548-.286c2.27-1.22 3.235-2.238 3.563-4.016.303-1.645-.243-2.992-1.642-4.8l-.349-.44-.633-.78c-1.938-2.39-2.663-3.857-2.518-5.953.27-3.913 4.004-7.83 8.091-8.309 4.324-.506 8.889 3.023 10.504 7.44l.091.261z" fill-opacity=".4" fill="#E8CEFB" fill-rule="nonzero" mask="url(#E)"/>
                <path d="M-15.228-12.453c-6.12.716-11.653 6.52-12.06 12.4-.213 3.106.806 5.283 3.437 8.584l1.253 1.548.372.473c1.806 2.332 2.477 3.988 2.112 5.969-.37 2.008-1.456 3.247-4.021 4.698l-.552.304c-.191.102-.39.206-.596.311l-.64.322-1.447.695c-4.487 2.15-6.475 3.704-7.394 6.658-2.384 7.655 6.418 19.65 15.931 21.332 3.504.62 5.85-.055 9.807-2.206l.66-.36c3.92-2.135 6.088-2.798 9.418-2.32 4.227.607 7.257 2.855 10.82 7.247l.386.485 1.582 2.032 1.372 1.732.292.357.077.091c2.373 2.79 4.331 3.999 6.747 3.696 6.418-.806 11.976-12.326 9.432-20.037-.988-2.995-3.074-5.28-6.789-7.64l-.55-.343-.646-.39-.689-.402-.729-.41-1-.54-1.138-.593-1.321-.67-2.6-1.287-1.996-.977a79.137 79.137 0 0 0-6.668-2.898l-.765-.287-3.38-1.215-.828-.305-.26-.1c-1.88-.756-2.797-1.465-3.575-2.86a6.972 6.972 0 0 1-.784-2.148c-.19-1.027-.2-1.892.027-3.043l.09-.42.054-.219.121-.462.143-.498.165-.536.29-.886.47-1.36.294-.833.298-.883c1.416-4.307 1.65-7.028.49-10.477-2.253-6.691-9.107-12.102-15.712-11.33zm15 11.568C.946 2.6.613 5.31-1.015 10l-.424 1.204-.354 1.031-.205.624-.182.577-.082.273-.148.517c-.454 1.662-.538 2.746-.35 4.016l.066.388c.15.817.435 1.606.866 2.378.828 1.483 1.82 2.291 3.653 3.067l.414.169.746.277 3.74 1.346c2.15.8 4.23 1.67 6.546 2.775l1.938.943 2.77 1.365 1.139.572 1.238.634.87.458.785.426.724.407.823.482.63.383c3.823 2.364 5.903 4.577 6.86 7.482 2.408 7.297-2.908 18.316-8.812 19.057-2.1.264-3.857-.82-6.083-3.437l-.326-.395-.776-.973-2.285-2.929c-3.805-4.78-7.025-7.245-11.606-7.904-3.412-.49-5.678.153-9.484 2.189l-1.06.575c-3.821 2.077-6.02 2.71-9.317 2.126-9.095-1.608-17.586-13.178-15.346-20.37.763-2.451 2.374-3.875 5.918-5.671l.71-.353 1.48-.71.664-.327.621-.317c3.403-1.775 4.814-3.18 5.278-5.697.413-2.24-.332-4.08-2.256-6.564l-.379-.482L-23 8.392C-25.72 5.038-26.744 2.966-26.54 0c.383-5.52 5.637-11.034 11.399-11.708 6.119-.716 12.558 4.28 14.808 10.52l.106.303z" fill="#A24CFF" fill-rule="nonzero" mask="url(#E)" transform="rotate(-107 -1.384 24.557)"/>
                <path d="M79.272 62.547c-6.12.716-11.653 6.52-12.06 12.4-.213 3.106.806 5.283 3.437 8.584l1.253 1.548.372.473c1.806 2.332 2.477 3.988 2.112 5.969-.37 2.008-1.456 3.247-4.021 4.698l-.552.304c-.191.102-.39.206-.596.311l-.64.322-1.447.695c-4.487 2.15-6.475 3.704-7.394 6.658-2.384 7.655 6.418 19.65 15.931 21.332 3.504.62 5.85-.055 9.807-2.206l.66-.36c3.92-2.135 6.088-2.798 9.418-2.32 4.227.607 7.257 2.855 10.82 7.247l.386.485 1.582 2.032 1.372 1.732.292.357.077.091c2.373 2.79 4.331 3.999 6.747 3.696 6.418-.806 11.976-12.326 9.432-20.037-.988-2.995-3.074-5.28-6.789-7.64l-.55-.343-.646-.39-.689-.402-.729-.41-1-.54-1.138-.593-1.321-.67-2.6-1.287-1.996-.977a79.137 79.137 0 0 0-6.668-2.898l-.765-.287-3.38-1.215-.828-.305-.26-.1c-1.88-.756-2.797-1.465-3.575-2.86a6.972 6.972 0 0 1-.784-2.148c-.19-1.027-.2-1.892.027-3.043l.09-.42.054-.219.121-.462.143-.498.165-.536.29-.886.47-1.36.294-.833.298-.883c1.416-4.307 1.65-7.028.49-10.477-2.253-6.691-9.107-12.102-15.712-11.33zm15 11.568c1.173 3.484.84 6.194-.788 10.884l-.424 1.204-.354 1.031-.205.624-.182.577a31.54 31.54 0 0 0-.082.273l-.148.517c-.454 1.662-.538 2.746-.35 4.016l.066.388c.15.817.435 1.606.866 2.378.828 1.483 1.82 2.291 3.653 3.067l.414.169.746.277 3.74 1.346c2.15.8 4.23 1.67 6.546 2.775l1.938.943 2.77 1.365 1.139.572 1.238.634.87.458.785.426.724.407.823.482.63.383c3.823 2.364 5.903 4.577 6.86 7.482 2.408 7.297-2.908 18.316-8.812 19.057-2.1.264-3.857-.82-6.083-3.437l-.326-.395-.776-.973-2.285-2.929c-3.805-4.78-7.025-7.245-11.606-7.904-3.412-.49-5.678.153-9.484 2.189l-1.06.575c-3.821 2.077-6.02 2.71-9.317 2.126-9.095-1.608-17.586-13.178-15.346-20.37.763-2.451 2.374-3.875 5.918-5.671l.71-.353 1.48-.71.664-.327.621-.317c3.403-1.775 4.814-3.18 5.278-5.697.413-2.24-.332-4.08-2.256-6.564l-.379-.482-.988-1.219c-2.72-3.354-3.744-5.426-3.54-8.392.383-5.52 5.637-11.034 11.399-11.708 6.119-.716 12.558 4.28 14.808 10.52l.106.303z" fill="#A24CFF" fill-rule="nonzero" mask="url(#E)" transform="rotate(-51 93.116 99.557)"/>
                <path d="M87.522 65.547c-6.12.716-11.653 6.52-12.06 12.4-.213 3.106.806 5.283 3.437 8.584l1.253 1.548.372.473c1.806 2.332 2.477 3.988 2.112 5.969-.37 2.008-1.456 3.247-4.021 4.698l-.552.304c-.191.102-.39.206-.596.311l-.64.322-1.447.695c-4.487 2.15-6.475 3.704-7.394 6.658-2.384 7.655 6.418 19.65 15.931 21.332 3.504.62 5.85-.055 9.807-2.206l.66-.36c3.92-2.135 6.088-2.798 9.418-2.32 4.227.607 7.257 2.855 10.82 7.247l.386.485 1.582 2.032 1.372 1.732.292.357.077.091c2.373 2.79 4.331 3.999 6.747 3.696 6.418-.806 11.976-12.326 9.432-20.037-.988-2.995-3.074-5.28-6.789-7.64l-.55-.343-.646-.39-.689-.402-.729-.41-1-.54-1.138-.593-1.321-.67-2.6-1.287-1.996-.977a79.137 79.137 0 0 0-6.668-2.898l-.765-.287-3.38-1.215-.828-.305-.26-.1c-1.88-.756-2.797-1.465-3.575-2.86a6.972 6.972 0 0 1-.784-2.148c-.19-1.027-.2-1.892.027-3.043l.09-.42.054-.219.121-.462.143-.498.165-.536.29-.886.47-1.36.294-.833.298-.883c1.416-4.307 1.65-7.028.49-10.477-2.253-6.691-9.107-12.102-15.712-11.33zm15 11.568c1.173 3.484.84 6.194-.788 10.884l-.424 1.204-.354 1.031-.205.624-.182.577-.082.273-.148.517c-.454 1.662-.538 2.746-.35 4.016l.066.388c.15.817.435 1.606.866 2.378.828 1.483 1.82 2.291 3.653 3.067l.414.169.746.277 3.74 1.346c2.15.8 4.23 1.67 6.546 2.775l1.938.943 2.77 1.365 1.139.572 1.238.634.87.458.785.426.724.407.823.482.63.383c3.823 2.364 5.903 4.577 6.86 7.482 2.408 7.297-2.908 18.316-8.812 19.057-2.1.264-3.857-.82-6.083-3.437l-.326-.395-.776-.973-2.285-2.929c-3.805-4.78-7.025-7.245-11.606-7.904-3.412-.49-5.678.153-9.484 2.189l-1.06.575c-3.821 2.077-6.02 2.71-9.317 2.126-9.095-1.608-17.586-13.178-15.346-20.37.763-2.451 2.374-3.875 5.918-5.671l.71-.353 1.48-.71.664-.327.621-.317c3.403-1.775 4.814-3.18 5.278-5.697.413-2.24-.332-4.08-2.256-6.564l-.379-.482-.988-1.219c-2.72-3.354-3.744-5.426-3.54-8.392.383-5.52 5.637-11.034 11.399-11.708 6.119-.716 12.558 4.28 14.808 10.52l.106.303z" fill="#A24CFF" fill-rule="nonzero" mask="url(#E)" transform="rotate(-51 101.366 102.557)"/>
                <path d="M-8.068-1.35c-4.446.52-8.457 4.728-8.752 9-.155 2.249.575 3.826 2.452 6.19l.984 1.217.219.279c1.28 1.654 1.753 2.818 1.497 4.204-.253 1.375-.991 2.24-2.729 3.24l-.476.264c-.167.09-.341.18-.524.273l-.573.285-.85.407c-.223.107-.439.212-.646.316l-.597.307c-2.388 1.263-3.542 2.36-4.122 4.22-1.732 5.562 4.633 14.235 11.522 15.453 2.4.424 3.99.036 6.607-1.328l.832-.446c2.953-1.61 4.437-2.079 6.843-1.734 2.982.429 5.13 2.01 7.65 5.102l.635.806 1.329 1.7.49.614.263.32c1.725 2.026 3.159 2.911 4.937 2.688 4.682-.588 8.706-8.93 6.86-14.525-.713-2.162-2.21-3.811-4.863-5.506l-.635-.395-.76-.447-.651-.365-.535-.289-.588-.308-1.386-.705-2.434-1.201-.738-.36a56.98 56.98 0 0 0-4.692-2.046l-.676-.254-2.583-.929-.6-.225c-1.329-.535-1.97-1.03-2.515-2.007a4.9 4.9 0 0 1-.55-1.513c-.163-.878-.139-1.593.15-2.71l.114-.413.136-.451.16-.496.285-.84.222-.63c1.31-3.692 1.608-5.804.681-8.556C1.694 2.007-3.27-1.912-8.068-1.351zM2.614 7.094c.767 2.278.628 4.091-.307 6.977l-.239.714-.458 1.31-.272.815-.152.485-.13.445-.107.41C.677 19.37.663 20.134.84 21.089c.11.6.318 1.178.633 1.743.64 1.144 1.414 1.743 2.89 2.337l.418.158 2.89 1.042a56.084 56.084 0 0 1 5.194 2.232l2.618 1.285 1.138.57.648.331.853.448.505.275.47.263.445.258.433.26.215.132c2.726 1.685 4.203 3.257 4.881 5.315 1.71 5.181-2.073 13.023-6.24 13.546-1.4.175-2.588-.513-4.069-2.195l-.277-.323-.294-.362-.65-.82-1.413-1.814c-2.747-3.451-5.079-5.237-8.402-5.714-2.408-.346-3.97.063-6.621 1.45l-.842.453c-2.897 1.58-4.405 2.03-6.794 1.608-6.472-1.144-12.524-9.391-10.937-14.49.529-1.697 1.64-2.7 4.076-3.948l.586-.292.855-.41c.215-.103.421-.203.62-.302l.571-.29c2.462-1.286 3.49-2.312 3.83-4.158.29-1.568-.192-2.864-1.447-4.544l-.303-.395-.873-1.082c-1.938-2.39-2.663-3.857-2.518-5.953.27-3.912 4.004-7.83 8.091-8.308 4.324-.506 8.889 3.022 10.504 7.44l.091.261z" fill="#A36DFF" fill-rule="nonzero" mask="url(#E)" transform="rotate(-107 1.884 25.328)"/>
            </g>
            <path d="M2220.75 717.15h-35.25c0-9.941 7.891-18 17.625-18s17.625 8.059 17.625 18z" fill="#2B2B2B" fill-rule="nonzero"/>
        </g>
        <g opacity=".716" fill-rule="nonzero">
            <g transform="matrix(-1 0 0 1 2208 195)">
                <use fill="url(#s)" xlink:href="#G"/>
                <use fill="url(#t)" xlink:href="#G"/>
                <use fill="url(#u)" xlink:href="#G"/>
                <use fill="url(#v)" xlink:href="#G"/>
                <use fill="url(#w)" xlink:href="#G"/>
            </g>
            <g transform="translate(2022 195)">
                <use fill="url(#s)" xlink:href="#H"/>
                <use fill="url(#t)" xlink:href="#H"/>
                <use fill="url(#u)" xlink:href="#H"/>
                <use fill="url(#v)" xlink:href="#H"/>
                <use fill="url(#w)" xlink:href="#H"/>
            </g>
        </g>
        <g opacity=".792">
            <g fill-rule="nonzero" transform="translate(1572 47.75)">
                <use fill="url(#J)" xlink:href="#I"/>
                <use fill-opacity=".5" fill="url(#K)" xlink:href="#I"/>
            </g>
        </g>
    </g>
</svg>
