<?xml version="1.0" encoding="UTF-8"?>
<svg width="320px" height="709px" viewBox="0 0 320 709" version="1.1" xmlns="http://www.w3.org/2000/svg" xmlns:xlink="http://www.w3.org/1999/xlink">
    <title>Group 5</title>
    <defs>
        <rect id="path-1" x="0" y="0" width="320" height="709"></rect>
        <linearGradient x1="50%" y1="-9.70661041%" x2="50%" y2="100%" id="linearGradient-3">
            <stop stop-color="#6F27E5" offset="0%"></stop>
            <stop stop-color="#4F50F4" offset="100%"></stop>
        </linearGradient>
        <linearGradient x1="44.992278%" y1="48.0729609%" x2="50%" y2="51.336858%" id="linearGradient-4">
            <stop stop-color="#2164ED" offset="0%"></stop>
            <stop stop-color="#6729F3" offset="100%"></stop>
        </linearGradient>
        <linearGradient x1="50%" y1="0%" x2="50%" y2="100%" id="linearGradient-5">
            <stop stop-color="#6A1BFA" offset="0%"></stop>
            <stop stop-color="#ADDBFF" offset="100%"></stop>
        </linearGradient>
        <linearGradient x1="6.80400699%" y1="30.3166759%" x2="111.664451%" y2="30.3166759%" id="linearGradient-6">
            <stop stop-color="#8014F5" offset="0%"></stop>
            <stop stop-color="#5D4BFF" stop-opacity="0.772863855" offset="100%"></stop>
        </linearGradient>
        <polygon id="path-7" points="1242.79675 125.183058 2.2076505e-12 124.257444 1.84774849e-12 2.93436411e-13 1141.37007 2.93436411e-13 1242.79675 43.0780471"></polygon>
        <linearGradient x1="90.9878645%" y1="9.68346522%" x2="-19.3930138%" y2="109.223621%" id="linearGradient-9">
            <stop stop-color="#863AFD" offset="0%"></stop>
            <stop stop-color="#541BFA" offset="100%"></stop>
        </linearGradient>
        <polygon id="path-10" points="31.6184011 28.3920337 0 28.1928076 18.5362064 0 23.8276197 0"></polygon>
        <linearGradient x1="131.354172%" y1="50%" x2="0%" y2="50%" id="linearGradient-12">
            <stop stop-color="#4C90FF" offset="0%"></stop>
            <stop stop-color="#5121E0" offset="100%"></stop>
        </linearGradient>
        <polygon id="path-13" points="272.742321 17.745021 272.742321 13.2407423 0 13.2407423 28.0600048 0.322636746 322.492866 0.322636746 329.734755 13.2407423 329.526388 17.745021"></polygon>
        <linearGradient x1="76.4944238%" y1="31.3171673%" x2="0%" y2="50%" id="linearGradient-15">
            <stop stop-color="#262933" offset="0%"></stop>
            <stop stop-color="#222941" offset="100%"></stop>
        </linearGradient>
        <filter x="-75.3%" y="-84.3%" width="250.7%" height="268.5%" filterUnits="objectBoundingBox" id="filter-16">
            <feGaussianBlur stdDeviation="32.2636746" in="SourceGraphic"></feGaussianBlur>
        </filter>
        <polygon id="path-17" points="0 0 8.3885554 0 8.3885554 5.80746143 0 5.80746143"></polygon>
        <radialGradient cx="64.6806555%" cy="37.1307943%" fx="64.6806555%" fy="37.1307943%" r="86.9683431%" id="radialGradient-19">
            <stop stop-color="#F5CC93" offset="0%"></stop>
            <stop stop-color="#EABC9C" offset="18.1285722%"></stop>
            <stop stop-color="#8A2EEF" offset="100%"></stop>
        </radialGradient>
        <linearGradient x1="55.0511395%" y1="25.0467905%" x2="94.2714063%" y2="73.7596761%" id="linearGradient-20">
            <stop stop-color="#9C66FF" stop-opacity="0" offset="0%"></stop>
            <stop stop-color="#FFA14B" stop-opacity="0.5" offset="100%"></stop>
        </linearGradient>
        <linearGradient x1="39.1774966%" y1="41.3037457%" x2="69.4398494%" y2="0%" id="linearGradient-21">
            <stop stop-color="#8E47FF" stop-opacity="0" offset="0%"></stop>
            <stop stop-color="#FFAA43" stop-opacity="0.5" offset="100%"></stop>
        </linearGradient>
        <linearGradient x1="54.0397101%" y1="23.930675%" x2="11.1940811%" y2="80.4547586%" id="linearGradient-22">
            <stop stop-color="#8D35FF" stop-opacity="0" offset="0%"></stop>
            <stop stop-color="#8517FF" stop-opacity="0.5" offset="100%"></stop>
        </linearGradient>
        <linearGradient x1="34.1751833%" y1="3.170816%" x2="59.3382209%" y2="58.8638957%" id="linearGradient-23">
            <stop stop-color="#82FCFD" stop-opacity="0.490084135" offset="0%"></stop>
            <stop stop-color="#A538FF" stop-opacity="0" offset="100%"></stop>
        </linearGradient>
        <circle id="path-24" cx="81" cy="81" r="81"></circle>
        <circle id="path-26" cx="81" cy="81" r="81"></circle>
    </defs>
    <g id="Page-1" stroke="none" stroke-width="1" fill="none" fill-rule="evenodd">
        <g id="Group-5">
            <mask id="mask-2" fill="white">
                <use xlink:href="#path-1"></use>
            </mask>
            <g id="Mask"></g>
            <g mask="url(#mask-2)">
                <g transform="translate(-762.000000, 0.000000)">
                    <g id="Group-35">
                        <g id="Header-visual-1-Copy">
                            <path d="M814.335147,171.665176 L814.335147,189.710407 C797.491233,177.814436 787.415334,163.720648 785.579158,148.659821 C785.032513,144.052023 785.2838,139.384144 786.321932,134.86216 C789.422209,148.331305 799.110574,160.898189 814.335147,171.665176 Z" id="Path" fill="url(#linearGradient-3)" fill-rule="nonzero" opacity="0.784505208"></path>
                            <path d="M1242.99033,0.129054698 L1224.25035,36.8091549 L1224.14838,36.8091549 C1171.55777,23.1492998 1114.07244,21.7656708 1060.86072,23.5068147 C1007.41725,25.2572448 950.817233,33.1690032 898.954354,50.4040072 C895.672656,51.490481 892.411043,52.6187424 889.169517,53.7887911 C878.332497,57.6827629 867.755047,62.0162769 857.437166,66.789333 C828.699133,80.1288175 792.781226,105.670239 786.278088,134.624303 C785.235082,139.161991 784.982614,143.846081 785.531826,148.46988 C787.385892,163.58301 797.499826,177.721099 814.422819,189.663026 L814.422819,189.839461 L749.905935,181.765196 L749.905935,141.807102 C746.43883,133.825698 739.245052,129.108359 732.491614,129.906964 C730.511184,130.156648 728.611124,130.845005 726.929414,131.922048 C725.731283,132.678407 724.631991,133.581484 723.656986,134.610374 L723.656986,178.463987 L82.7885891,99.4114069 L82.7885891,0.129054698 L1242.99033,0.129054698 Z" id="Path" fill="url(#linearGradient-4)" fill-rule="nonzero" opacity="0.445789426"></path>
                            <path d="M1222.79327,36.7973964 L1223.9819,37.0152662 L1223.9819,584.295147 L82.595007,584.295147 L82.595007,99.2982403 L723.738568,178.222765 L723.738568,134.440189 C724.713044,133.412966 725.81174,132.511352 727.009222,131.756218 C728.69002,130.68092 730.589051,129.993678 732.568408,129.744398 C739.322818,128.947087 746.508066,133.656785 749.973292,141.62526 L749.973292,181.518627 L814.455214,189.570541 L814.455214,171.306555 C799.167453,160.519678 789.401816,147.92958 786.325734,134.444825 C792.81145,105.537663 828.742321,80.0376153 857.44625,66.7197391 C867.73692,61.9451438 878.308639,57.6186496 889.161405,53.7402566 C892.401174,52.5721032 895.661019,51.4456695 898.940939,50.3609556 C950.775713,33.1538702 1007.34506,25.254928 1060.75957,23.5073334 C1113.95635,21.7643743 1171.41053,23.1457621 1223.9819,36.7973964 L1222.79327,36.7973964 Z" id="Path" fill="url(#linearGradient-5)" fill-rule="nonzero" opacity="0.32"></path>
                            <g id="Path-Copy-3" transform="translate(82.595007, 584.101565)">
                                <mask id="mask-8" fill="white">
                                    <use xlink:href="#path-7"></use>
                                </mask>
                                <use id="Mask" fill="url(#linearGradient-6)" fill-rule="nonzero" opacity="0.516143714" xlink:href="#path-7"></use>
                            </g>
                            <g id="Path-Copy" transform="translate(830.401890, 642.692398)">
                                <mask id="mask-11" fill="white">
                                    <use xlink:href="#path-10"></use>
                                </mask>
                                <use id="Mask" fill="url(#linearGradient-9)" fill-rule="nonzero" xlink:href="#path-10"></use>
                            </g>
                            <polygon id="Rectangle" fill="#2B2B2A" fill-rule="nonzero" points="818.786967 638.175484 1148.52172 638.175484 1148.52172 642.692398 818.786967 642.692398"></polygon>
                            <polygon id="Path" fill="url(#linearGradient-12)" fill-rule="nonzero" points="872.989941 662.179574 872.764539 662.359797 862.152265 671.084432 862.069464 671.052084 861.991263 671.010494 854.277009 642.692398 857.073829 642.692398"></polygon>
                            <g id="Path-Copy-5" transform="translate(818.786967, 624.947377)">
                                <mask id="mask-14" fill="white">
                                    <use xlink:href="#path-13"></use>
                                </mask>
                                <use id="Mask" fill="#2B2B2A" fill-rule="nonzero" opacity="0.65" xlink:href="#path-13"></use>
                                <path d="M146.42784,-52.8520805 C156.527091,-44.3087867 162.441068,-30.0396683 164.169768,-13.9528278 C165.807485,2.04312657 163.259926,19.7659169 153.160674,32.6717438 C143.061423,45.4866845 125.319494,53.5755478 109.943156,51.2125091 C94.6578024,48.7585842 81.7380391,35.9436435 66.9985908,23.0378167 C52.1681583,10.1319899 35.609025,-2.77383696 36.1549305,-15.1343472 C36.700836,-27.4948574 54.3517802,-39.3100509 69.1822128,-47.8533448 C83.921661,-56.3966386 95.7496134,-61.6680326 108.851345,-62.9404381 C121.953077,-64.2128436 136.237604,-61.4862604 146.42784,-52.8520805 Z" fill="url(#linearGradient-15)" fill-rule="nonzero" filter="url(#filter-16)" mask="url(#mask-14)" transform="translate(100.384777, -5.807461) rotate(65.000000) translate(-100.384777, 5.807461) "></path>
                            </g>
                            <g id="Group-18" transform="translate(852.341725, 449.274812)">
                                <g id="figure2" transform="translate(0.000000, 51.122427)">
                                    <rect id="Rectangle" fill="#231F20" fill-rule="nonzero" x="45.7822894" y="31.4062178" width="1" height="1"></rect>
                                    <path d="M45.9448984,31.4062178 C45.4965558,30.998271 45.0730162,30.5638715 44.6765488,30.1053465 C44.2120771,29.5562349 43.6958549,29.0530816 43.1350162,28.60284 C42.4013164,27.9904641 41.4878411,27.6342088 40.5332735,27.5881604 C41.0347048,28.1836986 41.4207197,28.8674965 41.6715359,29.604511 C42.7844162,33.1372763 40.8254645,36.9038194 37.2941038,38.0211487 C36.8351021,38.1822364 36.3594781,38.2913245 35.876154,38.3463665 C35.7735213,38.2815106 35.6670925,38.2228662 35.5574405,38.1707489 C34.3281171,37.5983655 32.6369843,38.6715844 32.3507926,40.0830298 C32.1166366,41.2468643 32.6999946,42.4216081 33.7687424,42.9384424 C33.6971945,43.2571559 33.6321509,43.5888781 33.5866204,43.8880785 C33.176846,46.6979607 31.8759746,53.7747009 31.8759746,53.7747009 C32.2109541,54.6950477 32.6611702,55.5692538 33.2158721,56.3764436 C32.3377839,58.0740807 30.6791729,60.831928 28.4221611,62.6076174 C25.4756875,64.9231684 20.2722021,65.645152 18.8022174,65.8077609 C18.5485475,65.8077609 18.4054517,65.8467871 18.4054517,65.8467871 C16.769956,65.474677 15.2316321,64.7609302 13.891428,63.7523842 C10.8343803,61.7035118 8.6879426,57.9830197 9.11723015,54.2430145 C9.52700462,50.7046444 11.9856515,47.6410924 14.8345598,45.7288115 C18.7727545,43.1880486 23.1015859,41.3114892 27.6481427,40.1740908 C27.601266,39.7268105 27.5773852,39.2774183 27.5765948,38.8276889 C27.5765948,33.578673 30.8287732,29.3248236 34.9005005,29.3248236 C34.9220016,29.2517132 34.9480702,29.1800243 34.9785528,29.1101799 C35.2811309,28.4095987 35.6771564,27.7532028 36.1558414,27.1588728 C36.961963,26.1182589 38.0370098,25.3175964 39.2649239,24.8433218 C42.6341807,23.6139984 45.9058722,26.3002977 45.9253853,29.7476068 L45.9448984,31.4062178 Z" id="Path" fill="#2B2B2A" fill-rule="nonzero"></path>
                                    <g id="Group-3" transform="translate(27.100951, 28.727025)">
                                        <mask id="mask-18" fill="white">
                                            <use xlink:href="#path-17"></use>
                                        </mask>
                                        <g id="Clip-2"></g>
                                        <path d="M0.324830674,5.80746143 C0.311868823,5.80746143 0.300203157,5.80681896 0.287241305,5.80553402 C0.109663941,5.78561741 -0.0180102949,5.62628458 0.00208057473,5.44960503 C0.284648935,3.00500248 1.84979249,0.970938964 3.99044225,0.268075577 C5.79213959,-0.321070425 7.40070535,0.192906458 8.1985073,0.552047804 C8.36117854,0.625931981 8.43376491,0.815460957 8.35923426,0.977363675 C8.28535171,1.13990886 8.09481249,1.21058069 7.93019698,1.13669651 C7.35663506,0.878423125 5.84204272,0.336819985 4.19459141,0.877780654 C2.29243972,1.50226257 0.899688784,3.32559556 0.646284589,5.52284673 C0.627489904,5.68667686 0.486853817,5.80746143 0.324830674,5.80746143" id="Fill-1" fill="#2B2B2A" mask="url(#mask-18)"></path>
                                    </g>
                                    <path d="M38.9852366,59.1472996 C38.1597151,59.1459714 37.3355354,59.0807329 36.5200854,58.9521689 C35.219214,58.7505338 34.0939603,57.9049674 33.0662719,56.4349828 L33.0077327,56.3569305 L33.0532632,56.2723739 C33.5150725,55.4007901 33.7557337,54.8023892 33.7687424,54.7828762 C33.7817511,54.7633631 33.8532991,54.5031888 33.9898906,54.0739013 L34.0289167,53.9503185 L34.1524995,53.9503185 C36.1009373,54.0797473 38.0533855,53.7661992 39.8633248,53.0332042 C42.2958056,52.0328793 44.3747219,50.329889 45.8343243,48.1419279 L46.1140116,47.725649 L46.1140116,48.2264845 C46.1595421,49.4167818 46.2375944,50.7631837 46.3416641,52.2396727 C46.4652469,53.9243011 45.7432633,55.2967204 45.099332,56.5065307 C44.8481661,56.9693861 44.6307877,57.4497923 44.4488963,57.9439936 L44.4488963,58.0090371 L44.3903571,58.0090371 C42.6925689,58.7761068 40.848187,59.1645146 38.9852366,59.1472996 Z M33.3914897,56.3309131 C34.0963469,57.4972919 35.2439603,58.3280795 36.5721202,58.6334554 C39.1282094,59.0928679 41.7629239,58.7920808 44.1496959,57.7683759 C44.3385805,57.283408 44.5557659,56.809944 44.8001316,56.3504262 C45.4505672,55.1796419 46.1010029,53.8592575 46.0034376,52.2656901 C45.9123766,50.9648187 45.8408287,49.7940345 45.7952982,48.72732 C44.3180248,50.7889774 42.28897,52.3919307 39.941377,53.3519177 C38.1290035,54.0859669 36.17616,54.4081083 34.2240474,54.2950494 L34.0354211,54.8869459 C34.0549341,54.925972 33.8272816,55.4853467 33.3914897,56.3309131 Z" id="Shape" fill="#231F20" fill-rule="nonzero"></path>
                                    <path d="M50.3483479,39.0358283 C50.3873741,40.8115178 49.6653905,42.8733989 48.1303622,43.8685654 C47.4696545,44.2849202 46.7217476,44.5431262 45.9448984,44.6230708 C45.8993679,45.3125327 45.8993679,46.5353517 45.9448984,48.2394932 C44.4735174,50.464449 42.3654024,52.19401 39.8958465,53.2023175 C38.0652042,53.9431146 36.0903453,54.2589141 34.1199777,54.1259361 C33.3630315,54.0757194 32.6120629,53.9581765 31.8759746,53.7747009 C31.8759746,53.7747009 33.176846,46.6979607 33.5996291,43.9075916 C33.6451596,43.5888781 33.7102032,43.2571559 33.7817511,42.9579555 C32.7065686,42.4288263 32.131859,41.2337526 32.3898188,40.0635167 C32.6760105,38.6520713 34.3411258,37.5788524 35.5964667,38.1512358 C35.7061187,38.2033531 35.8125474,38.2619975 35.9151802,38.3268535 C36.3985042,38.2718114 36.8741283,38.1627233 37.33313,38.0016356 C40.8592686,36.8787847 42.8115094,33.1139567 41.6975534,29.5849979 C41.4467372,28.8479834 41.0607222,28.1641855 40.5592909,27.5686473 C41.5138585,27.6146957 42.4273338,27.9709511 43.1610336,28.583327 C43.7218723,29.0335686 44.2380945,29.5367218 44.7025662,30.0858334 C45.0990336,30.5443585 45.5225732,30.978758 45.9709158,31.3867047 L46.0684811,31.4712614 C46.245714,31.6229332 46.4349612,31.7599744 46.6343602,31.8810359 C47.9352315,32.7070892 48.4555801,32.7981502 49.437738,33.4225684 C49.5676058,33.5126031 49.6118899,33.6842038 49.5418077,33.8258385 C49.4442423,34.0209693 49.3336683,34.2095956 49.2165898,34.3982219 L48.9694243,34.8079964 C48.9303981,34.8795443 48.7612849,35.0811794 48.8263284,35.165736 C49.3092034,35.7427863 49.7017611,36.389739 49.9906083,37.0845213 C50.2146136,37.7113258 50.3354301,38.3703245 50.3483479,39.0358283 L50.3483479,39.0358283 Z" id="Path" fill="#FFC55A" fill-rule="nonzero"></path>
                                    <path d="M67.649937,39.3610462 C67.649937,39.3610462 77.5885942,36.4340856 81.6538172,34.4437524 C86.206867,32.2062537 100.119686,18.1178169 100.158712,18.0787907 C102.571829,15.6331526 103.606021,12.4915482 104.510127,9.2588829 C104.997954,7.52221964 105.264632,5.49936467 106.240286,3.8992929 C107.346027,2.10409042 109.915248,1.23250661 111.09904,3.60659684 C111.57848,4.69938606 111.843458,5.87412524 111.879563,7.06691466 C114.045514,5.11560762 117.167605,1.53170702 119.892931,0.386940227 C121.401942,-0.263495454 122.9825,-0.0878778199 123.873597,0.86826263 C124.37139,1.48565573 124.615568,2.26935207 124.556555,3.06023087 C124.524033,4.88145078 122.865422,6.5335574 121.343402,8.08809868 C119.821383,9.64263996 118.23432,10.7809024 118.416442,11.0801028 C118.520512,11.2492161 119.066878,10.9174939 119.782357,11.1516507 C120.26448,11.3342394 120.674998,11.6672153 120.953141,12.1012868 C121.798707,13.4476887 121.031193,16.4396928 121.252341,15.5485959 C121.304376,15.3534652 122.858918,15.0542648 123.938641,15.7892571 C127.919307,18.5080783 122.878431,24.335982 120.888097,26.6450286 C111.372223,37.6504003 101.589671,47.0557003 88.977723,54.451154 C85.3547962,56.5715743 80.2879023,59.7977353 73.8681021,63.2320356 L67.649937,39.3610462 Z" id="Path" fill="#8248E5" fill-rule="nonzero"></path>
                                    <path d="M30.132807,92.1829278 L21.5795778,119.81994 L21.4690037,120.190688 C23.6674763,120.281749 26.0220535,120.26874 28.0514128,121.276916 C28.9160313,121.711051 29.6924009,122.302151 30.3409464,123.020083 C31.5927873,124.414978 32.1725354,126.28728 31.9280095,128.145517 C31.7979459,129.66379 31.4654454,131.157855 30.9393472,132.587992 C30.4320074,134.038464 29.8010848,135.443405 29.1831709,136.85485 C28.4798662,138.726922 27.5562565,140.508637 26.431828,142.162405 C25.9851299,142.736997 25.3105521,143.088824 24.5837157,143.126289 C23.8568793,143.163755 23.1497022,142.883153 22.6462923,142.357536 C21.6771431,141.290822 22.2235091,139.456593 21.9958566,139.417567 C21.7682041,139.378541 21.7031606,140.419238 21.4885168,140.991621 C21.1047597,141.973779 20.6429504,143.046998 19.5762359,143.411242 C18.4914991,143.773203 17.2953958,143.456287 16.5321969,142.604702 C16.1514413,142.082264 15.9526449,141.449315 15.9663179,140.802995 C16.0222217,140.245017 16.0222217,139.682849 15.9663179,139.124871 C15.8427351,138.975271 15.6280913,140.289151 14.7304901,141.590022 C14.3318591,142.313593 13.7117987,142.89034 12.961305,143.235624 C10.8473891,144.029156 9.37740442,142.533154 9.18877807,140.549325 C8.90258637,137.498782 9.9367791,133.979925 11.19212,131.228582 C10.7628324,131.267608 5.66341668,131.592826 2.2876555,127.430037 C-1.08810568,123.267249 0.232278754,118.441016 0.36236589,118.011729 C1.72394458,112.595768 3.21777853,107.043215 4.84386773,101.354071 C6.73446744,94.7586531 8.68577448,88.412569 10.6977888,82.3158185 L30.132807,92.1829278 Z" id="Path" fill="#8248E5" fill-rule="nonzero"></path>
                                    <path d="M46.2766206,39.686264 C45.441499,39.6776096 44.6952143,39.1629304 44.3903571,38.3853927 C44.3274897,38.2184198 44.4079536,38.0316285 44.5724791,37.9626095 C44.6526879,37.9306148 44.7423283,37.9318338 44.8216374,37.9659977 C44.9009465,38.0001617 44.963412,38.0644652 44.9952623,38.1447315 C45.2162377,38.7097352 45.7749231,39.0690775 46.3806903,39.0358283 C46.9361884,38.9865856 47.4066559,38.6060982 47.5709876,38.0731835 C47.6081681,37.9569944 47.7045105,37.8694668 47.8237235,37.8435715 C47.9429365,37.8176762 48.0669089,37.8573473 48.1489413,37.9476412 C48.2309738,38.037935 48.2586038,38.1651338 48.2214232,38.281323 C47.9730121,39.0744127 47.2620877,39.6328115 46.4327251,39.686264 L46.2766206,39.686264 Z" id="Path" fill="#231F20" fill-rule="nonzero"></path>
                                    <path d="M42.8423202,34.1965869 C42.7995068,34.206345 42.7550464,34.206345 42.712233,34.1965869 C42.632692,34.1623061 42.5701115,34.0977124 42.5383654,34.0171262 C42.5066193,33.93654 42.5083306,33.8466194 42.5431198,33.7672993 C42.6914873,33.4195313 42.9466121,33.1279601 43.2716077,32.9347417 C43.512236,32.7976399 43.7819727,32.7196169 44.0586349,32.7070892 C44.2382477,32.7070892 44.3838527,32.8526942 44.3838527,33.032307 C44.3838527,33.2119199 44.2382477,33.3575249 44.0586349,33.3575249 C43.8847744,33.3649378 43.7152397,33.4140137 43.5643038,33.5006207 C43.3597561,33.6226209 43.2000666,33.8074045 43.1089988,34.0274736 C43.0543588,34.1252533 42.9540637,34.188855 42.8423202,34.1965869 Z" id="Path" fill="#231F20" fill-rule="nonzero"></path>
                                    <path d="M165.553516,128.295117 C148.707231,128.416531 131.860947,128.496752 115.014663,128.535778 C96.5683074,128.574804 78.1241196,128.561795 59.6820999,128.496752 L74.1542938,96.4172641 C94.3047912,98.1994578 115.036344,100.469478 136.348954,103.227326 C147.484412,104.684302 158.424741,106.238843 169.169938,107.890949 C167.966632,114.694507 167.966632,114.694507 165.553516,128.295117 C167.966632,114.694507 167.966632,114.694507 169.169938,107.890949 L165.553516,128.295117 Z" id="Path" fill="#8248E5" fill-rule="nonzero"></path>
                                    <path d="M85.7710751,108.632446 L107.36554,111.097597 C111.716954,100.280852 116.354561,89.5161415 120.374253,78.5758133 C123.379266,70.4453673 124.725668,60.6563104 117.583884,54.2235015 C112.334868,49.5078428 104.152387,49.020016 97.8886918,51.8754287 C87.3126076,56.7016614 78.8699525,64.8841423 70.0890708,72.279596 L33.5866204,99.259668 C36.3379634,107.500688 39.4405416,120.346793 46.9140475,125.654348 C56.3518692,132.36034 67.9621461,127.124333 75.2860519,119.982549 C78.9737224,116.381816 82.4733716,112.593424 85.7710751,108.632446 L85.7710751,108.632446 Z" id="Path" fill="#FFC55A" fill-rule="nonzero"></path>
                                    <path d="M168.909764,109.367438 L174.542537,110.226014 C174.859323,110.273749 175.18291,110.211786 175.459651,110.050396 L186.165822,103.825726 C186.699797,103.543841 187.351838,103.617156 187.80988,104.010584 C188.267922,104.404012 188.438792,105.037523 188.240712,105.60792 L182.230686,120.847628 L179.720005,126.79261 C179.392643,127.568326 178.648782,128.087005 177.807724,128.126003 L165.553516,128.295117 L168.909764,109.367438 Z" id="Path" fill="#FFC55A" fill-rule="nonzero"></path>
                                    <path d="M85.7710751,108.723507 C82.616462,117.34178 80.4244938,123.683528 80.1708239,124.802277 C80.0345303,125.313701 80.0345303,125.851899 80.1708239,126.363323 C80.4635199,127.306455 81.6733303,128.399186 82.707523,128.353656 L110.90391,128.555291 C111.460169,128.529711 111.949962,128.180913 112.156045,127.663604 C112.362127,127.146296 112.246344,126.556251 111.86005,126.155183 L101.713254,116.138474 C101.386679,115.780881 101.336273,115.250293 101.589671,114.837603 L104.113361,110.720345 L85.7710751,108.723507 Z" id="Path" fill="#FFC55A" fill-rule="nonzero"></path>
                                    <path d="M45.1318538,44.9873148 C44.4764145,44.9836114 43.8228939,44.9160809 43.1805467,44.7856798 C42.558815,44.6401996 41.9463172,44.4577535 41.3463181,44.2393138 L41.0601264,44.1417484 L40.7674303,44.0441831 C40.6474387,44.0174555 40.5527725,43.9253533 40.5227609,43.8061407 C40.4927493,43.686928 40.532522,43.5609811 40.6255554,43.4806247 C40.7185888,43.4002684 40.8489813,43.3792374 40.9625611,43.4262692 L41.2682658,43.5303389 L41.5609619,43.6279042 C42.1325113,43.8366873 42.7169525,44.0083262 43.3106339,44.1417484 C44.1654024,44.3226562 45.0429239,44.3709199 45.9123766,44.2848443 C46.0919894,44.2650869 46.253611,44.3946753 46.2733684,44.5742882 C46.2931258,44.753901 46.1635374,44.9155226 45.9839245,44.93528 C45.7107415,44.9678017 45.4245498,44.9873148 45.1318538,44.9873148 Z" id="Path" fill="#231F20" fill-rule="nonzero"></path>
                                    <path d="M73.8876152,63.2320356 L70.1085839,65.8337784 C70.7590196,70.2307236 70.1085839,72.299109 70.1085839,72.299109 L52.5077944,90.6999344 L33.5866204,99.259668 L30.2954159,90.6999344 C30.243381,91.1942655 30.1848418,91.6885967 30.132807,92.1829278 C22.9589962,91.245738 16.0246694,88.971067 9.68961354,85.4769359 C11.3086001,78.3433878 14.4112483,71.6305868 18.7957131,65.7752392 C19.7410129,64.5264027 20.7773738,63.2862386 21.9047956,62.0547471 C24.8507259,58.8690814 28.2032608,56.0851434 31.8759746,53.7747009 C32.6250183,53.9582901 33.3891484,54.0736716 34.1590038,54.1194318 C36.1293714,54.2524097 38.1042304,53.9366102 39.9348727,53.1958131 C42.4044286,52.1875057 44.5125436,50.4579447 45.9839245,48.2329889 C50.4459133,46.4984937 55.0423254,44.5862128 59.7731609,42.4961462 C63.0643655,41.034834 66.2384916,39.558345 69.2955393,38.0666792 C70.1064824,39.6102624 70.8211584,41.2025346 71.4354727,42.8343727 C73.8222636,49.3517545 74.6617264,56.3346602 73.8876152,63.2320356 Z" id="Path" fill="#8248E5" fill-rule="nonzero"></path>
                                    <path d="M81.2115209,108.788551 C81.1360998,108.788551 81.0612687,108.775256 80.9903728,108.749525 C80.6536696,108.6299 80.4765112,108.261062 80.593607,107.923471 L93.6673642,70.9071767 C93.8062733,70.5997062 94.157223,70.449495 94.4755682,70.5612545 C94.7939134,70.6730139 94.9739534,71.0096364 94.8901833,71.3364642 L81.8164261,108.346254 C81.7285066,108.606694 81.4863585,108.783749 81.2115209,108.788551 Z" id="Path" fill="#231F20" fill-rule="nonzero"></path>
                                    <path d="M100.392869,110.974015 L100.321321,110.974015 L88.4508701,109.673143 C88.2184918,109.647582 88.0174023,109.499989 87.9233502,109.285963 C87.829298,109.071937 87.8565719,108.823992 87.9948981,108.635527 C88.1332243,108.447063 88.3615876,108.34671 88.5939659,108.372272 L100.464417,109.673143 C100.823643,109.692901 101.098836,110.000127 101.079079,110.359353 C101.059321,110.718579 100.752095,110.993772 100.392869,110.974015 L100.392869,110.974015 Z" id="Path" fill="#231F20" fill-rule="nonzero"></path>
                                    <path d="M44.0716436,99.910115 C43.809057,99.9116461 43.571299,99.7551433 43.4688902,99.5133448 C43.3664814,99.2715463 43.4195116,98.9918861 43.6033299,98.804363 L69.6207571,71.8307953 C69.7729719,71.6325423 70.0253262,71.539049 70.2699682,71.5902726 C70.5146103,71.6414962 70.7082598,71.8283747 70.7681543,72.0710396 C70.8280489,72.3137045 70.7435925,72.5692251 70.5508801,72.7283966 L44.5334529,99.7084686 C44.4128626,99.8350015 44.2464197,99.9076738 44.0716436,99.910115 Z" id="Path" fill="#231F20" fill-rule="nonzero"></path>
                                    <path d="M33.5866204,99.9036013 C33.3325791,99.9042279 33.1014209,99.7568963 32.994724,99.5263466 C32.9222836,99.3686143 32.9158918,99.1884713 32.9769707,99.0260015 C33.0380495,98.8635317 33.161532,98.7322137 33.3199418,98.6612672 L52.2411157,90.108038 C52.5698073,89.9607555 52.9556604,90.1078165 53.102943,90.436508 C53.2502255,90.7651995 53.1031645,91.1510527 52.774473,91.2983353 L33.8272816,99.8515644 C33.7511058,99.8840734 33.6694221,99.9017347 33.5866204,99.9036013 Z" id="Path" fill="#231F20" fill-rule="nonzero"></path>
                                    <path d="M35.0240833,54.4771714 C33.928806,54.4758698 32.8374027,54.3470842 31.7719049,54.0934143 C31.5922921,54.0521034 31.4801762,53.8730092 31.5214872,53.6933964 C31.5627981,53.5137836 31.7418923,53.4016677 31.9215051,53.4429787 C34.1120108,53.9932868 36.4085195,53.9596466 38.5819665,53.3454133 C41.4937185,52.4688184 44.0095683,50.6060777 45.6977328,48.0768843 C45.7465055,48.0048036 45.822134,47.9552789 45.9077019,47.9393877 C45.9932698,47.9234965 46.081637,47.9425649 46.1530378,47.9923277 C46.2246978,48.0398781 46.2740998,48.1143704 46.2900228,48.1988847 C46.3059458,48.2833989 46.2870381,48.3707612 46.2375944,48.4411283 C44.4638406,51.0957922 41.8215743,53.0504714 38.7640885,53.9698316 C37.5477996,54.3155074 36.2885066,54.4863333 35.0240833,54.4771714 L35.0240833,54.4771714 Z" id="Path" fill="#231F20" fill-rule="nonzero"></path>
                                    <path d="M30.132807,92.8333635 L30.0482503,92.8333635 C27.191024,92.452701 24.3650896,91.8657762 21.5925865,91.0771871 C17.357893,89.860819 13.2718255,88.1766524 9.4099262,86.0558237 C9.0938076,85.8762108 8.98314782,85.4743411 9.16276066,85.1582224 C9.34237351,84.8421038 9.74424326,84.731444 10.0603619,84.9110569 C16.3273543,88.361156 23.1832729,90.6111679 30.2759028,91.5455008 C30.6351285,91.5688505 30.9074099,91.8789891 30.8840602,92.2382148 C30.8607105,92.5974405 30.5505719,92.8697218 30.1913462,92.8463722 L30.132807,92.8333635 Z" id="Path" fill="#231F20" fill-rule="nonzero"></path>
                                    <path d="M73.8876152,63.8824713 L73.8160673,63.8824713 C73.6443059,63.8629023 73.4874004,63.7757623 73.3800041,63.6402965 C73.2726079,63.5048308 73.2235567,63.3321846 73.2436839,63.1604877 C74.2430924,54.6282573 72.6568916,45.9925267 68.6906341,38.372384 C68.5837401,38.1655673 68.5953013,37.9174335 68.7209628,37.7214522 C68.8466243,37.5254709 69.067295,37.4114164 69.2998506,37.4222518 C69.5324061,37.4330872 69.7415156,37.5671664 69.8484096,37.7739831 C73.9269642,45.6263681 75.5539095,54.522451 74.5185378,63.3100879 C74.479807,63.6312186 74.2109889,63.8750948 73.8876152,63.8824713 Z" id="Path" fill="#231F20" fill-rule="nonzero"></path>
                                    <path d="M31.8759746,94.1082378 C31.6180637,94.1102551 31.3833125,93.9597081 31.2775738,93.7244603 C30.6271381,92.2935018 30.0547547,90.8300216 29.5083887,89.3665413 C28.857953,87.6949216 28.3050827,85.9777714 27.7977429,84.2671255 C27.7279183,83.9358987 27.9238173,83.6064869 28.2481877,83.5096853 C28.5725581,83.4128837 28.9169509,83.5810565 29.040075,83.8963772 C29.5474149,85.5810056 30.1132939,87.2721384 30.7247034,88.9112363 C31.2645651,90.3552035 31.8499572,91.7926664 32.4678711,93.1976074 C32.5378482,93.3554372 32.5422058,93.5346127 32.4799839,93.6956576 C32.417762,93.8567026 32.294066,93.9864028 32.1361489,94.0561825 C32.0532579,94.0890288 31.9651225,94.1066559 31.8759746,94.1082378 L31.8759746,94.1082378 Z" id="Path" fill="#231F20" fill-rule="nonzero"></path>
                                    <path d="M70.1085839,66.464701 C69.8117446,66.4773868 69.5440392,66.287316 69.4581482,66.0028916 C68.3059496,62.121784 65.7231178,58.8229197 62.2318078,56.7732093 C61.9376466,56.5862117 61.8431854,56.2005679 62.0176237,55.8987895 C62.1920621,55.5970111 62.5733838,55.4863863 62.8822435,55.6479556 C66.6715791,57.858893 69.4782222,61.4282361 70.7330021,65.6321433 C70.8335853,65.977 70.6355626,66.3381004 70.2907059,66.4386836 C70.2317492,66.4569007 70.170283,66.4656816 70.1085839,66.464701 Z" id="Path" fill="#231F20" fill-rule="nonzero"></path>
                                    <path d="M110.240465,14.9697082 C110.148432,14.9692819 110.057537,14.9493293 109.973787,14.911169 C109.647428,14.7633818 109.502023,14.3795115 109.648569,14.0525939 C110.154487,12.9186919 110.540345,11.7349559 110.79984,10.5207281 C111.08691,9.17881914 111.215707,7.80788771 111.183597,6.43599205 C111.183597,6.07676635 111.474807,5.78555637 111.834033,5.78555637 L111.834033,5.78555637 C112.193258,5.78555637 112.484468,6.07676635 112.484468,6.43599205 C112.518249,7.9085775 112.378528,9.38001909 112.06819,10.8199285 C111.793583,12.1217351 111.381498,13.3906967 110.838866,14.6054642 C110.727405,14.8330994 110.493864,14.9752551 110.240465,14.9697082 Z" id="Path" fill="#231F20" fill-rule="nonzero"></path>
                                    <path d="M114.026001,21.6106565 C112.827464,21.6907506 111.71382,20.9894698 111.268154,19.8739932 C110.617718,18.156843 111.742972,16.133988 112.243807,15.3209434 C113.603761,13.3901421 115.420456,11.825952 117.531849,10.7678937 C117.734018,10.6517045 117.982817,10.6521972 118.184524,10.7691862 C118.386231,10.8861753 118.510204,11.1018871 118.509742,11.3350653 C118.50928,11.5682435 118.384454,11.7834626 118.182285,11.8996518 C116.263002,12.8714045 114.607194,14.2929002 113.356052,16.042927 C112.705617,17.0511024 112.152746,18.4690521 112.503982,19.4251926 C112.855217,20.381333 113.928436,20.3292982 114.253653,20.3032808 C115.250374,20.1255543 116.162969,19.6304715 116.855396,18.8918353 C118.006667,17.8576426 119.14493,16.7388932 120.335227,15.4575349 C120.584884,15.2239113 120.972801,15.2234687 121.222991,15.456522 C121.47318,15.6895754 121.500216,16.0765491 121.284863,16.3421275 C120.075053,17.6429988 118.904269,18.8007743 117.720476,19.8609845 C116.817685,20.800071 115.627456,21.4112075 114.33821,21.5976478 C114.234513,21.6084792 114.13024,21.6128239 114.026001,21.6106565 L114.026001,21.6106565 Z" id="Path" fill="#231F20" fill-rule="nonzero"></path>
                                    <path d="M117.733484,26.6190112 C116.723572,26.6126847 115.780791,26.1121357 115.209794,25.2791137 C113.668261,23.1977195 115.411429,20.927699 116.452126,19.5747928 C117.615956,18.0443707 118.941881,16.6442987 120.406775,15.3989957 C120.681583,15.1672952 121.092189,15.2022404 121.323889,15.4770481 C121.55559,15.7518557 121.520645,16.1624617 121.245837,16.3941623 C119.857867,17.5776844 118.599779,18.9055448 117.492823,20.3553156 C116.289517,21.9228656 115.372403,23.3082936 116.256995,24.4985909 C116.57861,25.0041881 117.13429,25.312627 117.733484,25.3181398 C119.476652,25.3181398 121.740168,23.0676324 122.8329,21.5586216 C123.044843,21.2676488 123.452537,21.2035826 123.74351,21.4155258 C124.034483,21.6274689 124.098549,22.0351629 123.886606,22.3261357 C122.72883,23.9131988 120.133592,26.6060025 117.739989,26.6190112 L117.733484,26.6190112 Z" id="Path" fill="#231F20" fill-rule="nonzero"></path>
                                    <path d="M15.9468048,139.755793 C15.8735699,139.754962 15.8010015,139.741768 15.732161,139.716767 C15.3928664,139.599823 15.2124043,139.230166 15.3288909,138.890714 L18.5810693,129.635014 C18.7014099,129.295546 19.0741587,129.117908 19.413627,129.238248 C19.7530953,129.358589 19.9307333,129.731338 19.8103927,130.070806 L16.5582143,139.320002 C16.4672889,139.580105 16.2223407,139.754696 15.9468048,139.755793 Z" id="Path" fill="#231F20" fill-rule="nonzero"></path>
                                    <path d="M21.9893523,140.048493 C21.9118756,140.04767 21.8350257,140.034496 21.7616998,140.009463 C21.6003926,139.948241 21.4700186,139.825438 21.3992673,139.668078 C21.328516,139.510717 21.3231848,139.331693 21.3844471,139.170401 L24.6691473,130.363502 C24.7504797,130.145067 24.9421679,129.986614 25.1720049,129.947832 C25.4018418,129.90905 25.6349098,129.995831 25.7834144,130.175485 C25.931919,130.355138 25.9732987,130.600372 25.8919663,130.818807 L22.6007618,139.625706 C22.5054964,139.880682 22.2615417,140.049374 21.9893523,140.048493 L21.9893523,140.048493 Z" id="Path" fill="#231F20" fill-rule="nonzero"></path>
                                </g>
                                <path d="M118.551396,17.6474215 C120.87961,17.6477939 122.766907,19.5350911 122.76728,21.8633051 L122.769155,33.5861438 C122.769527,35.913395 120.883219,37.8003068 118.555968,37.8006791 C118.555519,37.8006791 118.555069,37.8006791 118.55462,37.8006791 C116.226406,37.8003067 114.339109,35.9130095 114.338736,33.5847955 L114.336861,21.8619568 C114.336489,19.5347055 116.222797,17.6477938 118.550048,17.6474215 C118.550497,17.6474214 118.550947,17.6474214 118.551396,17.6474215 Z" id="Rectangle" fill="#FFC55A" fill-rule="nonzero" transform="translate(118.553008, 27.724050) rotate(62.350000) translate(-118.553008, -27.724050) "></path>
                                <path d="M107.319867,13.0879939 C108.257041,13.0879068 109.016841,13.8475657 109.016928,14.7847395 C109.016928,14.7848446 109.016928,14.7849498 109.016928,14.7850549 L109.016603,18.2744938 C109.016516,19.2118928 108.256626,19.9717831 107.319227,19.9718702 C106.382053,19.9719573 105.622253,19.2122985 105.622166,18.2751247 C105.622166,18.2750195 105.622166,18.2749144 105.622166,18.2748092 L105.62249,14.7853704 C105.622577,13.8479713 106.382468,13.088081 107.319867,13.0879939 Z" id="Rectangle" fill="#FFC55A" fill-rule="nonzero" transform="translate(107.319547, 16.529932) rotate(104.270000) translate(-107.319547, -16.529932) "></path>
                                <path d="M127.883814,32.3115862 C128.820866,32.3114548 129.580603,33.0709787 129.580734,34.0080302 C129.580734,34.0081888 129.580734,34.0083474 129.580734,34.0085059 L129.580245,37.4983149 C129.580113,38.4357061 128.82024,39.195579 127.882849,39.1957104 C126.945798,39.1958417 126.186061,38.4363179 126.185929,37.4992663 C126.185929,37.4991078 126.185929,37.4989492 126.185929,37.4987906 L126.186419,34.0089817 C126.18655,33.0715904 126.946423,32.3117176 127.883814,32.3115862 Z" id="Rectangle" fill="#8248E5" fill-rule="nonzero" transform="translate(127.883332, 35.753648) rotate(113.050000) translate(-127.883332, -35.753648) "></path>
                                <circle id="Oval" fill="#8248E5" fill-rule="nonzero" cx="129.893018" cy="12.2169608" r="4.065223"></circle>
                                <path d="M114.640809,1.90098516 L118.045654,1.90161469 C119.75153,1.9030727 121.134337,3.2858796 121.135795,4.99175535 L121.136424,8.39776191 C121.137882,10.1040838 119.75489,11.4875868 118.048568,11.4879023 C118.048187,11.4879024 118.047807,11.4879024 118.047426,11.4867601 L114.642581,11.4861306 C112.936705,11.4846726 111.553898,10.1018657 111.55244,8.39598991 L111.55181,4.98998335 C111.550353,3.28366148 112.933344,1.90015841 114.639666,1.89984297 C114.640047,1.8998429 114.640428,1.8998429 114.640809,1.90098516 Z" id="Rectangle" fill="#2B2B2A" fill-rule="nonzero" transform="translate(116.344117, 6.693873) rotate(35.930000) translate(-116.344117, -6.693873) "></path>
                            </g>
                            <g id="Path-+-Path-Copy-3-+-Path-Copy-2-+-Path-Copy-Mask" opacity="0.715913318" transform="translate(1027.000000, 122.000000)">
                                <mask id="mask-25" fill="white">
                                    <use xlink:href="#path-24"></use>
                                </mask>
                                <g id="Mask" fill-rule="nonzero">
                                    <use fill="url(#radialGradient-19)" xlink:href="#path-24"></use>
                                    <use fill="url(#linearGradient-20)" xlink:href="#path-24"></use>
                                    <use fill="url(#linearGradient-21)" xlink:href="#path-24"></use>
                                    <use fill="url(#linearGradient-22)" xlink:href="#path-24"></use>
                                    <use fill="url(#linearGradient-23)" xlink:href="#path-24"></use>
                                </g>
                            </g>
                            <line x1="828.853801" y1="544.994765" x2="828.853801" y2="544.872163" id="Path" stroke="#231F20" stroke-width="1.61318373"></line>
                            <path d="M1029.53234,417.901698 L1029.53234,417.901698 C1029.53234,417.856529 1029.53234,417.798454 1029.53234,417.727474 C1029.53639,417.785478 1029.53639,417.843694 1029.53234,417.901698 L1029.53234,417.901698 Z" id="Path" stroke="#2B2B2A" stroke-width="1.61318373" fill="#FAA61B" fill-rule="nonzero" opacity="0.77" stroke-linecap="round"></path>
                        </g>
                        <path d="M1088.10938,364.54401 L1087.96904,364.059802 L1087.67784,363.084124 C1087.5773,362.753987 1087.47253,362.416741 1087.36126,362.065791 C1087.319,361.932486 1087.17667,361.858682 1087.04337,361.900945 C1086.91006,361.943208 1086.83626,362.085533 1086.87852,362.218838 L1087.19339,363.23167 L1087.48303,364.202135 C1087.52996,364.362541 1087.5764,364.522827 1087.62264,364.683815 C1087.66125,364.818224 1087.80151,364.895888 1087.93592,364.857282 C1088.07033,364.818676 1088.14799,364.67842 1088.10938,364.54401 Z M1086.54665,359.610813 C1086.27093,358.814859 1085.97879,358.003622 1085.6689,357.176427 C1085.61984,357.045471 1085.47391,356.979082 1085.34295,357.028142 C1085.212,357.077202 1085.14561,357.223134 1085.19467,357.35409 C1085.50306,358.177287 1085.79378,358.984559 1086.06813,359.776574 C1086.11391,359.908714 1086.25813,359.978728 1086.39027,359.932955 C1086.52241,359.887181 1086.59243,359.742953 1086.54665,359.610813 Z M1084.73128,354.76285 C1084.41361,353.973251 1084.08272,353.177398 1083.73812,352.375635 C1083.6829,352.247155 1083.53398,352.187767 1083.4055,352.242988 C1083.27702,352.298208 1083.21763,352.447126 1083.27285,352.575606 C1083.61588,353.373706 1083.94525,354.165907 1084.26145,354.951865 C1084.31365,355.081603 1084.46114,355.144464 1084.59087,355.092269 C1084.72061,355.040074 1084.78347,354.892588 1084.73128,354.76285 Z M1082.68777,350.00783 C1082.33188,349.229915 1081.96444,348.450168 1081.58516,347.668956 C1081.52409,347.543154 1081.37259,347.490684 1081.24679,347.55176 C1081.12099,347.612836 1081.06852,347.76433 1081.12959,347.890132 C1081.50717,348.667842 1081.87297,349.44409 1082.22725,350.218509 C1082.28543,350.345677 1082.43568,350.401605 1082.56285,350.343427 C1082.69002,350.28525 1082.74595,350.134997 1082.68777,350.00783 Z M1080.42999,345.357192 C1080.03744,344.593534 1079.6343,343.830665 1079.22039,343.068907 C1079.15363,342.94603 1078.99989,342.900543 1078.87702,342.967309 C1078.75414,343.034075 1078.70865,343.18781 1078.77542,343.310687 C1079.18747,344.069029 1079.5888,344.828479 1079.9796,345.588717 C1080.04353,345.71309 1080.19619,345.762086 1080.32056,345.698153 C1080.44493,345.634219 1080.49393,345.481566 1080.42999,345.357192 Z M1077.95832,340.808496 C1077.53064,340.062805 1077.09304,339.319672 1076.64539,338.579371 C1076.57303,338.459704 1076.41736,338.421356 1076.29769,338.493718 C1076.17802,338.56608 1076.13968,338.721749 1076.21204,338.841416 C1076.65766,339.578359 1077.09328,340.318128 1077.51903,341.060449 C1077.5886,341.181757 1077.74334,341.223695 1077.86465,341.15412 C1077.98596,341.084546 1078.0279,340.929805 1077.95832,340.808496 Z M1075.27828,336.376975 C1074.81575,335.650916 1074.34374,334.928716 1073.86215,334.210613 C1073.78426,334.094469 1073.62697,334.063459 1073.51082,334.141349 C1073.39468,334.21924 1073.36367,334.376536 1073.44156,334.492679 C1073.92092,335.207469 1074.39076,335.926345 1074.85117,336.649069 C1074.92631,336.767013 1075.08283,336.801715 1075.20077,336.726578 C1075.31872,336.651442 1075.35342,336.494919 1075.27828,336.376975 Z M1072.39534,332.078501 C1071.89892,331.374999 1071.39339,330.676357 1070.87863,329.982788 C1070.79529,329.870493 1070.63669,329.847022 1070.5244,329.930365 C1070.4121,330.013708 1070.38863,330.172305 1070.47198,330.2846 C1070.98431,330.974905 1071.48747,331.670268 1071.98156,332.370476 C1072.06219,332.484738 1072.22017,332.512004 1072.33444,332.431377 C1072.4487,332.350751 1072.47596,332.192763 1072.39534,332.078501 Z M1069.30532,327.915854 C1068.77525,327.236802 1068.23633,326.563424 1067.68845,325.895911 C1067.59973,325.787815 1067.44018,325.772109 1067.33208,325.86083 C1067.22399,325.949552 1067.20828,326.109104 1067.297,326.2172 C1067.84224,326.881508 1068.37859,327.55166 1068.90613,328.227467 C1068.99218,328.337702 1069.1513,328.357308 1069.26153,328.271258 C1069.37177,328.185209 1069.39137,328.026089 1069.30532,327.915854 Z M1066.01929,323.912754 C1065.4563,323.260445 1064.88466,322.614481 1064.30431,321.975032 C1064.21032,321.871479 1064.05019,321.863721 1063.94663,321.957705 C1063.84308,322.051688 1063.83532,322.211824 1063.92931,322.315378 C1064.50682,322.951697 1065.07567,323.594507 1065.63592,324.243638 C1065.72729,324.349504 1065.88718,324.361255 1065.99305,324.269884 C1066.09891,324.178513 1066.11067,324.018621 1066.01929,323.912754 Z M1062.54725,320.087138 C1061.9524,319.463874 1061.34909,318.847506 1060.73727,318.238192 C1060.63818,318.139511 1060.47786,318.139841 1060.37917,318.238928 C1060.28049,318.338016 1060.28082,318.498339 1060.37991,318.59702 C1060.98869,319.203303 1061.589,319.816609 1062.18091,320.436784 C1062.27746,320.537947 1062.43774,320.541685 1062.5389,320.445133 C1062.64007,320.348581 1062.6438,320.188301 1062.54725,320.087138 Z M1058.88535,316.440252 C1058.25965,315.848113 1057.62568,315.263329 1056.98338,314.686043 C1056.87937,314.592563 1056.71927,314.601098 1056.62579,314.705107 C1056.53231,314.809115 1056.54085,314.969212 1056.64485,315.062692 C1057.28392,315.637068 1057.9147,316.218909 1058.53726,316.808073 C1058.63883,316.904196 1058.79909,316.89978 1058.89521,316.798209 C1058.99134,316.696638 1058.98692,316.536376 1058.88535,316.440252 Z M1055.03234,312.977627 C1054.3771,312.418705 1053.71376,311.867512 1053.04227,311.324181 C1052.93356,311.236216 1052.77412,311.253036 1052.68616,311.361749 C1052.59819,311.470462 1052.61501,311.629901 1052.72372,311.717866 C1053.3918,312.258436 1054.05177,312.80683 1054.70369,313.362916 C1054.81008,313.453671 1054.9699,313.440993 1055.06066,313.334598 C1055.15141,313.228203 1055.13873,313.068382 1055.03234,312.977627 Z M1051.00416,309.718559 C1050.32079,309.194508 1049.62951,308.678487 1048.93026,308.170616 C1048.81711,308.088435 1048.65877,308.113539 1048.57659,308.226688 C1048.49441,308.339837 1048.51951,308.498182 1048.63266,308.580363 C1049.32834,309.085645 1050.0161,309.599036 1050.69598,310.120417 C1050.80695,310.205517 1050.9659,310.184544 1051.051,310.073574 C1051.1361,309.962604 1051.11513,309.803658 1051.00416,309.718559 Z M1046.81185,306.673839 C1046.10241,306.186335 1045.38525,305.707081 1044.66031,305.23619 C1044.54304,305.160012 1044.38621,305.193328 1044.31003,305.310603 C1044.23386,305.427878 1044.26717,305.584701 1044.38445,305.660879 C1045.1057,306.129376 1045.81922,306.606191 1046.52504,307.091214 C1046.6403,307.170414 1046.79793,307.141186 1046.87713,307.025931 C1046.95633,306.910676 1046.9271,306.753039 1046.81185,306.673839 Z M1042.46581,303.850963 C1041.7323,303.401166 1040.99126,302.959772 1040.24265,302.526884 C1040.12159,302.45688 1039.96671,302.498269 1039.8967,302.61933 C1039.8267,302.74039 1039.86809,302.895279 1039.98915,302.965284 C1040.73398,303.395989 1041.47127,303.835154 1042.20108,304.282678 C1042.32029,304.355782 1042.4762,304.318401 1042.5493,304.199187 C1042.6224,304.079972 1042.58502,303.924067 1042.46581,303.850963 Z M1037.98284,301.258583 C1037.2256,300.846271 1036.46337,300.443823 1035.69632,300.051291 C1035.57183,299.987583 1035.41927,300.036858 1035.35556,300.161347 C1035.29186,300.285837 1035.34113,300.438401 1035.46562,300.502108 C1036.22882,300.892673 1036.98723,301.293102 1037.74067,301.703347 C1037.86349,301.77022 1038.01727,301.724868 1038.08414,301.60205 C1038.15101,301.479232 1038.10566,301.325456 1037.98284,301.258583 Z M1033.37431,298.900334 C1032.59612,298.526949 1031.81333,298.163616 1031.02614,297.810384 C1030.89855,297.753132 1030.74871,297.810151 1030.69146,297.937739 C1030.63421,298.065326 1030.69122,298.215168 1030.81881,298.272419 C1031.60207,298.623885 1032.38094,298.9854 1033.15524,299.356917 C1033.28132,299.417412 1033.43257,299.364243 1033.49307,299.238161 C1033.55356,299.112079 1033.50039,298.960829 1033.37431,298.900334 Z M1028.65105,296.780855 C1027.85467,296.447654 1027.05413,296.124655 1026.24963,295.811903 C1026.11929,295.761233 1025.97255,295.825819 1025.92188,295.95616 C1025.87121,296.086501 1025.9358,296.23324 1026.06614,296.28391 C1026.86663,296.595104 1027.66317,296.916493 1028.45558,297.248032 C1028.58459,297.302008 1028.73293,297.241183 1028.7869,297.112176 C1028.84088,296.983168 1028.78006,296.834831 1028.65105,296.780855 Z M1023.81592,294.901381 C1023.00493,294.609703 1022.19026,294.32832 1021.37211,294.057272 C1021.23937,294.013293 1021.0961,294.085255 1021.05212,294.218003 C1021.00814,294.350752 1021.0801,294.494018 1021.21285,294.537997 C1022.02694,294.807701 1022.83756,295.087687 1023.64453,295.377917 C1023.77612,295.425245 1023.92117,295.356935 1023.96849,295.225344 C1024.01582,295.093752 1023.94751,294.948709 1023.81592,294.901381 Z M1018.90854,293.275511 C1018.08384,293.02523 1017.25596,292.78535 1016.4251,292.555905 C1016.2903,292.518681 1016.15084,292.59778 1016.11362,292.732578 C1016.07639,292.867376 1016.15549,293.006829 1016.29029,293.044054 C1017.11706,293.272366 1017.94085,293.511061 1018.76147,293.760106 C1018.89529,293.800717 1019.03669,293.725158 1019.0773,293.591341 C1019.11791,293.457524 1019.04235,293.316122 1018.90854,293.275511 Z M1013.91466,291.896648 C1013.07711,291.68796 1012.23687,291.489792 1011.39417,291.302173 C1011.25767,291.271783 1011.12238,291.357803 1011.09199,291.494304 C1011.06159,291.630806 1011.14761,291.766099 1011.28412,291.79649 C1012.12268,291.983188 1012.95879,292.180382 1013.79222,292.388043 C1013.92792,292.421853 1014.06533,292.339259 1014.09914,292.203564 C1014.13295,292.067869 1014.05036,291.930458 1013.91466,291.896648 Z M1008.85046,290.769342 C1008.00391,290.603095 1007.15522,290.447426 1006.30459,290.302355 C1006.16674,290.278844 1006.03593,290.371537 1006.01242,290.509391 C1005.98891,290.647244 1006.0816,290.778055 1006.21946,290.801566 C1007.06592,290.945928 1007.91047,291.100836 1008.75287,291.26627 C1008.8901,291.293218 1009.02318,291.203822 1009.05013,291.066599 C1009.07708,290.929377 1008.98768,290.79629 1008.85046,290.769342 Z M1003.73264,289.896855 C1002.8796,289.773303 1002.02497,289.660357 1001.16897,289.558033 C1001.03012,289.541434 1000.9041,289.640543 1000.8875,289.779398 C1000.8709,289.918254 1000.97001,290.044274 1001.10886,290.060873 C1001.96069,290.162699 1002.81116,290.275094 1003.66005,290.398044 C1003.79845,290.41809 1003.92689,290.322145 1003.94694,290.183745 C1003.96698,290.045345 1003.87104,289.9169 1003.73264,289.896855 Z M998.622262,289.285316 C997.764058,289.204067 996.904825,289.133457 996.044791,289.073492 C995.905286,289.063766 995.784309,289.168972 995.774583,289.308477 C995.764856,289.447982 995.870062,289.568959 996.009567,289.578685 C996.86543,289.638359 997.720493,289.708626 998.574531,289.789481 C998.713752,289.802661 998.837298,289.700485 998.850479,289.561264 C998.863659,289.422043 998.761483,289.298496 998.622262,289.285316 Z M993.455144,288.925212 C992.593213,288.886583 991.730827,288.858625 990.868219,288.841334 C990.728403,288.838532 990.612788,288.949603 990.609986,289.089419 C990.607183,289.229235 990.718255,289.34485 990.85807,289.347652 C991.716503,289.364859 992.574714,289.392682 993.432471,289.431124 C993.572175,289.437385 993.690502,289.329209 993.696763,289.189505 C993.703024,289.049801 993.594848,288.931474 993.455144,288.925212 Z M988.27375,288.821496 C987.411659,288.825588 986.549698,288.840328 985.688103,288.865706 C985.548319,288.869823 985.43834,288.986477 985.442458,289.126261 C985.446575,289.266044 985.563229,289.376023 985.703012,289.371906 C986.56044,289.346651 987.418232,289.331982 988.276154,289.32791 C988.415997,289.327246 988.528823,289.213343 988.528162,289.073501 C988.527495,288.933659 988.413593,288.820832 988.27375,288.821496 Z M983.089417,288.974566 C982.228124,289.02137 981.367555,289.07881 980.507947,289.146867 C980.368539,289.157905 980.264474,289.279864 980.275512,289.419272 C980.286549,289.55868 980.408509,289.662744 980.547916,289.651707 C981.403364,289.583979 982.25977,289.526817 983.116896,289.48024 C983.256534,289.472652 983.363581,289.353302 983.355993,289.213664 C983.348405,289.074026 983.229055,288.966978 983.089417,288.974566 Z M977.919879,289.38416 C977.062212,289.473558 976.205866,289.573547 975.351076,289.684098 C975.212387,289.702035 975.114499,289.829005 975.132435,289.967693 C975.150372,290.106382 975.277342,290.204271 975.416031,290.186334 C976.266675,290.076319 977.118871,289.976815 977.972381,289.88785 C978.111471,289.873352 978.212473,289.748844 978.197975,289.609754 C978.183477,289.470664 978.058969,289.369662 977.919879,289.38416 Z M972.770476,290.050681 C971.917815,290.182696 971.067075,290.325258 970.218493,290.478329 C970.08087,290.503154 969.989429,290.634844 970.014254,290.772467 C970.039079,290.910089 970.170769,291.00153 970.308392,290.976705 C971.152844,290.824379 971.999445,290.682511 972.84796,290.551137 C972.986158,290.52974 973.080843,290.400364 973.059446,290.262167 C973.03805,290.123969 972.908673,290.029284 972.770476,290.050681 Z M967.659126,290.973225 C966.814201,291.147637 965.971795,291.332519 965.132144,291.527825 C964.995936,291.559507 964.911201,291.695609 964.942884,291.831817 C964.974566,291.968024 965.110668,292.052759 965.246876,292.021077 C966.08242,291.826726 966.920707,291.642748 967.761505,291.469188 C967.898461,291.440917 967.986568,291.306974 967.958297,291.170017 C967.930026,291.033061 967.796083,290.944954 967.659126,290.973225 Z M962.62178,292.144944 C961.786591,292.361383 960.954514,292.588201 960.125781,292.825345 C959.991333,292.863818 959.91353,293.003997 959.952003,293.138445 C959.990475,293.272893 960.130655,293.350696 960.265102,293.312223 C961.089755,293.076247 961.917738,292.850544 962.748821,292.63517 C962.884193,292.600088 962.965495,292.461908 962.930413,292.326536 C962.895332,292.191164 962.757152,292.109862 962.62178,292.144944 Z M957.704999,293.550419 C956.881488,293.808181 956.06167,294.07622 955.245771,294.354472 C955.113412,294.399611 955.042707,294.543502 955.087846,294.67586 C955.132986,294.808218 955.276876,294.878924 955.409234,294.833784 C956.221085,294.556912 957.03684,294.290203 957.856274,294.033717 C957.989733,293.991944 958.064059,293.84989 958.022285,293.716431 C957.980512,293.582972 957.838458,293.508646 957.704999,293.550419 Z M952.800197,295.223455 C951.990651,295.522802 951.185379,295.832304 950.3846,296.151891 C950.254718,296.203727 950.191448,296.351038 950.243284,296.48092 C950.295119,296.610802 950.442431,296.674072 950.572313,296.622236 C951.369084,296.304248 952.17033,295.996294 952.975833,295.698442 C953.106997,295.649942 953.174009,295.504295 953.125508,295.373131 C953.077008,295.241967 952.931361,295.174955 952.800197,295.223455 Z M947.985484,297.14534 C947.192434,297.485771 946.404222,297.836212 945.62106,298.196587 C945.49402,298.255044 945.438424,298.405419 945.496882,298.532459 C945.555339,298.659498 945.705714,298.715095 945.832754,298.656637 C946.611959,298.298083 947.396194,297.949411 948.185247,297.610696 C948.313751,297.555533 948.373206,297.406641 948.318043,297.278137 C948.26288,297.149633 948.113989,297.090178 947.985484,297.14534 Z M943.27801,299.311829 C942.503598,299.692861 941.734574,300.083741 940.971141,300.48439 C940.847314,300.549374 940.799612,300.702437 940.864596,300.826265 C940.929581,300.950092 941.082644,300.997794 941.206471,300.932809 C941.966009,300.534205 942.731115,300.145316 943.501585,299.766224 C943.627063,299.704485 943.678733,299.552717 943.616995,299.427239 C943.555256,299.301761 943.403488,299.25009 943.27801,299.311829 Z M938.689512,301.720135 C937.935682,302.141241 937.188941,302.571289 936.44931,303.010199 C936.329047,303.081565 936.289408,303.236911 936.360774,303.357174 C936.43214,303.477437 936.587486,303.517075 936.707749,303.445709 C937.443589,303.009049 938.186508,302.581203 938.936487,302.162248 C939.058573,302.094048 939.102256,301.93979 939.034056,301.817704 C938.965856,301.695618 938.811598,301.651935 938.689512,301.720135 Z M934.238796,304.361605 C933.506392,304.822737 932.781326,305.292786 932.06362,305.771664 C931.947293,305.849281 931.915913,306.006504 931.99353,306.122831 C932.071147,306.239157 932.22837,306.270537 932.344696,306.19292 C933.058686,305.716522 933.78,305.248905 934.508619,304.790156 C934.62695,304.715647 934.662493,304.559311 934.587983,304.440969 C934.513474,304.322638 934.357138,304.287095 934.238796,304.361605 Z M929.924779,307.240231 C929.218283,307.739284 928.519316,308.247121 927.827901,308.763649 C927.715868,308.847345 927.692896,309.006014 927.776591,309.118047 C927.860287,309.23008 928.018956,309.253052 928.130989,309.169357 C928.818806,308.655517 929.514137,308.150321 930.21696,307.653863 C930.331181,307.57318 930.358369,307.415179 930.277685,307.300957 C930.197002,307.186736 930.039001,307.159548 929.924779,307.240231 Z M925.772193,310.342488 C925.095448,310.876728 924.426364,311.419521 923.76497,311.970765 C923.657545,312.060298 923.643042,312.219964 923.732575,312.327389 C923.822109,312.434814 923.981775,312.449317 924.0892,312.359783 C924.747155,311.811406 925.412758,311.271437 926.085981,310.739977 C926.195744,310.653327 926.214482,310.494102 926.127831,310.384338 C926.041181,310.274575 925.881956,310.255838 925.772193,310.342488 Z M921.802246,313.65118 C921.154375,314.220902 920.51434,314.798957 919.882169,315.385233 C919.779633,315.480325 919.773598,315.640535 919.86869,315.743071 C919.963783,315.845608 920.123993,315.851643 920.226529,315.75655 C920.855431,315.173306 921.492153,314.598244 922.136667,314.031474 C922.241682,313.939126 922.251951,313.779132 922.159603,313.674117 C922.067255,313.569101 921.907261,313.558833 921.802246,313.65118 Z M917.999158,317.178508 C917.382217,317.781805 916.773261,318.393154 916.172324,319.012431 C916.074937,319.112791 916.077346,319.273096 916.177705,319.370483 C916.278065,319.467871 916.43837,319.465461 916.535758,319.365102 C917.133618,318.748995 917.739451,318.140781 918.353224,317.540582 C918.453208,317.442809 918.455001,317.282496 918.357228,317.182512 C918.259455,317.082528 918.099142,317.080735 917.999158,317.178508 Z M914.383398,320.905003 C913.799276,321.539397 913.223263,322.181497 912.655394,322.831167 C912.56336,322.936458 912.574108,323.096421 912.679398,323.188454 C912.784689,323.280488 912.944652,323.269741 913.036686,323.16445 C913.601687,322.51806 914.174786,321.879208 914.755948,321.24803 C914.850672,321.145153 914.844063,320.984966 914.741187,320.890242 C914.63831,320.795517 914.478123,320.802126 914.383398,320.905003 Z M910.983592,324.793916 C910.43373,325.456413 909.892071,326.126209 909.358651,326.803159 C909.272099,326.913 909.290979,327.072208 909.40082,327.15876 C909.510661,327.245312 909.669869,327.226432 909.756421,327.116591 C910.287192,326.443003 910.826156,325.77654 911.373275,325.117347 C911.462588,325.009739 911.447757,324.850103 911.340149,324.76079 C911.232541,324.671477 911.072905,324.686308 910.983592,324.793916 Z M907.788913,328.847617 C907.272318,329.538182 906.764065,330.235643 906.264192,330.939841 C906.183245,331.053876 906.210067,331.211939 906.324102,331.292887 C906.438136,331.373834 906.5962,331.347011 906.677147,331.232977 C907.174586,330.532209 907.680357,329.838153 908.194423,329.150969 C908.278191,329.03899 908.255322,328.880306 908.143344,328.796538 C908.031365,328.712769 907.872681,328.735638 907.788913,328.847617 Z M904.786684,333.077043 C904.305836,333.791331 903.833407,334.512023 903.369439,335.238945 C903.294201,335.356824 903.328769,335.513376 903.446648,335.588615 C903.564528,335.663853 903.72108,335.629285 903.796318,335.511406 C904.258072,334.787953 904.72824,334.070709 905.206782,333.359847 C905.284876,333.24384 905.254142,333.08649 905.138135,333.008396 C905.022128,332.930302 904.864778,332.961036 904.786684,333.077043 Z M901.996675,337.448619 C901.550473,338.186686 901.112822,338.930664 900.683763,339.680361 C900.614301,339.801733 900.656382,339.956435 900.777755,340.025898 C900.899127,340.09536 901.053829,340.053279 901.123292,339.931907 C901.550346,339.185713 901.985947,338.44522 902.430053,337.71062 C902.502402,337.590946 902.464038,337.43528 902.344364,337.36293 C902.22469,337.290581 902.069024,337.328945 901.996675,337.448619 Z M899.420931,341.949148 C899.010962,342.706703 898.609627,343.469601 898.216967,344.237631 C898.153308,344.362146 898.202642,344.51469 898.327156,344.578349 C898.451671,344.642008 898.604215,344.592674 898.667874,344.46816 C899.058737,343.703645 899.458231,342.944248 899.866314,342.190177 C899.932872,342.067188 899.887126,341.913529 899.764137,341.846971 C899.641148,341.780412 899.487489,341.826159 899.420931,341.949148 Z M897.061333,346.564642 C896.686922,347.341115 896.321266,348.122341 895.964411,348.908091 C895.906584,349.035418 895.962925,349.185516 896.090253,349.243343 C896.217581,349.30117 896.367678,349.244829 896.425505,349.117501 C896.780758,348.33528 897.144768,347.557569 897.517491,346.784598 C897.57823,346.658634 897.525355,346.507281 897.39939,346.446541 C897.273426,346.385802 897.122073,346.438677 897.061333,346.564642 Z M894.916186,351.288289 C894.577656,352.081462 894.248009,352.878749 893.927289,353.679897 C893.875316,353.809725 893.938429,353.957103 894.068256,354.009076 C894.198083,354.061049 894.345461,353.997936 894.397434,353.868109 C894.716738,353.070499 895.044927,352.276739 895.381957,351.487082 C895.436852,351.358463 895.377087,351.209695 895.248468,351.1548 C895.119849,351.099905 894.971082,351.15967 894.916186,351.288289 Z M892.994239,356.088571 C892.691794,356.896045 892.398363,357.706941 892.113987,358.520981 C892.067868,358.653001 892.137504,358.797412 892.269524,358.843531 C892.401544,358.889651 892.545955,358.820015 892.592074,358.687995 C892.87521,357.877503 893.167361,357.070147 893.468483,356.266202 C893.517535,356.135243 893.451136,355.989316 893.320177,355.940264 C893.189218,355.891213 893.043291,355.957612 892.994239,356.088571 Z M891.290432,360.964994 C891.023845,361.785992 890.766444,362.609671 890.518267,363.435722 C890.47803,363.569652 890.553982,363.710843 890.687912,363.751081 C890.821842,363.791318 890.963033,363.715365 891.003271,363.581435 C891.250374,362.758954 891.506663,361.938838 891.772095,361.121394 C891.815284,360.988387 891.742471,360.845551 891.609463,360.802362 C891.476456,360.759173 891.33362,360.831986 891.290432,360.964994 Z M889.804877,365.90832 C889.574733,366.740118 889.353945,367.573781 889.142548,368.40897 C889.108233,368.544538 889.190316,368.682255 889.325885,368.716569 C889.461454,368.750884 889.599171,368.668801 889.633485,368.533232 C889.84397,367.701644 890.063807,366.871575 890.292959,366.043363 C890.33025,365.908583 890.25122,365.769092 890.11644,365.7318 C889.98166,365.694509 889.842168,365.773539 889.804877,365.90832 Z M888.533468,370.932279 C888.340232,371.773513 888.156554,372.615713 887.982466,373.458504 C887.954176,373.595457 888.042266,373.729412 888.179218,373.757701 C888.316171,373.78599 888.450126,373.697901 888.478415,373.560948 C888.651749,372.721808 888.834632,371.883252 889.027033,371.045653 C889.058341,370.909359 888.973232,370.773491 888.836938,370.742183 C888.700644,370.710876 888.564775,370.795984 888.533468,370.932279 Z M887.489704,375.984461 C887.333554,376.834837 887.187229,377.685184 887.050751,378.535087 C887.028579,378.673162 887.122537,378.803068 887.260612,378.82524 C887.398687,378.847412 887.528593,378.753454 887.550765,378.615379 C887.686644,377.769207 887.832329,376.922583 887.987795,376.075923 C888.013052,375.938379 887.922025,375.806403 887.78448,375.781146 C887.646936,375.75589 887.51496,375.846917 887.489704,375.984461 Z M886.668739,381.098663 C886.550973,381.955473 886.44331,382.81113 886.345763,383.665171 C886.329893,383.804112 886.429662,383.92961 886.568603,383.945479 C886.707543,383.961349 886.833041,383.86158 886.848911,383.72264 C886.94602,382.872435 887.053201,382.020608 887.170441,381.167621 C887.189484,381.02908 887.09261,380.901333 886.954069,380.882291 C886.815528,380.863249 886.687781,380.960122 886.668739,381.098663 Z M886.081002,386.249342 C886.002832,387.111628 885.935108,387.971475 885.877828,388.828369 C885.8685,388.967901 885.974052,389.088576 886.113585,389.097903 C886.253117,389.107231 886.373792,389.001678 886.383119,388.862146 C886.440133,388.009241 886.507544,387.153376 886.585353,386.295063 C886.597978,386.15579 886.495311,386.032653 886.356038,386.020027 C886.216765,386.007401 886.093627,386.110069 886.081002,386.249342 Z M885.735887,391.423174 C885.699092,392.289445 885.673148,393.151786 885.658032,394.009624 C885.655568,394.149446 885.766919,394.264792 885.906742,394.267255 C886.046564,394.269719 886.161909,394.158368 886.164373,394.018546 C886.179415,393.164906 886.205233,392.306755 886.24185,391.444665 C886.247785,391.304947 886.139332,391.186872 885.999614,391.180938 C885.859896,391.175003 885.741822,391.283456 885.735887,391.423174 Z M885.64541,396.602024 C885.652375,397.470467 885.670668,398.333226 885.700243,399.189659 C885.705069,399.32942 885.82228,399.438805 885.96204,399.433979 C886.101801,399.429153 886.211187,399.311942 886.206361,399.172182 C886.176941,398.320231 886.158742,397.461944 886.151813,396.597963 C886.150692,396.458123 886.036421,396.34567 885.896581,396.346783 C885.756742,396.347913 885.644289,396.462184 885.64541,396.602024 Z M885.825926,401.790348 C885.880062,402.658795 885.946099,403.519447 886.023951,404.371586 C886.036675,404.51085 886.159885,404.613431 886.299149,404.600708 C886.438412,404.587985 886.540994,404.464775 886.52827,404.325511 C886.450862,403.478239 886.385198,402.622444 886.331364,401.75884 C886.322663,401.619267 886.202464,401.513174 886.062891,401.521875 C885.923318,401.530575 885.817225,401.650775 885.825926,401.790348 Z M886.299992,406.960148 C886.405805,407.825733 886.524205,408.680937 886.655057,409.524959 C886.676482,409.663152 886.805878,409.757811 886.944071,409.736386 C887.082264,409.714962 887.176923,409.585566 887.155498,409.447373 C887.025482,408.608744 886.907827,407.758918 886.802669,406.898698 C886.7857,406.759887 886.659416,406.661115 886.520605,406.678084 C886.381795,406.695053 886.283023,406.821337 886.299992,406.960148 Z M887.099137,412.097857 C887.262951,412.956968 887.440195,413.802442 887.63067,414.633378 C887.661915,414.769686 887.797745,414.854856 887.934054,414.82361 C888.070362,414.792365 888.155532,414.656535 888.124286,414.520226 C887.935213,413.695404 887.759248,412.856029 887.596594,412.003003 C887.570401,411.865634 887.437808,411.775508 887.300439,411.801702 C887.16307,411.827895 887.072944,411.960488 887.099137,412.097857 Z M888.258826,417.145226 C888.363177,417.529236 888.470505,417.909598 888.580785,418.286216 C888.713662,418.739949 888.847242,419.187935 888.982673,419.633962 C889.023303,419.767774 889.164716,419.843312 889.298527,419.802682 C889.432339,419.762052 889.507877,419.620639 889.467247,419.486828 C889.332304,419.042408 889.199202,418.596025 889.066795,418.143896 C888.957447,417.770459 888.851013,417.393269 888.747523,417.012427 C888.710852,416.877477 888.571725,416.797806 888.436775,416.834478 C888.301825,416.871149 888.222154,417.010276 888.258826,417.145226 Z M889.757468,422.101392 C890.025648,422.927452 890.300076,423.744861 890.58094,424.553764 C890.62681,424.685871 890.771088,424.75578 890.903196,424.70991 C891.035303,424.664041 891.105212,424.519762 891.059342,424.387655 C890.779609,423.58201 890.50627,422.767845 890.239139,421.945018 C890.195958,421.812008 890.053126,421.739188 889.920116,421.782369 C889.787106,421.825551 889.714286,421.968382 889.757468,422.101392 Z M891.455902,426.989759 C891.75828,427.803772 892.067586,428.608724 892.383996,429.404698 C892.435654,429.534651 892.582879,429.598121 892.712832,429.546463 C892.842785,429.494805 892.906255,429.34758 892.854597,429.217627 C892.539612,428.425238 892.23168,427.623862 891.930627,426.813415 C891.881931,426.682323 891.736184,426.615529 891.605092,426.664225 C891.474001,426.712921 891.407206,426.858667 891.455902,426.989759 Z M893.37062,431.803137 C893.710566,432.601887 894.058121,433.39107 894.413455,434.170724 C894.471451,434.297975 894.621623,434.354117 894.748874,434.296121 C894.876125,434.238126 894.932267,434.087954 894.874271,433.960703 C894.520717,433.184954 894.17488,432.399673 893.836593,431.60482 C893.781829,431.476145 893.633123,431.416228 893.504448,431.470991 C893.375773,431.525755 893.315856,431.674462 893.37062,431.803137 Z M895.524133,436.524495 C895.905221,437.304663 896.294608,438.074674 896.692461,438.834535 C896.757328,438.958424 896.910345,439.006272 897.034234,438.941405 C897.158124,438.876538 897.205971,438.723521 897.141104,438.599631 C896.745454,437.843977 896.358196,437.078177 895.979168,436.302225 C895.91779,436.17657 895.76617,436.124464 895.640516,436.185842 C895.514861,436.24722 895.462755,436.39884 895.524133,436.524495 Z M897.921233,441.100864 C898.34601,441.857531 898.779752,442.603431 899.22262,443.338544 C899.294784,443.458329 899.450391,443.496934 899.570176,443.424769 C899.689962,443.352605 899.728566,443.196998 899.656401,443.077213 C899.216222,442.346561 898.785083,441.605138 898.362828,440.852962 C898.294372,440.731019 898.140023,440.68766 898.01808,440.756116 C897.896137,440.824572 897.852777,440.978921 897.921233,441.100864 Z M900.60129,445.546323 C901.072611,446.274527 901.553542,446.991337 902.044237,447.696711 C902.124097,447.811509 902.281899,447.839833 902.396697,447.759973 C902.511496,447.680113 902.539819,447.522311 902.459959,447.407513 C901.972497,446.706787 901.494705,445.994655 901.02643,445.271156 C900.950445,445.153757 900.793676,445.120184 900.676277,445.196169 C900.558878,445.272155 900.525305,445.428923 900.60129,445.546323 Z M903.57206,449.813601 C903.839402,450.17063 904.109445,450.524487 904.382209,450.875165 C904.633836,451.198693 904.889026,451.521484 905.1476,451.843273 C905.235195,451.952284 905.394576,451.969644 905.503587,451.882049 C905.612597,451.794453 905.629958,451.635072 905.542362,451.526062 C905.285467,451.206361 905.031938,450.885671 904.78195,450.56425 C904.511085,450.216014 904.24292,449.864618 903.97743,449.510062 C903.89361,449.398122 903.734915,449.375326 903.622976,449.459146 C903.511036,449.542966 903.48824,449.701661 903.57206,449.813601 Z M906.802173,453.834418 C907.363706,454.488105 907.937335,455.134311 908.521766,455.771231 C908.616314,455.87427 908.776489,455.881154 908.879528,455.786606 C908.982567,455.692058 908.989451,455.531883 908.894903,455.428844 C908.314221,454.79601 907.744261,454.153937 907.186319,453.504428 C907.095195,453.398349 906.93533,453.386226 906.829251,453.47735 C906.723173,453.568474 906.711049,453.728339 906.802173,453.834418 Z M910.305803,457.651947 C910.912457,458.270449 911.527898,458.876999 912.151085,459.470225 C912.252375,459.566645 912.41265,459.562697 912.509069,459.461407 C912.605489,459.360118 912.601541,459.199843 912.500252,459.103423 C911.881282,458.514214 911.269965,457.911727 910.667341,457.297334 C910.569417,457.197498 910.409101,457.195947 910.309265,457.293871 C910.209429,457.391795 910.207879,457.552111 910.305803,457.651947 Z M914.070252,461.23282 C914.721308,461.809301 915.378616,462.369809 916.041315,462.913242 C916.14945,463.001916 916.308996,462.98614 916.39767,462.878004 C916.486344,462.769869 916.470568,462.610324 916.362432,462.52165 C915.704718,461.982305 915.052276,461.425946 914.405971,460.853672 C914.301272,460.760965 914.141244,460.770687 914.048538,460.875386 C913.955831,460.980085 913.965553,461.140114 914.070252,461.23282 Z M918.071838,464.511677 C918.768796,465.037636 919.469921,465.543552 920.174472,466.028489 C920.289666,466.107777 920.447325,466.078669 920.526613,465.963474 C920.6059,465.84828 920.576792,465.690621 920.461597,465.611333 C919.763175,465.130613 919.068023,464.629008 918.376891,464.107445 C918.265266,464.023207 918.106487,464.045409 918.022249,464.157035 C917.938011,464.26866 917.960213,464.427439 918.071838,464.511677 Z M922.360116,467.458207 C923.104327,467.919663 923.850791,468.356648 924.598853,468.76833 C924.721369,468.835755 924.875347,468.791094 924.942771,468.668578 C925.010196,468.546061 924.965535,468.392084 924.843019,468.324659 C924.102723,467.917251 923.363823,467.484694 922.626987,467.027812 C922.508137,466.954117 922.352048,466.990723 922.278354,467.109574 C922.204659,467.228424 922.241265,467.384513 922.360116,467.458207 Z M926.907411,469.955471 C927.699426,470.334074 928.491815,470.683232 929.283975,471.002166 C929.4137,471.054394 929.561202,470.991572 929.613431,470.861847 C929.66566,470.732122 929.602837,470.58462 929.473112,470.532391 C928.690956,470.217485 927.908322,469.872626 927.125821,469.498571 C926.999651,469.438258 926.848478,469.491646 926.788166,469.617816 C926.727853,469.743985 926.781241,469.895159 926.907411,469.955471 Z M931.726287,471.889284 C932.562366,472.159784 933.396851,472.395399 934.229177,472.595377 C934.365151,472.628047 934.501864,472.544303 934.534534,472.408328 C934.567204,472.272354 934.483459,472.135641 934.347485,472.102971 C933.527957,471.906067 932.705999,471.67399 931.882175,471.407455 C931.749121,471.364407 931.606363,471.437372 931.563316,471.570425 C931.520269,471.703479 931.593233,471.846237 931.726287,471.889284 Z M936.820345,473.063476 C937.704479,473.153473 938.582124,473.165901 939.44502,473.101677 C939.584478,473.091298 939.689117,472.96983 939.678737,472.830372 C939.668358,472.690914 939.54689,472.586275 939.407432,472.596655 C938.574237,472.658668 937.72633,472.646661 936.871629,472.55966 C936.732504,472.545498 936.60824,472.646801 936.594079,472.785926 C936.579917,472.925051 936.68122,473.049315 936.820345,473.063476 Z M942.091782,472.650154 C942.946471,472.417832 943.769575,472.105108 944.550957,471.716142 C944.676147,471.653823 944.727115,471.501817 944.664796,471.376626 C944.602477,471.251436 944.450471,471.200468 944.32528,471.262787 C943.573698,471.636919 942.781696,471.937827 941.958947,472.161467 C941.824,472.198148 941.74434,472.337281 941.781021,472.472228 C941.817703,472.607175 941.956835,472.686836 942.091782,472.650154 Z M946.795681,470.296437 C947.486453,469.752739 948.119579,469.139668 948.686769,468.464141 C948.776692,468.357042 948.762769,468.197324 948.65567,468.107401 C948.548571,468.017478 948.388853,468.031402 948.29893,468.138501 C947.7541,468.787396 947.145988,469.376247 946.482466,469.898496 C946.372578,469.984988 946.353611,470.144185 946.440103,470.254074 C946.526595,470.363962 946.685792,470.382929 946.795681,470.296437 Z M950.150991,466.315117 C950.565639,465.554015 950.90987,464.74517 951.179387,463.895017 C951.221648,463.761712 951.147841,463.619387 951.014536,463.577127 C950.881231,463.534866 950.738906,463.608672 950.696645,463.741978 C950.436894,464.561326 950.105383,465.340283 949.706285,466.072842 C949.639383,466.195644 949.684698,466.34943 949.807501,466.416332 C949.930303,466.483235 950.084089,466.437919 950.150991,466.315117 Z M951.756462,461.252336 C951.77234,461.127152 951.786773,461.001371 951.799756,460.875008 C951.875814,460.130907 951.880768,459.378359 951.816562,458.6133 C951.804867,458.473946 951.682418,458.370458 951.543064,458.382153 C951.40371,458.393848 951.300222,458.516297 951.311917,458.655651 C951.373535,459.389877 951.368788,460.11103 951.295975,460.823381 C951.283416,460.945623 951.26944,461.067416 951.254067,461.188614 C951.236471,461.327347 951.334671,461.454076 951.473404,461.471673 C951.612136,461.489269 951.738866,461.391069 951.756462,461.252336 Z M951.343255,456.006495 C951.116573,455.186268 950.817469,454.363307 950.450073,453.544629 C950.392817,453.417044 950.242973,453.360031 950.115387,453.417287 C949.987802,453.474543 949.930789,453.624387 949.988045,453.751972 C950.345108,454.547626 950.635432,455.346429 950.855134,456.141395 C950.892385,456.276186 951.031853,456.355258 951.166645,456.318006 C951.301436,456.280754 951.380507,456.141286 951.343255,456.006495 Z M949.217838,451.223306 C948.769403,450.493453 948.270369,449.777262 947.726244,449.081559 C947.64009,448.971405 947.480951,448.95195 947.370798,449.038103 C947.260644,449.124257 947.241188,449.283396 947.327342,449.393549 C947.859858,450.074409 948.348001,450.77497 948.786356,451.488417 C948.859565,451.607567 949.015502,451.644811 949.134653,451.571602 C949.253803,451.498394 949.291047,451.342456 949.217838,451.223306 Z M946.005971,447.106155 C945.402394,446.481523 944.765551,445.885954 944.102206,445.325672 C943.995371,445.235435 943.835613,445.248891 943.745377,445.355726 C943.655141,445.462561 943.668597,445.622319 943.775432,445.712555 C944.425731,446.261819 945.05009,446.845713 945.641793,447.458057 C945.738968,447.558622 945.899268,447.56137 945.999833,447.464195 C946.100398,447.36702 946.103146,447.20672 946.005971,447.106155 Z M942.026141,443.747876 C941.295195,443.250562 940.547385,442.800066 939.790438,442.401596 C939.666693,442.336454 939.51357,442.383961 939.448428,442.507707 C939.383287,442.631452 939.430794,442.784575 939.554539,442.849717 C940.294437,443.239213 941.025917,443.679871 941.74127,444.166575 C941.856891,444.24524 942.01439,444.215282 942.093055,444.099661 C942.17172,443.98404 942.141761,443.826541 942.026141,443.747876 Z M937.355428,441.3136 C936.509317,441.002627 935.66614,440.762851 934.834229,440.598141 C934.697048,440.570981 934.563823,440.66017 934.536663,440.797351 C934.509502,440.934532 934.598692,441.067757 934.735872,441.094918 C935.541258,441.254375 936.358975,441.486911 937.180728,441.788932 C937.311988,441.837174 937.457502,441.769875 937.505744,441.638616 C937.553987,441.507357 937.486688,441.361842 937.355428,441.3136 Z M932.180013,440.332264 C931.290629,440.339576 930.410041,440.486947 929.556732,440.765171 C929.423777,440.808521 929.351138,440.951445 929.394488,441.0844 C929.437839,441.217355 929.580762,441.289994 929.713717,441.246644 C930.518315,440.984302 931.347431,440.845546 932.184177,440.838666 C932.324016,440.837516 932.436446,440.723222 932.435305,440.583383 C932.434146,440.443544 932.319852,440.331114 932.180013,440.332264 Z M927.122395,441.969578 C926.395606,442.464949 925.728452,443.057725 925.143947,443.72455 C925.051767,443.829713 925.062291,443.98969 925.167454,444.08187 C925.272616,444.174051 925.432594,444.163526 925.524774,444.058364 C926.081303,443.423454 926.716389,442.859171 927.407614,442.38804 C927.523169,442.309279 927.552997,442.151755 927.474236,442.036199 C927.395475,441.920644 927.23795,441.890817 927.122395,441.969578 Z M923.645803,445.958836 C923.241022,446.779993 922.963382,447.633884 922.827354,448.486603 C922.805324,448.624701 922.899416,448.75451 923.037514,448.77654 C923.175612,448.798569 923.305421,448.704478 923.32745,448.56638 C923.455316,447.76483 923.717217,446.959344 924.100034,446.182744 C924.161864,446.057311 924.110305,445.905505 923.984873,445.843674 C923.85944,445.781844 923.707634,445.833403 923.645803,445.958836 Z M922.881509,451.127867 C923.070477,452.00806 923.436218,452.833461 923.977903,453.579785 C924.060047,453.69296 924.218384,453.718117 924.33156,453.635974 C924.444736,453.55383 924.469892,453.395493 924.387749,453.282317 C923.88776,452.59344 923.550899,451.833217 923.376647,451.021566 C923.347292,450.884838 923.212656,450.797794 923.075928,450.827148 C922.939199,450.856502 922.852155,450.991139 922.881509,451.127867 Z M926.000669,455.475928 C926.217532,455.618645 926.444761,455.755053 926.682304,455.884981 C927.278755,456.208978 927.878449,456.408537 928.506619,456.500212 C928.644997,456.520407 928.773546,456.424601 928.793741,456.286223 C928.813936,456.147845 928.718129,456.019296 928.579751,455.999101 C928.010643,455.916046 927.468028,455.73548 926.924677,455.440329 C926.699764,455.317307 926.484339,455.187986 926.279066,455.052896 C926.162249,454.976019 926.005229,455.008397 925.928352,455.125214 C925.851475,455.242031 925.883852,455.399051 926.000669,455.475928 Z M931.272013,456.271541 C932.051775,456.051453 932.853337,455.711882 933.704526,455.257556 C933.827896,455.191707 933.874526,455.038315 933.808677,454.914944 C933.742828,454.791574 933.589435,454.744945 933.466065,454.810794 C932.644793,455.249151 931.875852,455.574903 931.134451,455.784163 C930.999865,455.822149 930.921556,455.962047 930.959543,456.096633 C930.99753,456.231218 931.137427,456.309527 931.272013,456.271541 Z M935.868488,453.94651 L935.996628,453.861727 C936.644427,453.431952 937.304871,452.972502 938.000048,452.47003 C938.113386,452.38811 938.138855,452.229823 938.056934,452.116485 C937.975014,452.003148 937.816727,451.977679 937.703389,452.059599 C937.185939,452.433611 936.688171,452.783401 936.200849,453.114565 L935.589589,453.523808 C935.472864,453.600824 935.440672,453.757883 935.517688,453.874608 C935.594704,453.991334 935.751762,454.023525 935.868488,453.94651 Z M940.075786,450.924969 L942.122742,449.350227 C942.233422,449.26475 942.253853,449.105734 942.168377,448.995054 C942.0829,448.884374 941.923883,448.863943 941.813204,448.94942 L939.768967,450.522077 C939.657711,450.606802 939.636205,450.765677 939.72093,450.876933 C939.805656,450.988188 939.964531,451.009695 940.075786,450.924969 Z M944.171165,447.781933 L945.036393,447.13591 L945.851465,446.541645 C945.984223,446.446162 946.115711,446.352273 946.246337,446.259696 C946.360432,446.178834 946.387374,446.02079 946.306512,445.906695 C946.22565,445.7926 946.067607,445.765659 945.953512,445.84652 L945.151043,446.42364 L944.308611,447.045584 C944.163777,447.153732 944.016453,447.264314 943.866228,447.377614 C943.754578,447.46182 943.732331,447.620592 943.816537,447.732242 C943.900743,447.843891 944.059515,447.866139 944.171165,447.781933 Z M948.376646,444.820386 L948.411587,444.79807 C949.111624,444.351582 949.837948,443.925506 950.58673,443.522238 C950.709853,443.455928 950.755909,443.302363 950.6896,443.17924 C950.62329,443.056116 950.469724,443.01006 950.346601,443.07637 C949.776835,443.383226 949.219795,443.703151 948.677094,444.035145 L948.103868,444.393709 C947.986045,444.469035 947.951593,444.625613 948.026919,444.743437 C948.102244,444.86126 948.258822,444.895712 948.376646,444.820386 Z M952.887713,442.387271 C953.663732,442.038005 954.455664,441.714013 955.259854,441.417071 C955.391041,441.368631 955.45812,441.223015 955.40968,441.091828 C955.36124,440.960642 955.215625,440.893563 955.084438,440.942002 C954.269284,441.242993 953.466536,441.57141 952.679868,441.925469 C952.552345,441.982864 952.495495,442.13277 952.55289,442.260293 C952.610285,442.387816 952.76019,442.444666 952.887713,442.387271 Z M957.721463,440.604505 C958.543733,440.364631 959.372805,440.15386 960.205516,439.973375 C960.342187,439.943753 960.428966,439.808946 960.399344,439.672275 C960.369721,439.535605 960.234914,439.448825 960.098244,439.478448 C959.253865,439.661462 958.413271,439.875161 957.579641,440.118349 C957.445393,440.157512 957.368311,440.29809 957.407474,440.432338 C957.446637,440.566586 957.587215,440.643668 957.721463,440.604505 Z M962.722835,439.522328 C963.574129,439.401819 964.424419,439.314058 965.27101,439.259805 C965.410568,439.250862 965.516452,439.130478 965.507508,438.99092 C965.498565,438.851363 965.378181,438.745479 965.238623,438.754423 C964.37903,438.809509 963.515869,438.898598 962.651854,439.020908 C962.51339,439.040509 962.417033,439.168645 962.436634,439.307109 C962.456235,439.445572 962.584371,439.541929 962.722835,439.522328 Z M967.873695,439.199659 C968.733996,439.215717 969.586148,439.268025 970.427897,439.357046 C970.566966,439.371754 970.691626,439.27094 970.706333,439.131871 C970.721041,438.992803 970.620227,438.868143 970.481158,438.853435 C969.62473,438.762861 968.757965,438.709656 967.883146,438.693328 C967.743326,438.690718 967.627864,438.801949 967.625255,438.941768 C967.622645,439.081588 967.733875,439.197049 967.873695,439.199659 Z M972.922043,439.735188 C973.763715,439.902749 974.590933,440.109374 975.401862,440.355339 C975.535686,440.395929 975.677076,440.320349 975.717666,440.186525 C975.758257,440.052701 975.682676,439.911311 975.548853,439.870721 C974.721973,439.619918 973.878699,439.409283 973.020921,439.238515 C972.883769,439.211211 972.75045,439.30026 972.723146,439.437413 C972.695841,439.574565 972.784891,439.707884 972.922043,439.735188 Z M977.828509,441.227247 C978.620407,441.556435 979.391035,441.921524 980.140661,442.320914 C980.264081,442.38667 980.417439,442.339925 980.483195,442.216505 C980.548951,442.093085 980.502206,441.939728 980.378786,441.873972 C979.61502,441.467048 978.829804,441.095049 978.022899,440.759622 C977.893768,440.705942 977.745571,440.767108 977.691892,440.896239 C977.638212,441.02537 977.699378,441.173567 977.828509,441.227247 Z M982.35015,443.636031 C983.063522,444.107314 983.752871,444.610148 984.418538,445.142376 C984.527762,445.229706 984.6871,445.211956 984.774429,445.102732 C984.861758,444.993508 984.844009,444.83417 984.734785,444.746841 C984.057303,444.205166 983.35559,443.693313 982.629296,443.213493 C982.512616,443.136409 982.355538,443.168508 982.278454,443.285189 C982.20137,443.40187 982.23347,443.558947 982.35015,443.636031 Z M986.347431,446.828005 C986.96852,447.4198 987.561097,448.034794 988.125662,448.669786 C988.218581,448.774296 988.378629,448.783693 988.483139,448.690774 C988.587649,448.597855 988.597045,448.437807 988.504126,448.333297 C987.930417,447.68802 987.328147,447.062966 986.696773,446.461371 C986.595529,446.364903 986.435252,446.368774 986.338784,446.470017 C986.242316,446.57126 986.246187,446.731537 986.347431,446.828005 Z M989.773526,450.682584 C990.301633,451.383548 990.787485,452.087374 991.232301,452.787317 C991.307307,452.905344 991.463792,452.940219 991.581819,452.865212 C991.699845,452.790206 991.73472,452.633721 991.659714,452.515695 C991.207842,451.804649 990.71437,451.089784 990.178001,450.377853 C990.093851,450.26616 989.93509,450.243832 989.823398,450.327981 C989.711705,450.412131 989.689377,450.570892 989.773526,450.682584 Z M992.499957,454.981153 L992.618095,455.211797 L992.822213,455.626626 L992.988162,455.984836 C993.189423,456.434744 993.373954,456.87732 993.547429,457.325688 C993.59789,457.45611 993.744525,457.520932 993.874947,457.470471 C994.005369,457.42001 994.070191,457.273375 994.01973,457.142953 C993.843112,456.686461 993.655236,456.235864 993.45038,455.777917 L993.279651,455.409344 L993.070383,454.98399 C993.031975,454.908005 992.991723,454.829382 992.949506,454.747987 C992.885119,454.623848 992.732288,454.575409 992.608148,454.639796 C992.484009,454.704183 992.43557,454.857014 992.499957,454.981153 Z M994.360931,459.752259 C994.594888,460.572361 994.791468,461.402591 994.950627,462.240763 C994.976716,462.378152 995.10924,462.468379 995.246629,462.44229 C995.384018,462.416202 995.474245,462.283677 995.448156,462.146288 C995.286163,461.293194 995.086071,460.448131 994.847922,459.613332 C994.809558,459.478853 994.669442,459.400937 994.534963,459.4393 C994.400484,459.477664 994.322568,459.617781 994.360931,459.752259 Z M995.318866,464.808491 C995.401849,465.657227 995.447443,466.510051 995.455878,467.364308 C995.457258,467.504145 995.571738,467.616386 995.711575,467.615018 C995.851412,467.613625 995.963653,467.499145 995.962272,467.359308 C995.953693,466.490307 995.907309,465.622709 995.822882,464.759211 C995.809273,464.620031 995.685414,464.518235 995.546234,464.531843 C995.407054,464.545451 995.305257,464.669311 995.318866,464.808491 Z M995.370793,469.917067 C995.305708,470.767988 995.204086,471.615932 995.066552,472.457863 C995.044006,472.595877 995.137612,472.726037 995.275627,472.748582 C995.413641,472.771128 995.543801,472.677522 995.566346,472.539507 C995.706206,471.68334 995.809549,470.821042 995.875737,469.955689 C995.886402,469.816252 995.782012,469.694571 995.642576,469.683906 C995.503139,469.673241 995.381458,469.777631 995.370793,469.917067 Z M994.533105,475.016656 C994.322132,475.845763 994.076097,476.663818 993.796119,477.467549 C993.750116,477.59961 993.81988,477.743959 993.95194,477.789962 C994.084001,477.835965 994.22835,477.766202 994.274353,477.634141 C994.559111,476.816688 994.809332,475.984716 995.023885,475.141539 C995.05837,475.006014 994.976462,474.868193 994.840937,474.833708 C994.705411,474.799222 994.567591,474.881131 994.533105,475.016656 Z M992.869483,479.801245 C992.518916,480.584013 992.135382,481.346983 991.720516,482.086859 C991.652121,482.208837 991.695557,482.363164 991.817534,482.431559 C991.939511,482.499954 992.093839,482.456518 992.162234,482.334541 C992.58455,481.581376 992.97491,480.804829 993.331668,480.008237 C993.388828,479.880608 993.331701,479.730808 993.204072,479.673648 C993.076443,479.616489 992.926643,479.673616 992.869483,479.801245 Z M990.348124,484.285202 C990.06169,484.698679 989.764912,485.102147 989.458207,485.494979 L989.114894,485.929383 L988.787293,486.330029 C988.6978,486.437487 988.712363,486.597148 988.819821,486.686641 C988.927279,486.776135 989.08694,486.761572 989.176433,486.654113 L989.509382,486.24694 C989.618934,486.110447 989.730988,485.968437 989.857341,485.806672 C990.170024,485.406184 990.47251,484.994955 990.764413,484.573584 C990.844047,484.458629 990.815414,484.300883 990.700459,484.221248 C990.585504,484.141614 990.427758,484.170247 990.348124,484.285202 Z M987.057435,488.213806 C986.461872,488.801396 985.827925,489.369751 985.150741,489.915206 C985.041833,490.002929 985.024659,490.16233 985.112382,490.271239 C985.200105,490.380147 985.359506,490.397321 985.468414,490.309598 C986.159174,489.753207 986.805743,489.173537 987.413107,488.574303 C987.512655,488.476087 987.513735,488.315767 987.415519,488.216218 C987.317303,488.11667 987.156983,488.11559 987.057435,488.213806 Z M983.074825,491.417929 C982.365953,491.876959 981.628311,492.302659 980.860899,492.691924 C980.736182,492.755186 980.686363,492.907573 980.749625,493.032289 C980.812887,493.157006 980.965274,493.206825 981.08999,493.143563 C981.873461,492.746153 982.626491,492.311572 983.350085,491.843008 C983.467467,491.766997 983.501005,491.61022 983.424994,491.492838 C983.348983,491.375456 983.192207,491.341917 983.074825,491.417929 Z M978.525525,493.724945 L978.433949,493.759575 C977.66016,494.05044 976.879861,494.298607 976.093373,494.505675 C975.958138,494.54128 975.877371,494.679773 975.912976,494.815008 C975.948581,494.950244 976.087075,495.03101 976.22231,494.995405 C976.824612,494.83683 977.423352,494.654651 978.018364,494.448192 L978.705606,494.198265 C978.83631,494.148537 978.901954,494.002269 978.852226,493.871565 C978.802498,493.740861 978.656229,493.675217 978.525525,493.724945 Z M973.585196,495.025131 C972.739655,495.154014 971.891775,495.237725 971.042745,495.278531 C970.903062,495.285244 970.795269,495.403922 970.801983,495.543604 C970.808696,495.683287 970.927373,495.79108 971.067056,495.784366 C971.933295,495.742734 972.798522,495.657309 973.661506,495.525768 C973.799753,495.504695 973.894742,495.375541 973.873669,495.237294 C973.852597,495.099047 973.723443,495.004058 973.585196,495.025131 Z M968.480567,495.273425 C967.623916,495.229513 966.775012,495.144318 965.935505,495.021311 C965.797138,495.001037 965.668535,495.09677 965.648261,495.235136 C965.627987,495.373503 965.72372,495.502106 965.862086,495.52238 C966.717073,495.647656 967.581803,495.734439 968.454642,495.779181 C968.594302,495.78634 968.713323,495.678926 968.720482,495.539266 C968.727641,495.399605 968.620228,495.280584 968.480567,495.273425 Z M963.383616,494.526171 C962.525317,494.31858 961.706151,494.078851 960.926338,493.814392 C960.793902,493.769479 960.650133,493.84043 960.60522,493.972865 C960.560307,494.105301 960.631258,494.24907 960.763693,494.293983 C961.557455,494.563173 962.391108,494.807141 963.264564,495.018398 C963.400489,495.051273 963.537328,494.967735 963.570203,494.831811 C963.603079,494.695886 963.519541,494.559047 963.383616,494.526171 Z" id="Stroke-1-Copy-3" fill="#995EFF" fill-rule="nonzero"></path>
                    </g>
                    <g id="Path-+-Path-Copy-3-+-Path-Copy-2-+-Path-Copy-Mask" opacity="0.715913318" transform="translate(666.000000, 378.000000)">
                        <mask id="mask-27" fill="white">
                            <use xlink:href="#path-26"></use>
                        </mask>
                        <g id="Mask" fill-rule="nonzero">
                            <use fill="url(#radialGradient-19)" xlink:href="#path-26"></use>
                            <use fill="url(#linearGradient-20)" xlink:href="#path-26"></use>
                            <use fill="url(#linearGradient-21)" xlink:href="#path-26"></use>
                            <use fill="url(#linearGradient-22)" xlink:href="#path-26"></use>
                            <use fill="url(#linearGradient-23)" xlink:href="#path-26"></use>
                        </g>
                    </g>
                </g>
            </g>
        </g>
    </g>
</svg>