<svg width="100%" height="48" xmlns="http://www.w3.org/2000/svg">
    <g fill="#667285" fill-rule="nonzero">
        <path d="m29.191 34.915-8.378 3.724v-.376c-1.61.41-3.419.65-5.095.752-7.91-.068-14.143-4.305-14.243-9.293v-1.844c2.58 3.826 7.876 6.422 14.243 6.32 2.145.102 4.357-.24 6.2-.752l.738-1.845c-2.179.684-4.592 1.128-6.938 1.128-7.91 0-14.143-4.202-14.243-9.293v-1.503c2.58 3.553 7.876 6.115 14.243 5.945 2.883.17 5.664-.444 8.044-1.504l.368-1.844c-2.312 1.23-5.295 1.947-8.378 1.844-7.91.103-14.143-4.1-14.244-9.292v-1.503c2.58 3.621 7.876 6.218 14.244 6.32a22.465 22.465 0 0 0 9.853-2.596l.369-2.221c-2.547 1.913-6.267 3.177-10.222 3.348-7.91-.17-14.143-4.407-14.244-9.668.067-5.022 6.334-9.224 14.244-9.293 4.692.069 9.082 1.743 11.663 4.476l.268.444h1.843l-.268-.444C26.678 2.357 21.483 0 15.752 0 6.97-.034 0 4.851 0 10.728v19.336c.302 5.74 7.105 10.42 15.685 10.42 5.664.034 10.791-2.255 13.506-5.569z"/>
        <path d="m25.773 48 2.949-12.777-8.48 3.758 5.162-22.138h-9.92l2.58-10.898h31.672l-2.581 10.898H36.832l-2.212 6.013L46.05 17.97 25.773 48zm5.16-15.374-1.474 7.516 12.166-18.755-9.954 4.51 4.424-10.523h9.954l1.843-7.892H19.137l-1.844 7.892h9.954l-4.792 21.01 8.479-3.758zM71.854 12.319v.032c.034 1.13-.34 2.002-1.087 2.648-.748.646-1.767.969-3.093.969-1.325 0-2.412-.42-3.228-1.227-.815-.808-1.223-1.873-1.223-3.165v-2.1c0-1.29.408-2.357 1.19-3.164.815-.807 1.868-1.227 3.16-1.227 1.359 0 2.412.323 3.194.936.781.646 1.155 1.518 1.12 2.648v.033h-2.174c0-.678-.17-1.195-.51-1.518-.34-.323-.883-.484-1.597-.484-.68 0-1.189.258-1.563.775-.373.516-.577 1.162-.577 1.97v2.13c0 .808.204 1.486.577 2.003.408.517.952.775 1.665.775.68 0 1.156-.161 1.496-.484.34-.323.51-.84.51-1.518h2.14v-.032zm12.3-.84c0 1.292-.441 2.39-1.29 3.23-.85.839-1.972 1.259-3.365 1.259-1.393 0-2.48-.42-3.364-1.26-.85-.84-1.29-1.937-1.29-3.229V9.574c0-1.292.44-2.358 1.29-3.23.85-.84 1.971-1.291 3.33-1.291 1.393 0 2.515.42 3.364 1.291.884.84 1.292 1.938 1.292 3.23v1.905h.033zm-2.242-1.938c0-.84-.204-1.485-.646-2.034-.442-.517-1.02-.807-1.8-.807-.748 0-1.36.258-1.768.807-.407.517-.645 1.195-.645 2.034v1.906c0 .84.204 1.517.645 2.066.408.517 1.02.808 1.767.808.782 0 1.36-.259 1.801-.808.442-.516.646-1.227.646-2.066V9.54zm8.019 6.265h-2.243V5.214h2.243v10.592zm12.878 0h-2.242L96.08 8.67h-.034v7.137h-2.242V5.214h2.242l4.486 7.137h.034V5.214h2.242v10.592zm11.247-8.945h-3.194v8.945h-2.242V6.861h-3.126V5.214h8.562v1.647zm9.243 4.295h-4.146v3.036h4.927v1.614h-7.135V5.214h7.135v1.647h-4.893v2.648h4.146v1.647h-.034zm6.218 3.036h4.995v1.614h-7.238V5.214h2.243v8.978zm14.51-3.036h-4.146v3.036h4.927v1.614h-7.136V5.214h7.136v1.647h-4.893v2.648h4.145v1.647h-.034zm12.538 3.23c-.34.42-.85.807-1.563 1.13-.68.323-1.563.484-2.65.484-1.36 0-2.447-.388-3.297-1.195-.85-.807-1.291-1.84-1.291-3.132V9.444c0-1.291.408-2.325 1.257-3.132.816-.807 1.903-1.227 3.194-1.227 1.36 0 2.413.323 3.126.936.714.614 1.088 1.421 1.054 2.455v.032h-2.107c0-.549-.17-1.001-.51-1.324-.34-.323-.85-.484-1.495-.484-.68 0-1.223.258-1.665.742-.407.517-.611 1.163-.611 1.938v2.228c0 .807.204 1.453.645 1.97.442.517 1.02.743 1.733.743.544 0 .952-.065 1.257-.162.306-.097.544-.226.714-.387v-2.067h-2.14V10.22h4.383v4.165h-.034zm5.776-2.81v4.23H160.1V5.214h3.873c1.257 0 2.277.29 2.99.84.714.549 1.088 1.324 1.088 2.293 0 .549-.136 1-.442 1.42-.306.388-.748.71-1.325.97.645.193 1.121.484 1.427.936.272.42.442.969.442 1.614v.775c0 .291.034.614.136.937.068.323.237.549.441.71v.162h-2.31c-.204-.162-.34-.42-.408-.775a5.584 5.584 0 0 1-.102-1.034v-.742c0-.517-.136-.937-.442-1.227-.306-.291-.747-.453-1.29-.453h-1.836v-.064zm0-1.615h1.597c.612 0 1.088-.129 1.393-.387.306-.259.476-.614.476-1.13 0-.485-.17-.873-.476-1.163-.305-.29-.747-.42-1.359-.42h-1.63v3.1zm15.189 3.585h-3.602l-.747 2.293h-2.345l3.772-10.593h2.276l3.738 10.593h-2.344l-.748-2.293zm-3.058-1.68h2.514l-1.223-3.746h-.034l-1.257 3.746zm11.111.097v3.843h-2.243V5.214h4.282c1.291 0 2.277.323 3.024.937.748.613 1.087 1.453 1.087 2.454 0 1.001-.373 1.84-1.087 2.454-.747.614-1.733.937-3.024.937h-2.039v-.033zm0-1.614h2.039c.612 0 1.087-.162 1.427-.485.306-.323.476-.742.476-1.227 0-.517-.17-.936-.476-1.26-.306-.322-.781-.484-1.427-.484h-2.039v3.456zM204 15.806h-2.243v-4.392h-4.553v4.392h-2.243V5.214h2.243v4.553h4.553V5.214H204v10.592z"/>
        <g>
            <path d="M67.122 34.889h-1.39v-7.73h-2.509v-1.252h6.408v1.253h-2.509v7.729zm9.324 0h-1.39v-4.187c0-.537-.102-.93-.305-1.18-.204-.251-.509-.394-.95-.394-.576 0-.983.179-1.254.537-.271.357-.407.966-.407 1.824v3.364h-1.356V25.3h1.356v2.433c0 .394-.034.787-.068 1.253h.102c.17-.322.44-.573.78-.752a2.407 2.407 0 0 1 1.152-.286c1.56 0 2.34.823 2.34 2.505v4.437zm4.713.107c-1.018 0-1.797-.322-2.34-.93-.576-.608-.847-1.467-.847-2.54 0-1.11.27-1.969.78-2.613.508-.644 1.254-.966 2.17-.966.847 0 1.525.286 2 .823.508.537.745 1.288.745 2.254v.788h-4.305c.034.644.203 1.18.508 1.502.305.358.78.537 1.356.537a4.77 4.77 0 0 0 1.051-.107c.34-.072.678-.215 1.051-.394v1.181a3.844 3.844 0 0 1-1.017.358 5.308 5.308 0 0 1-1.152.107zm-.238-5.94c-.44 0-.78.143-1.05.43-.272.286-.408.715-.475 1.288h2.915c0-.573-.135-1.002-.373-1.288-.237-.287-.576-.43-1.017-.43zm10.612.108h-1.56v5.725h-1.39v-5.725h-1.05v-.68l1.05-.43v-.43c0-.786.17-1.395.543-1.788.373-.394.916-.573 1.628-.573.474 0 .949.072 1.423.25l-.372 1.11c-.34-.107-.645-.179-.984-.179-.305 0-.542.107-.678.286-.135.215-.203.501-.203.895v.43h1.56v1.109h.033zm5.662 5.725-.203-.895h-.068a2.111 2.111 0 0 1-.814.752 2.545 2.545 0 0 1-1.186.286c-.78 0-1.356-.215-1.763-.608-.407-.394-.577-1.038-.577-1.861V28.09h1.39v4.187c0 .536.102.894.306 1.18.203.251.508.394.949.394.576 0 .983-.179 1.254-.537.272-.357.407-.966.407-1.825V28.09h1.39v6.799h-1.085zm5.425-1.074c.34 0 .678-.071 1.017-.179v1.074a1.878 1.878 0 0 1-.576.179c-.238.036-.475.071-.746.071-1.288 0-1.933-.715-1.933-2.147v-3.65h-.881v-.644l.95-.536.474-1.432h.847v1.503h1.831v1.11h-1.83v3.65c0 .357.067.608.237.787.101.143.339.214.61.214zm6.815 1.074-.204-.895h-.067a2.111 2.111 0 0 1-.814.752 2.545 2.545 0 0 1-1.187.286c-.78 0-1.356-.215-1.763-.608-.373-.394-.576-1.038-.576-1.861V28.09h1.39v4.187c0 .536.102.894.305 1.18.203.251.509.394.95.394.576 0 .983-.179 1.254-.537.271-.357.407-.966.407-1.825V28.09h1.39v6.799h-1.085zm6.306-6.942c.271 0 .509.036.678.071l-.135 1.36c-.204-.036-.407-.071-.61-.071-.543 0-.984.179-1.323.572-.34.394-.509.859-.509 1.467v3.543h-1.356V28.09h1.085l.17 1.18h.067c.204-.393.509-.715.848-.965a1.889 1.889 0 0 1 1.085-.358zm4.442 7.05c-1.018 0-1.797-.323-2.34-.931-.576-.608-.848-1.467-.848-2.54 0-1.11.272-1.969.78-2.613.509-.644 1.255-.966 2.17-.966.848 0 1.526.286 2 .823.51.537.746 1.288.746 2.254v.788h-4.305c.033.644.203 1.18.508 1.502.305.358.78.537 1.356.537a4.77 4.77 0 0 0 1.051-.107c.34-.072.678-.215 1.051-.394v1.181a3.844 3.844 0 0 1-1.017.358 5.531 5.531 0 0 1-1.152.107zm-.238-5.94c-.44 0-.78.142-1.05.429-.272.286-.408.715-.476 1.288h2.916c0-.573-.135-1.002-.373-1.288a1.343 1.343 0 0 0-1.017-.43zm13.087 2.397c0 1.109-.271 1.968-.813 2.612-.543.608-1.289.93-2.238.93a2.97 2.97 0 0 1-1.594-.43c-.474-.285-.813-.715-1.05-1.252a4.52 4.52 0 0 1-.374-1.86c0-1.11.272-1.968.814-2.577.543-.608 1.288-.93 2.272-.93.915 0 1.661.322 2.203.966.543.644.78 1.467.78 2.54zm-4.679 0c0 1.574.543 2.361 1.662 2.361 1.085 0 1.627-.787 1.627-2.361 0-1.539-.542-2.326-1.627-2.326-.577 0-.983.214-1.255.608-.27.394-.407.966-.407 1.718zm9.494-2.29h-1.56v5.725h-1.39v-5.725h-1.051v-.68l1.051-.43v-.43c0-.786.17-1.395.542-1.788.373-.394.916-.573 1.628-.573.475 0 .95.072 1.424.25l-.373 1.11c-.34-.107-.644-.179-.983-.179-.305 0-.543.107-.678.286-.136.18-.204.501-.204.895v.43h1.56v1.109h.034zm9.629 5.725h-1.39v-4.187c0-.537-.102-.894-.272-1.18-.17-.251-.474-.394-.881-.394-.543 0-.916.179-1.153.537-.237.357-.373.966-.373 1.824v3.4h-1.356V28.09h1.085l.203.895h.068c.17-.322.44-.573.78-.752.339-.179.712-.25 1.119-.25.983 0 1.661.358 1.966 1.073h.102c.203-.322.474-.608.814-.787a2.545 2.545 0 0 1 1.186-.286c.78 0 1.322.214 1.695.608.34.394.543 1.038.543 1.86v4.438h-1.356v-4.187c0-.537-.102-.894-.272-1.18-.203-.251-.474-.394-.881-.394-.543 0-.915.179-1.153.537-.237.357-.373.894-.373 1.61v3.614h-.101zm11.663-3.435c0 1.109-.272 1.968-.814 2.612-.543.608-1.288.93-2.238.93a2.97 2.97 0 0 1-1.593-.43c-.475-.285-.814-.715-1.051-1.252a4.52 4.52 0 0 1-.373-1.86c0-1.11.271-1.968.813-2.577.543-.608 1.289-.93 2.272-.93.915 0 1.661.322 2.204.966.508.644.78 1.467.78 2.54zm-4.68 0c0 1.574.543 2.361 1.662 2.361 1.085 0 1.628-.787 1.628-2.361 0-1.539-.543-2.326-1.628-2.326-.576 0-.983.214-1.254.608-.272.394-.407.966-.407 1.718zm11.935 3.435h-1.39v-4.187c0-.537-.102-.93-.305-1.18-.203-.251-.509-.394-.95-.394-.576 0-1.016.179-1.254.537-.237.357-.407.966-.407 1.824v3.4h-1.356V28.09h1.085l.204.895h.067c.204-.322.475-.573.814-.752.34-.179.746-.25 1.187-.25 1.56 0 2.305.823 2.305 2.505v4.4zm4.713.107c-1.017 0-1.797-.322-2.34-.93-.576-.608-.847-1.467-.847-2.54 0-1.11.271-1.969.78-2.613.508-.644 1.254-.966 2.17-.966.847 0 1.525.286 2 .823.508.537.746 1.288.746 2.254v.788h-4.306c.034.644.203 1.18.509 1.502.305.358.78.537 1.356.537a4.77 4.77 0 0 0 1.05-.107 5.46 5.46 0 0 0 1.052-.394v1.181a3.844 3.844 0 0 1-1.017.358 5.531 5.531 0 0 1-1.153.107zm-.271-5.94c-.441 0-.78.143-1.051.43-.272.286-.407.715-.475 1.288h2.916c0-.573-.136-1.002-.373-1.288-.238-.287-.577-.43-1.017-.43zm3.119-.966h1.492l1.322 3.865c.203.536.339 1.073.407 1.538h.034c.034-.214.101-.5.203-.823.102-.322.576-1.86 1.492-4.58h1.492l-2.747 7.694c-.508 1.395-1.322 2.11-2.508 2.11a3.51 3.51 0 0 1-.882-.107v-1.145c.203.036.44.072.712.072.644 0 1.119-.394 1.39-1.217l.237-.644-2.644-6.763z"/>
        </g>
    </g>
</svg>
