<svg width="100%" height="48" xmlns="http://www.w3.org/2000/svg">
    <g fill="#667285" fill-rule="nonzero">
        <path d="M21.454 24.002c0 1.309 1.016 2.331 2.316 2.331 1.3 0 2.316-1.022 2.316-2.33 0-1.309-1.016-2.331-2.316-2.331-1.3.04-2.316 1.063-2.316 2.33m19.423-2.29c-1.3 0-2.316 1.023-2.316 2.331 0 1.309 1.015 2.331 2.316 2.331 1.3 0 2.316-1.022 2.316-2.33 0-1.31-1.016-2.331-2.316-2.331m0 17.5c-1.3 0-2.316 1.023-2.316 2.331 0 1.309 1.015 2.331 2.316 2.331 1.3 0 2.316-1.022 2.316-2.33 0-1.31-1.016-2.331-2.316-2.331"/>
        <path d="M45.793 2.453c-2.316-2.903-6.46-3.025-8.898-.736l-.285.287-.569.45c-2.316 1.88-5.77 1.717-7.923-.45V1.84A6.338 6.338 0 0 0 25.396.245c-.163 0-.447-.163-.57-.163h-2.315c-.163 0-.285 0-.447.163h-.285c-.162 0-.284.164-.447.164 0 0-.162 0-.162.163-.163 0-.285.164-.447.164 0 0-.163 0-.163.164-.162.163-.284.163-.447.286 0 0-.162 0-.162.163-.163.164-.285.164-.447.287l-.163.163-.284.286-.57.45c-2.315 1.881-5.769 1.718-7.76-.45 0 0-.162 0-.162-.163l-.285-.286C9.427.9 8.411.327 7.273.204h-2.6c0 .164-.163.164-.285.287h-.04c-.732.286-1.422.572-2.032 1.145l-.162.163-.447.45c-.57.572-.854 1.308-1.138 1.88 0 .164-.163.287-.163.45 0 .164-.162.287-.162.573C.08 6.174.08 7.197.406 8.178c0 .164.163.286.163.45v.163c0 .164.162.287.162.45.163.164.163.286.285.573.284.163.569.45.731.572l.285.286.284.287c2.154 2.167 2.154 5.929-.162 8.26-.285.286-.732.735-.854 1.022-.162.163-.162.286-.284.572v.164c-.163.163-.163.286-.285.45v.163c0 .164-.162.286-.162.45v.163c0 .164 0 .287-.163.45v2.167c0 .164 0 .286.163.45v.164a6.695 6.695 0 0 0 1.706 2.903c2.317 2.33 2.317 6.092 0 8.382l-.162.164-.285.286v.164c-.162.163-.284.286-.284.45 0 0 0 .163-.162.163-.163.164-.163.286-.285.45l-.162.163c0 .164-.163.164-.163.287 0 .122-.163.163-.163.286 0 .163 0 .163-.162.286A4.551 4.551 0 0 0 0 41.299v1.145c.163.45.163.859.447 1.145 0 .163.162.286.162.286s0 .164.163.164c0 .163.163.286.163.45 0 0 0 .163.162.163.163.286.285.45.447.572 0 0 0 .164.163.164 0 0 0 .164.162.164 0 .163.163.163.163.163l.162.164c.163.163.285.163.285.286l.162.163s.163 0 .163.164c.162.164.284.286.447.286 0 0 .162 0 .162.164.163.163.285.163.447.286h.081c.163.164.285.164.57.164.162 0 .446.163.568.163h.163c.162 0 .284 0 .447.164h1.3c.447 0 .731-.164 1.138-.164h.162c.163 0 .285-.163.447-.163h.081c.163 0 .285-.164.447-.164h.163c.284-.164.731-.45 1.016-.572l.447-.45.162-.164c2.316-2.453 6.054-2.453 8.33 0 2.6 2.74 6.907 2.617 9.345-.45 1.707-2.167 1.707-5.356 0-7.687-2.316-2.903-6.46-3.026-8.898-.736l-.285.286-.568.45c-2.317 1.881-5.77 1.717-7.924-.45l-.284-.286-.447-.572c-1.87-2.331-1.707-5.807.447-7.974 1.3-1.145 1.869-2.74 1.869-4.334v-.45c0-1.431-.57-2.903-1.707-3.926 0-.163-.162-.163-.162-.286l-.447-.572c-1.87-2.331-1.707-5.807.447-7.974l.162-.163.163-.164c2.316-2.453 6.054-2.453 8.33 0l.162.164.163.163.284.286c.163 0 .163.164.284.164.122 0 .163.164.285.164.122 0 .162.163.284.163.122 0 .163.164.285.164.122 0 .162.163.284.163.122 0 .163.164.285.164.121 0 .162 0 .284.163.163 0 .163 0 .284.164h2.438c.163 0 .285 0 .447-.164h.285c.162 0 .284-.163.447-.163h.162c.163 0 .285-.164.57-.286.568-.287 1.137-.736 1.584-1.145l.162-.164c2.316-2.453 6.055-2.453 8.33 0 2.438 2.903 6.908 2.74 9.224-.286C47.5 7.81 47.5 4.62 45.793 2.453M78.584 20.404c-.853-.859-1.585-1.431-2.6-1.88-.854-.45-1.87-.737-3.17-.737-1.138 0-2.316.286-3.17.736-.853.45-1.584 1.022-2.153 1.881a7.513 7.513 0 0 0-1.3 2.617c-.285 1.022-.447 2.045-.447 3.026 0 .981.162 2.044.569 3.026.284 1.022.853 1.717 1.422 2.453.569.736 1.422 1.309 2.316 1.718.853.45 1.87.572 3.007.572 1.3 0 2.316-.286 3.17-.736.852-.45 1.706-1.022 2.437-1.88l3.007 3.189a9.74 9.74 0 0 1-3.9 2.74c-1.423.572-3.008.858-4.755.858-1.706 0-3.454-.286-4.876-.859-1.422-.572-2.722-1.431-3.738-2.453-1.016-1.022-1.87-2.331-2.438-3.762-.569-1.431-.853-3.19-.853-4.907s.284-3.476.853-4.907c.569-1.43 1.422-2.74 2.438-3.925 1.016-1.022 2.316-1.881 3.738-2.454 1.422-.572 3.17-.858 4.876-.858 1.707 0 3.291.286 4.754.858 1.585.573 2.885 1.595 4.023 2.74l-3.21 2.944m9.752 5.357c0 1.145.162 2.33.569 3.19.284 1.021.853 1.88 1.422 2.616.569.736 1.422 1.309 2.316 1.595.853.45 2.031.572 3.17.572 1.137 0 2.153-.163 3.169-.572.853-.45 1.706-1.022 2.316-1.595.568-.736 1.137-1.595 1.422-2.617.284-1.022.569-2.044.569-3.19 0-1.144-.163-2.33-.57-3.189-.284-1.022-.853-1.88-1.421-2.617-.57-.736-1.423-1.308-2.316-1.594-.854-.45-2.032-.573-3.17-.573s-2.153.164-3.17.573c-.852.45-1.706 1.022-2.315 1.594-.57.736-1.138 1.595-1.422 2.617-.285 1.023-.57 2.045-.57 3.19zm-4.592 0c0-1.718.285-3.312.854-4.784.568-1.432 1.422-2.74 2.6-3.926 1.138-1.145 2.316-2.044 3.9-2.617 1.423-.572 3.008-1.022 4.755-1.022 1.747 0 3.291.286 4.754 1.022 1.422.573 2.722 1.431 3.9 2.617 1.138 1.145 1.87 2.454 2.601 3.926.569 1.43.853 3.025.853 4.784 0 1.717-.284 3.312-.853 4.784-.569 1.431-1.422 2.74-2.6 3.925-1.138 1.145-2.316 1.881-3.901 2.617-1.422.573-3.007 1.023-4.754 1.023-1.707 0-3.291-.287-4.754-1.023-1.422-.572-2.723-1.43-3.901-2.617-1.138-1.145-1.87-2.33-2.6-3.925-.407-1.472-.854-3.067-.854-4.784zm28.646 11.735h4.307V14.352h-4.307v23.144zM111.375 5.93c0-.859.284-1.595.853-2.33.569-.573 1.3-1.023 2.153-1.023.854 0 1.585.286 2.154 1.022.569.573.853 1.431.853 2.331 0 .9-.284 1.595-.853 2.33-.569.573-1.3 1.023-2.154 1.023-.853 0-1.584-.286-2.153-1.022-.569-.614-.853-1.472-.853-2.33zm11.336 8.383h4.348v3.598h.162c.57-1.309 1.422-2.33 2.885-3.026 1.3-.736 2.885-1.145 4.754-1.145 1.138 0 2.154.164 3.17.573 1.015.286 1.869.858 2.6 1.594.732.736 1.3 1.595 1.87 2.74.446 1.145.73 2.453.73 4.048v14.925h-4.388v-13.74c0-1.021-.162-2.044-.447-2.739a6.404 6.404 0 0 0-1.137-1.88c-.447-.45-1.016-.86-1.707-1.023a7.615 7.615 0 0 0-2.032-.286c-.853 0-1.706.163-2.438.45a5.157 5.157 0 0 0-2.031 1.43c-.57.573-1.016 1.432-1.3 2.454-.285 1.022-.447 2.167-.447 3.476v12.021h-4.307v-23.43m36.122 19.505c1.138 0 2.154-.164 3.17-.572 1.015-.45 1.706-1.023 2.437-1.718.57-.736 1.138-1.595 1.423-2.617.284-1.022.568-2.044.568-3.312 0-1.145-.162-2.33-.568-3.312-.285-1.022-.854-1.881-1.423-2.617-.731-.736-1.422-1.308-2.438-1.717-1.015-.45-2.031-.573-3.169-.573s-2.153.164-3.17.573c-1.015.45-1.706 1.022-2.437 1.717-.57.736-1.138 1.595-1.422 2.617-.285 1.022-.57 2.044-.57 3.312 0 1.145.163 2.33.57 3.312.284 1.022.853 1.881 1.422 2.617s1.422 1.309 2.438 1.718c.853.286 2.031.572 3.17.572zm11.946 3.476h-4.307V34.02h-.162c-.854 1.308-2.032 2.167-3.454 2.903-1.422.736-3.007 1.022-4.592 1.022-1.706 0-3.454-.286-4.876-.859-1.422-.572-2.722-1.43-3.738-2.617-1.016-1.145-1.87-2.453-2.316-3.925-.569-1.431-.853-3.026-.853-4.784 0-1.759.284-3.312.853-4.907.569-1.431 1.3-2.74 2.316-3.926a10.02 10.02 0 0 1 3.738-2.616c1.422-.573 3.007-.86 4.876-.86 1.585 0 3.17.287 4.592 1.023 1.422.736 2.6 1.717 3.291 2.903h.163V0h4.307v37.333h.162zm21.982-13.453c0-1.022-.162-1.881-.446-2.74-.285-.859-.732-1.595-1.3-2.167-.57-.572-1.301-1.022-2.032-1.431-.854-.286-1.707-.573-2.885-.573-1.016 0-2.032.164-2.885.573-.854.45-1.585.859-2.316 1.595-.57.572-1.138 1.308-1.422 2.167-.285.858-.57 1.594-.57 2.33h13.816l.04.246zm-13.774 3.598c0 1.022.284 1.881.731 2.74.447.858 1.016 1.594 1.707 2.167a8.294 8.294 0 0 0 2.438 1.308c1.016.287 1.869.45 2.885.45 1.3 0 2.6-.286 3.575-1.022 1.016-.573 1.87-1.431 2.723-2.453l3.291 2.617c-2.438 3.189-5.892 4.784-10.199 4.784-1.869 0-3.453-.287-4.876-.859-1.422-.573-2.722-1.431-3.738-2.617-1.016-1.145-1.869-2.33-2.316-3.925-.569-1.432-.853-3.026-.853-4.785 0-1.717.284-3.312.853-4.784.569-1.43 1.422-2.74 2.438-3.925 1.016-1.145 2.316-1.881 3.738-2.617 1.422-.573 3.007-.859 4.754-.859 2.032 0 3.739.286 5.16 1.022 1.423.736 2.601 1.595 3.454 2.74.854 1.145 1.585 2.453 2.032 3.926.447 1.43.569 2.903.569 4.497v1.595h-18.366zm35.35-7.36c-.568-.573-1.137-1.145-1.869-1.595-.731-.45-1.706-.736-2.722-.736s-1.87.286-2.722.736c-.732.45-1.138 1.022-1.138 1.881 0 .736.284 1.309.731 1.595.447.45 1.016.736 1.585 1.022.569.286 1.3.45 1.869.573.731.163 1.3.286 1.707.286.853.286 1.869.45 2.6.858.853.287 1.585.737 2.154 1.309a8.161 8.161 0 0 1 1.422 1.88c.284.737.569 1.596.569 2.74 0 1.309-.285 2.454-.854 3.313-.568.858-1.3 1.717-2.153 2.33-.853.614-1.87 1.023-3.007 1.309-1.138.286-2.316.45-3.291.45-1.87 0-3.576-.287-5.039-.859-1.422-.573-2.722-1.595-3.9-3.19l3.29-2.74a12.976 12.976 0 0 0 2.317 1.882c.894.572 1.869.859 3.17.859.568 0 1.137 0 1.706-.164s1.016-.286 1.422-.572c.447-.287.731-.573 1.016-.86.284-.449.447-.858.447-1.308 0-.572-.163-1.145-.57-1.594a5.052 5.052 0 0 0-1.421-1.023c-.57-.286-1.138-.45-1.707-.572l-1.706-.45c-.854-.286-1.87-.45-2.6-.736-.854-.286-1.586-.736-2.154-1.145-.57-.45-1.138-1.145-1.585-1.88-.447-.737-.569-1.718-.569-2.74 0-1.145.284-2.331.731-3.19s1.138-1.595 2.032-2.167c.853-.572 1.707-1.022 2.722-1.308a12.105 12.105 0 0 1 3.17-.45c1.584 0 3.007.286 4.47.858 1.422.573 2.6 1.595 3.453 2.904l-3.576 2.494m8.37-19.546h4.308v23.43l9.792-9.854h5.892l-10.483 10.427L244 37.005h-6.176L227.34 25.148v11.859h-4.308V.572"/>
    </g>
</svg>
