<svg version="1.0" xmlns="http://www.w3.org/2000/svg"
 width="100%" height="48" viewBox="0 0 1250.000000 331.000000"
 preserveAspectRatio="xMidYMid meet">
<g transform="translate(0.000000,331.000000) scale(0.100000,-0.100000)"
fill="#667285" stroke="none">
<path d="M10815 2516 c-79 -34 -114 -130 -79 -215 27 -65 70 -91 148 -91 68 0
105 18 137 66 28 43 26 140 -4 185 -41 62 -130 86 -202 55z"/>
<path d="M9400 1745 l0 -715 175 0 175 0 0 56 0 56 37 -32 c70 -62 135 -84
258 -88 93 -3 120 -1 173 17 199 68 307 226 319 471 11 226 -65 401 -219 500
-84 55 -163 73 -289 68 -114 -5 -171 -25 -244 -89 l-35 -31 0 251 0 251 -175
0 -175 0 0 -715z m686 20 c67 -51 96 -118 95 -219 -1 -98 -39 -175 -109 -214
-116 -65 -247 -17 -302 110 -40 92 -20 227 44 296 65 73 195 85 272 27z"/>
<path d="M3960 1705 l0 -675 165 0 165 0 2 395 3 395 299 -395 299 -395 159 0
158 0 0 675 0 675 -165 0 -165 0 -2 -396 -3 -395 -298 395 -298 396 -159 0
-160 0 0 -675z"/>
<path d="M11370 2165 l0 -145 -75 0 -75 0 0 -115 0 -115 74 0 75 0 3 -282 3
-283 27 -51 c35 -67 92 -117 164 -144 52 -19 72 -21 179 -17 126 5 241 34 252
63 3 8 -10 68 -28 135 -27 99 -35 119 -48 113 -98 -41 -160 -39 -189 4 -14 22
-17 57 -20 244 l-4 218 136 0 136 0 0 115 0 115 -135 0 -135 0 0 145 0 145
-170 0 -170 0 0 -145z"/>
<path d="M8690 2090 c-161 -19 -283 -102 -325 -219 -18 -52 -20 -168 -3 -223
16 -55 76 -119 145 -155 32 -17 118 -50 191 -73 144 -47 182 -68 182 -105 0
-44 -39 -58 -138 -53 -95 6 -182 35 -282 94 l-55 33 -54 -111 c-61 -125 -61
-127 10 -168 118 -69 241 -100 399 -100 174 0 285 35 365 114 60 61 79 107 83
207 3 72 0 94 -18 137 -41 96 -144 161 -339 217 -155 44 -198 75 -171 124 16
30 71 41 143 30 49 -8 149 -44 263 -95 12 -5 124 197 124 223 0 21 -136 80
-232 102 -102 23 -203 31 -288 21z"/>
<path d="M5763 2066 c-182 -44 -325 -187 -368 -367 -19 -83 -19 -229 0 -304
48 -186 181 -316 367 -360 82 -19 265 -19 347 0 36 9 92 29 125 46 66 32 156
103 156 122 0 7 -40 52 -89 101 l-88 88 -46 -35 c-139 -106 -313 -95 -394 27
-18 27 -33 55 -33 62 0 12 60 14 362 14 l361 0 -6 103 c-4 56 -13 125 -21 154
-49 182 -168 303 -341 348 -72 18 -257 19 -332 1z m262 -259 c44 -25 85 -87
85 -129 l0 -28 -190 0 c-124 0 -190 4 -190 10 0 18 47 104 66 122 60 53 160
64 229 25z"/>
<path d="M6460 2061 c0 -5 83 -238 185 -516 102 -279 185 -509 185 -511 0 -2
80 -4 178 -4 l178 0 94 305 c52 167 98 301 101 297 4 -4 30 -83 59 -177 28
-93 69 -227 91 -298 l41 -127 176 2 177 3 187 510 c103 281 188 513 188 518 0
4 -78 7 -173 7 l-172 0 -20 -67 c-10 -38 -55 -191 -100 -341 l-81 -273 -100
340 -99 341 -170 0 -171 0 -99 -341 -98 -340 -101 340 -100 341 -178 0 c-103
0 -178 -4 -178 -9z"/>
<path d="M10710 1550 l0 -520 170 0 170 0 0 520 0 520 -170 0 -170 0 0 -520z"/>
</g>
</svg>
