<svg xmlns="http://www.w3.org/2000/svg" xmlns:xlink="http://www.w3.org/1999/xlink" width="187" height="169" viewBox="0 0 187 169">
    <defs>
        <linearGradient id="up2bjtecca" x1="50%" x2="50%" y1="0%" y2="100%">
            <stop offset="0%" stop-color="#FFD8AD"/>
            <stop offset="100%" stop-color="#FAA61B"/>
        </linearGradient>
        <linearGradient id="jqowtvwifc" x1="33.99%" x2="8.794%" y1="87.12%" y2="25.925%">
            <stop offset="0%" stop-color="#FF9D54"/>
            <stop offset="100%" stop-color="#E55C27"/>
        </linearGradient>
        <linearGradient id="u9cn4o29qd" x1="100%" x2="0%" y1="50%" y2="50%">
            <stop offset="0%" stop-color="#F4954F"/>
            <stop offset="100%" stop-color="#FFD233"/>
        </linearGradient>
        <linearGradient id="2c5qhx2n7h" x1="70.638%" x2="20.054%" y1="79.263%" y2="31.498%">
            <stop offset="0%" stop-color="#FFB42B"/>
            <stop offset="100%" stop-color="#FFD56E"/>
        </linearGradient>
        <path id="mya1em3rdb" d="M120.404 0l-8.148 14.04-1.1 1.903-11.319 19.499-1.139 1.963-8.208 14.148-.144.048.144-.048-1.728 2.974-5.96 10.28h-.009l-1.217 2.1-21.374 36.837-21.324-36.75-1.227-2.109.569-.079-.57.08-6.164-10.633-1.718-2.956c.226.079.451.148.676.226l.577.195-.576-.196c-.225-.078-.452-.146-.677-.224L21.836 37.63l-1.14-1.963-11.29-19.459-1.11-1.906L0 0h120.404zM64.03 20.494c-3.125-1.675-7.017-.498-8.69 2.626-1.676 3.126-.5 7.018 2.626 8.692.57.306 1.167.516 1.77.638l-5.16 13.137H67.42l-5.161-13.138c1.814-.365 3.457-1.506 4.4-3.263 1.673-3.126.498-7.017-2.628-8.692z"/>
        <path id="u4w8khs8mg" d="M0.925 0.128L78.181 0.128 78.181 59.23 0.925 59.23z"/>
        <filter id="t26tk8c89e" width="150.8%" height="145.3%" x="-25.4%" y="-22.7%" filterUnits="objectBoundingBox">
            <feGaussianBlur in="SourceGraphic" stdDeviation="11.487"/>
        </filter>
    </defs>
    <g fill="none" fill-rule="evenodd">
        <g>
            <g>
                <path fill="url(#up2bjtecca)" fill-rule="nonzero" d="M43.088 25.231L180.803 25.231 180.803 157.946 43.088 157.946z" opacity=".32" transform="translate(-1329 -1627) translate(1329 1627)"/>
                <g>
                    <path fill="#F9A51C" d="M40.55 20.882l-.335 2.23c-4.054-.62-7.648-.816-10.77-.59.393-.786.806-1.562 1.257-2.317 2.945-.109 6.225.118 9.847.677" transform="translate(-1329 -1627) translate(1329 1627) translate(13.848 4)"/>
                    <g transform="translate(-1329 -1627) translate(1329 1627) translate(13.848 4) translate(3.9 60.085)">
                        <mask id="mxywot5h2f" fill="#fff">
                            <use xlink:href="#mya1em3rdb"/>
                        </mask>
                        <use fill="url(#jqowtvwifc)" fill-rule="nonzero" xlink:href="#mya1em3rdb"/>
                        <path fill="url(#u9cn4o29qd)" fill-rule="nonzero" d="M109.767 43.51c10.661 11.305 16.904 30.189 18.729 51.477 1.729 21.169-.96 44.623-11.621 61.702-10.661 16.959-29.39 27.663-45.621 24.536-16.135-3.247-29.774-20.206-45.333-37.285C10.266 126.86-7.214 109.78-6.638 93.424c.577-16.358 19.21-31.993 34.864-43.3C43.786 38.82 56.271 31.844 70.101 30.16c13.83-1.684 28.91 1.924 39.666 13.35z" filter="url(#t26tk8c89e)" mask="url(#mxywot5h2f)" opacity=".811" transform="rotate(69 61.164 105.767)"/>
                    </g>
                    <g transform="translate(-1329 -1627) translate(1329 1627) translate(13.848 4) translate(24.544 .854)">
                        <mask id="gwrglf61zi" fill="#fff">
                            <use xlink:href="#u4w8khs8mg"/>
                        </mask>
                        <path fill="url(#2c5qhx2n7h)" fill-rule="nonzero" d="M78.18 38.75c0 2.818-.305 5.577-.873 8.228v.01c-.216.971-.471 1.943-.756 2.896-1.003 3.328-2.425 6.47-4.241 9.346H6.806c-1.875-2.985-3.348-6.244-4.36-9.709-.274-.963-.52-1.935-.726-2.926C1.2 44.062.925 41.44.925 38.75c0-6.126 1.433-11.928 3.976-17.083 3.122-.225 6.716-.029 10.77.59l.334-2.23c-3.624-.559-6.902-.784-9.847-.676C12.844 7.854 25.293.127 39.558.127c14.255 0 26.704 7.718 33.4 19.214-2.789-.06-5.862.167-9.23.687l.345 2.229c3.77-.58 7.147-.786 10.112-.639 2.562 5.165 3.996 10.986 3.996 17.132" mask="url(#gwrglf61zi)"/>
                    </g>
                    <path fill="#F9A51C" d="M98.729 22.472c-2.965-.146-6.343.06-10.113.639l-.342-2.229c3.366-.52 6.44-.746 9.228-.686.431.745.844 1.5 1.227 2.276" transform="translate(-1329 -1627) translate(1329 1627) translate(13.848 4)"/>
                    <path fill="#2A2A2A" d="M40.55 20.882l-.335 2.23c-4.054-.62-7.648-.816-10.77-.59-5.792.422-9.955 2.298-12.41 5.606-3.818 5.164-1.187 11.752 3.221 15.334 1.856 1.503 3.878 2.818 6.009 3.987.206.991.451 1.964.726 2.926-2.907-1.444-5.655-3.142-8.149-5.165-5.232-4.23-8.276-12.135-3.622-18.417 3.073-4.143 8.256-6.352 15.482-6.588 2.945-.109 6.225.118 9.847.677M88.617 23.11l-.344-2.229c3.368-.52 6.44-.745 9.229-.686 7.55.128 12.95 2.337 16.1 6.598 4.664 6.282 1.62 14.186-3.612 18.418-2.7 2.189-5.704 4.005-8.895 5.527.285-.952.54-1.924.756-2.896v-.01c2.395-1.258 4.654-2.7 6.715-4.37 4.418-3.582 7.05-10.17 3.22-15.334-2.542-3.436-6.921-5.331-13.057-5.655-2.965-.148-6.342.059-10.112.638" transform="translate(-1329 -1627) translate(1329 1627) translate(13.848 4)"/>
                    <g fill="#2A2A2A">
                        <path d="M127.515 18.84c-2.476 11.3-20.432 17.377-32.31 21.403-.894.304-1.748.588-2.543.864-.747.255-1.444.5-2.082.737-12.557 4.593-26.714 8.227-42.059 10.808-1.895.354-3.82.658-5.744.923-2.552.353-5.124.63-7.677.834-3.681.295-7.02.443-10.082.443-4.016 0-7.57-.255-10.84-.757-3.327-.51-7.127-1.285-10.092-3.141-2.513-1.58-3.878-3.632-4.064-6.096-.394-5.184 4.653-9.947 6.205-11.28 1.6-1.376 4.29-3.546 9.17-6.46 2.925-1.74 6.008-3.38 9.199-4.87l1.138 1.963c-3.18 1.482-6.274 3.112-9.18 4.849-4.731 2.818-7.323 4.909-8.855 6.225-2.788 2.395-5.674 6.126-5.429 9.405.128 1.708 1.149 3.172 3.024 4.35 2.611 1.64 6.126 2.345 9.229 2.828 5.596.854 12.075.95 20.4.293 2.2-.176 4.418-.402 6.627-.697 2.2-.294 4.399-.638 6.579-1.04 15.226-2.562 29.247-6.156 41.676-10.701 1.324-.482 2.876-1.012 4.585-1.591l.088-.03c10.711-3.622 28.628-9.7 30.828-19.742 1.56-7.139-3.584-12.194-10.25-15.837l1.1-1.905c7.323 4.046 13.185 9.848 11.359 18.223" transform="translate(-1329 -1627) translate(1329 1627) translate(13.848 4) translate(0 73.505)"/>
                    </g>
                    <path fill="#2A2A2A" d="M128.81 118.363c-.186 2.464-1.551 4.516-4.073 6.096-2.956 1.856-6.755 2.632-10.084 3.141-3.28.502-6.833.757-10.838.757-3.074 0-6.401-.148-10.083-.442-2.749-.216-5.509-.52-8.257-.923-1.737-.246-3.466-.53-5.184-.844-7.246-1.218-14.225-2.671-20.891-4.349-7.452-1.865-14.52-4.026-21.148-6.45-.864-.315-1.827-.648-2.866-1.012-.57-.187-1.16-.382-1.768-.588-11.88-4.027-29.827-10.113-32.3-21.403-1.797-8.189 3.779-13.923 10.878-17.958l1.11 1.905c-6.44 3.613-11.3 8.6-9.779 15.572 2.15 9.836 19.38 15.854 30.14 19.517.225.079.452.147.677.225 1.748.59 3.339 1.13 4.684 1.621 7.864 2.876 16.356 5.37 25.388 7.46h.01c5.253 1.218 10.661 2.298 16.257 3.241 1.994.363 3.997.687 6.01.962h.009c2.406.324 4.811.59 7.206.775 8.326.658 14.805.56 20.401-.293 3.094-.482 6.618-1.188 9.23-2.828 1.875-1.178 2.885-2.642 3.013-4.35.245-3.28-2.64-7.01-5.419-9.404-1.542-1.327-4.133-3.408-8.856-6.226-3.062-1.825-6.313-3.533-9.68-5.076l1.14-1.963c3.376 1.551 6.626 3.26 9.689 5.096 4.88 2.915 7.58 5.076 9.18 6.46 1.551 1.335 6.588 6.097 6.204 11.28M46.921 25.762L43.498 15.419 36.543 27.871zM82.121 25.762L85.545 15.419 92.499 27.871z" transform="translate(-1329 -1627) translate(1329 1627) translate(13.848 4)"/>
                </g>
                <path fill="#FFC55A" d="M156.838 27.537c-.613.78-1.257 1.734-1.84 2.87-1.401 2.735-1.817 5.307-1.936 7.053.028-1.553-.155-4.394-1.814-7.295-.622-1.09-1.321-1.956-1.962-2.628.81-.94 1.954-2.495 2.774-4.673.806-2.135.982-4.02 1.002-5.25.16 1.357.495 3.102 1.215 5.038.774 2.08 1.743 3.713 2.561 4.885M12.387 30.856c-.984 1.252-2.018 2.78-2.953 4.604-2.247 4.386-2.914 8.513-3.105 11.313.045-2.49-.248-7.048-2.91-11.704-.998-1.746-2.12-3.137-3.147-4.213 1.298-1.507 3.133-4.002 4.45-7.496 1.292-3.426 1.574-6.451 1.607-8.423.258 2.178.794 4.976 1.95 8.082 1.24 3.338 2.795 5.958 4.108 7.837" transform="translate(-1329 -1627) translate(1329 1627)"/>
                <path fill="#E35C26" d="M19.638 8.917c-.54.686-1.106 1.524-1.618 2.523-1.231 2.403-1.597 4.664-1.701 6.2.024-1.367-.136-3.864-1.595-6.414-.547-.956-1.161-1.719-1.724-2.309.711-.826 1.717-2.192 2.438-4.107.708-1.876.863-3.534.88-4.614.142 1.193.436 2.727 1.068 4.428.681 1.829 1.532 3.264 2.252 4.293M134.203 14.132c-.424.576-.87 1.278-1.273 2.115-.969 2.014-1.256 3.91-1.338 5.196.019-1.145-.107-3.238-1.255-5.375-.43-.802-.913-1.441-1.356-1.936.56-.692 1.35-1.837 1.918-3.442.557-1.572.679-2.962.693-3.867.11 1 .342 2.285.84 3.711.535 1.533 1.205 2.735 1.77 3.598M170.753 88.278c-.424.575-.87 1.277-1.272 2.115-.969 2.014-1.256 3.909-1.339 5.196.02-1.145-.106-3.238-1.254-5.376-.43-.801-.914-1.44-1.356-1.935.56-.692 1.35-1.837 1.918-3.443.557-1.572.678-2.962.692-3.867.111 1 .343 2.286.84 3.712.536 1.532 1.205 2.735 1.771 3.598" transform="translate(-1329 -1627) translate(1329 1627)"/>
                <path fill="#FFC55A" d="M186.73 119.398c-.548.698-1.125 1.55-1.646 2.568-1.254 2.447-1.626 4.748-1.733 6.31.026-1.39-.138-3.932-1.623-6.527-.557-.975-1.182-1.75-1.755-2.351.724-.841 1.748-2.233 2.482-4.182.72-1.91.879-3.597.896-4.697.144 1.214.443 2.775 1.088 4.508.692 1.86 1.56 3.322 2.291 4.37" transform="translate(-1329 -1627) translate(1329 1627)"/>
                <path fill="#E35C26" d="M169.958 133.324c-.89 1.132-1.825 2.515-2.669 4.163-2.032 3.965-2.634 7.694-2.808 10.227.04-2.252-.223-6.371-2.63-10.58-.902-1.578-1.916-2.835-2.845-3.81 1.174-1.361 2.832-3.616 4.024-6.775 1.167-3.096 1.423-5.831 1.451-7.613.233 1.966.72 4.498 1.763 7.305 1.122 3.017 2.527 5.385 3.714 7.083" transform="translate(-1329 -1627) translate(1329 1627)"/>
                <g stroke-width=".69">
                    <path stroke="#FFC55A" d="M5.804 7.688c-1.704 1.15-4.017.7-5.167-1.004-1.15-1.704-.7-4.017 1.003-5.167 1.705-1.15 4.018-.7 5.168 1.004 1.15 1.704.7 4.017-1.004 5.167z" transform="translate(-1329 -1627) translate(1329 1627) rotate(43 22.227 199.083)"/>
                    <path stroke="#F9A51C" d="M8.8 5.56c-1.392.939-3.281.572-4.22-.82-.94-1.391-.572-3.28.82-4.22 1.391-.939 3.281-.572 4.219.82.94 1.392.572 3.281-.82 4.22z" transform="translate(-1329 -1627) translate(1329 1627) rotate(43 22.227 199.083)"/>
                </g>
            </g>
        </g>
    </g>
</svg>
