<svg xmlns="http://www.w3.org/2000/svg" xmlns:xlink="http://www.w3.org/1999/xlink" width="100%" height="385" viewBox="0 0 439 385">
    <defs>
        <linearGradient id="nc3r78mloa" x1="-47.089%" x2="100%" y1="-48.216%" y2="100%">
            <stop offset="0%" stop-color="#FAF4EA"/>
            <stop offset="100%" stop-color="#FFA600"/>
        </linearGradient>
        <linearGradient id="1n1uv8v2yd" x1="72.543%" x2="0%" y1="50%" y2="50%">
            <stop offset="0%" stop-color="#E53727"/>
            <stop offset="100%" stop-color="#F4954F"/>
        </linearGradient>
        <linearGradient id="hwvtwpxgfg" x1="100%" x2="50%" y1="50%" y2="36.424%">
            <stop offset="0%" stop-color="#F4954F"/>
            <stop offset="100%" stop-color="#FFC733"/>
        </linearGradient>
        <linearGradient id="nxvmvdjeji" x1="67.286%" x2="32.956%" y1="35.904%" y2="60.917%">
            <stop offset="0%" stop-color="#FF9D54"/>
            <stop offset="100%" stop-color="#FD5F22"/>
        </linearGradient>
        <linearGradient id="4vj1uz439j" x1="28.098%" x2="94.379%" y1="47.447%" y2="56.774%">
            <stop offset="0%" stop-color="#E04D23"/>
            <stop offset="100%" stop-color="#F28448"/>
        </linearGradient>
        <linearGradient id="jvn3vmnwbk" x1="25.776%" x2="162.004%" y1="93.256%" y2="-34.532%">
            <stop offset="0%" stop-color="#FC9C00"/>
            <stop offset="100%" stop-color="#FED376"/>
            <stop offset="100%" stop-color="#FFC445"/>
        </linearGradient>
        <linearGradient id="e5cvwgvc7l" x1="80.581%" x2="29.952%" y1="95.606%" y2="18.195%">
            <stop offset="0%" stop-color="#FBB33E"/>
            <stop offset="100%" stop-color="#FED376"/>
        </linearGradient>
        <linearGradient id="e67dovye1m" x1="69.783%" x2="22.547%" y1="85.67%" y2="-49.929%">
            <stop offset="0%" stop-color="#FBB33E"/>
            <stop offset="100%" stop-color="#FED376"/>
        </linearGradient>
        <linearGradient id="sqsbqiys9n" x1="37.775%" x2="57.014%" y1="98.745%" y2="8.139%">
            <stop offset="0%" stop-color="#FBB33E"/>
            <stop offset="100%" stop-color="#FED376"/>
        </linearGradient>
        <linearGradient id="plgicglo3o" x1="46.483%" x2="35.604%" y1="46.41%" y2="52.567%">
            <stop offset="0%" stop-color="#FF9D54"/>
            <stop offset="100%" stop-color="#FD5F22"/>
        </linearGradient>
        <filter id="c8ixv0q9be" width="243.9%" height="260.9%" x="-72%" y="-80.5%" filterUnits="objectBoundingBox">
            <feGaussianBlur in="SourceGraphic" stdDeviation="41.382"/>
        </filter>
        <filter id="w58fxtn78h" width="238.3%" height="254.4%" x="-69.2%" y="-77.2%" filterUnits="objectBoundingBox">
            <feGaussianBlur in="SourceGraphic" stdDeviation="39.818"/>
        </filter>
        <radialGradient id="yjsvdy0p7c" cx="50%" cy="50%" r="172.376%" fx="50%" fy="50%" gradientTransform="scale(1 .3817) rotate(79.793 .016 .905)">
            <stop offset="0%" stop-color="#F5CC93"/>
            <stop offset="100%" stop-color="#FFA237"/>
        </radialGradient>
        <path id="8ta4ed54ub" d="M35.562 0C55.078 0 70.899 15.82 70.9 35.336v149.818H.225V35.336C.226 15.821 16.046 0 35.562 0z"/>
    </defs>
    <g fill="none" fill-rule="evenodd">
        <g>
            <g>
                <g>
                    <path fill="url(#nc3r78mloa)" fill-rule="nonzero" d="M409.957 192.425c0 106.274-86.152 192.424-192.424 192.424-51.035 0-99.98-20.27-136.068-56.357-36.087-36.087-56.36-85.032-56.36-136.067C25.106 86.153 111.259 0 217.546 0c106.287 0 192.412 86.153 192.412 192.425z" opacity=".556" transform="translate(-793 -3735) translate(794 3735) translate(27.27)"/>
                    <path stroke="#E75A2B" stroke-dasharray="1 3" stroke-linecap="round" stroke-width=".7" d="M31.176 227.08c-31.956-6.747-43.223-48.029-14-66.202 11.562-7.188 24.718-7.985 37.104-2.481 17.669 7.849 31.853 17.87 52.018 12.266 16.522-4.59 29.468-17.958 32.846-34.862" transform="translate(-793 -3735) translate(794 3735) translate(27.27)"/>
                    <path fill="#2B2B2B" fill-rule="nonzero" d="M175.27 205.258c1.652 3.314 2.368 7.031 2.713 10.694l-.007.002c.027.3.055.602.077.903.443-.4.9-.818 1.365-1.259 2.593-.641 5.184-1.292 7.777-1.934 11.127-2.745 22.201-5.698 33.222-8.861-.758 5.185-5.246 9.964-9.668 14.488l-.646.66-.322.33c-5.11 5.22-10.443 9.022-9.816 10.021.35.57 2.143-.527 4.57.25 2.282.745 3.585 2.65 3.92 3.182 2.832 4.495.25 14.537 1.015 11.546.169-.666 5.375-1.653 8.988.81 13.356 9.11-3.533 28.645-10.206 36.373-25.83 29.896-52.252 56.25-83.834 78.358-15.624-8.636-30.104-19.48-42.953-32.33-5.056-5.056-9.802-10.365-14.226-15.896 3.579-1.383 6.814-2.738 9.36-3.984 6.6-3.228 18.965-13.797 30.928-24.807l1.666-1.538.531-.492 1.059-.985 1.053-.984c9.806-9.172 18.815-18.072 23.468-22.717l.738-.738.376-.377.513-.514c.696-.698 1.191-1.198 1.457-1.466l.106-.108.119-.12c8.08-8.204 11.546-18.734 14.59-29.549.36-1.28.68-2.606.994-3.953 1.136-4.786 2.238-9.834 4.794-14.006 1.025-1.669 2.428-3.1 4.004-4.126 4.11-2.68 9.405-2.615 12.276 3.127z" transform="translate(-793 -3735) translate(794 3735) translate(27.27)"/>
                    <g transform="translate(-793 -3735) translate(794 3735) translate(27.27) translate(250.274 73.73)">
                        <mask id="h31rgpgumf" fill="#fff">
                            <use xlink:href="#8ta4ed54ub"/>
                        </mask>
                        <use fill="url(#yjsvdy0p7c)" fill-rule="nonzero" opacity=".8" xlink:href="#8ta4ed54ub"/>
                        <path fill="url(#1n1uv8v2yd)" fill-rule="nonzero" d="M147.878-23.629c13.558 11.476 21.497 30.644 23.818 52.254 2.199 21.488-1.221 45.295-14.78 62.632-13.557 17.214-37.376 28.08-58.018 24.906-20.52-3.296-37.865-20.51-57.653-37.848C21.335 60.98-.895 43.642-.162 27.038c.733-16.604 24.43-32.476 44.339-43.952C63.964-28.39 79.843-35.472 97.432-37.181c17.589-1.71 36.766 1.954 50.446 13.552z" filter="url(#c8ixv0q9be)" mask="url(#h31rgpgumf)" transform="rotate(-87 86.066 39.567)"/>
                        <g stroke="#FFF6C8" stroke-width=".971" mask="url(#h31rgpgumf)" opacity=".609">
                            <g>
                                <path d="M122.587 143.37c-12.134 1.517-16.269-23.327-35.403-26.067-14.205-2.032-19.214 10.617-33.224 8.147-15.879-2.799-29.926-22.648-26.145-34.753 3.676-11.769 22.459-10.629 24.51-21.72C54.187 58.91 39.47 53.9 40.342 41.283c.643-9.274 9.45-18.907 19.608-20.092 11.652-1.359 22.31 8.717 25.6 18.462 5.101 15.108-8.852 25.434-2.724 36.383 3.414 6.096 8.653 4.526 26.145 13.031 16.363 7.957 25.836 12.562 28.867 21.721 4.243 12.823-5.225 31.325-15.251 32.58z" transform="translate(-105.975 -26.756) rotate(130 83.035 82.252)"/>
                                <path d="M109.41 122.394c-8.017.999-10.75-15.365-23.396-17.17-9.387-1.339-12.697 6.993-21.957 5.366-10.494-1.843-19.777-14.92-17.279-22.893 2.43-7.752 14.844-7 16.2-14.307 1.23-6.632-8.497-9.933-7.92-18.244.424-6.109 6.244-12.453 12.959-13.234 7.7-.896 14.743 5.742 16.917 12.162 3.372 9.952-5.849 16.753-1.8 23.965 2.256 4.016 5.72 2.983 17.278 8.585 10.814 5.241 17.076 8.275 19.077 14.308 2.805 8.448-3.452 20.635-10.079 21.462z" transform="translate(-105.975 -26.756) rotate(130 83.272 82.134)"/>
                            </g>
                        </g>
                        <g stroke="#FFF6C8" stroke-width=".971" mask="url(#h31rgpgumf)" opacity=".609">
                            <g>
                                <path d="M92.455 108.256c-9.142 1.135-12.276-17.595-26.696-19.674-10.706-1.542-14.471 7.99-25.03 6.117-11.967-2.12-22.566-17.093-19.726-26.215 2.762-8.868 16.916-7.996 18.454-16.355 1.396-7.586-9.698-11.373-9.05-20.883.479-6.99 7.107-14.245 14.762-15.131 8.78-1.016 16.817 6.586 19.304 13.935 3.854 11.392-6.653 19.165-2.028 27.423 2.577 4.598 6.524 3.418 19.711 9.841 12.336 6.01 19.478 9.488 21.768 16.394 3.206 9.669-3.915 23.609-11.47 24.548z" transform="translate(29.018 59.381) rotate(130 62.625 62.164)"/>
                                <path d="M82.522 92.434c-6.04.747-8.111-11.59-17.642-12.96-7.074-1.015-9.562 5.263-16.541 4.03-7.91-1.397-14.914-11.26-13.037-17.269 1.826-5.841 11.18-5.266 12.197-10.773.921-4.998-6.41-7.493-5.981-13.757.315-4.605 4.696-9.383 9.755-9.967 5.802-.67 11.114 4.339 12.757 9.18 2.548 7.504-4.395 12.624-1.34 18.063 1.703 3.03 4.312 2.253 13.027 6.484 8.152 3.958 12.872 6.25 14.385 10.799 2.12 6.37-2.587 15.551-7.58 16.17z" transform="translate(29.018 59.381) rotate(130 62.809 62.072)"/>
                            </g>
                        </g>
                        <g stroke="#FFF6C8" stroke-width=".971" mask="url(#h31rgpgumf)" opacity=".609">
                            <g>
                                <path d="M69.54 81.255c-6.862.844-9.233-13.228-20.061-14.803-8.04-1.169-10.858 5.987-18.787 4.571-8.987-1.605-16.96-12.861-14.835-19.71 2.065-6.659 12.693-5.99 13.84-12.267 1.04-5.697-7.293-8.552-6.815-15.695.352-5.25 5.322-10.693 11.068-11.351 6.59-.755 12.633 4.963 14.507 10.485 2.905 8.56-4.976 14.39-1.496 20.596 1.94 3.457 4.901 2.574 14.808 7.412 9.268 4.525 14.633 7.145 16.36 12.334 2.416 7.266-2.918 17.73-8.588 18.428z" transform="rotate(152 70.598 36.21) rotate(130 47.118 46.612)"/>
                                <path d="M64.652 70.728c-4.534.556-6.1-8.713-13.258-9.751-5.312-.77-7.174 3.944-12.415 3.01-5.94-1.056-11.208-8.471-9.805-12.983 1.366-4.386 8.39-3.945 9.148-8.08.687-3.754-4.82-5.635-4.504-10.34.232-3.458 3.517-7.043 7.315-7.477 4.355-.497 8.348 3.27 9.586 6.908 1.92 5.639-3.288 9.478-.988 13.567 1.281 2.276 3.24 1.696 9.786 4.882 6.124 2.981 9.67 4.707 10.81 8.125 1.598 4.787-1.927 11.68-5.675 12.14z" transform="rotate(152 70.598 36.21) rotate(130 49.834 47.908)"/>
                            </g>
                        </g>
                        <path fill="url(#hwvtwpxgfg)" fill-rule="nonzero" d="M66.65 136.532c13.577 11.51 21.527 30.732 23.85 52.404 2.202 21.55-1.222 45.425-14.799 62.81-13.576 17.265-37.427 28.162-58.098 24.978-20.548-3.306-37.916-20.57-57.73-37.956-19.938-17.386-42.198-34.772-41.465-51.424.734-16.651 24.463-32.568 44.4-44.078 19.814-11.509 35.715-18.61 53.327-20.324 17.613-1.715 36.816 1.959 50.515 13.59z" filter="url(#w58fxtn78h)" mask="url(#h31rgpgumf)"/>
                        <g stroke="#FFF6C8" stroke-width=".971" mask="url(#h31rgpgumf)" opacity=".609">
                            <g>
                                <path d="M92.455 108.256c-9.142 1.135-12.276-17.595-26.696-19.674-10.706-1.542-14.471 7.99-25.03 6.117-11.967-2.12-22.566-17.093-19.726-26.215 2.762-8.868 16.916-7.996 18.454-16.355 1.396-7.586-9.698-11.373-9.05-20.883.479-6.99 7.107-14.245 14.762-15.131 8.78-1.016 16.817 6.586 19.304 13.935 3.854 11.392-6.653 19.165-2.028 27.423 2.577 4.598 6.524 3.418 19.711 9.841 12.336 6.01 19.478 9.488 21.768 16.394 3.206 9.669-3.915 23.609-11.47 24.548z" transform="translate(-79.754 115.71) rotate(130 62.625 62.164)"/>
                                <path d="M82.522 92.434c-6.04.747-8.111-11.59-17.642-12.96-7.074-1.015-9.562 5.263-16.541 4.03-7.91-1.397-14.914-11.26-13.037-17.269 1.826-5.841 11.18-5.266 12.197-10.773.921-4.998-6.41-7.493-5.981-13.757.315-4.605 4.696-9.383 9.755-9.967 5.802-.67 11.114 4.339 12.757 9.18 2.548 7.504-4.395 12.624-1.34 18.063 1.703 3.03 4.312 2.253 13.027 6.484 8.152 3.958 12.872 6.25 14.385 10.799 2.12 6.37-2.587 15.551-7.58 16.17z" transform="translate(-79.754 115.71) rotate(130 62.809 62.072)"/>
                            </g>
                        </g>
                    </g>
                    <path fill="url(#nxvmvdjeji)" fill-rule="nonzero" d="M145.8 123.466c-9.131 4.374-17.187 11.134-25.322 16.517-.676.45-.522 1.44.28 1.765 42.092 17.125 85.154 31.758 128.965 43.821 10.199 2.806 19.238 5.164 29.178 7.61 1.189.29-1.399-1.757-2.408-2.431-31.163-20.76-63.025-46.69-95.533-65.638-10.816-6.293-16.273-8.13-28.628-4.232-2.235.707-4.418 1.572-6.531 2.588z" opacity=".758" transform="translate(-793 -3735) translate(794 3735) translate(27.27)"/>
                    <path fill="url(#4vj1uz439j)" fill-rule="nonzero" d="M261.304 191.723c-.266-1.107-20.121.064-34.664-.232l-5.9-.119-16.536-.336c-12.576-.248-25.151 2.72-37.727 2.464l-27.556-.562c-3.615-.072-7.3-.897-10.915-.599-5.087.42-9.805-.45-8.867 4.058 3.349 16.08 8.61 24.516 14.898 26.158 6.287 1.643 12.421-.288 20.167-2.292 1.137-4.786 2.238-9.834 4.794-14.006 3.697-6.019 12.302-8.935 16.273-.994 1.65 3.307 2.367 7.024 2.712 10.691l1.45-.348c2.593-.642 5.184-1.293 7.777-1.934 11.127-2.745 22.201-5.699 33.222-8.862l1.522-.437 1.32-.38c12.864-3.737 38.48-10.398 38.03-12.27z" transform="translate(-793 -3735) translate(794 3735) translate(27.27)"/>
                    <path fill="#2A2B2A" fill-rule="nonzero" d="M125.913 141.594c-2.665-.713-5.087-2.002-6.872-.915-2.365 1.44-2.452 8.662.591 9.488 38.461 10.442 120.02 32.53 158.982 43.1h.305c.06 0 .143-.052.117-.06-.234-.1-23.079-8.317-29.58-10.653-22.673-8.147-34.069-13.661-55.513-20.902-21.02-7.098-50.673-15.414-68.03-20.058z" transform="translate(-793 -3735) translate(794 3735) translate(27.27)"/>
                    <g fill-rule="nonzero">
                        <g>
                            <path fill="#E25E31" d="M13.177 26.616c1.833-.05 3.64-.452 5.321-1.184 13.31-6.126 7.979-23.91-3.632-25.268 12.792-.273 19.303 18.938 5.353 25.36-2.211.976-4.64 1.352-7.042 1.092z" transform="translate(-793 -3735) translate(794 3735) translate(27.27) translate(163.272 141.514)"/>
                            <path fill="url(#jvn3vmnwbk)" d="M18.473 25.447c-1.676.724-3.475 1.121-5.3 1.169C.41 26.864-6.078 7.678 7.858 1.256c2.198-.972 4.612-1.35 7.002-1.1 11.586 1.383 16.921 19.165 3.612 25.291z" transform="translate(-793 -3735) translate(794 3735) translate(27.27) translate(163.272 141.514)"/>
                            <path fill="#020202" d="M14.751 14.938l1.054 1.531c-1.054.721-2.41.836-3.57.301l-.746 1.024-1.584-1.158.796-1.06c-.612-.7-.945-1.602-.932-2.533.037-1.96 1.319-3.68 3.187-4.276.882-.273 1.833-.21 2.67.179l.84-1.122 1.585 1.157-.821 1.1c.885.974 1.16 2.355.719 3.594l-1.768-.577c.28-.808-.005-1.704-.701-2.2-1.05-.781-2.395-.51-3.272.646-.878 1.156-.746 2.536.313 3.317.645.52 1.558.552 2.238.077h-.008z" transform="translate(-793 -3735) translate(794 3735) translate(27.27) translate(163.272 141.514)"/>
                        </g>
                    </g>
                    <g fill-rule="nonzero">
                        <g>
                            <path fill="#E25E31" d="M33.993 31.519c1.462-2.137 2.499-4.535 3.053-7.064C41.039 4.167 16.288-4.433 5.139 7.725c10.259-14.86 37.62-6.43 33.431 14.833-.71 3.333-2.286 6.42-4.567 8.95l-.01.01z" transform="translate(-793 -3735) translate(794 3735) translate(27.27) translate(130.204 125.602)"/>
                            <path fill="url(#e5cvwgvc7l)" d="M37.046 24.49c-.556 2.516-1.589 4.902-3.043 7.029C23.744 46.327-3.573 37.889.607 16.64c.708-3.316 2.27-6.39 4.532-8.916C16.278-4.391 41.024 4.202 37.046 24.49z" transform="translate(-793 -3735) translate(794 3735) translate(27.27) translate(130.204 125.602)"/>
                            <path fill="#020202" d="M21.94 20.062l2.622.06c-.047 1.802-1.037 3.448-2.608 4.333l.55 1.71-2.636.856-.554-1.788c-1.307.122-2.613-.243-3.668-1.024-2.213-1.664-3.12-4.552-2.257-7.183.416-1.233 1.274-2.269 2.409-2.906l-.59-1.89 2.634-.855.581 1.847c1.845-.212 3.657.61 4.712 2.138l-2.12 1.547c-.691-.99-1.953-1.405-3.096-1.017-1.76.554-2.564 2.317-1.967 4.274.597 1.957 2.292 2.941 4.053 2.387 1.125-.308 1.913-1.32 1.934-2.487v-.002z" transform="translate(-793 -3735) translate(794 3735) translate(27.27) translate(130.204 125.602)"/>
                        </g>
                    </g>
                    <g fill-rule="nonzero">
                        <g>
                            <path fill="#E25E31" d="M20.343 21.999c1.191-1.164 2.147-2.546 2.817-4.07C28.252 5.63 13.727-2.934 5.15 3.322c8.358-8.076 24.551.716 19.21 13.602-.87 2.015-2.255 3.765-4.017 5.075z" transform="translate(-793 -3735) translate(794 3735) translate(27.27) translate(199.82 156.68)"/>
                            <path fill="url(#e67dovye1m)" d="M23.155 17.949c-.671 1.516-1.626 2.89-2.812 4.05-8.354 8.04-24.52-.746-19.184-13.625.866-2.004 2.242-3.746 3.99-5.052 8.57-6.231 23.1 2.332 18.006 14.627z" transform="translate(-793 -3735) translate(794 3735) translate(27.27) translate(199.82 156.68)"/>
                            <path fill="#020202" d="M14.19 13.24l1.648.37c-.26 1.131-1.092 2.044-2.196 2.404l.13 1.149-1.77.206-.125-1.198c-.84-.09-1.62-.486-2.185-1.114-1.184-1.331-1.39-3.268-.513-4.818.421-.724 1.094-1.268 1.89-1.527l-.132-1.268 1.77-.206.132 1.243c1.192.099 2.231.848 2.703 1.947l-1.534.706c-.31-.714-1.054-1.136-1.825-1.035-1.181.127-1.912 1.137-1.783 2.45.13 1.312 1.072 2.145 2.255 2.018.75-.052 1.374-.592 1.534-1.325v-.002z" transform="translate(-793 -3735) translate(794 3735) translate(27.27) translate(199.82 156.68)"/>
                        </g>
                    </g>
                    <g fill-rule="nonzero">
                        <g>
                            <path fill="#E25E31" d="M13.645 23.772c1.592-.305 3.112-.913 4.475-1.79C28.9 14.728 21.708-.083 11.352.377 22.511-1.678 30.94 14.214 19.64 21.812c-1.795 1.17-3.867 1.846-6.007 1.96h.013z" transform="translate(-793 -3735) translate(794 3735) translate(27.27) translate(103.104 122.121)"/>
                            <path fill="url(#sqsbqiys9n)" d="M18.118 21.996c-1.365.872-2.884 1.475-4.476 1.776C2.506 25.805-5.9 9.928 5.388 2.332 7.173 1.172 9.23.5 11.355.378 21.7-.065 28.898 14.744 18.118 21.996z" transform="translate(-793 -3735) translate(794 3735) translate(27.27) translate(103.104 122.121)"/>
                            <path fill="#020202" d="M13.366 13.324l1.142 1.193c-.823.78-1.993 1.073-3.086.771l-.515.995-1.551-.788.547-1.042c-.636-.526-1.055-1.268-1.176-2.084-.246-1.722.632-3.41 2.183-4.197.733-.363 1.574-.442 2.362-.22l.577-1.105 1.551.788-.562 1.08c.915.724 1.356 1.894 1.146 3.043l-1.628-.249c.124-.743-.254-1.48-.93-1.812-1.032-.535-2.17-.11-2.772 1.026-.602 1.137-.286 2.328.746 2.862.637.363 1.437.262 1.964-.248l.002-.013z" transform="translate(-793 -3735) translate(794 3735) translate(27.27) translate(103.104 122.121)"/>
                        </g>
                    </g>
                    <path stroke="#FFC55A" stroke-linecap="round" stroke-width="1.859" d="M172.511 241.215c3.713-8.316 5.537-17.35 5.343-26.454" transform="translate(-793 -3735) translate(794 3735) translate(27.27)"/>
                    <path fill="url(#plgicglo3o)" fill-rule="nonzero" d="M107.97 147.089c-3.4-.92-12.99 10.994-14.82 13.177-4.872 5.81-9.944 12.946-11.354 20.567-5.47 29.51 65.226 23.208 81.509 22.141 39.475-2.588 59.41-5.138 98.93-6.85 4.753-.207 9.22-.207 14.27-.62.524-.043 2.172-.396 2.766-.789.593-.393.274-1.157-.594-1.48L107.97 147.09z" transform="translate(-793 -3735) translate(794 3735) translate(27.27)"/>
                    <path stroke="#FFC55A" stroke-linecap="round" stroke-width="1.859" d="M198.006 231.165c-6.318 3.52-13.021 8.426-16.95 14.607-2.222 3.496-4.602 9.035-3.06 13.252 1.243 3.384 4.724 4.617 8.083 4.364 3.943-.296 7.193-2.735 10.042-5.271 4.12-3.685 8.046-7.603 11.807-11.656" transform="translate(-793 -3735) translate(794 3735) translate(27.27)"/>
                    <path stroke="#FFC55A" stroke-linecap="round" stroke-width="1.859" d="M207.928 246.46c-4.77 4.062-9.09 8.624-12.886 13.608-3.48 4.513-8.374 10.863-4.167 16.512 7.546 10.134 20.994-3.536 25.609-9.86" transform="translate(-793 -3735) translate(794 3735) translate(27.27)"/>
                </g>
                <path fill="#FFF2DB" d="M244.275 86.593c-.966 1.243-1.98 2.762-2.9 4.573-2.207 4.356-2.862 8.453-3.05 11.235.045-2.474-.243-7-2.858-11.622-.98-1.736-2.081-3.116-3.091-4.186 1.275-1.497 3.078-3.974 4.371-7.445 1.269-3.4 1.547-6.405 1.578-8.363.254 2.161.78 4.941 1.916 8.026 1.219 3.313 2.746 5.915 4.034 7.782" transform="translate(-793 -3735) translate(794 3735)"/>
                <path fill="#FFF3DD" d="M378.89 255.03c-.845 1.111-1.734 2.47-2.537 4.091-1.932 3.897-2.505 7.563-2.67 10.052.04-2.213-.212-6.264-2.5-10.399-.858-1.552-1.821-2.788-2.705-3.745 1.115-1.34 2.693-3.556 3.825-6.661 1.11-3.043 1.353-5.731 1.38-7.483.222 1.934.683 4.421 1.677 7.18 1.066 2.966 2.403 5.294 3.53 6.964" transform="translate(-793 -3735) translate(794 3735)"/>
                <path fill="#FFC55A" d="M384.096 72.444c-.845 1.112-1.733 2.47-2.537 4.092-1.932 3.897-2.505 7.563-2.67 10.052.04-2.213-.212-6.264-2.5-10.399-.858-1.552-1.821-2.788-2.705-3.745 1.116-1.34 2.694-3.556 3.825-6.661 1.11-3.043 1.354-5.731 1.38-7.483.223 1.934.683 4.42 1.677 7.18 1.067 2.966 2.403 5.294 3.53 6.964" transform="translate(-793 -3735) translate(794 3735)"/>
                <path fill="#E75A2B" d="M317.16 327.045c-1.39 1.803-2.85 4.006-4.167 6.63-3.174 6.318-4.115 12.258-4.386 16.293.063-3.587-.35-10.15-4.107-16.854-1.41-2.514-2.994-4.517-4.445-6.07 1.833-2.169 4.423-5.76 6.285-10.793 1.823-4.932 2.223-9.29 2.267-12.128.364 3.133 1.124 7.166 2.753 11.637 1.752 4.807 3.947 8.58 5.8 11.285M108.917 242.72c-.967 1.227-1.982 2.726-2.9 4.513-2.207 4.3-2.863 8.346-3.05 11.09.044-2.44-.244-6.909-2.858-11.473-.98-1.711-2.083-3.075-3.092-4.13 1.275-1.478 3.077-3.924 4.372-7.349 1.269-3.358 1.546-6.324 1.577-8.257.254 2.135.781 4.879 1.915 7.923 1.219 3.272 2.746 5.84 4.036 7.683" transform="translate(-793 -3735) translate(794 3735)"/>
                <path fill="#FFC55A" d="M116.726 53.83c-.845 1.094-1.735 2.428-2.538 4.02-1.931 3.828-2.504 7.43-2.668 9.875.037-2.176-.213-6.154-2.502-10.216-.858-1.524-1.821-2.738-2.704-3.678 1.115-1.316 2.693-3.492 3.825-6.543 1.11-2.988 1.353-5.63 1.38-7.35.222 1.9.684 4.343 1.675 7.053 1.068 2.913 2.403 5.2 3.532 6.84" transform="translate(-793 -3735) translate(794 3735)"/>
                <path fill="#E75A2B" d="M231.632 54.924c-.664.917-1.363 2.035-1.994 3.37-1.518 3.208-1.968 6.227-2.097 8.276.03-1.823-.167-5.157-1.965-8.563-.675-1.277-1.431-2.295-2.125-3.083.876-1.103 2.116-2.926 3.005-5.484.873-2.504 1.063-4.718 1.085-6.16.174 1.592.537 3.64 1.316 5.912.839 2.442 1.888 4.358 2.775 5.732" transform="translate(-793 -3735) translate(794 3735)"/>
                <path stroke="#E75A2B" stroke-dasharray="1 3" stroke-linecap="round" stroke-width=".7" d="M137.879 114.537c-1.82-5.714-6.576-17.142-19.09-23.937-17.04-9.252-38.014-4.248-46.4-2.242-14.423 3.446-27.008 10.361-40.207 16.467-6.067 2.805-13.289 5.665-20.122 5.37-13.09-.564-12.397-21.898 1.494-24.59 13.058-2.53 17.588 1.408 18.278 1.646 43.017 14.763 91.387 90.43 37.435 120.71" transform="translate(-793 -3735) translate(794 3735)"/>
                <path fill="#FFCC6E" d="M229.393 157.22c-.664.795-1.362 1.765-1.994 2.922-1.517 2.783-1.967 5.401-2.096 7.179.03-1.58-.167-4.473-1.966-7.427-.674-1.107-1.431-1.99-2.125-2.674.877-.957 2.116-2.54 3.006-4.756.872-2.173 1.063-4.093 1.085-5.344.174 1.38.536 3.157 1.316 5.128.838 2.118 1.887 3.78 2.774 4.972" transform="translate(-793 -3735) translate(794 3735)"/>
                <path fill="#E75A2B" d="M205.565 122.391c-.6.717-1.229 1.592-1.798 2.636-1.369 2.51-1.775 4.872-1.892 6.475.028-1.426-.15-4.034-1.772-6.699-.608-.999-1.292-1.795-1.917-2.412.79-.863 1.908-2.29 2.711-4.29.787-1.96.96-3.692.978-4.82.157 1.245.484 2.847 1.187 4.625.757 1.91 1.703 3.41 2.503 4.485" transform="translate(-793 -3735) translate(794 3735)"/>
                <path fill="#FFECCA" d="M165.945 132.083c-.513.819-1.052 1.82-1.54 3.012-1.173 2.869-1.521 5.568-1.62 7.4.023-1.63-.13-4.61-1.519-7.656-.52-1.142-1.106-2.052-1.642-2.756.677-.986 1.635-2.618 2.322-4.903.674-2.24.821-4.22.838-5.51.135 1.425.415 3.255 1.018 5.287.647 2.183 1.458 3.897 2.143 5.126" transform="translate(-793 -3735) translate(794 3735)"/>
            </g>
        </g>
    </g>
</svg>
