<svg xmlns="http://www.w3.org/2000/svg" xmlns:xlink="http://www.w3.org/1999/xlink" width="189" height="196" viewBox="0 0 189 196">
    <defs>
        <linearGradient id="hu6nabmvpa" x1="50%" x2="50%" y1="0%" y2="100%">
            <stop offset="0%" stop-color="#FFD8AD"/>
            <stop offset="100%" stop-color="#FAA61B"/>
        </linearGradient>
        <linearGradient id="jtokedv0zc" x1="70.638%" x2="20.054%" y1="71.154%" y2="36.625%">
            <stop offset="0%" stop-color="#FFB42B"/>
            <stop offset="100%" stop-color="#FFD56E"/>
        </linearGradient>
        <linearGradient id="213951pwmd" x1="74.771%" x2="5.747%" y1="68.11%" y2="27.827%">
            <stop offset="0%" stop-color="#F4954F"/>
            <stop offset="100%" stop-color="#E55C27"/>
        </linearGradient>
        <filter id="4bhb6xxtxe" width="100%" height="100%" x="0%" y="0%" filterUnits="objectBoundingBox">
            <feGaussianBlur in="SourceGraphic"/>
        </filter>
        <path id="051jw5cgzb" d="M53.351 0.346L0.157 69.545 106.545 69.545z"/>
    </defs>
    <g fill="none" fill-rule="evenodd">
        <g>
            <g>
                <g fill="url(#hu6nabmvpa)" fill-rule="nonzero" opacity=".32" transform="translate(-401 -1616) translate(401 1616) translate(34 29.352)">
                    <path d="M140.176 70.824c0 38.66-31.34 70-70 70s-70-31.34-70-70 31.34-70 70-70 70 31.34 70 70"/>
                </g>
                <g transform="translate(-401 -1616) translate(401 1616) translate(5 75)">
                    <use fill="url(#jtokedv0zc)" fill-rule="nonzero" xlink:href="#051jw5cgzb"/>
                </g>
                <g>
                    <path fill="#2B2B2B" fill-rule="nonzero" d="M154.438 35.41c.544-.093 1.06.273 1.153.817 1.926 11.291 1.877 19.437-.833 28.374-2.045 6.744-5.688 12.854-11.779 20.052l-.826.967-.425.488-.87.987c-.149.166-.297.333-.448.5l-.916 1.01c-.155.17-.312.34-.47.511l-.963 1.036-.994 1.053-1.026 1.072-1.06 1.092-1.09 1.113-1.75 1.76-8.564 8.47-1.603 1.603-.607.613c-1.807 1.825-3.484 3.626-5.023 5.397l-.826.963c-11.778 13.916-14.853 25.88-5.143 33.12.443.33.535.957.204 1.4-.33.443-.956.534-1.4.204-6.84-5.102-8.142-12.294-4.78-20.834 2.607-6.626 7.935-13.874 15.012-21.114l1.145-1.159 1.952-1.951 6.894-6.809 1.947-1.941 1.105-1.114 1.072-1.093 1.04-1.072 1.008-1.052.976-1.034.944-1.015.461-.501.9-.99.868-.975.84-.96.81-.944.78-.933c5.498-6.635 8.817-12.32 10.69-18.5 2.608-8.596 2.655-16.446.777-27.458-.093-.544.273-1.06.818-1.154z" transform="translate(-401 -1616) translate(401 1616) translate(0 .352)"/>
                    <path fill="#2B2B2B" d="M144.744 35.822L162.744 37.165 154.795 24.308z" transform="translate(-401 -1616) translate(401 1616) translate(0 .352) rotate(-9 153.744 30.736)"/>
                    <g>
                        <path fill="#E35C26" d="M47.815 48.12c.056 3.208-.99 5.68-1.934 7.913-.678 1.602-1.397 2.862-1.929 3.717-.647-.84-1.495-2.07-2.275-3.668-.777-1.59-2.032-4.234-2.087-7.789-.052-3.462 1.062-6.056 1.842-7.87.695-1.619 1.453-2.885 2.03-3.754.574.811 1.347 2.005 2.09 3.537.971 2.007 2.205 4.556 2.263 7.913M57.173 41.521c.215 2.907-.606 5.201-1.348 7.275-.532 1.487-1.12 2.666-1.558 3.47-.63-.73-1.462-1.802-2.251-3.21-.785-1.403-2.06-3.735-2.291-6.954-.225-3.137.652-5.546 1.265-7.23.547-1.504 1.17-2.69 1.648-3.508.563.706 1.325 1.748 2.077 3.1.983 1.77 2.233 4.016 2.458 7.057M65.227 36.036c.127 2.271-.545 4.05-1.153 5.656-.436 1.154-.91 2.065-1.265 2.685-.48-.577-1.115-1.425-1.71-2.535-.594-1.105-1.555-2.942-1.69-5.458-.133-2.45.585-4.317 1.088-5.624.448-1.164.95-2.08 1.334-2.712.43.558 1.01 1.383 1.577 2.447.743 1.395 1.686 3.165 1.82 5.541M56.194 59.353c-3.148-.628-5.766-.04-8.132.49-1.698.38-3.066.862-4.003 1.234.712.787 1.77 1.841 3.203 2.893 1.427 1.05 3.803 2.756 7.29 3.444 3.398.671 6.149.038 8.075-.405 1.716-.395 3.097-.915 4.055-1.327-.696-.71-1.732-1.684-3.107-2.688-1.801-1.315-4.088-2.984-7.381-3.64M66.196 52.084c-2.822-.731-5.226-.333-7.398.026-1.559.258-2.824.625-3.692.914.605.75 1.511 1.76 2.756 2.788 1.24 1.023 3.306 2.693 6.433 3.496 3.046.782 5.572.35 7.34.047 1.577-.27 2.855-.671 3.745-.995-.594-.68-1.484-1.616-2.679-2.596-1.565-1.285-3.553-2.916-6.505-3.68" transform="translate(-401 -1616) translate(401 1616) translate(0 .352) translate(105.294 42.308)"/>
                        <path fill="#2B2B2B" fill-rule="nonzero" d="M73.618 12.088c.551.04.966.518.926 1.07l-.052.709-.115 1.392-.128 1.357c-.965 9.612-3.004 16.702-7.268 23.902-.337.57-.684 1.128-1.043 1.678l-.435.656c-1.545 2.28-3.298 4.41-5.369 6.506l-.6.598-.618.596-.637.596-.655.595-.675.596c-.114.1-.23.199-.345.298l-.706.598-.726.6-.748.601-.382.302-.78.607-.805.61-.827.616-.423.31-.863.623-.889.629-.913.635-.94.643-.966.651c-.164.11-.328.219-.494.328l-1.007.664-1.035.672-1.606 1.028-1.107.698-1.717 1.07-1.787 1.095-1.857 1.126-8.093 4.838-2.043 1.235-.95.579-.464.284c-2.388 1.466-4.62 2.94-6.683 4.417l-1.017.739C2.397 89.43-3.215 100.174 4.404 109.41c.352.426.291 1.056-.135 1.407-.426.352-1.056.291-1.408-.135-5.43-6.583-4.982-13.878.314-21.373 4.11-5.815 11.01-11.586 19.607-16.935l1.114-.686 1.952-1.186 8.506-5.088 1.851-1.118 2.36-1.444 1.688-1.05 1.622-1.026 1.046-.67 1.017-.661.99-.651.962-.643.936-.634.91-.627.884-.62.86-.612.42-.304.823-.605.8-.599.776-.595.754-.59c.248-.197.492-.392.732-.588l.71-.584.348-.292.68-.58c.223-.194.443-.388.66-.58l.64-.58.62-.579.604-.579c.495-.483.971-.966 1.43-1.452l.543-.585.527-.587c.433-.491.85-.986 1.252-1.485l.476-.602c.234-.302.464-.606.689-.913l.443-.616.431-.623.211-.314.415-.635.203-.32.398-.647.195-.327c4.384-7.4 6.325-14.695 7.181-25.08l.108-1.403c.037-.512.452-.906.952-.928l.117.001z" transform="translate(-401 -1616) translate(401 1616) translate(0 .352) translate(105.294 42.308)"/>
                        <path fill="#2B2B2B" d="M64.625 12.514L82.625 13.857 74.676 1z" transform="translate(-401 -1616) translate(401 1616) translate(0 .352) translate(105.294 42.308) rotate(2 73.625 7.429)"/>
                        <path fill="#E35C26" d="M72.192 44.38c-2.21-.531-4.082-.187-5.77.125-1.214.223-2.196.526-2.869.764.483.577 1.203 1.352 2.19 2.136.98.78 2.616 2.056 5.067 2.638 2.387.567 4.353.194 5.728-.066 1.226-.233 2.218-.564 2.907-.83-.473-.521-1.18-1.24-2.126-1.988-1.239-.98-2.813-2.224-5.127-2.78" transform="translate(-401 -1616) translate(401 1616) translate(0 .352) translate(105.294 42.308)"/>
                    </g>
                    <path fill="#F9A51C" d="M73.065 58.014c2.019.675 3.332 1.875 4.52 2.96.85.776 1.48 1.504 1.897 2.026-.67.22-1.625.477-2.796.612-1.166.133-3.096.334-5.33-.418-2.176-.732-3.551-2.002-4.513-2.89-.858-.793-1.482-1.547-1.898-2.099.635-.18 1.552-.399 2.673-.525 1.469-.164 3.336-.372 5.447.334" transform="translate(-401 -1616) translate(401 1616) translate(0 .352)"/>
                    <path fill="url(#213951pwmd)" fill-rule="nonzero" d="M128.993 154.871c0 21.716-17.604 39.32-39.32 39.32-21.717 0-39.322-17.604-39.322-39.32 0-21.717 17.605-39.32 39.321-39.32 21.717 0 39.321 17.603 39.321 39.32" filter="url(#4bhb6xxtxe)" transform="translate(-401 -1616) translate(401 1616) translate(0 .352)"/>
                    <path fill="#F9A51C" d="M71.01 50.707c1.863.508 3.116 1.528 4.248 2.45.812.662 1.42 1.29 1.824 1.741-.595.233-1.448.516-2.503.698-1.05.181-2.79.462-4.854-.105-2.01-.553-3.322-1.633-4.24-2.389-.819-.675-1.423-1.327-1.828-1.806.566-.195 1.386-.442 2.396-.612 1.324-.225 3.005-.509 4.956.023M70.36 43.46c1.449.422 2.412 1.235 3.282 1.971.624.527 1.09 1.025 1.399 1.383-.468.173-1.138.383-1.963.51-.822.126-2.183.321-3.785-.15-1.561-.46-2.57-1.32-3.275-1.924-.63-.538-1.092-1.054-1.401-1.434.444-.145 1.087-.325 1.878-.444 1.036-.157 2.352-.355 3.866.087M81.94 55.26c-1.089 1.83-1.3 3.596-1.493 5.193-.137 1.144-.138 2.106-.113 2.773.65-.27 1.543-.698 2.517-1.361.97-.66 2.563-1.769 3.764-3.797 1.17-1.974 1.383-3.834 1.532-5.136.132-1.16.112-2.139.066-2.829-.597.279-1.435.712-2.367 1.349-1.219.834-2.769 1.895-3.907 3.809" transform="translate(-401 -1616) translate(401 1616) translate(0 .352)"/>
                    <path fill="#2B2B2B" fill-rule="nonzero" d="M73.607 25.624c.552.023.98.49.957 1.04-.347 8.265.363 16.185 2.217 23.81 5.882 24.183 23.833 44.522 46.596 52.446.522.181.797.751.616 1.273-.182.521-.752.797-1.274.615-23.414-8.15-41.842-29.029-47.881-53.862-1.9-7.813-2.626-15.919-2.272-24.365.023-.552.49-.98 1.041-.957z" transform="translate(-401 -1616) translate(401 1616) translate(0 .352)"/>
                    <path fill="#F9A51C" d="M79.606 47.401c-1.08 1.603-1.363 3.193-1.619 4.631-.183 1.031-.234 1.903-.245 2.51.603-.213 1.434-.556 2.352-1.107.913-.549 2.414-1.472 3.608-3.248 1.162-1.73 1.45-3.407 1.652-4.579.18-1.045.211-1.933.205-2.56-.556.221-1.338.57-2.215 1.1-1.149.695-2.608 1.577-3.738 3.253M77.116 40.95c-.82 1.265-1.02 2.51-1.198 3.635-.128.807-.156 1.489-.156 1.962.467-.175 1.11-.453 1.819-.896.705-.441 1.864-1.182 2.769-2.585.883-1.367 1.084-2.678 1.225-3.595.125-.818.138-1.512.124-2.001-.43.18-1.035.463-1.712.89-.887.558-2.013 1.266-2.871 2.59" transform="translate(-401 -1616) translate(401 1616) translate(0 .352)"/>
                    <path fill="#2B2B2B" d="M65.886 26.067L80.886 27.217 74.261 16.217z" transform="translate(-401 -1616) translate(401 1616) translate(0 .352) rotate(-3 73.386 21.717)"/>
                    <path stroke="#FFC55A" d="M26.322 55.949c-2.47 1.666-5.82 1.014-7.486-1.455-1.665-2.468-1.014-5.819 1.454-7.485 2.469-1.665 5.82-1.015 7.486 1.454 1.666 2.469 1.015 5.82-1.454 7.486z" transform="translate(-401 -1616) translate(401 1616) translate(0 .352)"/>
                    <path stroke="#F9A51C" d="M30.662 52.866c-2.017 1.36-4.753.829-6.114-1.187-1.36-2.017-.828-4.754 1.188-6.114 2.015-1.361 4.753-.829 6.113 1.188 1.36 2.016.829 4.753-1.188 6.113z" transform="translate(-401 -1616) translate(401 1616) translate(0 .352)"/>
                    <path fill="#FFC55A" d="M123.048 37.47c-.587.747-1.204 1.66-1.762 2.749-1.342 2.618-1.74 5.081-1.854 6.753.027-1.487-.148-4.208-1.737-6.986-.596-1.043-1.265-1.873-1.879-2.516.775-.9 1.871-2.389 2.657-4.475.771-2.044.94-3.85.96-5.027.153 1.299.473 2.97 1.163 4.824.741 1.992 1.67 3.556 2.452 4.678M180.287 134.47c-.525.668-1.077 1.485-1.576 2.46-1.201 2.342-1.557 4.546-1.66 6.042.025-1.33-.132-3.765-1.554-6.25-.533-.934-1.131-1.677-1.68-2.252.693-.805 1.673-2.138 2.377-4.004.69-1.829.84-3.445.858-4.498.137 1.162.424 2.657 1.041 4.316.663 1.783 1.494 3.182 2.194 4.186" transform="translate(-401 -1616) translate(401 1616) translate(0 .352)"/>
                    <path fill="#E35C26" d="M158.226 147.806c-.852 1.084-1.747 2.408-2.555 3.986-1.946 3.797-2.523 7.368-2.689 9.793.039-2.156-.214-6.101-2.518-10.131-.864-1.511-1.835-2.715-2.725-3.648 1.124-1.304 2.712-3.463 3.853-6.488 1.118-2.965 1.363-5.584 1.39-7.29.223 1.883.689 4.307 1.688 6.995 1.074 2.889 2.42 5.157 3.556 6.783M11.725 92.648c-.942 1.199-1.932 2.663-2.827 4.409-2.152 4.2-2.791 8.152-2.974 10.833.043-2.385-.237-6.75-2.786-11.207-.956-1.672-2.03-3.004-3.014-4.035 1.243-1.443 3-3.832 4.262-7.178 1.237-3.28 1.507-6.177 1.538-8.065.247 2.085.761 4.765 1.867 7.739 1.188 3.196 2.677 5.705 3.934 7.504M47.729 9.283c-.516.657-1.06 1.459-1.55 2.415-1.178 2.301-1.528 4.466-1.628 5.936.023-1.308-.13-3.699-1.527-6.14-.524-.916-1.112-1.646-1.651-2.211.68-.791 1.644-2.1 2.335-3.933.678-1.796.826-3.384.843-4.418.135 1.142.417 2.61 1.022 4.24.652 1.75 1.467 3.125 2.156 4.11M102.373 14.634c-.406.55-.833 1.223-1.219 2.025-.927 1.929-1.202 3.743-1.281 4.976.018-1.097-.102-3.1-1.201-5.148-.413-.767-.875-1.38-1.3-1.853.537-.663 1.294-1.76 1.838-3.296.533-1.506.65-2.837.663-3.703.106.957.328 2.188.804 3.553.513 1.468 1.154 2.62 1.696 3.446" transform="translate(-401 -1616) translate(401 1616) translate(0 .352)"/>
                </g>
            </g>
        </g>
    </g>
</svg>
