<svg xmlns="http://www.w3.org/2000/svg" xmlns:xlink="http://www.w3.org/1999/xlink" width="1561" height="825" viewBox="0 0 1561 825">
    <defs>
        <linearGradient id="1vk4y5duja" x1="50%" x2="50%" y1="-9.707%" y2="100%">
            <stop offset="0%" stop-color="#E55C27"/>
            <stop offset="63.73%" stop-color="#F3914C"/>
            <stop offset="100%" stop-color="#F4954F"/>
        </linearGradient>
        <linearGradient id="0plt3wp39b" x1="50%" x2="50%" y1="-9.707%" y2="100%">
            <stop offset="0%" stop-color="#E55C27"/>
            <stop offset="63.73%" stop-color="#F3914C"/>
            <stop offset="100%" stop-color="#F4954F"/>
        </linearGradient>
        <linearGradient id="fmuy1164dc" x1="50%" x2="50%" y1="-12.907%" y2="110.618%">
            <stop offset="0%" stop-color="#E55C27"/>
            <stop offset="36.517%" stop-color="#F3914C"/>
            <stop offset="100%" stop-color="#FB8247"/>
        </linearGradient>
        <linearGradient id="lgoa89tjtd" x1="50%" x2="50%" y1="0%" y2="100%">
            <stop offset="0%" stop-color="#FFD8AD"/>
            <stop offset="100%" stop-color="#FAA61B"/>
        </linearGradient>
        <linearGradient id="gjf71do65g" x1="100%" x2="0%" y1="50%" y2="50%">
            <stop offset="0%" stop-color="#F4954F"/>
            <stop offset="100%" stop-color="#E55C27"/>
        </linearGradient>
        <linearGradient id="147o4dr80j" x1="100%" x2="0%" y1="50%" y2="50%">
            <stop offset="0%" stop-color="#FFF5AE"/>
            <stop offset="1.938%" stop-color="#FFF5AF"/>
            <stop offset="100%" stop-color="#FFEFE3"/>
        </linearGradient>
        <linearGradient id="2r92ew4fpl" x1="72.543%" x2="0%" y1="50%" y2="50%">
            <stop offset="0%" stop-color="#E53727"/>
            <stop offset="100%" stop-color="#F4954F"/>
        </linearGradient>
        <linearGradient id="qosg92i1jn" x1="100%" x2="0%" y1="50%" y2="50%">
            <stop offset="0%" stop-color="#F4954F"/>
            <stop offset="100%" stop-color="#E5D627"/>
        </linearGradient>
        <linearGradient id="x948cc5jaq" x1="7.196%" x2="102.498%" y1="50.228%" y2="49.493%">
            <stop offset="0%" stop-color="#F5A014"/>
            <stop offset="100%" stop-color="#FFBD4B"/>
        </linearGradient>
        <linearGradient id="j351s9okhs" x1="100%" x2="0%" y1="50%" y2="50%">
            <stop offset="0%" stop-color="#F4954F"/>
            <stop offset="100%" stop-color="#E55C27"/>
        </linearGradient>
        <linearGradient id="4b05m0nqvt" x1="100%" x2="0%" y1="50%" y2="50%">
            <stop offset="0%" stop-color="#F4954F"/>
            <stop offset="100%" stop-color="#E5D627"/>
        </linearGradient>
        <linearGradient id="9oz4jn55zy" x1="90.988%" x2="50%" y1="9.683%" y2="90.317%">
            <stop offset="0%" stop-color="#FDD23A"/>
            <stop offset="100%" stop-color="#FAA61B"/>
        </linearGradient>
        <linearGradient id="jyfvb9iupz" x1="100%" x2="0%" y1="50%" y2="50%">
            <stop offset="0%" stop-color="#FF8C37"/>
            <stop offset="100%" stop-color="#E05721"/>
        </linearGradient>
        <linearGradient id="2wpdeapofC" x1="76.494%" x2="0%" y1="31.317%" y2="50%">
            <stop offset="0%" stop-color="#262933"/>
            <stop offset="100%" stop-color="#222941"/>
        </linearGradient>
        <linearGradient id="vsgf650ymI" x1="100%" x2="0%" y1="50%" y2="50%">
            <stop offset="0%" stop-color="#F4954F"/>
            <stop offset="100%" stop-color="#E55C27"/>
        </linearGradient>
        <linearGradient id="bxuikbg8iL" x1="100%" x2="0%" y1="50%" y2="50%">
            <stop offset="0%" stop-color="#FFF5AE"/>
            <stop offset="1.938%" stop-color="#FFF5AF"/>
            <stop offset="100%" stop-color="#FFEFE3"/>
        </linearGradient>
        <linearGradient id="qprobek8bN" x1="72.543%" x2="0%" y1="50%" y2="50%">
            <stop offset="0%" stop-color="#E53727"/>
            <stop offset="100%" stop-color="#F4954F"/>
        </linearGradient>
        <linearGradient id="2ku9if9j2R" x1="100%" x2="0%" y1="50%" y2="50%">
            <stop offset="0%" stop-color="#F4954F"/>
            <stop offset="100%" stop-color="#E5D627"/>
        </linearGradient>
        <linearGradient id="wdn0kfxfvT" x1="50%" x2="84.114%" y1="0%" y2="86.08%">
            <stop offset="0%" stop-color="#393656"/>
            <stop offset="100%" stop-color="#2B2B2A"/>
        </linearGradient>
        <linearGradient id="cebfk5uvoU" x1="76.494%" x2="0%" y1="31.317%" y2="50%">
            <stop offset="0%" stop-color="#E67724"/>
            <stop offset="100%" stop-color="#110E38"/>
        </linearGradient>
        <linearGradient id="us9qh71fgW" x1="32.143%" x2="50%" y1="51.971%" y2="100%">
            <stop offset="0%" stop-color="#FBE8CE"/>
            <stop offset="45.437%" stop-color="#7C756B"/>
            <stop offset="100%" stop-color="#6D6860"/>
        </linearGradient>
        <linearGradient id="xfxjlays3X" x1="32.142%" x2="50%" y1="51.971%" y2="100%">
            <stop offset="0%" stop-color="#FBE8CE"/>
            <stop offset="45.437%" stop-color="#7C756B"/>
            <stop offset="100%" stop-color="#6D6860"/>
        </linearGradient>
        <linearGradient id="k33rbsgyvY" x1="31.569%" x2="50%" y1="51.971%" y2="100%">
            <stop offset="0%" stop-color="#FBE8CE"/>
            <stop offset="45.437%" stop-color="#7C756B"/>
            <stop offset="100%" stop-color="#6D6860"/>
        </linearGradient>
        <linearGradient id="5g44x5vioZ" x1="8.602%" x2="50%" y1="51.971%" y2="100%">
            <stop offset="0%" stop-color="#FBE8CE"/>
            <stop offset="100%" stop-color="#6D6860"/>
        </linearGradient>
        <linearGradient id="4v6x6wxtiaa" x1="76.494%" x2="17.692%" y1="31.317%" y2="45.785%">
            <stop offset="0%" stop-color="#E67724"/>
            <stop offset="3.832%" stop-color="#DE7325"/>
            <stop offset="100%" stop-color="#110E38"/>
        </linearGradient>
        <filter id="m5q6t9ip4h" width="252.3%" height="270.5%" x="-76.1%" y="-85.2%" filterUnits="objectBoundingBox">
            <feGaussianBlur in="SourceGraphic" stdDeviation="37.5"/>
        </filter>
        <filter id="pxeu3wpbok" width="252.3%" height="270.5%" x="-76.1%" y="-85.2%" filterUnits="objectBoundingBox">
            <feGaussianBlur in="SourceGraphic" stdDeviation="37.5"/>
        </filter>
        <filter id="i8uacu7bgm" width="252.1%" height="270.1%" x="-76.1%" y="-85%" filterUnits="objectBoundingBox">
            <feGaussianBlur in="SourceGraphic" stdDeviation="37.5"/>
        </filter>
        <filter id="f5i61qgapo" width="252.3%" height="270.5%" x="-76.1%" y="-85.2%" filterUnits="objectBoundingBox">
            <feGaussianBlur in="SourceGraphic" stdDeviation="37.5"/>
        </filter>
        <filter id="fbnb5fi9gu" width="256.2%" height="274.4%" x="-78.1%" y="-87.2%" filterUnits="objectBoundingBox">
            <feGaussianBlur in="SourceGraphic" stdDeviation="37.5"/>
        </filter>
        <filter id="08l3yxb23w" width="256.2%" height="274.4%" x="-78.1%" y="-87.2%" filterUnits="objectBoundingBox">
            <feGaussianBlur in="SourceGraphic" stdDeviation="37.5"/>
        </filter>
        <filter id="bu354w7ukD" width="250.7%" height="268.5%" x="-75.3%" y="-84.3%" filterUnits="objectBoundingBox">
            <feGaussianBlur in="SourceGraphic" stdDeviation="37.5"/>
        </filter>
        <filter id="u207o68ocJ" width="256.2%" height="274.4%" x="-78.1%" y="-87.2%" filterUnits="objectBoundingBox">
            <feGaussianBlur in="SourceGraphic" stdDeviation="37.5"/>
        </filter>
        <filter id="phx1tdwmfM" width="256.2%" height="274.4%" x="-78.1%" y="-87.2%" filterUnits="objectBoundingBox">
            <feGaussianBlur in="SourceGraphic" stdDeviation="37.5"/>
        </filter>
        <filter id="j5d6ke70oO" width="256.5%" height="274.9%" x="-78.2%" y="-87.5%" filterUnits="objectBoundingBox">
            <feGaussianBlur in="SourceGraphic" stdDeviation="37.5"/>
        </filter>
        <filter id="s2g76xs7lP" width="256.2%" height="274.4%" x="-78.1%" y="-87.2%" filterUnits="objectBoundingBox">
            <feGaussianBlur in="SourceGraphic" stdDeviation="37.5"/>
        </filter>
        <filter id="fcoymhvndS" width="100%" height="100%" x="0%" y="0%" filterUnits="objectBoundingBox">
            <feGaussianBlur in="SourceGraphic"/>
        </filter>
        <filter id="xebb4dy9tV" width="179.8%" height="189.3%" x="-39.9%" y="-44.6%" filterUnits="objectBoundingBox">
            <feGaussianBlur in="SourceGraphic" stdDeviation="21.75"/>
        </filter>
        <filter id="b6d407ujzab" width="267.1%" height="287%" x="-83.6%" y="-93.5%" filterUnits="objectBoundingBox">
            <feGaussianBlur in="SourceGraphic" stdDeviation="32.25"/>
        </filter>
        <path id="xn9y79lujp" d="M1444.5 145.5L0 144.424 0 0 1326.612 0 1444.5 50.07z"/>
        <path id="pqewb2eemr" d="M30.75 13.92v525.633c-3.714 1.617-10.512 2.697-18.28 2.697-4.18.028-8.354-.322-12.47-1.048V5.562c1.14-1.194 2.426-2.243 3.827-3.12C5.794 1.19 8.017.391 10.333.101 18.286-.827 26.695 4.678 30.75 13.92z"/>
        <path id="gkq61xxlyx" d="M36.75 33.594L0 33.362 21.545 0.594 27.695 0.594z"/>
        <path id="t8u7slb8cB" d="M317.008 20.625L317.008 15.39 0 15.39 32.614 0.375 374.833 0.375 383.25 15.39 383.008 20.625z"/>
        <path id="kln6av0y5F" d="M0 0L9.75 0 9.75 6.75 0 6.75z"/>
        <radialGradient id="5z81bi8y7f" cx="50%" cy="50%" r="71.598%" fx="50%" fy="50%">
            <stop offset="0%" stop-color="#F5CC93"/>
            <stop offset="100%" stop-color="#FFA237"/>
        </radialGradient>
        <radialGradient id="eifme4uviA" cx="100%" cy="50%" r="136.513%" fx="100%" fy="50%" gradientTransform="matrix(-.73253 -.36626 .15107 -.48752 1.657 1.11)">
            <stop offset="0%" stop-color="#FB7F2F"/>
            <stop offset="51.402%" stop-color="#F87B2D"/>
            <stop offset="100%" stop-color="#D44B15"/>
        </radialGradient>
        <radialGradient id="tcxcnwhubQ" cx="100%" cy="50%" r="118.235%" fx="100%" fy="50%" gradientTransform="matrix(-.84577 -.42289 .2068 -.47478 1.742 1.16)">
            <stop offset="0%" stop-color="#FB7F2F"/>
            <stop offset="51.402%" stop-color="#F87B2D"/>
            <stop offset="100%" stop-color="#D44B15"/>
        </radialGradient>
        <circle id="5w613s4n7e" cx="95.625" cy="95.625" r="95.625"/>
        <circle id="f0b5lz2y8H" cx="93" cy="93" r="93"/>
    </defs>
    <g fill="none" fill-rule="evenodd">
        <g>
            <g>
                <g transform="translate(115) translate(-114.75)">
                    <path fill="url(#1vk4y5duja)" fill-rule="nonzero" d="M961.5 199.526V220.5c-19.578-13.827-31.289-30.208-33.423-47.713-.635-5.356-.343-10.781.863-16.037 3.604 15.655 14.865 30.262 32.56 42.776z" opacity=".785"/>
                    <path stroke="#231F20" stroke-width="1.5" d="M885.75 220.875L855.75 220.875M1559.25 790.5L1555.5 789M1307.876 799.192L1307.374 799.058M1307.625 799.403L1307.625 798.847"/>
                    <path fill="url(#0plt3wp39b)" fill-rule="nonzero" d="M1459.725.15l-21.781 42.633h-.119c-61.126-15.877-127.941-17.485-189.789-15.461-62.117 2.034-127.903 11.23-188.183 31.262-3.815 1.263-7.606 2.575-11.373 3.935-12.596 4.526-24.89 9.562-36.883 15.11-33.402 15.505-75.15 45.191-82.708 78.845-1.212 5.274-1.505 10.718-.867 16.092 2.155 17.566 13.91 33.999 33.58 47.879v.205l-74.988-9.385v-46.443c-4.03-9.277-12.391-14.76-20.24-13.831-2.302.29-4.51 1.09-6.465 2.342-1.393.879-2.67 1.928-3.804 3.124v50.971l-744.88-91.882V.15h1348.5z" opacity=".318"/>
                    <path fill="url(#fmuy1164dc)" fill-rule="nonzero" d="M1555.5 0L1555.5 729 1437.75 678.855 1437.75 42.829 1437.879 42.576 1459.623 0z" opacity=".742"/>
                    <path fill="url(#lgoa89tjtd)" fill-rule="nonzero" d="M1436.25 42.77l1.382.253v636.102H111v-563.71l745.2 91.733V156.26c1.132-1.194 2.41-2.242 3.801-3.12 1.954-1.25 4.161-2.049 6.462-2.338 7.85-.927 16.202 4.547 20.23 13.809v46.368l74.947 9.358V199.11c-17.77-12.537-29.12-27.17-32.695-42.844 7.538-33.599 49.3-63.237 82.663-78.717 11.96-5.55 24.248-10.578 36.862-15.086 3.766-1.358 7.555-2.667 11.367-3.928 60.248-20 125.998-29.18 188.082-31.211 61.83-2.026 128.609-.42 189.713 15.447h-1.382z" opacity=".32"/>
                    <g transform="translate(15 189)">
                        <mask id="6kx3v88bxi" fill="#fff">
                            <use xlink:href="#5w613s4n7e"/>
                        </mask>
                        <use fill="url(#5z81bi8y7f)" fill-rule="nonzero" opacity=".8" xlink:href="#5w613s4n7e"/>
                        <path fill="url(#gjf71do65g)" fill-rule="nonzero" d="M177.071 12.685c11.614 9.818 18.414 26.216 20.402 44.704 1.884 18.383-1.046 38.75-12.66 53.583-11.613 14.727-32.015 24.023-49.697 21.308-17.577-2.82-32.433-17.548-49.383-32.38C68.68 85.068 49.637 70.236 50.265 56.031c.628-14.205 20.925-27.783 37.98-37.602 16.949-9.818 30.55-15.876 45.616-17.338 15.066-1.463 31.492 1.67 43.21 11.594z" filter="url(#m5q6t9ip4h)" mask="url(#6kx3v88bxi)"/>
                        <path fill="url(#147o4dr80j)" fill-rule="nonzero" d="M114.071 12.685c11.614 9.818 18.414 26.216 20.402 44.704 1.884 18.383-1.046 38.75-12.66 53.583-11.613 14.727-32.015 24.023-49.697 21.308-17.577-2.82-32.433-17.548-49.383-32.38C5.68 85.068-13.363 70.236-12.735 56.031c.628-14.205 20.925-27.783 37.98-37.602C42.193 8.611 55.794 2.553 70.86 1.091c15.066-1.463 31.492 1.67 43.21 11.594z" filter="url(#pxeu3wpbok)" mask="url(#6kx3v88bxi)"/>
                        <path fill="url(#2r92ew4fpl)" fill-rule="nonzero" d="M169.81 92.625c11.625 9.84 18.433 26.276 20.423 44.805 1.885 18.424-1.048 38.838-12.673 53.703-11.625 14.76-32.048 24.078-49.748 21.356-17.595-2.827-32.467-17.587-49.434-32.453-17.071-14.865-36.133-29.73-35.504-43.967.628-14.237 20.946-27.846 38.018-37.687 16.966-9.84 30.582-15.912 45.663-17.377 15.082-1.466 31.525 1.675 43.255 11.62z" filter="url(#i8uacu7bgm)" mask="url(#6kx3v88bxi)" transform="rotate(-87 116.81 146.812)"/>
                        <path fill="url(#qosg92i1jn)" fill-rule="nonzero" d="M114.071 79.435c11.614 9.818 18.414 26.216 20.402 44.704 1.884 18.383-1.046 38.75-12.66 53.583-11.613 14.727-32.015 24.023-49.697 21.308-17.577-2.82-32.433-17.548-49.383-32.38-17.054-14.832-36.096-29.664-35.468-43.869.628-14.205 20.925-27.783 37.98-37.602 16.949-9.818 30.55-15.876 45.616-17.338 15.066-1.463 31.492 1.67 43.21 11.594z" filter="url(#f5i61qgapo)" mask="url(#6kx3v88bxi)"/>
                    </g>
                    <path fill="#D8D8D8" stroke="#979797" stroke-width=".75" d="M0.375 175.875H114.375V392.625H0.375z"/>
                    <g transform="translate(111 678.9)">
                        <use fill="url(#x948cc5jaq)" fill-rule="nonzero" opacity=".62" xlink:href="#xn9y79lujp"/>
                    </g>
                    <g transform="translate(855.75 150.75)">
                        <mask id="gk5kmemfbv" fill="#fff">
                            <use xlink:href="#pqewb2eemr"/>
                        </mask>
                        <use fill="url(#j351s9okhs)" fill-rule="nonzero" xlink:href="#pqewb2eemr"/>
                        <path fill="url(#4b05m0nqvt)" fill-rule="nonzero" d="M90.603 90.413c11.318 9.595 17.946 25.621 19.884 43.689 1.835 17.965-1.02 37.87-12.339 52.365-11.318 14.392-31.203 23.477-48.435 20.823-17.131-2.756-31.611-17.149-48.13-31.643-16.622-14.495-35.18-28.99-34.568-42.872.612-13.883 20.394-27.152 37.015-36.748 16.519-9.595 29.775-15.515 44.459-16.944 14.684-1.43 30.693 1.633 42.114 11.33z" filter="url(#fbnb5fi9gu)" mask="url(#gk5kmemfbv)" transform="rotate(19 39 143.25)"/>
                        <path fill="url(#4b05m0nqvt)" fill-rule="nonzero" d="M90.603 346.913c11.318 9.595 17.946 25.621 19.884 43.689 1.835 17.965-1.02 37.87-12.339 52.365-11.318 14.392-31.203 23.477-48.435 20.823-17.131-2.756-31.611-17.149-48.13-31.643-16.622-14.495-35.18-28.99-34.568-42.872.612-13.883 20.394-27.152 37.015-36.748 16.519-9.595 29.775-15.515 44.459-16.944 14.684-1.43 30.693 1.633 42.114 11.33z" filter="url(#08l3yxb23w)" mask="url(#gk5kmemfbv)" transform="rotate(17 39 399.75)"/>
                    </g>
                    <g transform="translate(914.25 746.406)">
                        <use fill="url(#9oz4jn55zy)" fill-rule="nonzero" xlink:href="#gkq61xxlyx"/>
                    </g>
                    <path fill="#2B2B2A" fill-rule="nonzero" d="M900.75 741.75L1284 741.75 1284 747 900.75 747z"/>
                    <path fill="url(#jyfvb9iupz)" fill-rule="nonzero" d="M963.75 769.65L963.488 769.859 951.153 780 951.057 779.962 950.966 779.914 942 747 945.251 747z"/>
                    <path fill="url(#eifme4uviA)" fill-rule="nonzero" d="M1264.5 757.202c.003 7.584-4.893 14.311-12.135 16.674-7.242 2.363-15.189-.174-19.698-6.289-4.51-6.114-4.56-14.42-.124-20.587h28.67c2.142 2.974 3.292 6.543 3.287 10.202z"/>
                    <g transform="translate(900.75 726.375)">
                        <mask id="vgr0hx6muE" fill="#fff">
                            <use xlink:href="#t8u7slb8cB"/>
                        </mask>
                        <use fill="#2B2B2A" fill-rule="nonzero" opacity=".65" xlink:href="#t8u7slb8cB"/>
                        <path fill="url(#2wpdeapofC)" fill-rule="nonzero" d="M170.193-61.43c11.738 9.93 18.612 26.515 20.621 45.213 1.904 18.592-1.057 39.19-12.796 54.191-11.738 14.895-32.36 24.297-50.231 21.55-17.766-2.852-32.783-17.747-49.915-32.747-17.237-15-36.484-30.001-35.85-44.368.635-14.366 21.151-28.099 38.388-38.029 17.132-9.93 30.88-16.057 46.108-17.536 15.228-1.478 31.83 1.69 43.675 11.726z" filter="url(#bu354w7ukD)" mask="url(#vgr0hx6muE)" transform="rotate(65 116.677 -6.75)"/>
                    </g>
                    <g transform="translate(939.75 522)">
                        <g>
                            <path fill="#231F20" fill-rule="nonzero" d="M53.213 37.248H54.213V38.248H53.213z" transform="translate(0 58.866)"/>
                            <path fill="#2B2B2A" fill-rule="nonzero" d="M53.402 37.248c-.52-.474-1.013-.979-1.474-1.512-.54-.638-1.14-1.223-1.792-1.746-.852-.712-1.914-1.126-3.024-1.18.583.693 1.032 1.487 1.323 2.344 1.294 4.106-.983 8.484-5.088 9.783-.533.187-1.086.314-1.648.378-.119-.076-.243-.144-.37-.204-1.429-.666-3.394.582-3.727 2.222-.272 1.353.406 2.718 1.648 3.319-.083.37-.159.756-.212 1.104-.476 3.266-1.988 11.491-1.988 11.491.39 1.07.913 2.086 1.557 3.024-1.02 1.973-2.948 5.179-5.571 7.242-3.425 2.692-9.473 3.531-11.182 3.72-.294 0-.46.045-.46.045-1.902-.432-3.69-1.262-5.247-2.434-3.554-2.381-6.048-6.706-5.55-11.053.477-4.112 3.335-7.673 6.646-9.896 4.577-2.953 9.609-5.134 14.893-6.456-.054-.52-.082-1.042-.083-1.565 0-6.1 3.78-11.045 8.512-11.045.025-.085.056-.168.091-.25.352-.814.812-1.577 1.368-2.268.937-1.21 2.187-2.14 3.614-2.69 3.916-1.43 7.719 1.693 7.742 5.7l.022 1.927z" transform="translate(0 58.866)"/>
                            <g transform="translate(0 58.866) translate(31.5 34.134)">
                                <mask id="wcy2ywvotG" fill="#fff">
                                    <use xlink:href="#kln6av0y5F"/>
                                </mask>
                                <path fill="#2B2B2A" d="M.378 6.75c-.016 0-.03 0-.044-.002-.207-.023-.355-.209-.332-.414C.331 3.493 2.15 1.13 4.638.312 6.732-.373 8.602.224 9.53.642c.19.086.274.306.187.494-.086.189-.307.271-.499.185-.666-.3-2.427-.93-4.342-.3-2.21.725-3.83 2.844-4.124 5.398-.022.19-.185.331-.373.331" mask="url(#wcy2ywvotG)"/>
                            </g>
                            <path fill="#231F20" fill-rule="nonzero" d="M45.313 69.492c-.96-.002-1.917-.078-2.865-.227-1.512-.235-2.82-1.217-4.015-2.926l-.068-.09.053-.099c.537-1.013.817-1.709.832-1.731.015-.023.098-.325.257-.824l.045-.144h.144c2.265.15 4.534-.214 6.638-1.066 2.827-1.163 5.243-3.142 6.94-5.685l.325-.484v.582c.053 1.384.143 2.949.264 4.665.144 1.958-.695 3.553-1.444 4.96-.291.537-.544 1.096-.756 1.67v.076h-.068c-1.973.891-4.117 1.343-6.282 1.323zm-6.502-3.274c.82 1.356 2.154 2.321 3.697 2.676 2.971.534 6.034.185 8.808-1.005.22-.564.472-1.114.756-1.648.756-1.361 1.512-2.896 1.398-4.748-.106-1.512-.189-2.873-.242-4.113-1.717 2.397-4.075 4.26-6.804 5.376-2.106.853-4.376 1.227-6.645 1.096l-.22.688c.024.045-.241.695-.748 1.678z" transform="translate(0 58.866)"/>
                            <path fill="#FAA61B" fill-rule="nonzero" d="M58.52 46.116c.046 2.064-.793 4.46-2.578 5.617-.767.484-1.637.784-2.54.877-.053.801-.053 2.223 0 4.203-1.71 2.586-4.16 4.597-7.03 5.769-2.128.86-4.424 1.228-6.714 1.073-.88-.058-1.752-.195-2.608-.408 0 0 1.512-8.225 2.003-11.469.053-.37.129-.756.212-1.103-1.25-.615-1.918-2.004-1.618-3.365.333-1.64 2.268-2.887 3.727-2.222.128.06.251.129.37.204.563-.064 1.115-.19 1.649-.378 4.098-1.305 6.367-5.681 5.073-9.783-.292-.856-.74-1.651-1.323-2.343 1.11.053 2.17.467 3.024 1.18.651.522 1.251 1.107 1.791 1.745.461.533.953 1.038 1.475 1.512l.113.099c.206.176.426.335.658.476 1.512.96 2.116 1.066 3.258 1.792.15.104.202.304.121.468-.113.227-.242.446-.378.666l-.287.476c-.046.083-.242.318-.167.416.562.67 1.018 1.422 1.354 2.23.26.729.4 1.494.415 2.268z" transform="translate(0 58.866)"/>
                            <path fill="#E55C27" fill-rule="nonzero" d="M78.63 46.494s11.552-3.402 16.277-5.715c5.292-2.601 21.463-18.976 21.508-19.021 2.805-2.843 4.007-6.494 5.058-10.252.567-2.018.876-4.37 2.01-6.23 1.286-2.086 4.272-3.099 5.648-.34.557 1.27.865 2.636.907 4.023 2.517-2.268 6.146-6.434 9.314-7.765 1.754-.756 3.59-.551 4.627.56.578.718.862 1.628.793 2.548-.037 2.116-1.965 4.037-3.734 5.844-1.77 1.806-3.614 3.13-3.402 3.477.12.197.756-.189 1.587.083.56.213 1.038.6 1.361 1.104.983 1.565.09 5.043.348 4.007.06-.227 1.867-.575 3.122.28 4.627 3.16-1.232 9.933-3.545 12.617-11.06 12.792-22.43 23.723-37.09 32.32-4.21 2.464-10.1 6.214-17.562 10.205L78.63 46.494zM35.024 107.889l-9.941 32.122-.129.431c2.555.106 5.292.09 7.65 1.263 1.006.504 1.908 1.191 2.662 2.026 1.455 1.621 2.129 3.797 1.844 5.957-.15 1.765-.537 3.501-1.149 5.163-.59 1.686-1.323 3.32-2.04 4.96-.818 2.176-1.892 4.247-3.199 6.169-.519.668-1.303 1.077-2.148 1.12-.845.044-1.667-.282-2.252-.893-1.126-1.24-.491-3.372-.756-3.418-.264-.045-.34 1.165-.59 1.83-.445 1.142-.982 2.389-2.222 2.812-1.26.421-2.651.053-3.538-.937-.443-.607-.674-1.343-.658-2.094.065-.649.065-1.302 0-1.95-.143-.175-.393 1.353-1.436 2.865-.463.84-1.184 1.51-2.056 1.912-2.457.923-4.166-.816-4.385-3.122-.333-3.546.87-7.636 2.328-10.834-.499.046-6.426.424-10.35-4.415-3.923-4.838-2.388-10.448-2.237-10.946 1.582-6.295 3.319-12.75 5.209-19.362 2.197-7.665 4.465-15.042 6.804-22.128l22.589 11.469z" transform="translate(0 58.866)"/>
                            <path fill="#231F20" fill-rule="nonzero" d="M53.788 46.872c-.97-.01-1.838-.608-2.193-1.512-.073-.194.02-.411.212-.491.093-.038.198-.036.29.004.092.04.165.114.202.207.256.657.906 1.075 1.61 1.036.645-.057 1.192-.5 1.383-1.119.043-.135.155-.237.294-.267.139-.03.283.016.378.121.095.105.127.253.084.388-.288.922-1.115 1.57-2.079 1.633h-.181zM49.796 40.491c-.05.012-.101.012-.151 0-.092-.04-.165-.115-.202-.208-.037-.094-.035-.198.005-.29.173-.405.47-.744.847-.968.28-.16.593-.25.915-.265.209 0 .378.17.378.378 0 .209-.17.378-.378.378-.202.009-.4.066-.575.166-.237.142-.423.357-.529.613-.063.113-.18.187-.31.196z" transform="translate(0 58.866)"/>
                            <path fill="#E55C27" fill-rule="nonzero" d="M192.423 149.862c-19.58.141-39.16.234-58.741.28-21.44.045-42.878.03-64.313-.046L86.19 112.81c23.42 2.072 47.517 4.71 72.289 7.916 12.942 1.693 25.658 3.5 38.147 5.42-1.398 7.908-1.398 7.908-4.203 23.716 2.805-15.808 2.805-15.808 4.203-23.716l-4.203 23.716z" transform="translate(0 58.866)"/>
                            <path fill="#FAA61B" fill-rule="nonzero" d="M99.692 127.008l25.1 2.865c5.057-12.572 10.447-25.084 15.12-37.8 3.492-9.45 5.057-20.828-3.244-28.304-6.1-5.481-15.611-6.048-22.892-2.73-12.292 5.61-22.105 15.12-32.311 23.716l-42.427 31.359c3.198 9.579 6.804 24.51 15.49 30.679 10.97 7.794 24.465 1.708 32.977-6.593 4.287-4.185 8.354-8.588 12.187-13.192zM196.324 127.862l6.547.998c.368.056.744-.016 1.066-.204l12.444-7.235c.62-.327 1.378-.242 1.91.215.533.457.732 1.194.501 1.857l-6.985 17.713-2.918 6.91c-.38.901-1.245 1.504-2.223 1.55l-14.243.196 3.901-22z" transform="translate(0 58.866)"/>
                            <path fill="#FAA61B" fill-rule="nonzero" d="M99.692 127.114c-3.666 10.017-6.214 17.388-6.509 18.688-.158.595-.158 1.22 0 1.815.34 1.096 1.746 2.366 2.948 2.313l32.773.234c.647-.03 1.216-.435 1.455-1.036.24-.601.105-1.287-.344-1.753l-11.793-11.643c-.38-.415-.438-1.032-.144-1.512l2.933-4.785-21.319-2.321z" transform="translate(0 58.866)"/>
                            <path fill="#231F20" fill-rule="nonzero" d="M52.457 53.033c-.762-.004-1.521-.082-2.268-.234-.722-.17-1.434-.381-2.132-.635l-.332-.113-.34-.114c-.14-.03-.25-.138-.285-.276-.035-.139.011-.285.12-.379.108-.093.26-.118.391-.063l.356.121.34.113c.664.243 1.343.443 2.033.598.994.21 2.014.266 3.024.166.21-.023.397.128.42.336.023.21-.128.397-.336.42-.318.038-.65.06-.99.06z" transform="translate(0 58.866)"/>
                            <path fill="#E55C27" fill-rule="nonzero" d="M85.88 74.24l-4.392 3.023c.756 5.11 0 7.515 0 7.515L61.03 106.165l-21.992 9.949-3.825-9.949c-.06.575-.129 1.15-.19 1.724-8.337-1.09-16.397-3.733-23.76-7.795 1.882-8.29 5.488-16.093 10.584-22.899 1.099-1.451 2.303-2.893 3.614-4.324 3.424-3.703 7.32-6.939 11.589-9.624.87.213 1.759.347 2.654.4 2.29.155 4.585-.212 6.713-1.073 2.87-1.172 5.32-3.182 7.03-5.768 5.187-2.016 10.53-4.239 16.028-6.668 3.825-1.699 7.514-3.415 11.068-5.148.942 1.794 1.773 3.644 2.487 5.541 2.774 7.575 3.75 15.691 2.85 23.708z" transform="translate(0 58.866)"/>
                            <path fill="#231F20" fill-rule="nonzero" d="M94.393 127.19c-.088 0-.175-.016-.257-.046-.392-.139-.598-.568-.462-.96L108.87 83.16c.161-.357.57-.532.94-.402s.579.521.481.901l-15.195 43.016c-.103.303-.384.509-.703.514zM116.687 129.73h-.083l-13.797-1.512c-.27-.03-.504-.202-.613-.45-.11-.25-.078-.537.083-.756.16-.22.426-.336.696-.306l13.797 1.512c.418.023.738.38.715.797-.023.418-.38.738-.798.715zM51.225 116.87c-.305.002-.582-.18-.7-.461-.12-.281-.058-.606.156-.824l30.24-31.351c.177-.23.47-.34.754-.28.285.06.51.277.58.559.069.282-.03.579-.253.764l-30.24 31.359c-.14.147-.334.231-.537.234z" transform="translate(0 58.866)"/>
                            <path fill="#231F20" fill-rule="nonzero" d="M39.038 116.862c-.295.001-.564-.17-.688-.438-.084-.183-.091-.393-.02-.582.07-.188.214-.341.398-.423l21.992-9.942c.382-.171.83 0 1.002.382.171.382 0 .83-.382 1.002l-22.022 9.941c-.089.038-.183.058-.28.06zM40.709 64.063c-1.273-.001-2.542-.15-3.78-.446-.209-.048-.339-.256-.291-.465.048-.208.256-.339.465-.29 2.546.639 5.215.6 7.741-.114 3.385-1.019 6.309-3.184 8.271-6.124.057-.083.145-.14.244-.16.1-.018.202.004.285.062.083.055.14.142.16.24.018.098-.004.2-.062.282-2.061 3.085-5.132 5.357-8.686 6.426-1.414.402-2.877.6-4.347.59zM35.024 108.645h-.098c-3.321-.443-6.606-1.125-9.828-2.041-4.922-1.414-9.672-3.372-14.16-5.837-.368-.209-.496-.676-.288-1.043.21-.367.676-.496 1.044-.287 7.284 4.01 15.252 6.625 23.496 7.71.418.028.734.388.707.806-.027.418-.388.734-.805.707l-.068-.015zM85.88 74.995h-.083c-.2-.023-.382-.124-.507-.281-.125-.158-.182-.358-.158-.558 1.161-9.917-.682-19.954-5.292-28.811-.125-.24-.111-.529.035-.757.146-.227.402-.36.673-.347.27.012.513.168.637.408 4.74 9.127 6.632 19.467 5.428 29.68-.045.374-.357.658-.733.666z" transform="translate(0 58.866)"/>
                            <path fill="#231F20" fill-rule="nonzero" d="M37.05 110.127c-.3.002-.573-.173-.696-.447-.756-1.663-1.42-3.364-2.056-5.065-.756-1.943-1.398-3.938-1.988-5.927-.081-.385.146-.768.523-.88.377-.113.778.083.92.45.59 1.957 1.248 3.923 1.959 5.828.627 1.678 1.308 3.35 2.026 4.982.081.184.086.392.014.579-.072.187-.216.338-.4.419-.096.038-.198.059-.302.06zM81.488 77.997c-.345.014-.656-.207-.756-.537-1.34-4.511-4.342-8.346-8.4-10.728-.341-.217-.451-.665-.248-1.016.202-.351.646-.48 1.005-.292 4.404 2.57 7.666 6.719 9.124 11.605.117.4-.113.82-.514.937-.068.021-.14.032-.211.03zM128.133 18.144c-.107 0-.213-.024-.31-.068-.38-.172-.548-.618-.378-.998.588-1.318 1.036-2.694 1.338-4.105.334-1.56.483-3.153.446-4.748 0-.417.339-.756.756-.756.418 0 .756.339.756.756.04 1.712-.123 3.422-.484 5.096-.319 1.513-.798 2.988-1.429 4.4-.13.264-.4.43-.695.423zM132.533 25.863c-1.393.093-2.688-.722-3.206-2.019-.756-1.996.552-4.347 1.134-5.292 1.581-2.244 3.693-4.062 6.147-5.292.235-.135.524-.134.758.002.235.136.379.386.378.657 0 .271-.145.522-.38.657-2.231 1.13-4.156 2.781-5.61 4.815-.756 1.172-1.398 2.82-.99 3.932.408 1.11 1.655 1.05 2.033 1.02 1.159-.206 2.22-.782 3.024-1.64 1.339-1.202 2.662-2.503 4.045-3.992.29-.272.741-.272 1.032-.001.29.27.322.72.072 1.03-1.406 1.511-2.767 2.857-4.143 4.09-1.05 1.09-2.433 1.8-3.931 2.018-.12.012-.242.017-.363.015z" transform="translate(0 58.866)"/>
                            <path fill="#231F20" fill-rule="nonzero" d="M136.842 31.684c-1.174-.007-2.27-.59-2.933-1.557-1.792-2.42.234-5.058 1.444-6.63 1.352-1.78 2.894-3.407 4.596-4.854.32-.27.797-.229 1.066.09.27.32.229.797-.09 1.067-1.614 1.375-3.076 2.919-4.363 4.604-1.398 1.822-2.464 3.432-1.436 4.815.374.588 1.02.947 1.716.953 2.026 0 4.657-2.616 5.927-4.37.246-.338.72-.412 1.058-.166.339.246.413.72.167 1.058-1.346 1.845-4.362 4.975-7.144 4.99h-.008zM18.536 163.183c-.086-.001-.17-.017-.25-.046-.394-.136-.604-.565-.469-.96l3.78-10.758c.14-.394.573-.6.968-.46.395.139.601.572.461.967l-3.78 10.75c-.105.302-.39.505-.71.507zM25.559 163.523c-.09-.001-.18-.016-.265-.046-.187-.07-.339-.213-.421-.396-.082-.183-.088-.391-.017-.579l3.818-10.236c.094-.254.317-.438.584-.483.267-.045.538.056.71.264.173.21.221.494.127.748l-3.826 10.236c-.11.297-.394.493-.71.492z" transform="translate(0 58.866)"/>
                        </g>
                        <path fill="#FAA61B" fill-rule="nonzero" d="M137.793 20.703c2.706 0 4.9 2.194 4.9 4.9l.002 13.625c0 2.705-2.192 4.898-4.897 4.899h-.002c-2.706 0-4.9-2.194-4.9-4.9l-.002-13.626c0-2.705 2.192-4.898 4.897-4.898h.002z" transform="rotate(62.35 137.795 32.415)"/>
                        <path fill="#FAA61B" fill-rule="nonzero" d="M124.738 15.403c1.09 0 1.973.883 1.973 1.972v4.057c0 1.09-.884 1.972-1.973 1.972-1.09 0-1.973-.882-1.973-1.972v-4.056c0-1.09.884-1.973 1.973-1.973z" transform="rotate(104.27 124.738 19.404)"/>
                        <path fill="#E55C27" fill-rule="nonzero" d="M148.64 37.747c1.089 0 1.972.882 1.972 1.972v4.056c0 1.09-.884 1.973-1.973 1.973-1.09 0-1.973-.882-1.973-1.972V39.72c.001-1.09.884-1.973 1.974-1.973z" transform="rotate(113.05 148.64 41.748)"/>
                        <circle cx="150.975" cy="14.391" r="4.725" fill="#E55C27" fill-rule="nonzero"/>
                        <path fill="#2B2B2A" fill-rule="nonzero" d="M133.247 2.4l3.958.001c1.983.002 3.59 1.61 3.591 3.592l.001 3.959c.002 1.983-1.606 3.591-3.589 3.592l-.001-.002h-3.958c-1.982-.002-3.59-1.61-3.591-3.592V5.99c-.003-1.983 1.605-3.591 3.588-3.592l.001.002z" transform="rotate(35.93 135.227 7.971)"/>
                    </g>
                    <g transform="translate(1209.75 141.75)">
                        <mask id="q2xnkuuncK" fill="#fff">
                            <use xlink:href="#f0b5lz2y8H"/>
                        </mask>
                        <use fill="url(#5z81bi8y7f)" fill-rule="nonzero" opacity=".8" xlink:href="#f0b5lz2y8H"/>
                        <path fill="url(#vsgf650ymI)" fill-rule="nonzero" d="M172.353 12.413c11.318 9.595 17.946 25.621 19.884 43.689 1.835 17.965-1.02 37.87-12.339 52.365-11.318 14.392-31.203 23.477-48.435 20.823-17.131-2.756-31.611-17.149-48.13-31.643-16.622-14.495-35.18-28.99-34.568-42.872.612-13.883 20.394-27.152 37.015-36.748 16.519-9.595 29.775-15.515 44.459-16.944 14.684-1.43 30.693 1.633 42.114 11.33z" filter="url(#u207o68ocJ)" mask="url(#q2xnkuuncK)"/>
                        <path fill="url(#bxuikbg8iL)" fill-rule="nonzero" d="M110.853 12.413c11.318 9.595 17.946 25.621 19.884 43.689 1.835 17.965-1.02 37.87-12.339 52.365-11.318 14.392-31.203 23.477-48.435 20.823-17.131-2.756-31.611-17.149-48.13-31.643-16.622-14.495-35.18-28.99-34.568-42.872.612-13.883 20.394-27.152 37.015-36.748C40.799 8.432 54.055 2.512 68.739 1.083c14.684-1.43 30.693 1.633 42.114 11.33z" filter="url(#phx1tdwmfM)" mask="url(#q2xnkuuncK)"/>
                        <path fill="url(#qprobek8bN)" fill-rule="nonzero" d="M165.106 90.107c11.303 9.568 17.922 25.548 19.857 43.564 1.833 17.914-1.019 37.762-12.322 52.215-11.303 14.352-31.16 23.41-48.37 20.764-17.107-2.748-31.567-17.1-48.064-31.553-16.599-14.453-35.132-28.907-34.52-42.75.61-13.842 20.365-27.074 36.964-36.642 16.497-9.568 29.735-15.471 44.398-16.896 14.664-1.425 30.652 1.628 42.057 11.298z" filter="url(#j5d6ke70oO)" mask="url(#q2xnkuuncK)" transform="rotate(-87 113.573 142.793)"/>
                        <path fill="url(#4b05m0nqvt)" fill-rule="nonzero" d="M110.853 76.913c11.318 9.595 17.946 25.621 19.884 43.689 1.835 17.965-1.02 37.87-12.339 52.365-11.318 14.392-31.203 23.477-48.435 20.823-17.131-2.756-31.611-17.149-48.13-31.643-16.622-14.495-35.18-28.99-34.568-42.872.612-13.883 20.394-27.152 37.015-36.748 16.519-9.595 29.775-15.515 44.459-16.944 14.684-1.43 30.693 1.633 42.114 11.33z" filter="url(#s2g76xs7lP)" mask="url(#q2xnkuuncK)"/>
                    </g>
                    <path stroke="#231F20" stroke-width="1.5" d="M1041.75 444V210.7c0-6.6 5.371-11.95 11.997-11.95h0c3.183 0 6.236 1.257 8.487 3.498 2.251 2.242 3.516 5.282 3.516 8.452v81.366"/>
                    <path fill="url(#tcxcnwhubQ)" fill-rule="nonzero" d="M1059 165c0 2.903-2.52 5.25-5.628 5.25-3.107 0-5.622-2.347-5.622-5.25s2.52-5.25 5.622-5.25S1059 162.102 1059 165z"/>
                    <path fill="url(#2ku9if9j2R)" fill-rule="nonzero" d="M1059 58.5V165c0-2.899-2.52-5.251-5.628-5.251-3.107 0-5.622 2.352-5.622 5.251V62.442c3.727-1.362 7.477-2.677 11.25-3.942z" filter="url(#fcoymhvndS)"/>
                    <circle cx="1053.75" cy="201" r="1" stroke="#231F20" stroke-width="1.5"/>
                    <circle cx="1053.75" cy="195.75" r="1" stroke="#231F20" stroke-width="1.5"/>
                    <path stroke="#231F20" stroke-width="1.5" d="M1052.625 201L1052.625 195.75M1054.125 201L1054.125 195.75M1053.375 170.25L1053.375 201.75"/>
                    <path fill="#2B2B2A" fill-rule="nonzero" d="M1056.75 444.78c-9.974-1.079-20.034-1.039-30 .12.438 8.695 6.986 15.6 14.997 15.6 8.012 0 14.618-6.97 15.003-15.72zM1080.75 292.53c-9.974-1.079-20.034-1.039-30 .12.438 8.695 6.986 15.6 14.997 15.6 8.012 0 14.618-6.97 15.003-15.72z"/>
                    <path stroke="#231F20" stroke-width=".703" d="M978.375 633.446L978.375 633.304"/>
                    <path d="M700.789 652.5c.075-.453.135-.96.172-1.5"/>
                    <path fill="#E55C27" fill-rule="nonzero" d="M697.612 586.166c.24 0 .526-.082.526-.082-.083.03-.168.05-.255.06l-.27.022zM698.141 587.25c-.195-.245-.375-.495-.532-.75.165.222.337.472.532.75z"/>
                    <path fill="#E55C27" fill-rule="nonzero" d="M709.873 588.311c.005.043.005.085 0 .128.004-.043.004-.085 0-.128zM709.849 589.245l.052-.24c-.013.08-.03.161-.052.24z" opacity=".71"/>
                    <path fill="#E55C27" fill-rule="nonzero" d="M709.995 585.75c-.075-.298-.173-.574-.24-.75 0 .064.06.128.082.191.046.176.098.368.158.559z"/>
                    <g transform="translate(1198.5 406.5)">
                        <path fill="#2B2B2A" fill-rule="nonzero" d="M0 0v112.35h138.6V0H0zm133.101 106.876H5.476V5.474H133.1v101.402z"/>
                        <path fill="#FAA61B" fill-rule="nonzero" d="M133.35 5.25V107.1H6.3C6.3 60.928 43.41 5.25 89.19 5.25h44.16z" opacity=".27"/>
                        <circle cx="102.375" cy="54.075" r="30.975" fill="url(#wdn0kfxfvT)" fill-rule="nonzero" opacity=".61"/>
                        <g transform="translate(13.65 16.8)">
                            <path fill="#FAA61B" fill-rule="nonzero" stroke="#2B2B2A" stroke-linecap="round" stroke-width=".756" d="M61.441 12.739h0v-.205c.01.068.01.137 0 .205z" opacity=".77"/>
                            <path fill="#2B2B2A" fill-rule="nonzero" d="M80.144 9.828c-.086.452-.263.881-.521 1.263-.55-.017-1.097.105-1.588.355-.362.228-.695.5-.99.809h-.182c-.264-.099-.098-.756-.211-1.588-.232-1.248-.893-2.377-1.868-3.19-.672-.589-1.52-.94-2.411-.998-.93-.121-1.285.113-3.47.65-2.185.537-3.244.756-4.022.567-1.512-.4-1.898-1.512-2.563-1.338-.318.098-.847.552-.938 3.651 0 1.157 0 2.087.046 2.533-.111-.34-.261-.668-.446-.975-.203-.471-.38-.953-.53-1.444-.367-1.016-.501-2.1-.393-3.175.04-.59.373-1.12.885-1.414.34-.174.514-.204.446-.635-.098-.62-.454-1.043-.43-1.709.098-1.324.988-2.457 2.252-2.865 1.166-.419 2.438-.435 3.614-.045 1.149.363 1.973 1.172 3.258 1.119.704-.11 1.392-.306 2.049-.583.944-.35 1.987-.32 2.91.084.445.198.825.518 1.097.922.209.44.462.858.756 1.247.348.334.792.55 1.27.62.68.106 1.3 0 1.7.666.334.644.503 1.36.492 2.086.108 1.133.037 2.276-.212 3.387z"/>
                            <path stroke="#2B2B2A" stroke-linecap="round" stroke-width=".756" d="M62.318 6.154c.92.92 2.022 1.638 3.236 2.11 1.479.57 3.077.762 4.649.559"/>
                            <path fill="#FAA61B" fill-rule="nonzero" d="M82.11 14.613c-.098.592-.36 1.145-.756 1.596-.466.555-1.053.997-1.716 1.292-.287.136-.537.235-.718.303-.598.219-.658.151-.938.34-.68.454-.665 1.081-1.126 2.094-.492 1.053-1.222 1.977-2.132 2.699-.448.363-.935.675-1.452.93-1.114.608-2.36.937-3.628.96-.653.009-1.303-.067-1.936-.227-.873-.206-1.689-.604-2.389-1.164-.826-.748-1.467-1.677-1.875-2.714-1.172-2.495-1.852-5.193-2.003-7.946.007-.06.007-.12 0-.181 0-.446-.076-1.376-.045-2.533.09-3.1.62-3.553.937-3.651.665-.204 1.074.937 2.563 1.338.756.212 1.875-.045 4.022-.567 2.147-.522 2.54-.756 3.47-.65.892.059 1.74.41 2.411.998.976.813 1.636 1.942 1.868 3.19.113.824-.053 1.512.211 1.588.057.03.125.03.182 0 .295-.31.628-.581.99-.81.491-.25 1.037-.371 1.588-.355.279.02.551.095.801.22.163.088.313.197.446.325.838.734 1.29 1.814 1.225 2.925z"/>
                            <path fill="#2B2B2A" fill-rule="nonzero" d="M62.869 12.822c-1.509 0-2.726 1.284-2.726 2.861 0 1.577 1.217 2.862 2.726 2.862s2.725-1.285 2.725-2.862c0-1.577-1.216-2.861-2.725-2.861zm0 .567c1.188 0 2.158 1.024 2.158 2.294s-.97 2.295-2.158 2.295c-1.189 0-2.159-1.024-2.159-2.295 0-1.27.97-2.294 2.159-2.294z" transform="rotate(-7.97 62.869 15.683)"/>
                            <path fill="#2B2B2A" fill-rule="nonzero" d="M69.757 12.056c-1.508 0-2.725 1.284-2.725 2.861 0 1.577 1.217 2.862 2.725 2.862 1.51 0 2.726-1.285 2.726-2.862 0-1.577-1.217-2.861-2.726-2.861zm0 .567c1.189 0 2.159 1.024 2.159 2.294s-.97 2.295-2.159 2.295c-1.188 0-2.158-1.024-2.158-2.295 0-1.27.97-2.294 2.158-2.294z" transform="rotate(-7.97 69.757 14.917)"/>
                            <path fill="#2B2B2A" fill-rule="nonzero" d="M66.206 13.976c.506-.05 1.007.135 1.359.501.108.113.105.293-.008.401-.113.109-.292.105-.4-.008-.233-.24-.562-.362-.892-.33-.344.037-.651.231-.833.525-.083.133-.257.174-.39.092-.134-.082-.175-.257-.092-.39.274-.443.736-.734 1.256-.791z"/>
                            <path stroke="#2B2B2A" stroke-linecap="round" stroke-width=".703" d="M72.093 14.213L76.863 12.27"/>
                            <path fill="#2B2B2A" fill-rule="nonzero" d="M78.86 13.021c.258-.085.533-.104.8-.055.153.029.255.177.226.33-.028.155-.176.256-.33.228-.172-.032-.35-.02-.48.02-.671.335-1.075 1.042-1.023 1.79.011.157-.106.292-.263.303-.156.011-.291-.107-.302-.263-.069-.977.458-1.9 1.373-2.353zM72.052 17.423c.156-.01.291.108.301.264.067 1.03-.373 2.029-1.196 2.686-.493.34-1.08.516-1.678.504-.156-.003-.28-.133-.278-.29.003-.156.133-.28.29-.277.48.01.95-.132 1.329-.391.661-.53 1.022-1.35.967-2.195-.01-.156.109-.291.265-.301z"/>
                            <circle cx="63.626" cy="15.09" r="1" fill="#2B2B2A" fill-rule="nonzero"/>
                            <circle cx="69.991" cy="13.744" r="1" fill="#2B2B2A" fill-rule="nonzero"/>
                            <path fill="#2B2B2A" fill-rule="nonzero" d="M66.333 12.863c.137.004.248.105.271.235l.004.057-.092 3.244c-.038.337.104.666.356.865l.08.056.543.295c.138.075.19.247.115.384-.066.12-.205.175-.332.137l-.053-.022-.56-.304c-.465-.291-.737-.806-.723-1.33l.009-.12.09-3.221c.005-.157.135-.28.292-.276z"/>
                            <path fill="#FAA61B" fill-rule="nonzero" d="M65.115 58.212l-1.081 2.691-2.442-.181c-4.255-.54-8.56.504-12.096 2.933-1.163.792-2.205 1.75-3.092 2.843-2.328-.242-6.978-.439-10.743 1.149h-.075L18.379 55.77c-.37-.25-1.852-.06-2.32-.12-1.27-.172-2.517-.479-3.72-.916-2.048-.712-4.004-1.664-5.829-2.835-3.16-2.056-4.294-3.78-4.717-4.452-.446-.763-.646-1.645-.575-2.525.09-.756.438-1.331 1.21-1.43.15 0 .756-.075.831.122-.673-1.278-.998-4.045 1.225-3.954.614.019 1.192.293 1.595.756-.469-1.195-.295-2.367.386-2.888.277-.206.614-.315.96-.31.952 0 1.565.93 2.268 1.603.936.964 2.054 1.735 3.288 2.268 2.14.846 4.854.347 7.092.37 2.45.102 4.836.817 6.94 2.079l20.321 11.143 2.185-8.701 13.608 7.515 1.988 4.717zM86.646 27.76c-1.841 2.672-4.59 4.585-7.734 5.383-7 1.633-12.315-3.53-12.678-3.863 1.882-.62 3.228-.938 3.228-.938l-1.792-3.78c.633.16 1.284.236 1.936.227 1.27-.023 2.514-.352 3.629-.96.516-.255 1.003-.567 1.451-.93.905-.712 1.635-1.622 2.132-2.66.461-1.014.446-1.641 1.126-2.095.28-.189.34-.121.938-.34.181-.068.43-.167.718-.303l4.536 9.95s.998.067 2.51.31z"/>
                            <path fill="#2B2B2A" fill-rule="nonzero" d="M107.156 42.691L92.96 52.096l3.916 6.456.393.643.756 1.24-32.425-1.127-.098-.227-.386-.869-1.996-4.687-13.608-7.515-.12-.068c-.394-.22 2.698-6.222 3.023-6.766 1.412-2.353 3.284-4.397 5.504-6.01 2.575-1.681 5.375-2.99 8.316-3.886.34.333 5.655 5.511 12.64 3.863 3.159-.79 5.922-2.704 7.772-5.383 2.854.44 5.645 1.216 8.316 2.314 1.33.556 2.596 1.25 3.78 2.071 1.293.922 2.48 1.985 3.538 3.168 1.998 2.184 3.714 4.61 5.11 7.22l-.234.158z"/>
                            <path fill="#FAA61B" fill-rule="nonzero" d="M121.755 73.642c-.055 1.25-.35 2.476-.87 3.614-1.172 2.525-3.235 3.863-6.358 5.836-1.693 1.067-3.461 2.01-5.292 2.82-2.568 1.163-5.231 2.104-7.96 2.812-1.139.322-2.077 1.13-2.563 2.208-.688 1.33-1.248 2.744-1.905 4.097-.52 1.312-1.152 2.577-1.89 3.78-.703.975-2.178 1.905-3.297.983-.756-.612-.189-2.956-.12-3.243-.356 1.149-.938 2.6-1.928 3.326-.68.506-1.62.477-2.268-.068-.635-.552-.688-1.7-.37-4.664.052-.477.06-1.15.098-1.422v-.597s-.25.65-.53 1.353c-.393.976-.59 1.46-.68 1.656-.174.348-.355.756-.567 1.089-.282.629-.84 1.09-1.512 1.247-.663.01-1.284-.325-1.64-.885-.757-1.141-.235-3.122-.235-3.122s.098-.56.265-1.406c.219-1.164.574-2.85.967-4.385.235-1.074.582-2.12 1.036-3.122.855-1.847 2.03-3.529 3.47-4.967 2.268-2.155 14.614-13.495 14.614-13.495l-4.937-7.892-.408-.643-3.916-6.456 14.197-9.405 8.793 15.075c1.247 1.769 6.312 9.2 5.806 15.876z"/>
                            <path fill="#E55C27" fill-rule="nonzero" d="M107.466 133.668c-.074.02-.15.033-.227.038l-1.194.046-19.399.816-1.436.053c-.28.013-.548-.11-.719-.333-2.336-3.084-19.089-25.19-19.474-25.704-2.828-3.78-8.203-9.495-13.608-18.272-.514-.84-1.02-1.709-1.512-2.6-3.78-6.578-5.663-11.447-5.61-15.325.005-1.437.339-2.854.976-4.143.31-.617.685-1.2 1.118-1.739.888-1.092 1.93-2.05 3.092-2.842 3.536-2.43 7.841-3.473 12.096-2.934l2.442.182.802.068c.29.02.57-.108.745-.34.175-.231.222-.536.124-.81l-.151-.415c-.035-.094-.053-.194-.053-.295l.098.227 32.41 1.089-.756-1.24 5.043 7.885S89.904 78.42 87.659 80.574c-1.44 1.439-2.615 3.12-3.47 4.967-.454 1.002-.801 2.048-1.036 3.123l-2.918-.129c-.339-.014-.655.173-.804.478-.149.305-.103.67.116.928.446.522.998 1.165 1.648 1.875.212.235.552.658.99 1.232-.166.847-.264 1.407-.264 1.407s-.544 1.98.234 3.122c.357.56.978.894 1.64.884.672-.157 1.231-.618 1.513-1.247 3.833 5.292 8.974 12.595 9.98 14.092 1.511 2.268 12.851 20.412 12.851 20.412.26.327.334.764.197 1.16-.136.394-.464.692-.87.79z"/>
                            <path fill="#FAA61B" fill-rule="nonzero" d="M106.846 145.152c-5.178.953-10.584 1.512-15.815 2.42-1.12.196-8.09 1.746-7.56-.84.385-1.98 3.07-4.12 4.43-5.466 1.013-1.013.476-1.603 0-2.858-.106-.287-.756-2.411-1.24-3.87l19.376-.756c1.958 3.213 6.124 10.395.81 11.37z"/>
                            <path fill="#E55C27" fill-rule="nonzero" d="M51.462 90.274l-3.924-.144s-11.03 36.59-11.922 40.31c-.892 3.72-2.502 3.304-2.502 3.304l-2.17-.166-17.993-1.391H12.8c-.756-.053-.325-.87-.325-.87l9.7-34.904s4.913-18.5 9.132-25.243c1.049-1.608 2.574-2.847 4.362-3.546 3.78-1.587 8.414-1.39 10.743-1.149-.433.539-.808 1.122-1.12 1.739-.638 1.285-.974 2.7-.982 4.135-.053 3.878 1.86 8.747 5.61 15.324.521.892 1.028 1.762 1.542 2.601z"/>
                            <path fill="#FAA61B" fill-rule="nonzero" d="M30.944 133.578l-4.203 10.818s-.847 2.177-2.88 2.268c-2.034.09-19.816.567-19.816.567s-2.676-.491.704-3.304c1.451-1.217 2.88-2.472 4.301-3.727 2.268-1.988 2.949-5.163 3.901-7.976l17.993 1.354z"/>
                            <path stroke="#2B2B2A" stroke-linecap="round" stroke-width="1.134" d="M66.234 29.28c.333.333 5.655 5.511 12.64 3.863 3.159-.79 5.922-2.704 7.772-5.383"/>
                            <path stroke="#2B2B2A" stroke-linecap="round" stroke-width=".756" d="M92.959 52.096L107.156 42.691M49.39 45.912L63.119 53.495M59.135 42.691L65.599 59.308"/>
                            <path stroke="#2B2B2A" stroke-linecap="round" stroke-width="1.134" d="M98.016 60.435L65.599 59.308"/>
                            <path stroke="#2B2B2A" stroke-linecap="round" stroke-width=".756" d="M89.776 47.394L92.959 52.096"/>
                            <path fill="#2B2B2A" fill-rule="nonzero" d="M50.907 61.616c.138-.07.275-.139.411-.204l.409-.187c1.968-.867 3.905-1.17 6.837-1.175l.622.004.651.011.684.019 1.092.041c.871.032 1.615.092 2.481.184.312.034.537.313.504.624-.033.312-.313.537-.624.504-.674-.072-1.269-.123-1.912-.157l-.862-.037-.708-.025-.673-.019-.64-.01c-.207-.003-.41-.004-.607-.004l-.578.005c-.188.003-.372.008-.551.014l-.526.024c-2.226.123-3.798.525-5.472 1.386-1.82 1.027-3.381 2.454-4.563 4.17-3.462 5.128-1.476 14.549 5.032 23.148.189.25.14.605-.11.794-.25.189-.605.14-.794-.11-6.769-8.943-8.858-18.853-5.065-24.47 1.282-1.863 2.973-3.409 4.962-4.53zM66.34 61.038l18.174 2.676c.31.046.523.334.478.644-.042.284-.288.487-.567.484l-.077-.006-18.174-2.676c-.31-.046-.524-.334-.478-.644.042-.284.287-.487.566-.484l.077.006zM71.724 81.49c.212-.19.528-.19.74-.013l.06.059 8.4 9.434c.207.234.187.593-.047.801-.213.19-.528.19-.74.012l-.06-.059-8.4-9.434c-.208-.234-.187-.593.047-.8zM45.968 53.88c.146-.248.45-.344.708-.236l.069.035 3.122 1.837c.27.159.36.506.201.776-.146.247-.45.344-.707.236l-.07-.035-3.121-1.837c-.27-.159-.36-.506-.202-.776zM88.057 89.718c.282.056.473.311.455.59l-.01.077-.967 4.86c-.061.308-.36.507-.667.446-.282-.056-.473-.311-.455-.59l.01-.077.967-4.86c.056-.282.312-.473.59-.456l.077.01zM92.458 91.104c.085-.302.398-.478.699-.393.276.077.447.347.409.623l-.016.076-1.482 5.284c-.084.302-.397.478-.699.393-.276-.077-.447-.347-.409-.623l.016-.076 1.482-5.284zM5.687 39.307c.291-.116.621.026.737.316.882 2.21 2.581 3.996 4.745 4.987.284.13.41.467.28.752-.131.284-.468.41-.753.28-2.428-1.113-4.335-3.118-5.325-5.598-.116-.291.026-.62.316-.737zM2.724 42.023c.302-.082.614.096.697.398.267.978.684 1.908 1.234 2.756.851 1.292 1.99 2.37 3.327 3.148.27.157.362.504.205.775-.158.27-.505.362-.775.205-1.489-.867-2.757-2.066-3.706-3.508-.616-.948-1.081-1.986-1.38-3.077-.082-.302.096-.614.398-.697z"/>
                            <path fill="#2B2B2A" fill-rule="nonzero" d="M104.453 65.012c.192.21.196.525.021.74l-.058.06L101.6 68.4l-2.37 2.187-2.325 2.158-2.84 2.654-2.291 2.166-1.571 1.504-1.32 1.283-.688.682-.58.586-.464.485-.223.24-.178.203-.135.163-.064.086-.025.036c-.316.49-.629.998-.93 1.505l-.4.68-.385.679c-.728 1.576-1.275 3.23-1.636 4.95l-.195.806-.115.5-.102.473-.091.446-.08.42-.067.393-.057.37-.047.345-.036.324-.026.301-.016.281c-.012.27-.01.512.006.727l.02.207c.008.066.017.13.028.191l.035.176c.027.112.058.214.094.309l.058.135c.03.065.064.125.1.182l.035.055c.164.275.431.473.699.539.474.076 1.172-.432 1.68-1.367.15-.275.494-.377.769-.227s.377.494.227.769c-.712 1.31-1.813 2.112-2.899 1.936-.557-.135-1.043-.47-1.351-.915l-.08-.124c-.238-.347-.406-.773-.491-1.329l-.031-.246-.021-.264-.01-.28c-.003-.098-.002-.197 0-.3l.011-.32.023-.34.016-.178.04-.372.024-.195.059-.407.07-.431.083-.456.095-.483.109-.509.121-.537.136-.565.072-.294c.373-1.783.947-3.518 1.729-5.206l.318-.566.2-.346c.4-.688.824-1.387 1.256-2.057.024-.035.052-.076.086-.121l.12-.15.152-.18.184-.206.337-.363.408-.424.477-.484.62-.617 1.187-1.16 1.406-1.35 1.614-1.53 2.463-2.314 2.273-2.118 2.348-2.175 4.405-4.05c.23-.21.59-.195.8.037zM16.034 131.62l.077.002 14.886 1.391c.311.03.54.306.511.617-.026.286-.26.503-.54.514l-.077-.002-14.885-1.39c-.312-.03-.541-.306-.512-.618.026-.286.26-.502.54-.514zM102.673 133.321c.313-.013.577.23.59.544.011.286-.192.532-.467.58l-.077.01-16.027.65c-.313.012-.577-.231-.59-.544-.011-.287.192-.533.467-.581l.077-.009 16.027-.65zM68.62 26.523c.26-.124.566-.033.719.2l.038.067 1.338 2.805c.135.283.015.621-.268.756-.259.124-.565.033-.718-.2l-.038-.068-1.338-2.804c-.135-.283-.015-.621.268-.756zM72.344 23.63c.281-.138.62-.02.758.26.137.283.02.622-.262.759-1.637.797-3.515.946-5.258.418-.3-.09-.47-.407-.379-.707.091-.3.408-.469.707-.378 1.47.445 3.053.32 4.434-.353z"/>
                            <g fill-rule="nonzero" transform="translate(0 6)">
                                <rect width="7.721" height="18.46" x="14.523" y="6.4" fill="#FAA61B" rx="3.861" transform="rotate(-48.64 18.383 15.63)"/>
                                <path fill="#E55C27" d="M16.302 23.296h.32c.77 0 1.393.623 1.393 1.393v3.55c0 .77-.624 1.393-1.393 1.393-.946 0-1.713-.767-1.713-1.713v-3.195c-.01-.375.133-.739.395-1.008s.622-.42.998-.42z" transform="rotate(-20 16.462 26.464)"/>
                                <rect width="3.106" height="6.31" x="20.459" y=".483" fill="#E55C27" rx="1.553" transform="rotate(34.57 22.012 3.638)"/>
                                <path fill="#FAA61B" d="M8.786 21.523c.002 1.603-.87 3.08-2.275 3.853-1.405.772-3.12.719-4.473-.14-1.353-.86-2.13-2.388-2.03-3.988.152-2.367 2.153-4.186 4.523-4.112 2.37.074 4.253 2.016 4.255 4.387z"/>
                                <rect width="5.653" height="5.653" x="4.627" y="1.74" fill="#2B2B2A" rx="2.827" transform="rotate(-88.34 7.454 4.566)"/>
                            </g>
                        </g>
                    </g>
                    <path fill="#FAA61B" fill-rule="nonzero" stroke="#2B2B2A" stroke-linecap="round" stroke-width=".75" d="M1211.623 485.726h0v-.202c.005.067.005.135 0 .202h0z" opacity=".77"/>
                    <path fill="#2B2B2B" fill-rule="nonzero" d="M222 717.75h-35.25c0-9.941 7.891-18 17.625-18s17.625 8.059 17.625 18z"/>
                    <g>
                        <g fill="#2B2B2A" opacity=".671">
                            <path d="M72.77 148.829l-22.442-32.633 17.394-25.292c2.249-3.269 2.249-7.586 0-10.855L50.665 55.246 61.84 38.997c1.811-2.634 1.811-6.111 0-8.745L43.83 4.063c-3.068-4.461-9.66-4.461-12.727 0l-18.01 26.189c-1.812 2.634-1.812 6.111 0 8.745l11.174 16.25L7.21 80.048c-2.25 3.27-2.25 7.586 0 10.855l17.393 25.292-22.442 32.633c-2.427 3.53-2.427 8.19 0 11.719l26.778 38.935c4.111 5.98 12.943 5.98 17.054 0l26.777-38.935c2.428-3.53 2.428-8.19 0-11.72" transform="translate(166.5 495.75) translate(.41 .033)"/>
                        </g>
                        <path fill="url(#cebfk5uvoU)" fill-rule="nonzero" d="M83.34-15.24c12.852 10.872 20.377 29.03 22.577 49.5 2.084 20.355-1.158 42.907-14.009 59.33-12.851 16.307-35.428 26.6-54.995 23.594-19.45-3.123-35.891-19.43-54.647-35.853-18.872-16.423-39.944-32.846-39.25-48.575.695-15.728 23.156-30.763 42.028-41.635C3.8-19.75 18.852-26.459 35.524-28.077c16.672-1.62 34.85 1.85 47.816 12.837z" filter="url(#xebb4dy9tV)" transform="translate(166.5 495.75)"/>
                        <g stroke-width=".75">
                            <path stroke="url(#us9qh71fgW)" stroke-linecap="square" d="M105.02 161.01c-3.812-13.151 1.846-31.484 17.71-28.192 6.666 1.385 11.047 7.992 13.029 14.055 1.429 4.368 1.433 8.79.277 13.214-1.049 4.015-4.317 8.287-3.858 12.48.706 6.445 7.186 11.05 11.106 15.598 5.589 6.485 12.393 17.775.459 21.092-7.395 2.055-18.77.98-23.619-5.74-2.462-3.413-1.4-6.628-1.019-10.415.653-6.503-.415-12.833-4.343-18.116-3.409-4.584-8.093-8.284-9.742-13.975z" opacity=".669" transform="translate(166.5 495.75) translate(-69 9)"/>
                            <path stroke="url(#us9qh71fgW)" stroke-linecap="square" d="M33.77 153.51c-3.812-13.151 1.846-31.484 17.71-28.192 6.666 1.385 11.047 7.992 13.029 14.055 1.429 4.368 1.433 8.79.277 13.214-1.049 4.015-4.317 8.287-3.858 12.48.706 6.445 7.186 11.05 11.106 15.598 5.589 6.485 12.393 17.775.459 21.092-7.395 2.055-18.77.98-23.619-5.74-2.462-3.413-1.4-6.628-1.019-10.415.653-6.503-.415-12.833-4.343-18.116-3.409-4.584-8.093-8.284-9.742-13.975z" opacity=".669" transform="translate(166.5 495.75) translate(-69 9) rotate(69 55.861 163.812)"/>
                            <path stroke="url(#us9qh71fgW)" stroke-linecap="square" d="M23.27 153.51c-3.812-13.151 1.846-31.484 17.71-28.192 6.666 1.385 11.047 7.992 13.029 14.055 1.429 4.368 1.433 8.79.277 13.214-1.049 4.015-4.317 8.287-3.858 12.48.706 6.445 7.186 11.05 11.106 15.598 5.589 6.485 12.393 17.775.459 21.092-7.395 2.055-18.77.98-23.619-5.74-2.462-3.413-1.4-6.628-1.019-10.415.653-6.503-.415-12.833-4.343-18.116-3.409-4.584-8.093-8.284-9.742-13.975z" opacity=".669" transform="translate(166.5 495.75) translate(-69 9) rotate(69 45.361 163.812)"/>
                            <path stroke="url(#xfxjlays3X)" stroke-linecap="square" d="M111.327 162.75c-2.452-8.456 1.186-20.244 11.387-18.126 4.286.89 7.103 5.138 8.378 9.036.918 2.808.92 5.652.177 8.496-.674 2.581-2.775 5.328-2.48 8.025.455 4.144 4.62 7.104 7.14 10.028 3.594 4.17 7.97 11.43.296 13.562-4.756 1.322-12.07.63-15.187-3.691-1.582-2.194-.9-4.261-.655-6.696.42-4.18-.266-8.251-2.792-11.649-2.191-2.946-5.203-5.325-6.264-8.985z" opacity=".669" transform="translate(166.5 495.75) translate(-69 9)"/>
                            <g stroke-linecap="square" opacity=".367">
                                <g>
                                    <path stroke="url(#xfxjlays3X)" d="M11.986 10.877C9.535 2.42 13.173-9.367 23.374-7.25c4.285.89 7.102 5.138 8.377 9.037.918 2.808.921 5.651.178 8.495-.675 2.581-2.775 5.329-2.481 8.025.455 4.144 4.62 7.105 7.14 10.028 3.595 4.17 7.97 11.43.296 13.562-4.756 1.322-12.069.63-15.187-3.691-1.582-2.194-.899-4.26-.654-6.695.42-4.182-.267-8.252-2.793-11.65-2.191-2.946-5.203-5.325-6.264-8.984z" transform="translate(166.5 495.75) translate(-69 9) rotate(2 -1162.247 1324.357) rotate(10 1.204 35.523) rotate(94 26.19 17.5)"/>
                                    <path stroke="url(#k33rbsgyvY)" d="M11.846 10.113C9.754 3.01 12.858-6.892 21.563-5.114c3.658.748 6.062 4.316 7.15 7.591.783 2.359.786 4.747.151 7.136-.576 2.169-2.368 4.476-2.117 6.741.389 3.482 3.943 5.968 6.094 8.424 3.067 3.503 6.8 9.601.252 11.392-4.058 1.11-10.3.53-12.96-3.1-1.35-1.843-.767-3.58-.559-5.625.359-3.512-.227-6.93-2.383-9.785-1.87-2.475-4.44-4.473-5.345-7.547z" transform="translate(166.5 495.75) translate(-69 9) rotate(2 -1162.247 1324.357) rotate(10 1.204 35.523) rotate(98 23.967 15.676)"/>
                                </g>
                            </g>
                            <path stroke="#E55C27" d="M160.576 73.752c-7.258.91-9.731-13.995-21.176-15.639-8.497-1.22-11.493 6.37-19.873 4.888-9.498-1.68-17.9-13.588-15.64-20.85 2.2-7.062 13.435-6.378 14.662-13.033 1.114-6.039-7.69-9.045-7.168-16.614.385-5.565 5.652-11.344 11.729-12.055 6.97-.815 13.344 5.23 15.312 11.077 3.051 9.064-5.295 15.26-1.63 21.828 2.043 3.658 5.176 2.716 15.64 7.82 9.787 4.773 15.453 7.536 17.266 13.031 2.538 7.694-3.125 18.794-9.122 19.547z" transform="translate(166.5 495.75) translate(-69 9)"/>
                            <g stroke="#E55C27">
                                <path d="M73.685 94.95c-9.37 1.171-12.564-18.014-27.34-20.13-10.97-1.57-14.84 8.199-25.658 6.291C8.424 78.95-2.423 63.621.496 54.273c2.839-9.09 17.344-8.209 18.928-16.774 1.438-7.774-9.928-11.643-9.254-21.386C10.667 8.95 17.467 1.512 25.312.597c8.999-1.05 17.23 6.731 19.77 14.257 3.94 11.667-6.836 19.641-2.104 28.097 2.637 4.708 6.683 3.496 20.192 10.064 12.636 6.145 19.952 9.7 22.292 16.774 3.277 9.903-4.035 24.191-11.777 25.16z" transform="translate(166.5 495.75) translate(-69 9) rotate(-18 172.427 2.747)"/>
                                <path d="M70.056 86.287c-6.68.837-8.958-12.866-19.495-14.378-7.822-1.12-10.58 5.856-18.295 4.494-8.744-1.544-16.48-12.493-14.397-19.17 2.025-6.492 12.368-5.863 13.498-11.981 1.024-5.554-7.08-8.318-6.6-15.277.354-5.116 5.203-10.429 10.798-11.083 6.416-.75 12.284 4.809 14.096 10.185 2.81 8.334-4.873 14.029-1.5 20.068 1.88 3.363 4.766 2.498 14.397 7.19 9.01 4.388 14.228 6.928 15.895 11.98 2.338 7.074-2.876 17.28-8.397 17.972z" transform="translate(166.5 495.75) translate(-69 9) rotate(-18 172.427 2.747)"/>
                            </g>
                            <path stroke="url(#5g44x5vioZ)" stroke-linecap="square" d="M155.504 63.821c-5.21.654-6.986-10.048-15.204-11.229-6.1-.875-8.252 4.574-14.27 3.51-6.82-1.206-12.853-9.757-11.229-14.972 1.58-5.069 9.647-4.578 10.528-9.356.799-4.337-5.522-6.496-5.147-11.931.276-3.995 4.058-8.144 8.421-8.655 5.004-.586 9.582 3.755 10.995 7.954 2.191 6.508-3.801 10.956-1.17 15.672 1.466 2.627 3.717 1.951 11.229 5.615 7.027 3.427 11.097 5.411 12.397 9.357 1.823 5.524-2.243 13.495-6.55 14.035z" opacity=".324" transform="translate(166.5 495.75) translate(-69 9)"/>
                        </g>
                        <g stroke="#E55C27" stroke-width=".75">
                            <path d="M178.109 73.396c-7.258.91-9.731-13.995-21.176-15.639-8.497-1.22-11.493 6.37-19.873 4.888-9.498-1.68-17.9-13.589-15.64-20.851 2.2-7.061 13.435-6.377 14.662-13.032 1.114-6.039-7.69-9.045-7.168-16.615C129.3 6.583 134.566.804 140.643.093c6.97-.816 13.344 5.23 15.312 11.076 3.051 9.065-5.295 15.26-1.63 21.829 2.043 3.658 5.176 2.716 15.64 7.819 9.787 4.774 15.453 7.537 17.266 13.032 2.538 7.693-3.125 18.794-9.122 19.547z" transform="translate(166.5 495.75) rotate(-107 72.686 88.391)"/>
                            <path d="M78.757 141.839c-7.258.91-9.731-13.995-21.176-15.64-8.497-1.219-11.493 6.37-19.873 4.889-9.498-1.68-17.9-13.589-15.64-20.851 2.2-7.061 13.435-6.377 14.662-13.032 1.114-6.04-7.69-9.045-7.168-16.615.385-5.564 5.652-11.344 11.729-12.055 6.97-.815 13.344 5.23 15.312 11.077 3.051 9.065-5.295 15.26-1.63 21.829 2.043 3.658 5.176 2.716 15.64 7.819 9.787 4.773 15.453 7.536 17.266 13.032 2.538 7.693-3.125 18.794-9.122 19.547z" transform="translate(166.5 495.75) rotate(-107 72.686 88.391) rotate(56 55.099 105.17)"/>
                            <path d="M73.476 148.851c-7.258.91-9.731-13.995-21.176-15.639-8.497-1.22-11.493 6.37-19.873 4.888-9.498-1.68-17.9-13.588-15.64-20.85 2.2-7.062 13.435-6.378 14.662-13.033 1.114-6.039-7.69-9.045-7.168-16.614.385-5.565 5.652-11.344 11.729-12.055 6.97-.815 13.344 5.23 15.312 11.077 3.051 9.064-5.295 15.26-1.63 21.828 2.043 3.658 5.176 2.716 15.64 7.82 9.787 4.773 15.453 7.536 17.266 13.031 2.538 7.694-3.125 18.794-9.122 19.547z" transform="translate(166.5 495.75) rotate(-107 72.686 88.391) rotate(56 49.818 112.182)"/>
                            <path d="M169.744 65.954c-5.21.653-6.986-10.049-15.204-11.23-6.1-.874-8.252 4.574-14.27 3.51-6.82-1.205-12.853-9.757-11.229-14.971 1.58-5.07 9.647-4.578 10.528-9.357.799-4.337-5.522-6.495-5.147-11.93.276-3.996 4.058-8.145 8.421-8.656 5.004-.585 9.582 3.756 10.995 7.954 2.191 6.509-3.801 10.956-1.17 15.673 1.466 2.626 3.717 1.95 11.229 5.614 7.027 3.428 11.097 5.412 12.397 9.357 1.823 5.525-2.243 13.495-6.55 14.036z" transform="translate(166.5 495.75) rotate(-107 72.686 88.391)"/>
                        </g>
                        <path fill="url(#4v6x6wxtiaa)" fill-rule="nonzero" d="M73.74 92.983c9.1 7.698 14.43 20.556 15.987 35.052 1.476 14.414-.82 30.384-9.92 42.014-9.1 11.548-25.088 18.836-38.944 16.707-13.774-2.211-25.416-13.759-38.698-25.388-13.363-11.63-28.285-23.26-27.793-34.398.492-11.138 16.397-21.784 29.761-29.483C17.415 89.79 28.073 85.04 39.88 83.892c11.806-1.147 24.678 1.31 33.86 9.09z" filter="url(#b6d407ujzab)" transform="translate(166.5 495.75) rotate(91 32.25 135.375)"/>
                    </g>
                </g>
                <g transform="translate(115) translate(-114.75) translate(642.75 486.75)">
                    <path fill="#2B2B2A" fill-rule="nonzero" d="M96.383 170.026c-28.19-2.98-56.621-2.867-84.786.337C12.825 194.4 31.34 213.503 54 213.503c22.727 0 41.296-19.278 42.383-43.477z"/>
                    <path fill="#E55C27" fill-rule="nonzero" d="M50.584 102.6c-.503-.015-.963.283-1.154.75l-3.53 8.855c-.073.181-.22.321-.405.385-.121.035-.25.035-.371 0-.027-.003-.054-.003-.081 0 .099 1.543.02 3.092-.236 4.617-.103.63-.24 1.255-.412 1.87-.277 1.02-.636 2.015-1.074 2.977v-.041c1.482-.046 2.948-.307 4.354-.776 1.111-.549 2.088-1.334 2.862-2.302.272-.358.498-.748.675-1.161.326-.81.497-1.672.506-2.545v-11.88c-.19-.457-.638-.754-1.134-.749zm9.396 17.672c-.34-1-.6-2.024-.776-3.065-.256-1.525-.335-3.074-.236-4.617-.027-.003-.054-.003-.081 0-.121.035-.25.035-.371 0-.182-.065-.327-.205-.398-.385-1.193-2.947-2.383-5.9-3.571-8.856-.181-.455-.621-.753-1.11-.753-.49 0-.93.298-1.111.753v11.887c-.003 1.075.26 2.135.763 3.085.112.216.24.424.385.62.775.967 1.751 1.752 2.862 2.302 1.403.47 2.867.73 4.346.777-.263-.57-.497-1.154-.702-1.748z"/>
                    <path fill="#EE662F" fill-rule="nonzero" d="M66.589 122.135H35.91c2.835-.925 5.657-1.924 8.43-3.052 1.5-.607 2.984-1.255 4.456-1.964l2.355.675 1.924.54 6.905 1.951 6.609 1.85z"/>
                    <path d="M47.047 153.981c.068-.675.122-1.431.156-2.234"/>
                    <path fill="#E55C27" fill-rule="nonzero" d="M41.229 67.567c.337-.304.794-.438 1.242-.364.45.094.844.364 1.094.75l-.149-.109c-.282-.25-.616-.432-.979-.533-.42-.126-.875-.029-1.208.256zM42.343 70.875c.216 0 .472-.074.472-.074-.074.027-.15.045-.23.054-.08.013-.16.02-.242.02zM43.294 71.921c-.175-.358-.337-.722-.479-1.093.162.324.318.722.48 1.093z"/>
                    <path fill="#E55C27" fill-rule="nonzero" d="M58.05 73.872v.115-.115zM57.949 74.203c.014-.073.032-.145.054-.216-.02.074-.034.148-.054.216z" opacity=".71"/>
                    <path fill="#E55C27" fill-rule="nonzero" d="M58.145 70.551c-.068-.378-.156-.729-.21-.952 0 .081.047.162.068.236.047.23.101.473.142.716z"/>
                    <path fill="#E55C27" fill-rule="nonzero" d="M56.7 77.227c-.433.658-.985 1.23-1.627 1.687-.722.824.257 1.35.21 1.445-.837 1.714-1.749 1.012-6.433.202.33-.144.638-.337.911-.574.236-.215.31-.431.175-.62-.93-.376-1.787-.913-2.53-1.587-1.513-1.125-2.704-2.626-3.457-4.353L44.037 81c2.9 1.266 6.142 1.525 9.207.736 1.28-.352 2.498-.898 3.611-1.62l-.155-2.89z" opacity=".78"/>
                    <path fill="#FAA61B" fill-rule="nonzero" d="M58.225 72.3v.262c0 .19 0 .372-.053.527-.054.155 0 .236-.054.358-.055.121-.041.236-.068.358-.027.121-.04.215-.067.33.003.014.003.027 0 .04-.054.217-.108.44-.183.676-.253.816-.624 1.592-1.1 2.302-.43.661-.981 1.234-1.627 1.687-.755.533-1.648.838-2.572.877-.875.043-1.75-.102-2.564-.425-.931-.378-1.788-.917-2.532-1.593-1.511-1.123-2.702-2.621-3.456-4.347-.243-.533-.438-1.046-.627-1.505-.19-.459-.338-.729-.48-1.1-.074.027-.151.047-.23.06-.08.007-.161.007-.242 0-.869-.062-1.57-.734-1.667-1.6-.114-.598.06-1.216.472-1.666l.04-.041c.333-.312.794-.448 1.242-.365.45.09.845.358 1.094.743 1.35.857 2.578-2.335 3.112-2.464 1.6-.398 2.261 2.316 4.981 3.119 2.491.742 5.448-.5 6.014.222.655.824.669 2.356.567 3.544z"/>
                    <path fill="#E55C27" fill-rule="nonzero" d="M56.855 80.109c-1.113.722-2.331 1.269-3.611 1.62-3.064.792-6.305.535-9.207-.729l-.115-7.567c.753 1.728 1.944 3.23 3.456 4.354.744.673 1.601 1.21 2.532 1.586.815.322 1.689.469 2.565.432.924-.042 1.817-.348 2.571-.884.642-.457 1.194-1.029 1.627-1.688l.182 2.876z"/>
                    <path fill="#FAA61B" fill-rule="nonzero" d="M80.217 94.851c-1.573-1.903-10.017-12.19-22.066-14.526-.425-.081-.857-.155-1.296-.216-1.113.722-2.331 1.269-3.611 1.62-3.064.792-6.305.535-9.207-.729-.972.257-1.883.54-2.7.837l-.236.081c-1.892.678-3.717 1.528-5.454 2.538-7.972 4.644-13.777 13.419-17.145 21.802-1.54 3.835-1.883 6.035-1.775 8.1.033 1.58.463 3.125 1.248 4.496.521 1.014 1.307 1.868 2.275 2.47.98.57 2.1.85 3.233.81H35.91l-.6.19.404.114c5.411 1.26 10.956 1.852 16.51 1.762 4.863.011 9.701-.682 14.365-2.059h12.528c.603.024 1.206-.012 1.802-.108 1.693-.198 3.28-.926 4.536-2.079 2.362-2.281 2.464-5.94 2.457-7.661-.027-7.958-5.407-14.661-7.695-17.442zm-48.6 14.56c.373-.876.804-1.726 1.29-2.545.588-.993 1.254-1.939 1.99-2.828.034 2.025.088 4.084.183 6.196l-3.463-.823zm20.02 5.825c-.009.872-.18 1.735-.506 2.545-.177.413-.403.803-.675 1.16-.774.968-1.75 1.754-2.862 2.302-1.406.47-2.872.73-4.354.777v.04c.438-.961.797-1.957 1.074-2.977.171-.615.309-1.239.411-1.87.256-1.524.336-3.073.237-4.616.027-.003.054-.003.08 0 .122.034.25.034.372 0 .184-.064.332-.204.405-.385l.047-.121c1.175-2.912 2.347-5.823 3.517-8.735.184-.454.624-.75 1.114-.75.49 0 .93.296 1.114.75l.027 11.88zm4.725 6.115c-1.155-.55-2.178-1.344-2.997-2.328-.8-1.113-1.243-2.443-1.269-3.814l-.08-3.659-.19-8.666c.178-.474.626-.792 1.132-.803.506-.01.967.29 1.163.755 1.161 2.7 2.32 5.418 3.477 8.154.128.318.263.628.398.939.025.066.062.128.108.182.083.095.19.165.31.202.126.038.26.038.385 0h.081v2.12c.051.895.162 1.786.331 2.666.327 1.713.87 3.378 1.613 4.954-1.506-.023-3.001-.26-4.441-.701h-.02zm12.488-11.117l-4.502 1.067 4.374-1.04c.054-2.335.06-4.61 0-6.817.743 1.02 1.435 2.076 2.072 3.165.574.986 1.067 1.931 1.492 2.822l-3.436.803z"/>
                    <path fill="#E55C27" fill-rule="nonzero" d="M103.856 142.472c.018.892-.073 1.783-.27 2.653-2.33 10.24-16.005 9.963-24.078 8.532-5.423-.976-10.741-2.465-15.882-4.448.81 1.093 1.62 2.194 2.436 3.287l-.168-.21-8.364-10.232c-1.093-1.35-2.133-2.754-3.253-4.05-.952-1.134-2.147-2.16-3.706-2.16h-6.224c1.068 2.572 1.849 5.255 2.33 7.999.454 2.61.63 5.262.526 7.91l-.156 2.228c-1.883.142-20.958 1.519-32.568.797-4.84-.297-9.187-2.201-12.096-6.197-2.761-3.8-3.436-8.856-.358-12.683 2.12-2.633 5.434-4.05 8.417-5.292 8.1-3.422 16.551-5.59 24.854-8.282l.405.114c5.415 1.262 10.964 1.853 16.524 1.762 4.862.011 9.7-.682 14.364-2.059h.054l1.296.365 15.086 4.259c1.444.33 3.523.864 5.974 1.687 3.834 1.283 8.1 2.424 11.056 5.313 2.353 2.297 3.716 5.42 3.8 8.707z"/>
                    <path fill="#2B2B2A" fill-rule="nonzero" d="M68.85 110.234l3.47-.823c-.426-.891-.918-1.836-1.492-2.822-.637-1.09-1.329-2.146-2.073-3.165v6.817l.095-.007z"/>
                    <path fill="#231F20" fill-rule="nonzero" d="M44.76 113.137c-.054.01-.11.01-.163 0-1.559-.527-3.159-1.013-4.725-1.438-1.566-.425-3.375-.83-5.029-1.154-.131-.023-.248-.098-.323-.21-.076-.11-.102-.247-.075-.377.025-.133.101-.25.213-.327.111-.076.249-.104.381-.079 1.694.331 3.409.723 5.09 1.168 1.68.446 3.24.925 4.82 1.458.234.08.376.317.336.562-.04.244-.251.423-.499.424l-.027-.027z"/>
                    <path fill="#E55C27" fill-rule="nonzero" d="M60.878 122.053c-1.523-.009-3.037-.236-4.495-.674-1.156-.55-2.179-1.345-2.997-2.33-.8-1.112-1.243-2.442-1.27-3.813l-.27-12.326c.178-.473.626-.791 1.132-.802.506-.01.967.29 1.164.755 1.16 2.7 2.32 5.418 3.476 8.154.128.318.263.628.398.939.076.183.23.324.419.384.125.038.259.038.384 0h.081v2.12c.051.895.162 1.786.331 2.666.34 1.705.894 3.36 1.647 4.927z"/>
                    <path fill="#231F20" fill-rule="nonzero" d="M28.688 109.876c-.258-.017-.462-.226-.472-.484-.01-.258.175-.483.431-.521l2.95-.223c.18-.013.355.071.457.221.102.15.116.343.037.506-.08.163-.24.272-.42.285l-2.95.216h-.034z"/>
                    <path fill="#E55C27" fill-rule="nonzero" d="M51.82 103.194l-.31 12.231c-.03 1.36-.476 2.68-1.276 3.78-.818.96-1.837 1.73-2.984 2.255-1.447.44-2.95.667-4.462.675v.04c.755-1.573 1.306-3.236 1.64-4.948.304-1.555.424-3.141.358-4.725h.081c.124.034.255.034.378 0 .19-.06.343-.2.419-.384 1.296-2.997 2.587-5.997 3.874-8.998.193-.465.652-.763 1.155-.75.503.014.946.336 1.113.81l.014.014z"/>
                    <path fill="#231F20" fill-rule="nonzero" d="M42.809 122.647l-.034-.465-.46-.223c.737-1.532 1.275-3.151 1.6-4.82.192-.972.31-1.959.352-2.95v-.91-.23c-.007-.121-.007-.243 0-.365 0-.167.068-.328.188-.445.17-.189.43-.267.675-.203.036-.025.064-.06.081-.1l3.875-9.005c.28-.648.925-1.062 1.63-1.044.706.018 1.33.463 1.576 1.125v.094l-.276 12.319c-.028 1.456-.499 2.869-1.35 4.05-.864 1.036-1.945 1.87-3.166 2.444-1.52.474-3.1.72-4.691.728zm2.483-9.618v1.208c-.046 1.04-.168 2.076-.364 3.098-.3 1.463-.753 2.89-1.35 4.26 1.171-.043 2.331-.243 3.45-.594 1.068-.504 2.016-1.232 2.78-2.133.738-1.017 1.148-2.235 1.175-3.49l.317-12.103c-.116-.23-.344-.38-.6-.398-.298-.019-.572.16-.676.439l-3.874 8.997c-.12.31-.365.556-.675.675l-.183.04zM49.808 82.701c-2.04-.02-4.056-.442-5.933-1.242-.239-.119-.345-.403-.241-.65.103-.246.38-.369.633-.281 2.797 1.217 5.92 1.468 8.876.715 1.232-.338 2.404-.864 3.476-1.56.231-.13.524-.063.675.156.138.23.07.528-.155.675-1.159.749-2.424 1.318-3.753 1.688-1.165.328-2.368.496-3.578.499z"/>
                    <path fill="#231F20" fill-rule="nonzero" d="M50.436 124.7c-5.381-.001-10.743-.647-15.97-1.924-.21-.051-.365-.23-.385-.446 0-.175-.034-.358-.054-.533-.015-.148.034-.296.135-.405.102-.11.249-.167.398-.155l8.255.398c.136.005.264.065.355.165.091.1.139.233.131.368-.005.135-.065.262-.165.353-.1.09-.233.136-.368.126l-5.4-.263c4.387.877 8.85 1.313 13.325 1.303 5.352-.031 10.68-.711 15.869-2.025.18-.06.377-.013.512.119.136.132.186.329.13.51-.055.18-.206.316-.392.35-5.272 1.324-10.684 2.003-16.12 2.025l-.256.034z"/>
                    <path fill="#2B2B2A" fill-rule="nonzero" d="M112.266 120.48c-.258 6.464-2.231 12.743-5.717 18.192-.828 1.316-1.73 2.585-2.7 3.8-.086-3.287-1.452-6.412-3.807-8.707-2.984-2.89-7.223-4.05-11.057-5.313-2.45-.823-4.529-1.35-5.974-1.687L68.02 122.54l-1.29-.365h-.053 12.527c.603.024 1.207-.013 1.803-.108 1.693-.198 3.28-.926 4.536-2.079 2.362-2.281 2.463-5.94 2.457-7.661 0-7.952-5.4-14.654-7.695-17.436-1.66-1.944-10.105-12.23-22.154-14.566-.425-.081-.857-.155-1.296-.216l-.155-2.882c.463-.712.82-1.488 1.06-2.302.074-.216.128-.439.182-.675.003-.013.003-.027 0-.04 0-.108.047-.223.068-.331.02-.108.047-.237.067-.358.02-.121.04-.236.054-.351.014-.115.04-.338.054-.533v-.196-.067c.101-1.182.088-2.7-.553-3.544-.567-.716-3.524.52-6.015-.216-2.7-.81-3.375-3.524-4.981-3.126-.534.129-1.735 3.322-3.112 2.464-.249-.385-.644-.653-1.093-.742-.162-.024-.325-.024-.486 0-.283.048-.546.177-.757.371l-.04.04c-.39.416-.585.977-.54 1.544.044.568.326 1.09.776 1.44.22.176.484.286.763.317h.155c.081.007.162.007.243 0 .079-.007.156-.026.23-.054.142.372.31.736.479 1.094.189.459.385.972.628 1.505L44.037 81c-.972.257-1.883.54-2.7.837l-.236.081c-.047-.142-.054-.223 0-.203-.487-.518-.843-1.145-1.04-1.829-.949-2.729-1.607-5.55-1.964-8.417-.223-2.7-.513-6.21 1.83-9.531 1.509-2.047 3.618-3.573 6.034-4.367 1.617-.638 3.355-.91 5.09-.797 3.914.31 6.796 2.74 8.524 4.158 1.83 1.505 2.295 2.37 5.137 5.772 2.064 2.628 4.292 5.123 6.67 7.472 3.577 3.496 6.013 4.92 14.775 10.638 8.43 5.508 12.677 8.289 14.303 9.774 3.693 3.375 8.175 7.567 10.483 14.54 1.161 3.665 1.61 7.519 1.323 11.353z"/>
                    <path fill="#FAA61B" fill-rule="nonzero" d="M65.475 154.825c-.725.624-1.777.688-2.572.155 0 0-9.875-5.501-10.253-5.292-.378.21-5.4 1.269-5.4 1.269l-.054.763c.105-2.648-.072-5.3-.526-7.911-.479-2.744-1.257-5.426-2.323-7.999h6.224c1.56 0 2.754 1.026 3.706 2.16 1.12 1.35 2.153 2.7 3.253 4.05l8.364 10.24.168.202c.323.833.088 1.778-.587 2.363z"/>
                    <path fill="#231F20" fill-rule="nonzero" d="M39.825 135.418h-.074c-2.592-.377-5.238-.674-7.85-.897-4.423-.361-8.862-.483-13.298-.365-.274 0-.499-.218-.506-.493-.006-.134.044-.266.136-.363.093-.098.222-.155.357-.156 4.47-.116 8.942.008 13.398.371 2.64.216 5.299.52 7.918.905.259.042.442.275.423.536-.02.262-.235.465-.497.47l-.007-.007zM47.007 149.85c-.278-.011-.497-.242-.493-.52.048-1.824-.06-3.648-.324-5.454-.276-1.834-.712-3.641-1.302-5.4-.09-.264.052-.551.317-.641.13-.054.279-.05.407.01.128.06.225.172.268.307.618 1.821 1.07 3.694 1.35 5.596.277 1.863.39 3.747.337 5.63-.008.138-.073.266-.179.356-.106.089-.243.131-.381.116z"/>
                    <path fill="#231F20" fill-rule="nonzero" d="M66.062 153.002c-.154 0-.3-.07-.398-.189l-8.525-10.442c-.48-.587-.952-1.195-1.425-1.796-.587-.755-1.201-1.538-1.822-2.281-1.134-1.35-2.187-1.978-3.321-1.978h-7.303c-.28 0-.507-.226-.507-.506s.227-.506.506-.506h7.304c1.91 0 3.254 1.35 4.097 2.342.635.756 1.249 1.546 1.85 2.309.465.593.931 1.194 1.41 1.775l8.526 10.449c.174.216.14.533-.075.708-.09.073-.201.113-.317.115zM35.923 134.784c-.147 0-.287-.064-.384-.175-.088-.102-.132-.235-.122-.37.01-.134.073-.258.176-.346 1.28-1.104 2.714-2.014 4.259-2.7.844-.378 1.718-.685 2.612-.918h.129c1.35 0 2.733 0 4.09.108 1.1.067 2.227.182 3.375.324.133.015.254.083.337.188.082.106.119.24.102.372-.017.134-.086.255-.193.337-.106.083-.24.12-.374.102-1.094-.135-2.194-.243-3.28-.31-1.31-.088-2.633-.122-3.95-.108-2.369.64-4.561 1.81-6.412 3.422-.107.072-.238.099-.364.074z"/>
                    <path fill="#231F20" fill-rule="nonzero" d="M86.717 136.215h-.114c-5.88-1.35-11.9-2.383-17.881-3.159-5.832-.756-11.779-1.256-17.658-1.485-.04.06-.129.155-.216.27-.181.218-.32.467-.412.736-.042.135-.14.246-.268.305-.129.06-.277.061-.407.005-.127-.043-.231-.135-.29-.255-.058-.12-.066-.26-.02-.386.129-.376.32-.727.566-1.04.118-.142.244-.277.378-.404.186-.165.428-.252.675-.243 5.913.229 11.88.735 17.746 1.491 6.014.783 12.063 1.85 17.975 3.173.27.067.44.334.385.607-.054.214-.239.369-.459.385zM44.347 136.485h-1.08c-.372 0-.675-.302-.675-.675 0-.373.303-.675.675-.675h1.08c.373 0 .675.302.675.675 0 .373-.302.675-.675.675zM65.09 122.884h-1.242c-1.12 0-2.146-.054-3.03-.142-.242-.023-.452-.173-.553-.393-.1-.22-.076-.478.064-.675.14-.197.376-.305.617-.282.85.081 1.829.128 2.916.135h.526c.707.024 1.415.004 2.12-.06.369-.044.703.218.749.587.044.368-.219.703-.587.749-.525.06-1.052.087-1.58.08zM51.475 74.588c-.323.002-.64-.098-.904-.284-.416-.308-.666-.792-.675-1.31.004-.139.117-.25.257-.25.066-.001.13.025.178.072.047.047.073.112.071.178.004.352.168.682.446.898.23.16.514.22.79.169.137-.017.263.078.284.214.022.136-.068.266-.203.292-.081.012-.162.019-.244.02zM48.236 69.856c-.046-.001-.09-.015-.129-.04-.057-.034-.099-.09-.116-.155-.016-.064-.006-.133.029-.19.219-.347.57-.59.971-.675.37-.071.753-.001 1.074.196.058.033.1.09.115.154.015.066.003.134-.034.19-.073.117-.225.156-.345.088-.202-.121-.441-.167-.675-.129-.277.053-.52.216-.674.453-.05.07-.131.11-.216.108zM51.8 73.11c-.119.003-.225-.071-.264-.183-.02-.06-.016-.128.013-.185.03-.057.08-.1.142-.119h.054c.095 0 .237-.06.264-.121.128-.344-.257-1.769-.385-2.241 0-.115-.06-.21-.074-.277-.016-.065-.005-.135.03-.192.036-.057.093-.097.159-.112.065-.016.134-.005.191.03.058.036.098.093.112.16 0 .053.041.148.068.262.337 1.229.526 2.14.371 2.552-.12.233-.347.394-.607.432l-.075-.007z"/>
                    <circle cx="46.703" cy="71.388" r="1" fill="#E55C27" fill-rule="nonzero"/>
                    <path fill="#231F20" fill-rule="nonzero" d="M41.587 69.316c-.063 0-.124-.024-.169-.068-.097-.1-.097-.258 0-.358.481-.502 1.278-.52 1.782-.04.077.1.071.24-.014.332-.086.092-.226.109-.33.04-.18-.173-.429-.253-.675-.217-.18.03-.344.121-.466.257-.037.029-.081.048-.128.054z"/>
                    <path fill="#2B2B2A" fill-rule="nonzero" d="M58.887 112.887c-.25-.003-.461-.19-.495-.438-.034-.248.12-.484.36-.554 1.606-.466 3.247-.878 4.873-1.236 1.627-.357 3.43-.675 5.144-.938.277-.036.532.156.574.432.04.276-.15.532-.425.574-1.695.243-3.376.553-5.077.925-1.7.371-3.22.756-4.812 1.215l-.142.02z"/>
                    <rect width="8.768" height="20.965" x="48.795" y="3.714" fill="#FAA61B" fill-rule="nonzero" rx="4.384" transform="rotate(-123.66 53.18 14.197)"/>
                    <rect width="3.53" height="7.162" x="57.127" y="24.236" fill="#FAA61B" fill-rule="nonzero" rx="1.762" transform="rotate(-49.25 58.892 27.817)"/>
                    <rect width="3.53" height="7.162" x="43.822" y=".567" fill="#E55C27" fill-rule="nonzero" rx="1.762" transform="rotate(-19.29 45.587 4.148)"/>
                    <circle cx="35.404" cy="22.984" r="4.144" fill="#2B2B2A" fill-rule="nonzero"/>
                    <rect width="9.97" height="9.97" x="40.526" y="29.818" fill="#E55C27" fill-rule="nonzero" rx="4.981" transform="rotate(-117.59 45.511 34.803)"/>
                </g>
            </g>
        </g>
    </g>
</svg>
