<svg xmlns="http://www.w3.org/2000/svg" xmlns:xlink="http://www.w3.org/1999/xlink" width="100%" height="100%" viewBox="0 0 553 520">
    <defs>
        <linearGradient id="3s84zknadb" x1="-47.089%" x2="100%" y1="-48.213%" y2="99.998%">
            <stop offset="0%" stop-color="#FAF4EA"/>
            <stop offset="100%" stop-color="#FFA600"/>
        </linearGradient>
        <linearGradient id="vxxn8zk6lc" x1="70.638%" x2="20.054%" y1="98.702%" y2="19.207%">
            <stop offset="0%" stop-color="#FFB42B"/>
            <stop offset="100%" stop-color="#FFD56E"/>
        </linearGradient>
        <linearGradient id="eaa79j5gwd" x1="70.638%" x2="20.054%" y1="99.997%" y2="18.388%">
            <stop offset="0%" stop-color="#FFB42B"/>
            <stop offset="100%" stop-color="#FFD05D"/>
        </linearGradient>
        <linearGradient id="lx89v1wake" x1="70.638%" x2="20.054%" y1="73.442%" y2="35.179%">
            <stop offset="0%" stop-color="#FFB42B"/>
            <stop offset="100%" stop-color="#FFD56E"/>
        </linearGradient>
        <linearGradient id="stozi5t2df" x1="66.597%" x2="25.917%" y1="100%" y2="18.386%">
            <stop offset="0%" stop-color="#FFB42B"/>
            <stop offset="100%" stop-color="#FFD56E"/>
        </linearGradient>
        <linearGradient id="nwxf86dfpg" x1="95.003%" x2="26.579%" y1="160.242%" y2="17.572%">
            <stop offset="0%" stop-color="#FF903E"/>
            <stop offset="100%" stop-color="#EB561C"/>
        </linearGradient>
        <linearGradient id="phct396xch" x1="96.457%" x2="25.822%" y1="160.242%" y2="17.572%">
            <stop offset="0%" stop-color="#FF903E"/>
            <stop offset="100%" stop-color="#EB561C"/>
        </linearGradient>
        <linearGradient id="q5f58c9rfi" x1="70.638%" x2="20.054%" y1="93.578%" y2="22.447%">
            <stop offset="0%" stop-color="#FFD56E"/>
            <stop offset="100%" stop-color="#FFB42B"/>
        </linearGradient>
        <linearGradient id="rqc7231zhj" x1="70.638%" x2="50%" y1="72.305%" y2="20.861%">
            <stop offset="0%" stop-color="#FFAA0D"/>
            <stop offset="100%" stop-color="#FFD56E"/>
        </linearGradient>
        <linearGradient id="8y05j9wbzk" x1="67.286%" x2="32.956%" y1="25.696%" y2="68.823%">
            <stop offset="0%" stop-color="#FF9D54"/>
            <stop offset="100%" stop-color="#FD5F22"/>
        </linearGradient>
        <path id="6tbxaa1c9a" d="M492.386 245.995c.081 51.669-16.197 102.037-46.5 143.886-3.515 4.848-7.193 9.557-11.036 14.129-26.342 31.375-60.098 55.68-98.207 70.714-2.381.952-4.762 1.85-7.143 2.693-55.34 19.724-115.902 19.055-170.793-1.886-2.752-1.052-5.476-2.155-8.171-3.307-35.7-15.209-67.302-38.632-92.236-68.364-3.333-3.948-6.521-7.996-9.564-12.143C17.576 349.53.799 298.448.878 246.002.878 110.288 110.878.238 246.643.238c135.764 0 245.743 110.029 245.743 245.757z"/>
    </defs>
    <g fill="none" fill-rule="evenodd">
        <g>
            <g>
                <g transform="translate(-1023 -2552) translate(1023 2552) translate(38 27.083)">
                    <use fill="url(#3s84zknadb)" fill-rule="nonzero" opacity=".556" xlink:href="#6tbxaa1c9a"/>
                </g>
                <path fill="#2D3A8B" fill-rule="nonzero" d="M229.25 333.971l7.5.465-7.814-.479c.105-.002.21.003.314.014z" transform="translate(-1023 -2552) translate(1023 2552)"/>
                <path fill="#FAA61D" fill-rule="nonzero" d="M335.7 316.136l11.229-10c1.133 2.052 2.302 4.124 3.507 6.214l-13.15 6.357c-.016.006-.034.006-.05 0-1.465.714-2.857-1.293-1.75-2.4.065-.064.137-.121.214-.171zM313.093 303.336l20.264-23.015c1.972 3.953 4.02 7.965 6.143 12.036-11.707 6.164-23.493 12.364-24.671 13l.085-.043c-.558.34-1.278.238-1.721-.243-.443-.48-.484-1.207-.1-1.735z" transform="translate(-1023 -2552) translate(1023 2552)"/>
                <path fill="#2D3A8B" fill-rule="nonzero" d="M343.3 355.564l.636-.3-.636.3zM349.264 352.75c-2.221 1.05-4.207 1.993-5.328 2.514l5.328-2.514z" transform="translate(-1023 -2552) translate(1023 2552)"/>
                <path fill="#2A2B2A" fill-rule="nonzero" d="M366.529 339.793c-.827-2.062-3.056-3.19-5.208-2.636-.35.114-26.492 6.843-29.55 7.643l-.171.043.15-.043c-5.879.593 10.871-11.429 25.186-21.371-2.272-3.758-4.438-7.44-6.5-11.05l-13.15 6.328c-.016.006-.034.006-.05 0-1.465.714-2.857-1.293-1.75-2.4.064-.074.136-.14.214-.2l11.229-10c-2.608-4.693-5.072-9.286-7.429-13.807-11.707 6.164-23.493 12.364-24.671 13l.085-.043c-.558.34-1.278.238-1.721-.243-.443-.48-.484-1.207-.1-1.735l20.264-23.015c-2.05-4.1-4.028-8.135-5.964-12.143l-7.207 4.736-.079.043c-55.678 33.029-61.893 53.357-55.821 8.107l-13.136-11.564c-3.143 4.9-6.171 9.886-9.164 14.9 35 56.636 51.935 55.436-19.372 45.75-4.078-.286-5.928 5.671-2.321 7.7l12.421 7.571c19.357 12.5 40 23.365 59.379 36.286 24.414-13.529 46.043-23.15 68.05-34.05l.128-.057.065-.036c3.178-1.236 8.043-3.493 6.193-7.714zm-22.593 15.471l-.636.3.636-.3 5.328-2.514c-2.221 1.05-4.207 1.993-5.328 2.514z" transform="translate(-1023 -2552) translate(1023 2552)"/>
                <path fill="#2A2B2A" fill-rule="nonzero" d="M267.5 257.679c-.786 5.807-1.521 11.035-2.143 15.714-2.221-4.207-4.936-9.372-7.671-14.564l2.143-3.5c1.992-3.579 7.964-1.758 7.671 2.35z" opacity=".85" transform="translate(-1023 -2552) translate(1023 2552)"/>
                <path fill="#F39123" fill-rule="nonzero" d="M266.529 251.179L267.5 243.414 267.5 243.729zM331.75 344.8L331.75 344.8 331.579 344.843zM343.3 355.564l.636-.3-.636.3zM343.936 355.264l5.328-2.514c-2.221 1.05-4.207 1.993-5.328 2.514zM360.143 347.6L360.271 347.543 360.136 347.607z" opacity=".85" transform="translate(-1023 -2552) translate(1023 2552)"/>
                <path fill="#E45D26" fill-rule="nonzero" d="M265.336 273.421c-2.222-4.207-4.936-9.371-7.672-14.564l-5.435 8.922c-.365.557-.715 1.121-1.079 1.685l13.136 11.565c.314-2.358.664-4.893 1.05-7.608zM292.071 381.664c-5.666 3.134-11.445 6.467-17.335 10-6.007 3.622-10.857 6.707-12.265 7.622-8.8 5.714-17.564 14.393-30.664 31.485-10.433 13.69-20.052 27.982-28.807 42.8-4.193 7.008-9.157 15.658-14.514 25.793-35.7-15.208-67.302-38.632-92.236-68.364-3.333-3.948-6.521-7.995-9.564-12.143 59.557-27.143 97.05-50.386 117.471-75.25 9.607-12.971 20.393-29.928 20.393-29.928 7.507-12 13.393-22.143 17.414-29.286 35 56.643 51.936 55.436-19.371 45.757-4.079-.286-5.929 5.714-2.322 7.707l12.422 7.572c19.357 12.428 39.993 23.314 59.378 36.235zM338.936 260.657l-11.543 7.522c1.936 4.007 3.914 8.042 5.964 12.142l11.429-12.985c3.464-3.722-1.686-9.565-5.85-6.679zM369.386 280.986c-1.293-1.823-3.735-2.41-5.715-1.372-.142.1-12.107 6.429-24.164 12.743 2.357 4.522 4.822 9.114 7.429 13.807l21.778-19.371c1.673-1.481 1.962-3.984.672-5.807zM370.364 302.757c-.1.072-10.714 5.186-19.928 9.622 2.062 3.614 4.228 7.297 6.5 11.05 9.921-6.886 18.671-12.786 17.935-12.858 4.422-2.985.343-10.235-4.507-7.814z" transform="translate(-1023 -2552) translate(1023 2552)"/>
                <g fill="#FAA61D" fill-rule="nonzero" opacity=".81">
                    <path d="M1.143 37.964c.864 1.343 8.643 13.25 12.2 18.715v.042l.05.072c1.4 2.38 2.78 4.667 4.143 6.857 2.993-5 6.021-10 9.164-14.9L7.857 32.143c-3.757-3.486-9.6 1.657-6.714 5.821zM95.757 52.143l7.207-4.7c-5-10.357-9.8-20.479-14.85-30.679v-.043l-.043-.085-.05-.107C86.78 13.37 84.53 8.5 80.3 10.357c-2.067.822-3.197 3.055-2.636 5.207.115.35 6.843 26.493 7.643 29.55 1 9.95-34.093-44.935-34.193-43.128-3.021-4.422-10.271-.343-7.857 4.507.107.178 15.064 31.264 15.95 33.078.822 1.486-1.257 2.929-2.378 1.808-.072-.067-.137-.142-.193-.222L27.286 8.186c-1.484-1.674-3.989-1.963-5.815-.672-1.823 1.293-2.409 3.735-1.371 5.715.107.142 6.657 12.6 13.136 24.907l2.143-3.5c2.021-3.607 7.992-1.765 7.7 2.321-.786 5.807-1.522 11.036-2.143 15.714 2.578 4.908 4.478 8.508 4.9 9.286.34.559.237 1.279-.243 1.721-.481.443-1.207.485-1.736.1L39.914 60.3c-6.071 45.25.143 24.921 55.822-8.107l.021-.05zM259.457 196.25c-3.514 4.848-7.193 9.557-11.036 14.129-26.342 31.375-60.097 55.68-98.207 70.714-3.828-7.464-7.493-15-11.3-22.479-8.571-16.735-17.343-33.371-27.264-49.343-9.386-15.114-19.614-30.935-34.179-41.521-1.064-.771-8.964-7.293-9.828-6.821 24.414-13.522 46.043-23.15 68.05-34.043l.136-.065h.064c3.157-1.235 8.021-3.492 6.171-7.721-.824-2.064-3.057-3.19-5.207-2.629-.35.108-26.493 6.836-29.55 7.636h-.107.086c-5.879.593 10.871-11.428 25.185-21.364 2.9 4.79 5.996 9.714 9.286 14.771 12.95 20.936 79.257 57.607 117.7 78.736z" transform="translate(-1023 -2552) translate(1023 2552) translate(224.429 220.714)"/>
                </g>
                <g fill-rule="nonzero">
                    <path fill="#E45D26" d="M28.26 26.138c1.218-1.785 2.082-3.788 2.543-5.9C34.14 3.288 13.461-3.897 4.146 6.26 12.718-6.154 35.575.888 32.075 18.653c-.592 2.787-1.907 5.369-3.814 7.485z" transform="translate(-1023 -2552) translate(1023 2552) translate(227.797 12.433)"/>
                    <path fill="url(#vxxn8zk6lc)" d="M30.803 20.267c-.465 2.102-1.328 4.095-2.542 5.871C19.689 38.51-3.132 31.46.36 13.71c.59-2.77 1.896-5.34 3.785-7.45C13.461-3.862 34.14 3.317 30.803 20.267z" transform="translate(-1023 -2552) translate(1023 2552) translate(227.797 12.433)"/>
                    <path fill="#010101" d="M18.19 16.567l2.192.05c-.04 1.506-.866 2.881-2.179 3.621l.458 1.429-2.2.714-.465-1.493c-1.092.102-2.183-.203-3.064-.857-1.849-1.39-2.607-3.802-1.886-6 .348-1.03 1.066-1.896 2.015-2.428l-.493-1.579 2.2-.714.485 1.543c1.541-.177 3.055.51 3.936 1.785l-1.771 1.293c-.577-.827-1.631-1.174-2.586-.85-1.471.465-2.143 1.936-1.643 3.572.5 1.635 1.914 2.457 3.386 1.993.94-.257 1.598-1.104 1.614-2.079z" transform="translate(-1023 -2552) translate(1023 2552) translate(227.797 12.433)"/>
                </g>
                <g fill-rule="nonzero">
                    <path fill="#E45D26" d="M17.789 25.783c1.665-.698 3.18-1.71 4.464-2.979 10-10.371-1.221-24.786-12.35-21.886C21.51-3.917 34.36 11.397 23.86 22.268c-1.679 1.686-3.773 2.898-6.071 3.515z" transform="translate(-1023 -2552) translate(1023 2552) rotate(8 -743.46 2853.482)"/>
                    <path fill="url(#eaa79j5gwd)" d="M22.274 22.804c-1.283 1.27-2.799 2.28-4.464 2.979-11.6 4.8-24.414-10.5-13.921-21.357 1.67-1.679 3.75-2.888 6.035-3.508 11.108-2.9 22.35 11.515 12.35 21.886z" transform="translate(-1023 -2552) translate(1023 2552) rotate(8 -743.46 2853.482)"/>
                    <path fill="#010101" d="M15.089 14.49l1.514 1.036c-.71 1.039-1.915 1.628-3.171 1.55l-.343 1.22-1.85-.506.343-1.264c-.81-.424-1.436-1.13-1.758-1.986-.66-1.82-.085-3.858 1.43-5.064.717-.563 1.617-.842 2.528-.786l.364-1.329 1.857.507-.357 1.308c1.16.575 1.909 1.741 1.95 3.035l-1.829.1c-.029-.84-.612-1.56-1.428-1.764-1.227-.192-2.402.566-2.733 1.763-.33 1.196.289 2.45 1.44 2.916.768.226 1.595-.071 2.043-.736z" transform="translate(-1023 -2552) translate(1023 2552) rotate(8 -743.46 2853.482)"/>
                </g>
                <path fill="url(#lx89v1wake)" fill-rule="nonzero" d="M373.714 15c.84.256 1.637.637 2.365 1.129l-11.043 35.957c-2.807-7.357-9.407-13.643-18.243-16.35-9.422-2.857-19-.986-25.486 4.228l5.386-17.557 32.271 9.893 3.479-11.343c.69-2.295 2.27-4.217 4.39-5.337 2.118-1.12 4.597-1.343 6.881-.62z" transform="translate(-1023 -2552) translate(1023 2552)"/>
                <path stroke="#221F1F" stroke-width=".5" d="M379.486 26.779c.064-.179.135-.358.185-.536.05-.179.108-.379.158-.564" transform="translate(-1023 -2552) translate(1023 2552)"/>
                <path fill="#2A2B2A" fill-rule="nonzero" d="M326.143.4L373.714 15c-2.285-.718-4.763-.49-6.879.635-2.116 1.123-3.693 3.048-4.378 5.344L358.98 32.32l-47.572-14.6 3.479-11.35c.7-2.285 2.28-4.198 4.39-5.318 2.112-1.12 4.582-1.355 6.867-.653z" transform="translate(-1023 -2552) translate(1023 2552)"/>
                <path fill="url(#stozi5t2df)" fill-rule="nonzero" d="M357.321 77.236l-13.028 42.485c-4.195.451-8.044 2.535-10.714 5.8l-26.293-8.064c-.41-4.478-2.674-8.58-6.243-11.314l13.307-43.379c2.436 7.965 9.286 14.907 18.729 17.793 8.807 2.707 17.778 1.2 24.242-3.321z" transform="translate(-1023 -2552) translate(1023 2552)"/>
                <path fill="url(#nwxf86dfpg)" fill-rule="nonzero" d="M379.821 25.714c.075-.286.13-.577.165-.871.464-3.411-1.058-6.789-3.922-8.7l-11.028 35.943c-2.807-7.357-9.4-13.636-18.243-16.35-9.422-2.879-19-.986-25.486 4.264l5.386-17.564-6.672-2.043-30.1 98.121 56.158 17.2 33.742-110zm-46.271 99.807l-26.264-8.064c-.41-4.476-2.67-8.577-6.236-11.314l13.3-43.379c2.436 7.965 9.286 14.907 18.729 17.793 8.835 2.707 17.857 1.2 24.285-3.321l-13.021 42.485c-4.224.427-8.106 2.513-10.793 5.8z" transform="translate(-1023 -2552) translate(1023 2552)"/>
                <path fill="#FBF4EA" fill-rule="nonzero" d="M351.35 58.693l2.55.786-1.286 4.2-2.514-.772c-1.6 3.243-4.471 4.857-8.236 4.722l.086-4.35c2.943.114 4.429-.908 5.2-3.422.714-2.378.157-4.328-1.771-4.921-1.379-.422-2.586.078-4.143 3.178-2.565 4.915-5.443 6.936-9.172 5.793-3.35-1.05-5.05-4.193-4.614-7.943l-2.414-.714 1.293-4.207 2.514.771c1.536-2.657 4.121-3.978 7.571-3.785l-.121 4.335c-2.686-.107-4.022.715-4.664 2.793-.715 2.343-.065 4.014 1.728 4.564 1.429.436 2.414-.507 4.079-3.571 2.643-4.807 5.407-6.564 9.228-5.386 3.279.972 5.007 4.065 4.686 7.929z" transform="translate(-1023 -2552) translate(1023 2552)"/>
                <path stroke="#2B2B2B" stroke-dasharray="4" stroke-linecap="round" d="M333.914 155.357L338.786 139.464M318.079 177.093L327.971 144.843M303.05 195.75L315.493 155.193M284.307 161.579L295.2 126.093" transform="translate(-1023 -2552) translate(1023 2552)"/>
                <path fill="url(#phct396xch)" fill-rule="nonzero" d="M151.979 38.25c.12.32.27.627.442.921l4.15 7.208-24.764 14.178 35.714 62.372 35.679-20.45-40.071-69.929c-.122-.171-.236-.343-.365-.493-1.95-2.4-5.353-3.033-8.037-1.496-2.683 1.537-3.86 4.792-2.777 7.689h.029zm22.557 21.821c3.928 6.85.714 16.058-7.143 20.558-7.857 4.5-17.407 2.592-21.336-4.286-3.928-6.879-.714-16.057 7.143-20.557 7.857-4.5 17.407-2.572 21.336 4.285z" transform="translate(-1023 -2552) translate(1023 2552)"/>
                <path fill="#FBF4EA" fill-rule="nonzero" d="M183.079 98.307c.487-1.342.337-2.832-.408-4.05-.953-1.898-2.943-3.049-5.064-2.928l1.879 3.371-1.743 1.807-2.55-4.593c-.364.179-.643.3-.814.4-.172.1-.436.265-.75.472l2.785 5-1.743 1.807-2.8-5c-1.19 1.72-1.307 3.966-.3 5.8.642 1.25 1.784 2.17 3.143 2.528l-.557 2.858c-2.208-.54-4.07-2.017-5.1-4.043-1.883-3.229-1.386-7.316 1.214-10l-.907-1.629 1.765-1.764 1 1.807c.228-.156.467-.297.714-.421.274-.167.558-.317.85-.45l-.679-1.208 1.765-1.764 1.228 2.207c3.793-.807 7.179.865 9.107 4.286 1.202 1.999 1.428 4.436.615 6.621l-2.65-1.114z" transform="translate(-1023 -2552) translate(1023 2552)"/>
                <path fill="#2A2B2A" fill-rule="nonzero" d="M124.543 47.857l30.214-17.321c-2.684 1.539-3.86 4.794-2.778 7.693.12.319.27.627.442.921l4.15 7.229L126.357 63.7l-4.136-7.214c-.839-1.452-1.066-3.178-.63-4.797.435-1.619 1.498-2.998 2.952-3.832z" transform="translate(-1023 -2552) translate(1023 2552)"/>
                <path fill="url(#q5f58c9rfi)" fill-rule="nonzero" d="M153.207 55.807c7.857-4.5 17.4-2.593 21.329 4.286 3.928 6.878.714 16.057-7.143 20.557-7.857 4.5-17.407 2.593-21.336-4.286-3.928-6.878-.707-16.057 7.15-20.557z" transform="translate(-1023 -2552) translate(1023 2552)"/>
                <path stroke="#E55C27" stroke-dasharray="4" stroke-linecap="round" d="M181.693 136.171L174.8 123.95M206.379 142.793L195.171 122.936M215.771 147.443L204.421 127.314M212.564 129.471L200.8 108.607" transform="translate(-1023 -2552) translate(1023 2552)"/>
                <path fill="#2D3A8B" fill-rule="nonzero" d="M229.25 333.964L236.75 334.436 228.936 333.957z" transform="translate(-1023 -2552) translate(1023 2552)"/>
                <path fill="#FAA61D" fill-rule="nonzero" d="M335.7 316.136l11.229-10c1.133 2.052 2.302 4.124 3.507 6.214l-13.15 6.357c-.016.006-.034.006-.05 0-1.465.714-2.857-1.293-1.75-2.4.065-.064.137-.121.214-.171z" transform="translate(-1023 -2552) translate(1023 2552)"/>
                <path fill="#2D3A8B" fill-rule="nonzero" d="M343.3 355.564l.636-.3-.636.3zM349.264 352.75c-2.221 1.05-4.207 1.993-5.328 2.514l5.328-2.514z" transform="translate(-1023 -2552) translate(1023 2552)"/>
                <path fill="#F39123" fill-rule="nonzero" d="M331.75 344.8L331.75 344.8 331.579 344.843zM343.3 355.564l.636-.3-.636.3zM343.936 355.264l5.328-2.514c-2.221 1.05-4.207 1.993-5.328 2.514zM360.143 347.6L360.271 347.543 360.136 347.607z" opacity=".85" transform="translate(-1023 -2552) translate(1023 2552)"/>
                <path fill="#2A2B2A" fill-rule="nonzero" d="M267.5 257.679c-.793 5.807-1.521 11.035-2.143 15.714l-7.693-14.536 2.143-3.5c2.014-3.607 7.986-1.786 7.693 2.322z" transform="translate(-1023 -2552) translate(1023 2552)"/>
                <g>
                    <g stroke-linecap="round" stroke-linejoin="round" stroke-width=".714">
                        <path stroke="#010101" d="M35.36 134.321C7.603 119.4 2.282 100.157 1.296 96.13-6.604 63.829 21.932 18.27 78.14 0" transform="translate(-1023 -2552) translate(1023 2552) rotate(-5 2289.711 94.305) rotate(-1 2610.935 -12.426)"/>
                        <path stroke="#E45D26" d="M44.446 139.8c-27.736-14.914-33.064-34.179-34.043-38.214-7.9-32.279 20.672-77.857 76.836-96.107" transform="translate(-1023 -2552) translate(1023 2552) rotate(-5 2289.711 94.305) rotate(-1 2610.935 -12.426)"/>
                    </g>
                    <g fill-rule="nonzero">
                        <path fill="url(#rqc7231zhj)" d="M1.921 10.539c12.2-4.85 42.857-15 71.886-8.343 2.493.571 3.278 4.043 1.286 5.714-9.136 7.764-28.736 25.421-37.979 41.507-.518.95-1.528 1.526-2.609 1.489-1.081-.038-2.048-.684-2.498-1.667-2.264-4.408-6.493-11.086-14.072-18.829-5.112-5.177-10.655-9.908-16.571-14.143-2.05-1.471-1.729-4.821.557-5.728z" transform="translate(-1023 -2552) translate(1023 2552) rotate(-5 2289.711 94.305) rotate(3 47.792 1839.7)"/>
                        <path fill="#010101" d="M32.135 17.231c-4.344 1.635-8.27 4.217-11.492 7.558-1.418 1.48-2.605 3.166-3.522 5-.507 1.028 1.036 1.935 1.543.9 2.557-5.208 7.614-8.858 12.779-11.229l.557-.243h.064l.179-.078.364-.143c1.071-.4.607-2.143-.472-1.722v-.043z" transform="translate(-1023 -2552) translate(1023 2552) rotate(-5 2289.711 94.305) rotate(3 47.792 1839.7)"/>
                        <path fill="#E06E26" d="M8.671 21.796C8.114 49.039 8.043 33.124 24.9 38.353 19.22 31.61 16.12 27.88 8.67 21.796z" transform="translate(-1023 -2552) translate(1023 2552) rotate(-5 2289.711 94.305) rotate(3 47.792 1839.7)"/>
                        <path fill="#010101" d="M9.043 22.203c6.178 4.65 10.55 9.814 15.857 16.15-11.436-1.95-3.757-2.207-15.857-16.15z" transform="translate(-1023 -2552) translate(1023 2552) rotate(-5 2289.711 94.305) rotate(3 47.792 1839.7)"/>
                    </g>
                </g>
                <g>
                    <path stroke="#010101" stroke-linecap="round" stroke-linejoin="round" stroke-width=".714" d="M98.285 129.758c21.85-9.057 26.585-22.45 27.471-25.25 7.143-22.521-13.3-56.514-55.971-72.657" transform="translate(-1023 -2552) translate(1023 2552) rotate(5 -2529.857 4988.515)"/>
                    <path stroke="#E45D26" stroke-linecap="round" stroke-linejoin="round" stroke-width=".714" d="M91.092 133.137c54.671-25.129 26.007-75.186-28.5-97.9" transform="translate(-1023 -2552) translate(1023 2552) rotate(5 -2529.857 4988.515)"/>
                    <path fill="url(#8y05j9wbzk)" fill-rule="nonzero" d="M57.485 7.515C48.006 4.065 24.17-3.199 1.827 1.58.95 1.766.26 2.445.06 3.32c-.201.875.124 1.787.833 2.338 7.143 5.514 22.478 18.057 29.793 29.493.435.683 1.198 1.085 2.008 1.059.809-.026 1.544-.478 1.934-1.188 1.708-3.128 4.908-7.857 10.715-13.378 3.927-3.702 8.161-7.064 12.657-10.05.722-.485 1.11-1.335 1-2.198-.108-.863-.694-1.59-1.514-1.88z" transform="translate(-1023 -2552) translate(1023 2552) rotate(5 -2529.857 4988.515)"/>
                    <path fill="#010101" fill-rule="nonzero" d="M33.749 13.78c.271.092.536.192.8.3l.186.078h.057l.493.221c.392.18.785.365 1.171.558 2.004.973 3.854 2.234 5.493 3.742 1.028.954 1.9 2.062 2.586 3.286.557 1.007 2.1.107 1.542-.9-2.25-4.1-6.521-6.836-10.714-8.571-.371-.15-.714-.3-1.114-.429-1.093-.371-1.557 1.35-.479 1.722l-.021-.008z" transform="translate(-1023 -2552) translate(1023 2552) rotate(5 -2529.857 4988.515)"/>
                    <path fill="#E04D23" fill-rule="nonzero" d="M52.349 15.515c.714 19.357.607 8.05-12.372 11.764 4.315-4.792 6.672-7.442 12.372-11.764z" transform="translate(-1023 -2552) translate(1023 2552) rotate(5 -2529.857 4988.515)"/>
                    <path fill="#010101" fill-rule="nonzero" d="M52.063 15.808c-4.721 3.3-8.057 6.971-12.086 11.471 8.822-1.357 2.879-1.57 12.086-11.47z" transform="translate(-1023 -2552) translate(1023 2552) rotate(5 -2529.857 4988.515)"/>
                </g>
            </g>
        </g>
    </g>
</svg>
