<svg xmlns="http://www.w3.org/2000/svg" xmlns:xlink="http://www.w3.org/1999/xlink" width="100%" height="100%" viewBox="0 0 1002 860">
    <defs>
        <linearGradient id="jgu71c413a" x1="-47.089%" x2="100%" y1="-29.154%" y2="90.296%">
            <stop offset="0%" stop-color="#FAF4EA"/>
            <stop offset="100%" stop-color="#FFA600"/>
        </linearGradient>
        <linearGradient id="k1kxhmns9c" x1="73.741%" x2="32.84%" y1="29.993%" y2="97.294%">
            <stop offset="0%" stop-color="#FAD170"/>
            <stop offset="39.612%" stop-color="#F4A24F"/>
            <stop offset="67.655%" stop-color="#EF7839"/>
            <stop offset="100%" stop-color="#E95027"/>
        </linearGradient>
        <linearGradient id="0ifuzd34vd" x1="-47.089%" x2="100%" y1="17.012%" y2="66.794%">
            <stop offset="0%" stop-color="#FAF4EA"/>
            <stop offset="100%" stop-color="#FFA600"/>
        </linearGradient>
        <linearGradient id="kpkkpgkeaf" x1="91.024%" x2="8.017%" y1="50%" y2="56.08%">
            <stop offset="0%" stop-color="#FAD170"/>
            <stop offset="39.612%" stop-color="#F4A24F"/>
            <stop offset="67.655%" stop-color="#EF7839"/>
            <stop offset="100%" stop-color="#E95027"/>
        </linearGradient>
        <path id="oquyva81ub" d="M499.201 578.969L587.201 736.969 411.201 736.969z"/>
        <path id="zccmq28dde" d="M70.041 80.985L0.9 41.384 70.041 0.845 139.182 41.384z"/>
    </defs>
    <g fill="none" fill-rule="evenodd">
        <g>
            <g>
                <g transform="translate(-208 -2737) translate(195 2530) translate(13 207)">
                    <g fill-rule="nonzero">
                        <path fill="#081932" d="M17.008 11.9V1.564h3.553V0h-8.789v1.564h3.536V11.9h1.7zm6.817 0V7.242c0-1.479.833-2.414 1.938-2.414.493 0 .884.153 1.088.306l.646-1.462c-.323-.221-.85-.425-1.513-.425-1.003 0-1.785.561-2.193 1.292l-.255-1.054h-1.377V11.9h1.666zm7.429.238c1.139 0 1.972-.357 2.482-1.054l.17.816h1.411V6.324c0-1.989-1.377-3.06-3.434-3.06-1.853 0-2.992.85-3.4 2.533l1.479.357c.153-.969.731-1.53 1.887-1.53 1.207 0 1.802.578 1.802 1.717v.187l-2.023.289c-2.363.34-3.281 1.309-3.281 2.754 0 1.479 1.156 2.567 2.907 2.567zm.408-1.377c-1.037 0-1.7-.51-1.7-1.275 0-.833.595-1.207 1.802-1.394l1.887-.289v1.105c0 1.207-.884 1.853-1.989 1.853zm7.361 1.139V7.208c0-1.496.918-2.397 2.125-2.397 1.139 0 1.802.544 1.802 2.091V11.9h1.666V6.613c0-2.261-1.105-3.366-2.958-3.366-1.139 0-2.023.442-2.669 1.309l-.255-1.071h-1.377V11.9h1.666zm10.88.238c1.938 0 3.332-1.088 3.332-2.601 0-1.564-1.071-2.244-3.06-2.635-1.275-.221-1.87-.493-1.87-1.156 0-.595.51-1.071 1.598-1.071 1.003 0 1.496.578 1.7 1.445l1.479-.425c-.34-1.547-1.479-2.431-3.179-2.431-.935 0-1.683.238-2.278.697-.595.476-.901 1.088-.901 1.853 0 1.564 1.173 2.193 3.162 2.55 1.411.255 1.768.646 1.768 1.19 0 .731-.714 1.173-1.751 1.173-1.207 0-1.7-.646-1.972-1.598l-1.496.459c.459 1.649 1.649 2.55 3.468 2.55zm7.667 0c1.139 0 1.972-.357 2.482-1.054l.17.816h1.411V6.324c0-1.989-1.377-3.06-3.434-3.06-1.853 0-2.992.85-3.4 2.533l1.479.357c.153-.969.731-1.53 1.887-1.53 1.207 0 1.802.578 1.802 1.717v.187l-2.023.289c-2.363.34-3.281 1.309-3.281 2.754 0 1.479 1.156 2.567 2.907 2.567zm.408-1.377c-1.037 0-1.7-.51-1.7-1.275 0-.833.595-1.207 1.802-1.394l1.887-.289v1.105c0 1.207-.884 1.853-1.989 1.853zm9.605 1.377c1.785 0 3.111-1.037 3.706-2.601l-1.513-.51c-.34.969-1.156 1.581-2.193 1.581-1.53 0-2.635-1.224-2.635-2.907s1.105-2.924 2.635-2.924c1.071 0 1.87.595 2.193 1.598l1.53-.51c-.527-1.581-1.87-2.618-3.723-2.618-2.567 0-4.301 2.023-4.301 4.454 0 2.397 1.7 4.437 4.301 4.437zm8.551 0c.952 0 1.615-.34 1.904-.68l-.765-1.19c-.221.221-.493.323-.816.323-.595 0-.884-.323-.884-.986V4.981h2.278V3.485h-2.278V1.292h-1.666v2.193h-1.513v1.496h1.513v4.828c0 1.445.918 2.329 2.227 2.329zm4.301-9.894c.595 0 1.071-.476 1.071-1.088 0-.595-.476-1.088-1.071-1.088-.612 0-1.105.493-1.105 1.088 0 .612.493 1.088 1.105 1.088zm.816 9.656V3.485h-1.666V11.9h1.666zm6.239.238c2.567 0 4.335-2.074 4.335-4.437 0-2.38-1.768-4.454-4.335-4.454-2.444-.05-4.279 1.986-4.335 4.253v.201c-.051 2.329 1.785 4.488 4.335 4.437zm0-1.53c-1.547 0-2.669-1.224-2.669-2.907 0-1.666 1.122-2.924 2.669-2.924 1.53 0 2.669 1.258 2.669 2.924s-1.139 2.907-2.669 2.907zm7.82 1.292V7.208c0-1.496.918-2.397 2.125-2.397 1.139 0 1.802.544 1.802 2.091V11.9h1.666V6.613c0-2.261-1.105-3.366-2.958-3.366-1.139 0-2.023.442-2.669 1.309l-.255-1.071h-1.377V11.9h1.666zm10.88.238c1.938 0 3.332-1.088 3.332-2.601 0-1.564-1.071-2.244-3.06-2.635-1.275-.221-1.87-.493-1.87-1.156 0-.595.51-1.071 1.598-1.071 1.003 0 1.496.578 1.7 1.445l1.479-.425c-.34-1.547-1.479-2.431-3.179-2.431-.935 0-1.683.238-2.278.697-.595.476-.901 1.088-.901 1.853 0 1.564 1.173 2.193 3.162 2.55 1.411.255 1.768.646 1.768 1.19 0 .731-.714 1.173-1.751 1.173-1.207 0-1.7-.646-1.972-1.598l-1.496.459c.459 1.649 1.649 2.55 3.468 2.55z" transform="translate(.092 .922)"/>
                        <path fill="#667285" d="M1.12 32.722l1.022-2.744h4.144l1.022 2.744h1.134l-3.668-9.8h-1.12L0 32.722h1.12zm4.802-3.724H2.506l1.708-4.606 1.708 4.606zm4.928 6.664v-3.934c.546.728 1.344 1.19 2.408 1.19 2.114 0 3.262-1.778 3.262-3.612.028-1.792-1.274-3.668-3.262-3.626-1.12 0-1.932.49-2.436 1.204l-.14-1.022h-.896v9.8h1.064zm2.296-3.696c-.686 0-1.246-.252-1.666-.742-.434-.49-.644-1.134-.644-1.918 0-1.554.924-2.674 2.31-2.674 1.358 0 2.31 1.12 2.31 2.674 0 1.54-.952 2.66-2.31 2.66zm6.062 3.696v-3.934c.546.728 1.344 1.19 2.408 1.19 2.114 0 3.262-1.778 3.262-3.612.028-1.792-1.274-3.668-3.262-3.626-1.12 0-1.932.49-2.436 1.204l-.14-1.022h-.896v9.8h1.064zm2.296-3.696c-.686 0-1.246-.252-1.666-.742-.434-.49-.644-1.134-.644-1.918 0-1.554.924-2.674 2.31-2.674 1.358 0 2.31 1.12 2.31 2.674 0 1.54-.952 2.66-2.31 2.66zm6.062.756v-9.8h-1.064v9.8h1.064zm2.59-7.966c.434 0 .784-.35.784-.798 0-.448-.35-.798-.784-.798-.462 0-.812.35-.812.798 0 .448.35.798.812.798zm.532 7.966v-6.86h-1.064v6.86h1.064zm5.166.196c1.47 0 2.534-.868 2.996-2.142l-.966-.336c-.322.938-1.064 1.512-2.03 1.512-1.414 0-2.394-1.134-2.394-2.66 0-1.526.98-2.66 2.394-2.66.966 0 1.694.546 2.016 1.456l.966-.336c-.406-1.232-1.47-2.086-2.982-2.086-2.114 0-3.458 1.75-3.458 3.626s1.274 3.626 3.458 3.626zm6.734 0c.994 0 1.694-.308 2.128-.91l.126.714h.896V28.13c0-1.582-1.05-2.464-2.744-2.464-1.47 0-2.408.756-2.674 2.058l.966.252c.126-.938.7-1.414 1.708-1.414 1.12 0 1.68.532 1.68 1.582v.224l-1.834.266c-1.834.266-2.632.98-2.632 2.212 0 1.134.854 2.072 2.38 2.072zm.224-.924c-.966 0-1.568-.462-1.568-1.204 0-.784.588-1.134 1.722-1.302l1.708-.252v1.008c0 1.162-.812 1.75-1.862 1.75zm7.014.924c.714 0 1.218-.252 1.428-.518l-.546-.742c-.196.182-.434.266-.714.266-.518 0-.798-.266-.798-.882v-4.214h1.974v-.966h-1.974V24.07h-1.064v1.792h-1.274v.966h1.274v4.312c0 1.106.672 1.778 1.694 1.778zm3.402-8.162c.434 0 .784-.35.784-.798 0-.448-.35-.798-.784-.798-.462 0-.812.35-.812.798 0 .448.35.798.812.798zm.532 7.966v-6.86h-1.064v6.86h1.064zm5.208.196c2.17 0 3.528-1.778 3.528-3.626 0-1.848-1.358-3.626-3.528-3.626-2.1-.042-3.528 1.806-3.5 3.626-.028 1.82 1.33 3.668 3.5 3.626zm0-.966c-1.428 0-2.436-1.162-2.436-2.66 0-1.512 1.008-2.66 2.436-2.66s2.464 1.148 2.464 2.66c0 1.498-1.036 2.66-2.464 2.66zm6.216.77v-3.906c0-1.33.924-2.156 1.96-2.156 1.008 0 1.624.476 1.624 1.82v4.242h1.064v-4.494c0-1.722-.924-2.562-2.366-2.562-.98 0-1.75.378-2.296 1.12l-.154-.924h-.896v6.86h1.064zm16.464 0v-.994h-4.69v-8.806h-1.092v9.8h5.782zm3.514.196c.994 0 1.694-.308 2.128-.91l.126.714h.896V28.13c0-1.582-1.05-2.464-2.744-2.464-1.47 0-2.408.756-2.674 2.058l.966.252c.126-.938.7-1.414 1.708-1.414 1.12 0 1.68.532 1.68 1.582v.224l-1.834.266c-1.834.266-2.632.98-2.632 2.212 0 1.134.854 2.072 2.38 2.072zm.224-.924c-.966 0-1.568-.462-1.568-1.204 0-.784.588-1.134 1.722-1.302l1.708-.252v1.008c0 1.162-.812 1.75-1.862 1.75zm7.658 3.836c2.142 0 3.01-1.498 3.01-3.094v-6.874H94.99V29.6c0 1.33-.896 2.17-2.072 2.17-1.078 0-1.708-.518-1.708-1.876v-4.032h-1.064v4.382c0 .84.238 1.47.714 1.89.476.42 1.064.63 1.75.63 1.106 0 1.75-.336 2.366-1.106l.014.07v1.036c0 1.302-.644 2.114-1.946 2.114-1.064 0-1.666-.504-1.89-1.47l-1.022.238c.378 1.344 1.33 2.184 2.912 2.184zm8.05-2.912c1.554 0 2.618-.84 3.01-1.946l-.938-.294c-.238.742-1.022 1.33-2.072 1.33-1.344 0-2.31-1.078-2.366-2.422h5.572v-.462c0-2.086-1.316-3.458-3.22-3.458-1.904-.042-3.444 1.68-3.402 3.626 0 2.002 1.358 3.626 3.416 3.626zm2.212-4.214h-4.564c.168-1.232 1.05-2.128 2.352-2.128 1.232 0 2.114.91 2.212 2.128zm3.682 4.018v-3.85c0-1.302.77-2.198 1.736-2.198.406 0 .784.14.952.266l.434-.91c-.224-.182-.7-.364-1.26-.364-.84 0-1.526.476-1.876 1.106l-.154-.91h-.896v6.86h1.064z" transform="translate(.092 .922)"/>
                    </g>
                    <text font-family="ModernEra-Medium, Modern Era" font-size="17" font-weight="400">
                        <tspan x="50.505" y="366.969" fill="#081932">Hermez</tspan>  <tspan x="63.106" y="387.79" fill="#667285" font-family="ModernEra-Regular, Modern Era" font-size="14" font-weight="normal">Layer 2</tspan>
                    </text>
                    <g fill-rule="nonzero">
                        <path fill="#081932" d="M7.344 11.9v-1.53H1.7V6.647h4.93V5.151H1.7V1.53h5.644V0H0v11.9h7.344zm4.93.238c.952 0 1.615-.34 1.904-.68l-.765-1.19c-.221.221-.493.323-.816.323-.595 0-.884-.323-.884-.986V4.981h2.278V3.485h-2.278V1.292h-1.666v2.193H8.534v1.496h1.513v4.828c0 1.445.918 2.329 2.227 2.329zm5.015-.238V7.225c0-1.496.952-2.414 2.125-2.414 1.139 0 1.802.544 1.802 2.091V11.9h1.666V6.613c0-2.261-1.088-3.366-2.941-3.366-1.139 0-2.023.425-2.652 1.258V0H15.64v11.9h1.649zm11.628.238c1.921 0 3.23-.986 3.723-2.397l-1.428-.459c-.272.799-1.122 1.462-2.295 1.462-1.479 0-2.499-1.173-2.601-2.533h6.545v-.663c0-2.55-1.581-4.284-3.961-4.284-2.363 0-4.199 1.955-4.199 4.42 0 2.499 1.751 4.454 4.216 4.454zm2.448-5.236h-5.032c.204-1.275 1.156-2.244 2.584-2.244 1.411 0 2.363 1.054 2.448 2.244zm4.981 4.998V7.242c0-1.479.833-2.414 1.938-2.414.493 0 .884.153 1.088.306l.646-1.462c-.323-.221-.85-.425-1.513-.425-1.003 0-1.785.561-2.193 1.292l-.255-1.054H34.68V11.9h1.666zm8.738.238c1.921 0 3.23-.986 3.723-2.397l-1.428-.459c-.272.799-1.122 1.462-2.295 1.462-1.479 0-2.499-1.173-2.601-2.533h6.545v-.663c0-2.55-1.581-4.284-3.961-4.284-2.363 0-4.199 1.955-4.199 4.42 0 2.499 1.751 4.454 4.216 4.454zm2.448-5.236H42.5c.204-1.275 1.156-2.244 2.584-2.244 1.411 0 2.363 1.054 2.448 2.244zm6.273 5.236c1.139 0 2.023-.442 2.669-1.309l.255 1.071h1.377V3.485H56.44v4.709c0 1.496-.918 2.397-2.125 2.397-1.139 0-1.802-.578-1.802-2.091V3.485h-1.666v5.304c0 2.261 1.105 3.349 2.958 3.349zm8.177-.238V7.14c0-1.479.85-2.329 1.955-2.329 1.088 0 1.632.68 1.632 2.023V11.9h1.666V7.14c0-1.479.833-2.329 1.938-2.329 1.071 0 1.649.544 1.649 2.023V11.9h1.666V6.307c0-2.04-1.105-3.06-2.737-3.06-1.224 0-2.193.544-2.805 1.377-.391-.816-1.19-1.377-2.363-1.377-1.156 0-2.057.493-2.652 1.309l-.238-1.071h-1.377V11.9h1.666z" transform="translate(36.735 763.316)"/>
                        <path fill="#667285" d="M36.353 32.722v-.994h-4.69v-8.806h-1.092v9.8h5.782zm3.514.196c.994 0 1.694-.308 2.128-.91l.126.714h.896V28.13c0-1.582-1.05-2.464-2.744-2.464-1.47 0-2.408.756-2.674 2.058l.966.252c.126-.938.7-1.414 1.708-1.414 1.12 0 1.68.532 1.68 1.582v.224l-1.834.266c-1.834.266-2.632.98-2.632 2.212 0 1.134.854 2.072 2.38 2.072zm.224-.924c-.966 0-1.568-.462-1.568-1.204 0-.784.588-1.134 1.722-1.302l1.708-.252v1.008c0 1.162-.812 1.75-1.862 1.75zm7.658 3.836c2.142 0 3.01-1.498 3.01-3.094v-6.874h-1.064V29.6c0 1.33-.896 2.17-2.072 2.17-1.078 0-1.708-.518-1.708-1.876v-4.032h-1.064v4.382c0 .84.238 1.47.714 1.89.476.42 1.064.63 1.75.63 1.106 0 1.75-.336 2.366-1.106l.014.07v1.036c0 1.302-.644 2.114-1.946 2.114-1.064 0-1.666-.504-1.89-1.47l-1.022.238c.378 1.344 1.33 2.184 2.912 2.184zm8.05-2.912c1.554 0 2.618-.84 3.01-1.946l-.938-.294c-.238.742-1.022 1.33-2.072 1.33-1.344 0-2.31-1.078-2.366-2.422h5.572v-.462c0-2.086-1.316-3.458-3.22-3.458-1.904-.042-3.444 1.68-3.402 3.626 0 2.002 1.358 3.626 3.416 3.626zm2.212-4.214h-4.564c.168-1.232 1.05-2.128 2.352-2.128 1.232 0 2.114.91 2.212 2.128zm3.682 4.018v-3.85c0-1.302.77-2.198 1.736-2.198.406 0 .784.14.952.266l.434-.91c-.224-.182-.7-.364-1.26-.364-.84 0-1.526.476-1.876 1.106l-.154-.91h-.896v6.86h1.064zm10.584 0v-9.8h-1.092c-.574.392-1.372.742-1.988.868v1.05c.616-.112 1.484-.406 1.988-.728v8.61h1.092z" transform="translate(36.735 763.316)"/>
                    </g>
                    <g fill="#2B2B2B" transform="translate(130.35 16.22)">
                        <path fill-rule="nonzero" d="M7.556.002v8.004l-8-4.002 8-4.002zm103.76 3.602c.221 0 .4.179.4.4 0 .194-.137.355-.32.392l-.08.009h-1c-.221 0-.4-.18-.4-.4 0-.194.137-.356.32-.393l.08-.008h1zm-4.203 0c.22 0 .4.179.4.4 0 .194-.137.355-.32.392l-.08.009h-1c-.222 0-.4-.18-.4-.4 0-.194.136-.356.319-.393l.08-.008h1zm-4.204 0c.221 0 .4.179.4.4 0 .194-.137.355-.319.392l-.08.009h-1c-.222 0-.401-.18-.401-.4 0-.194.137-.356.32-.393l.08-.008h1zm-4.203 0c.221 0 .4.179.4.4 0 .194-.137.355-.32.392l-.08.009h-1c-.221 0-.4-.18-.4-.4 0-.194.137-.356.32-.393l.08-.008h1zm-4.203 0c.22 0 .4.179.4.4 0 .194-.137.355-.32.392l-.08.009h-1c-.222 0-.4-.18-.4-.4 0-.194.136-.356.319-.393l.08-.008h1zm-4.204 0c.221 0 .4.179.4.4 0 .194-.137.355-.319.392l-.08.009h-1c-.222 0-.401-.18-.401-.4 0-.194.137-.356.32-.393l.08-.008h1zm-4.203 0c.221 0 .4.179.4.4 0 .194-.137.355-.32.392l-.08.009h-1c-.221 0-.4-.18-.4-.4 0-.194.137-.356.32-.393l.08-.008h1zm-4.203 0c.22 0 .4.179.4.4 0 .194-.137.355-.32.392l-.08.009h-1c-.222 0-.4-.18-.4-.4 0-.194.136-.356.319-.393l.08-.008h1zm-4.204 0c.221 0 .4.179.4.4 0 .194-.137.355-.319.392l-.08.009h-1c-.222 0-.401-.18-.401-.4 0-.194.137-.356.32-.393l.08-.008h1zm-4.203 0c.221 0 .4.179.4.4 0 .194-.137.355-.32.392l-.08.009h-1c-.221 0-.4-.18-.4-.4 0-.194.137-.356.32-.393l.08-.008h1zm-4.203 0c.22 0 .4.179.4.4 0 .194-.137.355-.32.392l-.08.009h-1c-.222 0-.4-.18-.4-.4 0-.194.136-.356.319-.393l.08-.008h1zm-4.204 0c.221 0 .4.179.4.4 0 .194-.137.355-.32.392l-.08.009h-1c-.22 0-.4-.18-.4-.4 0-.194.137-.356.32-.393l.08-.008h1zm-4.203 0c.221 0 .4.179.4.4 0 .194-.137.355-.32.392l-.08.009h-1c-.221 0-.4-.18-.4-.4 0-.194.137-.356.32-.393l.08-.008h1zm-4.203 0c.22 0 .4.179.4.4 0 .194-.137.355-.32.392l-.08.009h-1c-.222 0-.4-.18-.4-.4 0-.194.136-.356.319-.393l.08-.008h1zm-4.204 0c.221 0 .4.179.4.4 0 .194-.137.355-.32.392l-.08.009h-1c-.22 0-.4-.18-.4-.4 0-.194.137-.356.32-.393l.08-.008h1zm-4.203 0c.221 0 .4.179.4.4 0 .194-.137.355-.32.392l-.08.009h-1c-.221 0-.4-.18-.4-.4 0-.194.137-.356.32-.393l.08-.008h1zm-4.203 0c.22 0 .4.179.4.4 0 .194-.137.355-.32.392l-.08.009h-1c-.222 0-.4-.18-.4-.4 0-.194.136-.356.319-.393l.08-.008h1zm-4.204 0c.221 0 .4.179.4.4 0 .194-.137.355-.32.392l-.08.009h-1c-.22 0-.4-.18-.4-.4 0-.194.137-.356.32-.393l.08-.008h1zm-4.203 0c.221 0 .4.179.4.4 0 .194-.137.355-.32.392l-.08.009h-1c-.221 0-.4-.18-.4-.4 0-.194.137-.356.32-.393l.08-.008h1zm-4.203 0c.22 0 .4.179.4.4 0 .194-.137.355-.32.392l-.08.009h-1c-.222 0-.4-.18-.4-.4 0-.194.136-.356.319-.393l.08-.008h1zm-4.204 0c.221 0 .4.179.4.4 0 .194-.137.355-.32.392l-.08.009h-1c-.22 0-.4-.18-.4-.4 0-.194.137-.356.32-.393l.08-.008h1zm-4.203 0c.221 0 .4.179.4.4 0 .194-.137.355-.32.392l-.08.009h-1c-.221 0-.4-.18-.4-.4 0-.194.137-.356.32-.393l.08-.008h1zm-4.203 0c.22 0 .4.179.4.4 0 .194-.137.355-.32.392l-.08.009h-1c-.222 0-.4-.18-.4-.4 0-.194.136-.356.319-.393l.08-.008h1zm-4.204 0c.221 0 .4.179.4.4 0 .194-.137.355-.32.392l-.08.009h-1c-.22 0-.4-.18-.4-.4 0-.194.137-.356.32-.393l.08-.008h1zm-4.203 0c.221 0 .4.179.4.4 0 .194-.137.355-.32.392l-.08.009h-1c-.221 0-.4-.18-.4-.4 0-.194.137-.356.32-.393l.08-.008h1z"/>
                        <circle cx="113.318" cy="3.604" r="3.604"/>
                    </g>
                    <g fill="#2B2B2B" transform="translate(130.35 782.618)">
                        <path fill-rule="nonzero" d="M7.556.002v3.772c.046.065.073.144.073.23 0 .086-.027.165-.073.23v3.772l-8-4.002 8-4.002zm83.74 3.602c.22 0 .4.179.4.4 0 .194-.138.355-.32.392l-.08.009h-1c-.222 0-.401-.18-.401-.4 0-.194.137-.356.32-.393l.08-.008h1zm-4.204 0c.22 0 .4.179.4.4 0 .194-.137.355-.32.392l-.08.009h-1c-.221 0-.4-.18-.4-.4 0-.194.137-.356.32-.393l.08-.008h1zm-4.204 0c.222 0 .4.179.4.4 0 .194-.136.355-.319.392l-.08.009h-1c-.222 0-.401-.18-.401-.4 0-.194.137-.356.32-.393l.08-.008h1zm-4.203 0c.221 0 .4.179.4.4 0 .194-.137.355-.32.392l-.08.009h-1c-.221 0-.4-.18-.4-.4 0-.194.137-.356.32-.393l.08-.008h1zm-4.203 0c.22 0 .4.179.4.4 0 .194-.137.355-.32.392l-.08.009h-1c-.221 0-.4-.18-.4-.4 0-.194.137-.356.32-.393l.08-.008h1zm-4.204 0c.222 0 .4.179.4.4 0 .194-.136.355-.319.392l-.08.009h-1c-.222 0-.401-.18-.401-.4 0-.194.137-.356.32-.393l.08-.008h1zm-4.203 0c.221 0 .4.179.4.4 0 .194-.137.355-.32.392l-.08.009h-1c-.221 0-.4-.18-.4-.4 0-.194.137-.356.32-.393l.08-.008h1zm-4.203 0c.22 0 .4.179.4.4 0 .194-.137.355-.32.392l-.08.009h-1c-.221 0-.4-.18-.4-.4 0-.194.137-.356.319-.393l.08-.008h1zm-4.204 0c.222 0 .4.179.4.4 0 .194-.136.355-.319.392l-.08.009h-1c-.222 0-.401-.18-.401-.4 0-.194.137-.356.32-.393l.08-.008h1zm-4.203 0c.221 0 .4.179.4.4 0 .194-.137.355-.32.392l-.08.009h-1c-.221 0-.4-.18-.4-.4 0-.194.137-.356.32-.393l.08-.008h1zm-4.203 0c.22 0 .4.179.4.4 0 .194-.137.355-.32.392l-.08.009h-1c-.221 0-.4-.18-.4-.4 0-.194.137-.356.319-.393l.08-.008h1zm-4.204 0c.222 0 .4.179.4.4 0 .194-.136.355-.319.392l-.08.009h-1c-.222 0-.401-.18-.401-.4 0-.194.137-.356.32-.393l.08-.008h1zm-4.203 0c.221 0 .4.179.4.4 0 .194-.137.355-.32.392l-.08.009h-1c-.221 0-.4-.18-.4-.4 0-.194.137-.356.32-.393l.08-.008h1zm-4.203 0c.22 0 .4.179.4.4 0 .194-.137.355-.32.392l-.08.009h-1c-.221 0-.4-.18-.4-.4 0-.194.137-.356.319-.393l.08-.008h1zm-4.204 0c.222 0 .4.179.4.4 0 .194-.136.355-.319.392l-.08.009h-1c-.222 0-.401-.18-.401-.4 0-.194.137-.356.32-.393l.08-.008h1zm-4.203 0c.221 0 .4.179.4.4 0 .194-.137.355-.32.392l-.08.009h-1c-.221 0-.4-.18-.4-.4 0-.194.137-.356.32-.393l.08-.008h1zm-4.203 0c.22 0 .4.179.4.4 0 .194-.137.355-.32.392l-.08.009h-1c-.221 0-.4-.18-.4-.4 0-.194.137-.356.319-.393l.08-.008h1zm-4.204 0c.222 0 .4.179.4.4 0 .194-.136.355-.319.392l-.08.009h-1c-.222 0-.401-.18-.401-.4 0-.194.137-.356.32-.393l.08-.008h1zm-4.203 0c.221 0 .4.179.4.4 0 .194-.137.355-.32.392l-.08.009h-1c-.221 0-.4-.18-.4-.4 0-.194.137-.356.32-.393l.08-.008h1zm-4.203 0c.22 0 .4.179.4.4 0 .194-.137.355-.32.392l-.08.009h-1c-.221 0-.4-.18-.4-.4 0-.194.137-.356.319-.393l.08-.008h1z"/>
                        <circle cx="93.297" cy="3.604" r="3.604"/>
                    </g>
                    <g fill="#2B2B2B" transform="translate(130.35 371.79)">
                        <path fill-rule="nonzero" d="M7.587-.356l-.06 8.003-7.97-4.062 8.03-3.941zm46.674 3.952l1 .008c.22.001.399.182.397.403-.001.194-.14.354-.323.39l-.08.008-1-.008c-.222-.002-.4-.182-.398-.403.002-.221.182-.4.404-.398zm-4.204-.031l1 .007c.221.002.4.182.398.404-.002.193-.14.353-.323.39l-.08.007-1-.008c-.222-.001-.4-.182-.398-.403.002-.221.182-.399.403-.397zm-4.203-.032l1 .008c.221.001.4.182.398.403-.002.193-.14.354-.323.39l-.08.007-1-.007c-.222-.002-.4-.182-.398-.404.001-.22.182-.399.403-.397zm-4.203-.032l1 .008c.221.002.399.182.397.403-.001.194-.14.354-.322.39l-.081.008-1-.008c-.221-.001-.4-.182-.397-.403.001-.221.182-.4.403-.398zm-4.203-.031l1 .007c.22.002.399.183.397.404-.001.193-.14.354-.323.39l-.08.007-1-.007c-.221-.002-.4-.183-.398-.404.002-.22.183-.399.404-.397zm-4.203-.032l1 .008c.22.001.399.182.397.403-.002.194-.14.354-.323.39l-.08.008-1-.008c-.222-.002-.4-.182-.398-.403.002-.222.182-.4.404-.398zm-4.204-.031l1 .007c.221.002.4.182.398.404-.002.193-.14.353-.323.39l-.08.007-1-.008c-.222-.001-.4-.182-.398-.403.002-.221.182-.399.403-.397zm-4.203-.032l1 .008c.221.001.4.182.397.403-.001.193-.14.354-.322.39l-.081.007-1-.007c-.221-.002-.399-.182-.397-.404.001-.22.182-.399.403-.397zm-4.203-.032l1 .008c.221.002.399.182.397.403-.001.194-.14.354-.322.39l-.081.008-1-.008c-.221-.001-.4-.182-.398-.403.002-.221.183-.4.404-.398zm-4.203-.031l1 .007c.22.002.399.183.397.404-.001.193-.14.354-.323.39l-.08.007-1-.007c-.222-.002-.4-.183-.398-.404.002-.22.182-.399.404-.397zm-4.204-.032l1 .008c.222.001.4.182.398.403-.002.194-.14.354-.323.39l-.08.008-1-.008c-.222-.002-.4-.182-.398-.403.002-.222.182-.4.403-.398zM8.025 3.25l1 .007c.221.002.4.182.398.404-.002.193-.14.353-.323.39l-.08.007-1-.008c-.222-.001-.4-.182-.398-.403.001-.221.182-.4.403-.397z"/>
                        <circle cx="57.26" cy="3.604" r="3.604"/>
                    </g>
                    <g>
                        <path fill="#AAB4D4" d="M86.89 173.781c47.989 0 86.891-38.902 86.891-86.89C173.781 38.902 134.879 0 86.891 0 38.902 0 0 38.902 0 86.89c0 47.989 38.902 86.891 86.89 86.891z" opacity=".155" transform="translate(414.645 121.13)"/>
                        <g>
                            <g>
                                <path d="M6.611 72.222C2.717 65.283.495 57.279.495 48.756.495 22.243 21.99.75 48.502.75c26.513 0 48.006 21.493 48.006 48.006 0 26.514-21.493 48.007-48.006 48.007" transform="translate(414.645 121.13) translate(34.164 36.038) translate(4.244)"/>
                                <path stroke="#231F20" stroke-linecap="round" stroke-width="1.602" d="M6.611 72.222C2.717 65.283.495 57.279.495 48.756.495 22.243 21.99.75 48.502.75c26.513 0 48.006 21.493 48.006 48.006 0 26.514-21.493 48.007-48.006 48.007" transform="translate(414.645 121.13) translate(34.164 36.038) translate(4.244)"/>
                            </g>
                            <g stroke="#231F20" stroke-linecap="round" stroke-width="1.602">
                                <path d="M10.99 10.42L0 6.584M10.99 10.42L15.136 0" transform="translate(414.645 121.13) translate(34.164 36.038) translate(0 62.313)"/>
                            </g>
                        </g>
                        <path fill="#2B2B2B" fill-rule="nonzero" d="M64.955 78.088v-4.2h4.326v4.2h1.708v-9.8H69.28v4.018h-4.326v-4.018h-1.708v9.8h1.708zm11.13.196c1.624 0 2.688-.826 3.122-2.016l-1.414-.434c-.21.56-.812 1.064-1.708 1.064-1.078 0-1.848-.84-1.932-1.75h5.222v-.644c0-2.128-1.302-3.598-3.304-3.598-1.974 0-3.528 1.596-3.528 3.682 0 2.142 1.554 3.696 3.542 3.696zm1.806-4.424h-3.724c.168-.882.854-1.568 1.918-1.568 1.134 0 1.75.868 1.806 1.568zm4.536 4.228V74.28c0-1.12.63-1.806 1.47-1.806.378 0 .672.112.84.238l.602-1.47c-.266-.182-.686-.336-1.204-.336-.826 0-1.428.434-1.764 1.008l-.238-.812h-1.386v6.986h1.68zm5.53 0v-3.962c0-1.078.56-1.666 1.358-1.666.742 0 1.204.462 1.204 1.47v4.158h1.68v-3.962c0-1.064.56-1.666 1.358-1.666s1.19.49 1.19 1.47v4.158h1.68v-4.62c0-1.722-.868-2.562-2.254-2.562-1.008 0-1.75.434-2.24 1.05-.322-.616-.924-1.05-1.89-1.05-.938 0-1.708.42-2.156 1.022l-.224-.826h-1.386v6.986h1.68zm13.384.196c1.624 0 2.688-.826 3.122-2.016l-1.414-.434c-.21.56-.812 1.064-1.708 1.064-1.078 0-1.848-.84-1.932-1.75h5.222v-.644c0-2.128-1.302-3.598-3.304-3.598-1.974 0-3.528 1.596-3.528 3.682 0 2.142 1.554 3.696 3.542 3.696zm1.806-4.424h-3.724c.168-.882.854-1.568 1.918-1.568 1.134 0 1.75.868 1.806 1.568zm8.12 4.228v-1.4h-3.514l3.458-4.354v-1.232h-5.404v1.386h3.374l-3.472 4.354v1.246h5.558zM78.122 98.909l.812-2.198h4.004l.812 2.198h1.75l-3.668-9.8H80.04l-3.668 9.8h1.75zm4.242-3.738h-2.856l1.428-3.85 1.428 3.85zm6.118 3.738v-3.556h1.876c1.722 0 3.262-1.064 3.262-3.136 0-1.036-.322-1.82-.952-2.338-.63-.518-1.428-.77-2.394-.77h-3.5v9.8h1.708zm1.666-5.096h-1.666V90.65h1.652c1.162 0 1.778.616 1.778 1.568 0 .952-.588 1.596-1.764 1.596zm6.748 5.096v-9.8h-1.708v9.8h1.708z" transform="translate(414.645 121.13)"/>
                    </g>
                    <g>
                        <path d="M0.042 33.251L59.304 33.251 59.304 0.001 0.042 0.001z" transform="translate(268.894 3.407)"/>
                        <path fill="#2B2B2B" d="M0 33.635L59.262 33.635 59.262 0 0 0z" transform="translate(268.894 3.407)"/>
                        <path fill="#FFF" fill-rule="nonzero" d="M25.881 20.61v-8.33h2.884v-1.61h-7.462v1.61h2.884v8.33h1.694zm5.054 0l2.744-3.696 2.73 3.696h2.142l-3.878-5.054 3.696-4.886h-2.086l-2.604 3.528-2.618-3.528h-2.128l3.738 4.886-3.878 5.054h2.142z" transform="translate(268.894 3.407)"/>
                    </g>
                    <g>
                        <path fill="#2B2B2B" d="M0 33.635L59.262 33.635 59.262 0 0 0z" transform="translate(370.6 3.407)"/>
                        <path fill="#FFF" fill-rule="nonzero" d="M25.881 20.61v-8.33h2.884v-1.61h-7.462v1.61h2.884v8.33h1.694zm5.054 0l2.744-3.696 2.73 3.696h2.142l-3.878-5.054 3.696-4.886h-2.086l-2.604 3.528-2.618-3.528h-2.128l3.738 4.886-3.878 5.054h2.142z" transform="translate(370.6 3.407)"/>
                    </g>
                    <g>
                        <path fill="#2B2B2B" d="M0 33.635L59.262 33.635 59.262 0 0 0z" transform="translate(471.505 3.407)"/>
                        <path fill="#FFF" fill-rule="nonzero" d="M25.881 20.61v-8.33h2.884v-1.61h-7.462v1.61h2.884v8.33h1.694zm5.054 0l2.744-3.696 2.73 3.696h2.142l-3.878-5.054 3.696-4.886h-2.086l-2.604 3.528-2.618-3.528h-2.128l3.738 4.886-3.878 5.054h2.142z" transform="translate(471.505 3.407)"/>
                    </g>
                    <g>
                        <path fill="#2B2B2B" d="M0 33.635L59.262 33.635 59.262 0 0 0z" transform="translate(572.41 3.407)"/>
                        <path fill="#FFF" fill-rule="nonzero" d="M25.438 20.61v-8.33h2.884v-1.61H20.86v1.61h2.884v8.33h1.694zm5.054 0l2.744-3.697 2.73 3.696h2.142l-3.878-5.054 3.696-4.886H35.84l-2.604 3.528-2.618-3.528H28.49l3.738 4.886-3.878 5.054h2.142z" transform="translate(572.41 3.407)"/>
                    </g>
                    <g>
                        <path fill="#2B2B2B" d="M0 33.635L59.262 33.635 59.262 0 0 0z" transform="translate(673.315 3.407)"/>
                        <path fill="#FFF" fill-rule="nonzero" d="M25.438 20.61v-8.33h2.884v-1.61H20.86v1.61h2.884v8.33h1.694zm5.054 0l2.744-3.697 2.73 3.696h2.142l-3.878-5.054 3.696-4.886H35.84l-2.604 3.528-2.618-3.528H28.49l3.738 4.886-3.878 5.054h2.142z" transform="translate(673.315 3.407)"/>
                    </g>
                    <path fill="#231F20" d="M486.721 266.961L514.029 266.961 514.029 239.653 486.721 239.653z"/>
                    <path fill="#AAB4D4" d="M499.934 743.377c68.113 0 123.329-55.216 123.329-123.328s-55.216-123.328-123.329-123.328c-68.112 0-123.328 55.216-123.328 123.328s55.216 123.328 123.328 123.328z" opacity=".155"/>
                    <g fill-rule="nonzero" opacity=".553" transform="matrix(1 0 0 -1 0 1315.938)">
                        <use fill="url(#jgu71c413a)" xlink:href="#oquyva81ub"/>
                        <use fill="url(#k1kxhmns9c)" xlink:href="#oquyva81ub"/>
                    </g>
                    <g>
                        <g>
                            <path d="M6.611 71.683C2.717 64.745.495 56.741.495 48.217.495 21.704 21.99.211 48.502.211c26.513 0 48.006 21.493 48.006 48.006 0 26.514-21.493 48.007-48.006 48.007" transform="translate(449.882 532.75) translate(4.405)"/>
                            <path stroke="#231F20" stroke-linecap="round" stroke-width="1.602" d="M6.611 71.683C2.717 64.745.495 56.741.495 48.217.495 21.704 21.99.211 48.502.211c26.513 0 48.006 21.493 48.006 48.006 0 23.224-16.49 42.596-38.4 47.046" transform="translate(449.882 532.75) translate(4.405)"/>
                        </g>
                        <g stroke="#231F20" stroke-linecap="round" stroke-width="1.602">
                            <path d="M10.99 10.421L0 6.584M10.99 10.421L15.136 0" transform="translate(449.882 532.75) translate(0 61.262)"/>
                        </g>
                    </g>
                    <g>
                        <path fill="#231F20" d="M27.308 0v27.308H0V0h27.308zm-8.592 9.032c-.54-.385-1.29-.259-1.676.281l-4.787 6.718-2.2-2.199-.09-.082c-.473-.385-1.169-.358-1.608.082-.47.47-.47 1.23 0 1.7l3.203 3.202.027.027.022.02.019.015.023.02.026.022.035.025.028.02c.019.012.037.024.057.035l.051.03.065.031.058.025.064.023.076.022.034.008c.034.008.069.014.104.019.01 0 .019.002.028.003.03.003.058.006.087.006l.036.001h.01c.042 0 .083-.002.116-.005l.008-.001.098-.014c.07-.014.14-.033.207-.059l.074-.031.034-.016c.027-.014.053-.028.079-.044l.053-.033.054-.039.058-.048.006-.005.014-.011.023-.021.038-.037.012-.013.053-.062.011-.012.018-.024.022-.029 5.611-7.874.063-.098c.306-.53.164-1.215-.344-1.578z" transform="translate(485.92 614.443)"/>
                    </g>
                    <g>
                        <g fill-rule="nonzero" opacity=".555" transform="translate(430.7 284.155) matrix(-1 0 0 1 140.082 0)">
                            <use fill="url(#0ifuzd34vd)" xlink:href="#zccmq28dde"/>
                            <use fill="url(#kpkkpgkeaf)" xlink:href="#zccmq28dde"/>
                        </g>
                        <path fill="#231F20" d="M70.574 102.932L36 76.628 70.574 54 105.149 76.628z" transform="translate(430.7 284.155)"/>
                        <path stroke="#231F20" stroke-linejoin="round" stroke-width="1.602" d="M70.574 131.332L36.919 105.948 70.574 84.238 104.229 105.948z" transform="translate(430.7 284.155)"/>
                        <path stroke="#231F20" stroke-width="1.602" d="M36.919 105.947L36.919 76.642M70.574 131.332L70.574 102.026M104.23 105.947L104.23 76.642" transform="translate(430.7 284.155)"/>
                    </g>
                    <g>
                        <g>
                            <path fill="#231F20" d="M34.574 48.932L0 22.628 34.574 0 69.148 22.628z" transform="translate(339.367 338.155)"/>
                            <path stroke="#231F20" stroke-linejoin="round" stroke-width="1.602" d="M34.574 77.332L0.919 51.948 34.574 30.238 68.229 51.948z" transform="translate(339.367 338.155)"/>
                            <path stroke="#231F20" stroke-width="1.602" d="M34.574 77.332L34.574 48.026" transform="translate(339.367 338.155)"/>
                        </g>
                        <path stroke="#231F20" stroke-width="1.602" d="M.919 51.947L.919 22.642M68.229 51.947L68.229 22.642" transform="translate(339.367 338.155)"/>
                    </g>
                    <g>
                        <path fill="#231F20" d="M34.574 48.932L0 22.628 34.574 0 69.149 22.628z" transform="translate(212.034 338.155)"/>
                        <path stroke="#231F20" stroke-linejoin="round" stroke-width="1.602" d="M34.574 77.332L0.919 51.948 34.574 30.238 68.229 51.948z" transform="translate(212.034 338.155)"/>
                        <path stroke="#231F20" stroke-width="1.602" d="M.919 51.947L.919 22.642M34.574 77.332L34.574 48.026M68.23 51.947L68.23 22.642" transform="translate(212.034 338.155)"/>
                    </g>
                    <g>
                        <g>
                            <path fill="#231F20" d="M34.574 48.932L0 22.628 34.574 0 69.149 22.628z" transform="translate(594.032 338.155)"/>
                            <path stroke="#231F20" stroke-linejoin="round" stroke-width="1.602" d="M34.574 77.332L0.919 51.948 34.574 30.238 68.229 51.948z" transform="translate(594.032 338.155)"/>
                            <path stroke="#231F20" stroke-width="1.602" d="M34.574 77.332L34.574 48.026" transform="translate(594.032 338.155)"/>
                        </g>
                        <path stroke="#231F20" stroke-width="1.602" d="M.919 51.947L.919 22.642M68.23 51.947L68.23 22.642" transform="translate(594.032 338.155)"/>
                    </g>
                    <g>
                        <g>
                            <path fill="#231F20" d="M34.574 48.932L0 22.628 34.574 0 69.149 22.628z" transform="translate(721.365 338.155)"/>
                            <path stroke="#231F20" stroke-linejoin="round" stroke-width="1.602" d="M34.574 77.332L0.919 51.948 34.574 30.238 68.229 51.948z" transform="translate(721.365 338.155)"/>
                            <path stroke="#231F20" stroke-width="1.602" d="M34.574 77.332L34.574 48.026" transform="translate(721.365 338.155)"/>
                        </g>
                        <path stroke="#231F20" stroke-width="1.602" d="M.919 51.947L.919 22.642M68.23 51.947L68.23 22.642" transform="translate(721.365 338.155)"/>
                    </g>
                    <path stroke="#231F20" stroke-width="1.602" d="M280.105 375.795L340.168 375.795M407.438 375.795L467.501 375.795M535.571 375.795L594.833 375.795M662.103 375.795L722.166 375.795"/>
                    <g fill="#231F20">
                        <path d="M65.254 92.35L0 42.706 65.254 0 130.507 42.706z" transform="translate(433.065 712.946)"/>
                        <path fill-rule="nonzero" d="M64.82 56.397L1.3 97.368c-.467.302-.492.977-.048 1.312l63.52 47.91c.285.216.678.216.964 0l63.519-47.91c.444-.335.42-1.01-.048-1.312l-63.52-40.971c-.264-.17-.603-.17-.868 0zm.434 1.625l62.12 40.07-62.12 46.856L3.132 98.092l62.122-40.07z" transform="translate(433.065 712.946)"/>
                        <path fill-rule="nonzero" d="M2.536 42.732L2.536 98.041.934 98.041.934 42.732zM66.054 90.641L66.054 145.951 64.453 145.951 64.453 90.641zM129.573 42.732L129.573 98.041 127.972 98.041 127.972 42.732z" transform="translate(433.065 712.946)"/>
                    </g>
                    <g fill="#231F20">
                        <path d="M65.254 92.35L0 42.706 65.254 0 130.506 42.706z" transform="translate(244.869 712.946)"/>
                        <path fill-rule="nonzero" d="M64.82 56.397L1.3 97.368c-.467.302-.492.977-.048 1.312l63.52 47.91c.285.216.678.216.964 0l63.519-47.91c.444-.335.42-1.01-.048-1.312l-63.52-40.971c-.264-.17-.603-.17-.868 0zm.434 1.625l62.12 40.07-62.12 46.856L3.132 98.092l62.122-40.07z" transform="translate(244.869 712.946)"/>
                        <path fill-rule="nonzero" d="M2.535 42.732L2.535 98.041.933 98.041.933 42.732zM66.054 90.641L66.054 145.951 64.453 145.951 64.453 90.641zM129.573 42.732L129.573 98.041 127.972 98.041 127.972 42.732z" transform="translate(244.869 712.946)"/>
                    </g>
                    <g fill="#231F20">
                        <path d="M65.254 92.35L0 42.706 65.254 0 130.507 42.706z" transform="translate(622.862 712.946)"/>
                        <path fill-rule="nonzero" d="M64.82 56.397L1.3 97.368c-.467.302-.492.977-.048 1.312l63.52 47.91c.285.216.678.216.964 0l63.519-47.91c.444-.335.42-1.01-.048-1.312l-63.52-40.971c-.264-.17-.603-.17-.868 0zm.434 1.625l62.12 40.07-62.12 46.856L3.132 98.092l62.122-40.07z" transform="translate(622.862 712.946)"/>
                        <path fill-rule="nonzero" d="M2.536 42.732L2.536 98.041.934 98.041.934 42.732zM66.054 90.641L66.054 145.951 64.453 145.951 64.453 90.641zM129.573 42.732L129.573 98.041 127.972 98.041 127.972 42.732z" transform="translate(622.862 712.946)"/>
                    </g>
                    <path fill="#231F20" fill-rule="nonzero" d="M300.064 58.444l.674.432c.559.358 1.302.195 1.66-.363.358-.559.195-1.302-.364-1.66l-.674-.432c-.558-.358-1.301-.195-1.66.363-.357.559-.195 1.302.364 1.66zm17.04 8.094l.75.28c.622.231 1.314-.085 1.546-.706.232-.622-.084-1.314-.706-1.546l-.75-.28c-.622-.231-1.314.085-1.546.706-.231.622.084 1.314.706 1.546zm17.848 5.697l.771.213c.64.178 1.302-.197 1.479-.837.177-.639-.198-1.3-.837-1.478l-.772-.214c-.64-.177-1.301.198-1.478.837-.178.64.197 1.302.837 1.479zm18.149 4.5l.782.175c.647.144 1.29-.264 1.434-.911.144-.648-.264-1.29-.911-1.434l-.782-.175c-.647-.144-1.29.264-1.434.911-.144.648.263 1.29.91 1.434zm18.3 3.729l.787.147c.652.121 1.279-.309 1.4-.961.122-.652-.308-1.28-.96-1.401l-.788-.147c-.652-.122-1.279.309-1.4.96-.122.653.308 1.28.96 1.402zm18.398 3.161l.79.125c.656.104 1.271-.343 1.375-.998.104-.656-.343-1.271-.999-1.375l-.79-.125c-.656-.104-1.271.343-1.375.999-.104.655.344 1.27.999 1.374zm18.476 2.703l.793.107c.658.088 1.263-.373 1.351-1.03.089-.658-.372-1.263-1.03-1.351l-.793-.107c-.658-.089-1.263.372-1.351 1.03-.089.657.372 1.262 1.03 1.35zm18.52 2.299l.796.09c.659.075 1.254-.398 1.329-1.058.075-.659-.399-1.254-1.058-1.329l-.796-.09c-.659-.075-1.254.398-1.329 1.058-.075.659.399 1.254 1.058 1.329zm18.55 1.918l.797.074c.66.061 1.246-.425 1.308-1.085.061-.66-.425-1.246-1.085-1.307l-.798-.075c-.66-.061-1.246.425-1.307 1.085-.061.66.424 1.246 1.085 1.308zm18.599 1.526l.799.057c.662.046 1.236-.452 1.283-1.114.046-.662-.452-1.236-1.114-1.283l-.799-.056c-.662-.047-1.236.451-1.283 1.113-.046.662.452 1.236 1.114 1.283zm18.637 1.07l.8.034c.663.028 1.223-.486 1.251-1.149.029-.663-.486-1.223-1.148-1.251l-.8-.034c-.663-.029-1.224.486-1.252 1.148-.028.663.486 1.224 1.149 1.252zm18.689.421l.8-.002c.664-.002 1.2-.542 1.198-1.205-.002-.664-.541-1.2-1.204-1.198l-.801.003c-.664.002-1.2.541-1.198 1.204.002.664.542 1.2 1.205 1.198zm18.682-.542l.8-.04c.663-.032 1.174-.595 1.141-1.258-.032-.663-.596-1.174-1.258-1.141l-.8.04c-.663.032-1.174.595-1.141 1.258.032.662.596 1.173 1.258 1.14zm18.63-1.173l.798-.06c.661-.05 1.157-.627 1.107-1.289-.05-.661-.626-1.157-1.288-1.107l-.798.06c-.662.05-1.158.627-1.108 1.288.05.662.627 1.158 1.288 1.108zm18.598-1.604l.797-.077c.66-.064 1.144-.651 1.08-1.311-.063-.66-.65-1.144-1.31-1.08l-.798.076c-.66.064-1.144.651-1.08 1.311.064.66.65 1.144 1.311 1.08zm18.552-1.975l.796-.092c.659-.077 1.131-.673 1.054-1.332-.076-.659-.672-1.131-1.331-1.054l-.796.092c-.659.077-1.131.673-1.054 1.332.076.659.672 1.131 1.331 1.054zm18.508-2.337l.793-.108c.658-.09 1.118-.696 1.028-1.353-.09-.657-.696-1.117-1.353-1.028l-.793.109c-.658.09-1.118.695-1.028 1.353.09.657.695 1.117 1.353 1.027zm18.46-2.727l.79-.126c.655-.105 1.102-.72.997-1.376-.104-.655-.72-1.101-1.375-.997l-.791.126c-.655.105-1.102.72-.997 1.376.104.655.72 1.101 1.375.997zm18.403-3.18l.788-.147c.652-.123 1.081-.75.96-1.402-.123-.652-.75-1.082-1.402-.96l-.788.147c-.652.122-1.081.75-.96 1.402.123.652.75 1.082 1.402.96zm18.291-3.74l.782-.174c.647-.145 1.055-.788.91-1.435-.145-.647-.787-1.055-1.435-.91l-.781.175c-.648.145-1.055.787-.91 1.434.144.648.787 1.055 1.434.91zm18.158-4.515l.771-.214c.64-.178 1.014-.84.836-1.479-.178-.64-.84-1.013-1.479-.836l-.772.215c-.639.177-1.013.84-.835 1.479.177.639.84 1.013 1.479.835zm17.833-5.713l.75-.28c.621-.233.936-.926.703-1.547-.232-.621-.925-.936-1.546-.703l-.75.28c-.621.233-.936.926-.703 1.547.232.621.925.936 1.546.703zm17.025-8.139l.672-.435c.558-.36.717-1.103.357-1.66-.36-.558-1.104-.717-1.661-.357l-.673.435c-.557.36-.716 1.104-.356 1.66.36.558 1.104.717 1.66.357zM269.91 437.276l.7.39c.58.323 1.311.115 1.634-.465.323-.58.115-1.31-.464-1.634l-.7-.39c-.58-.322-1.311-.114-1.634.465-.323.58-.115 1.312.465 1.634zm18.209 7.632l.76.252c.63.21 1.31-.131 1.518-.76.21-.63-.13-1.31-.76-1.52l-.76-.252c-.63-.21-1.31.131-1.52.76-.209.63.132 1.31.762 1.52zm18.872 5.401l.777.194c.643.16 1.295-.23 1.456-.874.16-.644-.23-1.296-.874-1.457l-.777-.194c-.644-.16-1.296.23-1.457.874-.16.644.23 1.296.875 1.457zm19.128 4.293l.784.16c.65.131 1.285-.29 1.417-.94.131-.65-.289-1.284-.94-1.415l-.784-.16c-.65-.131-1.284.289-1.416.94-.132.65.288 1.283.939 1.415zm19.231 3.576l.79.135c.653.112 1.274-.328 1.386-.981.112-.654-.328-1.275-.982-1.387l-.79-.135c-.653-.112-1.274.328-1.386.982-.111.654.328 1.275.982 1.386zm19.332 3.06l.792.116c.657.096 1.267-.358 1.363-1.014.096-.657-.358-1.267-1.014-1.363l-.793-.116c-.656-.096-1.266.358-1.362 1.014-.097.657.357 1.267 1.014 1.363zm19.389 2.644l.794.1c.659.084 1.26-.382 1.343-1.04.083-.659-.383-1.26-1.04-1.343l-.795-.1c-.658-.084-1.26.382-1.343 1.04-.083.658.383 1.26 1.04 1.343zm19.434 2.287l.796.087c.66.072 1.253-.404 1.325-1.064.072-.66-.405-1.252-1.064-1.324l-.796-.087c-.66-.072-1.253.404-1.325 1.064-.072.66.405 1.252 1.064 1.324zm19.465 1.963l.797.074c.66.06 1.246-.425 1.307-1.086.061-.66-.425-1.246-1.085-1.307l-.798-.074c-.66-.06-1.245.425-1.307 1.086-.06.66.425 1.245 1.086 1.307zm19.472 1.643l.799.06c.661.051 1.238-.444 1.288-1.106.05-.661-.445-1.238-1.106-1.289l-.799-.06c-.661-.05-1.238.445-1.289 1.106-.05.662.446 1.239 1.107 1.29zm19.53 1.31l.8.047c.662.038 1.23-.468 1.268-1.13.039-.662-.467-1.23-1.13-1.269l-.8-.046c-.662-.038-1.23.468-1.268 1.13-.038.663.468 1.23 1.13 1.269zm19.543.915l.8.028c.663.023 1.22-.496 1.243-1.159.023-.663-.496-1.22-1.16-1.242l-.8-.028c-.663-.023-1.219.496-1.242 1.159-.023.663.496 1.22 1.16 1.242zm19.586.357l.801-.002c.664-.002 1.2-.54 1.199-1.204-.002-.664-.541-1.2-1.204-1.199l-.801.002c-.664.002-1.2.541-1.199 1.204.002.664.54 1.2 1.204 1.199zm19.577-.46l.8-.032c.663-.026 1.18-.585 1.153-1.248-.027-.663-.585-1.179-1.248-1.152l-.8.031c-.663.027-1.18.586-1.153 1.249.027.663.585 1.179 1.248 1.152zm19.545-1.008l.8-.05c.662-.04 1.165-.61 1.124-1.272-.04-.663-.61-1.166-1.273-1.125l-.8.05c-.662.04-1.165.61-1.124 1.273.041.662.611 1.165 1.273 1.124zm19.515-1.381l.798-.064c.662-.052 1.155-.63 1.103-1.292-.053-.661-.631-1.155-1.293-1.103l-.798.064c-.661.052-1.155.63-1.103 1.292.053.661.632 1.155 1.293 1.103zm19.48-1.698l.797-.076c.66-.062 1.145-.649 1.082-1.31-.063-.66-.65-1.144-1.31-1.081l-.797.075c-.66.063-1.145.65-1.082 1.31.063.66.649 1.145 1.31 1.082zm19.456-2l.796-.088c.66-.073 1.135-.667 1.061-1.326-.073-.66-.666-1.135-1.326-1.062l-.796.088c-.659.073-1.134.667-1.061 1.326.073.66.666 1.135 1.326 1.062zm19.42-2.313l.795-.101c.658-.084 1.123-.686 1.04-1.344-.085-.658-.687-1.123-1.345-1.04l-.794.102c-.658.084-1.123.686-1.04 1.344.085.658.686 1.124 1.344 1.04zm19.38-2.658l.791-.117c.657-.097 1.11-.707 1.014-1.364-.097-.656-.707-1.11-1.364-1.013l-.792.117c-.656.096-1.11.707-1.013 1.363.096.656.707 1.11 1.363 1.014zm19.327-3.069l.789-.135c.654-.112 1.093-.733.981-1.386-.112-.654-.733-1.094-1.387-.982l-.789.135c-.654.112-1.093.733-.981 1.387.112.654.733 1.093 1.387.981zm19.257-3.586l.785-.159c.65-.132 1.07-.766.938-1.416-.132-.65-.766-1.07-1.416-.938l-.785.159c-.65.132-1.07.766-.938 1.416.132.65.766 1.07 1.416.938zm19.116-4.293l.777-.194c.644-.161 1.035-.813.874-1.457-.16-.644-.813-1.035-1.456-.874l-.777.194c-.644.16-1.035.813-.874 1.457.16.643.813 1.035 1.456.874zm18.862-5.403l.76-.253c.63-.21.97-.89.76-1.52-.209-.629-.889-.97-1.518-.76l-.76.253c-.63.21-.97.89-.76 1.52.209.629.889.97 1.518.76zm18.212-7.644l.7-.39c.58-.323.787-1.055.464-1.634-.323-.58-1.055-.787-1.634-.464l-.7.39c-.58.323-.787 1.055-.464 1.634.323.58 1.055.788 1.634.464zM435.467 783.419L435.467 785.021 373.803 785.021 373.803 783.419zM624.464 783.419L624.464 785.021 561.198 785.021 561.198 783.419z"/>
                    <g stroke="#231F20" stroke-width="1.602">
                        <path d="M10.106 0L10.435 33.93" transform="translate(490.324 266.881)"/>
                        <g stroke-linecap="round">
                            <path d="M10.99 10.42L0 6.584M10.99 10.42L15.136 0" transform="translate(490.324 266.881) rotate(22 -51.662 21.402)"/>
                        </g>
                    </g>
                    <path fill="#231F20" fill-rule="nonzero" d="M500.335 109.517v.801c0 .663.538 1.201 1.201 1.201s1.201-.538 1.201-1.201v-.8c0-.664-.538-1.202-1.201-1.202s-1.201.538-1.201 1.201zm0 16.017v.8c0 .664.538 1.202 1.201 1.202s1.201-.538 1.201-1.201v-.801c0-.664-.538-1.201-1.201-1.201s-1.201.537-1.201 1.2zm0 16.017v.8c0 .664.538 1.202 1.201 1.202s1.201-.538 1.201-1.202v-.8c0-.664-.538-1.202-1.201-1.202s-1.201.538-1.201 1.202zM500.335 486.71v.8c0 .664.538 1.202 1.201 1.202s1.201-.538 1.201-1.201v-.8c0-.664-.538-1.202-1.201-1.202s-1.201.538-1.201 1.201zm0 16.017v.8c0 .664.538 1.202 1.201 1.202s1.201-.538 1.201-1.201v-.801c0-.664-.538-1.201-1.201-1.201s-1.201.537-1.201 1.2zm0 16.016v.801c0 .664.538 1.202 1.201 1.202s1.201-.538 1.201-1.202v-.8c0-.664-.538-1.202-1.201-1.202s-1.201.538-1.201 1.201z"/>
                    <g stroke="#231F20" stroke-width="1.602">
                        <path d="M10.066 0L10.395 33.93" transform="translate(489.868 641.672)"/>
                        <g stroke-linecap="round">
                            <path d="M10.99 10.42L0 6.584M10.99 10.42L15.136 0" transform="translate(489.868 641.672) rotate(22 -51.662 21.402)"/>
                        </g>
                    </g>
                    <path fill="#081932" fill-rule="nonzero" d="M841.638 178.179c2.898.042 4.998-2.268 4.97-5.096.042-2.8-2.058-5.138-4.97-5.096-2.85-.041-4.918 2.178-4.983 4.881v.215c-.043 2.828 2.057 5.138 4.983 5.096zm0-1.288c-2.142 0-3.584-1.596-3.584-3.808 0-2.17 1.456-3.808 3.584-3.808 2.086 0 3.57 1.638 3.57 3.808 0 2.198-1.456 3.808-3.57 3.808zm10.066 1.106l2.632-6.93h-1.4l-1.96 5.376-1.96-5.376h-1.414l2.646 6.93h1.456zm6.916.196c1.582 0 2.66-.812 3.066-1.974l-1.176-.378c-.224.658-.924 1.204-1.89 1.204-1.218 0-2.058-.966-2.142-2.086h5.39v-.546c0-2.1-1.302-3.528-3.262-3.528-1.946 0-3.458 1.61-3.458 3.64 0 2.058 1.442 3.668 3.472 3.668zm2.016-4.312h-4.144c.168-1.05.952-1.848 2.128-1.848 1.162 0 1.946.868 2.016 1.848zm4.102 4.116v-3.836c0-1.218.686-1.988 1.596-1.988.406 0 .728.126.896.252l.532-1.204c-.266-.182-.7-.35-1.246-.35-.826 0-1.47.462-1.806 1.064l-.21-.868h-1.134v6.93h1.372zm14.28 0v-1.288h-4.452l2.282-2.016c.476-.406.868-.784 1.162-1.106.588-.658.994-1.484.994-2.534 0-1.764-1.414-3.052-3.276-3.052-1.764 0-3.234 1.19-3.318 2.996l1.302.378c0-1.246.854-2.086 2.016-2.086 1.106 0 1.876.77 1.876 1.778 0 .378-.07.714-.224 1.022-.294.616-.686 1.008-1.512 1.722l-3.276 2.884v1.302h6.426zm1.988.098c.518 0 .938-.42.938-.938s-.42-.938-.938-.938-.938.42-.938.938.42.938.938.938zm5.614.098c2.436 0 3.584-2.226 3.584-5.138 0-2.87-1.19-5.054-3.598-5.054-2.436 0-3.612 2.184-3.612 5.054 0 1.526.308 2.758.91 3.71.602.952 1.512 1.428 2.716 1.428zm0-1.288c-.756 0-1.316-.35-1.68-1.064-.378-.7-.56-1.61-.56-2.744 0-1.12.182-2.03.56-2.744.364-.714.924-1.064 1.666-1.064.728 0 1.274.35 1.652 1.064.364.714.546 1.624.546 2.744 0 1.134-.182 2.058-.532 2.758-.364.7-.91 1.05-1.652 1.05zm8.442 1.288c2.436 0 3.584-2.226 3.584-5.138 0-2.87-1.19-5.054-3.598-5.054-2.436 0-3.612 2.184-3.612 5.054 0 1.526.308 2.758.91 3.71.602.952 1.512 1.428 2.716 1.428zm0-1.288c-.756 0-1.316-.35-1.68-1.064-.378-.7-.56-1.61-.56-2.744 0-1.12.182-2.03.56-2.744.364-.714.924-1.064 1.666-1.064.728 0 1.274.35 1.652 1.064.364.714.546 1.624.546 2.744 0 1.134-.182 2.058-.532 2.758-.364.7-.91 1.05-1.652 1.05zm8.442 1.288c2.436 0 3.584-2.226 3.584-5.138 0-2.87-1.19-5.054-3.598-5.054-2.436 0-3.612 2.184-3.612 5.054 0 1.526.308 2.758.91 3.71.602.952 1.512 1.428 2.716 1.428zm0-1.288c-.756 0-1.316-.35-1.68-1.064-.378-.7-.56-1.61-.56-2.744 0-1.12.182-2.03.56-2.744.364-.714.924-1.064 1.666-1.064.728 0 1.274.35 1.652 1.064.364.714.546 1.624.546 2.744 0 1.134-.182 2.058-.532 2.758-.364.7-.91 1.05-1.652 1.05zm11.48 1.288c.784 0 1.33-.28 1.568-.56l-.63-.98c-.182.182-.406.266-.672.266-.49 0-.728-.266-.728-.812v-3.808h1.876v-1.232h-1.876v-1.806h-1.372v1.806h-1.246v1.232h1.246v3.976c0 1.19.756 1.918 1.834 1.918zm6.02 0c2.114 0 3.57-1.708 3.57-3.654 0-1.96-1.456-3.668-3.57-3.668-2.072-.042-3.612 1.736-3.57 3.668-.042 1.918 1.47 3.696 3.57 3.654zm0-1.26c-1.274 0-2.198-1.008-2.198-2.394 0-1.372.924-2.408 2.198-2.408 1.26 0 2.198 1.036 2.198 2.408 0 1.372-.938 2.394-2.198 2.394zm6.44 1.064v-2.408l.784-.826 2.282 3.234h1.568l-2.94-4.186 2.618-2.744h-1.68l-2.632 2.744v-5.614h-1.372v9.8h1.372zm8.918.196c1.582 0 2.66-.812 3.066-1.974l-1.176-.378c-.224.658-.924 1.204-1.89 1.204-1.218 0-2.058-.966-2.142-2.086h5.39v-.546c0-2.1-1.302-3.528-3.262-3.528-1.946 0-3.458 1.61-3.458 3.64 0 2.058 1.442 3.668 3.472 3.668zm2.016-4.312h-4.144c.168-1.05.952-1.848 2.128-1.848 1.162 0 1.946.868 2.016 1.848zm4.102 4.116v-3.864c0-1.232.756-1.974 1.75-1.974.938 0 1.484.448 1.484 1.722v4.116h1.372v-4.354c0-1.862-.91-2.772-2.436-2.772-.938 0-1.666.364-2.198 1.078l-.21-.882h-1.134v6.93h1.372zm-103.236 24.22c.784 0 1.33-.28 1.568-.56l-.63-.98c-.182.183-.406.267-.672.267-.49 0-.728-.266-.728-.812v-3.808h1.876v-1.232h-1.876v-1.806h-1.372v1.806h-1.246v1.232h1.246v3.976c0 1.19.756 1.918 1.834 1.918zm4.144-.195v-3.836c0-1.218.686-1.988 1.596-1.988.406 0 .728.126.896.252l.532-1.204c-.266-.182-.7-.35-1.246-.35-.826 0-1.47.462-1.806 1.064l-.21-.868h-1.134v6.93h1.372zm6.118.196c.938 0 1.624-.294 2.044-.868l.14.672h1.162v-4.592c0-1.638-1.134-2.52-2.828-2.52-1.526 0-2.464.7-2.8 2.086l1.218.294c.126-.798.602-1.26 1.554-1.26.994 0 1.484.476 1.484 1.414v.154l-1.666.238c-1.946.28-2.702 1.078-2.702 2.268 0 1.218.952 2.114 2.394 2.114zm.336-1.134c-.854 0-1.4-.42-1.4-1.05 0-.686.49-.994 1.484-1.148l1.554-.238v.91c0 .994-.728 1.526-1.638 1.526zm6.062.938v-3.864c0-1.232.756-1.974 1.75-1.974.938 0 1.484.448 1.484 1.722v4.116h1.372v-4.354c0-1.862-.91-2.772-2.436-2.772-.938 0-1.666.364-2.198 1.078l-.21-.882h-1.134v6.93h1.372zm8.96.196c1.596 0 2.744-.896 2.744-2.142 0-1.288-.882-1.848-2.52-2.17-1.05-.182-1.54-.406-1.54-.952 0-.49.42-.882 1.316-.882.826 0 1.232.476 1.4 1.19l1.218-.35c-.28-1.274-1.218-2.002-2.618-2.002-.77 0-1.386.196-1.876.574-.49.392-.742.896-.742 1.526 0 1.288.966 1.806 2.604 2.1 1.162.21 1.456.532 1.456.98 0 .602-.588.966-1.442.966-.994 0-1.4-.532-1.624-1.316l-1.232.378c.378 1.358 1.358 2.1 2.856 2.1zm6.314 0c.938 0 1.624-.294 2.044-.868l.14.672h1.162v-4.592c0-1.638-1.134-2.52-2.828-2.52-1.526 0-2.464.7-2.8 2.086l1.218.294c.126-.798.602-1.26 1.554-1.26.994 0 1.484.476 1.484 1.414v.154l-1.666.238c-1.946.28-2.702 1.078-2.702 2.268 0 1.218.952 2.114 2.394 2.114zm.336-1.134c-.854 0-1.4-.42-1.4-1.05 0-.686.49-.994 1.484-1.148l1.554-.238v.91c0 .994-.728 1.526-1.638 1.526zm7.91 1.134c1.47 0 2.562-.854 3.052-2.142l-1.246-.42c-.28.798-.952 1.302-1.806 1.302-1.26 0-2.17-1.008-2.17-2.394 0-1.386.91-2.408 2.17-2.408.882 0 1.54.49 1.806 1.316l1.26-.42c-.434-1.302-1.54-2.156-3.066-2.156-2.114 0-3.542 1.666-3.542 3.668 0 1.974 1.4 3.654 3.542 3.654zm7.042 0c.784 0 1.33-.28 1.568-.56l-.63-.98c-.182.182-.406.266-.672.266-.49 0-.728-.266-.728-.812v-3.808h1.876v-1.232h-1.876v-1.806h-1.372v1.806h-1.246v1.232h1.246v3.976c0 1.19.756 1.918 1.834 1.918zm3.542-8.148c.49 0 .882-.392.882-.896 0-.49-.392-.896-.882-.896-.504 0-.91.406-.91.896 0 .504.406.896.91.896zm.672 7.952v-6.93h-1.372v6.93h1.372zm5.138.196c2.114 0 3.57-1.708 3.57-3.654 0-1.96-1.456-3.668-3.57-3.668-2.005-.04-3.512 1.623-3.569 3.481v.187c-.043 1.918 1.47 3.696 3.57 3.654zm0-1.26c-1.274 0-2.198-1.008-2.198-2.394 0-1.372.924-2.408 2.198-2.408 1.26 0 2.198 1.036 2.198 2.408 0 1.372-.938 2.394-2.198 2.394zm6.44 1.064v-3.864c0-1.232.756-1.974 1.75-1.974.938 0 1.484.448 1.484 1.722v4.116h1.372v-4.354c0-1.862-.91-2.772-2.436-2.772-.938 0-1.666.364-2.198 1.078l-.21-.882h-1.134v6.93h1.372zm8.96.196c1.596 0 2.744-.896 2.744-2.142 0-1.288-.882-1.848-2.52-2.17-1.05-.182-1.54-.406-1.54-.952 0-.49.42-.882 1.316-.882.826 0 1.232.476 1.4 1.19l1.218-.35c-.28-1.274-1.218-2.002-2.618-2.002-.77 0-1.386.196-1.876.574-.49.392-.742.896-.742 1.526 0 1.288.966 1.806 2.604 2.1 1.162.21 1.456.532 1.456.98 0 .602-.588.966-1.442.966-.994 0-1.4-.532-1.624-1.316l-1.232.378c.378 1.358 1.358 2.1 2.856 2.1zm9.534 2.674v-3.766c.462.63 1.274 1.092 2.296 1.092 2.044 0 3.318-1.694 3.318-3.654.028-1.876-1.4-3.696-3.332-3.654-1.078 0-1.876.49-2.338 1.12l-.182-.938h-1.134v9.8h1.372zm2.114-3.906c-1.246 0-2.128-1.008-2.128-2.422 0-.7.196-1.274.602-1.736.392-.462.896-.686 1.526-.686 1.218 0 2.128 1.036 2.128 2.422 0 1.414-.91 2.422-2.128 2.422zm8.148 1.232c1.582 0 2.66-.812 3.066-1.974l-1.176-.378c-.224.658-.924 1.204-1.89 1.204-1.218 0-2.058-.966-2.142-2.086h5.39v-.546c0-2.1-1.302-3.528-3.262-3.528-1.946 0-3.458 1.61-3.458 3.64 0 2.058 1.442 3.668 3.472 3.668zm2.016-4.312h-4.144c.168-1.05.952-1.848 2.128-1.848 1.162 0 1.946.868 2.016 1.848zm4.102 4.116v-3.836c0-1.218.686-1.988 1.596-1.988.406 0 .728.126.896.252l.532-1.204c-.266-.182-.7-.35-1.246-.35-.826 0-1.47.462-1.806 1.064l-.21-.868h-1.134v6.93h1.372zm10.5.196c1.596 0 2.744-.896 2.744-2.142 0-1.288-.882-1.848-2.52-2.17-1.05-.182-1.54-.406-1.54-.952 0-.49.42-.882 1.316-.882.826 0 1.232.476 1.4 1.19l1.218-.35c-.28-1.274-1.218-2.002-2.618-2.002-.77 0-1.386.196-1.876.574-.49.392-.742.896-.742 1.526 0 1.288.966 1.806 2.604 2.1 1.162.21 1.456.532 1.456.98 0 .602-.588.966-1.442.966-.994 0-1.4-.532-1.624-1.316l-1.232.378c.378 1.358 1.358 2.1 2.856 2.1zm7.392 0c1.582 0 2.66-.812 3.066-1.974l-1.176-.378c-.224.658-.924 1.204-1.89 1.204-1.218 0-2.058-.966-2.142-2.086h5.39v-.546c0-2.1-1.302-3.528-3.262-3.528-1.946 0-3.458 1.61-3.458 3.64 0 2.058 1.442 3.668 3.472 3.668zm2.016-4.312h-4.144c.168-1.05.952-1.848 2.128-1.848 1.162 0 1.946.868 2.016 1.848zm5.95 4.312c1.47 0 2.562-.854 3.052-2.142l-1.246-.42c-.28.798-.952 1.302-1.806 1.302-1.26 0-2.17-1.008-2.17-2.394 0-1.386.91-2.408 2.17-2.408.882 0 1.54.49 1.806 1.316l1.26-.42c-.434-1.302-1.54-2.156-3.066-2.156-2.114 0-3.542 1.666-3.542 3.668 0 1.974 1.4 3.654 3.542 3.654zm7.84 0c2.114 0 3.57-1.708 3.57-3.654 0-1.96-1.456-3.668-3.57-3.668-2.005-.04-3.512 1.623-3.569 3.481v.187c-.043 1.918 1.47 3.696 3.57 3.654zm0-1.26c-1.274 0-2.198-1.008-2.198-2.394 0-1.372.924-2.408 2.198-2.408 1.26 0 2.198 1.036 2.198 2.408 0 1.372-.938 2.394-2.198 2.394zm6.44 1.064v-3.864c0-1.232.756-1.974 1.75-1.974.938 0 1.484.448 1.484 1.722v4.116h1.372v-4.354c0-1.862-.91-2.772-2.436-2.772-.938 0-1.666.364-2.198 1.078l-.21-.882h-1.134v6.93h1.372zm9.436.182c1.078 0 1.876-.49 2.338-1.12l.182.938h1.134v-9.8h-1.372v3.766c-.462-.63-1.274-1.092-2.296-1.092-2.044 0-3.318 1.694-3.318 3.654-.028 1.876 1.4 3.696 3.332 3.654zm.168-1.232c-1.232 0-2.128-1.036-2.128-2.422 0-1.414.896-2.422 2.128-2.422 1.246 0 2.114 1.008 2.114 2.422 0 1.414-.868 2.422-2.114 2.422zm-148.008 25.27c.938 0 1.624-.293 2.044-.867l.14.672h1.162v-4.592c0-1.638-1.134-2.52-2.828-2.52-1.526 0-2.464.7-2.8 2.086l1.218.294c.126-.798.602-1.26 1.554-1.26.994 0 1.484.476 1.484 1.414v.154l-1.666.238c-1.946.28-2.702 1.078-2.702 2.268 0 1.218.952 2.114 2.394 2.114zm.336-1.133c-.854 0-1.4-.42-1.4-1.05 0-.686.49-.994 1.484-1.148l1.554-.238v.91c0 .994-.728 1.526-1.638 1.526zm6.062.938v-3.836c0-1.218.686-1.988 1.596-1.988.406 0 .728.126.896.252l.532-1.204c-.266-.182-.7-.35-1.246-.35-.826 0-1.47.462-1.806 1.064l-.21-.868h-1.134v6.93h1.372zm7.196.196c1.582 0 2.66-.812 3.066-1.974l-1.176-.378c-.224.658-.924 1.204-1.89 1.204-1.218 0-2.058-.966-2.142-2.086h5.39v-.546c0-2.1-1.302-3.528-3.262-3.528-1.946 0-3.458 1.61-3.458 3.64 0 2.058 1.442 3.668 3.472 3.668zm2.016-4.312h-4.144c.168-1.05.952-1.848 2.128-1.848 1.162 0 1.946.868 2.016 1.848zm8.022 4.116v-3.836c0-1.218.686-1.988 1.596-1.988.406 0 .728.126.896.252l.532-1.204c-.266-.182-.7-.35-1.246-.35-.826 0-1.47.462-1.806 1.064l-.21-.868h-1.134v6.93h1.372zm7.196.196c1.582 0 2.66-.812 3.066-1.974l-1.176-.378c-.224.658-.924 1.204-1.89 1.204-1.218 0-2.058-.966-2.142-2.086h5.39v-.546c0-2.1-1.302-3.528-3.262-3.528-1.946 0-3.458 1.61-3.458 3.64 0 2.058 1.442 3.668 3.472 3.668zm2.016-4.312h-4.144c.168-1.05.952-1.848 2.128-1.848 1.162 0 1.946.868 2.016 1.848zm5.95 4.312c1.47 0 2.562-.854 3.052-2.142l-1.246-.42c-.28.798-.952 1.302-1.806 1.302-1.26 0-2.17-1.008-2.17-2.394 0-1.386.91-2.408 2.17-2.408.882 0 1.54.49 1.806 1.316l1.26-.42c-.434-1.302-1.54-2.156-3.066-2.156-2.114 0-3.542 1.666-3.542 3.668 0 1.974 1.4 3.654 3.542 3.654zm7.84 0c2.114 0 3.57-1.708 3.57-3.654 0-1.96-1.456-3.668-3.57-3.668-2.005-.04-3.512 1.623-3.569 3.481v.187c-.043 1.918 1.47 3.696 3.57 3.654zm0-1.26c-1.274 0-2.198-1.008-2.198-2.394 0-1.372.924-2.408 2.198-2.408 1.26 0 2.198 1.036 2.198 2.408 0 1.372-.938 2.394-2.198 2.394zm6.44 1.064v-3.836c0-1.218.686-1.988 1.596-1.988.406 0 .728.126.896.252l.532-1.204c-.266-.182-.7-.35-1.246-.35-.826 0-1.47.462-1.806 1.064l-.21-.868h-1.134v6.93h1.372zm7.056.182c1.078 0 1.876-.49 2.338-1.12l.182.938h1.134v-9.8h-1.372v3.766c-.462-.63-1.274-1.092-2.296-1.092-2.044 0-3.318 1.694-3.318 3.654-.028 1.876 1.4 3.696 3.332 3.654zm.168-1.232c-1.232 0-2.128-1.036-2.128-2.422 0-1.414.896-2.422 2.128-2.422 1.246 0 2.114 1.008 2.114 2.422 0 1.414-.868 2.422-2.114 2.422zm8.456 1.246c1.582 0 2.66-.812 3.066-1.974l-1.176-.378c-.224.658-.924 1.204-1.89 1.204-1.218 0-2.058-.966-2.142-2.086h5.39v-.546c0-2.1-1.302-3.528-3.262-3.528-1.946 0-3.458 1.61-3.458 3.64 0 2.058 1.442 3.668 3.472 3.668zm2.016-4.312h-4.144c.168-1.05.952-1.848 2.128-1.848 1.162 0 1.946.868 2.016 1.848zm5.74 4.298c1.078 0 1.876-.49 2.338-1.12l.182.938h1.134v-9.8h-1.372v3.766c-.462-.63-1.274-1.092-2.296-1.092-2.044 0-3.318 1.694-3.318 3.654-.028 1.876 1.4 3.696 3.332 3.654zm.168-1.232c-1.232 0-2.128-1.036-2.128-2.422 0-1.414.896-2.422 2.128-2.422 1.246 0 2.114 1.008 2.114 2.422 0 1.414-.868 2.422-2.114 2.422zm5.544 2.898c.728-.672 1.162-1.778 1.162-2.562 0-.686-.406-1.064-.952-1.064-.504 0-.924.406-.924.952 0 .434.252.728.686.882-.014.392-.266.924-.56 1.302l.588.49zm9.842-1.848l2.632-6.93h-1.4l-1.96 5.376-1.96-5.376h-1.414l2.646 6.93h1.456zm6.916.196c1.582 0 2.66-.812 3.066-1.974l-1.176-.378c-.224.658-.924 1.204-1.89 1.204-1.218 0-2.058-.966-2.142-2.086h5.39v-.546c0-2.1-1.302-3.528-3.262-3.528-1.946 0-3.458 1.61-3.458 3.64 0 2.058 1.442 3.668 3.472 3.668zm2.016-4.312h-4.144c.168-1.05.952-1.848 2.128-1.848 1.162 0 1.946.868 2.016 1.848zm4.102 4.116v-3.836c0-1.218.686-1.988 1.596-1.988.406 0 .728.126.896.252l.532-1.204c-.266-.182-.7-.35-1.246-.35-.826 0-1.47.462-1.806 1.064l-.21-.868h-1.134v6.93h1.372zm4.816-7.952c.49 0 .882-.392.882-.896 0-.49-.392-.896-.882-.896-.504 0-.91.406-.91.896 0 .504.406.896.91.896zm.672 7.952v-6.93h-1.372v6.93h1.372zm3.85 0v-5.698h1.89v-1.232h-1.89v-.994c0-.56.252-.84.742-.84.336 0 .574.154.672.266l.672-.938c-.224-.266-.714-.574-1.61-.574-1.078 0-1.848.756-1.848 1.932v1.148h-1.218v1.232h1.218v5.698h1.372zm3.878-7.952c.49 0 .882-.392.882-.896 0-.49-.392-.896-.882-.896-.504 0-.91.406-.91.896 0 .504.406.896.91.896zm.672 7.952v-6.93h-1.372v6.93h1.372zm5.04.196c1.582 0 2.66-.812 3.066-1.974l-1.176-.378c-.224.658-.924 1.204-1.89 1.204-1.218 0-2.058-.966-2.142-2.086h5.39v-.546c0-2.1-1.302-3.528-3.262-3.528-1.946 0-3.458 1.61-3.458 3.64 0 2.058 1.442 3.668 3.472 3.668zm2.016-4.312h-4.144c.168-1.05.952-1.848 2.128-1.848 1.162 0 1.946.868 2.016 1.848zm5.74 4.298c1.078 0 1.876-.49 2.338-1.12l.182.938h1.134v-9.8h-1.372v3.766c-.462-.63-1.274-1.092-2.296-1.092-2.044 0-3.318 1.694-3.318 3.654-.028 1.876 1.4 3.696 3.332 3.654zm.168-1.232c-1.232 0-2.128-1.036-2.128-2.422 0-1.414.896-2.422 2.128-2.422 1.246 0 2.114 1.008 2.114 2.422 0 1.414-.868 2.422-2.114 2.422zm11.298 1.246c.938 0 1.624-.294 2.044-.868l.14.672h1.162v-4.592c0-1.638-1.134-2.52-2.828-2.52-1.526 0-2.464.7-2.8 2.086l1.218.294c.126-.798.602-1.26 1.554-1.26.994 0 1.484.476 1.484 1.414v.154l-1.666.238c-1.946.28-2.702 1.078-2.702 2.268 0 1.218.952 2.114 2.394 2.114zm.336-1.134c-.854 0-1.4-.42-1.4-1.05 0-.686.49-.994 1.484-1.148l1.554-.238v.91c0 .994-.728 1.526-1.638 1.526zm6.062.938v-3.864c0-1.232.756-1.974 1.75-1.974.938 0 1.484.448 1.484 1.722v4.116h1.372v-4.354c0-1.862-.91-2.772-2.436-2.772-.938 0-1.666.364-2.198 1.078l-.21-.882h-1.134v6.93h1.372zm9.436.182c1.078 0 1.876-.49 2.338-1.12l.182.938h1.134v-9.8h-1.372v3.766c-.462-.63-1.274-1.092-2.296-1.092-2.044 0-3.318 1.694-3.318 3.654-.028 1.876 1.4 3.696 3.332 3.654zm.168-1.232c-1.232 0-2.128-1.036-2.128-2.422 0-1.414.896-2.422 2.128-2.422 1.246 0 2.114 1.008 2.114 2.422 0 1.414-.868 2.422-2.114 2.422zm-158.788 25.27c1.596.001 2.744-.895 2.744-2.141 0-1.288-.882-1.848-2.52-2.17-1.05-.182-1.54-.406-1.54-.952 0-.49.42-.882 1.316-.882.826 0 1.232.476 1.4 1.19l1.218-.35c-.28-1.274-1.218-2.002-2.618-2.002-.77 0-1.386.196-1.876.574-.49.392-.742.896-.742 1.526 0 1.288.966 1.806 2.604 2.1 1.162.21 1.456.532 1.456.98 0 .602-.588.966-1.442.966-.994 0-1.4-.532-1.624-1.316l-1.232.378c.378 1.358 1.358 2.1 2.856 2.1zm7.392.001c1.582 0 2.66-.812 3.066-1.974l-1.176-.378c-.224.658-.924 1.204-1.89 1.204-1.218 0-2.058-.966-2.142-2.086h5.39v-.546c0-2.1-1.302-3.528-3.262-3.528-1.946 0-3.458 1.61-3.458 3.64 0 2.058 1.442 3.668 3.472 3.668zm2.016-4.312h-4.144c.168-1.05.952-1.848 2.128-1.848 1.162 0 1.946.868 2.016 1.848zm5.18 4.312c.784 0 1.33-.28 1.568-.56l-.63-.98c-.182.182-.406.266-.672.266-.49 0-.728-.266-.728-.812v-3.808h1.876v-1.232h-1.876v-1.806h-1.372v1.806h-1.246v1.232h1.246v3.976c0 1.19.756 1.918 1.834 1.918zm5.222 0c.784 0 1.33-.28 1.568-.56l-.63-.98c-.182.182-.406.266-.672.266-.49 0-.728-.266-.728-.812v-3.808h1.876v-1.232h-1.876v-1.806h-1.372v1.806h-1.246v1.232h1.246v3.976c0 1.19.756 1.918 1.834 1.918zm4.144-.196v-9.8h-1.372v9.8h1.372zm4.97.196c1.582 0 2.66-.812 3.066-1.974l-1.176-.378c-.224.658-.924 1.204-1.89 1.204-1.218 0-2.058-.966-2.142-2.086h5.39v-.546c0-2.1-1.302-3.528-3.262-3.528-1.946 0-3.458 1.61-3.458 3.64 0 2.058 1.442 3.668 3.472 3.668zm2.016-4.312h-4.144c.168-1.05.952-1.848 2.128-1.848 1.162 0 1.946.868 2.016 1.848zm5.74 4.298c1.078 0 1.876-.49 2.338-1.12l.182.938h1.134v-9.8h-1.372v3.766c-.462-.63-1.274-1.092-2.296-1.092-2.044 0-3.318 1.694-3.318 3.654-.028 1.876 1.4 3.696 3.332 3.654zm.168-1.232c-1.232 0-2.128-1.036-2.128-2.422 0-1.414.896-2.422 2.128-2.422 1.246 0 2.114 1.008 2.114 2.422 0 1.414-.868 2.422-2.114 2.422zm9.996-6.902c.49 0 .882-.392.882-.896 0-.49-.392-.896-.882-.896-.504 0-.91.406-.91.896 0 .504.406.896.91.896zm.672 7.952v-6.93h-1.372v6.93h1.372zm3.262 0v-3.864c0-1.232.756-1.974 1.75-1.974.938 0 1.484.448 1.484 1.722v4.116h1.372v-4.354c0-1.862-.91-2.772-2.436-2.772-.938 0-1.666.364-2.198 1.078l-.21-.882h-1.134v6.93h1.372zm12.796.196c.784 0 1.33-.28 1.568-.56l-.63-.98c-.182.182-.406.266-.672.266-.49 0-.728-.266-.728-.812v-3.808h1.876v-1.232h-1.876v-1.806h-1.372v1.806h-1.246v1.232h1.246v3.976c0 1.19.756 1.918 1.834 1.918zm4.13-.196v-3.85c0-1.232.784-1.988 1.75-1.988.938 0 1.484.448 1.484 1.722v4.116h1.372v-4.354c0-1.862-.896-2.772-2.422-2.772-.938 0-1.666.35-2.184 1.036v-3.71h-1.358v9.8h1.358zm9.576.196c1.582 0 2.66-.812 3.066-1.974l-1.176-.378c-.224.658-.924 1.204-1.89 1.204-1.218 0-2.058-.966-2.142-2.086h5.39v-.546c0-2.1-1.302-3.528-3.262-3.528-1.946 0-3.458 1.61-3.458 3.64 0 2.058 1.442 3.668 3.472 3.668zm2.016-4.312h-4.144c.168-1.05.952-1.848 2.128-1.848 1.162 0 1.946.868 2.016 1.848zm8.022 4.116v-9.8h-1.372v9.8h1.372zm3.892.196c.938 0 1.624-.294 2.044-.868l.14.672h1.162v-4.592c0-1.638-1.134-2.52-2.828-2.52-1.526 0-2.464.7-2.8 2.086l1.218.294c.126-.798.602-1.26 1.554-1.26.994 0 1.484.476 1.484 1.414v.154l-1.666.238c-1.946.28-2.702 1.078-2.702 2.268 0 1.218.952 2.114 2.394 2.114zm.336-1.134c-.854 0-1.4-.42-1.4-1.05 0-.686.49-.994 1.484-1.148l1.554-.238v.91c0 .994-.728 1.526-1.638 1.526zm7.672 3.99c2.114 0 3.164-1.386 3.164-3.178v-6.804h-1.372v3.654c0 1.246-.756 1.988-1.82 1.988-.994 0-1.554-.49-1.554-1.764v-3.878h-1.372v4.186c0 1.834 1.036 2.73 2.506 2.73 1.05 0 1.68-.35 2.24-1.036v.952c0 1.232-.616 1.96-1.792 1.96-.924 0-1.484-.434-1.694-1.302l-1.288.28c.378 1.358 1.358 2.212 2.982 2.212zm8.134-2.856c1.582 0 2.66-.812 3.066-1.974l-1.176-.378c-.224.658-.924 1.204-1.89 1.204-1.218 0-2.058-.966-2.142-2.086h5.39v-.546c0-2.1-1.302-3.528-3.262-3.528-1.946 0-3.458 1.61-3.458 3.64 0 2.058 1.442 3.668 3.472 3.668zm2.016-4.312h-4.144c.168-1.05.952-1.848 2.128-1.848 1.162 0 1.946.868 2.016 1.848zm4.102 4.116v-3.836c0-1.218.686-1.988 1.596-1.988.406 0 .728.126.896.252l.532-1.204c-.266-.182-.7-.35-1.246-.35-.826 0-1.47.462-1.806 1.064l-.21-.868h-1.134v6.93h1.372zm14.28 0v-1.288h-4.452l2.282-2.016c.476-.406.868-.784 1.162-1.106.588-.658.994-1.484.994-2.534 0-1.764-1.414-3.052-3.276-3.052-1.764 0-3.234 1.19-3.318 2.996l1.302.378c0-1.246.854-2.086 2.016-2.086 1.106 0 1.876.77 1.876 1.778 0 .378-.07.714-.224 1.022-.294.616-.686 1.008-1.512 1.722l-3.276 2.884v1.302h6.426z"/>
                    <path fill="#2B2B2B" fill-rule="nonzero" d="M841.182 572.203c2.114 0 3.57-1.05 4.256-2.856l-1.33-.434c-.406 1.218-1.4 2.002-2.912 2.002-2.058 0-3.542-1.582-3.542-3.808 0-2.17 1.498-3.808 3.5-3.808 1.512 0 2.534.798 2.982 2.198l1.344-.448c-.63-1.918-2.226-3.038-4.34-3.038-2.786-.042-4.928 2.198-4.886 5.096 0 3.01 2.03 5.096 4.928 5.096zm9.086 0c2.114 0 3.57-1.708 3.57-3.654 0-1.96-1.456-3.668-3.57-3.668-2.072-.042-3.612 1.736-3.57 3.668-.042 1.918 1.47 3.696 3.57 3.654zm0-1.26c-1.274 0-2.198-1.008-2.198-2.394 0-1.372.924-2.408 2.198-2.408 1.26 0 2.198 1.036 2.198 2.408 0 1.372-.938 2.394-2.198 2.394zm6.44 1.064v-3.92c0-1.218.7-1.918 1.61-1.918.896 0 1.344.56 1.344 1.666v4.172h1.372v-3.92c0-1.218.686-1.918 1.596-1.918.882 0 1.358.448 1.358 1.666v4.172h1.372v-4.606c0-1.68-.91-2.52-2.254-2.52-1.008 0-1.806.448-2.31 1.134-.322-.672-.98-1.134-1.946-1.134-.952 0-1.694.406-2.184 1.078l-.196-.882h-1.134v6.93h1.372zm11.844 2.87v-3.766c.462.63 1.274 1.092 2.296 1.092 2.044 0 3.318-1.694 3.318-3.654.028-1.876-1.4-3.696-3.332-3.654-1.078 0-1.876.49-2.338 1.12l-.182-.938h-1.134v9.8h1.372zm2.114-3.906c-1.246 0-2.128-1.008-2.128-2.422 0-.7.196-1.274.602-1.736.392-.462.896-.686 1.526-.686 1.218 0 2.128 1.036 2.128 2.422 0 1.414-.91 2.422-2.128 2.422zm7.434 1.232c.938 0 1.666-.364 2.198-1.078l.21.882h1.134v-6.93h-1.372v3.878c0 1.232-.756 1.974-1.75 1.974-.938 0-1.484-.476-1.484-1.722v-4.13h-1.372v4.368c0 1.862.91 2.758 2.436 2.758zm7.812 0c.784 0 1.33-.28 1.568-.56l-.63-.98c-.182.182-.406.266-.672.266-.49 0-.728-.266-.728-.812v-3.808h1.876v-1.232h-1.876v-1.806h-1.372v1.806h-1.246v1.232h1.246v3.976c0 1.19.756 1.918 1.834 1.918zm4.844 0c.938 0 1.624-.294 2.044-.868l.14.672h1.162v-4.592c0-1.638-1.134-2.52-2.828-2.52-1.526 0-2.464.7-2.8 2.086l1.218.294c.126-.798.602-1.26 1.554-1.26.994 0 1.484.476 1.484 1.414v.154l-1.666.238c-1.946.28-2.702 1.078-2.702 2.268 0 1.218.952 2.114 2.394 2.114zm.336-1.134c-.854 0-1.4-.42-1.4-1.05 0-.686.49-.994 1.484-1.148l1.554-.238v.91c0 .994-.728 1.526-1.638 1.526zm7.14 1.134c.784 0 1.33-.28 1.568-.56l-.63-.98c-.182.182-.406.266-.672.266-.49 0-.728-.266-.728-.812v-3.808h1.876v-1.232h-1.876v-1.806h-1.372v1.806h-1.246v1.232h1.246v3.976c0 1.19.756 1.918 1.834 1.918zm3.542-8.148c.49 0 .882-.392.882-.896 0-.49-.392-.896-.882-.896-.504 0-.91.406-.91.896 0 .504.406.896.91.896zm.672 7.952v-6.93h-1.372v6.93h1.372zm5.138.196c2.114 0 3.57-1.708 3.57-3.654 0-1.96-1.456-3.668-3.57-3.668-2.072-.042-3.612 1.736-3.57 3.668-.042 1.918 1.47 3.696 3.57 3.654zm0-1.26c-1.274 0-2.198-1.008-2.198-2.394 0-1.372.924-2.408 2.198-2.408 1.26 0 2.198 1.036 2.198 2.408 0 1.372-.938 2.394-2.198 2.394zm6.44 1.064v-3.864c0-1.232.756-1.974 1.75-1.974.938 0 1.484.448 1.484 1.722v4.116h1.372v-4.354c0-1.862-.91-2.772-2.436-2.772-.938 0-1.666.364-2.198 1.078l-.21-.882h-1.134v6.93h1.372zm8.498.196c.938 0 1.624-.294 2.044-.868l.14.672h1.162v-4.592c0-1.638-1.134-2.52-2.828-2.52-1.526 0-2.464.7-2.8 2.086l1.218.294c.126-.798.602-1.26 1.554-1.26.994 0 1.484.476 1.484 1.414v.154l-1.666.238c-1.946.28-2.702 1.078-2.702 2.268 0 1.218.952 2.114 2.394 2.114zm.336-1.134c-.854 0-1.4-.42-1.4-1.05 0-.686.49-.994 1.484-1.148l1.554-.238v.91c0 .994-.728 1.526-1.638 1.526zm6.062.938v-9.8h-1.372v9.8h1.372zm6.51-7.952c.49 0 .882-.392.882-.896 0-.49-.392-.896-.882-.896-.504 0-.91.406-.91.896 0 .504.406.896.91.896zm.672 7.952v-6.93h-1.372v6.93h1.372zm3.262 0v-3.864c0-1.232.756-1.974 1.75-1.974.938 0 1.484.448 1.484 1.722v4.116h1.372v-4.354c0-1.862-.91-2.772-2.436-2.772-.938 0-1.666.364-2.198 1.078l-.21-.882h-1.134v6.93h1.372zm8.876.196c.784 0 1.33-.28 1.568-.56l-.63-.98c-.182.182-.406.266-.672.266-.49 0-.728-.266-.728-.812v-3.808h1.876v-1.232h-1.876v-1.806h-1.372v1.806h-1.246v1.232h1.246v3.976c0 1.19.756 1.918 1.834 1.918zm5.922 0c1.582 0 2.66-.812 3.066-1.974l-1.176-.378c-.224.658-.924 1.204-1.89 1.204-1.218 0-2.058-.966-2.142-2.086h5.39v-.546c0-2.1-1.302-3.528-3.262-3.528-1.946 0-3.458 1.61-3.458 3.64 0 2.058 1.442 3.668 3.472 3.668zm2.016-4.312h-4.144c.168-1.05.952-1.848 2.128-1.848 1.162 0 1.946.868 2.016 1.848zm5.852 7.168c2.31 0 3.472-1.386 3.472-3.178v-6.804h-1.148l-.224.91c-.434-.63-1.19-1.106-2.268-1.106-1.96 0-3.276 1.68-3.276 3.584 0 1.918 1.26 3.542 3.29 3.542 1.05 0 1.862-.504 2.254-1.134v1.036c0 1.246-.742 1.974-2.1 1.974-.994 0-1.61-.448-1.848-1.358l-1.288.308c.392 1.358 1.414 2.226 3.136 2.226zm.028-4.284c-1.246 0-2.1-.924-2.1-2.31 0-1.4.854-2.352 2.086-2.352 1.232 0 2.086.952 2.086 2.352 0 1.386-.854 2.31-2.072 2.31zm6.636 1.232v-3.836c0-1.218.686-1.988 1.596-1.988.406 0 .728.126.896.252l.532-1.204c-.266-.182-.7-.35-1.246-.35-.826 0-1.47.462-1.806 1.064l-.21-.868h-1.134v6.93h1.372zm4.816-7.952c.49 0 .882-.392.882-.896 0-.49-.392-.896-.882-.896-.504 0-.91.406-.91.896 0 .504.406.896.91.896zm.672 7.952v-6.93h-1.372v6.93h1.372zm4.34.196c.784 0 1.33-.28 1.568-.56l-.63-.98c-.182.182-.406.266-.672.266-.49 0-.728-.266-.728-.812v-3.808h1.876v-1.232h-1.876v-1.806h-1.372v1.806h-1.246v1.232h1.246v3.976c0 1.19.756 1.918 1.834 1.918zm5.754 2.856c2.114 0 3.164-1.386 3.164-3.178v-6.804h-1.372v3.654c0 1.246-.756 1.988-1.82 1.988-.994 0-1.554-.49-1.554-1.764v-3.878h-1.372v4.186c0 1.834 1.036 2.73 2.506 2.73 1.05 0 1.68-.35 2.24-1.036v.952c0 1.232-.616 1.96-1.792 1.96-.924 0-1.484-.434-1.694-1.302l-1.288.28c.378 1.358 1.358 2.212 2.982 2.212zm-144.634 21.17c2.114 0 3.57-1.709 3.57-3.655 0-1.96-1.456-3.668-3.57-3.668-2.005-.04-3.512 1.624-3.57 3.482v.186c-.042 1.918 1.47 3.696 3.57 3.654zm0-1.26c-1.274 0-2.198-1.009-2.198-2.395 0-1.372.924-2.408 2.198-2.408 1.26 0 2.198 1.036 2.198 2.408 0 1.372-.938 2.394-2.198 2.394zm7.028 1.063v-5.698h1.89v-1.232h-1.89v-.994c0-.56.252-.84.742-.84.336 0 .574.154.672.266l.672-.938c-.224-.266-.714-.574-1.61-.574-1.078 0-1.848.756-1.848 1.932v1.148h-1.218v1.232h1.218v5.698h1.372zm9.856 0v-9.8h-1.4c-.602.406-1.414.77-2.03.882v1.372c.63-.098 1.526-.392 2.03-.714v8.26h1.4zm9.716.182c1.932.042 3.36-1.778 3.332-3.654 0-1.96-1.274-3.654-3.318-3.654-1.022 0-1.834.462-2.296 1.092v-3.766h-1.372v9.8h1.134l.182-.938c.462.63 1.26 1.12 2.338 1.12zm-.168-1.232c-.63 0-1.134-.224-1.526-.686-.406-.462-.602-1.036-.602-1.736 0-1.414.882-2.422 2.128-2.422 1.218 0 2.128 1.008 2.128 2.422 0 1.386-.91 2.422-2.128 2.422zm7.07 1.246c.938 0 1.624-.294 2.044-.868l.14.672h1.162v-4.592c0-1.638-1.134-2.52-2.828-2.52-1.526 0-2.464.7-2.8 2.086l1.218.294c.126-.798.602-1.26 1.554-1.26.994 0 1.484.476 1.484 1.414v.154l-1.666.238c-1.946.28-2.702 1.078-2.702 2.268 0 1.218.952 2.114 2.394 2.114zm.336-1.134c-.854 0-1.4-.42-1.4-1.05 0-.686.49-.994 1.484-1.148l1.554-.238v.91c0 .994-.728 1.526-1.638 1.526zm7.14 1.134c.784 0 1.33-.28 1.568-.56l-.63-.98c-.182.182-.406.266-.672.266-.49 0-.728-.266-.728-.812v-3.808h1.876v-1.232h-1.876v-1.806h-1.372v1.806h-1.246v1.232h1.246v3.976c0 1.19.756 1.918 1.834 1.918zm5.992 0c1.47 0 2.562-.854 3.052-2.142l-1.246-.42c-.28.798-.952 1.302-1.806 1.302-1.26 0-2.17-1.008-2.17-2.394 0-1.386.91-2.408 2.17-2.408.882 0 1.54.49 1.806 1.316l1.26-.42c-.434-1.302-1.54-2.156-3.066-2.156-2.114 0-3.542 1.666-3.542 3.668 0 1.974 1.4 3.654 3.542 3.654zm5.95-.196v-3.85c0-1.232.784-1.988 1.75-1.988.938 0 1.484.448 1.484 1.722v4.116h1.372v-4.354c0-1.862-.896-2.772-2.422-2.772-.938 0-1.666.35-2.184 1.036v-3.71h-1.358v9.8h1.358zm6.664 1.848c.728-.672 1.162-1.778 1.162-2.562 0-.686-.406-1.064-.952-1.064-.504 0-.924.406-.924.952 0 .434.252.728.686.882-.014.392-.266.924-.56 1.302l.588.49zm9.646-1.652c1.47 0 2.562-.854 3.052-2.142l-1.246-.42c-.28.798-.952 1.302-1.806 1.302-1.26 0-2.17-1.008-2.17-2.394 0-1.386.91-2.408 2.17-2.408.882 0 1.54.49 1.806 1.316l1.26-.42c-.434-1.302-1.54-2.156-3.066-2.156-2.114 0-3.542 1.666-3.542 3.668 0 1.974 1.4 3.654 3.542 3.654zm7.84 0c2.114 0 3.57-1.708 3.57-3.654 0-1.96-1.456-3.668-3.57-3.668-2.005-.04-3.512 1.624-3.57 3.482v.186c-.042 1.918 1.47 3.696 3.57 3.654zm0-1.26c-1.274 0-2.198-1.008-2.198-2.394 0-1.372.924-2.408 2.198-2.408 1.26 0 2.198 1.036 2.198 2.408 0 1.372-.938 2.394-2.198 2.394zm6.44 1.064v-3.864c0-1.232.756-1.974 1.75-1.974.938 0 1.484.448 1.484 1.722v4.116h1.372v-4.354c0-1.862-.91-2.772-2.436-2.772-.938 0-1.666.364-2.198 1.078l-.21-.882h-1.134v6.93h1.372zm8.876.196c.784 0 1.33-.28 1.568-.56l-.63-.98c-.182.182-.406.266-.672.266-.49 0-.728-.266-.728-.812v-3.808h1.876v-1.232h-1.876v-1.806h-1.372v1.806h-1.246v1.232h1.246v3.976c0 1.19.756 1.918 1.834 1.918zm4.844 0c.938 0 1.624-.294 2.044-.868l.14.672h1.162v-4.592c0-1.638-1.134-2.52-2.828-2.52-1.526 0-2.464.7-2.8 2.086l1.218.294c.126-.798.602-1.26 1.554-1.26.994 0 1.484.476 1.484 1.414v.154l-1.666.238c-1.946.28-2.702 1.078-2.702 2.268 0 1.218.952 2.114 2.394 2.114zm.336-1.134c-.854 0-1.4-.42-1.4-1.05 0-.686.49-.994 1.484-1.148l1.554-.238v.91c0 .994-.728 1.526-1.638 1.526zm5.46-7.014c.49 0 .882-.392.882-.896 0-.49-.392-.896-.882-.896-.504 0-.91.406-.91.896 0 .504.406.896.91.896zm.672 7.952v-6.93h-1.372v6.93h1.372zm3.262 0v-3.864c0-1.232.756-1.974 1.75-1.974.938 0 1.484.448 1.484 1.722v4.116h1.372v-4.354c0-1.862-.91-2.772-2.436-2.772-.938 0-1.666.364-2.198 1.078l-.21-.882h-1.134v6.93h1.372zm7.196-7.952c.49 0 .882-.392.882-.896 0-.49-.392-.896-.882-.896-.504 0-.91.406-.91.896 0 .504.406.896.91.896zm.672 7.952v-6.93h-1.372v6.93h1.372zm3.262 0v-3.864c0-1.232.756-1.974 1.75-1.974.938 0 1.484.448 1.484 1.722v4.116h1.372v-4.354c0-1.862-.91-2.772-2.436-2.772-.938 0-1.666.364-2.198 1.078l-.21-.882h-1.134v6.93h1.372zm9.548 3.052c2.31 0 3.472-1.386 3.472-3.178v-6.804h-1.148l-.224.91c-.434-.63-1.19-1.106-2.268-1.106-1.96 0-3.276 1.68-3.276 3.584 0 1.918 1.26 3.542 3.29 3.542 1.05 0 1.862-.504 2.254-1.134v1.036c0 1.246-.742 1.974-2.1 1.974-.994 0-1.61-.448-1.848-1.358l-1.288.308c.392 1.358 1.414 2.226 3.136 2.226zm.028-4.284c-1.246 0-2.1-.924-2.1-2.31 0-1.4.854-2.352 2.086-2.352 1.232 0 2.086.952 2.086 2.352 0 1.386-.854 2.31-2.072 2.31zm-128.086 25.257v-9.8h-1.4c-.602.406-1.414.77-2.03.882v1.372c.63-.098 1.526-.392 2.03-.714v8.26h1.4zm2.604.098c.518 0 .938-.42.938-.938s-.42-.938-.938-.938-.938.42-.938.938.42.938.938.938zm5.614.098c2.436 0 3.584-2.226 3.584-5.138 0-2.87-1.19-5.054-3.598-5.054-2.436 0-3.612 2.184-3.612 5.054 0 1.526.308 2.758.91 3.71.602.952 1.512 1.428 2.716 1.428zm0-1.288c-.756 0-1.316-.35-1.68-1.064-.378-.7-.56-1.61-.56-2.744 0-1.12.182-2.03.56-2.744.364-.714.924-1.064 1.666-1.064.728 0 1.274.35 1.652 1.064.364.714.546 1.624.546 2.744 0 1.134-.182 2.058-.532 2.758-.364.7-.91 1.05-1.652 1.05zm8.442 1.288c2.436 0 3.584-2.226 3.584-5.138 0-2.87-1.19-5.054-3.598-5.054-2.436 0-3.612 2.184-3.612 5.054 0 1.526.308 2.758.91 3.71.602.952 1.512 1.428 2.716 1.428zm0-1.288c-.756 0-1.316-.35-1.68-1.064-.378-.7-.56-1.61-.56-2.744 0-1.12.182-2.03.56-2.744.364-.714.924-1.064 1.666-1.064.728 0 1.274.35 1.652 1.064.364.714.546 1.624.546 2.744 0 1.134-.182 2.058-.532 2.758-.364.7-.91 1.05-1.652 1.05zm8.442 1.288c2.436 0 3.584-2.226 3.584-5.138 0-2.87-1.19-5.054-3.598-5.054-2.436 0-3.612 2.184-3.612 5.054 0 1.526.308 2.758.91 3.71.602.952 1.512 1.428 2.716 1.428zm0-1.288c-.756 0-1.316-.35-1.68-1.064-.378-.7-.56-1.61-.56-2.744 0-1.12.182-2.03.56-2.744.364-.714.924-1.064 1.666-1.064.728 0 1.274.35 1.652 1.064.364.714.546 1.624.546 2.744 0 1.134-.182 2.058-.532 2.758-.364.7-.91 1.05-1.652 1.05zm11.48 1.288c.784 0 1.33-.28 1.568-.56l-.63-.98c-.182.182-.406.266-.672.266-.49 0-.728-.266-.728-.812v-3.808h1.876v-1.232h-1.876v-1.806h-1.372v1.806h-1.246v1.232h1.246v3.976c0 1.19.756 1.918 1.834 1.918zm4.144-.196v-3.836c0-1.218.686-1.988 1.596-1.988.406 0 .728.126.896.252l.532-1.204c-.266-.182-.7-.35-1.246-.35-.826 0-1.47.462-1.806 1.064l-.21-.868h-1.134v6.93h1.372zm6.118.196c.938 0 1.624-.294 2.044-.868l.14.672h1.162v-4.592c0-1.638-1.134-2.52-2.828-2.52-1.526 0-2.464.7-2.8 2.086l1.218.294c.126-.798.602-1.26 1.554-1.26.994 0 1.484.476 1.484 1.414v.154l-1.666.238c-1.946.28-2.702 1.078-2.702 2.268 0 1.218.952 2.114 2.394 2.114zm.336-1.134c-.854 0-1.4-.42-1.4-1.05 0-.686.49-.994 1.484-1.148l1.554-.238v.91c0 .994-.728 1.526-1.638 1.526zm6.062.938v-3.864c0-1.232.756-1.974 1.75-1.974.938 0 1.484.448 1.484 1.722v4.116h1.372v-4.354c0-1.862-.91-2.772-2.436-2.772-.938 0-1.666.364-2.198 1.078l-.21-.882h-1.134v6.93h1.372zm8.96.196c1.596 0 2.744-.896 2.744-2.142 0-1.288-.882-1.848-2.52-2.17-1.05-.182-1.54-.406-1.54-.952 0-.49.42-.882 1.316-.882.826 0 1.232.476 1.4 1.19l1.218-.35c-.28-1.274-1.218-2.002-2.618-2.002-.77 0-1.386.196-1.876.574-.49.392-.742.896-.742 1.526 0 1.288.966 1.806 2.604 2.1 1.162.21 1.456.532 1.456.98 0 .602-.588.966-1.442.966-.994 0-1.4-.532-1.624-1.316l-1.232.378c.378 1.358 1.358 2.1 2.856 2.1zm6.314 0c.938 0 1.624-.294 2.044-.868l.14.672h1.162v-4.592c0-1.638-1.134-2.52-2.828-2.52-1.526 0-2.464.7-2.8 2.086l1.218.294c.126-.798.602-1.26 1.554-1.26.994 0 1.484.476 1.484 1.414v.154l-1.666.238c-1.946.28-2.702 1.078-2.702 2.268 0 1.218.952 2.114 2.394 2.114zm.336-1.134c-.854 0-1.4-.42-1.4-1.05 0-.686.49-.994 1.484-1.148l1.554-.238v.91c0 .994-.728 1.526-1.638 1.526zm7.91 1.134c1.47 0 2.562-.854 3.052-2.142l-1.246-.42c-.28.798-.952 1.302-1.806 1.302-1.26 0-2.17-1.008-2.17-2.394 0-1.386.91-2.408 2.17-2.408.882 0 1.54.49 1.806 1.316l1.26-.42c-.434-1.302-1.54-2.156-3.066-2.156-2.114 0-3.542 1.666-3.542 3.668 0 1.974 1.4 3.654 3.542 3.654zm7.042 0c.784 0 1.33-.28 1.568-.56l-.63-.98c-.182.182-.406.266-.672.266-.49 0-.728-.266-.728-.812v-3.808h1.876v-1.232h-1.876v-1.806h-1.372v1.806h-1.246v1.232h1.246v3.976c0 1.19.756 1.918 1.834 1.918zm3.542-8.148c.49 0 .882-.392.882-.896 0-.49-.392-.896-.882-.896-.504 0-.91.406-.91.896 0 .504.406.896.91.896zm.672 7.952v-6.93h-1.372v6.93h1.372zm5.138.196c2.114 0 3.57-1.708 3.57-3.654 0-1.96-1.456-3.668-3.57-3.668-2.072-.042-3.612 1.736-3.57 3.668-.042 1.918 1.47 3.696 3.57 3.654zm0-1.26c-1.274 0-2.198-1.008-2.198-2.394 0-1.372.924-2.408 2.198-2.408 1.26 0 2.198 1.036 2.198 2.408 0 1.372-.938 2.394-2.198 2.394zm6.44 1.064v-3.864c0-1.232.756-1.974 1.75-1.974.938 0 1.484.448 1.484 1.722v4.116h1.372v-4.354c0-1.862-.91-2.772-2.436-2.772-.938 0-1.666.364-2.198 1.078l-.21-.882h-1.134v6.93h1.372zm8.96.196c1.596 0 2.744-.896 2.744-2.142 0-1.288-.882-1.848-2.52-2.17-1.05-.182-1.54-.406-1.54-.952 0-.49.42-.882 1.316-.882.826 0 1.232.476 1.4 1.19l1.218-.35c-.28-1.274-1.218-2.002-2.618-2.002-.77 0-1.386.196-1.876.574-.49.392-.742.896-.742 1.526 0 1.288.966 1.806 2.604 2.1 1.162.21 1.456.532 1.456.98 0 .602-.588.966-1.442.966-.994 0-1.4-.532-1.624-1.316l-1.232.378c.378 1.358 1.358 2.1 2.856 2.1zm8.932-8.148c.49 0 .882-.392.882-.896 0-.49-.392-.896-.882-.896-.504 0-.91.406-.91.896 0 .504.406.896.91.896zm.672 7.952v-6.93h-1.372v6.93h1.372zm4.424.196c1.596 0 2.744-.896 2.744-2.142 0-1.288-.882-1.848-2.52-2.17-1.05-.182-1.54-.406-1.54-.952 0-.49.42-.882 1.316-.882.826 0 1.232.476 1.4 1.19l1.218-.35c-.28-1.274-1.218-2.002-2.618-2.002-.77 0-1.386.196-1.876.574-.49.392-.742.896-.742 1.526 0 1.288.966 1.806 2.604 2.1 1.162.21 1.456.532 1.456.98 0 .602-.588.966-1.442.966-.994 0-1.4-.532-1.624-1.316l-1.232.378c.378 1.358 1.358 2.1 2.856 2.1zm-124.04 26.7v-3.767c.462.63 1.274 1.092 2.296 1.092 2.044 0 3.318-1.694 3.318-3.654.028-1.876-1.4-3.696-3.332-3.654-1.078 0-1.876.49-2.338 1.12l-.182-.938h-1.134v9.8h1.372zm2.114-3.907c-1.246 0-2.128-1.008-2.128-2.422 0-.7.196-1.274.602-1.736.392-.462.896-.686 1.526-.686 1.218 0 2.128 1.036 2.128 2.422 0 1.414-.91 2.422-2.128 2.422zm6.37 1.036v-3.836c0-1.218.686-1.988 1.596-1.988.406 0 .728.126.896.252l.532-1.204c-.266-.182-.7-.35-1.246-.35-.826 0-1.47.462-1.806 1.064l-.21-.868h-1.134v6.93h1.372zm7.294.196c2.114 0 3.57-1.708 3.57-3.654 0-1.96-1.456-3.668-3.57-3.668-2.005-.04-3.512 1.624-3.57 3.482v.186c-.042 1.918 1.47 3.696 3.57 3.654zm0-1.26c-1.274 0-2.198-1.008-2.198-2.394 0-1.372.924-2.408 2.198-2.408 1.26 0 2.198 1.036 2.198 2.408 0 1.372-.938 2.394-2.198 2.394zm8.484 1.064l2.632-6.93h-1.4l-1.96 5.376-1.96-5.376h-1.414l2.646 6.93h1.456zm6.916.196c1.582 0 2.66-.812 3.066-1.974l-1.176-.378c-.224.658-.924 1.204-1.89 1.204-1.218 0-2.058-.966-2.142-2.086h5.39v-.546c0-2.1-1.302-3.528-3.262-3.528-1.946 0-3.458 1.61-3.458 3.64 0 2.058 1.442 3.668 3.472 3.668zm2.016-4.312h-4.144c.168-1.05.952-1.848 2.128-1.848 1.162 0 1.946.868 2.016 1.848zm4.102 4.116v-3.864c0-1.232.756-1.974 1.75-1.974.938 0 1.484.448 1.484 1.722v4.116h1.372v-4.354c0-1.862-.91-2.772-2.436-2.772-.938 0-1.666.364-2.198 1.078l-.21-.882h-1.134v6.93h1.372zm11.116-7.952c.49 0 .882-.392.882-.896 0-.49-.392-.896-.882-.896-.504 0-.91.406-.91.896 0 .504.406.896.91.896zm.672 7.952v-6.93h-1.372v6.93h1.372zm3.262 0v-3.864c0-1.232.756-1.974 1.75-1.974.938 0 1.484.448 1.484 1.722v4.116h1.372v-4.354c0-1.862-.91-2.772-2.436-2.772-.938 0-1.666.364-2.198 1.078l-.21-.882h-1.134v6.93h1.372zm13.174 0v-9.8h-1.4c-.602.406-1.414.77-2.03.882v1.372c.63-.098 1.526-.392 2.03-.714v8.26h1.4zm8.512.196c.784 0 1.33-.28 1.568-.56l-.63-.98c-.182.182-.406.266-.672.266-.49 0-.728-.266-.728-.812v-3.808h1.876v-1.232h-1.876v-1.806h-1.372v1.806h-1.246v1.232h1.246v3.976c0 1.19.756 1.918 1.834 1.918zm4.144-.196v-3.836c0-1.218.686-1.988 1.596-1.988.406 0 .728.126.896.252l.532-1.204c-.266-.182-.7-.35-1.246-.35-.826 0-1.47.462-1.806 1.064l-.21-.868h-1.134v6.93h1.372zm6.118.196c.938 0 1.624-.294 2.044-.868l.14.672h1.162v-4.592c0-1.638-1.134-2.52-2.828-2.52-1.526 0-2.464.7-2.8 2.086l1.218.294c.126-.798.602-1.26 1.554-1.26.994 0 1.484.476 1.484 1.414v.154l-1.666.238c-1.946.28-2.702 1.078-2.702 2.268 0 1.218.952 2.114 2.394 2.114zm.336-1.134c-.854 0-1.4-.42-1.4-1.05 0-.686.49-.994 1.484-1.148l1.554-.238v.91c0 .994-.728 1.526-1.638 1.526zm6.062.938v-3.864c0-1.232.756-1.974 1.75-1.974.938 0 1.484.448 1.484 1.722v4.116h1.372v-4.354c0-1.862-.91-2.772-2.436-2.772-.938 0-1.666.364-2.198 1.078l-.21-.882h-1.134v6.93h1.372zm8.96.196c1.596 0 2.744-.896 2.744-2.142 0-1.288-.882-1.848-2.52-2.17-1.05-.182-1.54-.406-1.54-.952 0-.49.42-.882 1.316-.882.826 0 1.232.476 1.4 1.19l1.218-.35c-.28-1.274-1.218-2.002-2.618-2.002-.77 0-1.386.196-1.876.574-.49.392-.742.896-.742 1.526 0 1.288.966 1.806 2.604 2.1 1.162.21 1.456.532 1.456.98 0 .602-.588.966-1.442.966-.994 0-1.4-.532-1.624-1.316l-1.232.378c.378 1.358 1.358 2.1 2.856 2.1zm6.314 0c.938 0 1.624-.294 2.044-.868l.14.672h1.162v-4.592c0-1.638-1.134-2.52-2.828-2.52-1.526 0-2.464.7-2.8 2.086l1.218.294c.126-.798.602-1.26 1.554-1.26.994 0 1.484.476 1.484 1.414v.154l-1.666.238c-1.946.28-2.702 1.078-2.702 2.268 0 1.218.952 2.114 2.394 2.114zm.336-1.134c-.854 0-1.4-.42-1.4-1.05 0-.686.49-.994 1.484-1.148l1.554-.238v.91c0 .994-.728 1.526-1.638 1.526zm7.91 1.134c1.47 0 2.562-.854 3.052-2.142l-1.246-.42c-.28.798-.952 1.302-1.806 1.302-1.26 0-2.17-1.008-2.17-2.394 0-1.386.91-2.408 2.17-2.408.882 0 1.54.49 1.806 1.316l1.26-.42c-.434-1.302-1.54-2.156-3.066-2.156-2.114 0-3.542 1.666-3.542 3.668 0 1.974 1.4 3.654 3.542 3.654zm7.042 0c.784 0 1.33-.28 1.568-.56l-.63-.98c-.182.182-.406.266-.672.266-.49 0-.728-.266-.728-.812v-3.808h1.876v-1.232h-1.876v-1.806h-1.372v1.806h-1.246v1.232h1.246v3.976c0 1.19.756 1.918 1.834 1.918zm3.542-8.148c.49 0 .882-.392.882-.896 0-.49-.392-.896-.882-.896-.504 0-.91.406-.91.896 0 .504.406.896.91.896zm.672 7.952v-6.93h-1.372v6.93h1.372zm5.138.196c2.114 0 3.57-1.708 3.57-3.654 0-1.96-1.456-3.668-3.57-3.668-2.072-.042-3.612 1.736-3.57 3.668-.042 1.918 1.47 3.696 3.57 3.654zm0-1.26c-1.274 0-2.198-1.008-2.198-2.394 0-1.372.924-2.408 2.198-2.408 1.26 0 2.198 1.036 2.198 2.408 0 1.372-.938 2.394-2.198 2.394zm6.44 1.064v-3.864c0-1.232.756-1.974 1.75-1.974.938 0 1.484.448 1.484 1.722v4.116h1.372v-4.354c0-1.862-.91-2.772-2.436-2.772-.938 0-1.666.364-2.198 1.078l-.21-.882h-1.134v6.93h1.372zm-135.968 24.221c.784 0 1.33-.28 1.568-.56l-.63-.98c-.182.182-.406.266-.672.266-.49 0-.728-.266-.728-.812v-3.808h1.876v-1.232h-1.876v-1.806h-1.372v1.806h-1.246v1.232h1.246v3.976c0 1.19.756 1.918 1.834 1.918zm6.02 0c2.114 0 3.57-1.708 3.57-3.654 0-1.96-1.456-3.668-3.57-3.668-2.005-.04-3.512 1.624-3.57 3.482v.186c-.042 1.918 1.47 3.696 3.57 3.654zm0-1.26c-1.274 0-2.198-1.008-2.198-2.394 0-1.372.924-2.408 2.198-2.408 1.26 0 2.198 1.036 2.198 2.408 0 1.372-.938 2.394-2.198 2.394zm11.438 1.26c.784 0 1.33-.28 1.568-.56l-.63-.98c-.182.182-.406.266-.672.266-.49 0-.728-.266-.728-.812v-3.808h1.876v-1.232h-1.876v-1.806h-1.372v1.806h-1.246v1.232h1.246v3.976c0 1.19.756 1.918 1.834 1.918zm4.13-.196v-3.85c0-1.232.784-1.988 1.75-1.988.938 0 1.484.448 1.484 1.722v4.116h1.372v-4.354c0-1.862-.896-2.772-2.422-2.772-.938 0-1.666.35-2.184 1.036v-3.71h-1.358v9.8h1.358zm9.576.196c1.582 0 2.66-.812 3.066-1.974l-1.176-.378c-.224.658-.924 1.204-1.89 1.204-1.218 0-2.058-.966-2.142-2.086h5.39v-.546c0-2.1-1.302-3.528-3.262-3.528-1.946 0-3.458 1.61-3.458 3.64 0 2.058 1.442 3.668 3.472 3.668zm2.016-4.312h-4.144c.168-1.05.952-1.848 2.128-1.848 1.162 0 1.946.868 2.016 1.848zm8.022 4.116v-9.8h-1.372v9.8h1.372zm3.892.196c.938 0 1.624-.294 2.044-.868l.14.672h1.162v-4.592c0-1.638-1.134-2.52-2.828-2.52-1.526 0-2.464.7-2.8 2.086l1.218.294c.126-.798.602-1.26 1.554-1.26.994 0 1.484.476 1.484 1.414v.154l-1.666.238c-1.946.28-2.702 1.078-2.702 2.268 0 1.218.952 2.114 2.394 2.114zm.336-1.134c-.854 0-1.4-.42-1.4-1.05 0-.686.49-.994 1.484-1.148l1.554-.238v.91c0 .994-.728 1.526-1.638 1.526zm7.672 3.99c2.114 0 3.164-1.386 3.164-3.178v-6.804h-1.372v3.654c0 1.246-.756 1.988-1.82 1.988-.994 0-1.554-.49-1.554-1.764v-3.878h-1.372v4.186c0 1.834 1.036 2.73 2.506 2.73 1.05 0 1.68-.35 2.24-1.036v.952c0 1.232-.616 1.96-1.792 1.96-.924 0-1.484-.434-1.694-1.302l-1.288.28c.378 1.358 1.358 2.212 2.982 2.212zm8.134-2.856c1.582 0 2.66-.812 3.066-1.974l-1.176-.378c-.224.658-.924 1.204-1.89 1.204-1.218 0-2.058-.966-2.142-2.086h5.39v-.546c0-2.1-1.302-3.528-3.262-3.528-1.946 0-3.458 1.61-3.458 3.64 0 2.058 1.442 3.668 3.472 3.668zm2.016-4.312h-4.144c.168-1.05.952-1.848 2.128-1.848 1.162 0 1.946.868 2.016 1.848zm4.102 4.116v-3.836c0-1.218.686-1.988 1.596-1.988.406 0 .728.126.896.252l.532-1.204c-.266-.182-.7-.35-1.246-.35-.826 0-1.47.462-1.806 1.064l-.21-.868h-1.134v6.93h1.372zm10.794 0v-9.8h-1.4c-.602.406-1.414.77-2.03.882v1.372c.63-.098 1.526-.392 2.03-.714v8.26h1.4zM482.72 573.206l3.626-9.8h-1.834l-2.716 7.56-2.73-7.56h-1.834l3.626 9.8h1.862zm6.776.196c.91 0 1.554-.28 1.946-.826l.182.63h1.414v-4.592c0-.854-.28-1.512-.826-1.946-.546-.434-1.246-.644-2.086-.644-1.638 0-2.534.7-2.926 2.114l1.484.364c.112-.742.532-1.134 1.386-1.134.854 0 1.288.42 1.288 1.274v.084l-1.498.21c-2.058.28-2.758 1.134-2.758 2.31 0 1.302 1.078 2.156 2.394 2.156zm.448-1.358c-.77 0-1.232-.35-1.232-.896 0-.574.378-.868 1.26-.994l1.386-.21v.812c0 .798-.616 1.288-1.414 1.288zm6.314 1.162v-9.8h-1.68v9.8h1.68zm2.548-7.938c.546 0 1.008-.448 1.008-.994s-.462-.994-1.008-.994-.98.448-.98.994.434.994.98.994zm.868 7.938v-6.986h-1.68v6.986h1.68zm4.816.196c1.05 0 1.792-.476 2.226-1.05l.224.854h1.386v-9.8h-1.68v3.598c-.434-.56-1.176-.98-2.17-.98-1.946 0-3.374 1.624-3.374 3.682 0 2.03 1.47 3.696 3.388 3.696zm.238-1.512c-1.106 0-1.946-.924-1.946-2.184 0-1.246.84-2.17 1.946-2.17 1.12 0 1.932.896 1.932 2.17s-.812 2.184-1.932 2.184zm6.146-6.622c.546 0 1.008-.448 1.008-.994s-.462-.994-1.008-.994-.98.448-.98.994.434.994.98.994zm.868 7.938v-6.986h-1.68v6.986h1.68zm4.354.196c.854 0 1.442-.294 1.708-.616l-.7-1.19c-.182.154-.392.238-.644.238-.434 0-.658-.252-.658-.742v-3.402h1.778v-1.47h-1.778v-1.82h-1.68v1.82h-1.204v1.47h1.204v3.64c0 1.33.84 2.072 1.974 2.072zm5.824 2.8c2.086 0 3.332-1.288 3.332-3.262v-6.72h-1.68v3.57c0 1.134-.644 1.778-1.596 1.778-.896 0-1.4-.462-1.4-1.652v-3.696h-1.68v3.976c0 1.974.966 2.94 2.548 2.94.994 0 1.596-.336 2.114-.966l.014.042v.742c0 1.162-.63 1.806-1.652 1.806-.84 0-1.33-.364-1.484-1.106l-1.568.322c.35 1.344 1.372 2.226 3.052 2.226zm-35.602 17.826v-3.556h1.876c1.722 0 3.262-1.064 3.262-3.136 0-1.036-.322-1.82-.952-2.338-.63-.518-1.428-.77-2.394-.77h-3.5v9.8h1.708zm1.666-5.096h-1.666v-3.164h1.652c1.162 0 1.778.616 1.778 1.568 0 .952-.588 1.596-1.764 1.596zm6.538 5.096v-3.808c0-1.12.63-1.806 1.47-1.806.378 0 .672.112.84.238l.602-1.47c-.266-.182-.686-.336-1.204-.336-.826 0-1.428.434-1.764 1.008l-.238-.812h-1.386v6.986h1.68zm7.168.196c2.072 0 3.64-1.638 3.64-3.696 0-2.058-1.568-3.682-3.64-3.682-2.044-.028-3.668 1.652-3.626 3.682 0 2.058 1.54 3.696 3.626 3.696zm0-1.554c-1.134 0-1.946-.896-1.946-2.142 0-1.232.812-2.128 1.946-2.128.56 0 1.022.196 1.4.602.378.406.56.91.56 1.526s-.182 1.12-.56 1.526c-.378.406-.84.616-1.4.616zm8.33 1.554c2.072 0 3.64-1.638 3.64-3.696 0-2.058-1.568-3.682-3.64-3.682-2.044-.028-3.668 1.652-3.626 3.682 0 2.058 1.54 3.696 3.626 3.696zm0-1.554c-1.134 0-1.946-.896-1.946-2.142 0-1.232.812-2.128 1.946-2.128.56 0 1.022.196 1.4.602.378.406.56.91.56 1.526s-.182 1.12-.56 1.526c-.378.406-.84.616-1.4.616zm7.336 1.358v-5.516h1.778v-1.47h-1.778v-.756c0-.49.21-.742.644-.742.252 0 .476.084.658.238l.728-1.162c-.294-.294-.826-.602-1.736-.602-1.12 0-1.974.784-1.974 2.072v.952h-1.204v1.47h1.204v5.516h1.68zM805.907 612.842l7.207 3.603-7.207 3.604v-3.209l-.054.006h-.8c-.222 0-.401-.18-.401-.4 0-.197.141-.36.328-.395l.072-.006h.801l.054.005v-3.208zm-148.208 3.203c.22 0 .4.18.4.4 0 .197-.142.36-.328.394l-.072.007h-.801c-.221 0-.4-.18-.4-.4 0-.197.141-.36.328-.395l.072-.006h.8zm4.004 0c.221 0 .4.18.4.4 0 .197-.141.36-.328.394l-.072.007h-.801c-.221 0-.4-.18-.4-.4 0-.197.141-.36.328-.395l.072-.006h.8zm4.004 0c.221 0 .4.18.4.4 0 .197-.141.36-.328.394l-.072.007h-.8c-.222 0-.401-.18-.401-.4 0-.197.141-.36.328-.395l.072-.006h.801zm4.004 0c.221 0 .4.18.4.4 0 .197-.141.36-.328.394l-.072.007h-.8c-.222 0-.401-.18-.401-.4 0-.197.142-.36.328-.395l.072-.006h.801zm4.004 0c.221 0 .4.18.4.4 0 .197-.14.36-.328.394l-.072.007h-.8c-.222 0-.4-.18-.4-.4 0-.197.14-.36.328-.395l.071-.006h.801zm4.004 0c.222 0 .4.18.4.4 0 .197-.14.36-.328.394l-.072.007h-.8c-.221 0-.4-.18-.4-.4 0-.197.14-.36.328-.395l.072-.006h.8zm4.005 0c.22 0 .4.18.4.4 0 .197-.142.36-.328.394l-.072.007h-.801c-.221 0-.4-.18-.4-.4 0-.197.141-.36.328-.395l.072-.006h.8zm4.004 0c.221 0 .4.18.4.4 0 .197-.141.36-.328.394l-.072.007h-.801c-.221 0-.4-.18-.4-.4 0-.197.141-.36.328-.395l.072-.006h.8zm4.004 0c.221 0 .4.18.4.4 0 .197-.141.36-.328.394l-.072.007h-.8c-.222 0-.401-.18-.401-.4 0-.197.141-.36.328-.395l.072-.006h.801zm4.004 0c.221 0 .4.18.4.4 0 .197-.141.36-.328.394l-.072.007h-.8c-.222 0-.401-.18-.401-.4 0-.197.142-.36.328-.395l.072-.006h.801zm4.004 0c.221 0 .4.18.4.4 0 .197-.14.36-.328.394l-.072.007h-.8c-.222 0-.4-.18-.4-.4 0-.197.14-.36.328-.395l.072-.006h.8zm4.005 0c.22 0 .4.18.4.4 0 .197-.142.36-.328.394l-.072.007h-.801c-.221 0-.4-.18-.4-.4 0-.197.14-.36.328-.395l.072-.006h.8zm4.004 0c.22 0 .4.18.4.4 0 .197-.142.36-.328.394l-.072.007h-.801c-.221 0-.4-.18-.4-.4 0-.197.141-.36.328-.395l.072-.006h.8zm4.004 0c.221 0 .4.18.4.4 0 .197-.141.36-.328.394l-.072.007h-.801c-.221 0-.4-.18-.4-.4 0-.197.141-.36.328-.395l.072-.006h.8zm4.004 0c.221 0 .4.18.4.4 0 .197-.141.36-.328.394l-.072.007h-.8c-.222 0-.401-.18-.401-.4 0-.197.141-.36.328-.395l.072-.006h.801zm4.004 0c.221 0 .4.18.4.4 0 .197-.141.36-.328.394l-.072.007h-.8c-.222 0-.401-.18-.401-.4 0-.197.142-.36.328-.395l.072-.006h.801zm4.004 0c.222 0 .4.18.4.4 0 .197-.14.36-.328.394l-.072.007h-.8c-.222 0-.4-.18-.4-.4 0-.197.14-.36.328-.395l.072-.006h.8zm4.005 0c.22 0 .4.18.4.4 0 .197-.142.36-.328.394l-.072.007h-.801c-.221 0-.4-.18-.4-.4 0-.197.14-.36.328-.395l.072-.006h.8zm4.004 0c.22 0 .4.18.4.4 0 .197-.142.36-.328.394l-.072.007h-.801c-.221 0-.4-.18-.4-.4 0-.197.141-.36.328-.395l.072-.006h.8zm4.004 0c.221 0 .4.18.4.4 0 .197-.141.36-.328.394l-.072.007h-.8c-.222 0-.401-.18-.401-.4 0-.197.141-.36.328-.395l.072-.006h.8zm4.004 0c.221 0 .4.18.4.4 0 .197-.141.36-.328.394l-.072.007h-.8c-.222 0-.401-.18-.401-.4 0-.197.141-.36.328-.395l.072-.006h.801zm4.004 0c.221 0 .4.18.4.4 0 .197-.141.36-.328.394l-.072.007h-.8c-.222 0-.401-.18-.401-.4 0-.197.142-.36.328-.395l.072-.006h.801zm4.004 0c.222 0 .4.18.4.4 0 .197-.14.36-.328.394l-.072.007h-.8c-.222 0-.4-.18-.4-.4 0-.197.14-.36.328-.395l.072-.006h.8zm4.005 0c.22 0 .4.18.4.4 0 .197-.142.36-.328.394l-.072.007h-.801c-.221 0-.4-.18-.4-.4 0-.197.141-.36.328-.395l.072-.006h.8zm4.004 0c.22 0 .4.18.4.4 0 .197-.141.36-.328.394l-.072.007h-.801c-.221 0-.4-.18-.4-.4 0-.197.141-.36.328-.395l.072-.006h.8zm4.004 0c.221 0 .4.18.4.4 0 .197-.141.36-.328.394l-.072.007h-.8c-.222 0-.401-.18-.401-.4 0-.197.141-.36.328-.395l.072-.006h.8zm4.004 0c.221 0 .4.18.4.4 0 .197-.141.36-.328.394l-.072.007h-.8c-.222 0-.401-.18-.401-.4 0-.197.141-.36.328-.395l.072-.006h.801zm4.004 0c.221 0 .4.18.4.4 0 .197-.141.36-.328.394l-.072.007h-.8c-.222 0-.401-.18-.401-.4 0-.197.142-.36.328-.395l.072-.006h.801zm4.004 0c.222 0 .4.18.4.4 0 .197-.14.36-.328.394l-.072.007h-.8c-.222 0-.4-.18-.4-.4 0-.197.14-.36.328-.395l.072-.006h.8zm4.005 0c.22 0 .4.18.4.4 0 .197-.142.36-.328.394l-.072.007h-.801c-.221 0-.4-.18-.4-.4 0-.197.141-.36.328-.395l.072-.006h.8zm4.004 0c.22 0 .4.18.4.4 0 .197-.141.36-.328.394l-.072.007h-.801c-.221 0-.4-.18-.4-.4 0-.197.141-.36.328-.395l.072-.006h.8zm4.004 0c.221 0 .4.18.4.4 0 .197-.141.36-.328.394l-.072.007h-.8c-.222 0-.401-.18-.401-.4 0-.197.141-.36.328-.395l.072-.006h.8zm4.004 0c.221 0 .4.18.4.4 0 .197-.141.36-.328.394l-.072.007h-.8c-.222 0-.401-.18-.401-.4 0-.197.142-.36.328-.395l.072-.006h.801zm4.004 0c.221 0 .4.18.4.4 0 .197-.14.36-.328.394l-.072.007h-.8c-.222 0-.401-.18-.401-.4 0-.197.142-.36.328-.395l.072-.006h.801zm4.004 0c.222 0 .4.18.4.4 0 .197-.14.36-.328.394l-.072.007h-.8c-.222 0-.4-.18-.4-.4 0-.197.14-.36.328-.395l.072-.006h.8zm4.005 0c.22 0 .4.18.4.4 0 .197-.142.36-.328.394l-.072.007h-.801c-.221 0-.4-.18-.4-.4 0-.197.141-.36.328-.395l.072-.006h.8zm4.004 0c.22 0 .4.18.4.4 0 .197-.141.36-.328.394l-.072.007h-.801c-.221 0-.4-.18-.4-.4 0-.197.141-.36.328-.395l.072-.006h.8zM805.157 205.62l8 4.001-8 4.003v-8.005zm-190.504 3.601c.22 0 .4.18.4.4 0 .194-.137.355-.32.393l-.08.008h-1c-.221 0-.4-.18-.4-.4 0-.194.137-.355.32-.393l.08-.008h1zm4.203 0c.221 0 .4.18.4.4 0 .194-.137.355-.32.393l-.08.008h-1c-.221 0-.4-.18-.4-.4 0-.194.137-.355.32-.393l.08-.008h1zm4.203 0c.222 0 .4.18.4.4 0 .194-.136.355-.319.393l-.08.008h-1c-.222 0-.401-.18-.401-.4 0-.194.137-.355.32-.393l.08-.008h1zm4.204 0c.22 0 .4.18.4.4 0 .194-.137.355-.32.393l-.08.008h-1c-.221 0-.4-.18-.4-.4 0-.194.137-.355.32-.393l.08-.008h1zm4.203 0c.221 0 .4.18.4.4 0 .194-.137.355-.32.393l-.08.008h-1c-.221 0-.4-.18-.4-.4 0-.194.137-.355.32-.393l.08-.008h1zm4.203 0c.222 0 .4.18.4.4 0 .194-.136.355-.319.393l-.08.008h-1c-.222 0-.401-.18-.401-.4 0-.194.137-.355.32-.393l.08-.008h1zm4.204 0c.22 0 .4.18.4.4 0 .194-.137.355-.32.393l-.08.008h-1c-.221 0-.4-.18-.4-.4 0-.194.137-.355.32-.393l.08-.008h1zm4.203 0c.221 0 .4.18.4.4 0 .194-.137.355-.32.393l-.08.008h-1c-.221 0-.4-.18-.4-.4 0-.194.137-.355.32-.393l.08-.008h1zm4.203 0c.222 0 .4.18.4.4 0 .194-.136.355-.319.393l-.08.008h-1c-.222 0-.401-.18-.401-.4 0-.194.137-.355.32-.393l.08-.008h1zm4.204 0c.22 0 .4.18.4.4 0 .194-.137.355-.32.393l-.08.008h-1c-.221 0-.4-.18-.4-.4 0-.194.137-.355.32-.393l.08-.008h1zm4.203 0c.221 0 .4.18.4.4 0 .194-.137.355-.32.393l-.08.008h-1c-.221 0-.4-.18-.4-.4 0-.194.137-.355.32-.393l.08-.008h1zm4.203 0c.222 0 .4.18.4.4 0 .194-.136.355-.319.393l-.08.008h-1c-.222 0-.4-.18-.4-.4 0-.194.136-.355.319-.393l.08-.008h1zm4.204 0c.22 0 .4.18.4.4 0 .194-.137.355-.32.393l-.08.008h-1c-.221 0-.4-.18-.4-.4 0-.194.137-.355.32-.393l.08-.008h1zm4.203 0c.221 0 .4.18.4.4 0 .194-.137.355-.32.393l-.08.008h-1c-.221 0-.4-.18-.4-.4 0-.194.137-.355.32-.393l.08-.008h1zm4.203 0c.222 0 .4.18.4.4 0 .194-.136.355-.319.393l-.08.008h-1c-.222 0-.4-.18-.4-.4 0-.194.136-.355.319-.393l.08-.008h1zm4.204 0c.221 0 .4.18.4.4 0 .194-.137.355-.32.393l-.08.008h-1c-.221 0-.4-.18-.4-.4 0-.194.137-.355.32-.393l.08-.008h1zm4.203 0c.221 0 .4.18.4.4 0 .194-.137.355-.32.393l-.08.008h-1c-.221 0-.4-.18-.4-.4 0-.194.137-.355.32-.393l.08-.008h1zm4.203 0c.222 0 .4.18.4.4 0 .194-.136.355-.319.393l-.08.008h-1c-.222 0-.4-.18-.4-.4 0-.194.136-.355.319-.393l.08-.008h1zm4.204 0c.221 0 .4.18.4.4 0 .194-.137.355-.32.393l-.08.008h-1c-.221 0-.4-.18-.4-.4 0-.194.137-.355.32-.393l.08-.008h1zm4.203 0c.221 0 .4.18.4.4 0 .194-.137.355-.32.393l-.08.008h-1c-.221 0-.4-.18-.4-.4 0-.194.137-.355.32-.393l.08-.008h1zm4.203 0c.222 0 .4.18.4.4 0 .194-.136.355-.319.393l-.08.008h-1c-.222 0-.4-.18-.4-.4 0-.194.136-.355.319-.393l.08-.008h1zm4.204 0c.221 0 .4.18.4.4 0 .194-.137.355-.32.393l-.08.008h-1c-.221 0-.4-.18-.4-.4 0-.194.137-.355.32-.393l.08-.008h1zm4.203 0c.221 0 .4.18.4.4 0 .194-.137.355-.32.393l-.08.008h-1c-.221 0-.4-.18-.4-.4 0-.194.137-.355.32-.393l.08-.008h1zm4.204 0c.22 0 .4.18.4.4 0 .194-.137.355-.32.393l-.08.008h-1c-.222 0-.4-.18-.4-.4 0-.194.136-.355.319-.393l.08-.008h1zm4.203 0c.221 0 .4.18.4.4 0 .194-.137.355-.32.393l-.08.008h-1c-.221 0-.4-.18-.4-.4 0-.194.137-.355.32-.393l.08-.008h1zm4.203 0c.221 0 .4.18.4.4 0 .194-.137.355-.32.393l-.08.008h-1c-.221 0-.4-.18-.4-.4 0-.194.137-.355.32-.393l.08-.008h1zm4.204 0c.22 0 .4.18.4.4 0 .194-.137.355-.32.393l-.08.008h-1c-.222 0-.4-.18-.4-.4 0-.194.136-.355.319-.393l.08-.008h1zm4.203 0c.221 0 .4.18.4.4 0 .194-.137.355-.32.393l-.08.008h-1c-.221 0-.4-.18-.4-.4 0-.194.137-.355.32-.393l.08-.008h1zm4.203 0c.221 0 .4.18.4.4 0 .194-.137.355-.32.393l-.08.008h-1c-.221 0-.4-.18-.4-.4 0-.194.137-.355.32-.393l.08-.008h1zm4.204 0c.22 0 .4.18.4.4 0 .194-.137.355-.32.393l-.08.008h-1c-.222 0-.4-.18-.4-.4 0-.194.136-.355.319-.393l.08-.008h1zm4.203 0c.221 0 .4.18.4.4 0 .194-.137.355-.32.393l-.08.008h-1c-.221 0-.4-.18-.4-.4 0-.194.137-.355.32-.393l.08-.008h1zm4.203 0c.221 0 .4.18.4.4 0 .194-.137.355-.32.393l-.08.008h-1c-.22 0-.4-.18-.4-.4 0-.194.137-.355.32-.393l.08-.008h1zm4.204 0c.22 0 .4.18.4.4 0 .194-.137.355-.32.393l-.08.008h-1c-.222 0-.4-.18-.4-.4 0-.194.136-.355.319-.393l.08-.008h1zm4.203 0c.221 0 .4.18.4.4 0 .194-.137.355-.32.393l-.08.008h-1c-.221 0-.4-.18-.4-.4 0-.194.137-.355.32-.393l.08-.008h1zm4.203 0c.221 0 .4.18.4.4 0 .194-.137.355-.32.393l-.08.008h-1c-.22 0-.4-.18-.4-.4 0-.194.137-.355.32-.393l.08-.008h1zm4.204 0c.22 0 .4.18.4.4 0 .194-.137.355-.32.393l-.08.008h-1c-.222 0-.4-.18-.4-.4 0-.194.136-.355.319-.393l.08-.008h1zm4.203 0c.221 0 .4.18.4.4 0 .194-.137.355-.32.393l-.08.008h-1c-.221 0-.4-.18-.4-.4 0-.194.137-.355.32-.393l.08-.008h1zm4.203 0c.221 0 .4.18.4.4 0 .194-.137.355-.32.393l-.08.008h-1c-.22 0-.4-.18-.4-.4 0-.194.137-.355.32-.393l.08-.008h1zm4.204 0c.22 0 .4.18.4.4 0 .194-.137.355-.32.393l-.08.008h-1c-.222 0-.4-.18-.4-.4 0-.194.136-.355.319-.393l.08-.008h1zm4.203 0c.221 0 .4.18.4.4 0 .194-.137.355-.32.393l-.08.008h-1c-.221 0-.4-.18-.4-.4 0-.194.137-.355.32-.393l.08-.008h1zm4.203 0c.221 0 .4.18.4.4 0 .194-.137.355-.32.393l-.08.008h-1c-.22 0-.4-.18-.4-.4 0-.194.137-.355.32-.393l.08-.008h1zm4.204 0c.22 0 .4.18.4.4 0 .194-.137.355-.32.393l-.08.008h-1c-.222 0-.4-.18-.4-.4 0-.194.136-.355.319-.393l.08-.008h1zm4.203 0c.221 0 .4.18.4.4 0 .194-.137.355-.32.393l-.08.008h-1c-.221 0-.4-.18-.4-.4 0-.194.137-.355.32-.393l.08-.008h1zm4.203 0c.221 0 .4.18.4.4 0 .194-.137.355-.32.393l-.08.008h-1c-.22 0-.4-.18-.4-.4 0-.194.137-.355.32-.393l.08-.008h1zm4.204 0c.22 0 .4.18.4.4 0 .194-.137.355-.32.393l-.08.008h-1c-.222 0-.4-.18-.4-.4 0-.194.136-.355.319-.393l.08-.008h1zm4.203 0c.221 0 .4.18.4.4 0 .194-.137.355-.32.393l-.08.008h-1c-.221 0-.4-.18-.4-.4 0-.194.137-.355.32-.393l.08-.008h1z"/>
                    <circle cx="611.25" cy="209.621" r="3.604" fill="#2B2B2B"/>
                    <circle cx="654.495" cy="616.445" r="3.604" fill="#2B2B2B"/>
                </g>
            </g>
        </g>
    </g>
</svg>
