<svg xmlns="http://www.w3.org/2000/svg" xmlns:xlink="http://www.w3.org/1999/xlink" width="215" height="170" viewBox="0 0 215 170">
    <defs>
        <linearGradient id="xwnklqm43a" x1="50%" x2="50%" y1="0%" y2="100%">
            <stop offset="0%" stop-color="#FFD8AD"/>
            <stop offset="100%" stop-color="#FAA61B"/>
        </linearGradient>
        <linearGradient id="eht9nx7igc" x1="74.676%" x2="8.952%" y1="68.11%" y2="17.572%">
            <stop offset="0%" stop-color="#FF9D54"/>
            <stop offset="100%" stop-color="#E55C27"/>
        </linearGradient>
        <linearGradient id="tpxq3uiked" x1="100%" x2="0%" y1="50%" y2="50%">
            <stop offset="0%" stop-color="#F4954F"/>
            <stop offset="100%" stop-color="#FFD233"/>
        </linearGradient>
        <linearGradient id="vu91izovbh" x1="74.771%" x2="-28.456%" y1="55.247%" y2="25.33%">
            <stop offset="0%" stop-color="#2B2B2B"/>
            <stop offset="100%" stop-color="#E55C27"/>
        </linearGradient>
        <linearGradient id="1x74wdn14i" x1="100%" x2="0%" y1="50%" y2="50%">
            <stop offset="0%" stop-color="#F4954F"/>
            <stop offset="100%" stop-color="#FFD233"/>
        </linearGradient>
        <radialGradient id="6naub4gtzg" cx="60.003%" cy="41.677%" r="44.851%" fx="60.003%" fy="41.677%" gradientTransform="rotate(-150.279 .598 .424) scale(1 1.03486)">
            <stop offset="0%" stop-color="#FB9C2F"/>
            <stop offset="51.402%" stop-color="#F87B2D"/>
            <stop offset="100%" stop-color="#D44B15"/>
        </radialGradient>
        <radialGradient id="n0s7vckb0k" cx="100%" cy="50%" r="111.803%" fx="100%" fy="50%" gradientTransform="matrix(-.89443 -.44721 .2343 -.46862 1.777 1.182)">
            <stop offset="0%" stop-color="#FB7F2F"/>
            <stop offset="51.402%" stop-color="#F87B2D"/>
            <stop offset="100%" stop-color="#D44B15"/>
        </radialGradient>
        <radialGradient id="7wkd6pa4cl" cx="100%" cy="50%" r="111.813%" fx="100%" fy="50%" gradientTransform="matrix(-.89435 -.44718 .23426 -.46863 1.777 1.181)">
            <stop offset="0%" stop-color="#FB7F2F"/>
            <stop offset="51.402%" stop-color="#F87B2D"/>
            <stop offset="100%" stop-color="#D44B15"/>
        </radialGradient>
        <filter id="fnonjopqje" width="155.9%" height="149.7%" x="-27.9%" y="-24.8%" filterUnits="objectBoundingBox">
            <feGaussianBlur in="SourceGraphic" stdDeviation="12.633"/>
        </filter>
        <filter id="qz10ubpj8j" width="100%" height="100%" x="0%" y="0%" filterUnits="objectBoundingBox">
            <feGaussianBlur in="SourceGraphic"/>
        </filter>
        <filter id="spqpbgdn1m" width="100%" height="100%" x="0%" y="0%" filterUnits="objectBoundingBox">
            <feGaussianBlur in="SourceGraphic"/>
        </filter>
        <path id="0u4rc0onfb" d="M100.17 72.415l-29.08 28.81c-3.159 3.121-7.739 4.32-12.029 3.16l-39.49-10.789c-4.29-1.17-7.63-4.54-8.76-8.84l-4.41-16.8c3.42.49 6.28.61 8.22.61h.05c6.27 0 13.11-1.07 19.71-3.29l.14.52c.55 2.09 2.16 3.72 4.23 4.28l15.75 4.3c2.07.56 4.29-.02 5.81-1.52l11.6-11.49c1.52-1.51 2.13-3.73 1.58-5.8l-2.24-8.53-.22-.88-.22-.83-.25-.92-1.22-4.64c-.53-2.05-2.12-3.66-4.16-4.24l-1.94-.53-9.07-2.48-1.94-.53-2.86-.78c-2.07-.57-4.28.01-5.81 1.52l-11.61 11.48c-1.49 1.49-2.1 3.63-1.61 5.67-3.52.94-7.08 1.39-10.4 1.39h-.03c-3.49 0-11.46-.57-19.25-5.13l-.25-.97c-.09-.33-.16-.65-.22-.97-.36-2.06-.21-4.17.44-6.11.21-.6.45-1.192.75-1.76.59-1.15 1.36-2.23 2.31-3.16l29.09-28.81c3.16-3.12 7.74-4.33 12.03-3.16l39.49 10.78c1.77.49 3.37 1.34 4.72 2.48.52.438 1 .91 1.44 1.42 1.21 1.41 2.11 3.1 2.59 4.95l.14.5.62 2.37 9.65 36.71c1.12 4.3-.13 8.88-3.29 12.01"/>
    </defs>
    <g fill="none" fill-rule="evenodd">
        <g>
            <g>
                <g>
                    <g>
                        <path fill="url(#xwnklqm43a)" fill-rule="nonzero" d="M92.05 0.059L0.55 154.729 183.55 154.729z" opacity=".32" transform="translate(-854 -1630) translate(854 1630) translate(30) translate(.953 .059)"/>
                        <g>
                            <path fill="#FFC55A" d="M22.435 79.404c-.61.76-1.252 1.69-1.832 2.797-1.395 2.663-1.808 5.17-1.927 6.87.028-1.512-.154-4.28-1.806-7.107-.62-1.06-1.316-1.905-1.953-2.56.806-.915 1.944-2.43 2.762-4.552.802-2.08.977-3.917.997-5.114.16 1.32.493 3.02 1.21 4.907.77 2.027 1.734 3.619 2.55 4.76" transform="translate(-854 -1630) translate(854 1630) translate(30) translate(.953 .059) translate(124.05 61.166)"/>
                            <path fill="#E35C26" d="M16.07 28.598c-.464.59-.951 1.31-1.392 2.17-1.059 2.067-1.373 4.012-1.463 5.332.02-1.174-.117-3.322-1.372-5.515-.47-.824-.999-1.48-1.483-1.987.612-.71 1.477-1.886 2.098-3.533.609-1.615.741-3.04.757-3.97.12 1.026.374 2.347.918 3.81.585 1.572 1.318 2.807 1.937 3.693M24.663 8.19c-.464.59-.951 1.31-1.392 2.17-1.059 2.067-1.373 4.012-1.463 5.332.02-1.174-.117-3.322-1.372-5.515-.47-.824-1-1.48-1.483-1.987.612-.71 1.476-1.886 2.098-3.533.608-1.615.741-3.04.757-3.97.12 1.027.374 2.347.918 3.81.585 1.572 1.318 2.807 1.937 3.693" transform="translate(-854 -1630) translate(854 1630) translate(30) translate(.953 .059) translate(124.05 61.166)"/>
                            <path fill="#FFC55A" d="M5.375 19.39c-.408.518-.836 1.151-1.223 1.907-.931 1.816-1.207 3.526-1.286 4.686.019-1.032-.103-2.92-1.205-4.848-.415-.723-.878-1.3-1.304-1.746.537-.624 1.297-1.658 1.843-3.105.535-1.418.653-2.671.666-3.489.106.902.329 2.062.807 3.348.514 1.383 1.159 2.468 1.702 3.246" transform="translate(-854 -1630) translate(854 1630) translate(30) translate(.953 .059) translate(124.05 61.166)"/>
                        </g>
                    </g>
                    <g stroke-width=".661">
                        <path stroke="#FFC55A" d="M5.558 7.362C3.926 8.463 1.71 8.032.61 6.4c-1.1-1.631-.67-3.846.96-4.947 1.633-1.1 3.848-.671 4.949.96 1.101 1.633.67 3.848-.961 4.95z" transform="translate(-854 -1630) translate(854 1630) translate(30) rotate(-37 125.821 -173.62)"/>
                        <path stroke="#F9A51C" d="M8.426 5.324c-1.332.9-3.141.548-4.04-.784-.9-1.334-.548-3.143.784-4.042 1.333-.9 3.143-.548 4.041.786.9 1.332.548 3.141-.785 4.04z" transform="translate(-854 -1630) translate(854 1630) translate(30) rotate(-37 125.821 -173.62)"/>
                    </g>
                    <path fill="#E35C26" d="M162.698 150.778c-.812 1.259-1.665 2.795-2.436 4.628-1.855 4.409-2.406 8.557-2.564 11.372.037-2.504-.204-7.085-2.401-11.764-.825-1.755-1.75-3.154-2.599-4.236 1.072-1.515 2.586-4.022 3.674-7.535 1.067-3.443 1.3-6.484 1.326-8.465.213 2.188.656 5.001 1.61 8.123 1.023 3.355 2.307 5.989 3.39 7.877" transform="translate(-854 -1630) translate(854 1630) translate(30)"/>
                    <path fill="#FFC55A" d="M169.995 109.686c-.61.803-1.252 1.783-1.833 2.952-1.394 2.812-1.808 5.457-1.927 7.252.028-1.597-.154-4.518-1.806-7.503-.62-1.119-1.315-2.01-1.953-2.7.806-.967 1.944-2.566 2.762-4.806.802-2.196.977-4.135.997-5.399.16 1.396.493 3.19 1.21 5.18.77 2.14 1.735 3.82 2.55 5.024" transform="translate(-854 -1630) translate(854 1630) translate(30)"/>
                    <g fill="#2B2B2B" fill-rule="nonzero">
                        <path d="M93.262 0c.593 0 1.074.48 1.074 1.074 0 .554-.419 1.01-.957 1.068l-.117.006H0c-.593 0-1.074-.48-1.074-1.074 0-.554.419-1.01.957-1.068L0 0h93.262z" transform="translate(-854 -1630) translate(854 1630) translate(30) translate(29.953 166.63)"/>
                    </g>
                </g>
                <g>
                    <path fill="#E35C26" d="M77.68 123.78l-3.03-11.542-.47-1.789-.03-.14c-3.52.94-7.08 1.39-10.4 1.39h-.03c-3.49 0-11.46-.57-19.25-5.13l.7 2.66 4.49 17.06.55 2.1c3.42.49 6.282.61 8.22.61h.05c6.27 0 13.11-1.07 19.712-3.29l-.511-1.93z" transform="translate(-854 -1630) translate(854 1630) translate(0 1)"/>
                    <g transform="translate(-854 -1630) translate(854 1630) translate(0 1) translate(43.81 60.433)">
                        <mask id="tthdmdfnpf" fill="#fff">
                            <use xlink:href="#0u4rc0onfb"/>
                        </mask>
                        <use fill="url(#eht9nx7igc)" fill-rule="nonzero" xlink:href="#0u4rc0onfb"/>
                        <path fill="url(#tpxq3uiked)" fill-rule="nonzero" d="M138.093-3.2c10.666 11.352 16.913 30.313 18.738 51.69 1.73 21.255-.96 44.805-11.627 61.955-10.667 17.028-29.406 27.777-45.646 24.637-16.144-3.26-29.79-20.29-45.358-37.439-15.663-17.15-33.153-34.299-32.576-50.724.576-16.425 19.219-32.125 34.883-43.477 15.567-11.353 28.06-18.357 41.898-20.048 13.838-1.691 28.925 1.932 39.688 13.405z" filter="url(#fnonjopqje)" mask="url(#tthdmdfnpf)" opacity=".811" transform="rotate(58 89.462 59.313)"/>
                    </g>
                    <path fill="url(#6naub4gtzg)" fill-rule="nonzero" d="M148.708 154.754c0 6.16-4.993 11.154-11.153 11.154s-11.155-4.994-11.155-11.154 4.995-11.154 11.155-11.154c6.16 0 11.153 4.994 11.153 11.154" transform="translate(-854 -1630) translate(854 1630) translate(0 1)"/>
                    <path fill="url(#vu91izovbh)" fill-rule="nonzero" d="M76.016 157.48L68.407 165.671 83.624 165.671z" transform="translate(-854 -1630) translate(854 1630) translate(0 1)"/>
                    <path fill="#231F20" d="M108.25 52.78c-.5.238-1.09.028-1.33-.472-1-2.08-10.36-20.449-31.19-24.309-16.35-3.02-33.66 4.23-43.08 18.05-13.27 19.45-7.05 45.27 7.09 57.18 1.54 1.3 3.13 2.4 4.73 3.34 7.79 4.56 15.76 5.13 19.25 5.13h.03c3.32 0 6.88-.45 10.4-1.39 8.36-2.21 16.51-7.12 20.68-15.15.46-.88.87-1.8 1.21-2.74l1.94.53c-.39 1.08-.85 2.12-1.37 3.13-4.46 8.58-13.11 13.82-21.96 16.16-3.69.98-7.42 1.46-10.9 1.46h-.03c-3.43 0-10.91-.52-18.55-4.47-2.26-1.16-4.53-2.63-6.72-4.47-14.8-12.47-21.33-39.49-7.45-59.84 9.86-14.46 27.99-22.05 45.09-18.88 21.8 4.03 31.59 23.23 32.63 25.41.24.5.03 1.09-.47 1.33" transform="translate(-854 -1630) translate(854 1630) translate(0 1)"/>
                    <g fill="#231F20">
                        <path d="M123.201 39.508c-.5.24-1.1.03-1.34-.47-1.46-3.06-15.22-30.051-45.82-35.71-24.03-4.45-49.47 6.21-63.31 26.51-19.49 28.58-10.35 66.52 10.42 84.02 8.97 7.56 19.01 10.59 26.51 11.76 3.67.58 6.73.71 8.77.71h.05c6.11 0 12.78-1.05 19.2-3.22 10.88-3.67 21.04-10.58 26.54-21.16 1.18-2.28 2.13-4.68 2.83-7.19l1.94.53c-.74 2.64-1.75 5.18-2.99 7.58-5.78 11.119-16.44 18.36-27.81 22.17-6.6 2.22-13.44 3.29-19.71 3.29h-.05c-1.94 0-4.8-.12-8.22-.61-7.86-1.12-18.7-4.2-28.35-12.33-21.44-18.06-30.88-57.2-10.78-86.68 14.28-20.94 40.53-31.93 65.32-27.35 31.58 5.84 45.75 33.66 47.27 36.82.24.49.03 1.09-.47 1.33" transform="translate(-854 -1630) translate(854 1630) translate(0 1) translate(0 .671)"/>
                    </g>
                    <path fill="url(#1x74wdn14i)" fill-rule="nonzero" d="M29.137 117.037c0 2.622-2.125 4.747-4.747 4.747s-4.748-2.125-4.748-4.747 2.126-4.748 4.748-4.748c2.622 0 4.747 2.126 4.747 4.748" filter="url(#qz10ubpj8j)" transform="translate(-854 -1630) translate(854 1630) translate(0 1)"/>
                    <path fill="#2B2B2B" d="M126.311 48.368L131.313 34.368 113.313 41.945z" transform="translate(-854 -1630) translate(854 1630) translate(0 1) rotate(-3 122.313 41.368)"/>
                    <path fill="#2B2B2B" d="M110.61 59.6L114.5 48.6 100.5 54.554z" transform="translate(-854 -1630) translate(854 1630) translate(0 1)"/>
                    <path fill="url(#n0s7vckb0k)" fill-rule="nonzero" d="M32.022 61.573c0 3.663-2.97 6.632-6.632 6.632-3.663 0-6.634-2.969-6.634-6.632s2.97-6.633 6.634-6.633c3.662 0 6.632 2.97 6.632 6.633" transform="translate(-854 -1630) translate(854 1630) translate(0 1)"/>
                    <path fill="url(#7wkd6pa4cl)" fill-rule="nonzero" d="M80.705 27.452c0 2.591-2.1 4.69-4.689 4.69-2.591 0-4.691-2.099-4.691-4.69 0-2.59 2.1-4.689 4.691-4.689 2.589 0 4.689 2.1 4.689 4.69" transform="translate(-854 -1630) translate(854 1630) translate(0 1)"/>
                    <path fill="url(#1x74wdn14i)" fill-rule="nonzero" d="M43.812 8.611c0 3.663-2.97 6.633-6.633 6.633s-6.633-2.97-6.633-6.633 2.97-6.632 6.633-6.632 6.633 2.97 6.633 6.632" filter="url(#spqpbgdn1m)" transform="translate(-854 -1630) translate(854 1630) translate(0 1)"/>
                </g>
            </g>
        </g>
    </g>
</svg>
