<svg width="100%" height="100%" xmlns="http://www.w3.org/2000/svg">
    <g fill="none" fill-rule="evenodd">
        <path d="M9.698 555.965v-2.08H3.686v-3.573h5.218v-2.022H3.686v-3.479h6.012v-2.08H1.38v13.234h8.318zm5.52.264c.58 0 1.065-.085 1.456-.255.39-.17.674-.362.85-.576l-.945-1.607c-.24.214-.53.321-.87.321-.592 0-.888-.334-.888-1.002v-4.594h2.401v-1.985h-2.4v-2.457h-2.27v2.457h-1.625v1.985h1.626v4.916c0 .894.252 1.584.756 2.07.504.485 1.14.727 1.91.727zm5.993-.264v-5.161c0-.769.195-1.364.586-1.787.39-.422.888-.633 1.493-.633.58 0 1.03.167 1.352.501.321.334.482.904.482 1.71v5.37h2.25v-5.71c0-2.659-1.122-3.988-3.365-3.988-1.172 0-2.105.435-2.798 1.304v-4.84h-2.25v13.234h2.25zm12.798.264c1.097 0 2.001-.252 2.713-.756a4.03 4.03 0 0 0 1.503-1.966l-1.91-.586c-.138.378-.406.712-.803 1.002-.397.29-.898.435-1.503.435a2.555 2.555 0 0 1-2.212-1.21 2.63 2.63 0 0 1-.397-1.153h7.052v-.87c0-.958-.183-1.802-.548-2.533a4.1 4.1 0 0 0-1.56-1.71c-.674-.41-1.459-.615-2.354-.615-.882 0-1.685.217-2.41.652a4.734 4.734 0 0 0-1.72 1.786c-.423.757-.634 1.601-.634 2.534 0 .958.211 1.815.634 2.57a4.663 4.663 0 0 0 1.72 1.778c.725.428 1.534.642 2.43.642zm2.439-5.973h-5.029a2.669 2.669 0 0 1 .842-1.503c.447-.41 1.03-.615 1.748-.615.504 0 .936.11 1.295.331.36.22.633.495.823.823.189.327.296.649.32.964zm6.125 5.709v-5.142c0-.756.189-1.352.567-1.787.378-.434.85-.652 1.418-.652.252 0 .476.032.671.095.195.063.35.138.463.226l.813-1.984a2.445 2.445 0 0 0-.68-.322 3.114 3.114 0 0 0-.946-.132c-.554 0-1.033.129-1.436.387a2.846 2.846 0 0 0-.946.974l-.321-1.097h-1.872v9.434h2.269zm9.566.264c1.096 0 2-.252 2.712-.756a4.03 4.03 0 0 0 1.503-1.966l-1.909-.586c-.139.378-.406.712-.803 1.002-.397.29-.898.435-1.503.435a2.555 2.555 0 0 1-2.212-1.21 2.63 2.63 0 0 1-.397-1.153h7.051v-.87c0-.958-.183-1.802-.548-2.533a4.1 4.1 0 0 0-1.56-1.71c-.674-.41-1.458-.615-2.353-.615-.882 0-1.686.217-2.41.652a4.734 4.734 0 0 0-1.72 1.786c-.423.757-.634 1.601-.634 2.534 0 .958.21 1.815.633 2.57a4.663 4.663 0 0 0 1.72 1.778c.725.428 1.535.642 2.43.642zm2.438-5.973H49.55a2.669 2.669 0 0 1 .841-1.503c.447-.41 1.03-.615 1.749-.615.504 0 .935.11 1.295.331.359.22.633.495.822.823.189.327.296.649.321.964zm7.24 5.973c1.21 0 2.169-.466 2.874-1.398l.322 1.134h1.871v-9.434h-2.268v5.161c0 .77-.196 1.365-.586 1.787-.391.422-.889.633-1.494.633-.58 0-1.03-.167-1.352-.5-.32-.335-.482-.899-.482-1.693v-5.388h-2.268v5.69c0 2.673 1.128 4.008 3.384 4.008zm9.604-.264v-5.35c0-.731.17-1.289.51-1.673.341-.385.782-.577 1.324-.577.504 0 .901.16 1.191.482.29.322.435.823.435 1.503v5.615h2.268v-5.35c0-.719.17-1.273.51-1.664.341-.39.782-.586 1.324-.586 1.071 0 1.607.662 1.607 1.985v5.615h2.269v-6.239c0-1.16-.275-2.026-.823-2.599-.548-.573-1.288-.86-2.221-.86-.68 0-1.273.132-1.777.397-.504.264-.92.605-1.248 1.02a2.62 2.62 0 0 0-.945-1.02c-.416-.265-.952-.397-1.607-.397-.63 0-1.197.129-1.701.387-.504.259-.908.59-1.21.993l-.303-1.116h-1.871v9.434h2.268z" fill="#000" fill-rule="nonzero"/>
        <path d="m302.59 456.286 4.007-10.827H304.2l-2.831 7.873-2.83-7.873h-2.398l4.022 10.827h2.428zm7.379.217c.943 0 1.64-.294 2.057-.866l.263.65h1.81v-5.074c0-.99-.325-1.732-.96-2.212-.633-.48-1.422-.727-2.335-.727-1.902 0-2.877.743-3.372 2.367l1.918.464c.124-.743.542-1.098 1.361-1.098.79 0 1.191.417 1.191 1.253v.046l-1.454.201c-1.206.17-2.026.48-2.459.928a2.266 2.266 0 0 0-.665 1.64c0 1.562 1.3 2.428 2.645 2.428zm.634-1.748c-.742 0-1.175-.325-1.175-.82 0-.541.309-.85 1.129-.974l1.345-.201v.835c0 .696-.557 1.16-1.299 1.16zm7.254 1.531V445.46h-2.196v10.827h2.196zm2.815-8.754c.665 0 1.222-.541 1.222-1.207 0-.665-.557-1.206-1.222-1.206-.634 0-1.19.541-1.19 1.206 0 .666.525 1.207 1.19 1.207zm1.114 8.754v-7.795h-2.196v7.795h2.196zm5.243.217c1.114 0 1.918-.526 2.336-1.083l.294.866h1.81V445.46h-2.197v3.79c-.418-.542-1.222-.975-2.274-.975-2.088 0-3.79 1.733-3.79 4.115-.03 2.35 1.764 4.16 3.821 4.114zm.325-1.98c-1.098 0-1.949-.897-1.949-2.134 0-.604.186-1.114.573-1.532a1.806 1.806 0 0 1 1.376-.603c1.114 0 1.918.882 1.918 2.135 0 1.237-.804 2.134-1.918 2.134zm6.93-6.991c.665 0 1.221-.541 1.221-1.207 0-.665-.556-1.206-1.221-1.206-.635 0-1.191.541-1.191 1.206 0 .666.525 1.207 1.19 1.207zm1.113 8.754v-7.795h-2.196v7.795h2.196zm4.841.217c1.037 0 1.717-.356 2.042-.727l-.866-1.578a.922.922 0 0 1-.665.263c-.433 0-.65-.247-.65-.742v-3.31h1.856v-1.918H340.1v-2.026h-2.196v2.026h-1.3v1.918h1.3v3.65c0 1.562 1.02 2.444 2.335 2.444zm6.512 3.032c2.305 0 3.836-1.33 3.852-3.635v-7.41h-2.197v3.852c0 1.176-.572 1.764-1.485 1.764-.912 0-1.376-.48-1.376-1.702v-3.913h-2.197v4.176c0 2.32.96 3.48 2.862 3.48 1.036 0 1.655-.371 2.196-.99v.696c0 1.222-.65 1.825-1.655 1.825-.82 0-1.3-.402-1.423-1.036l-2.026.402c.387 1.485 1.547 2.49 3.45 2.49zm-32.11 17.375v-3.759h1.98c1.81 0 3.588-1.13 3.588-3.542 0-2.506-1.779-3.527-3.727-3.527h-4.068v10.828h2.227zm1.686-5.77h-1.686v-3.047h1.67c1.13 0 1.67.68 1.67 1.5 0 .867-.494 1.547-1.654 1.547zm7.424 5.77v-4.192c0-1.13.603-1.763 1.47-1.763.37 0 .665.077.866.247l.773-1.949c-.356-.232-.804-.356-1.315-.356-.881 0-1.515.464-1.871 1.068l-.325-.851h-1.794v7.796h2.196zm7.811.216c2.228 0 4.068-1.717 4.068-4.114 0-2.398-1.84-4.115-4.068-4.115-2.242 0-4.083 1.717-4.083 4.115 0 2.397 1.825 4.114 4.083 4.114zm0-2.042c-1.098 0-1.887-.85-1.887-2.072s.79-2.073 1.887-2.073c1.052 0 1.872.882 1.872 2.073 0 1.222-.82 2.072-1.872 2.072zm9.203 2.042c2.228 0 4.068-1.717 4.068-4.114 0-2.398-1.84-4.115-4.068-4.115-2.242 0-4.083 1.717-4.083 4.115 0 2.397 1.825 4.114 4.083 4.114zm0-2.042c-1.098 0-1.887-.85-1.887-2.072s.79-2.073 1.887-2.073c1.052 0 1.872.882 1.872 2.073 0 1.222-.82 2.072-1.872 2.072zm8.4 1.826v-5.878h1.84v-1.918h-1.84v-.541c0-.495.216-.743.633-.743.263 0 .495.078.68.248l.882-1.516c-.479-.48-1.175-.727-2.057-.727-1.314 0-2.335.897-2.335 2.444v.835h-1.3v1.918h1.3v5.878h2.196zM386.454 530.462a1.133 1.133 0 0 0 2.027.009l8.44-13.128a1.135 1.135 0 0 0-1.007-1.644l-16.733-.073a1.135 1.135 0 0 0-1.02 1.636l8.293 13.2z" fill="#8248E5" fill-rule="nonzero"/>
        <path fill="#E3E5EF" fill-rule="nonzero" d="M300.754 343.719h60.151v3.437h-60.151zM415.899 343.719h60.151v3.437h-60.151z"/>
        <path fill="#8248E5" fill-rule="nonzero" d="M384.965 408.166h5.156v31.794h-5.156zM384.965 483.784h5.156v35.231c0 .95-.77 1.719-1.719 1.719h-1.719c-.949 0-1.718-.77-1.718-1.719v-35.231z"/>
        <g fill-rule="nonzero">
            <g transform="rotate(-45 956.71 -423.916)">
                <path d="M.386 6.226A.655.655 0 0 1 .38 5.034L8.402.072A.716.716 0 0 1 8.712 0a.68.68 0 0 1 .696.664l.044 9.837a.646.646 0 0 1-.072.299.705.705 0 0 1-.927.302L.386 6.226z" fill="#E2E2E2"/>
                <rect fill="#E3E5EF" x="5.691" y="4.033" width="15.467" height="3.437" rx="1.289"/>
            </g>
            <path d="M599.789 525.03h44.683a4.296 4.296 0 0 1 4.297 4.297v11.17a4.296 4.296 0 0 1-4.297 4.297h-48.98v-15.467a4.296 4.296 0 0 1 4.297-4.297z" fill="#E3E5EF"/>
            <path d="M608.268 539.84c.712 0 1.349-.189 1.91-.565a3.817 3.817 0 0 0 1.308-1.493c.309-.619.464-1.279.464-1.98 0-.722-.147-1.39-.441-2.003a3.62 3.62 0 0 0-1.276-1.477c-.557-.371-1.207-.557-1.95-.557-.566 0-1.066.114-1.5.34a2.969 2.969 0 0 0-1.036.867v-4.16h-1.515v10.826h1.252l.201-1.036c.258.35.604.644 1.037.882.433.237.948.355 1.546.355zm-.185-1.362c-.691 0-1.256-.252-1.694-.758-.438-.505-.657-1.144-.657-1.918 0-.783.219-1.425.657-1.925.438-.5 1.003-.75 1.694-.75.443 0 .845.113 1.206.34.361.227.642.544.843.951.201.407.302.869.302 1.384 0 .506-.1.962-.302 1.37a2.348 2.348 0 0 1-.843.958c-.36.232-.763.348-1.206.348zm7.038 1.16v-10.827h-1.516v10.827h1.516zm5.599.217c.773 0 1.459-.186 2.057-.557a3.853 3.853 0 0 0 1.392-1.485c.33-.619.495-1.284.495-1.995 0-.722-.165-1.392-.495-2.011a3.853 3.853 0 0 0-1.392-1.485c-.598-.371-1.284-.557-2.057-.557a3.835 3.835 0 0 0-3.45 2.042 4.207 4.207 0 0 0-.494 2.01c0 .712.162 1.377.487 1.996a3.778 3.778 0 0 0 1.392 1.485c.603.371 1.291.557 2.065.557zm0-1.392c-.464 0-.882-.114-1.253-.34a2.322 2.322 0 0 1-.866-.944 2.94 2.94 0 0 1-.31-1.361c0-.506.103-.96.31-1.361.206-.403.495-.72.866-.952a2.315 2.315 0 0 1 1.253-.348c.464 0 .879.116 1.245.348.366.232.655.55.866.952.211.402.317.855.317 1.36 0 .496-.106.947-.317 1.354-.211.407-.5.725-.866.951-.366.227-.781.34-1.245.34zm9.156 1.392c.815 0 1.514-.217 2.096-.65a3.723 3.723 0 0 0 1.276-1.717l-1.376-.464a2.144 2.144 0 0 1-.758 1.052c-.35.258-.763.387-1.238.387-.464 0-.876-.114-1.237-.34a2.36 2.36 0 0 1-.85-.944 2.94 2.94 0 0 1-.31-1.361c0-.506.103-.962.31-1.37.205-.406.49-.723.85-.95.36-.227.773-.34 1.237-.34.485 0 .903.128 1.253.386.35.258.598.614.743 1.067l1.392-.464a3.419 3.419 0 0 0-1.238-1.732c-.587-.433-1.304-.65-2.15-.65-.773 0-1.456.183-2.05.55a3.758 3.758 0 0 0-1.376 1.477 4.292 4.292 0 0 0-.487 2.026c0 .722.16 1.392.48 2.01.32.62.776 1.112 1.368 1.478.593.366 1.282.549 2.065.549zm6.59-.217v-2.66l.866-.913 2.52 3.573h1.733l-3.248-4.625 2.892-3.031h-1.856l-2.908 3.031v-6.202h-1.515v10.827h1.515z" fill="#707384"/>
        </g>
        <g fill-rule="nonzero">
            <g transform="rotate(-45 706.074 -621.71)" fill="#E2E2E2">
                <path d="M.388 7.035a.655.655 0 0 1-.005-1.192L8.404.88a.716.716 0 0 1 .309-.072.68.68 0 0 1 .696.664l.044 9.838a.646.646 0 0 1-.071.298.705.705 0 0 1-.928.302L.388 7.035z"/>
                <rect x="5.693" y="4.842" width="15.467" height="3.437" rx="1.289"/>
            </g>
            <path d="M666.814 290.442h44.683a4.296 4.296 0 0 1 4.297 4.297v11.17a4.296 4.296 0 0 1-4.297 4.297h-48.98v-15.467a4.296 4.296 0 0 1 4.297-4.297z" fill="#E3E5EF"/>
            <path d="M675.294 305.251c.711 0 1.348-.188 1.91-.564a3.817 3.817 0 0 0 1.307-1.493c.31-.619.464-1.278.464-1.98 0-.721-.147-1.39-.441-2.003a3.62 3.62 0 0 0-1.276-1.477c-.557-.371-1.206-.557-1.949-.557-.567 0-1.067.114-1.5.34a2.969 2.969 0 0 0-1.037.867v-4.16h-1.515v10.826h1.252l.202-1.036c.257.35.603.644 1.036.882.433.237.949.355 1.547.355zm-.186-1.36c-.69 0-1.255-.253-1.694-.759-.438-.505-.657-1.144-.657-1.918 0-.783.22-1.425.657-1.925.439-.5 1.003-.75 1.694-.75.443 0 .846.113 1.206.34.361.227.642.544.843.951.201.407.302.869.302 1.384 0 .506-.1.962-.302 1.37a2.348 2.348 0 0 1-.843.958c-.36.232-.763.348-1.206.348zm7.811 1.376c1.041 0 1.794-.32 2.258-.96l.155.743h1.284v-5.073c0-.907-.286-1.598-.859-2.073-.572-.474-1.327-.711-2.266-.711-1.69 0-2.722.768-3.093 2.304l1.345.325c.073-.443.245-.786.519-1.028.273-.243.672-.364 1.198-.364 1.093 0 1.64.521 1.64 1.562v.17l-1.84.264c-1.073.154-1.839.445-2.298.873-.458.428-.688.972-.688 1.632 0 .444.108.843.325 1.199.216.356.526.634.928.835.402.201.866.302 1.392.302zm.371-1.253c-.474 0-.85-.106-1.129-.317a1.006 1.006 0 0 1-.418-.843c0-.382.137-.668.41-.859.274-.19.684-.327 1.23-.41l1.717-.262v1.005c0 .547-.175.964-.526 1.253-.35.289-.779.433-1.284.433zm7.889 1.253c.433 0 .796-.065 1.09-.194.294-.128.508-.27.642-.425l-.696-1.083a1.006 1.006 0 0 1-.743.294c-.536 0-.804-.299-.804-.897v-4.207h2.073v-1.361h-2.073v-1.995h-1.516v1.995h-1.376v1.361h1.376v4.393c0 .66.189 1.178.565 1.554.376.377.863.565 1.462.565zm6.62 0c.814 0 1.513-.217 2.095-.65a3.723 3.723 0 0 0 1.276-1.717l-1.376-.464a2.144 2.144 0 0 1-.758 1.052c-.35.258-.763.387-1.237.387-.464 0-.877-.114-1.238-.34a2.36 2.36 0 0 1-.85-.944 2.94 2.94 0 0 1-.31-1.361c0-.505.103-.962.31-1.369.206-.407.49-.724.85-.951.361-.227.774-.34 1.238-.34.484 0 .902.128 1.252.386.351.258.599.614.743 1.067l1.392-.464a3.419 3.419 0 0 0-1.237-1.732c-.588-.433-1.305-.65-2.15-.65-.774 0-1.457.183-2.05.55a3.758 3.758 0 0 0-1.376 1.477 4.292 4.292 0 0 0-.488 2.026c0 .722.16 1.392.48 2.01.32.62.776 1.112 1.369 1.478.593.366 1.28.549 2.065.549zm6.573-.217v-4.253c0-.68.188-1.217.565-1.609a1.828 1.828 0 0 1 1.369-.588c.515 0 .917.142 1.206.426.289.283.433.776.433 1.477v4.547h1.516v-4.81c0-1.031-.235-1.8-.704-2.305-.469-.505-1.126-.758-1.972-.758-1.031 0-1.835.382-2.413 1.145v-4.099h-1.5v10.827h1.5z" fill="#626577"/>
        </g>
        <g fill-rule="nonzero">
            <g transform="matrix(0 -1 -1 0 395.706 39.098)" fill="#E2E2E2">
                <path d="M.388 7.035a.655.655 0 0 1-.005-1.192L8.404.88a.716.716 0 0 1 .309-.072.68.68 0 0 1 .696.664l.044 9.838a.646.646 0 0 1-.071.298.705.705 0 0 1-.928.302L.388 7.035z"/>
                <rect x="5.693" y="4.842" width="15.467" height="3.437" rx="1.289"/>
            </g>
            <g transform="translate(316.221)">
                <rect fill="#E3E5EF" width="145.221" height="19.764" rx="4.296"/>
                <path d="M11.446 14.825c.433 0 .796-.065 1.09-.194.294-.129.508-.27.642-.425l-.696-1.083a1.006 1.006 0 0 1-.742.294c-.536 0-.805-.299-.805-.897V8.313h2.073V6.952h-2.073V4.956H9.42v1.996H8.043v1.36H9.42v4.394c0 .66.188 1.178.564 1.554.377.376.864.565 1.462.565zm6.65 0c.774 0 1.46-.186 2.058-.557a3.853 3.853 0 0 0 1.392-1.485c.33-.619.495-1.284.495-1.995 0-.722-.165-1.392-.495-2.011a3.853 3.853 0 0 0-1.392-1.485c-.598-.371-1.284-.557-2.057-.557a3.835 3.835 0 0 0-3.45 2.042 4.207 4.207 0 0 0-.494 2.01c0 .712.162 1.377.487 1.996a3.778 3.778 0 0 0 1.392 1.485c.603.371 1.291.557 2.065.557zm0-1.392c-.463 0-.88-.114-1.252-.34a2.322 2.322 0 0 1-.866-.944 2.94 2.94 0 0 1-.31-1.361c0-.506.104-.96.31-1.362.206-.402.495-.719.866-.95a2.315 2.315 0 0 1 1.253-.349c.464 0 .879.116 1.245.348.366.232.655.55.866.951.211.403.317.856.317 1.362 0 .495-.106.946-.317 1.353-.211.407-.5.724-.866.951-.366.227-.781.34-1.245.34zm7.116 1.175v-2.66l.866-.913 2.521 3.573h1.732l-3.248-4.625 2.893-3.031H28.12l-2.908 3.031V3.781h-1.516v10.827h1.516zm9.852.217c.877 0 1.604-.204 2.181-.611.578-.408.98-.931 1.207-1.57l-1.3-.418c-.123.361-.368.673-.734.936s-.817.394-1.354.394c-.443 0-.84-.105-1.19-.317a2.316 2.316 0 0 1-.828-.843 2.673 2.673 0 0 1-.348-1.144h5.955v-.604c0-.773-.15-1.454-.449-2.041a3.305 3.305 0 0 0-1.26-1.37c-.542-.324-1.173-.486-1.895-.486-.712 0-1.359.178-1.941.533a3.81 3.81 0 0 0-1.377 1.454 4.173 4.173 0 0 0-.502 2.034c0 .753.162 1.439.487 2.057a3.684 3.684 0 0 0 1.36 1.462c.584.356 1.246.534 1.988.534zm2.228-4.764h-4.579a2.496 2.496 0 0 1 .758-1.454c.413-.392.944-.588 1.593-.588.65 0 1.173.204 1.57.61.397.408.617.885.658 1.432zm4.532 4.547v-4.269c0-.68.185-1.214.557-1.6.37-.387.83-.58 1.376-.58.516 0 .918.14 1.207.425.288.283.433.775.433 1.477v4.547h1.515v-4.81c0-1.031-.237-1.8-.711-2.305-.474-.505-1.134-.758-1.98-.758-1.031 0-1.84.397-2.428 1.191l-.232-.974h-1.253v7.656h1.516zm14.137.217c.433 0 .796-.065 1.09-.194.294-.129.508-.27.642-.425l-.696-1.083a1.006 1.006 0 0 1-.742.294c-.536 0-.805-.299-.805-.897V8.313h2.073V6.952H55.45V4.956h-1.515v1.996h-1.377v1.36h1.377v4.394c0 .66.188 1.178.564 1.554.377.376.864.565 1.462.565zm4.578-.217V10.37c0-.67.168-1.204.503-1.6.335-.398.755-.596 1.26-.596.227 0 .426.028.596.085.17.056.302.12.394.193l.588-1.33a2.117 2.117 0 0 0-.572-.27 2.589 2.589 0 0 0-.804-.117c-.454 0-.854.114-1.2.34a2.41 2.41 0 0 0-.796.836l-.232-.96h-1.253v7.657h1.516zm6.76.217c1.04 0 1.794-.32 2.258-.96l.154.743h1.284V9.535c0-.908-.286-1.599-.858-2.073-.573-.474-1.328-.711-2.266-.711-1.691 0-2.723.768-3.094 2.304l1.346.325c.072-.443.245-.786.518-1.028.273-.243.673-.364 1.199-.364 1.093 0 1.64.52 1.64 1.562v.17l-1.841.263c-1.073.155-1.838.446-2.297.874-.46.428-.689.972-.689 1.632 0 .443.109.843.325 1.199.217.355.526.634.928.835.402.201.866.302 1.392.302zm.37-1.253c-.474 0-.85-.106-1.129-.317a1.006 1.006 0 0 1-.417-.843c0-.382.136-.668.41-.859.273-.19.683-.327 1.23-.41l1.716-.263v1.006c0 .546-.175.964-.526 1.253-.35.288-.778.433-1.283.433zm6.698 1.036v-4.269c0-.68.186-1.214.557-1.6.371-.387.83-.58 1.376-.58.516 0 .918.14 1.207.425.289.283.433.775.433 1.477v4.547h1.516v-4.81c0-1.031-.237-1.8-.712-2.305-.474-.505-1.134-.758-1.98-.758-1.03 0-1.84.397-2.428 1.191l-.232-.974h-1.253v7.656h1.516zm9.9.217c.576 0 1.097-.101 1.561-.302.464-.201.825-.482 1.083-.843.258-.36.387-.768.387-1.222 0-.711-.238-1.245-.712-1.6-.474-.357-1.165-.622-2.072-.797-.578-.103-1.006-.23-1.284-.38-.279-.149-.418-.373-.418-.672 0-.268.119-.498.356-.688.237-.191.603-.287 1.098-.287.454 0 .802.122 1.044.364s.41.56.503.951l1.345-.387c-.154-.7-.482-1.245-.982-1.631-.5-.387-1.137-.58-1.91-.58-.845 0-1.539.214-2.08.642a2.038 2.038 0 0 0-.812 1.678c0 .711.252 1.235.758 1.57.505.335 1.211.585 2.119.75.639.113 1.067.26 1.283.44.217.181.325.395.325.643 0 .33-.147.59-.44.78-.295.191-.679.287-1.153.287-.546 0-.951-.134-1.214-.402s-.456-.62-.58-1.052l-1.361.417c.206.753.577 1.328 1.113 1.725.537.397 1.217.596 2.042.596zm6.975 0c1.041 0 1.794-.32 2.258-.96l.155.743h1.284V9.535c0-.908-.287-1.599-.859-2.073-.572-.474-1.328-.711-2.266-.711-1.691 0-2.722.768-3.093 2.304l1.345.325c.072-.443.245-.786.518-1.028.274-.243.673-.364 1.2-.364 1.092 0 1.639.52 1.639 1.562v.17l-1.84.263c-1.073.155-1.839.446-2.298.874-.459.428-.688.972-.688 1.632 0 .443.108.843.325 1.199.216.355.526.634.928.835.402.201.866.302 1.392.302zm.371-1.253c-.474 0-.85-.106-1.13-.317a1.006 1.006 0 0 1-.417-.843c0-.382.137-.668.41-.859.273-.19.683-.327 1.23-.41l1.717-.263v1.006c0 .546-.176.964-.526 1.253-.35.288-.779.433-1.284.433zm8.74 1.253c.814 0 1.512-.217 2.095-.65a3.723 3.723 0 0 0 1.276-1.717l-1.377-.464a2.144 2.144 0 0 1-.758 1.052c-.35.258-.763.387-1.237.387-.464 0-.876-.114-1.237-.34a2.36 2.36 0 0 1-.851-.944 2.94 2.94 0 0 1-.31-1.361c0-.506.104-.962.31-1.37.206-.407.49-.724.85-.95.362-.227.774-.34 1.238-.34.485 0 .902.128 1.253.386.35.258.598.613.742 1.067l1.392-.464a3.419 3.419 0 0 0-1.237-1.732c-.588-.433-1.304-.65-2.15-.65-.773 0-1.456.183-2.05.55a3.758 3.758 0 0 0-1.376 1.476 4.292 4.292 0 0 0-.487 2.027c0 .721.16 1.392.48 2.01.319.62.775 1.111 1.368 1.477.593.367 1.281.55 2.065.55zm7.78 0c.432 0 .796-.065 1.09-.194.293-.129.507-.27.641-.425l-.696-1.083a1.006 1.006 0 0 1-.742.294c-.536 0-.804-.299-.804-.897V8.313h2.072V6.952h-2.072V4.956h-1.516v1.996h-1.377v1.36h1.377v4.394c0 .66.188 1.178.564 1.554.377.376.864.565 1.462.565zm3.912-9.002a.938.938 0 0 0 .689-.287.957.957 0 0 0 .286-.703c0-.268-.096-.5-.286-.696a.926.926 0 0 0-.689-.294.97.97 0 0 0-.711.294.951.951 0 0 0-.294.696c0 .278.098.513.294.703.196.191.433.287.711.287zm.743 8.785V6.952h-1.516v7.656h1.516zm5.676.217c.774 0 1.46-.186 2.057-.557a3.853 3.853 0 0 0 1.393-1.485c.33-.619.495-1.284.495-1.995 0-.722-.165-1.392-.495-2.011a3.853 3.853 0 0 0-1.393-1.485c-.598-.371-1.283-.557-2.057-.557a3.835 3.835 0 0 0-3.45 2.042 4.207 4.207 0 0 0-.494 2.01c0 .712.163 1.377.487 1.996a3.778 3.778 0 0 0 1.392 1.485c.604.371 1.292.557 2.065.557zm0-1.392c-.464 0-.881-.114-1.253-.34a2.322 2.322 0 0 1-.866-.944 2.94 2.94 0 0 1-.309-1.361c0-.506.103-.96.31-1.362.206-.402.494-.719.865-.95a2.315 2.315 0 0 1 1.253-.349c.464 0 .88.116 1.245.348.367.232.655.55.867.951.211.403.317.856.317 1.362 0 .495-.106.946-.317 1.353-.212.407-.5.724-.867.951-.366.227-.78.34-1.245.34zm7.115 1.175v-4.269c0-.68.186-1.214.557-1.6.371-.387.83-.58 1.377-.58.515 0 .917.14 1.206.425.289.283.433.775.433 1.477v4.547h1.516v-4.81c0-1.031-.237-1.8-.711-2.305-.475-.505-1.135-.758-1.98-.758-1.031 0-1.84.397-2.429 1.191l-.232-.974h-1.252v7.656h1.515zm9.9.217c.577 0 1.098-.101 1.562-.302.464-.201.825-.482 1.082-.843.258-.36.387-.768.387-1.222 0-.711-.237-1.245-.711-1.6-.475-.357-1.166-.622-2.073-.797-.578-.103-1.005-.23-1.284-.38-.278-.149-.418-.373-.418-.672 0-.268.12-.498.356-.688.237-.191.603-.287 1.098-.287.454 0 .802.122 1.044.364.243.242.41.56.503.951l1.346-.387c-.155-.7-.482-1.245-.982-1.631-.5-.387-1.137-.58-1.91-.58-.846 0-1.54.214-2.081.642a2.038 2.038 0 0 0-.812 1.678c0 .711.253 1.235.758 1.57.505.335 1.212.585 2.119.75.64.113 1.067.26 1.284.44.216.181.325.395.325.643 0 .33-.147.59-.441.78-.294.191-.678.287-1.153.287-.546 0-.95-.134-1.214-.402-.263-.268-.456-.62-.58-1.052l-1.36.417c.205.753.577 1.328 1.113 1.725s1.216.596 2.041.596z" fill="#626577"/>
            </g>
        </g>
        <path d="M387.899 443.398c7.114.02 13.578.658 14.15.852.266.091.491 4.27.657 8.824l.025.703.035 1.06.023.704c.136 4.334.215 8.405.221 9.042v.03l-.004.269a5.73 5.73 0 0 1-.422 1.936l-.115.263c-3.865 8.054-14.004 12.337-14.004 12.337-.142.044-.29.067-.439.07h-.483a1.704 1.704 0 0 1-.454-.07s-10.44-4.273-14.44-12.309a5.708 5.708 0 0 1-.573-2.55v.024c.006-.637.085-4.708.22-9.042l.023-.705c.169-5.177.417-10.483.718-10.586.581-.197 7.253-.853 14.506-.853h.356zm5.442 10.003c-3.846 2.37-6.7 5.366-7.971 6.8l-2.699-2.152c-.34-.25-.589 0-1.333.624-.372.312-.807.717-.93.873-.249.281-.125.53 0 .624l5.52 5.647c.124.125.28.218.466.218.03 0 .093 0 .155-.03a.633.633 0 0 0 .434-.406c.868-2.247 3.753-6.957 7.475-10.389a.583.583 0 0 0 .155-.717l-.03-.063c-.59-.936-.838-1.279-1.242-1.03z" fill="#8248E5" fill-rule="nonzero"/>
        <path d="M388.402 380.668c-1.035 0-39.528-16.688-39.528-18.768V320.38c0-1.384 12.17-7.446 36.507-18.188 1.892-.77 42.549 16.115 42.549 18.188V361.9c0 2.078-38.493 18.768-39.528 18.768z" stroke="#8248E5" stroke-width="3.437" stroke-linecap="round" stroke-linejoin="round" stroke-dasharray="0,8.59296507699149"/>
        <g fill-rule="nonzero">
            <path d="M134.06 355.57c.033 0 .148.103.372.192l22.873 9.29a2.317 2.317 0 0 0 1.617 0l22.867-9.29h.002c.265-.106.38-.233.397-.268l-.017-28.796c0 .051-.114-.073-.385-.183l-22.868-9.287a2.298 2.298 0 0 0-1.613 0l-22.872 9.287c-.266.11-.381.236-.4.272l.017 28.795c0-.009.004-.012.01-.012z" fill="#5365BC" opacity=".2"/>
            <path d="M158.11 368.638c-.72 0-1.44-.132-2.098-.399l-22.873-9.29c-1.557-.631-2.526-1.92-2.526-3.367v-28.884c0-1.444.968-2.733 2.526-3.365l22.87-9.288a5.69 5.69 0 0 1 4.202 0l22.869 9.288c1.56.632 2.528 1.923 2.528 3.365v28.884c0 1.445-.968 2.736-2.53 3.367l-22.867 9.289c-.659.266-1.38.4-2.1.4zm-24.05-13.068c.033 0 .148.103.372.192l22.873 9.29a2.317 2.317 0 0 0 1.617 0l22.867-9.29h.002c.265-.106.38-.233.397-.268l-.017-28.796c0 .051-.114-.073-.385-.183l-22.868-9.287a2.298 2.298 0 0 0-1.613 0l-22.872 9.287c-.266.11-.381.236-.4.272l.017 28.795c0-.009.004-.012.01-.012z" fill="#B4B5DF"/>
            <path d="M158.11 368.638a1.718 1.718 0 0 1-1.718-1.718v-29.772l-23.706-9.481a1.719 1.719 0 0 1 1.277-3.191l24.787 9.914c.651.26 1.08.892 1.08 1.595v30.935c0 .95-.77 1.718-1.72 1.718z" fill="#B4B5DF"/>
            <path fill="#B4B5DF" d="m133.08 325.827 25.03 10.001 24.974-10.001-24.973-10.631z"/>
            <path fill="#B4B5DF" d="m158.54 334.696-.43 32.408 26.506-10.572v-31.02z"/>
            <path d="M158.11 337.704a1.718 1.718 0 0 1-.64-3.315l24.789-9.915a1.726 1.726 0 0 1 2.234.957 1.72 1.72 0 0 1-.96 2.234l-24.785 9.915a1.696 1.696 0 0 1-.637.124z" fill="#9A9CD6"/>
        </g>
        <path fill="#E3E5EF" fill-rule="nonzero" d="M185.608 343.719h60.151v3.437h-60.151zM70.462 343.719h60.151v3.437H70.462zM531.045 343.719h60.151v3.437h-60.151zM646.191 343.719h60.151v3.437h-60.151z"/>
        <g fill-rule="nonzero">
            <path d="M202.808 601.556c.043 0 .197.137.495.256l30.497 12.386c.644.259 1.51.259 2.156 0l30.49-12.386h.002c.353-.142.507-.311.53-.357l-.023-38.396c0 .069-.151-.096-.514-.243l-30.49-12.383c-.644-.259-1.507-.261-2.151 0l-30.495 12.383c-.355.147-.509.314-.534.362l.023 38.394c0-.012.005-.016.014-.016z" fill="#5365BC" opacity=".2"/>
            <path d="M234.874 618.98c-.96 0-1.92-.177-2.797-.532l-30.498-12.387c-2.076-.841-3.368-2.56-3.368-4.49V563.06c0-1.925 1.29-3.643 3.368-4.486l30.493-12.384c1.755-.714 3.85-.714 5.603 0l30.492 12.384c2.08.843 3.37 2.564 3.37 4.486v38.513c0 1.927-1.29 3.648-3.372 4.489l-30.49 12.385a7.503 7.503 0 0 1-2.8.534zm-32.066-17.424c.043 0 .197.137.495.256l30.497 12.386c.644.259 1.51.259 2.156 0l30.49-12.386h.002c.353-.142.507-.311.53-.357l-.023-38.396c0 .069-.151-.096-.514-.243l-30.49-12.383c-.644-.259-1.507-.261-2.151 0l-30.495 12.383c-.355.147-.509.314-.534.362l.023 38.394c0-.012.005-.016.014-.016z" fill="#B4B5DF"/>
            <path d="M234.874 618.98a2.29 2.29 0 0 1-2.291-2.292v-39.694l-31.608-12.642a2.292 2.292 0 0 1 1.702-4.256l33.05 13.22a2.289 2.289 0 0 1 1.439 2.126v41.246a2.29 2.29 0 0 1-2.292 2.292z" fill="#B4B5DF"/>
            <path fill="#B4B5DF" d="m201.5 561.898 33.374 13.335 33.299-13.335-33.299-14.175z"/>
            <path fill="#B4B5DF" d="m235.447 573.724-.573 43.21 35.34-14.096v-41.36z"/>
            <path d="M234.874 577.734a2.291 2.291 0 0 1-.852-4.42l33.05-13.22c1.164-.463 2.509.1 2.979 1.276a2.292 2.292 0 0 1-1.28 2.98l-33.046 13.219a2.262 2.262 0 0 1-.85.165z" fill="#9A9CD6"/>
        </g>
        <path fill="#E3E5EF" fill-rule="nonzero" d="M81.347 585.754h116.864v4.583H81.347zM271.538 585.754h80.201v4.583h-80.201z"/>
        <g fill-rule="nonzero">
            <path d="M355.808 601.556c.043 0 .197.137.495.256l30.497 12.386c.644.259 1.51.259 2.156 0l30.49-12.386h.002c.353-.142.507-.311.53-.357l-.023-38.396c0 .069-.151-.096-.514-.243l-30.49-12.383c-.644-.259-1.507-.261-2.151 0l-30.495 12.383c-.355.147-.509.314-.534.362l.023 38.394c0-.012.005-.016.014-.016z" fill="#5365BC" opacity=".2"/>
            <path d="M387.874 618.98c-.96 0-1.92-.177-2.797-.532l-30.498-12.387c-2.076-.841-3.368-2.56-3.368-4.49V563.06c0-1.925 1.29-3.643 3.368-4.486l30.493-12.384c1.755-.714 3.85-.714 5.603 0l30.492 12.384c2.08.843 3.37 2.564 3.37 4.486v38.513c0 1.927-1.29 3.648-3.372 4.489l-30.49 12.385a7.503 7.503 0 0 1-2.8.534zm-32.066-17.424c.043 0 .197.137.495.256l30.497 12.386c.644.259 1.51.259 2.156 0l30.49-12.386h.002c.353-.142.507-.311.53-.357l-.023-38.396c0 .069-.151-.096-.514-.243l-30.49-12.383c-.644-.259-1.507-.261-2.151 0l-30.495 12.383c-.355.147-.509.314-.534.362l.023 38.394c0-.012.005-.016.014-.016z" fill="#B4B5DF"/>
            <path d="M387.874 618.98a2.29 2.29 0 0 1-2.291-2.292v-39.694l-31.608-12.642a2.292 2.292 0 0 1 1.702-4.256l33.05 13.22a2.289 2.289 0 0 1 1.439 2.126v41.246a2.29 2.29 0 0 1-2.292 2.292z" fill="#B4B5DF"/>
            <path fill="#B4B5DF" d="m354.5 561.898 33.374 13.335 33.299-13.335-33.299-14.175z"/>
            <path fill="#B4B5DF" d="m388.447 573.724-.573 43.21 35.34-14.096v-41.36z"/>
            <path d="M387.874 577.734a2.291 2.291 0 0 1-.852-4.42l33.05-13.22c1.164-.463 2.509.1 2.979 1.276a2.292 2.292 0 0 1-1.28 2.98l-33.046 13.219a2.262 2.262 0 0 1-.85.165z" fill="#9A9CD6"/>
        </g>
        <path fill="#E3E5EF" fill-rule="nonzero" d="M425.065 585.754h80.201v4.583h-80.201zM578.593 585.754h127.176v4.583H578.593z"/>
        <path d="M426.928 231.367c1.041 0 1.794-.32 2.258-.959l.155.743h1.283v-5.074c0-.907-.286-1.598-.858-2.072-.572-.474-1.328-.712-2.266-.712-1.691 0-2.722.769-3.093 2.305l1.345.325c.072-.444.245-.786.518-1.029.274-.242.673-.363 1.2-.363 1.092 0 1.639.52 1.639 1.562v.17l-1.841.263c-1.072.155-1.838.446-2.297.874-.459.428-.688.972-.688 1.632 0 .443.108.843.325 1.198.216.356.525.635.928.836.402.2.866.301 1.392.301zm.37-1.253c-.473 0-.85-.105-1.128-.317a1.006 1.006 0 0 1-.418-.843c0-.381.137-.667.41-.858.273-.19.683-.327 1.23-.41l1.717-.263v1.006c0 .546-.176.964-.526 1.252-.35.29-.779.433-1.284.433zm6.698 1.037v-4.238c0-.67.168-1.204.503-1.601.335-.397.755-.596 1.26-.596.227 0 .426.029.596.085.17.057.302.122.394.194l.588-1.33a2.117 2.117 0 0 0-.572-.271 2.589 2.589 0 0 0-.804-.116c-.454 0-.854.113-1.2.34a2.41 2.41 0 0 0-.796.835l-.232-.959h-1.253v7.657h1.516zm7.95.216c.877 0 1.604-.203 2.181-.61.578-.408.98-.931 1.207-1.57l-1.3-.418c-.123.36-.368.673-.734.936s-.817.394-1.354.394c-.443 0-.84-.106-1.19-.317a2.316 2.316 0 0 1-.828-.843 2.673 2.673 0 0 1-.348-1.145h5.955v-.603c0-.773-.15-1.454-.449-2.042a3.305 3.305 0 0 0-1.26-1.368c-.542-.325-1.173-.488-1.895-.488-.711 0-1.359.178-1.941.534a3.81 3.81 0 0 0-1.377 1.454 4.173 4.173 0 0 0-.502 2.034c0 .753.162 1.438.487 2.057a3.684 3.684 0 0 0 1.36 1.462c.584.355 1.246.533 1.988.533zm2.228-4.764h-4.579a2.496 2.496 0 0 1 .758-1.454c.413-.391.944-.587 1.593-.587.65 0 1.173.203 1.57.61.397.408.617.885.658 1.431zm8.863 7.719v-4.161c.257.35.603.64 1.036.866.433.227.933.34 1.5.34.743 0 1.392-.185 1.95-.557a3.62 3.62 0 0 0 1.275-1.477c.294-.613.441-1.28.441-2.003 0-.7-.155-1.36-.464-1.98a3.817 3.817 0 0 0-1.307-1.492 3.354 3.354 0 0 0-1.91-.565c-.598 0-1.114.119-1.547.356a3.12 3.12 0 0 0-1.036.882l-.201-1.037h-1.253v10.828h1.516zm2.335-4.316c-.69 0-1.255-.25-1.694-.75-.438-.5-.657-1.142-.657-1.926 0-.773.22-1.412.657-1.918.439-.505 1.003-.758 1.694-.758.444 0 .846.116 1.207.348.36.232.641.552.843.96.2.407.301.863.301 1.368 0 .516-.1.977-.301 1.385a2.294 2.294 0 0 1-.843.95 2.22 2.22 0 0 1-1.207.341zm7.038 1.145v-4.238c0-.67.167-1.204.502-1.601.336-.397.756-.596 1.261-.596.227 0 .425.029.596.085.17.057.301.122.394.194l.588-1.33a2.117 2.117 0 0 0-.573-.271 2.589 2.589 0 0 0-.804-.116c-.454 0-.853.113-1.199.34a2.41 2.41 0 0 0-.796.835l-.232-.959h-1.253v7.657h1.516zm8.058.216c.774 0 1.46-.185 2.057-.557a3.853 3.853 0 0 0 1.392-1.484c.33-.62.495-1.284.495-1.996 0-.721-.165-1.392-.495-2.01a3.853 3.853 0 0 0-1.392-1.485c-.598-.372-1.283-.557-2.057-.557a3.835 3.835 0 0 0-3.45 2.042 4.207 4.207 0 0 0-.494 2.01c0 .712.162 1.377.487 1.996a3.778 3.778 0 0 0 1.392 1.484c.604.372 1.292.557 2.065.557zm0-1.392c-.464 0-.881-.113-1.253-.34a2.322 2.322 0 0 1-.866-.944 2.94 2.94 0 0 1-.31-1.36c0-.506.104-.96.31-1.362.206-.402.495-.719.866-.951a2.315 2.315 0 0 1 1.253-.348c.464 0 .88.116 1.245.348.366.232.655.549.867.951.21.402.317.856.317 1.361 0 .495-.106.946-.317 1.354-.212.407-.5.724-.867.951-.366.227-.78.34-1.245.34zm9.157 1.392c.815 0 1.513-.216 2.096-.65a3.723 3.723 0 0 0 1.276-1.716l-1.377-.464a2.144 2.144 0 0 1-.758 1.052c-.35.257-.763.386-1.237.386-.464 0-.877-.113-1.237-.34a2.36 2.36 0 0 1-.851-.944 2.94 2.94 0 0 1-.31-1.36c0-.506.104-.962.31-1.37.206-.407.49-.724.85-.95.361-.228.774-.341 1.238-.341.485 0 .902.129 1.253.387.35.257.598.613.742 1.067l1.392-.464a3.419 3.419 0 0 0-1.237-1.732c-.588-.434-1.305-.65-2.15-.65-.773 0-1.457.183-2.05.549a3.758 3.758 0 0 0-1.376 1.477 4.292 4.292 0 0 0-.487 2.026c0 .722.16 1.392.48 2.011.319.619.775 1.111 1.368 1.477.593.366 1.281.55 2.065.55zm8.553 0c.877 0 1.604-.203 2.181-.61.578-.408.98-.931 1.207-1.57l-1.3-.418c-.123.36-.368.673-.734.936s-.817.394-1.354.394c-.443 0-.84-.106-1.19-.317a2.316 2.316 0 0 1-.828-.843 2.673 2.673 0 0 1-.348-1.145h5.955v-.603c0-.773-.15-1.454-.449-2.042a3.305 3.305 0 0 0-1.26-1.368c-.542-.325-1.173-.488-1.895-.488-.712 0-1.359.178-1.941.534a3.81 3.81 0 0 0-1.377 1.454 4.173 4.173 0 0 0-.503 2.034c0 .753.163 1.438.488 2.057a3.684 3.684 0 0 0 1.36 1.462c.583.355 1.246.533 1.988.533zm2.228-4.764h-4.579a2.496 2.496 0 0 1 .758-1.454c.413-.391.944-.587 1.593-.587.65 0 1.173.203 1.57.61.397.408.616.885.658 1.431zm5.815 4.764c.578 0 1.099-.1 1.563-.301.464-.201.825-.482 1.082-.843.258-.361.387-.768.387-1.222 0-.712-.237-1.245-.712-1.601-.474-.356-1.165-.621-2.072-.797-.578-.103-1.006-.23-1.284-.379-.278-.15-.418-.373-.418-.672 0-.269.119-.498.356-.689.237-.19.603-.286 1.098-.286.454 0 .802.121 1.044.364.243.242.41.559.503.95l1.346-.386c-.155-.701-.482-1.245-.982-1.632-.5-.386-1.137-.58-1.91-.58-.846 0-1.54.214-2.081.642a2.038 2.038 0 0 0-.812 1.678c0 .712.253 1.235.758 1.57.505.336 1.211.586 2.119.75.64.114 1.067.26 1.284.441.216.18.325.395.325.642 0 .33-.147.59-.441.781-.294.191-.678.287-1.153.287-.546 0-.95-.135-1.214-.403-.263-.268-.456-.618-.58-1.051l-1.361.417c.206.753.577 1.328 1.114 1.725.536.397 1.216.595 2.041.595zm7.487 0c.577 0 1.098-.1 1.562-.301.464-.201.825-.482 1.082-.843.258-.361.387-.768.387-1.222 0-.712-.237-1.245-.711-1.601-.475-.356-1.166-.621-2.073-.797-.577-.103-1.005-.23-1.284-.379-.278-.15-.417-.373-.417-.672 0-.269.118-.498.355-.689.238-.19.604-.286 1.099-.286.453 0 .801.121 1.044.364.242.242.41.559.502.95l1.346-.386c-.155-.701-.482-1.245-.982-1.632-.5-.386-1.137-.58-1.91-.58-.846 0-1.54.214-2.08.642a2.038 2.038 0 0 0-.813 1.678c0 .712.253 1.235.758 1.57.505.336 1.212.586 2.12.75.638.114 1.066.26 1.283.441.216.18.325.395.325.642 0 .33-.147.59-.441.781-.294.191-.678.287-1.152.287-.547 0-.952-.135-1.215-.403-.263-.268-.456-.618-.58-1.051l-1.36.417c.205.753.577 1.328 1.113 1.725s1.217.595 2.042.595zm8.166 0c.877 0 1.604-.203 2.181-.61.578-.408.98-.931 1.207-1.57l-1.3-.418c-.123.36-.368.673-.734.936s-.817.394-1.354.394c-.443 0-.84-.106-1.19-.317a2.316 2.316 0 0 1-.828-.843 2.673 2.673 0 0 1-.348-1.145h5.955v-.603c0-.773-.15-1.454-.449-2.042a3.305 3.305 0 0 0-1.26-1.368c-.542-.325-1.173-.488-1.895-.488-.712 0-1.359.178-1.941.534a3.81 3.81 0 0 0-1.377 1.454 4.173 4.173 0 0 0-.503 2.034c0 .753.163 1.438.488 2.057a3.684 3.684 0 0 0 1.36 1.462c.583.355 1.246.533 1.988.533zm2.228-4.764h-4.579a2.496 2.496 0 0 1 .758-1.454c.413-.391.944-.587 1.593-.587.65 0 1.173.203 1.57.61.397.408.616.885.658 1.431zm6.341 4.749c.598 0 1.114-.119 1.547-.356a3.12 3.12 0 0 0 1.036-.882l.201 1.037h1.253v-10.827h-1.516v4.16a2.969 2.969 0 0 0-1.036-.866c-.433-.227-.933-.34-1.5-.34-.743 0-1.392.185-1.95.557a3.62 3.62 0 0 0-1.275 1.477 4.576 4.576 0 0 0-.441 2.003c0 .701.155 1.361.464 1.98.31.618.745 1.116 1.307 1.492a3.354 3.354 0 0 0 1.91.565zm.186-1.361c-.454 0-.859-.116-1.214-.348a2.369 2.369 0 0 1-.836-.96 3.05 3.05 0 0 1-.301-1.368c0-.516.1-.977.301-1.384.201-.408.48-.725.836-.952a2.21 2.21 0 0 1 1.214-.34c.69 0 1.253.25 1.686.75.433.5.65 1.142.65 1.926s-.217 1.425-.65 1.926c-.433.5-.995.75-1.686.75zm11.044-7.626a.938.938 0 0 0 .688-.286.957.957 0 0 0 .286-.704c0-.268-.095-.5-.286-.696a.926.926 0 0 0-.688-.294.97.97 0 0 0-.712.294.951.951 0 0 0-.294.696c0 .279.098.513.294.704.196.19.433.286.712.286zm.742 8.786v-7.657h-1.516v7.657h1.516zm3.604 0v-4.27c0-.68.185-1.213.557-1.6.37-.387.83-.58 1.376-.58.516 0 .918.142 1.207.425.288.284.433.776.433 1.477v4.548h1.516v-4.81c0-1.032-.238-1.8-.712-2.305-.474-.505-1.134-.758-1.98-.758-1.03 0-1.84.397-2.428 1.19l-.232-.974h-1.253v7.657h1.516zm13.72.216c1.04 0 1.794-.32 2.258-.959l.154.743h1.284v-5.074c0-.907-.286-1.598-.858-2.072-.573-.474-1.328-.712-2.266-.712-1.691 0-2.723.769-3.094 2.305l1.346.325c.072-.444.245-.786.518-1.029.273-.242.673-.363 1.199-.363 1.093 0 1.64.52 1.64 1.562v.17l-1.841.263c-1.073.155-1.838.446-2.297.874-.46.428-.689.972-.689 1.632 0 .443.109.843.325 1.198.217.356.526.635.928.836.402.2.866.301 1.392.301zm.37-1.253c-.474 0-.85-.105-1.129-.317a1.006 1.006 0 0 1-.417-.843c0-.381.136-.667.41-.858.273-.19.683-.327 1.23-.41l1.716-.263v1.006c0 .546-.175.964-.526 1.252-.35.29-.778.433-1.283.433zm12.313 1.253c.577 0 1.098-.1 1.562-.301.464-.201.825-.482 1.082-.843.258-.361.387-.768.387-1.222 0-.712-.237-1.245-.711-1.601-.475-.356-1.166-.621-2.073-.797-.577-.103-1.005-.23-1.284-.379-.278-.15-.417-.373-.417-.672 0-.269.118-.498.355-.689.238-.19.604-.286 1.099-.286.453 0 .801.121 1.044.364.242.242.41.559.502.95l1.346-.386c-.155-.701-.482-1.245-.982-1.632-.5-.386-1.137-.58-1.91-.58-.846 0-1.54.214-2.08.642a2.038 2.038 0 0 0-.813 1.678c0 .712.253 1.235.758 1.57.505.336 1.212.586 2.12.75.638.114 1.066.26 1.283.441.216.18.325.395.325.642 0 .33-.147.59-.441.781-.294.191-.678.287-1.152.287-.547 0-.952-.135-1.215-.403-.263-.268-.456-.618-.58-1.051l-1.36.417c.205.753.577 1.328 1.113 1.725s1.217.595 2.042.595zm5.537-9.002a.938.938 0 0 0 .688-.286.957.957 0 0 0 .286-.704c0-.268-.095-.5-.286-.696a.926.926 0 0 0-.688-.294.97.97 0 0 0-.712.294.951.951 0 0 0-.293.696c0 .279.097.513.293.704.196.19.433.286.712.286zm.742 8.786v-7.657h-1.515v7.657h1.515zm3.604 0v-4.27c0-.68.186-1.213.557-1.6.371-.387.83-.58 1.377-.58.515 0 .917.142 1.206.425.289.284.433.776.433 1.477v4.548h1.516v-4.81c0-1.032-.237-1.8-.712-2.305-.474-.505-1.134-.758-1.98-.758-1.03 0-1.84.397-2.428 1.19l-.232-.974h-1.253v7.657h1.516zm10.549 3.372c.845 0 1.554-.155 2.127-.464.572-.31 1-.73 1.283-1.261a3.732 3.732 0 0 0 .426-1.786v-7.518h-1.268l-.248 1.006a2.799 2.799 0 0 0-.982-.874c-.418-.232-.926-.348-1.524-.348-.711 0-1.343.183-1.894.549-.552.366-.977.85-1.276 1.454a4.345 4.345 0 0 0-.449 1.957c0 .7.147 1.35.44 1.948a3.53 3.53 0 0 0 1.261 1.431c.547.356 1.191.534 1.934.534.577 0 1.083-.121 1.516-.364.433-.242.757-.539.974-.89v1.145c0 .691-.198 1.228-.595 1.61-.397.38-.972.571-1.725.571-1.103 0-1.784-.5-2.042-1.5l-1.423.34c.217.753.611 1.351 1.183 1.795.573.443 1.333.665 2.282.665zm.03-4.733c-.69 0-1.25-.235-1.677-.704-.428-.47-.642-1.085-.642-1.848 0-.774.214-1.4.642-1.88.428-.48.982-.719 1.662-.719.681 0 1.235.24 1.663.72.428.479.642 1.105.642 1.879 0 .763-.214 1.379-.642 1.848-.428.469-.977.704-1.647.704zm7.332 1.36v-10.826h-1.515v10.827h1.515zm5.491.217c.877 0 1.604-.203 2.181-.61.578-.408.98-.931 1.207-1.57l-1.3-.418c-.123.36-.368.673-.734.936s-.818.394-1.354.394c-.443 0-.84-.106-1.19-.317a2.316 2.316 0 0 1-.828-.843 2.673 2.673 0 0 1-.348-1.145h5.955v-.603c0-.773-.15-1.454-.449-2.042a3.305 3.305 0 0 0-1.26-1.368c-.542-.325-1.173-.488-1.895-.488-.712 0-1.359.178-1.941.534a3.81 3.81 0 0 0-1.377 1.454 4.173 4.173 0 0 0-.503 2.034c0 .753.163 1.438.488 2.057a3.684 3.684 0 0 0 1.36 1.462c.583.355 1.246.533 1.988.533zm2.228-4.764h-4.579a2.496 2.496 0 0 1 .758-1.454c.413-.391.944-.587 1.593-.587.65 0 1.173.203 1.57.61.397.408.616.885.658 1.431zm11.384 4.749c.711 0 1.348-.188 1.91-.565a3.817 3.817 0 0 0 1.307-1.492c.31-.619.464-1.279.464-1.98 0-.722-.147-1.39-.441-2.003a3.62 3.62 0 0 0-1.276-1.477c-.557-.372-1.207-.557-1.949-.557-.567 0-1.067.113-1.5.34a2.969 2.969 0 0 0-1.037.866v-4.16h-1.515v10.827h1.252l.201-1.037c.258.351.604.645 1.037.882.433.237.948.356 1.547.356zm-.186-1.361c-.69 0-1.255-.253-1.694-.758-.438-.505-.657-1.145-.657-1.918 0-.784.219-1.426.657-1.926.439-.5 1.003-.75 1.694-.75.443 0 .845.113 1.206.34.361.227.642.544.843.952.201.407.302.868.302 1.384 0 .505-.1.961-.302 1.369a2.348 2.348 0 0 1-.843.959c-.36.232-.763.348-1.206.348zm7.81 1.376c1.042 0 1.795-.32 2.26-.959l.154.743h1.284v-5.074c0-.907-.287-1.598-.859-2.072-.572-.474-1.327-.712-2.266-.712-1.69 0-2.722.769-3.093 2.305l1.345.325c.073-.444.245-.786.519-1.029.273-.242.672-.363 1.198-.363 1.093 0 1.64.52 1.64 1.562v.17l-1.84.263c-1.073.155-1.839.446-2.298.874-.459.428-.688.972-.688 1.632 0 .443.108.843.325 1.198.216.356.526.635.928.836.402.2.866.301 1.392.301zm.372-1.253c-.474 0-.85-.105-1.129-.317a1.006 1.006 0 0 1-.418-.843c0-.381.137-.667.41-.858.274-.19.683-.327 1.23-.41l1.717-.263v1.006c0 .546-.175.964-.526 1.252-.35.29-.779.433-1.284.433zm7.888 1.253c.434 0 .797-.064 1.09-.193.295-.129.509-.27.643-.425l-.696-1.083a1.006 1.006 0 0 1-.743.294c-.536 0-.804-.3-.804-.897v-4.207h2.073v-1.362h-2.073V221.5h-1.516v1.995h-1.376v1.362h1.376v4.392c0 .66.188 1.178.565 1.555.376.376.863.564 1.461.564zm6.62 0c.815 0 1.514-.216 2.096-.65a3.723 3.723 0 0 0 1.276-1.716l-1.376-.464a2.144 2.144 0 0 1-.758 1.052c-.35.257-.763.386-1.237.386-.465 0-.877-.113-1.238-.34a2.36 2.36 0 0 1-.85-.944 2.94 2.94 0 0 1-.31-1.36c0-.506.103-.962.31-1.37.206-.407.49-.724.85-.95.361-.228.773-.341 1.238-.341.484 0 .902.129 1.252.387.351.257.598.613.743 1.067l1.392-.464a3.419 3.419 0 0 0-1.238-1.732c-.587-.434-1.304-.65-2.15-.65-.773 0-1.456.183-2.049.549a3.758 3.758 0 0 0-1.376 1.477 4.292 4.292 0 0 0-.488 2.026c0 .722.16 1.392.48 2.011.32.619.776 1.111 1.369 1.477.593.366 1.28.55 2.065.55zm6.574-.216v-4.254c0-.68.188-1.217.565-1.608a1.828 1.828 0 0 1 1.369-.588c.515 0 .917.142 1.206.425.289.284.433.776.433 1.477v4.548h1.516v-4.81c0-1.032-.235-1.8-.704-2.305-.47-.505-1.126-.758-1.972-.758-1.031 0-1.835.381-2.413 1.144v-4.098h-1.5v10.827h1.5zm15.019.216c.773 0 1.459-.185 2.057-.557a3.853 3.853 0 0 0 1.392-1.484c.33-.62.495-1.284.495-1.996 0-.721-.165-1.392-.495-2.01a3.853 3.853 0 0 0-1.392-1.485c-.598-.372-1.284-.557-2.057-.557a3.835 3.835 0 0 0-3.45 2.042 4.207 4.207 0 0 0-.494 2.01c0 .712.162 1.377.487 1.996a3.778 3.778 0 0 0 1.392 1.484c.603.372 1.292.557 2.065.557zm0-1.392c-.464 0-.882-.113-1.253-.34a2.322 2.322 0 0 1-.866-.944 2.94 2.94 0 0 1-.31-1.36c0-.506.104-.96.31-1.362.206-.402.495-.719.866-.951a2.315 2.315 0 0 1 1.253-.348c.464 0 .879.116 1.245.348.366.232.655.549.866.951.212.402.317.856.317 1.361 0 .495-.105.946-.317 1.354-.211.407-.5.724-.866.951-.366.227-.781.34-1.245.34zm7.115 1.176v-4.27c0-.68.186-1.213.557-1.6.37-.387.83-.58 1.376-.58.516 0 .918.142 1.207.425.288.284.433.776.433 1.477v4.548h1.516v-4.81c0-1.032-.238-1.8-.712-2.305-.474-.505-1.134-.758-1.98-.758-1.03 0-1.84.397-2.428 1.19l-.232-.974h-1.253v7.657h1.516zm12.946 0v-10.827h-1.516v10.827h1.516zm4.3.216c1.041 0 1.794-.32 2.258-.959l.155.743h1.284v-5.074c0-.907-.286-1.598-.859-2.072-.572-.474-1.327-.712-2.266-.712-1.69 0-2.722.769-3.093 2.305l1.345.325c.073-.444.245-.786.519-1.029.273-.242.672-.363 1.198-.363 1.093 0 1.64.52 1.64 1.562v.17l-1.84.263c-1.073.155-1.839.446-2.298.874-.459.428-.688.972-.688 1.632 0 .443.108.843.325 1.198.216.356.526.635.928.836.402.2.866.301 1.392.301zm.371-1.253c-.474 0-.85-.105-1.129-.317a1.006 1.006 0 0 1-.418-.843c0-.381.137-.667.41-.858.274-.19.683-.327 1.23-.41l1.717-.263v1.006c0 .546-.175.964-.526 1.252-.35.29-.779.433-1.284.433zm8.476 4.409c.774 0 1.42-.155 1.941-.464.521-.31.91-.73 1.168-1.261.258-.531.387-1.127.387-1.786v-7.518h-1.516v4.037c0 .691-.188 1.23-.564 1.617-.377.386-.859.58-1.447.58-.546 0-.969-.15-1.268-.449-.299-.299-.449-.799-.449-1.5v-4.285h-1.515v4.625c0 1.01.257 1.766.773 2.266s1.18.75 1.995.75c.578 0 1.057-.095 1.439-.286a3.16 3.16 0 0 0 1.036-.858v1.051c0 .681-.167 1.212-.503 1.594-.335.381-.827.572-1.477.572-1.02 0-1.644-.48-1.871-1.439l-1.423.31c.206.753.582 1.348 1.129 1.786.546.439 1.268.658 2.165.658zm8.987-3.156c.876 0 1.603-.203 2.18-.61.578-.408.98-.931 1.207-1.57l-1.3-.418c-.123.36-.368.673-.734.936s-.817.394-1.353.394c-.444 0-.84-.106-1.191-.317a2.316 2.316 0 0 1-.828-.843 2.673 2.673 0 0 1-.348-1.145h5.955v-.603c0-.773-.15-1.454-.448-2.042a3.305 3.305 0 0 0-1.26-1.368c-.542-.325-1.174-.488-1.896-.488-.711 0-1.358.178-1.94.534a3.81 3.81 0 0 0-1.377 1.454 4.173 4.173 0 0 0-.503 2.034c0 .753.162 1.438.487 2.057a3.684 3.684 0 0 0 1.361 1.462c.583.355 1.245.533 1.988.533zm2.227-4.764h-4.578a2.496 2.496 0 0 1 .758-1.454c.412-.391.943-.587 1.593-.587s1.173.203 1.57.61c.397.408.616.885.657 1.431zm4.532 4.548v-4.238c0-.67.168-1.204.503-1.601.335-.397.755-.596 1.26-.596.227 0 .426.029.596.085.17.057.301.122.394.194l.588-1.33a2.117 2.117 0 0 0-.572-.271 2.589 2.589 0 0 0-.805-.116c-.453 0-.853.113-1.198.34a2.41 2.41 0 0 0-.797.835l-.232-.959h-1.253v7.657h1.516zm15.777 0v-1.423h-4.919l2.521-2.228c.526-.453.952-.86 1.276-1.221.325-.361.59-.774.797-1.238.206-.464.31-.985.31-1.562a3.26 3.26 0 0 0-.472-1.732 3.26 3.26 0 0 0-1.3-1.207 3.925 3.925 0 0 0-1.848-.433c-.65 0-1.248.137-1.794.41-.547.273-.988.66-1.323 1.16-.335.5-.518 1.08-.549 1.74l1.439.418c0-.691.211-1.248.634-1.67.423-.424.954-.635 1.593-.635.608 0 1.106.188 1.492.565.387.376.58.843.58 1.4 0 .412-.082.788-.247 1.129-.165.34-.371.644-.619.912a13.38 13.38 0 0 1-1.051.99l-3.62 3.186v1.439h7.1zM428.196 477.985c.815 0 1.513-.216 2.096-.65a3.723 3.723 0 0 0 1.276-1.716l-1.377-.464a2.144 2.144 0 0 1-.758 1.052c-.35.257-.763.386-1.237.386-.464 0-.876-.113-1.237-.34a2.36 2.36 0 0 1-.851-.943 2.94 2.94 0 0 1-.31-1.362c0-.505.104-.961.31-1.368.206-.408.49-.725.85-.952.362-.227.774-.34 1.238-.34.485 0 .902.129 1.253.387.35.258.598.613.742 1.067l1.392-.464a3.419 3.419 0 0 0-1.237-1.732c-.588-.433-1.304-.65-2.15-.65-.773 0-1.456.183-2.05.55a3.758 3.758 0 0 0-1.376 1.476 4.292 4.292 0 0 0-.487 2.026c0 .722.16 1.392.48 2.011.319.619.775 1.111 1.368 1.477.593.366 1.281.55 2.065.55zm8.662 0c.773 0 1.459-.185 2.057-.556a3.853 3.853 0 0 0 1.392-1.485c.33-.619.495-1.284.495-1.996 0-.721-.165-1.392-.495-2.01a3.853 3.853 0 0 0-1.392-1.485c-.598-.371-1.284-.557-2.057-.557a3.835 3.835 0 0 0-3.45 2.042 4.207 4.207 0 0 0-.494 2.01c0 .712.162 1.377.487 1.996a3.778 3.778 0 0 0 1.392 1.485c.603.37 1.291.556 2.065.556zm0-1.392c-.464 0-.882-.113-1.253-.34a2.322 2.322 0 0 1-.866-.943 2.94 2.94 0 0 1-.31-1.362c0-.505.103-.959.31-1.36.206-.403.495-.72.866-.952a2.315 2.315 0 0 1 1.253-.348c.464 0 .879.116 1.245.348.366.232.655.55.866.951.211.402.317.856.317 1.361 0 .495-.106.946-.317 1.354-.211.407-.5.724-.866.951-.366.227-.781.34-1.245.34zm7.115 1.176v-4.27c0-.68.185-1.213.557-1.6.37-.387.83-.58 1.376-.58.516 0 .918.142 1.207.425.288.284.433.776.433 1.477v4.548h1.515v-4.81c0-1.032-.237-1.8-.711-2.305-.474-.505-1.134-.758-1.98-.758-1.031 0-1.84.397-2.428 1.191l-.232-.974h-1.253v7.656h1.516zm9.806.216c.433 0 .797-.064 1.09-.193.294-.129.508-.27.642-.425l-.696-1.083a1.006 1.006 0 0 1-.742.294c-.536 0-.804-.3-.804-.897v-4.207h2.072v-1.361h-2.072v-1.996h-1.516v1.996h-1.377v1.36h1.377v4.393c0 .66.188 1.178.564 1.555.377.376.864.564 1.462.564zm5.352 0c1.041 0 1.794-.32 2.258-.959l.155.743h1.283v-5.073c0-.908-.286-1.599-.858-2.073-.572-.474-1.328-.712-2.266-.712-1.691 0-2.722.769-3.093 2.305l1.345.325c.072-.444.245-.786.518-1.029.274-.242.673-.363 1.2-.363 1.092 0 1.639.52 1.639 1.562v.17l-1.841.263c-1.072.155-1.838.446-2.297.874-.459.428-.688.972-.688 1.632 0 .443.108.843.325 1.199.216.355.525.634.928.835.402.2.866.301 1.392.301zm.37-1.252c-.473 0-.85-.106-1.128-.318a1.006 1.006 0 0 1-.418-.843c0-.381.137-.667.41-.858.273-.19.683-.327 1.23-.41l1.717-.263v1.006c0 .546-.176.964-.526 1.252-.35.29-.779.434-1.284.434zm6.033-7.75a.938.938 0 0 0 .688-.286.957.957 0 0 0 .287-.704c0-.268-.096-.5-.287-.696a.926.926 0 0 0-.688-.293.97.97 0 0 0-.711.293.951.951 0 0 0-.294.696c0 .279.098.513.294.704.196.191.433.286.711.286zm.743 8.786v-7.656h-1.516v7.656h1.516zm3.604 0v-4.27c0-.68.185-1.213.556-1.6.372-.387.83-.58 1.377-.58.515 0 .918.142 1.206.425.29.284.433.776.433 1.477v4.548h1.516v-4.81c0-1.032-.237-1.8-.711-2.305-.475-.505-1.135-.758-1.98-.758-1.031 0-1.84.397-2.428 1.191l-.232-.974h-1.253v7.656h1.516zm7.95-8.786a.938.938 0 0 0 .688-.286.957.957 0 0 0 .286-.704c0-.268-.095-.5-.286-.696a.926.926 0 0 0-.688-.293.97.97 0 0 0-.712.293.951.951 0 0 0-.294.696c0 .279.098.513.294.704.196.191.433.286.712.286zm.742 8.786v-7.656h-1.516v7.656h1.516zm3.604 0v-4.27c0-.68.186-1.213.557-1.6.371-.387.83-.58 1.376-.58.516 0 .918.142 1.207.425.289.284.433.776.433 1.477v4.548h1.516v-4.81c0-1.032-.237-1.8-.712-2.305-.474-.505-1.134-.758-1.98-.758-1.03 0-1.84.397-2.428 1.191l-.232-.974h-1.253v7.656h1.516zm10.549 3.372c.845 0 1.554-.155 2.127-.464.572-.31 1-.73 1.283-1.26a3.732 3.732 0 0 0 .426-1.787v-7.517h-1.269l-.247 1.005a2.799 2.799 0 0 0-.982-.874c-.418-.232-.926-.348-1.524-.348-.711 0-1.343.183-1.895.55-.551.365-.977.85-1.276 1.453a4.345 4.345 0 0 0-.448 1.957c0 .7.147 1.35.44 1.948a3.53 3.53 0 0 0 1.261 1.431c.547.356 1.191.534 1.934.534.577 0 1.082-.121 1.515-.364.434-.242.758-.538.975-.889v1.145c0 .69-.199 1.227-.596 1.608-.397.382-.971.572-1.724.572-1.104 0-1.784-.5-2.042-1.5l-1.423.34c.217.753.611 1.351 1.183 1.795.573.443 1.333.665 2.282.665zm.03-4.733c-.69 0-1.25-.235-1.678-.704-.427-.47-.641-1.085-.641-1.848 0-.774.214-1.4.641-1.88.428-.48.983-.719 1.663-.719s1.235.24 1.663.72c.428.479.642 1.105.642 1.879 0 .763-.214 1.379-.642 1.848-.428.47-.977.704-1.647.704zm12.854 1.577c.433 0 .797-.064 1.09-.193.294-.129.508-.27.642-.425l-.696-1.083a1.006 1.006 0 0 1-.742.294c-.536 0-.804-.3-.804-.897v-4.207h2.072v-1.361H505.1v-1.996h-1.516v1.996h-1.377v1.36h1.377v4.393c0 .66.188 1.178.564 1.555.377.376.864.564 1.462.564zm4.563-.216v-4.254c0-.68.188-1.216.564-1.608a1.828 1.828 0 0 1 1.37-.588c.515 0 .917.142 1.206.425.289.284.433.776.433 1.477v4.548h1.516v-4.81c0-1.032-.235-1.8-.704-2.305-.47-.505-1.127-.758-1.972-.758-1.031 0-1.836.381-2.413 1.145v-4.1h-1.5v10.828h1.5zm10.58.216c.876 0 1.603-.203 2.18-.61.578-.408.98-.931 1.207-1.57l-1.3-.418c-.123.36-.368.673-.734.936s-.817.394-1.353.394c-.444 0-.84-.106-1.191-.317a2.316 2.316 0 0 1-.828-.843 2.673 2.673 0 0 1-.348-1.145h5.955v-.603c0-.773-.15-1.454-.449-2.041a3.305 3.305 0 0 0-1.26-1.37c-.542-.324-1.173-.487-1.895-.487-.711 0-1.358.178-1.941.534a3.81 3.81 0 0 0-1.377 1.454 4.173 4.173 0 0 0-.502 2.034c0 .753.162 1.438.487 2.057a3.684 3.684 0 0 0 1.361 1.462c.583.356 1.245.533 1.988.533zm2.227-4.764h-4.578a2.496 2.496 0 0 1 .757-1.453c.413-.392.944-.588 1.594-.588.65 0 1.173.203 1.57.61.397.408.616.885.657 1.431zm8.863 7.719v-4.161c.257.35.603.64 1.036.866.433.227.933.34 1.5.34.743 0 1.392-.185 1.95-.556a3.62 3.62 0 0 0 1.275-1.478c.294-.613.441-1.28.441-2.003 0-.7-.155-1.36-.464-1.98a3.817 3.817 0 0 0-1.307-1.492 3.354 3.354 0 0 0-1.91-.565c-.598 0-1.114.119-1.547.356a3.12 3.12 0 0 0-1.036.882l-.201-1.036h-1.253v10.827h1.516zm2.335-4.316c-.69 0-1.255-.25-1.693-.75-.439-.5-.658-1.142-.658-1.926 0-.773.22-1.412.658-1.918.438-.505 1.002-.757 1.693-.757.444 0 .846.116 1.207.348.36.232.642.551.843.959.2.407.301.863.301 1.368 0 .516-.1.977-.301 1.385a2.294 2.294 0 0 1-.843.951 2.22 2.22 0 0 1-1.207.34zm7.038 1.145v-4.238c0-.67.167-1.204.503-1.601.335-.397.755-.596 1.26-.596.227 0 .425.029.596.086.17.056.301.12.394.193l.588-1.33a2.117 2.117 0 0 0-.572-.271 2.589 2.589 0 0 0-.805-.116c-.453 0-.853.113-1.199.34a2.41 2.41 0 0 0-.796.835l-.232-.958H539.7v7.656h1.516zm8.058.216c.774 0 1.46-.185 2.057-.556a3.853 3.853 0 0 0 1.393-1.485c.33-.619.495-1.284.495-1.996 0-.721-.165-1.392-.495-2.01a3.853 3.853 0 0 0-1.393-1.485c-.598-.371-1.283-.557-2.057-.557a3.835 3.835 0 0 0-3.45 2.042 4.207 4.207 0 0 0-.494 2.01c0 .712.163 1.377.487 1.996a3.778 3.778 0 0 0 1.392 1.485c.604.37 1.292.556 2.065.556zm0-1.392c-.464 0-.881-.113-1.253-.34a2.322 2.322 0 0 1-.866-.943 2.94 2.94 0 0 1-.309-1.362c0-.505.103-.959.31-1.36.206-.403.494-.72.865-.952a2.315 2.315 0 0 1 1.253-.348c.464 0 .88.116 1.245.348.367.232.655.55.867.951.211.402.317.856.317 1.361 0 .495-.106.946-.317 1.354-.212.407-.5.724-.867.951-.366.227-.78.34-1.245.34zm9.188 1.392c.773 0 1.459-.185 2.057-.556a3.853 3.853 0 0 0 1.392-1.485c.33-.619.495-1.284.495-1.996 0-.721-.165-1.392-.495-2.01a3.853 3.853 0 0 0-1.392-1.485c-.598-.371-1.284-.557-2.057-.557a3.835 3.835 0 0 0-3.45 2.042 4.207 4.207 0 0 0-.494 2.01c0 .712.162 1.377.487 1.996a3.778 3.778 0 0 0 1.392 1.485c.603.37 1.292.556 2.065.556zm0-1.392c-.464 0-.882-.113-1.253-.34a2.322 2.322 0 0 1-.866-.943 2.94 2.94 0 0 1-.31-1.362c0-.505.104-.959.31-1.36.206-.403.495-.72.866-.952a2.315 2.315 0 0 1 1.253-.348c.464 0 .879.116 1.245.348.366.232.655.55.866.951.212.402.317.856.317 1.361 0 .495-.105.946-.317 1.354-.211.407-.5.724-.866.951-.366.227-.781.34-1.245.34zm7.765 1.176v-6.295h2.088v-1.361h-2.088v-1.099c0-.618.273-.928.82-.928a1.013 1.013 0 0 1 .742.294l.742-1.036c-.124-.145-.327-.286-.61-.425-.284-.14-.674-.21-1.169-.21-.598 0-1.087.194-1.469.58-.381.387-.572.906-.572 1.555v1.269h-1.346v1.36h1.346v6.296h1.516zm8.615-8.786a.938.938 0 0 0 .688-.286.957.957 0 0 0 .286-.704c0-.268-.095-.5-.286-.696a.926.926 0 0 0-.688-.293.97.97 0 0 0-.712.293.951.951 0 0 0-.294.696c0 .279.098.513.294.704.196.191.433.286.712.286zm.742 8.786v-7.656h-1.516v7.656h1.516zm4.888.216c.577 0 1.098-.1 1.562-.301.464-.201.825-.482 1.083-.843s.387-.768.387-1.222c0-.712-.238-1.245-.712-1.601-.474-.356-1.165-.621-2.073-.797-.577-.103-1.005-.229-1.283-.379-.279-.149-.418-.373-.418-.672 0-.268.119-.498.356-.689.237-.19.603-.286 1.098-.286.454 0 .802.121 1.044.364.242.242.41.56.503.95l1.345-.386c-.154-.7-.482-1.245-.982-1.632-.5-.386-1.137-.58-1.91-.58-.846 0-1.539.214-2.08.642a2.038 2.038 0 0 0-.812 1.679c0 .711.252 1.234.757 1.57.506.335 1.212.585 2.12.75.639.113 1.067.26 1.283.44.217.18.325.395.325.642 0 .33-.147.59-.44.781-.295.191-.679.287-1.153.287-.547 0-.951-.134-1.214-.403-.263-.268-.457-.618-.58-1.051l-1.361.417c.206.753.577 1.328 1.113 1.725s1.217.595 2.042.595zm11.817 0c.577 0 1.098-.1 1.562-.301.464-.201.825-.482 1.083-.843s.387-.768.387-1.222c0-.712-.238-1.245-.712-1.601-.474-.356-1.165-.621-2.073-.797-.577-.103-1.005-.229-1.283-.379-.279-.149-.418-.373-.418-.672 0-.268.119-.498.356-.689.237-.19.603-.286 1.098-.286.454 0 .802.121 1.044.364.242.242.41.56.503.95l1.345-.386c-.154-.7-.482-1.245-.982-1.632-.5-.386-1.137-.58-1.91-.58-.846 0-1.539.214-2.08.642a2.038 2.038 0 0 0-.812 1.679c0 .711.252 1.234.758 1.57.505.335 1.211.585 2.119.75.639.113 1.067.26 1.283.44.217.18.325.395.325.642 0 .33-.147.59-.44.781-.295.191-.679.287-1.153.287-.547 0-.951-.134-1.214-.403-.263-.268-.456-.618-.58-1.051l-1.361.417c.206.753.577 1.328 1.113 1.725.537.397 1.217.595 2.042.595zm8.167 0c.876 0 1.603-.203 2.18-.61.578-.408.98-.931 1.207-1.57l-1.3-.418c-.123.36-.368.673-.734.936s-.817.394-1.353.394c-.444 0-.84-.106-1.191-.317a2.316 2.316 0 0 1-.828-.843 2.673 2.673 0 0 1-.348-1.145h5.955v-.603c0-.773-.15-1.454-.448-2.041a3.305 3.305 0 0 0-1.261-1.37c-.541-.324-1.173-.487-1.895-.487-.711 0-1.358.178-1.94.534a3.81 3.81 0 0 0-1.377 1.454 4.173 4.173 0 0 0-.503 2.034c0 .753.162 1.438.487 2.057a3.684 3.684 0 0 0 1.361 1.462c.583.356 1.245.533 1.988.533zm2.227-4.764h-4.578a2.496 2.496 0 0 1 .758-1.453c.412-.392.943-.588 1.593-.588s1.173.203 1.57.61c.397.408.616.885.657 1.431zm4.532 4.548v-4.27c0-.68.186-1.213.557-1.6.371-.387.83-.58 1.376-.58.516 0 .918.142 1.207.425.289.284.433.776.433 1.477v4.548h1.516v-4.81c0-1.032-.237-1.8-.712-2.305-.474-.505-1.134-.758-1.98-.758-1.03 0-1.84.397-2.428 1.191l-.232-.974h-1.253v7.656h1.516zm9.806.216c.433 0 .797-.064 1.09-.193.295-.129.509-.27.643-.425l-.696-1.083a1.006 1.006 0 0 1-.743.294c-.536 0-.804-.3-.804-.897v-4.207h2.072v-1.361h-2.072v-1.996h-1.516v1.996h-1.377v1.36h1.377v4.393c0 .66.188 1.178.565 1.555.376.376.863.564 1.461.564zm10.1 0c.434 0 .797-.064 1.09-.193.295-.129.509-.27.643-.425l-.696-1.083a1.006 1.006 0 0 1-.743.294c-.536 0-.804-.3-.804-.897v-4.207h2.073v-1.361h-2.073v-1.996h-1.516v1.996h-1.376v1.36h1.376v4.393c0 .66.188 1.178.565 1.555.376.376.863.564 1.461.564zm6.651 0c.774 0 1.46-.185 2.058-.556a3.853 3.853 0 0 0 1.392-1.485c.33-.619.495-1.284.495-1.996 0-.721-.165-1.392-.495-2.01a3.853 3.853 0 0 0-1.392-1.485c-.599-.371-1.284-.557-2.058-.557a3.835 3.835 0 0 0-3.45 2.042 4.207 4.207 0 0 0-.494 2.01c0 .712.163 1.377.487 1.996a3.778 3.778 0 0 0 1.393 1.485c.603.37 1.291.556 2.064.556zm0-1.392c-.464 0-.881-.113-1.252-.34a2.322 2.322 0 0 1-.867-.943 2.94 2.94 0 0 1-.309-1.362c0-.505.103-.959.31-1.36.206-.403.494-.72.866-.952a2.315 2.315 0 0 1 1.252-.348c.464 0 .88.116 1.246.348.366.232.654.55.866.951.211.402.317.856.317 1.361 0 .495-.106.946-.317 1.354-.212.407-.5.724-.866.951-.367.227-.782.34-1.246.34zm11.446 1.176v-10.827h-1.516v10.827h1.516zm4.3.216c1.042 0 1.794-.32 2.258-.959l.155.743h1.284v-5.073c0-.908-.286-1.599-.859-2.073-.572-.474-1.327-.712-2.266-.712-1.69 0-2.722.769-3.093 2.305l1.346.325c.072-.444.245-.786.518-1.029.273-.242.673-.363 1.199-.363 1.093 0 1.639.52 1.639 1.562v.17l-1.84.263c-1.073.155-1.839.446-2.297.874-.46.428-.689.972-.689 1.632 0 .443.109.843.325 1.199.217.355.526.634.928.835.402.2.866.301 1.392.301zm.371-1.252c-.474 0-.85-.106-1.129-.318a1.006 1.006 0 0 1-.417-.843c0-.381.136-.667.41-.858.273-.19.683-.327 1.23-.41l1.716-.263v1.006c0 .546-.175.964-.526 1.252-.35.29-.778.434-1.284.434zm8.476 4.408c.774 0 1.42-.155 1.942-.464.52-.31.91-.73 1.167-1.26.258-.532.387-1.127.387-1.787v-7.517h-1.516v4.036c0 .691-.188 1.23-.564 1.617-.377.387-.859.58-1.446.58-.547 0-.97-.15-1.269-.449-.299-.299-.448-.799-.448-1.5v-4.284h-1.516v4.624c0 1.01.258 1.766.773 2.266.516.5 1.18.75 1.996.75.577 0 1.056-.095 1.438-.286a3.16 3.16 0 0 0 1.036-.858v1.052c0 .68-.167 1.211-.502 1.593-.336.381-.828.572-1.478.572-1.02 0-1.644-.48-1.871-1.438l-1.423.309c.206.753.583 1.348 1.129 1.786.547.439 1.268.658 2.165.658zm8.987-3.156c.876 0 1.603-.203 2.18-.61.578-.408.98-.931 1.207-1.57l-1.299-.418c-.124.36-.369.673-.735.936s-.817.394-1.353.394c-.443 0-.84-.106-1.191-.317a2.316 2.316 0 0 1-.827-.843 2.673 2.673 0 0 1-.349-1.145h5.955v-.603c0-.773-.15-1.454-.448-2.041a3.305 3.305 0 0 0-1.26-1.37c-.542-.324-1.174-.487-1.895-.487-.712 0-1.359.178-1.942.534a3.81 3.81 0 0 0-1.376 1.454 4.173 4.173 0 0 0-.503 2.034c0 .753.162 1.438.487 2.057a3.684 3.684 0 0 0 1.361 1.462c.583.356 1.246.533 1.988.533zm2.227-4.764h-4.578a2.496 2.496 0 0 1 .758-1.453c.412-.392.943-.588 1.593-.588s1.173.203 1.57.61c.397.408.616.885.657 1.431zm4.532 4.548v-4.238c0-.67.168-1.204.503-1.601.335-.397.755-.596 1.26-.596.227 0 .426.029.596.086.17.056.302.12.394.193l.588-1.33a2.117 2.117 0 0 0-.572-.271 2.589 2.589 0 0 0-.804-.116c-.454 0-.854.113-1.2.34a2.41 2.41 0 0 0-.796.835l-.232-.958h-1.253v7.656h1.516zm11.926 0v-10.827h-1.547c-.33.227-.701.43-1.114.61-.412.181-.789.302-1.129.364v1.516c.35-.052.742-.152 1.176-.302.433-.15.788-.312 1.067-.487v9.126h1.547zm10.734.2c.711 0 1.348-.187 1.91-.564a3.817 3.817 0 0 0 1.307-1.492c.31-.619.464-1.279.464-1.98 0-.722-.147-1.39-.44-2.003a3.62 3.62 0 0 0-1.277-1.477c-.557-.371-1.206-.557-1.949-.557-.567 0-1.067.113-1.5.34a2.969 2.969 0 0 0-1.036.866v-4.16h-1.516v10.827h1.253l.2-1.036c.259.35.604.644 1.037.881.433.237.949.356 1.547.356zm-.186-1.36c-.69 0-1.255-.253-1.693-.758-.439-.505-.658-1.145-.658-1.918 0-.784.22-1.426.658-1.926.438-.5 1.002-.75 1.693-.75.444 0 .846.114 1.207.34.36.227.642.544.843.952.2.407.301.868.301 1.384 0 .505-.1.961-.301 1.369a2.348 2.348 0 0 1-.843.959c-.361.232-.763.348-1.207.348zm7.038 1.16v-10.827h-1.516v10.827h1.516zm5.6.216c.772 0 1.458-.185 2.056-.556a3.853 3.853 0 0 0 1.392-1.485c.33-.619.495-1.284.495-1.996 0-.721-.165-1.392-.495-2.01a3.853 3.853 0 0 0-1.392-1.485c-.598-.371-1.284-.557-2.057-.557a3.835 3.835 0 0 0-3.45 2.042 4.207 4.207 0 0 0-.494 2.01c0 .712.162 1.377.487 1.996a3.778 3.778 0 0 0 1.392 1.485c.603.37 1.292.556 2.065.556zm0-1.392c-.465 0-.883-.113-1.254-.34a2.322 2.322 0 0 1-.866-.943 2.94 2.94 0 0 1-.31-1.362c0-.505.104-.959.31-1.36.206-.403.495-.72.866-.952a2.315 2.315 0 0 1 1.253-.348c.464 0 .88.116 1.245.348.366.232.655.55.866.951.212.402.317.856.317 1.361 0 .495-.105.946-.317 1.354-.211.407-.5.724-.866.951-.366.227-.78.34-1.245.34zm9.156 1.392c.814 0 1.513-.216 2.096-.65a3.723 3.723 0 0 0 1.276-1.716l-1.377-.464a2.144 2.144 0 0 1-.758 1.052c-.35.257-.763.386-1.237.386-.464 0-.877-.113-1.238-.34a2.36 2.36 0 0 1-.85-.943 2.94 2.94 0 0 1-.31-1.362c0-.505.103-.961.31-1.368.206-.408.49-.725.85-.952.361-.227.774-.34 1.238-.34.484 0 .902.129 1.253.387.35.258.598.613.742 1.067l1.392-.464a3.419 3.419 0 0 0-1.237-1.732c-.588-.433-1.305-.65-2.15-.65-.774 0-1.457.183-2.05.55a3.758 3.758 0 0 0-1.376 1.476 4.292 4.292 0 0 0-.488 2.026c0 .722.16 1.392.48 2.011.32.619.776 1.111 1.369 1.477.593.366 1.281.55 2.065.55zm6.589-.216v-2.66l.866-.913 2.521 3.573h1.733l-3.249-4.625 2.893-3.031h-1.856l-2.908 3.031v-6.202h-1.516v10.827h1.516zM332.685 659.94v-10.827h-1.547c-.33.226-.7.43-1.113.61-.413.181-.789.302-1.13.364v1.516c.351-.052.743-.152 1.176-.302.433-.15.79-.312 1.067-.487v9.126h1.547zm5.816.216a4.12 4.12 0 0 0 1.949-.464 3.466 3.466 0 0 0 1.384-1.299c.335-.557.503-1.196.503-1.918 0-.701-.157-1.325-.472-1.872a3.232 3.232 0 0 0-1.322-1.268c-.568-.299-1.217-.448-1.95-.448-.37 0-.718.054-1.043.162-.325.108-.58.23-.766.363l.31-2.876h4.531v-1.423h-5.83l-.589 5.46 1.377.479c.175-.227.436-.42.781-.58.346-.16.724-.24 1.137-.24.67 0 1.222.212 1.655.634.433.423.65.96.65 1.609 0 .66-.214 1.201-.642 1.624-.428.423-.982.634-1.663.634-.63 0-1.163-.185-1.6-.557-.44-.37-.684-.855-.736-1.454l-1.438.434c.041.525.227 1.018.557 1.477.33.459.778.827 1.345 1.106a4.189 4.189 0 0 0 1.872.417zm13.627-.216 2.908-7.657h-1.547l-2.166 5.94-2.165-5.94h-1.562l2.923 7.657h1.609zm6.45.216c1.041 0 1.794-.32 2.258-.959l.154.743h1.284v-5.074c0-.907-.286-1.598-.858-2.072-.572-.475-1.328-.712-2.266-.712-1.691 0-2.722.769-3.094 2.305l1.346.325c.072-.444.245-.787.518-1.029.273-.242.673-.363 1.199-.363 1.093 0 1.64.52 1.64 1.562v.17l-1.841.263c-1.073.155-1.838.446-2.297.874-.459.428-.688.972-.688 1.632 0 .443.108.843.324 1.198.217.356.526.635.928.836.403.2.867.301 1.393.301zm.37-1.253c-.474 0-.85-.105-1.128-.317a1.006 1.006 0 0 1-.418-.843c0-.381.137-.667.41-.858.273-.19.683-.327 1.23-.41l1.716-.263v1.005c0 .547-.175.965-.525 1.253-.351.289-.779.433-1.284.433zm6.698 1.037v-10.827h-1.516v10.827h1.516zm2.862-8.786a.938.938 0 0 0 .688-.286.957.957 0 0 0 .286-.704c0-.268-.095-.5-.286-.696a.926.926 0 0 0-.688-.294.97.97 0 0 0-.712.294.951.951 0 0 0-.294.696c0 .279.098.513.294.704.196.19.433.286.712.286zm.742 8.786v-7.657h-1.516v7.657h1.516zm5.414.2c.598 0 1.113-.118 1.546-.355a3.12 3.12 0 0 0 1.037-.882l.2 1.037h1.254v-10.827h-1.516v4.16a2.969 2.969 0 0 0-1.037-.866c-.433-.227-.933-.34-1.5-.34-.742 0-1.392.185-1.949.557a3.62 3.62 0 0 0-1.276 1.477 4.576 4.576 0 0 0-.44 2.003c0 .701.154 1.36.463 1.98.31.618.745 1.116 1.307 1.492a3.354 3.354 0 0 0 1.91.565zm.185-1.36c-.454 0-.858-.116-1.214-.348a2.369 2.369 0 0 1-.835-.96 3.05 3.05 0 0 1-.302-1.368c0-.516.1-.977.302-1.385.2-.407.48-.724.835-.95a2.21 2.21 0 0 1 1.214-.341c.691 0 1.253.25 1.686.75.433.5.65 1.142.65 1.926 0 .783-.217 1.425-.65 1.925-.433.5-.995.75-1.686.75zm6.713-7.626a.938.938 0 0 0 .688-.286.957.957 0 0 0 .286-.704c0-.268-.095-.5-.286-.696a.926.926 0 0 0-.688-.294.97.97 0 0 0-.711.294.951.951 0 0 0-.294.696c0 .279.098.513.294.704.195.19.433.286.711.286zm.742 8.786v-7.657h-1.515v7.657h1.515zm4.795.216c.433 0 .797-.064 1.09-.193.295-.129.509-.27.643-.425l-.696-1.083a1.006 1.006 0 0 1-.743.294c-.536 0-.804-.3-.804-.897v-4.208h2.073v-1.36h-2.073v-1.996h-1.516v1.995h-1.376v1.361h1.376v4.393c0 .66.188 1.178.565 1.555.376.376.863.564 1.461.564zm6.357 3.156c.774 0 1.42-.155 1.942-.464.52-.31.91-.73 1.167-1.261.258-.531.387-1.127.387-1.787v-7.517h-1.516v4.037c0 .691-.188 1.23-.564 1.617-.377.386-.859.58-1.447.58-.546 0-.969-.15-1.268-.449-.299-.299-.448-.799-.448-1.5v-4.285h-1.516v4.625c0 1.01.258 1.766.773 2.266.516.5 1.18.75 1.995.75.578 0 1.057-.095 1.439-.286a3.16 3.16 0 0 0 1.036-.858v1.051c0 .681-.167 1.212-.502 1.594-.336.381-.828.572-1.478.572-1.02 0-1.644-.48-1.871-1.439l-1.423.31c.206.752.582 1.348 1.129 1.786.546.438 1.268.658 2.165.658zm11.353-.201v-4.161c.258.35.604.64 1.037.866.433.227.933.34 1.5.34.742 0 1.392-.185 1.949-.557a3.62 3.62 0 0 0 1.276-1.477c.294-.613.44-1.28.44-2.003 0-.7-.154-1.36-.463-1.98a3.817 3.817 0 0 0-1.307-1.492 3.354 3.354 0 0 0-1.91-.565c-.598 0-1.114.119-1.547.356a3.12 3.12 0 0 0-1.036.882l-.202-1.037h-1.252v10.828h1.515zm2.336-4.316c-.69 0-1.255-.25-1.694-.75-.438-.5-.657-1.142-.657-1.926 0-.773.22-1.412.657-1.918.439-.505 1.003-.758 1.694-.758.443 0 .846.116 1.206.348.361.232.642.552.843.96.201.407.302.863.302 1.368 0 .516-.1.977-.302 1.385a2.294 2.294 0 0 1-.843.95 2.22 2.22 0 0 1-1.206.341zm7.038 1.145v-4.238c0-.67.167-1.204.502-1.601.335-.397.756-.596 1.26-.596.228 0 .426.029.596.085.17.057.302.122.395.194l.588-1.33a2.117 2.117 0 0 0-.573-.271 2.589 2.589 0 0 0-.804-.116c-.454 0-.853.113-1.199.34a2.41 2.41 0 0 0-.796.835l-.232-.959h-1.253v7.657h1.516zm8.058.216c.773 0 1.46-.185 2.057-.557a3.853 3.853 0 0 0 1.392-1.484c.33-.62.495-1.284.495-1.996 0-.722-.165-1.392-.495-2.01a3.853 3.853 0 0 0-1.392-1.485c-.598-.372-1.284-.557-2.057-.557a3.835 3.835 0 0 0-3.45 2.042 4.207 4.207 0 0 0-.494 2.01c0 .712.162 1.377.487 1.996a3.778 3.778 0 0 0 1.392 1.484c.603.372 1.292.557 2.065.557zm0-1.392c-.464 0-.882-.113-1.253-.34a2.322 2.322 0 0 1-.866-.944 2.94 2.94 0 0 1-.31-1.36c0-.506.104-.96.31-1.362.206-.402.495-.72.866-.951a2.315 2.315 0 0 1 1.253-.348c.464 0 .88.116 1.245.348.366.232.655.549.866.951.212.402.317.856.317 1.361 0 .495-.105.946-.317 1.354-.211.407-.5.724-.866.95-.366.228-.78.341-1.245.341zm9.188 1.392c.773 0 1.459-.185 2.057-.557a3.853 3.853 0 0 0 1.392-1.484c.33-.62.495-1.284.495-1.996 0-.722-.165-1.392-.495-2.01a3.853 3.853 0 0 0-1.392-1.485c-.598-.372-1.284-.557-2.057-.557a3.835 3.835 0 0 0-3.45 2.042 4.207 4.207 0 0 0-.494 2.01c0 .712.162 1.377.487 1.996a3.778 3.778 0 0 0 1.392 1.484c.603.372 1.291.557 2.065.557zm0-1.392c-.464 0-.882-.113-1.253-.34a2.322 2.322 0 0 1-.866-.944 2.94 2.94 0 0 1-.31-1.36c0-.506.103-.96.31-1.362.206-.402.495-.72.866-.951a2.315 2.315 0 0 1 1.253-.348c.464 0 .879.116 1.245.348.366.232.655.549.866.951.211.402.317.856.317 1.361 0 .495-.106.946-.317 1.354-.211.407-.5.724-.866.95-.366.228-.781.341-1.245.341zm7.764 1.176v-6.296h2.088v-1.36h-2.088v-1.099c0-.619.274-.928.82-.928a1.013 1.013 0 0 1 .743.294l.742-1.036c-.124-.145-.327-.286-.611-.426-.284-.139-.673-.208-1.168-.208-.598 0-1.088.193-1.47.58-.38.386-.571.904-.571 1.554v1.268h-1.346v1.361h1.346v6.296h1.515zm6.234.216c.577 0 1.098-.1 1.562-.301.464-.201.825-.482 1.083-.843.257-.361.386-.769.386-1.222 0-.712-.237-1.245-.711-1.601-.475-.356-1.165-.621-2.073-.797-.577-.103-1.005-.23-1.284-.379-.278-.15-.417-.373-.417-.672 0-.269.118-.498.355-.689.238-.19.604-.286 1.099-.286.453 0 .801.121 1.044.364.242.242.41.559.502.95l1.346-.386c-.155-.701-.482-1.245-.982-1.632-.5-.386-1.137-.58-1.91-.58-.846 0-1.54.214-2.08.642a2.038 2.038 0 0 0-.813 1.678c0 .712.253 1.235.758 1.57.505.335 1.212.586 2.12.75.638.114 1.066.26 1.283.441.217.18.325.395.325.642 0 .33-.147.59-.441.781-.294.191-.678.286-1.152.286-.547 0-.952-.134-1.215-.402-.262-.268-.456-.618-.58-1.051l-1.36.417c.206.753.577 1.328 1.113 1.725s1.217.595 2.042.595zM267.475 680.78c.815 0 1.513-.216 2.096-.65a3.723 3.723 0 0 0 1.276-1.716l-1.377-.464a2.144 2.144 0 0 1-.758 1.052c-.35.257-.763.386-1.237.386-.464 0-.877-.113-1.237-.34a2.36 2.36 0 0 1-.851-.943 2.94 2.94 0 0 1-.31-1.362c0-.505.104-.961.31-1.368.206-.408.49-.725.85-.952.361-.227.774-.34 1.238-.34.485 0 .902.129 1.253.387.35.257.598.613.742 1.067l1.392-.464a3.419 3.419 0 0 0-1.237-1.732c-.588-.434-1.305-.65-2.15-.65-.773 0-1.457.183-2.05.549a3.758 3.758 0 0 0-1.376 1.477 4.292 4.292 0 0 0-.487 2.026c0 .722.16 1.392.48 2.011.319.619.775 1.111 1.368 1.477.593.366 1.281.55 2.065.55zm7.362 0c1.042 0 1.795-.32 2.259-.959l.154.743h1.284v-5.073c0-.908-.286-1.599-.858-2.073-.573-.474-1.328-.712-2.266-.712-1.691 0-2.723.769-3.094 2.305l1.346.325c.072-.444.245-.786.518-1.029.273-.242.673-.363 1.199-.363 1.093 0 1.64.52 1.64 1.562v.17l-1.841.263c-1.073.155-1.838.446-2.297.874-.46.428-.689.972-.689 1.632 0 .443.109.843.325 1.199.217.355.526.634.928.835.402.2.866.301 1.392.301zm.372-1.252c-.475 0-.851-.106-1.13-.318a1.006 1.006 0 0 1-.417-.843c0-.381.136-.667.41-.858.273-.19.683-.327 1.23-.41l1.716-.263v1.006c0 .546-.175.964-.526 1.252-.35.29-.778.434-1.283.434zm6.697 1.036v-4.27c0-.68.186-1.213.557-1.6.371-.387.83-.58 1.376-.58.516 0 .918.142 1.207.425.289.284.433.776.433 1.477v4.548h1.516v-4.81c0-1.032-.237-1.8-.712-2.305-.474-.505-1.134-.758-1.98-.758-1.03 0-1.84.397-2.428 1.19l-.232-.974h-1.253v7.657h1.516zm15.467.2c.712 0 1.349-.187 1.91-.564a3.817 3.817 0 0 0 1.308-1.492c.309-.619.464-1.279.464-1.98 0-.722-.147-1.39-.441-2.003a3.62 3.62 0 0 0-1.276-1.477c-.557-.371-1.207-.557-1.95-.557-.566 0-1.066.113-1.5.34a2.969 2.969 0 0 0-1.036.866v-4.16h-1.516v10.827h1.253l.201-1.036c.258.35.603.644 1.037.881.433.237.948.356 1.546.356zm-.185-1.36c-.691 0-1.256-.253-1.694-.758-.438-.505-.657-1.145-.657-1.918 0-.784.219-1.426.657-1.926.438-.5 1.003-.75 1.694-.75.443 0 .845.113 1.206.34.361.227.642.544.843.952.201.407.302.868.302 1.384 0 .505-.1.961-.302 1.369a2.348 2.348 0 0 1-.843.959c-.36.232-.763.348-1.206.348zm9.002 1.376c.876 0 1.603-.203 2.18-.61.578-.408.98-.931 1.207-1.57l-1.3-.418c-.123.36-.368.673-.734.936s-.817.394-1.353.394c-.444 0-.84-.106-1.191-.317a2.316 2.316 0 0 1-.828-.843 2.673 2.673 0 0 1-.348-1.145h5.955v-.603c0-.773-.15-1.454-.448-2.042a3.305 3.305 0 0 0-1.261-1.368c-.541-.325-1.173-.488-1.895-.488-.711 0-1.358.178-1.94.534a3.81 3.81 0 0 0-1.378 1.454 4.173 4.173 0 0 0-.502 2.034c0 .753.162 1.438.487 2.057a3.684 3.684 0 0 0 1.361 1.462c.583.355 1.245.533 1.988.533zm2.227-4.764h-4.578a2.496 2.496 0 0 1 .758-1.454c.412-.391.943-.587 1.593-.587s1.173.203 1.57.61c.397.408.616.885.657 1.431zm8.198-4.238a.938.938 0 0 0 .688-.286.957.957 0 0 0 .286-.704c0-.268-.095-.5-.286-.696a.926.926 0 0 0-.688-.293.97.97 0 0 0-.712.293.951.951 0 0 0-.294.696c0 .279.098.513.294.704.196.191.433.286.712.286zm.742 8.786v-7.657h-1.516v7.657h1.516zm3.604 0v-4.27c0-.68.186-1.213.557-1.6.371-.387.83-.58 1.376-.58.516 0 .918.142 1.207.425.289.284.433.776.433 1.477v4.548h1.516v-4.81c0-1.032-.237-1.8-.712-2.305-.474-.505-1.134-.758-1.98-.758-1.03 0-1.84.397-2.428 1.19l-.232-.974h-1.253v7.657h1.516zm10.657.216c.815 0 1.513-.216 2.096-.65a3.723 3.723 0 0 0 1.276-1.716l-1.377-.464a2.144 2.144 0 0 1-.758 1.052c-.35.257-.763.386-1.237.386-.464 0-.877-.113-1.237-.34a2.36 2.36 0 0 1-.851-.943 2.94 2.94 0 0 1-.31-1.362c0-.505.104-.961.31-1.368.206-.408.49-.725.85-.952.361-.227.774-.34 1.238-.34.485 0 .902.129 1.253.387.35.257.598.613.742 1.067l1.392-.464a3.419 3.419 0 0 0-1.237-1.732c-.588-.434-1.304-.65-2.15-.65-.773 0-1.457.183-2.05.549a3.758 3.758 0 0 0-1.376 1.477 4.292 4.292 0 0 0-.487 2.026c0 .722.16 1.392.48 2.011.319.619.775 1.111 1.368 1.477.593.366 1.281.55 2.065.55zm6.59-.216v-10.827h-1.517v10.827h1.516zm4.701.216c1.031 0 1.84-.397 2.429-1.19l.232.974h1.252v-7.657h-1.515v4.285c0 .68-.186 1.214-.557 1.6-.371.387-.83.58-1.377.58-.515 0-.918-.144-1.206-.432-.289-.289-.433-.779-.433-1.47v-4.563h-1.516v4.826c0 1.031.237 1.797.711 2.297.475.5 1.135.75 1.98.75zm9.25-.015c.598 0 1.113-.119 1.546-.356a3.12 3.12 0 0 0 1.037-.881l.2 1.036h1.254v-10.827h-1.516v4.16a2.969 2.969 0 0 0-1.037-.866c-.433-.227-.933-.34-1.5-.34-.742 0-1.392.186-1.949.557a3.62 3.62 0 0 0-1.276 1.477 4.576 4.576 0 0 0-.44 2.003c0 .701.154 1.361.463 1.98.31.618.745 1.116 1.307 1.492a3.354 3.354 0 0 0 1.91.565zm.185-1.361c-.453 0-.858-.116-1.214-.348a2.369 2.369 0 0 1-.835-.96 3.05 3.05 0 0 1-.302-1.368c0-.516.1-.977.302-1.384.2-.408.48-.725.835-.952a2.21 2.21 0 0 1 1.214-.34c.691 0 1.253.25 1.686.75.433.5.65 1.142.65 1.926s-.217 1.425-.65 1.926c-.433.5-.995.75-1.686.75zm9.342 1.376c.877 0 1.604-.203 2.181-.61.578-.408.98-.931 1.207-1.57l-1.3-.418c-.123.36-.368.673-.734.936s-.817.394-1.354.394c-.443 0-.84-.106-1.19-.317a2.316 2.316 0 0 1-.828-.843 2.673 2.673 0 0 1-.348-1.145h5.955v-.603c0-.773-.15-1.454-.449-2.042a3.305 3.305 0 0 0-1.26-1.368c-.542-.325-1.173-.488-1.895-.488-.711 0-1.359.178-1.941.534a3.81 3.81 0 0 0-1.377 1.454 4.173 4.173 0 0 0-.502 2.034c0 .753.162 1.438.487 2.057a3.684 3.684 0 0 0 1.36 1.462c.584.355 1.246.533 1.988.533zm2.228-4.764h-4.579a2.496 2.496 0 0 1 .758-1.454c.413-.391.944-.587 1.593-.587.65 0 1.173.203 1.57.61.397.408.617.885.658 1.431zm6.341 4.749c.598 0 1.114-.119 1.547-.356a3.12 3.12 0 0 0 1.036-.881l.202 1.036h1.252v-10.827h-1.515v4.16a2.969 2.969 0 0 0-1.037-.866c-.433-.227-.933-.34-1.5-.34-.743 0-1.392.186-1.949.557a3.62 3.62 0 0 0-1.276 1.477 4.576 4.576 0 0 0-.44 2.003c0 .701.154 1.361.463 1.98.31.618.745 1.116 1.307 1.492a3.354 3.354 0 0 0 1.91.565zm.186-1.361c-.454 0-.858-.116-1.214-.348a2.369 2.369 0 0 1-.835-.96 3.05 3.05 0 0 1-.302-1.368c0-.516.1-.977.302-1.384.2-.408.48-.725.835-.952a2.21 2.21 0 0 1 1.214-.34c.69 0 1.253.25 1.686.75.433.5.65 1.142.65 1.926s-.217 1.425-.65 1.926c-.433.5-.995.75-1.686.75zm11.044-7.626a.938.938 0 0 0 .688-.286.957.957 0 0 0 .286-.704c0-.268-.095-.5-.286-.696a.926.926 0 0 0-.688-.293.97.97 0 0 0-.712.293.951.951 0 0 0-.294.696c0 .279.098.513.294.704.196.191.433.286.712.286zm.742 8.786v-7.657h-1.516v7.657h1.516zm3.604 0v-4.27c0-.68.186-1.213.557-1.6.371-.387.83-.58 1.376-.58.516 0 .918.142 1.207.425.289.284.433.776.433 1.477v4.548h1.516v-4.81c0-1.032-.237-1.8-.712-2.305-.474-.505-1.134-.758-1.98-.758-1.03 0-1.84.397-2.428 1.19l-.232-.974h-1.253v7.657h1.516zm15.019.216c.773 0 1.459-.185 2.057-.556a3.853 3.853 0 0 0 1.392-1.485c.33-.619.495-1.284.495-1.996 0-.721-.165-1.392-.495-2.01a3.853 3.853 0 0 0-1.392-1.485c-.598-.371-1.284-.557-2.057-.557a3.835 3.835 0 0 0-3.45 2.042 4.207 4.207 0 0 0-.494 2.01c0 .712.162 1.377.487 1.996a3.778 3.778 0 0 0 1.392 1.485c.603.37 1.291.556 2.065.556zm0-1.392c-.464 0-.882-.113-1.253-.34a2.322 2.322 0 0 1-.866-.943 2.94 2.94 0 0 1-.31-1.362c0-.505.104-.959.31-1.36.206-.403.495-.72.866-.952a2.315 2.315 0 0 1 1.253-.348c.464 0 .879.116 1.245.348.366.232.655.55.866.951.211.402.317.856.317 1.361 0 .495-.106.946-.317 1.354-.211.407-.5.724-.866.951-.366.227-.781.34-1.245.34zm7.115 1.176v-4.27c0-.68.185-1.213.557-1.6.37-.387.83-.58 1.376-.58.516 0 .918.142 1.207.425.288.284.433.776.433 1.477v4.548h1.516v-4.81c0-1.032-.238-1.8-.712-2.305-.474-.505-1.134-.758-1.98-.758-1.031 0-1.84.397-2.428 1.19l-.232-.974h-1.253v7.657h1.516zm10.58.216c.876 0 1.603-.203 2.18-.61.578-.408.98-.931 1.207-1.57l-1.3-.418c-.123.36-.368.673-.734.936s-.817.394-1.354.394c-.443 0-.84-.106-1.19-.317a2.316 2.316 0 0 1-.828-.843 2.673 2.673 0 0 1-.348-1.145h5.955v-.603c0-.773-.15-1.454-.449-2.042a3.305 3.305 0 0 0-1.26-1.368c-.542-.325-1.173-.488-1.895-.488-.712 0-1.359.178-1.941.534a3.81 3.81 0 0 0-1.377 1.454 4.173 4.173 0 0 0-.502 2.034c0 .753.162 1.438.487 2.057a3.684 3.684 0 0 0 1.36 1.462c.583.355 1.246.533 1.988.533zm2.227-4.764h-4.579a2.496 2.496 0 0 1 .758-1.454c.413-.391.944-.587 1.593-.587.65 0 1.173.203 1.57.61.397.408.616.885.658 1.431zm8.862 4.548v-10.827h-1.515v10.827h1.515zm4.3.216c1.042 0 1.795-.32 2.259-.959l.154.743h1.284v-5.073c0-.908-.286-1.599-.858-2.073-.573-.474-1.328-.712-2.266-.712-1.691 0-2.723.769-3.094 2.305l1.346.325c.072-.444.245-.786.518-1.029.273-.242.673-.363 1.199-.363 1.093 0 1.64.52 1.64 1.562v.17l-1.841.263c-1.073.155-1.838.446-2.297.874-.46.428-.689.972-.689 1.632 0 .443.109.843.325 1.199.217.355.526.634.928.835.403.2.867.301 1.392.301zm.372-1.252c-.475 0-.851-.106-1.13-.318a1.006 1.006 0 0 1-.417-.843c0-.381.137-.667.41-.858.273-.19.683-.327 1.23-.41l1.716-.263v1.006c0 .546-.175.964-.526 1.252-.35.29-.778.434-1.283.434zm8.476 4.408c.773 0 1.42-.155 1.94-.464.522-.31.91-.73 1.169-1.26.257-.532.386-1.127.386-1.787v-7.518h-1.515v4.037c0 .691-.189 1.23-.565 1.617-.376.386-.858.58-1.446.58-.547 0-.97-.15-1.269-.449-.299-.299-.448-.799-.448-1.5v-4.285h-1.516v4.625c0 1.01.258 1.766.773 2.266.516.5 1.181.75 1.996.75.577 0 1.057-.095 1.438-.286a3.16 3.16 0 0 0 1.037-.858v1.052c0 .68-.168 1.211-.503 1.593-.335.381-.828.572-1.477.572-1.021 0-1.645-.48-1.872-1.438l-1.423.309c.206.753.583 1.348 1.13 1.786.546.439 1.268.658 2.165.658zm8.986-3.156c.877 0 1.604-.203 2.181-.61.578-.408.98-.931 1.207-1.57l-1.3-.418c-.123.36-.368.673-.734.936s-.818.394-1.354.394c-.443 0-.84-.106-1.19-.317a2.316 2.316 0 0 1-.828-.843 2.673 2.673 0 0 1-.348-1.145h5.955v-.603c0-.773-.15-1.454-.449-2.042a3.305 3.305 0 0 0-1.26-1.368c-.542-.325-1.173-.488-1.895-.488-.712 0-1.359.178-1.941.534a3.81 3.81 0 0 0-1.377 1.454 4.173 4.173 0 0 0-.503 2.034c0 .753.163 1.438.488 2.057a3.684 3.684 0 0 0 1.36 1.462c.583.355 1.246.533 1.988.533zm2.228-4.764h-4.579a2.496 2.496 0 0 1 .758-1.454c.413-.391.944-.587 1.593-.587.65 0 1.173.203 1.57.61.397.408.616.885.658 1.431zm4.531 4.548v-4.238c0-.67.168-1.204.503-1.601.335-.397.755-.596 1.26-.596.228 0 .426.029.596.085.17.057.302.122.395.194l.587-1.33a2.117 2.117 0 0 0-.572-.271 2.589 2.589 0 0 0-.804-.116c-.454 0-.853.113-1.199.34a2.41 2.41 0 0 0-.796.835l-.232-.959h-1.253v7.657h1.515zm11.926 0v-10.827h-1.547c-.33.227-.701.43-1.114.61-.412.181-.788.302-1.129.364v1.516c.35-.052.743-.152 1.176-.302.433-.15.789-.312 1.067-.487v9.126h1.547zm10.734.2c.712 0 1.348-.187 1.91-.564a3.817 3.817 0 0 0 1.307-1.492c.31-.619.464-1.279.464-1.98 0-.722-.147-1.39-.44-2.003a3.62 3.62 0 0 0-1.277-1.477c-.556-.371-1.206-.557-1.948-.557-.568 0-1.068.113-1.5.34a2.969 2.969 0 0 0-1.037.866v-4.16h-1.516v10.827h1.253l.201-1.036c.258.35.603.644 1.036.881.433.237.95.356 1.547.356zm-.185-1.36c-.691 0-1.256-.253-1.694-.758-.438-.505-.658-1.145-.658-1.918 0-.784.22-1.426.658-1.926.438-.5 1.003-.75 1.694-.75.443 0 .845.113 1.206.34.36.227.642.544.843.952.201.407.302.868.302 1.384 0 .505-.101.961-.302 1.369a2.348 2.348 0 0 1-.843.959c-.36.232-.763.348-1.206.348zm7.037 1.16v-10.827h-1.516v10.827h1.516zm5.6.216c.773 0 1.458-.185 2.056-.556a3.853 3.853 0 0 0 1.393-1.485c.33-.619.495-1.284.495-1.996 0-.721-.165-1.392-.495-2.01a3.853 3.853 0 0 0-1.393-1.485c-.598-.371-1.283-.557-2.057-.557a3.835 3.835 0 0 0-3.45 2.042 4.207 4.207 0 0 0-.494 2.01c0 .712.163 1.377.487 1.996a3.778 3.778 0 0 0 1.392 1.485c.604.37 1.292.556 2.065.556zm0-1.392c-.465 0-.882-.113-1.254-.34a2.322 2.322 0 0 1-.866-.943 2.94 2.94 0 0 1-.309-1.362c0-.505.103-.959.31-1.36.206-.403.494-.72.865-.952a2.315 2.315 0 0 1 1.253-.348c.464 0 .88.116 1.245.348.367.232.655.55.867.951.211.402.317.856.317 1.361 0 .495-.106.946-.317 1.354-.212.407-.5.724-.867.951-.366.227-.78.34-1.245.34zm9.156 1.392c.815 0 1.513-.216 2.096-.65a3.723 3.723 0 0 0 1.276-1.716l-1.377-.464a2.144 2.144 0 0 1-.758 1.052c-.35.257-.763.386-1.237.386-.464 0-.876-.113-1.237-.34a2.36 2.36 0 0 1-.851-.943 2.94 2.94 0 0 1-.31-1.362c0-.505.104-.961.31-1.368.206-.408.49-.725.85-.952.362-.227.774-.34 1.238-.34.485 0 .902.129 1.253.387.35.257.598.613.742 1.067l1.392-.464a3.419 3.419 0 0 0-1.237-1.732c-.588-.434-1.304-.65-2.15-.65-.773 0-1.457.183-2.05.549a3.758 3.758 0 0 0-1.376 1.477 4.292 4.292 0 0 0-.487 2.026c0 .722.16 1.392.48 2.011.319.619.775 1.111 1.368 1.477.593.366 1.281.55 2.065.55zm6.59-.216v-2.66l.865-.913 2.521 3.573h1.733l-3.248-4.625 2.892-3.032h-1.856l-2.908 3.032v-6.202h-1.516v10.827h1.516z" fill="#626577" fill-rule="nonzero"/>
        <path d="M12.28 313.643v-5.671h5.84v5.671h2.307V300.41h-2.306v5.426h-5.842v-5.426H9.973v13.233h2.306zm15.028.265c1.097 0 2.001-.252 2.713-.756a4.03 4.03 0 0 0 1.503-1.966l-1.91-.586c-.138.378-.406.712-.803 1.002-.397.29-.898.434-1.503.434a2.555 2.555 0 0 1-2.211-1.21 2.63 2.63 0 0 1-.397-1.153h7.051v-.87c0-.957-.183-1.802-.548-2.533a4.1 4.1 0 0 0-1.56-1.71c-.674-.41-1.459-.615-2.353-.615-.883 0-1.686.218-2.41.652a4.734 4.734 0 0 0-1.721 1.787c-.422.756-.633 1.6-.633 2.533 0 .958.21 1.815.633 2.571a4.663 4.663 0 0 0 1.72 1.777c.725.429 1.535.643 2.43.643zm2.44-5.974h-5.03a2.669 2.669 0 0 1 .842-1.503c.447-.41 1.03-.614 1.748-.614.505 0 .936.11 1.295.33.36.221.634.495.823.823.189.328.296.649.321.964zm6.124 5.71V308.5c0-.756.19-1.351.567-1.786.378-.435.851-.652 1.418-.652.252 0 .476.031.671.094.196.063.35.139.463.227l.813-1.985a2.445 2.445 0 0 0-.68-.321 3.114 3.114 0 0 0-.945-.133c-.555 0-1.034.13-1.437.388a2.846 2.846 0 0 0-.945.973l-.322-1.096h-1.871v9.433h2.268zm7.467 0v-5.35c0-.732.17-1.29.51-1.674.341-.384.782-.576 1.324-.576.504 0 .901.16 1.191.482.29.321.435.822.435 1.503v5.614h2.269v-5.35c0-.718.17-1.273.51-1.663.34-.391.781-.586 1.323-.586 1.072 0 1.607.661 1.607 1.985v5.614h2.269v-6.238c0-1.16-.274-2.026-.823-2.6-.548-.573-1.288-.86-2.22-.86-.681 0-1.274.133-1.778.397-.504.265-.92.605-1.248 1.021a2.62 2.62 0 0 0-.945-1.02c-.416-.265-.951-.398-1.607-.398-.63 0-1.197.13-1.701.388s-.908.589-1.21.992l-.303-1.115h-1.871v9.433h2.268zm18.073.264c1.097 0 2-.252 2.713-.756a4.03 4.03 0 0 0 1.503-1.966l-1.91-.586c-.138.378-.406.712-.803 1.002-.397.29-.898.434-1.503.434a2.555 2.555 0 0 1-2.212-1.21 2.63 2.63 0 0 1-.397-1.153h7.052v-.87c0-.957-.183-1.802-.548-2.533a4.1 4.1 0 0 0-1.56-1.71c-.674-.41-1.459-.615-2.354-.615-.882 0-1.685.218-2.41.652a4.734 4.734 0 0 0-1.72 1.787c-.423.756-.634 1.6-.634 2.533 0 .958.211 1.815.634 2.571a4.663 4.663 0 0 0 1.72 1.777c.725.429 1.534.643 2.43.643zm2.439-5.974h-5.029a2.669 2.669 0 0 1 .842-1.503c.447-.41 1.03-.614 1.748-.614.504 0 .936.11 1.295.33.36.221.633.495.823.823.189.328.296.649.32.964zm10.965 5.71v-1.891H70.07l4.67-5.88v-1.663h-7.297v1.871h4.556l-4.689 5.88v1.682h7.506z" fill="#000" fill-rule="nonzero"/>
        <path d="M643.613 136.198c-1.495 11.744-7.367 17.616-17.616 17.616H148.23c-15.373 0-17.616-10.835-17.616-17.616" stroke="#8248E5" stroke-width="5.156" stroke-linecap="round" stroke-linejoin="round"/>
        <path d="M300.45 209.668v-4.454h4.377v4.454h2.227v-10.827h-2.227v4.3h-4.377v-4.3h-2.228v10.827h2.228zm12.188.217c1.84 0 3-.897 3.51-2.274l-1.824-.541c-.201.51-.774 1.02-1.686 1.02-1.036 0-1.81-.773-1.918-1.639h5.6v-.742c0-2.382-1.424-4.053-3.698-4.053-2.18-.046-4.021 1.764-3.975 4.115 0 2.428 1.825 4.114 3.99 4.114zm1.779-4.934h-3.682c.17-.866.836-1.547 1.903-1.547 1.222 0 1.748.99 1.779 1.547zm5.475 4.717v-4.191c0-1.13.603-1.764 1.47-1.764.37 0 .665.078.866.248l.773-1.949c-.356-.232-.804-.356-1.315-.356-.881 0-1.516.464-1.871 1.068l-.325-.851h-1.794v7.795h2.196zm6.249 0v-4.408c0-1.036.48-1.562 1.237-1.562.743 0 1.145.464 1.145 1.407v4.563h2.196v-4.408c0-1.036.48-1.562 1.238-1.562.757 0 1.129.464 1.129 1.407v4.563h2.196v-5.104c0-1.98-.928-2.908-2.49-2.908-1.067 0-1.887.48-2.382 1.098-.402-.727-1.083-1.098-2.042-1.098-1.036 0-1.887.495-2.32 1.068l-.31-.851h-1.794v7.795h2.197zm14.508.217c1.84 0 3-.897 3.511-2.274l-1.825-.541c-.2.51-.773 1.02-1.686 1.02-1.036 0-1.81-.773-1.918-1.639h5.6v-.742c0-2.382-1.424-4.053-3.697-4.053-2.181-.046-4.022 1.764-3.975 4.115 0 2.428 1.825 4.114 3.99 4.114zm1.779-4.934h-3.681c.17-.866.835-1.547 1.902-1.547 1.222 0 1.748.99 1.779 1.547zm9.311 4.717v-1.794h-3.65l3.573-4.439v-1.562h-6.125v1.794h3.465l-3.573 4.424v1.577h6.31zm-21.53 20.623.789-2.134h4.315l.789 2.134h2.273l-4.052-10.827h-2.336l-4.067 10.827h2.289zm4.362-4.145h-2.831l1.408-3.82 1.423 3.82zm7.316 4.145v-3.758h1.98c1.81 0 3.588-1.13 3.588-3.542 0-2.506-1.779-3.527-3.728-3.527h-4.068v10.827h2.228zm1.686-5.769h-1.686v-3.047h1.67c1.13 0 1.67.68 1.67 1.5 0 .867-.494 1.547-1.654 1.547zm7.671 5.77v-10.828h-2.227v10.827h2.227z" fill="#8248E5" fill-rule="nonzero"/>
        <g fill="#8248E5" fill-rule="nonzero">
            <path d="M386.454 284.703a1.133 1.133 0 0 0 2.027.009l8.44-13.127a1.135 1.135 0 0 0-1.007-1.645l-16.733-.073a1.135 1.135 0 0 0-1.02 1.636l8.293 13.2z"/>
            <path d="M386.683 231.15h1.719c.95 0 1.719.77 1.719 1.72v47.26c0 .95-.77 1.72-1.719 1.72h-1.719c-.949 0-1.718-.77-1.718-1.72v-47.26c0-.95.77-1.72 1.718-1.72z"/>
        </g>
        <path d="M402.15 205.675c0 1.609-.764 21.155-.832 21.493-.836 4.181-6.685 7.42-13.775 7.42-7.086 0-12.932-3.234-13.774-7.411-.069-.341-.834-19.893-.834-21.502 0-4.913 6.54-8.896 14.608-8.896 8.068 0 14.608 3.983 14.608 8.896zm-5.842-1.483c0-2.456-3.925-4.448-8.765-4.448-4.841 0-8.765 1.992-8.765 4.448 0 2.457 3.924 4.449 8.765 4.449 4.84 0 8.765-1.992 8.765-4.449z" fill="#8248E5" fill-rule="nonzero"/>
        <path d="M387.543 185.178c1.068 0 2.034.433 2.734 1.133.7.7 1.133 1.666 1.133 2.734v13.749a3.855 3.855 0 0 1-1.133 2.734c-.7.7-1.666 1.133-2.734 1.133a3.855 3.855 0 0 1-2.735-1.133 3.855 3.855 0 0 1-1.132-2.734v-13.749c0-1.068.433-2.034 1.132-2.734.7-.7 1.667-1.133 2.735-1.133z" stroke="#F6F6F6" stroke-width="2.578" fill="#8248E5" fill-rule="nonzero"/>
        <path d="M386.683 152.955h1.719c.95 0 1.719.77 1.719 1.718v34.372c0 .95-.77 1.719-1.719 1.719h-1.719c-.949 0-1.718-.77-1.718-1.719v-34.372c0-.949.77-1.718 1.718-1.718z" fill="#8248E5" fill-rule="nonzero"/>
        <path d="M442.538 390.55c0 6.78-4.586 17.616-22.85 17.616h-65.15c-18.264 0-22.85-10.836-22.85-17.616" stroke="#8248E5" stroke-width="5.156" stroke-linecap="round" stroke-linejoin="round"/>
        <g fill-rule="nonzero">
            <path d="M369.226 99.753c1.367 8.076 10.941 14.16 21.673 12.713 10.732-1.448 17.703-8.818 17.19-17.956-.01-.179-.696-4.759-.696-4.759-1.566-8.175-11.088-13.602-21.596-12.184-10.507 1.417-18.105 9.153-17.256 17.425 0 0 .655 4.584.685 4.76zm16.88-20.071c9.252-1.248 17.617 3.659 18.684 10.96 1.068 7.3-5.567 14.23-14.819 15.479-9.251 1.248-17.616-3.66-18.683-10.96-1.068-7.301 5.567-14.231 14.819-15.48z" fill="#B4B5DF"/>
            <g fill="#E3E5EF">
                <path d="M388.402 54.136a.86.86 0 0 1 .86.859v12.89a.86.86 0 0 1-1.72 0v-12.89a.86.86 0 0 1 .86-.86zM396.995 61.01a.86.86 0 0 1 .86.86v8.592a.86.86 0 0 1-1.72 0V61.87a.86.86 0 0 1 .86-.859zM378.95 61.01a.86.86 0 0 1 .859.86v8.592a.86.86 0 0 1-1.719 0V61.87a.86.86 0 0 1 .86-.859z"/>
            </g>
            <path d="M384.857 97.1v-6.432h2.185v-1.586h-6.303v1.586h2.18v6.433h1.938zm5.33 0 1.515-2.631h.082l1.515 2.632h2.191l-2.46-4.013 2.49-4.006h-2.18l-1.427 2.702h-.082l-1.44-2.702h-2.278l2.39 3.983-2.396 4.036h2.08z" fill="#626577"/>
        </g>
        <g fill-rule="nonzero">
            <path d="M211.115 99.753c1.367 8.076 10.942 14.16 21.673 12.713 10.732-1.448 17.703-8.818 17.19-17.956-.01-.179-.695-4.759-.695-4.759-1.567-8.175-11.089-13.602-21.596-12.184-10.508 1.417-18.105 9.153-17.256 17.425 0 0 .654 4.584.684 4.76zm16.881-20.071c9.252-1.248 17.617 3.659 18.684 10.96 1.067 7.3-5.568 14.23-14.82 15.479-9.25 1.248-17.616-3.66-18.683-10.96-1.067-7.301 5.568-14.231 14.82-15.48z" fill="#B4B5DF"/>
            <g fill="#E3E5EF">
                <path d="M202.943 62.318a.86.86 0 0 1 1.197.21l7.393 10.56a.86.86 0 0 1-1.408.985l-7.393-10.559a.86.86 0 0 1 .211-1.196zM213.925 63.02a.86.86 0 0 1 1.197.211l4.929 7.039a.86.86 0 0 1-1.408.986l-4.929-7.04a.86.86 0 0 1 .211-1.196zM199.143 73.37a.86.86 0 0 1 1.197.211l4.929 7.04a.86.86 0 0 1-1.408.985l-4.929-7.039a.86.86 0 0 1 .211-1.197z"/>
            </g>
            <path d="M226.746 97.1v-6.432h2.185v-1.586h-6.303v1.586h2.18v6.433h1.938zm5.33 0 1.515-2.631h.082l1.516 2.632h2.19l-2.46-4.013 2.49-4.006h-2.18l-1.427 2.702h-.082l-1.439-2.702h-2.28l2.392 3.983-2.397 4.036h2.08z" fill="#626577"/>
            <g>
                <path d="M290.17 99.753c1.368 8.076 10.942 14.16 21.674 12.713 10.731-1.448 17.703-8.818 17.19-17.956-.01-.179-.696-4.759-.696-4.759-1.567-8.175-11.088-13.602-21.596-12.184-10.507 1.417-18.105 9.153-17.256 17.425 0 0 .655 4.584.685 4.76zm16.881-20.071c9.252-1.248 17.617 3.659 18.684 10.96 1.067 7.3-5.567 14.23-14.819 15.479-9.251 1.248-17.616-3.66-18.684-10.96-1.067-7.301 5.568-14.231 14.82-15.48z" fill="#B4B5DF"/>
                <g fill="#E3E5EF">
                    <path d="M292.785 57.337a.86.86 0 0 1 1.142.416l5.448 11.682a.86.86 0 0 1-1.558.726l-5.447-11.682a.86.86 0 0 1 .415-1.142zM303.479 59.936a.86.86 0 0 1 1.142.415l3.631 7.788a.86.86 0 1 1-1.557.727l-3.632-7.788a.86.86 0 0 1 .416-1.142zM287.124 67.562a.86.86 0 0 1 1.142.416l3.632 7.788a.86.86 0 1 1-1.558.726l-3.632-7.788a.86.86 0 0 1 .416-1.142z"/>
                </g>
                <path d="M305.801 97.1v-6.432h2.185v-1.586h-6.302v1.586h2.179v6.433h1.938zm5.33 0 1.515-2.631h.083l1.515 2.632h2.191l-2.461-4.013 2.49-4.006h-2.179l-1.427 2.702h-.082l-1.44-2.702h-2.279l2.391 3.983-2.397 4.036h2.08z" fill="#626577"/>
            </g>
        </g>
        <g fill-rule="nonzero">
            <path d="M565.689 99.753c-1.367 8.076-10.942 14.16-21.673 12.713-10.732-1.448-17.703-8.818-17.19-17.956.01-.179.695-4.759.695-4.759 1.567-8.175 11.089-13.602 21.596-12.184 10.508 1.417 18.105 9.153 17.256 17.425 0 0-.654 4.584-.684 4.76zm-16.881-20.071c-9.252-1.248-17.617 3.659-18.684 10.96-1.067 7.3 5.568 14.23 14.82 15.479 9.25 1.248 17.616-3.66 18.683-10.96 1.067-7.301-5.568-14.231-14.819-15.48z" fill="#B4B5DF"/>
            <g fill="#E3E5EF">
                <path d="M573.86 62.318a.86.86 0 0 0-1.196.21l-7.393 10.56a.86.86 0 0 0 1.408.985l7.393-10.559a.86.86 0 0 0-.211-1.196zM562.879 63.02a.86.86 0 0 0-1.197.211l-4.929 7.039a.86.86 0 1 0 1.408.986l4.929-7.04a.86.86 0 0 0-.211-1.196zM577.66 73.37a.86.86 0 0 0-1.196.211l-4.929 7.04a.86.86 0 1 0 1.408.985l4.929-7.039a.86.86 0 0 0-.211-1.197z"/>
            </g>
            <path d="M545.231 97.1v-6.432h2.185v-1.586h-6.303v1.586h2.18v6.433h1.938zm5.33 0 1.515-2.631h.082l1.516 2.632h2.191l-2.461-4.013 2.49-4.006h-2.179l-1.427 2.702h-.083l-1.439-2.702h-2.279l2.39 3.983-2.396 4.036h2.08z" fill="#626577"/>
            <g>
                <path d="M486.633 99.753c-1.367 8.076-10.94 14.16-21.673 12.713-10.731-1.448-17.703-8.818-17.19-17.956.01-.179.696-4.759.696-4.759 1.567-8.175 11.088-13.602 21.596-12.184 10.507 1.417 18.105 9.153 17.256 17.425 0 0-.655 4.584-.685 4.76zm-16.88-20.071c-9.252-1.248-17.617 3.659-18.684 10.96-1.067 7.3 5.567 14.23 14.819 15.479 9.251 1.248 17.616-3.66 18.684-10.96 1.067-7.301-5.568-14.231-14.82-15.48z" fill="#B4B5DF"/>
                <g fill="#E3E5EF">
                    <path d="M484.019 57.337a.86.86 0 0 0-1.142.416l-5.448 11.682a.86.86 0 0 0 1.558.726l5.447-11.682a.86.86 0 0 0-.415-1.142zM473.325 59.936a.86.86 0 0 0-1.142.415l-3.631 7.788a.86.86 0 1 0 1.558.727l3.631-7.788a.86.86 0 0 0-.416-1.142zM489.68 67.562a.86.86 0 0 0-1.142.416l-3.632 7.788a.86.86 0 1 0 1.558.726l3.632-7.788a.86.86 0 0 0-.416-1.142z"/>
                </g>
                <path d="M466.176 97.1v-6.432h2.185v-1.586h-6.303v1.586h2.18v6.433h1.938zm5.33 0 1.515-2.631h.082l1.516 2.632h2.19l-2.46-4.013 2.49-4.006h-2.18l-1.427 2.702h-.082l-1.439-2.702h-2.28l2.392 3.983-2.397 4.036h2.08z" fill="#626577"/>
            </g>
        </g>
        <path d="M435.864 205.286v-.187c.046-2.892-2.027-5.561-5.335-5.63h-.217c-3.465-.047-5.584 2.675-5.553 5.63-.047 2.938 2.119 5.692 5.553 5.63 3.36.06 5.506-2.576 5.552-5.443zm-5.552 3.37c-2.088 0-3.326-1.516-3.326-3.557 0-2.042 1.238-3.558 3.326-3.558s3.325 1.516 3.325 3.558c0 2.026-1.253 3.557-3.325 3.557zm11.662 1.872 2.939-7.796h-2.258l-1.826 5.274-1.825-5.274h-2.258l2.939 7.796h2.289zm7.64.216c1.841 0 3.002-.897 3.512-2.274l-1.825-.54c-.201.51-.774 1.02-1.686 1.02-1.036 0-1.81-.773-1.918-1.64h5.6v-.742c0-2.382-1.424-4.052-3.698-4.052-2.18-.047-4.021 1.763-3.975 4.114 0 2.428 1.825 4.114 3.99 4.114zm1.78-4.934h-3.682c.17-.866.836-1.547 1.903-1.547 1.222 0 1.748.99 1.779 1.547zm5.475 4.718v-4.192c0-1.13.603-1.763 1.47-1.763.37 0 .665.077.866.247l.773-1.949c-.356-.232-.804-.355-1.315-.355-.881 0-1.516.464-1.871 1.067l-.325-.85h-1.794v7.795h2.196zm15.684 0v-2.073h-4.13l2.057-1.763c1.377-1.191 2.057-2.181 2.057-3.712 0-1.996-1.701-3.496-3.774-3.496-2.072 0-3.65 1.377-3.774 3.387l2.073.573c-.046-1.16.634-1.887 1.701-1.887.928 0 1.547.665 1.547 1.454 0 .85-.356 1.376-1.407 2.258l-3.697 3.186v2.073h7.347zm2.119 2.366a4.88 4.88 0 0 0 1.114-1.655c.263-.65.386-1.222.386-1.732 0-.975-.572-1.47-1.33-1.47-.742 0-1.284.588-1.284 1.315 0 .603.31 1.005.913 1.238-.047.479-.294 1.19-.665 1.67l.866.634zm6.635-2.165c2.707 0 4.068-2.398 4.068-5.646 0-3.248-1.392-5.615-4.099-5.615-2.706 0-4.098 2.367-4.098 5.615 0 1.686.355 3.047 1.051 4.084.696 1.036 1.733 1.562 3.078 1.562zm0-2.073c-1.299 0-1.902-1.284-1.902-3.557 0-2.212.588-3.558 1.871-3.558 1.253 0 1.872 1.346 1.872 3.558 0 2.227-.603 3.557-1.84 3.557zm9.374 2.073c2.706 0 4.068-2.398 4.068-5.646 0-3.248-1.393-5.615-4.1-5.615-2.706 0-4.098 2.367-4.098 5.615 0 1.686.356 3.047 1.052 4.084.696 1.036 1.732 1.562 3.078 1.562zm0-2.073c-1.3 0-1.903-1.284-1.903-3.557 0-2.212.588-3.558 1.872-3.558 1.253 0 1.871 1.346 1.871 3.558 0 2.227-.603 3.557-1.84 3.557zm9.373 2.073c2.707 0 4.068-2.398 4.068-5.646 0-3.248-1.392-5.615-4.1-5.615-2.706 0-4.098 2.367-4.098 5.615 0 1.686.356 3.047 1.052 4.084.696 1.036 1.732 1.562 3.078 1.562zm0-2.073c-1.3 0-1.903-1.284-1.903-3.557 0-2.212.588-3.558 1.872-3.558 1.253 0 1.871 1.346 1.871 3.558 0 2.227-.603 3.557-1.84 3.557zm12.93 2.088c1.037 0 1.717-.356 2.042-.727l-.866-1.577a.922.922 0 0 1-.665.262c-.433 0-.65-.247-.65-.742v-3.31h1.856v-1.918h-1.856v-2.026h-2.196v2.026h-1.3v1.918h1.3v3.65c0 1.563 1.02 2.444 2.336 2.444zm5.26-.216v-4.192c0-1.13.603-1.763 1.469-1.763.371 0 .665.077.866.247l.773-1.949c-.355-.232-.804-.355-1.314-.355-.882 0-1.516.464-1.872 1.067l-.325-.85h-1.794v7.795h2.196zm6.357.216c.943 0 1.639-.294 2.057-.866l.263.65h1.81v-5.074c0-.99-.326-1.732-.96-2.211-.634-.48-1.423-.727-2.335-.727-1.903 0-2.877.742-3.372 2.366l1.918.464c.124-.742.541-1.098 1.36-1.098.79 0 1.192.418 1.192 1.253v.046l-1.454.201c-1.206.17-2.026.48-2.46.928a2.266 2.266 0 0 0-.664 1.64c0 1.562 1.299 2.428 2.645 2.428zm.634-1.748c-.743 0-1.176-.324-1.176-.82 0-.54.31-.85 1.13-.974l1.345-.2v.834c0 .696-.557 1.16-1.3 1.16zm7.254 1.532v-4.192c0-1.176.557-1.779 1.47-1.779.896 0 1.345.557 1.345 1.686v4.285h2.196v-4.517c0-2.366-.943-3.495-2.846-3.495-.928 0-1.67.37-2.242 1.098l-.325-.882h-1.795v7.796h2.197zm9.667.216c2.01 0 3.217-1.16 3.217-2.552 0-1.485-.99-2.165-2.908-2.521-1.005-.201-1.392-.387-1.392-.773 0-.372.418-.65 1.098-.65.604 0 .99.325 1.16.99l1.81-.51c-.325-1.408-1.438-2.212-2.985-2.212-1.995 0-3.109 1.19-3.109 2.505 0 1.532 1.098 2.12 3.032 2.475.866.14 1.268.371 1.268.758 0 .48-.449.758-1.191.758-.789 0-1.237-.433-1.423-1.16l-1.856.588c.371 1.407 1.562 2.304 3.279 2.304zm6.898 0c.944 0 1.64-.294 2.058-.866l.262.65h1.81v-5.074c0-.99-.325-1.732-.959-2.211-.634-.48-1.423-.727-2.335-.727-1.903 0-2.877.742-3.372 2.366l1.918.464c.123-.742.541-1.098 1.36-1.098.79 0 1.192.418 1.192 1.253v.046l-1.454.201c-1.207.17-2.026.48-2.46.928a2.266 2.266 0 0 0-.665 1.64c0 1.562 1.3 2.428 2.645 2.428zm.635-1.748c-.743 0-1.176-.324-1.176-.82 0-.54.31-.85 1.13-.974l1.345-.2v.834c0 .696-.557 1.16-1.3 1.16zm8.816 1.748c1.655 0 2.939-.881 3.496-2.366l-1.996-.665c-.247.634-.773.99-1.5.99-1.098 0-1.887-.851-1.887-2.073 0-1.238.773-2.073 1.887-2.073.742 0 1.33.433 1.562 1.13l2.01-.666c-.494-1.546-1.855-2.505-3.572-2.505-2.305 0-4.083 1.716-4.083 4.114 0 2.397 1.81 4.114 4.083 4.114zm8.043 0c1.036 0 1.717-.356 2.042-.727l-.867-1.577a.922.922 0 0 1-.665.262c-.433 0-.65-.247-.65-.742v-3.31h1.857v-1.918h-1.856v-2.026h-2.197v2.026h-1.299v1.918h1.3v3.65c0 1.563 1.02 2.444 2.335 2.444zm4.176-8.97c.665 0 1.222-.542 1.222-1.207s-.557-1.207-1.222-1.207c-.634 0-1.19.542-1.19 1.207s.525 1.206 1.19 1.206zm1.114 8.754v-7.796h-2.197v7.796h2.197zm5.506.216c2.227 0 4.068-1.717 4.068-4.114 0-2.398-1.84-4.114-4.068-4.114-2.243 0-4.083 1.716-4.083 4.114 0 2.397 1.825 4.114 4.083 4.114zm0-2.042c-1.098 0-1.887-.85-1.887-2.072s.789-2.073 1.887-2.073c1.052 0 1.872.882 1.872 2.073 0 1.222-.82 2.072-1.872 2.072zm7.641 1.826v-4.192c0-1.176.557-1.779 1.47-1.779.896 0 1.345.557 1.345 1.686v4.285h2.196v-4.517c0-2.366-.943-3.495-2.846-3.495-.928 0-1.67.37-2.242 1.098l-.325-.882h-1.794v7.796h2.196zm9.667.216c2.01 0 3.217-1.16 3.217-2.552 0-1.485-.99-2.165-2.908-2.521-1.005-.201-1.392-.387-1.392-.773 0-.372.418-.65 1.099-.65.603 0 .99.325 1.16.99l1.81-.51c-.326-1.408-1.44-2.212-2.986-2.212-1.995 0-3.109 1.19-3.109 2.505 0 1.532 1.098 2.12 3.032 2.475.866.14 1.268.371 1.268.758 0 .48-.448.758-1.19.758-.79 0-1.238-.433-1.424-1.16l-1.856.588c.371 1.407 1.562 2.304 3.28 2.304zM428.889 457.146v-10.827h-2.228c-.696.48-1.64.912-2.304.99v2.258c.355-.031.758-.124 1.222-.279.448-.139.82-.309 1.082-.48v8.338h2.228zm9.45.216c1.036 0 1.717-.355 2.042-.727l-.866-1.577a.922.922 0 0 1-.665.263c-.433 0-.65-.248-.65-.743v-3.31h1.856v-1.918H438.2v-2.026h-2.196v2.026h-1.3v1.918h1.3v3.65c0 1.563 1.02 2.444 2.335 2.444zm5.26-.216v-4.192c0-1.129.602-1.763 1.468-1.763.372 0 .666.077.867.247l.773-1.949c-.356-.232-.804-.355-1.315-.355-.881 0-1.516.464-1.871 1.067l-.325-.85h-1.794v7.795h2.196zm6.356.216c.944 0 1.64-.294 2.057-.866l.263.65h1.81v-5.074c0-.99-.325-1.732-.96-2.211-.633-.48-1.422-.727-2.335-.727-1.902 0-2.877.742-3.372 2.366l1.918.464c.124-.742.542-1.098 1.362-1.098.788 0 1.19.418 1.19 1.253v.046l-1.453.201c-1.207.17-2.027.48-2.46.928a2.266 2.266 0 0 0-.665 1.64c0 1.562 1.3 2.428 2.645 2.428zm.634-1.748c-.742 0-1.175-.324-1.175-.82 0-.54.31-.85 1.129-.974l1.346-.2v.834c0 .696-.557 1.16-1.3 1.16zm7.254 1.532v-4.192c0-1.175.557-1.779 1.47-1.779.897 0 1.346.557 1.346 1.686v4.285h2.196v-4.517c0-2.366-.944-3.495-2.846-3.495-.928 0-1.67.37-2.243 1.098l-.325-.882h-1.794v7.796h2.196zm9.668.216c2.01 0 3.217-1.16 3.217-2.552 0-1.485-.99-2.165-2.908-2.521-1.005-.201-1.392-.387-1.392-.773 0-.372.417-.65 1.098-.65.603 0 .99.325 1.16.99l1.81-.51c-.325-1.408-1.439-2.212-2.985-2.212-1.996 0-3.11 1.19-3.11 2.505 0 1.532 1.099 2.12 3.032 2.475.866.14 1.269.371 1.269.758 0 .48-.449.758-1.191.758-.79 0-1.238-.433-1.423-1.16l-1.857.588c.372 1.407 1.563 2.304 3.28 2.304zm6.898 0c.944 0 1.64-.294 2.057-.866l.263.65h1.81v-5.074c0-.99-.325-1.732-.96-2.211-.633-.48-1.422-.727-2.335-.727-1.902 0-2.877.742-3.372 2.366l1.918.464c.124-.742.542-1.098 1.361-1.098.79 0 1.191.418 1.191 1.253v.046l-1.454.201c-1.206.17-2.026.48-2.459.928a2.266 2.266 0 0 0-.665 1.64c0 1.562 1.3 2.428 2.645 2.428zm.634-1.748c-.742 0-1.175-.324-1.175-.82 0-.54.309-.85 1.129-.974l1.345-.2v.834c0 .696-.556 1.16-1.299 1.16zm8.817 1.748c1.655 0 2.938-.881 3.495-2.366l-1.995-.665c-.248.634-.773.99-1.5.99-1.099 0-1.887-.851-1.887-2.073 0-1.237.773-2.073 1.887-2.073.742 0 1.33.433 1.562 1.13l2.01-.666c-.494-1.546-1.856-2.505-3.572-2.505-2.305 0-4.084 1.717-4.084 4.114s1.81 4.114 4.084 4.114zm8.043 0c1.036 0 1.716-.355 2.041-.727l-.866-1.577a.922.922 0 0 1-.665.263c-.433 0-.65-.248-.65-.743v-3.31h1.856v-1.918h-1.856v-2.026h-2.196v2.026h-1.3v1.918h1.3v3.65c0 1.563 1.02 2.444 2.336 2.444zm4.176-8.97c.665 0 1.222-.542 1.222-1.207s-.557-1.207-1.222-1.207c-.634 0-1.191.542-1.191 1.207s.526 1.206 1.19 1.206zm1.113 8.754v-7.796h-2.196v7.796h2.196zm5.507.216c2.227 0 4.068-1.717 4.068-4.114s-1.841-4.114-4.068-4.114c-2.243 0-4.084 1.717-4.084 4.114s1.826 4.114 4.084 4.114zm0-2.041c-1.098 0-1.887-.851-1.887-2.073s.789-2.073 1.887-2.073c1.052 0 1.871.882 1.871 2.073 0 1.222-.82 2.073-1.871 2.073zm7.64 1.825v-4.192c0-1.175.557-1.779 1.47-1.779.897 0 1.346.557 1.346 1.686v4.285h2.196v-4.517c0-2.366-.943-3.495-2.846-3.495-.928 0-1.67.37-2.243 1.098l-.325-.882h-1.794v7.796h2.197z" fill="#000" fill-rule="nonzero"/>
        <rect fill="#E3E5EF" fill-rule="nonzero" y="331.688" width="84.211" height="28.357" rx="4.296"/>
        <rect fill="#E3E5EF" fill-rule="nonzero" y="574.01" width="84.211" height="28.357" rx="4.296"/>
        <path d="M23.278 351.452v-2.057h-4.516v-8.77h-2.227v10.827h6.743zm3.511.217c.944 0 1.64-.294 2.058-.866l.263.65h1.81v-5.074c0-.99-.326-1.732-.96-2.212-.634-.48-1.423-.727-2.335-.727-1.903 0-2.877.743-3.372 2.367l1.918.464c.123-.743.541-1.098 1.36-1.098.79 0 1.192.417 1.192 1.252v.047l-1.454.2c-1.207.171-2.026.48-2.46.929a2.266 2.266 0 0 0-.664 1.64c0 1.562 1.299 2.428 2.644 2.428zm.635-1.748c-.743 0-1.176-.325-1.176-.82 0-.541.31-.85 1.13-.974l1.345-.201v.835c0 .696-.557 1.16-1.3 1.16zm8.507 4.78c2.304 0 3.836-1.33 3.851-3.635v-7.41h-2.196v3.852c0 1.176-.573 1.763-1.485 1.763-.913 0-1.377-.48-1.377-1.701v-3.913h-2.196v4.176c0 2.32.959 3.48 2.861 3.48 1.037 0 1.655-.371 2.197-.99v.696c0 1.222-.65 1.825-1.655 1.825-.82 0-1.3-.402-1.423-1.036l-2.027.402c.387 1.485 1.547 2.49 3.45 2.49zm9.218-3.032c1.84 0 3-.897 3.511-2.274l-1.825-.541c-.201.51-.773 1.02-1.686 1.02-1.036 0-1.81-.773-1.918-1.639h5.6v-.742c0-2.382-1.424-4.053-3.697-4.053-2.181-.046-4.022 1.763-3.975 4.114 0 2.429 1.825 4.115 3.99 4.115zm1.779-4.934h-3.681c.17-.866.835-1.547 1.902-1.547 1.222 0 1.748.99 1.779 1.547zm5.475 4.717v-4.191c0-1.13.604-1.764 1.47-1.764.37 0 .665.078.866.248l.773-1.95c-.355-.231-.804-.355-1.314-.355-.882 0-1.516.464-1.872 1.067l-.325-.85h-1.794v7.795h2.196zm15.684 0v-2.072h-4.13l2.058-1.764c1.376-1.19 2.057-2.18 2.057-3.712 0-1.995-1.702-3.495-3.774-3.495-2.073 0-3.65 1.376-3.774 3.387l2.072.572c-.046-1.16.634-1.887 1.702-1.887.928 0 1.546.665 1.546 1.454 0 .85-.355 1.377-1.407 2.258l-3.697 3.187v2.072h7.347zM24.997 593.774v-2.057H20.48v-8.77h-2.227v10.827h6.744zm3.511.216c.944 0 1.64-.293 2.057-.866l.263.65h1.81V588.7c0-.99-.325-1.733-.96-2.212-.633-.48-1.422-.727-2.335-.727-1.902 0-2.877.742-3.372 2.366l1.918.464c.124-.742.542-1.098 1.361-1.098.79 0 1.191.418 1.191 1.253v.046l-1.453.201c-1.207.17-2.027.48-2.46.929a2.266 2.266 0 0 0-.665 1.639c0 1.562 1.3 2.428 2.645 2.428zm.634-1.747c-.742 0-1.175-.325-1.175-.82 0-.542.309-.85 1.129-.975l1.345-.2v.835c0 .696-.556 1.16-1.299 1.16zm8.507 4.779c2.305 0 3.836-1.33 3.852-3.635v-7.409h-2.197v3.852c0 1.175-.572 1.763-1.485 1.763-.912 0-1.376-.48-1.376-1.701v-3.914h-2.197v4.177c0 2.32.96 3.48 2.862 3.48 1.036 0 1.655-.372 2.196-.99v.696c0 1.222-.65 1.825-1.655 1.825-.82 0-1.299-.402-1.423-1.036l-2.026.402c.387 1.485 1.547 2.49 3.45 2.49zm9.219-3.032c1.84 0 3-.897 3.51-2.273l-1.824-.542c-.201.51-.774 1.021-1.686 1.021-1.037 0-1.81-.773-1.918-1.64h5.599v-.742c0-2.382-1.423-4.052-3.697-4.052-2.18-.047-4.021 1.763-3.975 4.114 0 2.428 1.825 4.114 3.99 4.114zm1.778-4.934h-3.68c.17-.866.835-1.546 1.902-1.546 1.222 0 1.748.99 1.778 1.546zm5.476 4.718v-4.192c0-1.129.603-1.763 1.47-1.763.37 0 .664.077.865.247l.774-1.948c-.356-.232-.804-.356-1.315-.356-.881 0-1.516.464-1.871 1.067l-.325-.85h-1.794v7.795h2.196zm12.358 0v-10.827h-2.227c-.696.48-1.64.912-2.305.99v2.258c.356-.031.758-.124 1.222-.279.449-.139.82-.309 1.083-.479v8.337h2.227z" fill="#000" fill-rule="nonzero"/>
    </g>
</svg>
