<svg xmlns="http://www.w3.org/2000/svg" xmlns:xlink="http://www.w3.org/1999/xlink" width="2080" height="1100" viewBox="0 0 2080 1100">
    <defs>
        <linearGradient id="vse9lhkv6a" x1="50%" x2="50%" y1="-9.707%" y2="100%">
            <stop offset="0%" stop-color="#E55C27"/>
            <stop offset="63.73%" stop-color="#F3914C"/>
            <stop offset="100%" stop-color="#F4954F"/>
        </linearGradient>
        <linearGradient id="bilahgef6b" x1="50%" x2="50%" y1="-9.707%" y2="100%">
            <stop offset="0%" stop-color="#E55C27"/>
            <stop offset="63.73%" stop-color="#F3914C"/>
            <stop offset="100%" stop-color="#F4954F"/>
        </linearGradient>
        <linearGradient id="5g7n4ishec" x1="50%" x2="50%" y1="-12.907%" y2="110.618%">
            <stop offset="0%" stop-color="#E55C27"/>
            <stop offset="36.517%" stop-color="#F3914C"/>
            <stop offset="100%" stop-color="#FB8247"/>
        </linearGradient>
        <linearGradient id="nnjmwhkd2d" x1="50%" x2="50%" y1="0%" y2="100%">
            <stop offset="0%" stop-color="#FFD8AD"/>
            <stop offset="100%" stop-color="#FAA61B"/>
        </linearGradient>
        <linearGradient id="74e52yx5eg" x1="100%" x2="0%" y1="50%" y2="50%">
            <stop offset="0%" stop-color="#F4954F"/>
            <stop offset="100%" stop-color="#E55C27"/>
        </linearGradient>
        <linearGradient id="xjrpba4e9j" x1="100%" x2="0%" y1="50%" y2="50%">
            <stop offset="0%" stop-color="#FFF5AE"/>
            <stop offset="1.938%" stop-color="#FFF5AF"/>
            <stop offset="100%" stop-color="#FFEFE3"/>
        </linearGradient>
        <linearGradient id="w0tb2taltl" x1="72.543%" x2="0%" y1="50%" y2="50%">
            <stop offset="0%" stop-color="#E53727"/>
            <stop offset="100%" stop-color="#F4954F"/>
        </linearGradient>
        <linearGradient id="978mrr515n" x1="100%" x2="0%" y1="50%" y2="50%">
            <stop offset="0%" stop-color="#F4954F"/>
            <stop offset="100%" stop-color="#E5D627"/>
        </linearGradient>
        <linearGradient id="e2skwmd2cq" x1="7.196%" x2="102.498%" y1="50.228%" y2="49.493%">
            <stop offset="0%" stop-color="#F5A014"/>
            <stop offset="100%" stop-color="#FFBD4B"/>
        </linearGradient>
        <linearGradient id="ecyjuwtocs" x1="100%" x2="0%" y1="50%" y2="50%">
            <stop offset="0%" stop-color="#F4954F"/>
            <stop offset="100%" stop-color="#E55C27"/>
        </linearGradient>
        <linearGradient id="zlm5wava5t" x1="100%" x2="0%" y1="50%" y2="50%">
            <stop offset="0%" stop-color="#F4954F"/>
            <stop offset="100%" stop-color="#E5D627"/>
        </linearGradient>
        <linearGradient id="105wjlr70y" x1="90.988%" x2="50%" y1="9.683%" y2="90.317%">
            <stop offset="0%" stop-color="#FDD23A"/>
            <stop offset="100%" stop-color="#FAA61B"/>
        </linearGradient>
        <linearGradient id="f8ppjx3foz" x1="100%" x2="0%" y1="50%" y2="50%">
            <stop offset="0%" stop-color="#FF8C37"/>
            <stop offset="100%" stop-color="#E05721"/>
        </linearGradient>
        <linearGradient id="b3dlhzv9zC" x1="76.494%" x2="0%" y1="31.317%" y2="50%">
            <stop offset="0%" stop-color="#262933"/>
            <stop offset="100%" stop-color="#222941"/>
        </linearGradient>
        <linearGradient id="3yqcl7t2cI" x1="100%" x2="0%" y1="50%" y2="50%">
            <stop offset="0%" stop-color="#F4954F"/>
            <stop offset="100%" stop-color="#E55C27"/>
        </linearGradient>
        <linearGradient id="8yezpmga3L" x1="100%" x2="0%" y1="50%" y2="50%">
            <stop offset="0%" stop-color="#FFF5AE"/>
            <stop offset="1.938%" stop-color="#FFF5AF"/>
            <stop offset="100%" stop-color="#FFEFE3"/>
        </linearGradient>
        <linearGradient id="xzbu174wlN" x1="72.543%" x2="0%" y1="50%" y2="50%">
            <stop offset="0%" stop-color="#E53727"/>
            <stop offset="100%" stop-color="#F4954F"/>
        </linearGradient>
        <linearGradient id="j81qk8zchR" x1="100%" x2="0%" y1="50%" y2="50%">
            <stop offset="0%" stop-color="#F4954F"/>
            <stop offset="100%" stop-color="#E5D627"/>
        </linearGradient>
        <linearGradient id="np2tmh64aT" x1="50%" x2="84.114%" y1="0%" y2="86.08%">
            <stop offset="0%" stop-color="#393656"/>
            <stop offset="100%" stop-color="#2B2B2A"/>
        </linearGradient>
        <linearGradient id="l0kfd812yU" x1="76.494%" x2="0%" y1="31.317%" y2="50%">
            <stop offset="0%" stop-color="#E67724"/>
            <stop offset="100%" stop-color="#110E38"/>
        </linearGradient>
        <linearGradient id="2wtustrfyW" x1="32.143%" x2="50%" y1="51.971%" y2="100%">
            <stop offset="0%" stop-color="#FBE8CE"/>
            <stop offset="45.437%" stop-color="#7C756B"/>
            <stop offset="100%" stop-color="#6D6860"/>
        </linearGradient>
        <linearGradient id="vk1dwnia0X" x1="32.142%" x2="50%" y1="51.971%" y2="100%">
            <stop offset="0%" stop-color="#FBE8CE"/>
            <stop offset="45.437%" stop-color="#7C756B"/>
            <stop offset="100%" stop-color="#6D6860"/>
        </linearGradient>
        <linearGradient id="0b1aivomqY" x1="31.569%" x2="50%" y1="51.971%" y2="100%">
            <stop offset="0%" stop-color="#FBE8CE"/>
            <stop offset="45.437%" stop-color="#7C756B"/>
            <stop offset="100%" stop-color="#6D6860"/>
        </linearGradient>
        <linearGradient id="asid8e3gtZ" x1="8.602%" x2="50%" y1="51.971%" y2="100%">
            <stop offset="0%" stop-color="#FBE8CE"/>
            <stop offset="100%" stop-color="#6D6860"/>
        </linearGradient>
        <linearGradient id="ai7g8lw16aa" x1="76.494%" x2="17.692%" y1="31.317%" y2="45.785%">
            <stop offset="0%" stop-color="#E67724"/>
            <stop offset="3.832%" stop-color="#DE7325"/>
            <stop offset="100%" stop-color="#110E38"/>
        </linearGradient>
        <filter id="j5ef431iwh" width="252.3%" height="270.5%" x="-76.1%" y="-85.2%" filterUnits="objectBoundingBox">
            <feGaussianBlur in="SourceGraphic" stdDeviation="50"/>
        </filter>
        <filter id="xpmutduylk" width="252.3%" height="270.5%" x="-76.1%" y="-85.2%" filterUnits="objectBoundingBox">
            <feGaussianBlur in="SourceGraphic" stdDeviation="50"/>
        </filter>
        <filter id="bs65p487qm" width="252.1%" height="270.1%" x="-76.1%" y="-85%" filterUnits="objectBoundingBox">
            <feGaussianBlur in="SourceGraphic" stdDeviation="50"/>
        </filter>
        <filter id="qubefdkfqo" width="252.3%" height="270.5%" x="-76.1%" y="-85.2%" filterUnits="objectBoundingBox">
            <feGaussianBlur in="SourceGraphic" stdDeviation="50"/>
        </filter>
        <filter id="f9dsuc8fuu" width="256.2%" height="274.4%" x="-78.1%" y="-87.2%" filterUnits="objectBoundingBox">
            <feGaussianBlur in="SourceGraphic" stdDeviation="50"/>
        </filter>
        <filter id="fbb3gprjhw" width="256.2%" height="274.4%" x="-78.1%" y="-87.2%" filterUnits="objectBoundingBox">
            <feGaussianBlur in="SourceGraphic" stdDeviation="50"/>
        </filter>
        <filter id="ui06h2v12D" width="250.7%" height="268.5%" x="-75.3%" y="-84.3%" filterUnits="objectBoundingBox">
            <feGaussianBlur in="SourceGraphic" stdDeviation="50"/>
        </filter>
        <filter id="o6jkkf8hrJ" width="256.2%" height="274.4%" x="-78.1%" y="-87.2%" filterUnits="objectBoundingBox">
            <feGaussianBlur in="SourceGraphic" stdDeviation="50"/>
        </filter>
        <filter id="irosa9h3qM" width="256.2%" height="274.4%" x="-78.1%" y="-87.2%" filterUnits="objectBoundingBox">
            <feGaussianBlur in="SourceGraphic" stdDeviation="50"/>
        </filter>
        <filter id="j22783spoO" width="256.5%" height="274.9%" x="-78.2%" y="-87.5%" filterUnits="objectBoundingBox">
            <feGaussianBlur in="SourceGraphic" stdDeviation="50"/>
        </filter>
        <filter id="ltra5e3biP" width="256.2%" height="274.4%" x="-78.1%" y="-87.2%" filterUnits="objectBoundingBox">
            <feGaussianBlur in="SourceGraphic" stdDeviation="50"/>
        </filter>
        <filter id="egs5gpxnwS" width="100%" height="100%" x="0%" y="0%" filterUnits="objectBoundingBox">
            <feGaussianBlur in="SourceGraphic"/>
        </filter>
        <filter id="c4hpbeb8rV" width="179.8%" height="189.3%" x="-39.9%" y="-44.6%" filterUnits="objectBoundingBox">
            <feGaussianBlur in="SourceGraphic" stdDeviation="29"/>
        </filter>
        <filter id="t8vrzi9h8ab" width="267.1%" height="287%" x="-83.6%" y="-93.5%" filterUnits="objectBoundingBox">
            <feGaussianBlur in="SourceGraphic" stdDeviation="43"/>
        </filter>
        <path id="bxcliyqafp" d="M1926 194L0 192.566 0 0 1768.816 0 1926 66.759z"/>
        <path id="0zdd58jeer" d="M41 18.56v700.843C36.048 721.56 26.984 723 16.626 723c-5.573.037-11.138-.43-16.626-1.397V7.417c1.52-1.593 3.235-2.991 5.103-4.162C7.726 1.587 10.69.522 13.778.135 24.382-1.1 35.593 6.238 41 18.56z"/>
        <path id="0a64ybop7x" d="M49 44.792L0 44.483 28.726 0.792 36.926 0.792z"/>
        <path id="w4499toh9B" d="M422.677 27.5L422.677 20.52 0 20.52 43.485 0.5 499.777 0.5 511 20.52 510.677 27.5z"/>
        <path id="luy2qmpybF" d="M0 0L13 0 13 9 0 9z"/>
        <radialGradient id="9y7f81pinf" cx="50%" cy="50%" r="71.598%" fx="50%" fy="50%">
            <stop offset="0%" stop-color="#F5CC93"/>
            <stop offset="100%" stop-color="#FFA237"/>
        </radialGradient>
        <radialGradient id="8pul8b3woA" cx="100%" cy="50%" r="136.513%" fx="100%" fy="50%" gradientTransform="matrix(-.73253 -.36626 .15107 -.48752 1.657 1.11)">
            <stop offset="0%" stop-color="#FB7F2F"/>
            <stop offset="51.402%" stop-color="#F87B2D"/>
            <stop offset="100%" stop-color="#D44B15"/>
        </radialGradient>
        <radialGradient id="y46w9o1h4Q" cx="100%" cy="50%" r="118.235%" fx="100%" fy="50%" gradientTransform="matrix(-.84577 -.42289 .2068 -.47478 1.742 1.16)">
            <stop offset="0%" stop-color="#FB7F2F"/>
            <stop offset="51.402%" stop-color="#F87B2D"/>
            <stop offset="100%" stop-color="#D44B15"/>
        </radialGradient>
        <circle id="y6o6ltp3re" cx="127.5" cy="127.5" r="127.5"/>
        <circle id="xqwpinnmnH" cx="124" cy="124" r="124"/>
    </defs>
    <g fill="none" fill-rule="evenodd">
        <g>
            <g>
                <g transform="translate(153) translate(-153)">
                    <path fill="url(#vse9lhkv6a)" fill-rule="nonzero" d="M1282 266.035V294c-26.104-18.436-41.718-40.277-44.564-63.617-.847-7.141-.458-14.375 1.151-21.383 4.805 20.874 19.819 40.349 43.413 57.035z" opacity=".785"/>
                    <path stroke="#231F20" stroke-width="2" d="M1181 294.5L1141 294.5M2079 1054L2074 1052M1743.835 1065.59L1743.165 1065.41M1743.5 1065.87L1743.5 1065.13"/>
                    <path fill="url(#bilahgef6b)" fill-rule="nonzero" d="M1946.3.2l-29.042 56.844h-.158c-81.501-21.169-170.588-23.313-253.052-20.615-82.823 2.713-170.538 14.974-250.911 41.684-5.086 1.683-10.14 3.432-15.164 5.245-16.794 6.035-33.187 12.75-49.176 20.147-44.537 20.673-100.2 60.255-110.278 105.126-1.616 7.033-2.008 14.292-1.156 21.457 2.873 23.422 18.547 45.332 44.773 63.839v.273l-99.984-12.513v-61.924c-5.373-12.37-16.521-19.68-26.987-18.442-3.07.387-6.014 1.453-8.62 3.123-1.857 1.172-3.56 2.571-5.072 4.166v67.961L148.3 154.061V.2h1798z" opacity=".318"/>
                    <path fill="url(#5g7n4ishec)" fill-rule="nonzero" d="M2074 0L2074 972 1917 905.139 1917 57.106 1917.172 56.768 1946.164 0z" opacity=".742"/>
                    <path fill="url(#nnjmwhkd2d)" fill-rule="nonzero" d="M1915 57.026l1.842.338V905.5H148V153.886l993.6 122.311v-67.85c1.51-1.593 3.213-2.99 5.068-4.16 2.605-1.667 5.548-2.732 8.616-3.118 10.467-1.236 21.602 6.063 26.972 18.412v61.824l99.93 12.478V265.48c-23.692-16.717-38.826-36.228-43.593-57.126 10.051-44.798 65.734-84.316 110.218-104.955 15.947-7.4 32.33-14.105 49.15-20.115 5.02-1.81 10.072-3.556 15.155-5.237 80.33-26.666 167.997-38.908 250.775-41.616 82.441-2.701 171.48-.56 252.951 20.596H1915z" opacity=".32"/>
                    <g transform="translate(20 252)">
                        <mask id="2880065xdi" fill="#fff">
                            <use xlink:href="#y6o6ltp3re"/>
                        </mask>
                        <use fill="url(#9y7f81pinf)" fill-rule="nonzero" opacity=".8" xlink:href="#y6o6ltp3re"/>
                        <path fill="url(#74e52yx5eg)" fill-rule="nonzero" d="M236.095 16.913c15.485 13.09 24.552 34.956 27.203 59.606 2.51 24.51-1.395 51.668-16.88 71.443-15.484 19.637-42.687 32.032-66.263 28.41-23.436-3.76-43.245-23.396-65.844-43.172-22.739-19.776-48.128-39.552-47.29-58.492.836-18.94 27.9-37.045 50.638-50.136 22.6-13.09 40.734-21.168 60.822-23.118 20.088-1.95 41.99 2.228 57.614 15.459z" filter="url(#j5ef431iwh)" mask="url(#2880065xdi)"/>
                        <path fill="url(#xjrpba4e9j)" fill-rule="nonzero" d="M152.095 16.913c15.485 13.09 24.552 34.956 27.203 59.606 2.51 24.51-1.395 51.668-16.88 71.443-15.484 19.637-42.687 32.032-66.263 28.41-23.436-3.76-43.245-23.396-65.844-43.172-22.739-19.776-48.128-39.552-47.29-58.492.836-18.94 27.9-37.045 50.638-50.136 22.6-13.09 40.734-21.168 60.822-23.118 20.088-1.95 41.99 2.228 57.614 15.459z" filter="url(#xpmutduylk)" mask="url(#2880065xdi)"/>
                        <path fill="url(#w0tb2taltl)" fill-rule="nonzero" d="M226.413 123.5c15.5 13.12 24.577 35.034 27.23 59.74 2.514 24.566-1.396 51.784-16.897 71.604-15.5 19.68-42.73 32.103-66.33 28.474-23.46-3.768-43.29-23.45-65.912-43.27-22.762-19.82-48.177-39.64-47.339-58.623.838-18.983 27.929-37.128 50.69-50.248 22.623-13.12 40.776-21.217 60.885-23.17 20.109-1.955 42.033 2.233 57.673 15.493z" filter="url(#bs65p487qm)" mask="url(#2880065xdi)" transform="rotate(-87 155.746 195.75)"/>
                        <path fill="url(#978mrr515n)" fill-rule="nonzero" d="M152.095 105.913c15.485 13.09 24.552 34.956 27.203 59.606 2.51 24.51-1.395 51.668-16.88 71.443-15.484 19.637-42.687 32.032-66.263 28.41-23.436-3.76-43.245-23.396-65.844-43.172-22.739-19.776-48.128-39.552-47.29-58.492.836-18.94 27.9-37.045 50.638-50.136 22.6-13.09 40.734-21.168 60.822-23.118 20.088-1.95 41.99 2.228 57.614 15.459z" filter="url(#qubefdkfqo)" mask="url(#2880065xdi)"/>
                    </g>
                    <path fill="#D8D8D8" stroke="#979797" d="M0.5 234.5H152.5V523.5H0.5z"/>
                    <g transform="translate(148 905.2)">
                        <use fill="url(#e2skwmd2cq)" fill-rule="nonzero" opacity=".62" xlink:href="#bxcliyqafp"/>
                    </g>
                    <g transform="translate(1141 201)">
                        <mask id="08oh77kyzv" fill="#fff">
                            <use xlink:href="#0zdd58jeer"/>
                        </mask>
                        <use fill="url(#ecyjuwtocs)" fill-rule="nonzero" xlink:href="#0zdd58jeer"/>
                        <path fill="url(#zlm5wava5t)" fill-rule="nonzero" d="M120.803 120.551c15.092 12.794 23.93 34.161 26.513 58.251 2.447 23.954-1.36 50.494-16.452 69.82-15.091 19.19-41.603 31.304-64.58 27.765-22.842-3.675-42.148-22.865-64.174-42.191-22.161-19.327-46.906-38.653-46.09-57.163.815-18.51 27.192-36.203 49.353-48.996 22.026-12.794 39.7-20.688 59.279-22.593 19.578-1.906 40.924 2.177 56.151 15.107z" filter="url(#f9dsuc8fuu)" mask="url(#08oh77kyzv)" transform="rotate(19 52 191)"/>
                        <path fill="url(#zlm5wava5t)" fill-rule="nonzero" d="M120.803 462.551c15.092 12.794 23.93 34.161 26.513 58.251 2.447 23.954-1.36 50.494-16.452 69.82-15.091 19.19-41.603 31.304-64.58 27.765-22.842-3.675-42.148-22.865-64.174-42.191-22.161-19.327-46.906-38.653-46.09-57.163.815-18.51 27.192-36.203 49.353-48.996 22.026-12.794 39.7-20.688 59.279-22.593 19.578-1.906 40.924 2.177 56.151 15.107z" filter="url(#fbb3gprjhw)" mask="url(#08oh77kyzv)" transform="rotate(17 52 533)"/>
                    </g>
                    <g transform="translate(1219 995.208)">
                        <use fill="url(#105wjlr70y)" fill-rule="nonzero" xlink:href="#0a64ybop7x"/>
                    </g>
                    <path fill="#2B2B2A" fill-rule="nonzero" d="M1201 989L1712 989 1712 996 1201 996z"/>
                    <path fill="url(#f8ppjx3foz)" fill-rule="nonzero" d="M1285 1026.2L1284.651 1026.479 1268.205 1040 1268.076 1039.95 1267.955 1039.885 1256 996 1260.334 996z"/>
                    <path fill="url(#8pul8b3woA)" fill-rule="nonzero" d="M1686 1009.603c.004 10.112-6.524 19.082-16.18 22.232-9.655 3.15-20.252-.233-26.265-8.385-6.012-8.152-6.079-19.227-.164-27.45h38.225c2.857 3.965 4.39 8.724 4.384 13.603z"/>
                    <g transform="translate(1201 968.5)">
                        <mask id="g9umj876vE" fill="#fff">
                            <use xlink:href="#w4499toh9B"/>
                        </mask>
                        <use fill="#2B2B2A" fill-rule="nonzero" opacity=".65" xlink:href="#w4499toh9B"/>
                        <path fill="url(#b3dlhzv9zC)" fill-rule="nonzero" d="M226.924-81.906c15.65 13.24 24.816 35.353 27.495 60.283 2.538 24.79-1.41 52.255-17.061 72.255-15.651 19.86-43.147 32.396-66.976 28.734-23.688-3.803-43.71-23.663-66.552-43.664-22.983-20-48.646-40-47.8-59.156.846-19.156 28.2-37.466 51.184-50.706 22.842-13.24 41.172-21.409 61.476-23.38 20.304-1.973 42.442 2.253 58.234 15.634z" filter="url(#ui06h2v12D)" mask="url(#g9umj876vE)" transform="rotate(65 155.57 -9)"/>
                    </g>
                    <g transform="translate(1253 696)">
                        <g>
                            <path fill="#231F20" fill-rule="nonzero" d="M70.951 49.664H71.951V50.664H70.951z" transform="translate(0 78.488)"/>
                            <path fill="#2B2B2A" fill-rule="nonzero" d="M71.203 49.664c-.695-.632-1.351-1.305-1.966-2.016-.72-.85-1.52-1.63-2.389-2.328-1.137-.95-2.552-1.501-4.032-1.573.778.923 1.376 1.983 1.764 3.125 1.725 5.475-1.31 11.312-6.783 13.044-.712.25-1.449.418-2.198.504-.159-.101-.324-.192-.494-.273-1.905-.887-4.526.777-4.97 2.964-.362 1.804.542 3.624 2.198 4.425-.11.494-.211 1.008-.282 1.472-.635 4.354-2.651 15.321-2.651 15.321.52 1.427 1.217 2.781 2.076 4.032-1.36 2.631-3.93 6.905-7.428 9.657-4.567 3.588-12.63 4.707-14.909 4.96-.393 0-.615.06-.615.06-2.534-.577-4.918-1.683-6.995-3.246-4.738-3.175-8.064-8.941-7.399-14.737.635-5.483 4.445-10.231 8.86-13.195 6.104-3.937 12.812-6.845 19.858-8.608-.073-.693-.11-1.39-.11-2.087 0-8.134 5.04-14.726 11.35-14.726.033-.114.073-.225.12-.333.47-1.086 1.083-2.103 1.825-3.024 1.249-1.613 2.915-2.854 4.818-3.589 5.221-1.905 10.292 2.258 10.322 7.6l.03 2.571z" transform="translate(0 78.488)"/>
                            <g transform="translate(0 78.488) translate(42 45.512)">
                                <mask id="7pv6jds4eG" fill="#fff">
                                    <use xlink:href="#luy2qmpybF"/>
                                </mask>
                                <path fill="#2B2B2A" d="M.503 9c-.02 0-.038-.001-.058-.003-.275-.03-.473-.278-.442-.552.438-3.788 2.864-6.94 6.181-8.03C8.976-.498 11.47.3 12.705.855c.253.115.365.409.25.66-.115.252-.41.361-.665.247-.89-.4-3.236-1.24-5.79-.402-2.947.968-5.106 3.794-5.498 7.199C.972 8.813.754 9 .503 9" mask="url(#7pv6jds4eG)"/>
                            </g>
                            <path fill="#231F20" fill-rule="nonzero" d="M60.417 92.655c-1.279-.002-2.556-.103-3.82-.302-2.016-.313-3.76-1.623-5.352-3.901l-.091-.121.07-.131c.716-1.35 1.09-2.278 1.11-2.308.02-.03.13-.434.342-1.099l.06-.192h.192c3.02.201 6.045-.285 8.85-1.42 3.77-1.551 6.992-4.19 9.254-7.581l.433-.645v.776c.07 1.845.192 3.931.353 6.22.191 2.61-.927 4.737-1.925 6.612-.39.717-.726 1.462-1.008 2.228v.1h-.091c-2.631 1.19-5.49 1.791-8.377 1.764zm-8.668-4.364c1.092 1.807 2.87 3.095 4.929 3.568 3.961.712 8.044.246 11.743-1.34.293-.752.63-1.486 1.008-2.198 1.008-1.814 2.016-3.86 1.865-6.33-.141-2.016-.252-3.83-.323-5.484-2.29 3.195-5.434 5.68-9.072 7.167-2.808 1.138-5.835 1.637-8.86 1.462l-.292.917c.03.06-.323.927-.998 2.238z" transform="translate(0 78.488)"/>
                            <path fill="#FAA61B" fill-rule="nonzero" d="M78.027 61.488c.06 2.752-1.058 5.947-3.437 7.49-1.024.645-2.183 1.045-3.387 1.169-.07 1.068-.07 2.963 0 5.604-2.28 3.448-5.547 6.129-9.374 7.691-2.837 1.148-5.898 1.638-8.951 1.432-1.173-.078-2.337-.26-3.478-.545 0 0 2.016-10.967 2.671-15.291.07-.494.172-1.008.282-1.472-1.666-.82-2.556-2.672-2.157-4.485.444-2.188 3.024-3.85 4.97-2.964.17.08.335.172.494.272.749-.085 1.486-.254 2.197-.504 5.465-1.74 8.49-7.574 6.764-13.043-.389-1.142-.987-2.202-1.764-3.125 1.48.071 2.895.623 4.032 1.572.869.698 1.669 1.478 2.389 2.329.614.71 1.27 1.384 1.965 2.016l.152.131c.274.235.568.447.877.635 2.016 1.28 2.822 1.421 4.344 2.389.201.14.27.405.161.625-.15.302-.322.595-.504.887l-.383.635c-.06.11-.322.423-.222.554.749.895 1.357 1.897 1.805 2.974.347.971.534 1.993.554 3.024z" transform="translate(0 78.488)"/>
                            <path fill="#E55C27" fill-rule="nonzero" d="M104.84 61.992s15.402-4.536 21.702-7.62c7.056-3.468 28.617-25.301 28.678-25.362 3.74-3.79 5.342-8.658 6.743-13.668.756-2.692 1.17-5.826 2.682-8.306 1.713-2.782 5.695-4.133 7.53-.454.742 1.694 1.153 3.514 1.209 5.363 3.357-3.024 8.195-8.578 12.419-10.352 2.338-1.008 4.788-.736 6.169.746.771.956 1.15 2.17 1.058 3.397-.05 2.822-2.62 5.382-4.98 7.791-2.358 2.41-4.818 4.173-4.536 4.637.162.262 1.008-.252 2.117.111.747.283 1.384.799 1.815 1.472 1.31 2.086.12 6.723.463 5.342.08-.302 2.49-.766 4.163.373 6.17 4.214-1.643 13.245-4.727 16.824-14.747 17.055-29.908 31.63-49.453 43.092-5.614 3.286-13.467 8.285-23.416 13.608l-9.636-36.994zM46.699 143.852l-13.256 42.83-.171.574c3.407.141 7.056.121 10.201 1.684 1.34.672 2.543 1.588 3.548 2.701 1.94 2.162 2.839 5.063 2.46 7.943-.202 2.353-.717 4.668-1.533 6.885-.786 2.247-1.764 4.425-2.721 6.612-1.09 2.901-2.521 5.663-4.264 8.225-.692.89-1.738 1.436-2.864 1.494-1.126.058-2.222-.377-3.003-1.191-1.501-1.653-.655-4.496-1.008-4.556-.352-.06-.453 1.552-.786 2.439-.594 1.522-1.31 3.185-2.963 3.75-1.681.56-3.535.07-4.718-1.25-.59-.81-.898-1.79-.877-2.792.087-.865.087-1.736 0-2.601-.191-.232-.524 1.804-1.915 3.82-.618 1.122-1.579 2.016-2.742 2.55-3.276 1.23-5.554-1.088-5.846-4.162-.444-4.728 1.16-10.181 3.105-14.445-.666.06-8.568.564-13.8-5.887-5.231-6.451-3.185-13.93-2.984-14.596 2.11-8.393 4.426-16.998 6.946-25.815 2.93-10.22 5.953-20.055 9.072-29.504l30.119 15.292z" transform="translate(0 78.488)"/>
                            <path fill="#231F20" fill-rule="nonzero" d="M71.717 62.496c-1.294-.013-2.45-.811-2.923-2.016-.098-.259.027-.548.282-.655.124-.05.263-.048.386.005s.22.153.27.277c.342.876 1.208 1.433 2.146 1.381.861-.076 1.59-.666 1.845-1.492.058-.18.207-.316.392-.356.184-.04.377.022.504.162s.17.337.112.517c-.385 1.229-1.487 2.094-2.772 2.177h-.242zM66.395 53.988c-.066.016-.135.016-.202 0-.123-.053-.22-.153-.27-.278-.048-.125-.046-.264.008-.387.23-.539.626-.99 1.13-1.29.372-.213.79-.333 1.219-.353.278 0 .504.226.504.504 0 .279-.226.504-.504.504-.27.012-.532.088-.766.222-.317.189-.565.475-.706.816-.085.152-.24.25-.413.262z" transform="translate(0 78.488)"/>
                            <path fill="#E55C27" fill-rule="nonzero" d="M256.564 199.816c-26.107.188-52.214.312-78.321.373-28.587.06-57.17.04-85.751-.06l22.428-49.715c31.228 2.762 63.356 6.28 96.385 10.554 17.257 2.257 34.211 4.667 50.864 7.227-1.865 10.544-1.865 10.544-5.605 31.62 3.74-21.076 3.74-21.076 5.605-31.62l-5.605 31.62z" transform="translate(0 78.488)"/>
                            <path fill="#FAA61B" fill-rule="nonzero" d="M132.923 169.344l33.465 3.82c6.744-16.763 13.931-33.445 20.16-50.4 4.657-12.6 6.744-27.77-4.324-37.74-8.134-7.307-20.815-8.063-30.522-3.638-16.39 7.48-29.474 20.16-43.082 31.62L52.051 154.82c4.264 12.771 9.072 32.68 20.654 40.904 14.626 10.393 32.619 2.278 43.969-8.79 5.715-5.58 11.138-11.45 16.249-17.589zM261.765 170.483l8.73 1.33c.49.075.992-.021 1.421-.272l16.592-9.646c.827-.437 1.838-.323 2.548.286.71.61.974 1.592.667 2.476l-9.314 23.617-3.89 9.213c-.508 1.203-1.66 2.006-2.964 2.067l-18.99.262 5.2-29.333z" transform="translate(0 78.488)"/>
                            <path fill="#FAA61B" fill-rule="nonzero" d="M132.923 169.485c-4.889 13.356-8.286 23.184-8.679 24.918-.211.792-.211 1.627 0 2.42.454 1.46 2.328 3.154 3.931 3.084l43.697.312c.862-.04 1.621-.58 1.94-1.382.32-.802.14-1.716-.458-2.337l-15.725-15.524c-.506-.554-.584-1.376-.192-2.016l3.911-6.38-28.425-3.095z" transform="translate(0 78.488)"/>
                            <path fill="#231F20" fill-rule="nonzero" d="M69.943 70.711c-1.016-.006-2.028-.11-3.024-.312-.963-.226-1.913-.508-2.843-.847l-.443-.151-.454-.151c-.186-.042-.332-.185-.379-.37-.046-.184.015-.38.16-.504.144-.124.346-.157.522-.084l.474.161.453.151c.886.324 1.792.59 2.712.797 1.324.28 2.684.355 4.032.222.278-.031.528.17.56.448.03.278-.171.529-.45.56-.423.05-.866.08-1.32.08z" transform="translate(0 78.488)"/>
                            <path fill="#E55C27" fill-rule="nonzero" d="M114.507 98.986l-5.857 4.032c1.008 6.814 0 10.02 0 10.02l-27.276 28.515L52.05 154.82l-5.1-13.266c-.081.767-.172 1.533-.252 2.299-11.118-1.453-21.864-4.978-31.682-10.393 2.51-11.055 7.317-21.458 14.112-30.532 1.465-1.935 3.071-3.857 4.818-5.766 4.566-4.937 9.761-9.251 15.453-12.832 1.16.285 2.345.464 3.538.535 3.054.206 6.114-.284 8.951-1.432 3.827-1.562 7.094-4.243 9.375-7.69 6.914-2.689 14.038-5.652 21.37-8.891 5.1-2.265 10.019-4.553 14.756-6.865 1.257 2.392 2.365 4.86 3.317 7.389 3.698 10.1 5 20.922 3.8 31.61z" transform="translate(0 78.488)"/>
                            <path fill="#231F20" fill-rule="nonzero" d="M125.857 169.586c-.117 0-.233-.02-.343-.06-.522-.186-.796-.758-.615-1.28l20.261-57.366c.215-.476.76-.71 1.252-.536.494.173.773.695.643 1.201l-20.26 57.355c-.137.404-.512.678-.938.686zM155.583 172.973h-.111l-18.396-2.016c-.36-.04-.672-.269-.818-.6-.145-.332-.103-.716.111-1.008.215-.292.568-.448.929-.408l18.396 2.016c.556.03.983.507.952 1.063-.03.557-.507.983-1.063.953zM68.3 155.827c-.407.002-.775-.24-.934-.615-.159-.375-.077-.808.208-1.099l40.32-41.802c.236-.307.627-.452 1.006-.372.38.079.68.369.772.745.093.376-.038.772-.336 1.018l-40.32 41.812c-.187.196-.445.309-.716.313z" transform="translate(0 78.488)"/>
                            <path fill="#231F20" fill-rule="nonzero" d="M52.051 155.817c-.394 0-.752-.228-.917-.585-.113-.244-.122-.524-.028-.775.095-.252.286-.456.532-.566l29.322-13.255c.51-.228 1.108 0 1.336.51.228.509 0 1.107-.509 1.335l-29.363 13.255c-.118.05-.245.078-.373.08zM54.279 85.418c-1.698-.002-3.389-.202-5.04-.595-.279-.064-.452-.341-.388-.62.064-.278.341-.452.62-.388 3.394.853 6.953.8 10.321-.151 4.513-1.358 8.412-4.245 11.028-8.165.076-.112.193-.188.325-.213.133-.025.27.005.38.082.112.074.188.19.213.32.025.131-.005.267-.081.376-2.75 4.114-6.844 7.143-11.582 8.568-1.885.535-3.837.8-5.796.786zM46.699 144.86h-.131c-4.428-.59-8.808-1.5-13.104-2.722-6.563-1.885-12.895-4.495-18.88-7.782-.49-.278-.662-.9-.383-1.39.278-.49.9-.662 1.39-.384 9.713 5.347 20.338 8.834 31.33 10.282.556.036.978.517.942 1.073-.036.557-.517.979-1.074.943l-.09-.02zM114.507 99.994h-.111c-.266-.03-.51-.166-.676-.376-.166-.21-.242-.477-.211-.743 1.549-13.223-.91-26.606-7.056-38.415-.166-.32-.148-.705.047-1.009.195-.304.537-.48.897-.464.36.017.684.225.85.545 6.32 12.17 8.842 25.956 7.237 39.575-.06.497-.476.875-.977.887z" transform="translate(0 78.488)"/>
                            <path fill="#231F20" fill-rule="nonzero" d="M49.4 146.835c-.4.004-.763-.23-.927-.594-1.008-2.218-1.895-4.486-2.742-6.754-1.008-2.59-1.865-5.252-2.651-7.903-.108-.513.195-1.023.698-1.174.503-.15 1.036.111 1.227.6.786 2.61 1.663 5.231 2.61 7.771.837 2.238 1.745 4.466 2.702 6.643.109.245.115.522.02.772-.097.25-.29.45-.534.559-.128.05-.265.078-.403.08zM108.65 103.995c-.46.02-.875-.275-1.008-.715-1.785-6.015-5.788-11.127-11.199-14.304-.456-.29-.602-.887-.332-1.355.27-.468.862-.64 1.34-.389 5.873 3.427 10.222 8.958 12.167 15.473.156.535-.151 1.094-.686 1.25-.09.028-.186.042-.282.04zM170.844 24.192c-.143 0-.284-.032-.413-.09-.506-.23-.732-.825-.504-1.331.784-1.758 1.382-3.592 1.784-5.474.445-2.08.644-4.204.594-6.33 0-.557.452-1.008 1.008-1.008.557 0 1.008.451 1.008 1.008.053 2.282-.164 4.562-.645 6.794-.425 2.017-1.064 3.984-1.905 5.867-.173.352-.534.573-.927.564zM176.71 34.484c-1.857.124-3.583-.963-4.274-2.692-1.008-2.66.736-5.796 1.512-7.056 2.108-2.992 4.923-5.416 8.196-7.056.313-.18.698-.179 1.011.002.313.182.505.516.504.877 0 .362-.194.695-.507.875-2.975 1.506-5.54 3.71-7.48 6.421-1.008 1.563-1.865 3.76-1.32 5.242.544 1.482 2.207 1.4 2.711 1.36 1.545-.275 2.96-1.042 4.032-2.187 1.784-1.602 3.548-3.336 5.393-5.322.387-.362.988-.363 1.376-.002.388.362.43.961.096 1.373-1.875 2.016-3.69 3.81-5.524 5.453-1.4 1.455-3.244 2.403-5.242 2.692-.16.016-.322.023-.484.02z" transform="translate(0 78.488)"/>
                            <path fill="#231F20" fill-rule="nonzero" d="M182.456 42.245c-1.565-.01-3.026-.785-3.911-2.076-2.389-3.226.312-6.744 1.925-8.84 1.804-2.372 3.859-4.542 6.129-6.472.426-.359 1.062-.305 1.421.121.36.426.305 1.062-.12 1.422-2.152 1.834-4.101 3.891-5.817 6.138-1.865 2.43-3.286 4.577-1.915 6.421.498.784 1.36 1.262 2.288 1.27 2.701 0 6.21-3.487 7.903-5.826.328-.45.96-.55 1.41-.222.452.329.551.96.223 1.411-1.795 2.46-5.816 6.633-9.526 6.653h-.01zM24.714 217.577c-.113-.001-.226-.022-.333-.06-.525-.182-.805-.755-.625-1.28l5.04-14.345c.187-.526.765-.801 1.29-.615.527.187.802.765.616 1.29l-5.04 14.334c-.141.404-.52.674-.948.676zM34.078 218.03c-.12 0-.239-.021-.352-.06-.25-.095-.452-.285-.562-.53-.11-.243-.118-.52-.023-.77l5.09-13.649c.126-.338.423-.584.78-.644.356-.06.717.074.947.353.23.278.294.658.168.997l-5.1 13.648c-.148.395-.526.657-.948.655z" transform="translate(0 78.488)"/>
                        </g>
                        <path fill="#FAA61B" fill-rule="nonzero" d="M183.724 27.604c3.608 0 6.532 2.925 6.533 6.533l.003 18.167c0 3.607-2.923 6.531-6.53 6.532h-.001c-3.609 0-6.533-2.926-6.534-6.534l-.003-18.167c0-3.607 2.923-6.53 6.53-6.531h.002z" transform="rotate(62.35 183.726 43.22)"/>
                        <path fill="#FAA61B" fill-rule="nonzero" d="M166.318 20.538c1.452 0 2.63 1.177 2.63 2.63v5.407c-.001 1.453-1.179 2.63-2.631 2.63-1.453.001-2.63-1.176-2.63-2.629v-5.408c0-1.453 1.178-2.63 2.63-2.63z" transform="rotate(104.27 166.317 25.872)"/>
                        <path fill="#E55C27" fill-rule="nonzero" d="M198.186 50.33c1.452-.001 2.63 1.176 2.63 2.628v5.41c0 1.452-1.179 2.63-2.631 2.63-1.452 0-2.63-1.177-2.63-2.63V52.96c.001-1.453 1.179-2.63 2.631-2.63z" transform="rotate(113.05 198.186 55.663)"/>
                        <circle cx="201.3" cy="19.188" r="6.3" fill="#E55C27" fill-rule="nonzero"/>
                        <path fill="#2B2B2A" fill-rule="nonzero" d="M177.663 3.2l5.277.002c2.643.002 4.786 2.145 4.789 4.789v5.278c.003 2.644-2.14 4.789-4.785 4.789l-.001-.002h-5.277c-2.644-.003-4.787-2.146-4.789-4.79V7.988c-.003-2.644 2.14-4.788 4.784-4.789.001 0 .002 0 .002.002z" transform="rotate(35.93 180.303 10.629)"/>
                    </g>
                    <g transform="translate(1613 189)">
                        <mask id="pjt8x1kdiK" fill="#fff">
                            <use xlink:href="#xqwpinnmnH"/>
                        </mask>
                        <use fill="url(#9y7f81pinf)" fill-rule="nonzero" opacity=".8" xlink:href="#xqwpinnmnH"/>
                        <path fill="url(#3yqcl7t2cI)" fill-rule="nonzero" d="M229.803 16.551c15.092 12.794 23.93 34.161 26.513 58.251 2.447 23.954-1.36 50.494-16.452 69.82-15.091 19.19-41.603 31.304-64.58 27.765-22.842-3.675-42.148-22.865-64.174-42.191-22.161-19.327-46.906-38.653-46.09-57.163.815-18.51 27.192-36.203 49.353-48.996 22.026-12.794 39.7-20.688 59.279-22.593C193.23-.462 214.576 3.62 229.803 16.55z" filter="url(#o6jkkf8hrJ)" mask="url(#pjt8x1kdiK)"/>
                        <path fill="url(#8yezpmga3L)" fill-rule="nonzero" d="M147.803 16.551c15.092 12.794 23.93 34.161 26.513 58.251 2.447 23.954-1.36 50.494-16.452 69.82-15.091 19.19-41.603 31.304-64.58 27.765-22.842-3.675-42.148-22.865-64.174-42.191C6.95 110.869-17.796 91.543-16.98 73.033c.815-18.51 27.192-36.203 49.353-48.996C54.4 11.243 72.073 3.349 91.652 1.444 111.23-.462 132.576 3.62 147.803 16.55z" filter="url(#irosa9h3qM)" mask="url(#pjt8x1kdiK)"/>
                        <path fill="url(#xzbu174wlN)" fill-rule="nonzero" d="M220.14 120.142c15.072 12.757 23.897 34.064 26.477 58.086 2.444 23.885-1.358 50.35-16.429 69.62-15.07 19.136-41.547 31.214-64.493 27.686-22.81-3.664-42.09-22.8-64.086-42.071-22.131-19.271-46.842-38.543-46.028-57 .815-18.457 27.156-36.1 49.287-48.856 21.995-12.757 39.646-20.629 59.198-22.529 19.551-1.9 40.868 2.172 56.075 15.064z" filter="url(#j22783spoO)" mask="url(#pjt8x1kdiK)" transform="rotate(-87 151.431 190.39)"/>
                        <path fill="url(#zlm5wava5t)" fill-rule="nonzero" d="M147.803 102.551c15.092 12.794 23.93 34.161 26.513 58.251 2.447 23.954-1.36 50.494-16.452 69.82-15.091 19.19-41.603 31.304-64.58 27.765-22.842-3.675-42.148-22.865-64.174-42.191-22.161-19.327-46.906-38.653-46.09-57.163.815-18.51 27.192-36.203 49.353-48.996 22.026-12.794 39.7-20.688 59.279-22.593 19.578-1.906 40.924 2.177 56.151 15.107z" filter="url(#ltra5e3biP)" mask="url(#pjt8x1kdiK)"/>
                    </g>
                    <path stroke="#231F20" stroke-width="2" d="M1389 592V280.934c0-8.8 7.162-15.934 15.996-15.934h0c4.244 0 8.315 1.676 11.316 4.664 3.002 2.989 4.688 7.043 4.688 11.27V389.42"/>
                    <path fill="url(#y46w9o1h4Q)" fill-rule="nonzero" d="M1412 220c0 3.871-3.361 7-7.504 7-4.142 0-7.496-3.129-7.496-7s3.361-7 7.496-7c4.136 0 7.504 3.136 7.504 7z"/>
                    <path fill="url(#j81qk8zchR)" fill-rule="nonzero" d="M1412 78v142c0-3.865-3.361-7.002-7.504-7.002-4.142 0-7.496 3.137-7.496 7.002V83.257c4.97-1.818 9.97-3.57 15-5.257z" filter="url(#egs5gpxnwS)"/>
                    <circle cx="1405" cy="268" r="1" stroke="#231F20" stroke-width="2"/>
                    <circle cx="1405" cy="261" r="1" stroke="#231F20" stroke-width="2"/>
                    <path stroke="#231F20" stroke-width="2" d="M1403.5 268L1403.5 261M1405.5 268L1405.5 261M1404.5 227L1404.5 269"/>
                    <path fill="#2B2B2A" fill-rule="nonzero" d="M1409 593.04c-13.3-1.439-26.712-1.385-40 .16.584 11.594 9.315 20.8 19.996 20.8 10.682 0 19.491-9.293 20.004-20.96zM1441 390.04c-13.3-1.439-26.712-1.385-40 .16.584 11.594 9.315 20.8 19.996 20.8 10.682 0 19.491-9.293 20.004-20.96z"/>
                    <path stroke="#231F20" stroke-width=".5" d="M1304.5 844.595L1304.5 844.405"/>
                    <path d="M934.385 870c.1-.604.18-1.281.23-2"/>
                    <path fill="#E55C27" fill-rule="nonzero" d="M930.15 781.555c.32 0 .7-.11.7-.11-.11.04-.224.068-.34.08l-.36.03zM930.855 783c-.26-.327-.5-.66-.71-1 .22.296.45.63.71 1z"/>
                    <path fill="#E55C27" fill-rule="nonzero" d="M946.497 784.415c.007.056.007.114 0 .17.005-.057.005-.113 0-.17zM946.465 785.66l.07-.32c-.017.108-.04.215-.07.32z" opacity=".71"/>
                    <path fill="#E55C27" fill-rule="nonzero" d="M946.66 781c-.1-.397-.23-.766-.32-1 0 .085.08.17.11.255.06.234.13.49.21.745z"/>
                    <g transform="translate(1598 542)">
                        <path fill="#2B2B2A" fill-rule="nonzero" d="M0 0v149.8h184.8V0H0zm177.469 142.502H7.3V7.298H177.47v135.204z"/>
                        <path fill="#FAA61B" fill-rule="nonzero" d="M177.8 7v135.8H8.4C8.4 81.237 57.88 7 118.92 7h58.88z" opacity=".27"/>
                        <circle cx="136.5" cy="72.1" r="41.3" fill="url(#np2tmh64aT)" fill-rule="nonzero" opacity=".61"/>
                        <g transform="translate(18.2 22.4)">
                            <path fill="#FAA61B" fill-rule="nonzero" stroke="#2B2B2A" stroke-linecap="round" stroke-width="1.008" d="M81.921 16.985h0v-.272c.013.09.013.181 0 .272z" opacity=".77"/>
                            <path fill="#2B2B2A" fill-rule="nonzero" d="M106.86 13.104c-.116.603-.353 1.175-.696 1.683-.735-.022-1.462.141-2.117.474-.483.304-.927.666-1.32 1.079h-.243c-.352-.131-.13-1.008-.282-2.117-.309-1.665-1.19-3.17-2.49-4.254-.896-.785-2.026-1.252-3.215-1.33-1.24-.162-1.714.15-4.627.866s-4.324 1.008-5.362.756c-2.016-.534-2.53-2.016-3.417-1.784-.424.131-1.13.736-1.25 4.869 0 1.542 0 2.782.06 3.377-.148-.455-.348-.891-.595-1.3-.27-.629-.506-1.271-.705-1.926-.49-1.354-.67-2.8-.524-4.233.053-.786.496-1.493 1.179-1.885.454-.232.685-.273.595-.847-.131-.827-.605-1.391-.575-2.278.132-1.766 1.32-3.276 3.004-3.82 1.554-.56 3.25-.58 4.818-.061 1.532.484 2.631 1.562 4.345 1.492.938-.147 1.856-.408 2.731-.776 1.26-.467 2.65-.427 3.881.11.593.266 1.1.692 1.462 1.23.279.587.616 1.145 1.008 1.663.465.445 1.057.734 1.693.827.907.141 1.734 0 2.268.887.445.86.67 1.815.655 2.782.145 1.51.05 3.035-.282 4.516z"/>
                            <path stroke="#2B2B2A" stroke-linecap="round" stroke-width="1.008" d="M83.09 8.205c1.228 1.227 2.697 2.185 4.315 2.812 1.972.762 4.103 1.018 6.199.746"/>
                            <path fill="#FAA61B" fill-rule="nonzero" d="M109.48 19.485c-.13.789-.48 1.526-1.008 2.127-.622.74-1.404 1.33-2.288 1.723-.383.182-.716.313-.958.403-.796.293-.877.202-1.25.454-.907.605-.887 1.441-1.502 2.792-.656 1.403-1.629 2.635-2.842 3.599-.597.484-1.246.9-1.936 1.24-1.486.81-3.146 1.25-4.838 1.28-.87.011-1.737-.09-2.58-.303-1.164-.275-2.252-.805-3.186-1.552-1.1-.997-1.956-2.236-2.5-3.619-1.563-3.327-2.47-6.924-2.67-10.594.009-.08.009-.161 0-.242 0-.594-.102-1.834-.061-3.377.12-4.132.826-4.737 1.25-4.868.887-.272 1.431 1.25 3.417 1.784 1.008.282 2.5-.06 5.362-.756 2.863-.696 3.387-1.008 4.627-.867 1.189.078 2.32.546 3.216 1.33 1.3 1.085 2.18 2.59 2.49 4.254.15 1.1-.071 2.016.282 2.117.075.04.166.04.242 0 .394-.412.837-.775 1.32-1.078.655-.333 1.383-.496 2.117-.474.372.026.735.125 1.068.292.217.117.417.263.595.434 1.116.979 1.719 2.418 1.633 3.9z"/>
                            <path fill="#2B2B2A" fill-rule="nonzero" d="M83.825 17.096c-2.012 0-3.634 1.712-3.634 3.815 0 2.103 1.622 3.815 3.634 3.815 2.012 0 3.634-1.712 3.634-3.815 0-2.103-1.622-3.815-3.634-3.815zm0 .756c1.585 0 2.878 1.365 2.878 3.059 0 1.694-1.293 3.06-2.878 3.06-1.585 0-2.878-1.366-2.878-3.06s1.293-3.06 2.878-3.06z" transform="rotate(-7.97 83.825 20.911)"/>
                            <path fill="#2B2B2A" fill-rule="nonzero" d="M93.01 16.074c-2.012 0-3.634 1.713-3.634 3.816 0 2.102 1.622 3.815 3.634 3.815 2.012 0 3.634-1.713 3.634-3.815 0-2.103-1.622-3.816-3.634-3.816zm0 .756c1.585 0 2.878 1.366 2.878 3.06s-1.293 3.059-2.878 3.059c-1.585 0-2.878-1.365-2.878-3.06 0-1.693 1.293-3.059 2.878-3.059z" transform="rotate(-7.97 93.01 19.89)"/>
                            <path fill="#2B2B2A" fill-rule="nonzero" d="M88.275 18.635c.674-.067 1.342.18 1.811.668.145.15.14.39-.01.535-.15.144-.39.14-.535-.01-.309-.322-.748-.485-1.188-.441-.458.05-.868.308-1.11.7-.11.177-.344.232-.521.122-.178-.11-.232-.343-.122-.52.365-.59.981-.979 1.675-1.054z"/>
                            <path stroke="#2B2B2A" stroke-linecap="round" stroke-width=".756" d="M96.124 18.95L102.484 16.36"/>
                            <path fill="#2B2B2A" fill-rule="nonzero" d="M105.147 17.362c.343-.114.71-.14 1.065-.074.206.038.341.236.303.44-.038.206-.235.342-.44.304-.23-.043-.467-.026-.64.027-.895.447-1.434 1.389-1.364 2.387.015.208-.142.389-.35.404-.209.014-.39-.143-.404-.351-.091-1.304.612-2.533 1.83-3.137zM96.07 23.23c.208-.013.387.145.401.353.089 1.374-.498 2.704-1.594 3.582-.658.452-1.44.687-2.238.67-.209-.003-.375-.176-.37-.385.004-.208.176-.374.385-.37.64.013 1.267-.176 1.772-.522.882-.706 1.364-1.799 1.29-2.926-.013-.209.145-.388.353-.402z"/>
                            <circle cx="84.834" cy="20.12" r="1" fill="#2B2B2A" fill-rule="nonzero"/>
                            <circle cx="93.322" cy="18.325" r="1" fill="#2B2B2A" fill-rule="nonzero"/>
                            <path fill="#2B2B2A" fill-rule="nonzero" d="M88.444 17.151c.182.005.33.14.361.312l.006.077-.123 4.325c-.05.45.138.889.475 1.154l.105.075.726.393c.184.1.252.329.152.512-.087.16-.273.233-.441.182l-.071-.03-.746-.405c-.62-.387-.984-1.074-.965-1.772l.011-.161.121-4.295c.006-.208.18-.373.389-.367z"/>
                            <path fill="#FAA61B" fill-rule="nonzero" d="M86.82 77.616l-1.441 3.588-3.256-.241c-5.674-.72-11.414.672-16.128 3.91-1.551 1.057-2.94 2.334-4.123 3.79-3.104-.322-9.304-.584-14.324 1.533h-.1L24.506 74.36c-.494-.332-2.47-.08-3.095-.161-1.692-.228-3.355-.637-4.96-1.22-2.73-.95-5.338-2.218-7.771-3.78-4.213-2.742-5.725-5.04-6.29-5.937-.594-1.017-.861-2.192-.766-3.367.121-1.008.585-1.774 1.613-1.905.201 0 1.008-.1 1.109.162-.898-1.704-1.331-5.393 1.633-5.272.818.025 1.589.39 2.126 1.008-.625-1.593-.393-3.155.515-3.85.37-.276.82-.42 1.28-.414 1.27 0 2.086 1.24 3.024 2.137 1.249 1.286 2.739 2.313 4.384 3.024 2.853 1.129 6.472.463 9.456.494 3.267.136 6.449 1.089 9.253 2.772l27.095 14.858 2.913-11.602 18.144 10.02 2.651 6.289zM115.528 37.014c-2.455 3.562-6.119 6.112-10.312 7.177-9.334 2.177-16.42-4.708-16.904-5.151 2.51-.827 4.304-1.25 4.304-1.25l-2.389-5.04c.844.212 1.711.314 2.58.302 1.693-.03 3.353-.47 4.84-1.28.688-.34 1.337-.756 1.934-1.24 1.208-.949 2.18-2.163 2.843-3.548.615-1.35.595-2.187 1.502-2.792.373-.252.454-.161 1.25-.454.242-.09.574-.221.957-.403l6.048 13.265s1.331.091 3.347.414z"/>
                            <path fill="#2B2B2A" fill-rule="nonzero" d="M142.875 56.922l-18.93 12.54 5.221 8.608.524.856 1.008 1.654-43.233-1.502-.13-.303-.515-1.159-2.661-6.25-18.144-10.02-.161-.09c-.524-.292 3.598-8.296 4.032-9.021 1.882-3.138 4.378-5.863 7.338-8.014 3.433-2.242 7.166-3.986 11.088-5.181.454.443 7.54 7.348 16.854 5.15 4.211-1.053 7.895-3.604 10.362-7.176 3.805.586 7.527 1.621 11.088 3.084 1.772.742 3.461 1.667 5.04 2.762 1.723 1.23 3.306 2.646 4.717 4.224 2.664 2.912 4.953 6.146 6.815 9.626l-.313.212z"/>
                            <path fill="#FAA61B" fill-rule="nonzero" d="M162.34 98.19c-.073 1.665-.467 3.301-1.16 4.818-1.562 3.366-4.314 5.15-8.477 7.781-2.257 1.424-4.616 2.68-7.056 3.76-3.425 1.55-6.976 2.805-10.614 3.75-1.518.429-2.769 1.506-3.417 2.943-.918 1.774-1.664 3.66-2.54 5.464-.693 1.75-1.536 3.436-2.52 5.04-.938 1.3-2.904 2.54-4.395 1.31-1.008-.816-.252-3.941-.162-4.324-.473 1.532-1.25 3.467-2.57 4.435-.907.674-2.159.636-3.024-.09-.847-.737-.917-2.269-.494-6.22.07-.635.08-1.532.131-1.895v-.797s-.333.867-.706 1.805c-.524 1.3-.786 1.945-.907 2.207-.232.464-.473 1.008-.756 1.452-.375.839-1.12 1.454-2.016 1.663-.884.013-1.712-.434-2.187-1.18-1.008-1.521-.313-4.162-.313-4.162s.131-.746.353-1.875c.293-1.553.766-3.8 1.29-5.847.313-1.432.776-2.827 1.381-4.163 1.14-2.463 2.706-4.705 4.627-6.622 3.024-2.873 19.485-17.993 19.485-17.993l-6.582-10.524-.545-.856-5.221-8.609 18.93-12.54 11.723 20.1c1.663 2.359 8.417 12.268 7.742 21.168z"/>
                            <path fill="#E55C27" fill-rule="nonzero" d="M143.288 178.224c-.099.027-.2.044-.302.05l-1.593.061-25.865 1.089-1.915.07c-.373.018-.73-.147-.958-.443-3.115-4.113-25.452-33.587-25.966-34.272-3.77-5.04-10.937-12.66-18.144-24.363-.685-1.12-1.36-2.278-2.016-3.468-5.04-8.77-7.55-15.261-7.48-20.432.007-1.916.452-3.806 1.301-5.524.414-.823.915-1.6 1.492-2.318 1.183-1.457 2.572-2.734 4.123-3.79 4.714-3.239 10.454-4.63 16.128-3.911l3.255.242 1.069.09c.386.026.76-.144.993-.453.234-.309.296-.714.166-1.079l-.201-.554c-.047-.126-.071-.26-.071-.393l.131.302 43.213 1.452-1.008-1.654 6.723 10.514s-16.49 15.12-19.484 17.993c-1.921 1.917-3.487 4.16-4.627 6.622-.605 1.335-1.068 2.73-1.381 4.163l-3.89-.171c-.453-.02-.874.23-1.073.637-.199.407-.138.893.155 1.238.595.695 1.33 1.552 2.197 2.5.283.312.736.877 1.32 1.643-.221 1.129-.352 1.875-.352 1.875s-.726 2.64.312 4.163c.476.745 1.304 1.192 2.188 1.179.895-.21 1.64-.825 2.016-1.663 5.11 7.056 11.965 16.793 13.305 18.789 2.016 3.024 17.136 27.216 17.136 27.216.346.437.445 1.02.264 1.546-.182.526-.62.924-1.16 1.054z"/>
                            <path fill="#FAA61B" fill-rule="nonzero" d="M142.462 193.536c-6.905 1.27-14.112 2.016-21.088 3.226-1.491.262-10.785 2.328-10.08-1.12.514-2.64 4.093-5.493 5.907-7.287 1.351-1.35.635-2.137 0-3.81-.14-.383-1.008-3.216-1.653-5.161l25.835-1.008c2.61 4.284 8.165 13.86 1.079 15.16z"/>
                            <path fill="#E55C27" fill-rule="nonzero" d="M68.616 120.365l-5.232-.191S48.677 168.96 47.488 173.92c-1.19 4.96-3.336 4.405-3.336 4.405l-2.893-.221-23.99-1.855h-.202c-1.008-.07-.434-1.16-.434-1.16l12.933-46.539s6.552-24.666 12.176-33.657c1.399-2.143 3.432-3.796 5.817-4.727 5.04-2.117 11.219-1.855 14.323-1.533-.577.719-1.077 1.496-1.492 2.319-.85 1.714-1.299 3.6-1.31 5.514-.07 5.17 2.48 11.662 7.48 20.432.695 1.19 1.37 2.348 2.056 3.467z"/>
                            <path fill="#FAA61B" fill-rule="nonzero" d="M41.259 178.104l-5.605 14.424s-1.129 2.903-3.84 3.024c-2.712.121-26.42.756-26.42.756s-3.568-.655.937-4.405c1.936-1.623 3.84-3.296 5.736-4.97 3.024-2.65 3.931-6.884 5.201-10.634l23.99 1.805z"/>
                            <path stroke="#2B2B2A" stroke-linecap="round" stroke-width="1.512" d="M88.312 39.04c.444.443 7.54 7.348 16.854 5.15 4.211-1.053 7.895-3.604 10.362-7.176"/>
                            <path stroke="#2B2B2A" stroke-linecap="round" stroke-width="1.008" d="M123.945 69.461L142.875 56.922M65.854 61.216L84.159 71.326M78.847 56.922L87.465 79.078"/>
                            <path stroke="#2B2B2A" stroke-linecap="round" stroke-width="1.512" d="M130.688 80.58L87.465 79.078"/>
                            <path stroke="#2B2B2A" stroke-linecap="round" stroke-width="1.008" d="M119.701 63.192L123.945 69.461"/>
                            <path fill="#2B2B2A" fill-rule="nonzero" d="M67.877 82.155c.183-.094.366-.185.548-.272l.544-.25c2.625-1.156 5.207-1.56 9.117-1.566l.828.005.869.015.912.025 1.456.055c1.161.042 2.154.122 3.308.245.415.045.716.417.671.832-.044.416-.416.716-.831.672-.898-.096-1.692-.164-2.55-.21l-1.15-.049-.944-.033-.896-.025-.853-.015c-.277-.003-.546-.004-.81-.004l-.77.007c-.252.004-.496.01-.735.019l-.701.031c-2.968.165-5.064.7-7.296 1.849-2.427 1.368-4.51 3.272-6.085 5.56-4.616 6.837-1.968 19.398 6.71 30.863.251.333.186.807-.147 1.06-.333.251-.807.185-1.06-.147-9.024-11.924-11.81-25.138-6.752-32.627 1.71-2.484 3.964-4.545 6.617-6.04zM88.452 81.384l24.233 3.568c.413.061.698.445.637.858-.055.379-.383.65-.755.646l-.103-.008-24.232-3.568c-.413-.061-.699-.445-.638-.858.056-.379.384-.65.756-.646l.102.008zM95.631 108.652c.284-.252.705-.252.987-.016l.08.078 11.2 12.58c.277.312.25.79-.062 1.067-.284.253-.705.253-.987.016l-.08-.078-11.2-12.58c-.277-.311-.25-.79.062-1.067zM61.291 71.84c.194-.33.6-.458.943-.314l.092.046 4.163 2.45c.36.21.48.674.268 1.034-.194.33-.6.458-.943.314l-.092-.046-4.163-2.45c-.36-.211-.48-.674-.268-1.034zM117.41 119.624c.375.075.63.415.606.787l-.013.102-1.29 6.481c-.082.41-.48.676-.89.594-.374-.075-.63-.415-.606-.787l.013-.102 1.29-6.481c.075-.376.416-.63.787-.607l.102.013zM123.277 121.472c.113-.402.53-.637.932-.524.369.103.597.462.545.831l-.02.1-1.976 7.047c-.113.402-.53.636-.933.524-.368-.104-.596-.463-.544-.832l.02-.1 1.976-7.046zM7.583 52.41c.388-.155.828.033.983.421 1.176 2.947 3.441 5.328 6.326 6.65.38.173.546.622.372 1.001-.174.38-.622.547-1.002.373-3.238-1.483-5.78-4.156-7.1-7.463-.155-.388.033-.828.421-.983zM3.632 56.031c.403-.11.819.127.929.53.356 1.304.912 2.545 1.646 3.675 1.134 1.723 2.653 3.16 4.436 4.197.36.21.483.673.273 1.034-.21.36-.673.483-1.034.273-1.985-1.155-3.675-2.755-4.94-4.677-.822-1.265-1.442-2.649-1.84-4.103-.11-.403.127-.819.53-.929z"/>
                            <path fill="#2B2B2A" fill-rule="nonzero" d="M139.27 86.682c.256.28.262.701.029.987l-.077.081-3.757 3.448-3.16 2.917-3.1 2.877-3.786 3.54-3.055 2.887-2.095 2.005-1.76 1.71-.917.91-.772.781-.62.647-.297.32-.238.27-.18.218-.085.115-.033.048c-.422.654-.839 1.33-1.241 2.007l-.532.906-.515.905c-.97 2.102-1.7 4.306-2.18 6.6l-.26 1.075-.153.667-.137.63-.121.595-.106.559-.09.525-.076.493-.062.46-.048.432-.035.402-.022.374c-.015.361-.012.683.009.97l.026.276c.01.088.023.173.037.254l.047.234c.036.15.078.287.126.413l.077.18c.04.087.085.167.132.243l.048.073c.218.367.575.63.931.719.633.1 1.563-.577 2.24-1.822.2-.367.66-.503 1.026-.304.367.2.502.659.303 1.026-.95 1.747-2.417 2.815-3.866 2.581-.743-.18-1.39-.627-1.801-1.22l-.106-.166c-.317-.463-.542-1.03-.655-1.771l-.042-.329-.028-.35-.014-.376c-.002-.129-.002-.262 0-.4l.016-.425.03-.454.021-.237.054-.497.033-.26.077-.542.094-.575.11-.608.128-.643.144-.679.163-.715.18-.754.096-.392c.498-2.377 1.264-4.69 2.305-6.942l.425-.755.266-.461c.533-.917 1.1-1.849 1.676-2.742.03-.048.069-.102.114-.162l.16-.2.202-.239.246-.276.449-.483.543-.565.637-.646.826-.822 1.584-1.547 1.873-1.8 2.153-2.042 3.284-3.084 3.03-2.824 3.13-2.9 5.874-5.4c.308-.28.787-.26 1.068.05zM21.379 175.493l.102.003 19.848 1.855c.416.039.721.407.682.823-.035.38-.348.67-.72.685l-.103-.003-19.847-1.854c-.416-.04-.722-.408-.683-.824.036-.38.349-.67.72-.685zM136.897 177.761c.417-.017.77.308.786.725.016.383-.256.71-.622.775l-.103.011-21.37.867c-.416.017-.768-.307-.785-.725-.016-.382.256-.71.622-.775l.103-.01 21.37-.868zM91.494 35.364c.346-.165.754-.045.958.267l.05.09 1.784 3.74c.18.376.02.827-.356 1.007-.346.165-.754.044-.958-.267l-.05-.09-1.784-3.74c-.18-.376-.02-.827.356-1.007zM96.458 31.506c.376-.183.828-.027 1.011.349.183.375.027.827-.349 1.01-2.183 1.063-4.687 1.262-7.011.558-.4-.121-.626-.543-.505-.943.122-.4.544-.625.943-.504 1.96.594 4.07.426 5.911-.47z"/>
                            <g fill-rule="nonzero" transform="translate(0 8)">
                                <rect width="10.295" height="24.613" x="19.364" y="8.533" fill="#FAA61B" rx="5.147" transform="rotate(-48.64 24.511 20.84)"/>
                                <path fill="#E55C27" d="M21.736 31.06h.426c1.026 0 1.858.833 1.858 1.859v4.733c0 1.026-.832 1.858-1.858 1.858-1.261 0-2.284-1.023-2.284-2.284v-4.26c-.012-.5.178-.986.527-1.344.35-.36.83-.561 1.331-.561z" transform="rotate(-20 21.949 35.285)"/>
                                <rect width="4.142" height="8.413" x="27.278" y=".643" fill="#E55C27" rx="2.071" transform="rotate(34.57 29.35 4.85)"/>
                                <path fill="#FAA61B" d="M11.715 28.697c.002 2.138-1.161 4.107-3.034 5.137-1.873 1.03-4.158.959-5.963-.187C.913 32.501-.124 30.464.012 28.33c.2-3.155 2.869-5.581 6.029-5.482 3.16.099 5.67 2.688 5.674 5.849z"/>
                                <rect width="7.538" height="7.538" x="6.17" y="2.32" fill="#2B2B2A" rx="3.769" transform="rotate(-88.34 9.939 6.089)"/>
                            </g>
                        </g>
                    </g>
                    <path fill="#FAA61B" fill-rule="nonzero" stroke="#2B2B2A" stroke-linecap="round" d="M1615.498 647.635h0v-.27c.006.09.006.18 0 .27h0z" opacity=".77"/>
                    <path fill="#2B2B2B" fill-rule="nonzero" d="M296 957h-47c0-13.255 10.521-24 23.5-24s23.5 10.745 23.5 24z"/>
                    <g>
                        <g fill="#2B2B2A" opacity=".671">
                            <path d="M97.027 198.438l-29.922-43.51 23.191-33.722c2.999-4.36 2.999-10.115 0-14.474l-22.743-33.07 14.9-21.666c2.415-3.511 2.415-8.148 0-11.66L58.439 5.418c-4.09-5.949-12.879-5.949-16.969 0L17.456 40.336c-2.415 3.512-2.415 8.149 0 11.66l14.9 21.666-22.743 33.07c-2.998 4.36-2.998 10.115 0 14.474l23.192 33.722-29.923 43.51c-3.237 4.706-3.237 10.92 0 15.625l35.703 51.915c5.482 7.971 17.257 7.971 22.74 0l35.702-51.915c3.237-4.705 3.237-10.919 0-15.625" transform="translate(222 661) translate(.545 .043)"/>
                        </g>
                        <path fill="url(#l0kfd812yU)" fill-rule="nonzero" d="M111.12-20.32c17.136 14.495 27.17 38.706 30.103 66 2.779 27.14-1.544 57.21-18.679 79.107-17.135 21.743-47.238 35.467-73.326 31.458-25.935-4.164-47.856-25.907-72.864-47.804-25.162-21.897-53.258-43.794-52.332-64.766.927-20.972 30.875-41.018 56.037-55.514C5.067-26.334 25.136-35.278 47.365-37.437c22.23-2.158 46.466 2.468 63.755 17.117z" filter="url(#c4hpbeb8rV)" transform="translate(222 661)"/>
                        <g>
                            <path stroke="url(#2wtustrfyW)" stroke-linecap="square" d="M140.027 214.681c-5.083-17.536 2.46-41.98 23.613-37.59 8.888 1.846 14.729 10.655 17.372 18.74 1.905 5.824 1.91 11.72.37 17.618-1.4 5.353-5.756 11.05-5.145 16.641.942 8.593 9.582 14.733 14.808 20.796 7.452 8.647 16.525 23.701.612 28.123-9.86 2.74-25.026 1.307-31.491-7.654-3.283-4.55-1.866-8.836-1.36-13.886.87-8.67-.552-17.11-5.79-24.155-4.545-6.112-10.79-11.045-12.99-18.633z" opacity=".669" transform="translate(222 661) translate(-92 12)"/>
                            <path stroke="url(#2wtustrfyW)" stroke-linecap="square" d="M45.027 204.681c-5.083-17.536 2.46-41.98 23.613-37.59 8.888 1.846 14.729 10.655 17.372 18.74 1.905 5.824 1.91 11.72.37 17.618-1.4 5.353-5.756 11.05-5.145 16.641.942 8.593 9.582 14.733 14.808 20.796 7.452 8.647 16.525 23.701.612 28.123-9.86 2.74-25.026 1.307-31.491-7.654-3.283-4.55-1.866-8.836-1.36-13.886.87-8.67-.552-17.11-5.79-24.155-4.545-6.112-10.79-11.045-12.99-18.633z" opacity=".669" transform="translate(222 661) translate(-92 12) rotate(69 74.482 218.416)"/>
                            <path stroke="url(#2wtustrfyW)" stroke-linecap="square" d="M31.027 204.681c-5.083-17.536 2.46-41.98 23.613-37.59 8.888 1.846 14.729 10.655 17.372 18.74 1.905 5.824 1.91 11.72.37 17.618-1.4 5.353-5.756 11.05-5.145 16.641.942 8.593 9.582 14.733 14.808 20.796 7.452 8.647 16.525 23.701.612 28.123-9.86 2.74-25.026 1.307-31.491-7.654-3.283-4.55-1.866-8.836-1.36-13.886.87-8.67-.552-17.11-5.79-24.155-4.545-6.112-10.79-11.045-12.99-18.633z" opacity=".669" transform="translate(222 661) translate(-92 12) rotate(69 60.482 218.416)"/>
                            <path stroke="url(#vk1dwnia0X)" stroke-linecap="square" d="M148.436 217c-3.269-11.274 1.582-26.992 15.183-24.168 5.714 1.186 9.47 6.85 11.17 12.049 1.224 3.744 1.228 7.535.237 11.327-.9 3.441-3.7 7.105-3.308 10.7.607 5.526 6.16 9.473 9.521 13.37 4.792 5.56 10.626 15.24.394 18.083-6.341 1.762-16.092.84-20.249-4.921-2.11-2.925-1.199-5.681-.873-8.928.56-5.575-.355-11.001-3.723-15.531-2.922-3.93-6.938-7.101-8.352-11.98z" opacity=".669" transform="translate(222 661) translate(-92 12)"/>
                            <g stroke-linecap="square" opacity=".367">
                                <g>
                                    <path stroke="url(#vk1dwnia0X)" d="M15.982 14.502C12.713 3.227 17.564-12.49 31.165-9.667c5.714 1.187 9.47 6.851 11.17 12.05 1.224 3.743 1.228 7.534.237 11.326-.9 3.442-3.7 7.105-3.308 10.7.607 5.526 6.16 9.473 9.521 13.371 4.792 5.56 10.626 15.24.394 18.083-6.341 1.762-16.092.84-20.249-4.922-2.11-2.925-1.199-5.68-.873-8.927.56-5.575-.355-11.002-3.723-15.532-2.922-3.929-6.938-7.1-8.352-11.98z" transform="translate(222 661) translate(-92 12) rotate(2 -1549.662 1765.809) rotate(10 1.605 47.364) rotate(94 34.92 23.333)"/>
                                    <path stroke="url(#0b1aivomqY)" d="M15.794 13.484c-2.79-9.471 1.35-22.674 12.957-20.302 4.876.997 8.082 5.755 9.532 10.121 1.045 3.145 1.048 6.33.203 9.515-.768 2.89-3.158 5.968-2.823 8.988.518 4.642 5.257 7.957 8.125 11.231 4.09 4.67 9.068 12.802.336 15.19-5.411 1.48-13.733.706-17.28-4.134-1.8-2.457-1.023-4.772-.745-7.5.478-4.682-.303-9.24-3.177-13.046-2.494-3.3-5.92-5.965-7.128-10.063z" transform="translate(222 661) translate(-92 12) rotate(2 -1549.662 1765.809) rotate(10 1.605 47.364) rotate(98 31.956 20.902)"/>
                                </g>
                            </g>
                            <path stroke="#E55C27" d="M214.101 98.337c-9.677 1.213-12.975-18.66-28.235-20.853-11.329-1.625-15.324 8.494-26.497 6.517-12.664-2.239-23.867-18.118-20.852-27.8 2.932-9.416 17.912-8.504 19.548-17.377 1.485-8.051-10.253-12.06-9.557-22.152.513-7.42 7.536-15.126 15.638-16.073 9.293-1.087 17.793 6.973 20.417 14.768 4.068 12.086-7.06 20.347-2.173 29.105 2.723 4.877 6.901 3.621 20.852 10.425 13.05 6.366 20.605 10.05 23.022 17.377 3.384 10.257-4.167 25.058-12.163 26.063z" transform="translate(222 661) translate(-92 12)"/>
                            <g stroke="#E55C27">
                                <path d="M98.246 126.6c-12.494 1.562-16.752-24.019-36.454-26.84-14.626-2.093-19.784 10.931-34.21 8.388-16.35-2.882-30.814-23.32-26.921-35.784 3.785-12.119 23.126-10.945 25.238-22.366 1.917-10.364-13.238-15.523-12.34-28.514.663-9.55 9.73-19.468 20.19-20.689C45.749-.604 56.723 9.771 60.11 19.805c5.252 15.557-9.115 26.189-2.805 37.463 3.515 6.277 8.91 4.66 26.921 13.419 16.849 8.192 26.603 12.934 29.724 22.365 4.369 13.204-5.38 32.255-15.704 33.547z" transform="translate(222 661) translate(-92 12) rotate(-18 229.902 3.663)"/>
                                <path d="M93.407 115.05c-8.907 1.115-11.943-17.156-25.992-19.171-10.43-1.494-14.106 7.808-24.394 5.991-11.658-2.058-21.972-16.657-19.196-25.56 2.7-8.655 16.49-7.816 17.997-15.974 1.366-7.405-9.44-11.09-8.8-20.37.473-6.82 6.939-13.904 14.398-14.776 8.554-1 16.38 6.411 18.795 13.58 3.746 11.111-6.498 18.704-2 26.757 2.506 4.484 6.354 3.33 19.196 9.585 12.013 5.852 18.97 9.239 21.193 15.975 3.117 9.432-3.835 23.04-11.197 23.963z" transform="translate(222 661) translate(-92 12) rotate(-18 229.902 3.663)"/>
                            </g>
                            <path stroke="url(#asid8e3gtZ)" stroke-linecap="square" d="M207.34 85.095c-6.948.871-9.316-13.398-20.274-14.972-8.134-1.167-11.002 6.098-19.026 4.68-9.093-1.608-17.137-13.01-14.972-19.963 2.106-6.759 12.862-6.104 14.037-12.475 1.065-5.783-7.363-8.66-6.863-15.908.368-5.327 5.411-10.859 11.23-11.54 6.671-.78 12.774 5.007 14.658 10.605 2.922 8.678-5.068 14.608-1.56 20.897 1.955 3.502 4.956 2.601 14.972 7.486 9.37 4.57 14.796 7.215 16.53 12.476 2.431 7.366-2.99 17.993-8.733 18.714z" opacity=".324" transform="translate(222 661) translate(-92 12)"/>
                        </g>
                        <g stroke="#E55C27">
                            <path d="M237.478 97.861c-9.677 1.214-12.975-18.66-28.235-20.852-11.329-1.626-15.324 8.493-26.497 6.517-12.664-2.239-23.867-18.118-20.852-27.8 2.932-9.416 17.912-8.504 19.548-17.377 1.485-8.052-10.253-12.06-9.557-22.153.513-7.419 7.536-15.125 15.638-16.073 9.293-1.087 17.793 6.973 20.417 14.77 4.068 12.085-7.06 20.345-2.173 29.104 2.723 4.877 6.901 3.621 20.852 10.425 13.05 6.365 20.605 10.05 23.022 17.376 3.384 10.258-4.167 25.06-12.163 26.063z" transform="translate(222 661) rotate(-107 96.915 117.855)"/>
                            <path d="M105.01 189.119c-9.678 1.214-12.976-18.66-28.236-20.852-11.329-1.626-15.324 8.493-26.497 6.517-12.664-2.24-23.867-18.118-20.852-27.801 2.932-9.415 17.912-8.503 19.548-17.376 1.485-8.052-10.253-12.06-9.557-22.153.513-7.42 7.536-15.125 15.638-16.073 9.293-1.087 17.793 6.973 20.417 14.769 4.068 12.086-7.06 20.346-2.173 29.105 2.723 4.877 6.901 3.62 20.852 10.425 13.05 6.365 20.605 10.049 23.022 17.376 3.384 10.258-4.167 25.059-12.163 26.063z" transform="translate(222 661) rotate(-107 96.915 117.855) rotate(56 73.465 140.227)"/>
                            <path d="M97.968 198.468c-9.677 1.214-12.975-18.66-28.235-20.852-11.33-1.626-15.324 8.493-26.497 6.517-12.664-2.239-23.867-18.118-20.852-27.8 2.932-9.416 17.912-8.504 19.548-17.377 1.485-8.052-10.253-12.06-9.557-22.153.513-7.419 7.536-15.125 15.638-16.073 9.293-1.087 17.793 6.973 20.417 14.77 4.068 12.085-7.06 20.345-2.173 29.104 2.723 4.877 6.9 3.621 20.852 10.425 13.05 6.365 20.605 10.05 23.022 17.376 3.384 10.258-4.167 25.06-12.163 26.063z" transform="translate(222 661) rotate(-107 96.915 117.855) rotate(56 66.424 149.577)"/>
                            <path d="M226.326 87.938c-6.947.871-9.315-13.398-20.273-14.972-8.134-1.167-11.002 6.098-19.026 4.68-9.093-1.608-17.137-13.01-14.972-19.963 2.106-6.759 12.862-6.104 14.037-12.475 1.065-5.783-7.363-8.66-6.863-15.908.368-5.327 5.41-10.859 11.229-11.54 6.672-.78 12.775 5.007 14.659 10.605 2.922 8.678-5.068 14.608-1.56 20.897 1.955 3.502 4.956 2.601 14.972 7.486 9.37 4.57 14.796 7.215 16.53 12.476 2.43 7.366-2.991 17.993-8.733 18.714z" transform="translate(222 661) rotate(-107 96.915 117.855)"/>
                        </g>
                        <path fill="url(#ai7g8lw16aa)" fill-rule="nonzero" d="M98.32 123.977c12.134 10.265 19.24 27.409 21.316 46.737 1.968 19.218-1.093 40.512-13.227 56.018-12.134 15.397-33.45 25.115-51.925 22.276-18.365-2.948-33.888-18.345-51.597-33.851-17.818-15.506-37.714-31.012-37.058-45.863.656-14.85 21.863-29.047 39.682-39.311 17.709-10.265 31.92-16.598 47.661-18.127 15.742-1.529 32.904 1.747 45.148 12.121z" filter="url(#t8vrzi9h8ab)" transform="translate(222 661) rotate(91 43 180.5)"/>
                    </g>
                </g>
                <g transform="translate(153) translate(-153) translate(857 649)">
                    <path fill="#2B2B2A" fill-rule="nonzero" d="M128.511 226.701c-37.587-3.973-75.495-3.822-113.049.45C17.1 259.2 41.787 284.67 72 284.67c30.303 0 55.062-25.704 56.511-57.969z"/>
                    <path fill="#E55C27" fill-rule="nonzero" d="M67.446 136.8c-.671-.02-1.284.378-1.539.999L61.2 149.607c-.097.241-.294.428-.54.513-.162.046-.333.046-.495 0-.036-.004-.072-.004-.108 0 .132 2.057.026 4.123-.315 6.156-.137.84-.32 1.673-.549 2.493-.369 1.36-.847 2.687-1.431 3.969v-.054c1.975-.061 3.93-.41 5.805-1.035 1.481-.731 2.784-1.779 3.816-3.069.362-.478.664-.997.9-1.548.434-1.08.663-2.23.675-3.393v-15.84c-.253-.61-.851-1.005-1.512-.999zm12.528 23.562c-.455-1.332-.801-2.698-1.035-4.086-.341-2.033-.447-4.099-.315-6.156-.036-.004-.072-.004-.108 0-.162.046-.333.046-.495 0-.242-.087-.436-.274-.531-.513-1.59-3.93-3.177-7.866-4.761-11.808-.241-.607-.828-1.005-1.48-1.005-.653 0-1.24.398-1.481 1.005v15.849c-.004 1.434.345 2.846 1.017 4.113.15.289.32.566.513.828 1.034 1.288 2.336 2.336 3.816 3.069 1.871.625 3.824.974 5.796 1.035-.351-.76-.664-1.539-.936-2.331z"/>
                    <path fill="#EE662F" fill-rule="nonzero" d="M88.785 162.846H47.88c3.78-1.233 7.542-2.565 11.241-4.068 1.998-.81 3.978-1.674 5.94-2.619l3.141.9 2.565.72 9.207 2.601 8.811 2.466z"/>
                    <path d="M62.73 205.308c.09-.9.162-1.908.207-2.979"/>
                    <path fill="#E55C27" fill-rule="nonzero" d="M54.972 90.09c.45-.406 1.059-.584 1.656-.486.6.125 1.125.485 1.458.999l-.198-.144c-.376-.333-.822-.576-1.305-.711-.56-.167-1.167-.039-1.611.342zM56.457 94.5c.288 0 .63-.099.63-.099-.099.037-.201.06-.306.072-.107.018-.215.027-.324.027zM57.726 95.895c-.234-.477-.45-.963-.639-1.458.216.432.423.963.639 1.458z"/>
                    <path fill="#E55C27" fill-rule="nonzero" d="M77.4 98.496v.153-.153zM77.265 98.937c.019-.097.043-.193.072-.288-.027.099-.045.198-.072.288z" opacity=".71"/>
                    <path fill="#E55C27" fill-rule="nonzero" d="M77.526 94.068c-.09-.504-.207-.972-.279-1.269 0 .108.063.216.09.315.063.306.135.63.189.954z"/>
                    <path fill="#E55C27" fill-rule="nonzero" d="M75.6 102.969c-.577.878-1.313 1.641-2.169 2.25-.963 1.098.342 1.8.279 1.926-1.116 2.286-2.331 1.35-8.577.27.442-.192.851-.45 1.215-.765.315-.288.414-.576.234-.828-1.24-.501-2.383-1.217-3.375-2.115-2.016-1.5-3.605-3.501-4.608-5.805L58.716 108c3.868 1.688 8.19 2.034 12.276.981 1.706-.469 3.33-1.197 4.815-2.16l-.207-3.852z" opacity=".78"/>
                    <path fill="#FAA61B" fill-rule="nonzero" d="M77.634 96.399v.351c0 .252 0 .495-.072.702-.072.207 0 .315-.072.477-.072.162-.054.315-.09.477-.036.162-.054.288-.09.441.004.018.004.036 0 .054-.072.288-.144.585-.243.9-.338 1.089-.832 2.123-1.467 3.069-.572.882-1.309 1.646-2.169 2.25-1.007.711-2.197 1.117-3.429 1.17-1.167.056-2.333-.137-3.42-.567-1.241-.504-2.383-1.223-3.375-2.124-2.015-1.497-3.603-3.495-4.608-5.796-.324-.711-.585-1.395-.837-2.007-.252-.612-.45-.972-.639-1.467-.1.036-.202.064-.306.081-.108.009-.216.009-.324 0-1.158-.084-2.092-.98-2.223-2.133-.152-.799.082-1.622.63-2.223l.054-.054c.443-.417 1.058-.597 1.656-.486.6.119 1.126.476 1.458.99 1.8 1.143 3.438-3.114 4.149-3.285 2.133-.531 3.015 3.087 6.642 4.158 3.321.99 7.263-.666 8.019.297.873 1.098.891 3.141.756 4.725z"/>
                    <path fill="#E55C27" fill-rule="nonzero" d="M75.807 106.812c-1.485.963-3.109 1.691-4.815 2.16-4.086 1.056-8.407.713-12.276-.972l-.153-10.089c1.003 2.304 2.592 4.305 4.608 5.805.992.898 2.134 1.614 3.375 2.115 1.087.428 2.252.625 3.42.576 1.232-.056 2.423-.465 3.429-1.179.856-.609 1.592-1.372 2.169-2.25l.243 3.834z"/>
                    <path fill="#FAA61B" fill-rule="nonzero" d="M106.956 126.468c-2.097-2.538-13.356-16.254-29.421-19.368-.567-.108-1.143-.207-1.728-.288-1.485.963-3.109 1.691-4.815 2.16-4.086 1.056-8.407.713-12.276-.972-1.296.342-2.511.72-3.6 1.116l-.315.108c-2.522.904-4.956 2.037-7.272 3.384C36.9 118.8 29.16 130.5 24.669 141.678c-2.052 5.112-2.511 8.046-2.367 10.8.045 2.106.618 4.167 1.665 5.994.695 1.352 1.743 2.49 3.033 3.294 1.306.76 2.8 1.134 4.311 1.08H47.88l-.801.252.54.153c7.214 1.68 14.608 2.47 22.014 2.349 6.483.015 12.934-.91 19.152-2.745h16.704c.804.031 1.609-.017 2.403-.144 2.257-.265 4.374-1.235 6.048-2.772 3.15-3.042 3.285-7.92 3.276-10.215-.036-10.611-7.209-19.548-10.26-23.256zm-64.8 19.413c.497-1.168 1.072-2.301 1.719-3.393.785-1.324 1.673-2.585 2.655-3.771.045 2.7.117 5.445.243 8.262l-4.617-1.098zm26.694 7.767c-.012 1.163-.241 2.314-.675 3.393-.236.55-.538 1.07-.9 1.548-1.032 1.29-2.335 2.338-3.816 3.069-1.874.625-3.83.974-5.805 1.035v.054c.584-1.282 1.062-2.61 1.431-3.969.229-.82.412-1.653.549-2.493.341-2.033.447-4.099.315-6.156.036-.004.072-.004.108 0 .162.046.333.046.495 0 .246-.085.443-.272.54-.513l.063-.162c1.566-3.882 3.129-7.764 4.689-11.646.245-.605.832-1.001 1.485-1.001.653 0 1.24.396 1.485 1.001l.036 15.84zm6.3 8.154c-1.541-.734-2.904-1.793-3.996-3.105-1.067-1.484-1.657-3.258-1.692-5.085l-.108-4.878-.252-11.556c.236-.632.834-1.056 1.509-1.07.674-.013 1.289.385 1.551 1.007 1.548 3.6 3.093 7.224 4.635 10.872.171.423.351.837.531 1.251.034.089.082.17.144.243.11.127.254.22.414.27.167.05.346.05.513 0h.108v2.826c.068 1.193.215 2.381.441 3.555.436 2.284 1.159 4.503 2.151 6.606-2.008-.031-4.002-.346-5.922-.936h-.027zm16.65-14.823l-6.003 1.422 5.832-1.386c.072-3.114.081-6.147 0-9.09.992 1.36 1.914 2.768 2.763 4.221.765 1.314 1.422 2.574 1.989 3.762l-4.581 1.071z"/>
                    <path fill="#E55C27" fill-rule="nonzero" d="M138.474 189.963c.024 1.19-.097 2.377-.36 3.537-3.105 13.653-21.339 13.284-32.103 11.376-7.231-1.301-14.322-3.287-21.177-5.931 1.08 1.458 2.16 2.925 3.249 4.383l-.225-.279-11.151-13.644c-1.458-1.8-2.844-3.672-4.338-5.4-1.269-1.512-2.862-2.88-4.941-2.88H59.13c1.423 3.43 2.465 7.007 3.105 10.665.606 3.481.842 7.017.702 10.548l-.207 2.97c-2.511.189-27.945 2.025-43.425 1.062-6.453-.396-12.249-2.934-16.128-8.262-3.681-5.067-4.581-11.808-.477-16.911 2.826-3.51 7.245-5.4 11.223-7.056 10.8-4.563 22.068-7.452 33.138-11.043l.54.153c7.22 1.682 14.62 2.47 22.032 2.349 6.483.015 12.934-.91 19.152-2.745h.072l1.728.486 20.115 5.679c1.926.441 4.698 1.152 7.965 2.25 5.112 1.71 10.8 3.231 14.742 7.083 3.137 3.062 4.954 7.228 5.067 11.61z"/>
                    <path fill="#2B2B2A" fill-rule="nonzero" d="M91.8 146.979l4.626-1.098c-.567-1.188-1.224-2.448-1.989-3.762-.85-1.453-1.771-2.862-2.763-4.221v9.09l.126-.009z"/>
                    <path fill="#231F20" fill-rule="nonzero" d="M59.679 150.849c-.071.013-.145.013-.216 0-2.079-.702-4.212-1.35-6.3-1.917s-4.5-1.107-6.705-1.539c-.176-.03-.332-.131-.432-.279-.1-.147-.136-.33-.099-.504.033-.177.135-.334.284-.435.148-.101.331-.14.508-.105 2.259.441 4.545.963 6.786 1.557 2.241.594 4.32 1.233 6.426 1.944.312.106.502.423.449.748-.054.326-.335.565-.665.566l-.036-.036z"/>
                    <path fill="#E55C27" fill-rule="nonzero" d="M81.171 162.738c-2.03-.013-4.05-.316-5.994-.9-1.541-.734-2.904-1.793-3.996-3.105-1.067-1.484-1.657-3.258-1.692-5.085l-.36-16.434c.236-.632.834-1.056 1.509-1.07.674-.013 1.289.385 1.551 1.007 1.548 3.6 3.093 7.224 4.635 10.872.171.423.351.837.531 1.251.101.245.306.432.558.513.167.05.346.05.513 0h.108v2.826c.068 1.193.215 2.381.441 3.555.453 2.274 1.191 4.48 2.196 6.57z"/>
                    <path fill="#231F20" fill-rule="nonzero" d="M38.25 146.502c-.344-.023-.615-.302-.629-.646-.013-.345.234-.644.575-.695l3.933-.297c.241-.018.473.095.61.295.135.2.154.457.049.675-.105.217-.319.362-.56.38l-3.933.288h-.045z"/>
                    <path fill="#E55C27" fill-rule="nonzero" d="M69.093 137.592l-.414 16.308c-.04 1.814-.634 3.573-1.701 5.04-1.09 1.28-2.448 2.306-3.978 3.006-1.929.587-3.933.89-5.949.9v.054c1.006-2.097 1.74-4.314 2.187-6.597.404-2.074.564-4.189.477-6.3h.108c.165.045.339.045.504 0 .252-.08.457-.268.558-.513 1.728-3.996 3.45-7.995 5.166-11.997.257-.62.87-1.017 1.54-.999.67.018 1.26.447 1.484 1.08l.018.018z"/>
                    <path fill="#231F20" fill-rule="nonzero" d="M57.078 163.53l-.045-.621-.612-.297c.982-2.042 1.7-4.202 2.133-6.426.255-1.297.412-2.612.468-3.933v-1.215-.306c-.009-.162-.009-.324 0-.486 0-.224.091-.438.252-.594.225-.252.573-.356.9-.27.048-.034.085-.081.108-.135l5.166-12.006c.373-.864 1.233-1.415 2.174-1.391.94.023 1.773.617 2.101 1.499v.126l-.369 16.425c-.037 1.941-.664 3.825-1.8 5.4-1.152 1.382-2.592 2.494-4.221 3.258-2.025.633-4.133.96-6.255.972zm3.312-12.825v1.611c-.063 1.387-.225 2.767-.486 4.131-.4 1.95-1.004 3.854-1.8 5.679 1.562-.057 3.108-.323 4.599-.792 1.425-.672 2.69-1.642 3.708-2.844.983-1.355 1.53-2.979 1.566-4.653L68.4 137.7c-.155-.306-.46-.508-.801-.531-.396-.025-.762.213-.9.585l-5.166 11.997c-.16.414-.486.74-.9.9l-.243.054zM66.411 110.268c-2.72-.027-5.408-.59-7.911-1.656-.319-.159-.46-.538-.321-.866.137-.328.507-.493.843-.376 3.73 1.623 7.893 1.958 11.835.954 1.643-.45 3.206-1.152 4.635-2.079.308-.174.699-.085.9.207.184.307.093.704-.207.9-1.545.998-3.232 1.757-5.004 2.25-1.552.437-3.157.662-4.77.666z"/>
                    <path fill="#231F20" fill-rule="nonzero" d="M67.248 166.266c-7.175 0-14.324-.862-21.294-2.565-.28-.068-.487-.307-.513-.594 0-.234-.045-.477-.072-.711-.02-.197.045-.394.18-.54.136-.146.332-.222.531-.207l11.007.531c.18.007.351.086.473.22.122.133.185.31.175.491-.007.18-.086.35-.22.47s-.311.181-.491.169l-7.2-.351c5.85 1.169 11.8 1.75 17.766 1.737 7.136-.041 14.241-.948 21.159-2.7.24-.079.503-.018.683.159.18.176.248.438.174.68-.074.24-.276.42-.524.466-7.029 1.765-14.245 2.672-21.492 2.7l-.342.045z"/>
                    <path fill="#2B2B2A" fill-rule="nonzero" d="M149.688 160.641c-.344 8.618-2.975 16.99-7.623 24.255-1.104 1.755-2.306 3.447-3.6 5.067-.115-4.383-1.936-8.549-5.076-11.61-3.978-3.852-9.63-5.4-14.742-7.083-3.267-1.098-6.039-1.8-7.965-2.25l-19.989-5.634-1.719-.486h-.072 16.704c.804.031 1.609-.017 2.403-.144 2.257-.265 4.374-1.235 6.048-2.772 3.15-3.042 3.285-7.92 3.276-10.215 0-10.602-7.2-19.539-10.26-23.247-2.214-2.592-13.473-16.308-29.538-19.422-.567-.108-1.143-.207-1.728-.288l-.207-3.843c.617-.95 1.093-1.983 1.413-3.069.099-.288.171-.585.243-.9.004-.018.004-.036 0-.054 0-.144.063-.297.09-.441.027-.144.063-.315.09-.477.027-.162.054-.315.072-.468.018-.153.054-.45.072-.711v-.261-.09c.135-1.575.117-3.6-.738-4.725-.756-.954-4.698.693-8.019-.288-3.6-1.08-4.5-4.698-6.642-4.167-.711.171-2.313 4.428-4.149 3.285-.332-.514-.858-.871-1.458-.99-.215-.032-.433-.032-.648 0-.377.064-.727.236-1.008.495l-.054.054c-.519.554-.78 1.302-.72 2.059.06.757.435 1.453 1.035 1.919.292.235.645.382 1.017.423h.207c.108.009.216.009.324 0 .105-.01.208-.034.306-.072.189.495.414.981.639 1.458.252.612.513 1.296.837 2.007L58.716 108c-1.296.342-2.511.72-3.6 1.116l-.315.108c-.063-.189-.072-.297 0-.27-.648-.692-1.123-1.528-1.386-2.439-1.265-3.639-2.143-7.4-2.619-11.223-.297-3.6-.684-8.28 2.439-12.708 2.013-2.73 4.825-4.764 8.046-5.823 2.156-.85 4.473-1.212 6.786-1.062 5.22.414 9.063 3.654 11.367 5.544 2.439 2.007 3.06 3.159 6.849 7.695 2.752 3.504 5.722 6.832 8.892 9.963 4.77 4.662 8.019 6.561 19.701 14.184 11.241 7.344 16.902 11.052 19.071 13.032 4.923 4.5 10.899 10.089 13.977 19.386 1.548 4.887 2.147 10.026 1.764 15.138z"/>
                    <path fill="#FAA61B" fill-rule="nonzero" d="M87.3 206.433c-.966.832-2.37.917-3.429.207 0 0-13.167-7.335-13.671-7.056-.504.279-7.2 1.692-7.2 1.692l-.072 1.017c.14-3.53-.096-7.067-.702-10.548-.637-3.658-1.676-7.234-3.096-10.665h8.298c2.079 0 3.672 1.368 4.941 2.88 1.494 1.8 2.871 3.6 4.338 5.4l11.151 13.653.225.27c.43 1.11.117 2.371-.783 3.15z"/>
                    <path fill="#231F20" fill-rule="nonzero" d="M53.1 180.558h-.099c-3.456-.504-6.984-.9-10.467-1.197-5.897-.482-11.816-.644-17.73-.486-.366 0-.665-.291-.675-.657-.007-.18.058-.355.182-.485s.295-.206.475-.208c5.96-.155 11.923.01 17.865.495 3.519.288 7.065.693 10.557 1.206.345.057.59.367.564.716-.026.348-.314.62-.663.625l-.009-.009zM62.676 199.8c-.37-.015-.662-.322-.657-.693.064-2.432-.08-4.865-.432-7.272-.368-2.446-.95-4.855-1.737-7.2-.119-.353.07-.735.423-.855.175-.072.372-.067.543.014.171.08.3.229.357.409.824 2.428 1.426 4.925 1.8 7.461.37 2.484.52 4.996.45 7.506-.011.184-.097.356-.239.475-.14.119-.324.175-.508.155z"/>
                    <path fill="#231F20" fill-rule="nonzero" d="M88.083 204.003c-.206-.001-.4-.093-.531-.252l-11.367-13.923c-.639-.783-1.269-1.593-1.899-2.394-.783-1.008-1.602-2.052-2.43-3.042-1.512-1.8-2.916-2.637-4.428-2.637H57.69c-.373 0-.675-.302-.675-.675 0-.373.302-.675.675-.675h9.738c2.547 0 4.338 1.8 5.463 3.123.846 1.008 1.665 2.061 2.466 3.078.621.792 1.242 1.593 1.881 2.367l11.367 13.932c.232.289.188.71-.099.945-.12.096-.269.15-.423.153zM47.898 179.712c-.197 0-.384-.086-.513-.234-.117-.136-.176-.313-.162-.492.013-.179.098-.345.234-.462 1.706-1.473 3.62-2.686 5.679-3.6 1.125-.504 2.29-.913 3.483-1.224h.171c1.8 0 3.645 0 5.454.144 1.467.09 2.97.243 4.5.432.177.02.339.11.449.251.11.14.159.32.136.496-.022.178-.115.34-.257.45-.141.11-.321.158-.499.135-1.458-.18-2.925-.324-4.374-.414-1.746-.117-3.51-.162-5.265-.144-3.159.854-6.082 2.414-8.55 4.563-.142.096-.317.132-.486.099z"/>
                    <path fill="#231F20" fill-rule="nonzero" d="M115.623 181.62h-.153c-7.839-1.8-15.867-3.177-23.841-4.212-7.776-1.008-15.705-1.674-23.544-1.98-.054.081-.171.207-.288.36-.241.29-.427.623-.549.981-.056.18-.186.329-.358.408-.171.079-.369.08-.542.006-.17-.057-.308-.18-.386-.34-.078-.161-.088-.347-.028-.515.172-.501.428-.97.756-1.386.157-.19.325-.37.504-.54.248-.219.57-.335.9-.324 7.884.306 15.84.981 23.661 1.989 8.019 1.044 16.083 2.466 23.967 4.23.36.09.587.446.513.81-.073.285-.319.491-.612.513zM59.13 181.98h-1.44c-.497 0-.9-.403-.9-.9s.403-.9.9-.9h1.44c.497 0 .9.403.9.9s-.403.9-.9.9zM86.787 163.845h-1.656c-1.494 0-2.862-.072-4.041-.189-.322-.03-.602-.23-.737-.524-.134-.294-.101-.637.086-.9s.5-.407.822-.376c1.134.108 2.439.171 3.888.18h.702c.943.032 1.887.005 2.826-.081.492-.058.938.292.999.783.058.492-.292.938-.783.999-.7.08-1.402.116-2.106.108zM68.634 99.45c-.432.003-.853-.13-1.206-.378-.555-.41-.887-1.056-.9-1.746.005-.185.157-.333.342-.333.09-.003.175.032.238.095s.098.149.095.238c.005.469.224.91.594 1.197.307.213.686.294 1.053.225.183-.023.35.103.38.285.03.182-.091.355-.272.39-.107.015-.216.024-.324.027zM64.314 93.141c-.061-.001-.12-.02-.171-.054-.077-.045-.132-.119-.154-.205-.022-.086-.009-.178.037-.254.293-.463.76-.788 1.296-.9.493-.095 1.003-.002 1.431.261.077.045.133.12.153.206.02.087.004.179-.045.253-.097.156-.3.207-.459.117-.27-.162-.59-.222-.9-.171-.37.07-.695.287-.9.603-.066.093-.174.147-.288.144zM69.066 97.479c-.158.005-.3-.094-.351-.243-.028-.081-.022-.17.017-.247.04-.076.108-.133.19-.158h.072c.126 0 .315-.081.351-.162.171-.459-.342-2.358-.513-2.988 0-.153-.081-.279-.099-.369-.022-.087-.007-.18.04-.256.048-.076.124-.13.212-.149.087-.022.18-.007.256.04.076.048.13.124.149.212 0 .072.054.198.09.351.45 1.638.702 2.853.495 3.402-.162.311-.463.526-.81.576l-.099-.009z"/>
                    <circle cx="62.271" cy="95.184" r="1" fill="#E55C27" fill-rule="nonzero"/>
                    <path fill="#231F20" fill-rule="nonzero" d="M55.449 92.421c-.084.001-.165-.031-.225-.09-.13-.133-.13-.344 0-.477.642-.67 1.704-.694 2.376-.054.103.132.095.32-.02.443-.113.122-.3.145-.439.052-.24-.23-.572-.337-.9-.288-.24.04-.458.161-.621.342-.05.039-.109.064-.171.072z"/>
                    <path fill="#2B2B2A" fill-rule="nonzero" d="M78.516 150.516c-.334-.004-.615-.253-.66-.584-.045-.331.16-.645.48-.739 2.142-.621 4.329-1.17 6.498-1.647 2.169-.477 4.572-.9 6.858-1.251.37-.048.71.208.765.576.054.368-.2.71-.567.765-2.259.324-4.5.738-6.768 1.233-2.268.495-4.293 1.008-6.417 1.62l-.189.027z"/>
                    <rect width="11.691" height="27.954" x="65.06" y="4.952" fill="#FAA61B" fill-rule="nonzero" rx="5.846" transform="rotate(-123.66 70.906 18.929)"/>
                    <rect width="4.707" height="9.549" x="76.17" y="32.315" fill="#FAA61B" fill-rule="nonzero" rx="2.349" transform="rotate(-49.25 78.523 37.09)"/>
                    <rect width="4.707" height="9.549" x="58.429" y=".756" fill="#E55C27" fill-rule="nonzero" rx="2.349" transform="rotate(-19.29 60.783 5.53)"/>
                    <circle cx="47.205" cy="30.645" r="5.526" fill="#2B2B2A" fill-rule="nonzero"/>
                    <rect width="13.293" height="13.293" x="54.035" y="39.757" fill="#E55C27" fill-rule="nonzero" rx="6.642" transform="rotate(-117.59 60.682 46.403)"/>
                </g>
            </g>
        </g>
    </g>
</svg>
