<?xml version="1.0" encoding="utf-8"?>
<svg width="100%" height="48" xmlns="http://www.w3.org/2000/svg" viewBox="0 0 150 30" style="enable-background:new 0 0 150 30;">
<style type="text/css">
	.st0{fill:#667285;}
</style>
<polygon class="st0" points="34.3,10.2 39,10.2 39,22.4 41.9,22.4 41.9,10.2 46.6,10.2 46.6,7.7 34.3,7.7 "/>
<polygon class="st0" points="58,13.6 51.6,13.6 51.6,7.7 48.6,7.7 48.6,22.4 51.6,22.4 51.6,16.2 58,16.2 58,22.4 61,22.4 61,7.7 
	58,7.7 "/>
<polygon class="st0" points="66.4,16.1 72.8,16.1 72.8,13.7 66.4,13.7 66.4,10.2 73.6,10.2 73.6,7.7 63.4,7.7 63.4,22.4 73.8,22.4 
	73.8,19.9 66.4,19.9 "/>
<path class="st0" d="M89.9,14.7L89.9,14.7c0.8-0.3,2.2-1.3,2.2-3.4c0-2.1-1.6-3.7-4.1-3.7h-6.5v14.7h6.8c2.5,0,4.4-1.6,4.4-4
	C92.6,16.3,91.2,15.1,89.9,14.7z M84.3,10h2.8c1.3,0,2.1,0.6,2.1,1.9c0,1.2-0.7,1.9-2,1.9h-2.8V10z M87.5,20.1h-3.2v-4.1h3.1
	c1.4,0,2.3,0.7,2.3,2.1C89.6,19.4,88.8,20.1,87.5,20.1z"/>
<polygon class="st0" points="97.6,7.7 94.7,7.7 94.7,22.4 104.8,22.4 104.8,19.8 97.6,19.8 "/>
<path class="st0" d="M112.8,7.6c-4.2,0-7.3,2.9-7.3,7.5c0,4.6,3.1,7.4,7.3,7.4c4.2,0,7.3-2.9,7.3-7.5
	C120.1,10.4,116.9,7.6,112.8,7.6z M112.8,19.9c-2.4,0-4.3-1.8-4.3-4.9c0-3.1,1.9-4.9,4.3-4.9c2.4,0,4.3,1.8,4.3,4.9
	C117.1,18.1,115.2,19.9,112.8,19.9z"/>
<path class="st0" d="M128.7,10.1c2.4,0,3.4,1.4,3.7,3h2.9c-0.3-3.2-2.4-5.6-6.6-5.6c-4,0-6.9,3-6.9,7.5c0,4.6,2.9,7.5,6.9,7.5
	c4.3,0,6.3-2.4,6.6-5.6h-2.9c-0.2,1.6-1.2,3-3.6,3c-2.3,0-4-1.8-4-4.9C124.7,12,126.5,10.1,128.7,10.1z"/>
<polygon class="st0" points="144.2,14 149.6,7.7 146.1,7.7 140.1,15 140.1,7.7 137.2,7.7 137.2,22.4 140.1,22.4 140.1,18.5 
	142.2,16.1 146.6,22.4 150,22.4 "/>
<g>
	<polygon class="st0" points="12.8,28.3 12.8,28.3 12.8,28.3 	"/>
	<polygon class="st0" points="12.8,28.3 12.8,28.3 12.8,28.3 	"/>
	<path class="st0" d="M12.4,28.4L0.5,23.5C0.1,23.3,0,23.3,0,22.8L0,7c0-0.4,0.1-0.5,0.5-0.7l11.9-4.6c0.4-0.1,0.5-0.1,0.9,0
		l11.9,4.6c0.4,0.2,0.5,0.3,0.5,0.7l0,15.9c0,0.4-0.1,0.5-0.5,0.7l-11.9,4.8C12.9,28.5,12.8,28.6,12.4,28.4z M12.8,27.1l10.4-4.1
		l-10.4-3.8L2.4,22.9L12.8,27.1z M1.4,21.9l9.4-3.5l-1.7-0.7c-0.1-0.1-0.2-0.2-0.2-0.3l0-4.9c0-0.2,0.1-0.3,0.2-0.3l1.7-0.7L1.4,7.9
		L1.4,21.9z M24.2,21.9l0-13.9l-9.4,3.5l1.7,0.7c0.1,0.1,0.2,0.2,0.2,0.3l0,4.9c0,0.1-0.1,0.3-0.2,0.3l-1.7,0.7L24.2,21.9z
		 M12.8,17.6l2.5-1l0-3.5l-2.5-1l-2.5,1l0,3.5L12.8,17.6z M12.8,10.7l10.4-3.8l-10.4-4l-10.4,4L12.8,10.7z"/>
	<path class="st0" d="M25.1,6.4L13.2,1.7c-0.1,0-0.3-0.1-0.4-0.1c-0.1,0-0.3,0-0.4,0.1L0.5,6.4C0.3,6.4,0.1,6.7,0.1,7l0,15.9
		c0,0.3,0.2,0.5,0.4,0.6l11.8,4.8l0,0c0.1,0,0.3,0.1,0.4,0.1s0.3,0,0.4-0.1l0,0l11.8-4.8c0.2-0.1,0.4-0.3,0.4-0.6l0-15.9
		C25.5,6.7,25.3,6.4,25.1,6.4z M12.8,2.8l10.7,4.1l-10.7,3.9L2.1,6.9L12.8,2.8z M12.8,12l2.6,1.1l0,3.6l-2.6,1.1l-2.6-1.1l0-3.6
		L12.8,12z M1.3,7.8l9.8,3.7l-2,0.8c-0.1,0-0.2,0.1-0.2,0.2l0,4.9c0,0.1,0.1,0.2,0.1,0.2l2,0.8L1.3,22L1.3,7.8z M12.8,27.2L2.1,22.9
		L12.8,19l10.7,3.9L12.8,27.2z M24.3,22l-9.8-3.6l2-0.8c0.1,0,0.1-0.1,0.1-0.2l0-5c0-0.1-0.1-0.2-0.1-0.2l-2-0.8l9.8-3.7L24.3,22z"
		/>
</g>
<g>
</g>
<g>
</g>
<g>
</g>
<g>
</g>
<g>
</g>
<g>
</g>
</svg>
