<?xml version="1.0" encoding="UTF-8"?>
<svg width="641px" height="178px" viewBox="0 0 641 178" version="1.1" xmlns="http://www.w3.org/2000/svg" xmlns:xlink="http://www.w3.org/1999/xlink">
    <title>Group 4</title>
    <defs>
        <polygon id="path-1" points="0 0 68.1830213 0 68.1830213 83.6978711 0 83.6978711"></polygon>
    </defs>
    <g id="Page-1" stroke="none" stroke-width="1" fill="none" fill-rule="evenodd">
        <g id="Hermez-Logo-v3-Copy-3" transform="translate(-159.000000, -151.000000)">
            <g id="Group-4" transform="translate(159.000000, 151.000000)">
                <g id="Group-2" fill-rule="nonzero">
                    <path d="M0,88.8888889 C0,160 17.7777778,177.777778 88.8888889,177.777778 C160,177.777778 177.777778,160 177.777778,88.8888889 C177.777778,17.7777778 160,0 88.8888889,0 C17.7777778,0 0,17.7777778 0,88.8888889 Z" id="Path-Copy-16" fill="#E75A2B"></path>
                    <path d="M136.683888,85.5060939 C136.766262,86.0509066 136.706536,86.6077469 136.51049,87.1227285 L132.447695,96.8610517 C132.047346,97.912704 131.123943,98.6770455 130.015562,98.8742352 L118.473282,100.927698 C116.731818,101.237518 115.06879,100.077695 114.758804,98.3371604 C114.690845,97.9555756 114.692786,97.5648274 114.764533,97.1839359 L116.604199,87.4175185 C116.856136,86.080035 117.926693,85.0480021 119.273112,84.8446445 L133.038522,82.8192761 C134.787502,82.5551174 136.419588,83.7580467 136.683888,85.5060939 Z M128.358399,88.9158897 L122.498785,89.7823216 C122.048955,89.8488359 121.690748,90.1932084 121.606578,90.6400723 L121.046191,93.6151915 C120.937146,94.194115 121.318058,94.7518235 121.896982,94.8608682 C122.023898,94.8847738 122.1541,94.8854325 122.281251,94.8628123 L127.491926,93.9358343 C127.85,93.872133 128.150939,93.6303759 128.290323,93.2944491 L129.499649,90.3798761 C129.725419,89.8357519 129.467342,89.2116294 128.923218,88.9858594 C128.744756,88.9118116 128.549534,88.8876275 128.358399,88.9158897 Z M144.937143,65.1659087 C145.001919,65.6847535 144.938545,66.2115588 144.75256,66.7002695 L140.83837,76.5184328 C140.424031,77.6071914 139.450643,78.3850505 138.29683,78.5494424 L122.424733,80.836181 C120.673598,81.0856774 119.051659,79.8691167 118.802029,78.1189166 C118.752556,77.7720549 118.760395,77.4194282 118.825233,77.0751048 L120.683626,67.2060451 C120.94113,65.8385603 122.053045,64.7939753 123.434567,64.6216815 L141.362461,62.3858392 C143.117687,62.1669397 144.718127,63.4116192 144.937143,65.1659087 Z M134.905208,68.3457846 L124.635744,69.6265816 C124.175639,69.6839654 123.805304,70.0320122 123.719508,70.4876749 L123.120836,73.6672203 C123.01183,74.2461511 123.392779,74.8038341 123.97171,74.9128402 C124.087192,74.9345842 124.205474,74.9370961 124.321776,74.9202743 L133.918172,73.5322546 C134.290618,73.4783842 134.607118,73.2322445 134.751048,72.8845344 L136.022788,69.8122118 C136.248099,69.2678972 135.989495,68.6439927 135.44518,68.4186822 C135.274536,68.3480465 135.088475,68.3229278 134.905208,68.3457846 Z M155.3652,39.8520594 C155.413577,40.4806577 155.322021,41.1121614 155.097111,41.7011803 L149.599581,55.4796347 C149.038377,56.9493799 147.71375,57.9914224 146.15253,58.1913215 L117.34632,61.8796797 C115.006988,62.1792086 112.867639,60.5266334 112.56795,58.1885496 C112.513337,57.7624748 112.523392,57.3306012 112.597775,56.9075266 L115.740392,41.8363427 C116.077949,39.9164021 117.674141,38.4690204 119.618795,38.3195178 L150.779918,35.923889 C153.131422,35.7431083 155.184323,37.5018101 155.3652,39.8520594 Z M143.065333,44.0045731 L121.050615,45.8206159 L119.408309,54.2719348 L141.096739,51.2791173 C141.838024,51.1768263 142.471519,50.6936168 142.766144,50.0057482 L144.489608,45.9819399 C144.798864,45.2599109 144.464247,44.4238885 143.742218,44.1146316 C143.528944,44.0232831 143.296561,43.9854986 143.065333,44.0045731 Z" id="Rectangle-Copy-34" fill="#FFC55A"></path>
                    <path d="M77.8571946,45.8666667 L59.7679865,45.8666667 C55.2170305,45.8666667 51.3222593,49.1325738 50.5289676,53.6139196 L38.3674446,122.314989 C37.4641705,127.417631 40.8683718,132.286398 45.970941,133.189685 C46.5108705,133.285267 47.0581393,133.333333 47.6064635,133.333333 L65.6935371,133.333333 L65.8298262,133.332356 C70.3207148,133.267931 74.145117,130.024517 74.9319324,125.5896 L78.200621,107.164444 L84.303823,107.164444 L81.6166959,122.311521 C80.7115067,127.413824 84.1138804,132.283869 89.2161103,133.189071 C89.7571619,133.28506 90.3056,133.333333 90.8551003,133.333333 L108.943125,133.333333 C113.494081,133.333333 117.388852,130.067426 118.182144,125.58608 L130.343667,56.8850111 C131.246941,51.7823692 127.842739,46.9136019 122.74017,46.0103149 C122.200241,45.9147334 121.652972,45.8666667 121.104648,45.8666667 L103.018436,45.8666667 L102.88224,45.8676425 C98.3943913,45.9319819 94.5716366,49.1711087 93.781479,53.6023162 L90.6128887,71.3717333 L84.5128866,71.3717333 L87.0941479,56.8966371 C88.0038427,51.7951359 84.6057712,46.9220883 79.5043428,46.0123805 C78.9606517,45.9154273 78.4094623,45.8666667 77.8571946,45.8666667 Z M77.8571946,50.4888889 C78.1374002,50.4888889 78.4170587,50.5136287 78.6929127,50.5628201 C81.2553553,51.0197655 82.9707592,53.4475848 82.5569653,56.0075812 L82.5437731,56.0851954 L79.3928119,73.7555515 C79.3731356,73.8658947 79.3632398,73.9777596 79.3632398,74.0898435 C79.3632398,75.1245585 80.1885012,75.9665206 81.2167145,75.9934115 L81.2674433,75.9940741 L92.8890413,75.9940741 C93.7946639,75.9940741 94.5723893,75.3567994 94.7540316,74.4743406 L94.7636735,74.4241309 L98.3318558,54.4137468 C98.7327193,52.1657022 100.671926,50.5223634 102.948637,50.4888889 L103.018436,50.4888889 L121.104648,50.4888889 C121.382852,50.4888889 121.660522,50.5132766 121.934467,50.5617721 C124.497483,51.0154923 126.215941,53.4411508 125.805369,56.001666 L125.792274,56.0792967 L113.630751,124.780366 C113.232322,127.031112 111.291916,128.677573 109.012992,128.711111 L108.943125,128.711111 L90.8551003,128.711111 C90.5762988,128.711111 90.2980363,128.686619 90.0235214,128.637916 C87.4606763,128.183234 85.7431289,125.756931 86.1546619,123.19657 L86.1677856,123.118944 L89.4214222,104.779089 C89.4409029,104.669282 89.4506998,104.557975 89.4506998,104.446453 C89.4506998,103.411738 88.6254384,102.569776 87.5972251,102.542885 L87.5464963,102.542222 L75.9226196,102.542222 C75.0163798,102.542222 74.2383076,103.180345 74.0573004,104.063554 L74.0476956,104.113806 L70.3808472,124.782152 C69.9816793,127.032078 68.041637,128.677592 65.763384,128.711111 L65.6935371,128.711111 L47.6064635,128.711111 C47.3282587,128.711111 47.0505895,128.686723 46.7766439,128.638228 C44.2136284,128.184508 42.4951704,125.758849 42.9057424,123.198334 L42.918837,123.120703 L55.08036,54.419634 C55.478789,52.168888 57.4191947,50.5224272 59.698119,50.4888889 L59.7679865,50.4888889 L77.8571946,50.4888889 Z" id="H-Copy-17" fill="#E75A2B"></path>
                    <path d="M77.857102,50.4888889 L59.7676363,50.4888889 C57.4585723,50.4888889 55.4824434,52.1459212 55.079943,54.419634 L42.9182468,123.120703 C42.4599436,125.709645 44.1871672,128.179925 46.7761087,128.638228 C47.0500581,128.686723 47.3277314,128.711111 47.6059401,128.711111 L65.6932713,128.711111 C68.0016509,128.711111 69.9774014,127.055037 70.3806482,124.782152 L74.0475487,104.113806 C74.2088475,103.204652 74.9991477,102.542222 75.9224995,102.542222 L87.5465418,102.542222 C88.5982193,102.542222 89.4507724,103.394775 89.4507724,104.446453 C89.4507724,104.557975 89.4409754,104.669282 89.4214944,104.779089 L86.1678114,123.118944 C85.7085365,125.707713 87.4348328,128.178641 90.0236021,128.637916 C90.2981209,128.686619 90.5763874,128.711111 90.8551929,128.711111 L108.943475,128.711111 C111.252539,128.711111 113.228668,127.054079 113.631168,124.780366 L125.792864,56.0792967 C126.251168,53.4903552 124.523944,51.0200753 121.935002,50.5617721 C121.661053,50.5132766 121.38338,50.4888889 121.105171,50.4888889 L103.018702,50.4888889 C100.711895,50.4888889 98.7370146,52.1427629 98.3320549,54.4137468 L94.7638218,74.4241309 C94.6018379,75.3325245 93.8118858,75.9940741 92.8891628,75.9940741 L81.2673993,75.9940741 C80.2157218,75.9940741 79.3631687,75.141521 79.3631687,74.0898435 C79.3631687,73.9777596 79.3730646,73.8658947 79.3927412,73.7555515 L82.5437473,56.0851954 C83.0053082,53.4968327 81.2811947,51.0243811 78.6928321,50.5628201 C78.4169741,50.5136287 78.1373116,50.4888889 77.857102,50.4888889 Z" id="H-Copy-18" fill="#FFFFFF"></path>
                </g>
                <g id="Group-32" transform="translate(225.185185, 47.111111)">
                    <g id="Group-3">
                        <mask id="mask-2" fill="white">
                            <use xlink:href="#path-1"></use>
                        </mask>
                        <g id="Clip-2"></g>
                        <path d="M17.1950948,81.2481773 L17.1950948,51.711811 C17.1950948,50.3591718 18.291741,49.2621172 19.6447886,49.2621172 L48.5385185,49.2621172 C49.8915661,49.2621172 50.9882123,50.3591718 50.9882123,51.711811 L50.9882123,81.2481773 C50.9882123,82.6008166 52.0848586,83.6978711 53.4379061,83.6978711 L65.7333275,83.6978711 C67.086375,83.6978711 68.1830213,82.6008166 68.1830213,81.2481773 L68.1830213,2.44969379 C68.1830213,1.09705453 67.086375,0 65.7333275,0 L53.4379061,0 C52.0848586,0 50.9882123,1.09705453 50.9882123,2.44969379 L50.9882123,30.7902012 C50.9882123,32.1432488 49.8915661,33.239895 48.5385185,33.239895 L19.6447886,33.239895 C18.291741,33.239895 17.1950948,32.1432488 17.1950948,30.7902012 L17.1950948,2.44969379 C17.1950948,1.09705453 16.0980402,0 14.745401,0 L2.4495713,0 C1.09693205,0 -0.000122484689,1.09705453 -0.000122484689,2.44969379 L-0.000122484689,81.2481773 C-0.000122484689,82.6008166 1.09693205,83.6978711 2.4495713,83.6978711 L14.745401,83.6978711 C16.0980402,83.6978711 17.1950948,82.6008166 17.1950948,81.2481773" id="Fill-1" fill="#2B2B2B" mask="url(#mask-2)"></path>
                    </g>
                    <path d="M134.614756,68.9793759 C134.614756,68.9875416 134.610674,68.9957072 134.602508,68.99979 L134.622922,68.99979 C134.651502,68.9544707 134.671916,68.9099679 134.684164,68.8650569 C134.667833,68.9054768 134.643336,68.9426305 134.614756,68.9793759 L134.614756,68.9793759 Z" id="Fill-4" fill="#2B2B2B"></path>
                    <path d="M94.9353922,45.3193351 C94.4009507,45.3193351 94.0053252,44.813065 94.142508,44.2969962 C95.7727792,38.1609216 100.819557,33.4791484 108.676541,33.4791484 C117.483599,33.4791484 121.632972,40.0128901 122.373596,44.3590551 C122.459335,44.8608341 122.076775,45.3193351 121.567647,45.3193351 L94.9353922,45.3193351 Z M108.66021,20.0139983 C91.8308136,19.6547098 77.6307553,33.6587927 77.9900437,51.8559347 C77.9900437,70.6491689 92.0717002,83.6978711 108.778612,83.6978711 C121.64767,83.6978711 130.205267,77.9941674 134.622881,68.9997084 L134.602467,68.9997084 C134.610633,68.9956255 134.614716,68.9874599 134.614716,68.9792943 C134.643295,68.9425488 134.667792,68.9058034 134.684124,68.8649752 C134.700455,68.8404783 134.712703,68.8159813 134.724952,68.7914844 C134.753532,68.7424905 134.773946,68.6934966 134.79436,68.6445028 C134.806608,68.6281715 134.814774,68.6077574 134.82294,68.5832604 C134.937259,68.3015456 134.998501,67.9953339 134.998501,67.6727909 C134.998501,66.5132692 134.190102,65.5374745 133.104071,65.2884223 L133.099988,65.2884223 L133.099988,65.2761738 L123.836063,62.5202683 L123.709495,62.4835229 L123.705413,62.4835229 C123.497189,62.4222805 123.280799,62.3937008 123.056244,62.3937008 C122.121277,62.3937008 121.304713,62.920385 120.892348,63.6920385 L120.884182,63.6920385 C118.838688,66.9664625 114.755865,69.8121901 108.778612,69.8121901 C101.174354,69.8121901 95.4024672,64.3967337 94.1408749,58.0981627 C94.0396209,57.5935258 94.4311636,57.1227763 94.945191,57.1227763 L134.733118,57.1227763 C136.086165,57.1227763 137.182811,56.0261301 137.182811,54.6730825 L137.182811,51.3782444 C137.182811,32.9402158 126.2041,20.0139983 108.66021,20.0139983 L108.66021,20.0139983 Z" id="Fill-6" fill="#2B2B2B"></path>
                    <polygon id="Fill-8" fill="#FDF5EC" points="133.100029 65.276133 133.104112 65.2883815 133.100029 65.2883815"></polygon>
                    <path d="M134.622922,68.9997084 L134.602508,68.9997084 C134.610674,68.9956255 134.614756,68.9874599 134.614756,68.9792943 L134.622922,68.9997084 Z" id="Fill-10" fill="#FDF5EC"></path>
                    <path d="M352.625133,68.9997084 L352.645955,68.9997084 C352.674127,68.9588801 352.690458,68.9180519 352.702706,68.8772237 C352.678618,68.9180519 352.653712,68.9588801 352.625133,68.9997084" id="Fill-12" fill="#2B2B2B"></path>
                    <path d="M352.70287,68.8773053 C352.690621,68.9181336 352.67429,68.9589618 352.64571,68.99979 L352.625296,68.99979 C352.653876,68.9589618 352.678373,68.9181336 352.70287,68.8773053" id="Fill-14" fill="#FDF5EC"></path>
                    <path d="M312.957935,45.3193351 C312.423902,45.3193351 312.027868,44.813065 312.165051,44.2969962 C313.795731,38.1609216 318.8421,33.4791484 326.699084,33.4791484 C335.50655,33.4791484 339.655923,40.0128901 340.396547,44.3590551 C340.481878,44.8608341 340.099726,45.3193351 339.59019,45.3193351 L312.957935,45.3193351 Z M326.682753,20.0139983 C309.853357,19.6547098 295.653298,33.6587927 296.012587,51.8559347 C296.012587,70.6491689 310.094243,83.6978711 326.801155,83.6978711 C339.670621,83.6978711 348.228218,77.9941674 352.645833,68.9997084 L352.62501,68.9997084 C352.653998,68.9588801 352.678495,68.9180519 352.702992,68.8772237 C352.706667,68.8731409 352.706667,68.869058 352.706667,68.8649752 C352.722998,68.8404783 352.735655,68.8159813 352.747903,68.7914844 C352.784649,68.7261592 352.817311,68.6567512 352.845483,68.5832604 C352.96021,68.3015456 353.021452,67.9953339 353.021452,67.6727909 C353.021452,66.5091864 352.208971,65.5374745 351.12294,65.2884223 L351.12294,65.2761738 L341.858606,62.5202683 C341.814103,62.5080198 341.772867,62.4916885 341.732447,62.4835229 C341.71979,62.4794401 341.703459,62.4753572 341.691619,62.4712744 C341.495235,62.4222805 341.291094,62.3937008 341.079195,62.3937008 C340.144229,62.3937008 339.327664,62.920385 338.914891,63.6920385 L338.907133,63.6920385 C336.861639,66.9664625 332.778816,69.8121901 326.801155,69.8121901 C319.196897,69.8121901 313.425418,64.3967337 312.163418,58.0981627 C312.062572,57.5935258 312.453707,57.1227763 312.968142,57.1227763 L352.756069,57.1227763 C354.108708,57.1227763 355.205763,56.0261301 355.205763,54.6730825 L355.205763,51.3782444 C355.205763,32.9402158 344.227052,20.0139983 326.682753,20.0139983 L326.682753,20.0139983 Z" id="Fill-16" fill="#2B2B2B"></path>
                    <path d="M183.951508,35.5205599 L183.955591,35.5205599 L183.939259,35.5573053 C183.943342,35.5450569 183.947425,35.5328084 183.951508,35.5205599" id="Fill-18" fill="#2B2B2B"></path>
                    <path d="M186.801522,21.6307962 C186.756611,21.610382 186.7117,21.5940507 186.666789,21.5818023 L186.666789,21.5736366 C186.7117,21.5899679 186.756611,21.610382 186.801522,21.6307962" id="Fill-20" fill="#2B2B2B"></path>
                    <path d="M183.955713,35.5205599 L183.939382,35.5573053 C183.943465,35.5450569 183.947547,35.5328084 183.95163,35.5205599 L183.955713,35.5205599 Z" id="Fill-22" fill="#FDF5EC"></path>
                    <path d="M186.801522,21.6307962 C186.756611,21.610382 186.7117,21.5940507 186.666789,21.5818023 L186.666789,21.5736366 C186.7117,21.5899679 186.756611,21.610382 186.801522,21.6307962" id="Fill-24" fill="#FDF5EC"></path>
                    <path d="M188.373246,23.9172178 C188.373246,24.235678 188.312003,24.5418898 188.201767,24.8236045 L188.197684,24.8236045 C188.193602,24.8399358 188.185436,24.86035 188.17727,24.8807641 L183.955631,35.5206008 L183.951549,35.5206008 C183.947466,35.5328492 183.943383,35.5450977 183.9393,35.5573462 C183.931134,35.5818431 183.922969,35.6022572 183.91072,35.6267542 C183.902555,35.6594167 183.886223,35.6920793 183.873975,35.7288247 C183.494272,36.5903004 182.628714,37.1945582 181.628422,37.1945582 C181.363039,37.1945582 181.109904,37.15373 180.869017,37.0720735 L180.869017,37.0802391 C179.521686,36.5453893 177.892639,36.2963371 176.010458,36.2963371 C172.580887,36.2963371 169.673917,37.5538466 167.620257,39.9259668 C165.566597,42.2980869 164.374412,45.7889006 164.374412,50.2595917 L164.374412,81.0032488 C164.374412,82.3562963 163.277766,83.4529425 161.924719,83.4529425 L149.43128,83.4529425 C148.078641,83.4529425 146.981586,82.3562963 146.981586,81.0032488 L146.981586,24.1703529 C146.981586,22.8173053 148.078641,21.7206591 149.43128,21.7206591 L159.503605,21.7206591 C160.520227,21.7206591 161.430697,22.3494138 161.789985,23.2966288 L163.189577,26.9597375 C163.421481,27.5656285 164.236005,27.6750481 164.611624,27.1459143 C167.537375,23.0238962 172.255077,20.0058734 178.582636,20.0058734 C181.579428,20.0058734 184.306754,20.5448061 186.666626,21.5736775 L186.666626,21.5818431 C186.711537,21.5940916 186.756448,21.6104229 186.801359,21.630837 C186.809525,21.630837 186.81769,21.6349198 186.825856,21.6390026 C186.87485,21.6634996 186.919761,21.6839137 186.968755,21.7043278 C187.021831,21.7288247 187.074908,21.7574045 187.127985,21.7859843 C187.13615,21.7900671 187.148399,21.7941499 187.156565,21.8023155 C187.883307,22.2269291 188.373246,23.014914 188.373246,23.9172178" id="Fill-26" fill="#2B2B2B"></path>
                    <path d="M213.776448,81.0033712 L213.776448,48.5449286 C213.776448,40.3380461 217.573882,36.1739749 223.575223,36.1739749 C229.454488,36.1739749 232.63909,39.8485156 232.63909,47.3200817 L232.63909,81.0033712 C232.63909,82.3560105 233.736145,83.453065 235.088784,83.453065 L247.582631,83.453065 C248.93527,83.453065 250.032324,82.3560105 250.032324,81.0033712 L250.032324,48.5449286 C250.032324,40.3380461 253.82935,36.1739749 259.831099,36.1739749 C265.832441,36.1739749 268.772073,39.8485156 268.772073,47.3200817 L268.772073,81.0033712 C268.772073,82.3560105 269.869128,83.453065 271.221767,83.453065 L283.715614,83.453065 C285.068253,83.453065 286.165308,82.3560105 286.165308,81.0033712 L286.165308,43.0331175 C286.165308,27.3550773 278.816226,20.0059959 266.444864,20.0059959 C258.493567,20.0059959 252.27706,23.3669758 248.304882,27.8446078 C247.944369,28.2516652 247.300099,28.1932808 247.008994,27.7339633 C243.768457,22.6161446 238.570615,20.0059959 231.414243,20.0059959 C223.861429,20.0059959 217.553876,23.3257393 213.923021,27.3877399 C213.513922,27.8454243 212.764316,27.6943599 212.554459,27.117457 L211.178548,23.3330884 C210.8262,22.365051 209.90634,21.7207816 208.876244,21.7207816 L198.833316,21.7207816 C197.480677,21.7207816 196.383622,22.8174278 196.383622,24.1704754 L196.383622,81.0033712 C196.383622,82.3560105 197.480677,83.453065 198.833316,83.453065 L211.326754,83.453065 C212.679802,83.453065 213.776448,82.3560105 213.776448,81.0033712" id="Fill-28" fill="#2B2B2B"></path>
                    <path d="M414.814815,80.9216331 L414.814815,71.1616448 C414.814815,69.8085973 413.71776,68.711951 412.365121,68.711951 L386.787052,68.711951 C386.497171,68.711951 386.213007,68.5747682 386.0648,68.3253077 C385.877807,68.0117469 385.917819,67.6422514 386.124409,67.384217 L413.644678,33.1150423 C413.993759,32.6798134 414.184427,32.1388393 414.184427,31.5811257 L414.184427,22.1289822 C414.184427,20.7759347 413.087781,19.6792884 411.734733,19.6792884 L366.703645,19.6792884 C365.350598,19.6792884 364.253952,20.7759347 364.253952,22.1289822 L364.253952,31.8889705 C364.253952,33.2416098 365.350598,34.3386643 366.703645,34.3386643 L390.765354,34.3386643 C391.055235,34.3386643 391.338991,34.4762555 391.487197,34.7253077 C391.673782,35.039685 391.634179,35.4095888 391.426363,35.6676232 L364.004083,69.6963196 C363.594576,70.2042228 363.371245,70.8370604 363.371245,71.4890872 L363.371245,80.9216331 C363.371245,82.2742724 364.4683,83.3713269 365.820939,83.3713269 L412.365121,83.3713269 C413.71776,83.3713269 414.814815,82.2742724 414.814815,80.9216331" id="Fill-30" fill="#2B2B2B"></path>
                </g>
            </g>
        </g>
    </g>
</svg>